<?xml version="1.0" encoding="UTF-8"?>
<svg width="1e3pt" height="600pt" version="1.2" viewBox="0 0 1e3 600" xmlns="http://www.w3.org/2000/svg">
<g id="surface60">
<rect width="1e3" height="600" fill="#20282d"/>
<g fill="none" stroke-linecap="round" stroke-linejoin="round" stroke-miterlimit="10">
<g stroke="#fff">
<g stroke-width="14.1">
<path transform="scale(.1)" d="m4050.9 473.75-10 2-16 6-8 5-9 6-18 16-9 10-9 11-10 11-9 12-8 13-8 14-8 15-7 15-4 16-5 17-3 17-1 16v16l1 14 3 14 5 12 5 10 7 9 8 7 20 10 12 2 13 1 14-1 15-2 14-3 16-5 16-6 15-7 16-8 15-9 14-9 14-11 14-12 24-24 11-13 10-13 8-13 7-13 6-13 4-13 3-14 1-14v-15l-2-14-4-14-5-14-7-13-7-12-9-12-10-9-11-8-13-6-12-3-15-2-15 1-17 2-17 4-18 7-18 8-19 9-18 11-17 12-17 13-15 14-13 13-10 14-8 13-5 11-3 11 1 10 3 8 6 7 6 6 22 12" style="clip-to-self:true;comp-op:src"/>
<path transform="scale(.1)" d="m4295.9 545.94-2-4-4-3-3-1-1 4v7l1 6v7l1 8v10l1 11 1 13 1 14 1 16 1 17 2 37 2 36v16 16 14l1 13v19 8 6 3 4l1-6v-5l-1-7v-18-12l-1-13-1-14-1-16-1-17-1-18-1-20v-21l-1-22 1-20 1-21 3-19 3-16 4-15 5-12 4-9 5-7 5-4 4-3 5-1h4l5 1 10 6 10 12 4 7 4 8 4 9 4 10 2 10 2 11 1 10 1 11-1 11-2 12-2 10-3 11-2 10-4 9-10 16-5 7-5 6-6 4-4 4-6 3-5 2-5 1h-4l-4-2-3-3-3-4-6-13" style="clip-to-self:true;comp-op:src"/>
<path transform="scale(.1)" d="m4442.8 690.31 2-2 3-2 8-8 3-2 3-3 3-4 3-3 4-5 12-18 3-5 2-4 2-5 1-4 1-5 1-4v-9l-2-7-6-6h-5l-3 1-4 3-4 2-9 9-5 7-4 7-5 9-4 8-6 20-2 9-2 20v9l1 9 1 8 4 14 3 5 4 5 3 3 4 3 4 1h4 5l4-2 8-5 9-9 4-6 6-12 3-8 2-7 3-9 3-8 4-20 3-9 3-11 4-11 3-10 8-18 5-7 4-5 4-4 4-3 4-1h3 4l2 2 4 3 3 4 2 5 6 14 2 8 2 9 2 10 1 10 1 11v22l-1 12v10l-1 11-2 9-1 8-2 7-1 5-2 5-2 3-2 2-4 2-4-2-3-5v-5-12l1-8 1-9 6-20 4-12 5-12 4-13 6-13 6-12 7-12 7-10 9-10 8-8 8-7 9-4 8-4 8-2 7-1 7 1 6 2 5 3 5 5 8 10 3 5 3 6 5 14" style="clip-to-self:true;comp-op:src"/>
<path transform="scale(.1)" d="m4734.4 638.44 4-6 3-4 2-4 4-10 1-6 2-10v-10-5l-1-5-4-6-3-1-2-1h-4l-4 2-5 3-5 4-5 5-6 7-5 8-6 9-7 11-10 24-8 25-3 13-3 12-1 13v22l1 9 3 7 2 6 3 4 4 2h5l6-1 6-3 6-4 7-6 7-8 7-9 7-10 5-11 6-12 5-14 5-12 5-13 4-12 6-12 4-10 3-9 3-7 6-10 2-3 2 5v4 5l1 5 1 7 1 6 2 16 2 8 2 9 2 8 3 9 2 8 8 14 4 6 4 5 4 4 5 3 5 1 4 1 10-2 4-2 5-4 5-5 5-6 4-7 5-7 4-9 8-20 3-10 4-12 3-14 4-14 4-16 3-17 4-18 4-20 9-40 4-20 4-19 4-17 3-13 3-11 3-7 1-5v-4l-2 3-2 4-2 5-4 16-4 11-2 11-3 13-2 14-1 14-2 15-1 15v15l-1 16 1 16v15l1 16 2 16 2 15 3 14 2 12 4 11 3 10 4 8 4 6 3 5 5 3 3 2 4 1h4l4-2 3-2 3-3 3-4 2-5 1-5v-6-7l-5-15" style="clip-to-self:true;comp-op:src"/>
<path transform="scale(.1)" d="m4861.6 608.44-1-4 4-5 4-2 3-4 6-3 4-5 6-4 7-4 6-5 7-5 8-5 9-4 8-5 9-4 10-3 9-4 10-3 9-2 8-2 16-2 7 1 6 3 6 2 9 9 6 14 3 8 2 9 2 10 4 22 2 22v11l1 10v8l1 8 1 7 1 5 1 4 2 4" style="clip-to-self:true;comp-op:src"/>
<path transform="scale(.1)" d="m5090 468.12-4-4-5-3h-4l-4 1-3 4-2 3-1 3-4 10-2 6-1 7-2 6v7 6 6l1 6 1 5 2 4 6 6 6 2h4l4-1 4-2 4-3 8-8 4-5 3-5 2-6 2-5 2-12v-6l-1-6-2-6-4-10-3-5-6-6-4-2-4-1-4 1-4 2-4 3-5 4-3 5-4 7-3 8-2 8-2 10-1 9v10 11l3 29" style="clip-to-self:true;comp-op:src"/>
<path transform="scale(.1)" d="m5198.4 593.44-2 4-3 4-4 6-4 7-4 8-3 9-4 10-2 10-2 9-2 18 1 9v8l2 6 2 5 3 5 4 3 5 3 10 2 12-2 7-2 7-3 6-5 7-5 7-7 6-7 6-8 5-8 5-9 4-8 3-8 2-9 1-9v-8l-1-9-3-7-2-7-4-6-4-5-5-4-6-2-6-1h-7l-8 1-7 2-8 3-8 4-7 5-8 6-7 6-10 14-3 7-3 8-1 7v6l1 7 2 5 8 12" style="clip-to-self:true;comp-op:src"/>
<path transform="scale(.1)" d="m5277.8 638.75-1-3v-4l3-5 2-2 2-3 8-6 8-5 5-2 4-1 6-1h4 6 5l10 4 8 8 4 6 2 7 3 7 1 9 2 20-1 11-1 12-1 11-2 10-2 9-1 9-2 6-2 5-2 4-1 3-3 2-2-4-1-4v-5l1-6 1-7 1-8 3-9 3-10 3-11 4-11 4-13 5-11 5-13 6-12 6-11 7-11 6-10 7-7 6-7 5-4 5-3 4-1h3l3 1 2 3 2 4 1 5 1 6 2 16v9l1 9v10l1 10 1 20 1 9 2 9 2 8 3 7 2 5 4 5 4 3 8 2 5-1 5-3 6-3 6-5 7-6 6-7 8-8 7-8 7-10 6-9 7-10 6-10 6-11 10-22 4-11 7-22 3-10 2-9 2-8 1-7v-5l-1-5-2-3h-5l-3 1-4 3-4 4-8 9-3 6-4 6-3 6-4 7-2 7-2 6-2 7v6 7l1 6 2 6 2 5 3 6 4 6 5 5 4 5 6 5 11 11 18 15 5 5 3 5 4 5 2 5 1 4v5l-1 5-2 4-4 4-3 4-10 6-6 2-7 2-7 1h-7-7-7l-7-1-8-3-8-2-8-3-19-10" style="clip-to-self:true;comp-op:src"/>
</g>
<path d="m390.53 88.219h170.84" stroke-width="1.41" style="clip-to-self:true;comp-op:src"/>
</g>
<g stroke="#ff0" stroke-width="14.1">
<path transform="scale(.1)" d="m7362.2 478.75-2 4-2 8v5l-2 6-4 16-4 20-2 12-2 11-2 12-2 13-8 48-1 11-2 11-2 20-1 9-1 8v14l1 5v4l1 4 2 4 3 4 4 2h4l8-1 5-2 6-2 7-3 7-4 8-3 7-3 8-4 9-5 8-3 16-8 16-5 7-2 6-1h6 4l4 1 4 2 7 7 2 5 3 4 2 4 4 1 3-1 3-5 2-3 1-11" style="clip-to-self:true;comp-op:src"/>
<path transform="scale(.1)" d="m7531.2 616.25 2 5v2 4l-1 4v4l-1 5v5l-1 4-1 5v5l-1 6v15l3 15 2 8 4 8 1 3 2 2 3 2 3-3" style="clip-to-self:true;comp-op:src"/>
<path transform="scale(.1)" d="m7523.8 492.19-3-2-3 1-2 3-1 4-1 3-1 5v5l-1 5v7 12 7l1 5 2 5 4 8 3 3 6 4 4 1h4l3-1 8-4 4-3 3-3 3-5 3-4 2-6 2-12v-6l-1-6-1-7-4-12-3-6-3-4-7-7-4-2-4-1-4 1-4 2-4 3-4 5-6 12-3 7-3 23" style="clip-to-self:true;comp-op:src"/>
<path transform="scale(.1)" d="m7641.6 544.38-1-5-1-6-1-7v-7l-1-6v-5l-1-4-1-3v-3l-2 7-1 5v7l-1 8-1 10v11l-1 12-6 78v12 23 11l1 9 2 9 4 14 1 5 2 5 3 3 4 2 4-2 6-9" style="clip-to-self:true;comp-op:src"/>
<path transform="scale(.1)" d="m7738.1 597.5 1-3 1-4v-4l-3-1-3 2-4 4-3 2-3 3-4 3-4 4-5 4-11 9-6 5-5 5-6 5-11 9-7 6-6 4-6 5-5 6-6 4-4 5-5 4-3 5-2 3-2 4-1 4v6l2 5 4 4 5 2 5 1h5 5 6l7-1 8-1h7 7l8-1h14l6 1h5l5 1 4 1h4l3 2 4 1 3 2" style="clip-to-self:true;comp-op:src"/>
<path transform="scale(.1)" d="m7779.1 678.44 1 5 1 6v3l1 4v3l2 8 2 3 2 4 1 3 3 3 6 4 4 2h5 5 6l7-1 6-2 7-1 14-6 6-4 6-3 14-14 6-15 2-12-1-5v-6l-2-5-5-9-3-4-3-2-5-2h-5-5l-5 2-6 2-7 3-6 5-11 11-6 8-8 16-4 9-3 9-4 18v9 8l1 8 3 7 3 6 10 10 7 3 8 3 9 2 11 1h11l22-2 12-2 29-8" style="clip-to-self:true;comp-op:src"/>
<path transform="scale(.1)" d="m8115.9 725-7-3 4 2h8 17 8l9-1h9l10-1h11l11-1h10l10-1h10l8-1h8l7-1h6l5-2 6-4 2-3" style="clip-to-self:true;comp-op:src"/>
<path transform="scale(.1)" d="m8189.7 649.38 1 4 2 4 2 5v3l1 4v4 5l1 6v13l-1 7v17 8 9l-1 9v9l-1 8v8l-1 8-1 17" style="clip-to-self:true;comp-op:src"/>
<path transform="scale(.1)" d="m8380.3 770.31-3 1-4 3-2 3-3 2-3 4-8 10-5 6-6 7-5 8-6 7-6 9-5 9-5 8-5 9-9 18-3 9-4 8-2 7-2 6-1 4v3" style="clip-to-self:true;comp-op:src"/>
<path transform="scale(.1)" d="m8415.3 732.81-2-2v-3l4-1 7-1h4 5 6l7-1h7l9-1h79 6l5-1h4" style="clip-to-self:true;comp-op:src"/>
<path transform="scale(.1)" d="m8683.8 759.69v-4l-4 3-2 2-3 4-5 4-10 10-7 6-6 7-8 6-7 7-9 8-8 8-16 14-14 14-7 6-12 8-5 2-4 1-7-1" style="clip-to-self:true;comp-op:src"/>
<path transform="scale(.1)" d="m8740.9 638.12-3-2 1 3 3 6 8 12 8 10 4 6 6 6 5 7 6 6 7 8 12 14 7 8 7 7 6 8 6 7 14 14 6 5 6 6 12 8 5 4 5 2 3 3 5 1 4-1" style="clip-to-self:true;comp-op:src"/>
<path transform="scale(.1)" d="m8857.5 639.06-4-1-4 2-4 4-2 3-4 3-8 8-5 6-12 12-6 7-6 9-6 8-8 9-7 9-7 10-12 20-5 10-5 8-2 7-3 6-1 5-1 3 3 5" style="clip-to-self:true;comp-op:src"/>
<path transform="scale(.1)" d="m8976.6 787.19h-4l-5 3-2 2-8 6-5 4-5 5-6 5-7 6-14 14-7 8-6 8-14 16-5 8-6 7-4 7-4 5-3 5-4 3-3 3" style="clip-to-self:true;comp-op:src"/>
<path transform="scale(.1)" d="m9041.2 704.69-3-2 4-1h12 6 7 7 9l10-1h10l11-1h22l12-1h33 10 9l9-1h8l6-1 5-1 4-1 4-2" style="clip-to-self:true;comp-op:src"/>
<path transform="scale(.1)" d="m9135 616.25-1-5v-3l-1-5v-3l1 3 1 4 2 4 2 3 4 7" style="clip-to-self:true;comp-op:src"/>
<path transform="scale(.1)" d="m9159.4 813.75-2-2 2 2 4 1" style="clip-to-self:true;comp-op:src"/>
<path transform="scale(.1)" d="m7365.3 1058.1v-4l-2-4-2 3-1 4-1 5-1 6v7l-1 8-2 10-1 9-1 11-3 36-2 27v13 40 12 13l1 11v10l1 8v6 4l-1 5" style="clip-to-self:true;comp-op:src"/>
<path transform="scale(.1)" d="m7336.2 1152.2 1-5 1-4 1-5 4-8 4-5 15-15 6-5 16-10 9-5 9-4 11-4 10-3 11-3 10-2 10-1h11l9 1 8 2 7 3 6 5 4 4 3 6 1 8-1 7-1 9-3 10-12 20-16 20-9 11-10 9-10 10-11 8-20 16-9 6-18 10-7 3-6 3-5 3-4 1-3 1h3l5-2 5-1 12-4 16-4 27-3h18l8 1 9 2 7 2 6 4 8 10 1 6v7l-1 8-4 7-4 8-6 8-7 7-8 6-8 7-8 5-9 5-20 8-9 3-10 3-10 1-11 1-18 2-9-1-7-1-6-1-5-2-3-3-2-3-1-4 1-5 2-6 2-7 11-18" style="clip-to-self:true;comp-op:src"/>
<path transform="scale(.1)" d="m7566.2 1188.4-3-1-4-2h-4l-3 2-3 4-1 3v4l-1 4-1 6v7 23 9l2 18 1 8 2 8 1 7 4 12 4 8 2 2 4 2 5-2 8-8 3-4 4-5 6-12 4-6 2-7 4-6 3-6 3-7 8-10 3-5 6-6 3-2 3-1 4 1 4 5 2 2 2 5 2 4 2 5 1 6 2 5 2 7 3 5 2 5 3 5 3 4 4 4 4 3 4 1 5 1h5l5-1 5-2 6-3 5-4 5-5 6-5 4-7 5-8 3-9 8-23" style="clip-to-self:true;comp-op:src"/>
<path transform="scale(.1)" d="m7751.6 1061.6v-4l1-4 2 5v5 5 8l-1 7-1 10-4 20-2 12-4 23-2 12-1 11-2 24v12 11l1 12 1 10 2 9 1 8 3 7 3 5 3 4 2 2 3 1 5-1 2-3 2-4 2-13" style="clip-to-self:true;comp-op:src"/>
<path transform="scale(.1)" d="m7674.4 1177.5v-5l3-3 3-2 3-3 10-6 14-6 7-4 8-3 18-6 21-5 11-3 22-4 42-7" style="clip-to-self:true;comp-op:src"/>
<path transform="scale(.1)" d="m8137.5 1090.9-1-5v-4-7l-2-5-1-5-2-4-3-3-3-2-4-3-3-1-4-1h-3-4l-4 1-3 1-4 2-3 3-2 3-3 4-2 5-2 6-2 7-3 8-2 9-2 10-4 24-2 13-1 13-1 14-1 15-3 48v121l-2 3h-4l-8-4-12-10" style="clip-to-self:true;comp-op:src"/>
<path transform="scale(.1)" d="m7952.2 1224.1 4-4 3-4 10-10 6-4 7-5 16-8 10-4 9-4 10-4 22-8 10-4 11-4 22-6 20-4 16-2 6-1 6 1 4 1 3 2 2 6 1 4-2 10-2 6-6 14-9 24-4 14-1 6v4 5l1 3 2 4h6 4l5-2 4-2 5-3 6-4 5-4 6-5 5-4 5-6 5-5 6-12 2-6 2-7 1-6v-6l-2-12-2-6-3-4-2-4-5-2-4-2-5-1h-4l-6 1-4 1-5 2-8 4-3 2-2 5" style="clip-to-self:true;comp-op:src"/>
<path transform="scale(.1)" d="m8240.3 1153.4 2-2h6l4 1 6 3 2 3 3 3 3 4 4 10 4 12 1 8 1 7v8l1 9-1 8v9l-2 14-2 7-1 5-3 4-1 4-5 3-4 1-5-3-2-3-1-3-2-5v-4-7-6l2-7 6-16 9-18 6-9 7-10 7-11 8-10 9-10 9-9 10-9 9-8 9-7 8-6 8-4 7-3 6-3 4-1 6 1" style="clip-to-self:true;comp-op:src"/>
<path transform="scale(.1)" d="m8772.2 1134.7 2-7 1-4v-7l-2-5-2-4-4-2-3-2-4-1h-4-4l-11 1-6 1-6 3-7 1-6 3-6 4-12 6-10 8-6 8-2 3v3 4l2 4 6 6 4 3 5 3 6 4 7 3 14 7 6 4 7 4 6 3 5 5 4 5 3 6 2 6 1 7-1 6-2 8-3 7-4 8-6 8-14 14-18 14-9 5-10 5-10 4-11 3-10 2-20 2-11 1-27-3-7-3-5-4-5-5-3-6-1-8v-8l1-10 11-25" style="clip-to-self:true;comp-op:src"/>
<path transform="scale(.1)" d="m8825 1213.8 4-1h16l4-1 5-1 5-2 7-1 6-3 14-6 8-3 24-12 7-5 6-4 10-8 3-4 2-3 1-4v-4-3l-4-6-3-2-5-2h-5-6l-7 1-16 4-18 8-9 6-8 5-9 7-8 8-8 9-7 9-5 9-6 10-3 11-4 10-2 10v10 8l2 8 3 6 4 5 5 5 6 2 8 2h8l10-1 11-2 11-3 13-4 13-7 13-6 31-19" style="clip-to-self:true;comp-op:src"/>
<path transform="scale(.1)" d="m9012.5 1261.6 3 1 4-3 3-5 2-4 3-4 2-5 3-5 3-6 3-7 8-14 3-8 4-8 4-9 3-9 6-20 3-11 4-24 5-25 2-13 4-24 1-10 1-9 1-7v-8l-4 1-1 3-2 5-2 7-2 8-3 10-2 11-6 39-2 14-1 14-1 15v14l-1 14v15 13l1 14 1 12 3 11 3 10 4 8 4 7 5 5 6 3 6 1h6l7-1 7-3 8-3 12-12 6-7 5-8 9-20" style="clip-to-self:true;comp-op:src"/>
<path transform="scale(.1)" d="m9021.6 1166.2v-3l2-3 4-3 8-4 5-2 6-2 7-2 7-3 8-2 9-2 10-2 9-3 10-2 10-3 9-2 28-7" style="clip-to-self:true;comp-op:src"/>
<path transform="scale(.1)" d="m9256.9 1179.1 11-11 4-6 4-4 3-5 5-9 2-5 1-4v-4-4l-2-4-5-5-3-1-5-1h-4l-12 2-5 2-6 2-6 4-5 3-6 5-3 4-4 5-3 5-2 10v4l1 6 1 4 6 9 8 8 6 4 10 8 6 4 5 5 5 4 4 5 4 4 2 6 1 6v5l-1 7-6 12-4 7-11 10-6 5-6 4-6 3-6 2-6 1-5 1-8-2-3-3-3-4-3-5-3-6-6-19" style="clip-to-self:true;comp-op:src"/>
</g>
<g stroke="#fff" stroke-width="14.1">
<path transform="scale(.1)" d="m1008.4 1665.3v-3l-3-2-5 3-3 5-8 16-3 8-8 20-4 12-3 14-5 14-8 32-9 32-4 15-4 14-4 13-10 30-3 8-2 6-2 5-2 3-2 4-2-3v-3-4l1-6 2-6 2-7 2-8 6-20 3-12 4-13 4-14 4-17 5-17 11-38 6-19 7-19 7-16 7-15 6-13 7-10 5-7 4-6 4-3 2-1 4 2 2 3 1 4 2 5v5l1 6 2 7 1 7 1 8 2 8 1 9 2 9 1 10 3 10 2 12 9 36 2 13 6 22 3 9 2 10 3 8 3 7 4 12 2 4 2 5 1 3 3 4 3 2 1-5v-4l-1-12" style="clip-to-self:true;comp-op:src"/>
<path transform="scale(.1)" d="m953.75 1800 3-3 4-3 6-4 5-2 10-6 6-3 7-3 7-4 9-3 8-3 9-3 10-3 9-3 10-3 18-6 8-2 9-3 16-5" style="clip-to-self:true;comp-op:src"/>
<path transform="scale(.1)" d="m1183.1 1808.8-3 3-2 3-2 4-1 5v3l2 2 3 2 6 1h3l5 1 5-1h6 6l7-1 7-2 8-1 7-3 8-3 8-4 19-10" style="clip-to-self:true;comp-op:src"/>
<path transform="scale(.1)" d="m1165 1748.4 3 2 3 1h6 3l5-1h6l5-1 14-2h8l7-2 7-1 8-2h8l8-2 7-1h7l5-1 6-1 5-2 4-2 8-3" style="clip-to-self:true;comp-op:src"/>
<path transform="scale(.1)" d="m1563.4 1615.9 2-4 1-4 2-4v-4-4-4l-3-4-3-2-2-2-4-1h-10l-6 1-14 4-16 6-8 5-10 4-9 6-8 6-9 6-8 6-7 7-6 7-8 12-2 7-1 6v6l4 10 3 4 4 5 5 4 12 6 7 2 8 2 7 2 8 1 7 2 8 2 7 1 12 4 4 2 6 6v4 3l-2 6-3 4-3 5-10 12-19 19-7 5-7 7-7 5-6 5-5 5-5 4-4 8v5l4 4 4 1 10 2 6 1 6 2h6l6 2 12 2 5 2 5 1 4 3 3 2 2 3 2 4v5l-1 5-2 7-3 5-4 7-5 6-6 7-7 6-6 7-7 6-8 7-7 7-8 6-7 7-6 7-5 5-5 6-4 5-4 4-3 4-2 4-1 3 1 5 2 3 6 4 4 1 6 2 7 1h8 9l22-2 13-2 27-5 14-2 26-6 12-3 12-2 11-2 9-1 8-2 6-1h6 3l4-1" style="clip-to-self:true;comp-op:src"/>
<path transform="scale(.1)" d="m1831.9 1656.9-3 2-2 5-1 4-2 5-2 6-4 14-2 9-6 30-2 12-2 11-1 12v11 21l1 9 1 8 2 14 3 14" style="clip-to-self:true;comp-op:src"/>
<path transform="scale(.1)" d="m1914.4 1837.2-3-1-3 1-3 4-3 5-4 8-2 5-6 12-2 7-6 14-4 16-1 9-2 8-1 8-1 6-1 8" style="clip-to-self:true;comp-op:src"/>
<path transform="scale(.1)" d="m2035.6 1686.2-1-4 1-3 3-6 2-2 3-2 5-2 5-3 5-2 7-1 6-2 12-2h7 5 6l10 2 6 6 3 4 1 5v5l-2 7-2 8-9 18-14 20-8 10-8 11-9 10-8 10-16 18-6 8-6 7-8 12-3 5-1 5-1 4 1 3 2 3 3 3 4 1 5 2 7 1h8 8l10-1h9l11-2 10-1 10-3 9-1 9-2 8-2 12-4 5-3 3-2 6-6" style="clip-to-self:true;comp-op:src"/>
<path transform="scale(.1)" d="m2268.1 1790.6-3 2-4 4-2 3-21 21-15 18-5 7-4 7-5 9-3 8-4 9-3 8-2 7-2 8-2 12-1 5 1 4v4l10-7" style="clip-to-self:true;comp-op:src"/>
<path transform="scale(.1)" d="m2392.5 1694.1-3-4-2-6-1-5 1-4 4-6 2-2 4-3 5-3 4-3 6-3 7-2 8-2 8-3 7-2 9-2 7-2 14-2h11l5 1 6 2 3 2 1 6-1 4-4 10-4 5-4 6-5 5-5 6-31 31-4 5-2 4-3 3-1 2 1 6 3 2 2 2 5 2 4 2 12 2 14 2 7 2h7l7 2 12 2 5 2 5 4 8 6 4 10 1 5v5l-1 6-2 6-3 7-4 6-5 7-5 6-6 6-7 6-24 15-15 8-8 3-14 5-7 2-6 1-6 2-5 1h-4l-4-1-3-4-1-4 3-10" style="clip-to-self:true;comp-op:src"/>
<path transform="scale(.1)" d="m2634.7 1584.1v-3l3-4 2-3 3-2 4-3 9-5 6-2 6-3 5-2 6-2 7-2 6-2 5-1 5-2h6 4 4l4 1 5 3 1 6-1 4-2 4-2 5-3 6-5 6-4 6-5 7-24 28-5 7-6 7-5 6-4 6-4 5-3 5-2 5-1 5-1 4 2 8 4 6 4 4 3 2 5 3 14 7 6 2 5 3 8 6 3 3 2 4 3 4 1 4 1 5-1 5-2 12-3 6-2 6-8 14-5 6-4 7-4 6-3 5-4 6-3 4-4 8v4 3l2 5 5 3 8 3h5l5 1 5 2 5 1 6 1 5 1 5 2 3 2 4 3 3 3 2 8v5l-2 10-6 10-4 5-5 4-5 5-5 4-6 4-8 5-7 4-7 3-17 7-16 6-18 6-16 2-7 1h-8l-15-3" style="clip-to-self:true;comp-op:src"/>
<path transform="scale(.1)" d="m3517.5 1647.2 3-2 5 2 5 4 1 3 3 5 1 6 2 7v9 22l-1 12-3 42-1 15-1 13v13 11 19 7 5l2 8v3l1-3v-9" style="clip-to-self:true;comp-op:src"/>
<path transform="scale(.1)" d="m3498.4 1684.4-2-4-1-4v-6l2-2 2-4 3-3 6-3 5-4 7-3 8-4 18-7 11-3 11-2 11-3 13-2 22-2h11l9 1 9 2 7 2 6 4 4 4 3 5 1 6-1 7-1 8-4 8-5 8-6 9-7 9-8 9-18 18-10 8-10 7-10 6-9 7-9 5-8 4-7 4-5 3-4 3-2 3h5l5-1 16-4 10-2 10-3 11-3 12-3 36-6h12l11-1h10l10 1 9 2 7 2 5 4 4 4 2 5 1 6-2 7-3 7-5 8-8 8-8 9-10 8-11 8-12 8-13 8-14 7-15 6-15 7-32 10-17 5-15 4-15 3-13 3-20 2h-7l-6-1-4-1-3-6 1-3 3-5 6-6 21-16" style="clip-to-self:true;comp-op:src"/>
<path transform="scale(.1)" d="m3826.6 1746.9 1-3 4-2h3l3-1 4-1 5-1 6-1h6l7-1 6-1 15-2 6-1h7 11 4l5 1-2 3" style="clip-to-self:true;comp-op:src"/>
<path transform="scale(.1)" d="m3799.4 1829.1h5 9 6l9-1 10-1 12-1 13-2 14-3 15-3 26-8 11-4 24-12" style="clip-to-self:true;comp-op:src"/>
<path transform="scale(.1)" d="m4251.9 1569.7 2-3 3-6 1-3 1-4 1-3v-6l-2-5-2-2-5-4-4-2h-5-11-6l-7 2-16 6-8 4-16 10-9 7-7 6-8 7-7 8-10 14-4 7-4 14v7l2 6 3 6 4 6 5 6 7 5 8 5 9 4 10 3 10 4 11 2 12 3 22 4 10 1 10 2 8 2 6 2 5 2 3 2 4 6-2 3-4 8-10 10-6 5-14 10-7 6-8 4-7 5-7 4-6 4-5 4-4 4-2 3-2 4 4 4 3 2 4 1 5 1 12 2 14 2 12 2 5 2 5 3 4 3 2 4 2 5v5l-1 6-2 7-2 8-4 7-5 7-6 7-8 7-7 7-9 8-8 7-9 7-9 8-8 7-9 7-16 12-14 12-6 6-4 6-4 5-2 4-1 4-1 3 1 3 4 5 4 1 5 1 6 1 7 1h27l33-3 24-2 11-1 10-1h9l7-1h12l4 1h4l-3-2" style="clip-to-self:true;comp-op:src"/>
<path transform="scale(.1)" d="m4480.3 1706.6-3-3-3-2-1-4 2-3 4-3 3-2 12-6 6-2 5-1 11-2 13-2h6 6 5 5l3 2 4 2 3 5v4l-2 4-2 5-4 5-4 6-5 6-6 7-6 6-6 7-8 6-6 6-7 5-7 6-12 10-6 4-10 10-2 3-1 4 3 2 8 2h6l6-1h8l16-2h10 9 8l8 1 7 2 7 3 5 3 5 2 3 5 2 4 1 5-1 4-2 6-8 10-12 10-8 5-16 8-10 4-9 4-9 3-9 2-8 2-9 2-8 1-14 2h-13l-4-1 3-4 2-3 4-2 12-7" style="clip-to-self:true;comp-op:src"/>
<path transform="scale(.1)" d="m4696.2 1850.9-7 7-7 8-5 4-16 16-6 5-13 12-6 6-6 7-10 13-5 6-4 6-3 5-4 3-5 5" style="clip-to-self:true;comp-op:src"/>
<path transform="scale(.1)" d="m4873.1 1723.1-1-4-3-3-4-2h-3l-5 2-3 2-3 3-4 3-4 4-4 5-10 10-4 6-6 7-5 7-4 8-5 7-8 16-3 7-2 8-2 6-1 6 1 5 2 5 1 4 8 6 5 2 6 1h8 8 10l9-1 10-1 10-2 11-2 27-6 8-3 7-2 6-2 5-3 7-7" style="clip-to-self:true;comp-op:src"/>
<path transform="scale(.1)" d="m4883.8 1738.8-1 6-1 3v5l-1 5-2 6-1 7-2 7-1 9-2 9-1 9-1 10v10l-1 10v10 10l2 20v9l4 18 2 7 2 8 2 6 3 6 9 9" style="clip-to-self:true;comp-op:src"/>
<path transform="scale(.1)" d="m5065 1627.2-3-2-3-6-1-3v-4l2-5 5-5 3-2 4-2 10-6 10-4 7-2 6-1 6-2h7 6 13 5l5 1 5 2 3 2 4 6v4l-1 5-1 6-6 14-10 16-6 8-6 9-14 16-12 16-10 14-4 6-3 6-2 10 2 8 3 4 4 4 10 7 6 3 7 3 8 3 7 3 7 4 8 3 12 8 5 4 4 5 3 5 2 6v6 8l-2 6-3 7-5 7-4 7-6 7-5 6-7 6-5 6-12 10-9 9-2 4-3 3-1 6 4 4 2 1 5 1 5 2 6 1 8 1 14 2 8 1 8 2 7 1 7 2 12 4 4 3 3 3 2 3 1 5v3l-2 5-3 4-3 5-5 5-6 5-7 4-7 5-8 4-9 4-8 4-17 7-8 3-9 2-16 2h-9l-22-1" style="clip-to-self:true;comp-op:src"/>
<path transform="scale(.1)" d="m641.88 2794.4 5 1 5 4 8 4 5 3 14 6 8 3 9 3 9 4 10 3 10 4 12 4 11 5 24 10 33 18 9 6 10 6 8 6 8 5 8 6 6 5 7 5 5 4 5 3 4 4 3 2 3 3 4 3 1-5-5-11" style="clip-to-self:true;comp-op:src"/>
<path transform="scale(.1)" d="m878.44 2734.1v-3l-5 1-5 4-3 3-4 3-4 5-5 4-10 12-6 7-7 7-7 8-6 9-8 10-7 11-9 12-8 12-9 14-8 14-9 14-10 14-9 13-8 13-8 12-7 11-8 11-6 9-5 8-9 14-3 5-6 8 6-10 7-16" style="clip-to-self:true;comp-op:src"/>
<path transform="scale(.1)" d="m743.75 2758.8-8-8-3-2v4l1 4v3l1 5 2 12 1 7 2 18 2 10 2 11 2 12 2 13 1 15 4 32 2 17 1 17 2 17 1 17 4 34 3 15 2 16 3 14 1 13 3 11 6 20" style="clip-to-self:true;comp-op:src"/>
<path transform="scale(.1)" d="m1433.8 2670 2-10 1-6v-4-4l-2-4-3-4-5-1h-4l-4 1-5 1-5 2-7 3-6 3-8 3-7 4-9 5-9 6-8 6-9 7-8 6-8 7-7 7-6 7-5 7-4 6-3 7-1 7v6l1 6 6 12 5 5 6 5 6 6 8 4 9 5 9 4 9 5 10 4 9 5 9 4 14 12 5 6 5 7 3 7 2 16-1 8-1 9-3 8-4 7-4 8-6 7-8 8-8 6-9 6-10 5-24 10-12 4-13 3-12 2-12 3-11 2-10 1h-10-8l-7-1-7-2-5-3-4-2-3-5-1-4-1-7 1-7 8-19" style="clip-to-self:true;comp-op:src"/>
<path transform="scale(.1)" d="m1465.9 2885.3 3 3h4l3-1 3-2 5-2 4-3 5-3 6-4 5-4 7-5 6-5 5-5 12-10 8-10 6-8 1-4v-3l-1-5-5-3h-3-4l-5 1-5 3-7 3-7 4-8 5-8 6-8 7-9 8-8 8-7 10-8 9-10 18-4 9-2 9-2 7v8l1 7 2 7 3 5 5 5 5 3 8 3 8 1h9l12-1 11-3 13-4 13-5 14-6 13-7 14-8 30-23" style="clip-to-self:true;comp-op:src"/>
<path transform="scale(.1)" d="m1638.8 2695-2-3v4l2 6v5l1 5 1 6v8l1 8v9 10 10l1 12v12l3 36 1 13 2 12 2 11 2 12 3 10 2 8 3 8 6 10 3 2 3 1 5-2 2-3 4-11" style="clip-to-self:true;comp-op:src"/>
<path transform="scale(.1)" d="m1582.5 2819.1-4-2-2-3-1-5 5-6 5-2 5-4 7-4 16-8 9-4 20-8 13-4 12-3 13-4 12-4 14-3 39-13" style="clip-to-self:true;comp-op:src"/>
<path transform="scale(.1)" d="m2189.7 2791.6-1-4-2-4h-3l-4 2-8 8-8 10-7 14-4 7-4 9-2 8-2 10-2 9v9l1 9 1 8 2 6 3 6 4 5 4 3 5 2 6 1 6-1 7-1 16-8 9-5 8-6 9-8 8-8 7-8 7-9 6-8 4-9 3-9 2-8v-9-7l-2-8-3-8-4-7-5-7-5-6-7-5-6-4-7-3-8-2-7-1-9-1-8 1-8 2-7 2-6 2-5 2-4 3-3 2-1 4 2 3 7 1" style="clip-to-self:true;comp-op:src"/>
<path transform="scale(.1)" d="m2389.4 2737.5 3-5 2-3 3-4 3-5 4-5 5-5 5-6 11-13 5-7 5-6 5-8 5-7 3-6 4-7 6-14 2-6 2-7v-7l1-7v-15-6l-1-5-1-3-2-3-3-2-3-1-4-1-3 1h-4l-4 3-4 2-4 4-4 5-4 6-4 7-4 8-6 20-2 12-3 13-1 14-2 14-2 32-2 36v19 20l1 21v22l1 23 1 24v22 44l-1 19v18l-1 17-2 15-1 14-1 13-1 11-1 10-1 9-1 7-1 5-1 4v-7-5-18" style="clip-to-self:true;comp-op:src"/>
<path transform="scale(.1)" d="m2315.9 2907.5-2-3-5-6-3-6v-3-2-4l2-8 3-5 2-4 7-12 4-6 5-6 13-13 8-7 9-7 10-7 24-14 14-7 14-6 14-5 13-5 11-4 11-2 9-3 9-2 12-2h10" style="clip-to-self:true;comp-op:src"/>
<path transform="scale(.1)" d="m2875.3 2747.5-2-4-2-3h-4l-5 3-2 3-6 8-4 6-3 7-5 7-3 8-4 9-3 9-2 9-2 20 1 11 1 10 2 10 2 9 3 9 4 7 4 6 5 5 5 4 5 2 5 1h6l5-1 6-1 6-4 6-3 6-4 6-5 5-6 5-7 4-6 5-8 3-7 4-8 6-16 4-16 1-8 1-6v-7-9l-2-3-3 3-2 4-1 5-2 6-1 6-1 8v8l-1 9v9l2 18 4 16 4 7 3 6 4 5 4 3 6 2h6 6l7-2 6-3 7-3 7-5 14-12 7-7 10-14 4-6 3-7 2-7v-6-5l-1-6-2-5-3-5-3-4-4-4-5-3-10-4-6-1h-6l-18 3-10 4-3 1-4 2 3 1 7-1 4-1 5-2 5-3 15-6" style="clip-to-self:true;comp-op:src"/>
<path transform="scale(.1)" d="m3103.8 2722.2h3 4l2 5v3l1 3-1 5v5l-1 7v7l-3 27-1 10-1 11-1 12-2 23-1 12-2 20v10 14 6l1 4v2 4l2-4 1-3 2-5 1-5 3-7 6-16 4-9 8-20 5-11 6-11 5-11 6-10 7-9 6-9 5-7 6-6 5-4 4-3 4-1 5 1 2 3 3 3 1 5 1 6 2 8v7l2 9v9l2 20 1 9v10l1 9 2 16 1 6 2 5 2 4 2 2 5 2 4-2 3-2 4-3 5-5 4-6 6-7 5-8 12-20 6-9 12-20 5-10 6-9 5-9 10-16 8-10 6-4h4l2 6v5 6 7 8l-1 9v9 19 10l2 18 2 9 2 7 3 7 3 6 4 4 5 3 6 1h7l8-1 8-5 10-4 24-17" style="clip-to-self:true;comp-op:src"/>
<path transform="scale(.1)" d="m3437.5 2810.3v-4l2-5 3-4 4-5 2-3 3-3 4-3 3-2 4-3 12-6 5-1 4-2h5l9 1 3 2 4 2 3 3 4 8 2 7 1 6 1 7v16l-1 8-1 9-1 10-3 18-2 8-1 8-1 6-1 4v4l-1 3 1-4v-3l2-5 1-7 6-14 8-18 10-18 6-9 5-9 7-9 6-10 6-9 22-22 4-3 3-1 4 3 1 3v4 5 6l-1 8-1 7-2 17-4 36v16l1 8 1 5 2 5 1 3 3 3 6 1 3-2 5-3 5-4 17-17 7-8 7-7 12-16 6-9 6-8 4-7 5-8 4-7 4-6 3-4 2-4 2-3 1 4v4l-1 5v13l1 7v8l2 8 1 8 3 9 3 8 4 9 5 8 5 7 6 7 6 5 7 4 7 2 7 1h8l8-2 7-3 8-5 7-5 17-16" style="clip-to-self:true;comp-op:src"/>
<path transform="scale(.1)" d="m3838.1 2763.4-3 1-5 3-3 3-6 8-4 10-8 24-1 7v7 7 7l1 6 2 7 2 5 3 6 2 5 4 3 4 4 5 2h5 5l6-1 5-3 7-3 5-3 10-10 4-5 5-11 1-5v-5-5l-1-6-3-4-2-5-3-4-4-4-4-3-5-3-4-3-5-3-3-2-4-2-3-2-3-4 1-4 3-5 4-2 4-3 5-3 5-4 6-2 6-3 12-4 12-2h4 5l4 1 3 1 4 3 2 3 2 4v5l1 5v13l-1 7-1 8-2 8-1 8-3 8-2 8-2 6-2 7-4 10-1 3-1 4 2-4 3-4 3-5 3-6 8-14 6-7 10-14 6-7 5-7 6-7 5-7 22-22 10-5 4-1h3l3 2 2 2 2 3 2 4v5l1 6 3 21v8l3 27 2 9 1 10 2 9 2 10 2 8 3 8 2 7 2 6 2 4 2 2 4 3" style="clip-to-self:true;comp-op:src"/>
<path transform="scale(.1)" d="m4423.1 2881.2h5l7-1h4l5-1 6-1 12-6 8-2 8-4 14-8 8-4 6-5 7-4 6-4 14-14 3-5 2-4 1-4v-4-3l-2-4-2-2-4-1-5-1-6-1-6 1-8 2-8 3-9 4-9 6-20 14-20 20-10 11-9 12-8 12-12 24-4 11-3 11-1 10 1 9 3 7 4 6 6 4 7 3 9 2h10l12-2 13-2 13-4 15-4 15-5 14-6 16-7 30-16 13-10 13-11 28-28" style="clip-to-self:true;comp-op:src"/>
<path transform="scale(.1)" d="m4675.3 2665v-3l-1-6-1-5v3 22 9l-1 11-1 13-1 15-2 17-1 18-1 19-1 20-2 21-1 23v21 21 19l2 17 2 14 3 11 4 8 5 7 5 4 7 2h7l8-1 9-3 9-4 9-6 20-14 8-9 9-9 7-10 7-11 5-10 5-11 4-10 4-22 1-11v-10-9l-1-8-2-7-2-5-3-4-2-3-5-1h-4l-5 1-10 4-6 3-4 4-6 5-4 5-5 5-4 6-3 7-3 6-3 8-2 7-1 9-2 8v9 9l1 8 2 8 8 14 6 5 7 5 7 3 9 2 8 2h9l10-1 9-2 9-3 23-10" style="clip-to-self:true;comp-op:src"/>
<path transform="scale(.1)" d="m4872.2 2802.2v-3l2-3 1-4 3-4 2-3 3-3 6-4 8-2h3 3l4 2 5 5 3 5 2 5 2 7 1 8v19l-1 10-1 11-4 24-2 11-1 11-3 11-1 9-2 8-1 6-1 5v3l-1 4 3-9 1-5 2-6 1-7 3-7 2-9 4-9 3-10 4-10 6-10 5-11 6-11 7-11 8-10 7-11 8-9 14-14 6-4 6-3 4-1 4 1 3 2 2 3 2 5 1 5 2 14v9 10 10l-1 10v10l-1 11v9l-1 10v9 7 6l1 5 1 3 2 3 4-1 2-2 3-4 4-4 4-6 4-7 5-7 10-16 6-10 24-36 6-8 7-8 6-7 7-7 5-4 6-4 5-3 4-1 3 1 5 5 1 4 1 5 1 6 1 7 1 8v9l1 8 1 10 1 9 1 10 4 18 6 16 4 6 4 4 4 2 5 1 14-2" style="clip-to-self:true;comp-op:src"/>
<path transform="scale(.1)" d="m5241.2 2860.6 2 2 4 1h6l8-2 5-3 6-2 6-3 5-4 12-8 7-4 6-5 5-5 4-5 4-4 3-6 3-4 1-4v-4-3l-5-3-3-1-3 1-5 2-4 2-6 4-4 5-6 4-5 7-4 6-4 7-4 8-3 8-4 9-2 9-2 16v9l1 7 2 7 2 6 3 4 4 4 5 2 5 1 6 1 7-1 8-2 16-5 9-5 8-4 16-12 9-6 8-7 7-7 8-7 7-7 7-8 6-8 5-8 6-8 6-7 5-6 8-10 3-3 4-2 2 6v4l-2 12-2 16-2 10-3 30v10 10 9 8l2 7 1 6 2 4 5 5 4 1 3-1 4-1 4-3 5-4 10-10 5-6 5-7 6-8 4-8 6-8 4-9 5-8 6-8 4-9 6-7 4-7 11-11 5-4 4-2 5-2 4-1 3 1 3 2 2 3 2 4 2 5 1 5 2 7 2 14 2 8 1 8 1 9 2 8 3 8 2 8 3 7 3 6 2 6 3 5 3 4 3 3 8 4" style="clip-to-self:true;comp-op:src"/>
<path transform="scale(.1)" d="m5742.8 2636.2v-3l-1-6v-3l-2 4-1 4-1 6-2 7-2 8-2 9-3 11-2 12-3 13-4 28-2 15-1 16-1 15v16 15l2 16 2 30 2 14 3 13 3 11 2 10 3 7 3 5 2 4 4 2 2-6" style="clip-to-self:true;comp-op:src"/>
<path transform="scale(.1)" d="m5647.8 2833.4-4-1-2-4 5-4 4-2 4-3 6-3 6-4 7-3 7-4 8-4 9-5 8-4 20-8 9-5 10-4 11-5 21-10 11-4 10-5 9-3 8-5 8-3 6-2 5-3 5-1 3-1v3l-4 6-8 8-5 4-4 5-5 5-10 12-8 12-3 5-3 6-2 5v5 4l1 5 2 4 3 4 7 7 4 3 5 3 4 3 5 3 5 4 5 3 8 8 3 4 4 5 2 5 1 6 1 7-1 7-1 6-2 7-4 7-4 6-10 12-6 4-7 5-12 6-12 4-6 1h-6-6l-6-2-5-2-7-3-16-10" style="clip-to-self:true;comp-op:src"/>
<path transform="scale(.1)" d="m6125 2693.4-1-3-2-4v-4 4 3l2 5 2 8 2 4 5 14 1 5 1 17" style="clip-to-self:true;comp-op:src"/>
<path transform="scale(.1)" d="m6117.2 2930.9-3-3-2-5-3-4-1-3h4l6 6" style="clip-to-self:true;comp-op:src"/>
<path transform="scale(.1)" d="m6743.1 2608.1-1-3-4-6-2-4-2-2-6-4-3-1h-7l-4 1-10 4-6 3-5 4-6 4-7 5-12 10-5 6-4 6-3 5-3 6-1 5v5l1 5 4 10 4 4 3 4 5 5 5 3 6 4 7 4 16 8 18 8 9 5 17 9 12 12 4 6 3 6 1 7v7l-1 7-3 7-4 7-4 8-6 7-21 21-8 6-7 6-14 10-5 4-6 3-3 3-6 4 5 2 4-1h9 5 12l7 1h5l6 2 4 3 5 3 3 3 2 4 2 5v6l-1 6-2 6-3 7-3 8-4 8-4 7-5 9-5 8-6 8-4 7-10 12-6 10-2 3-2 4-1 3 1 6 5 5 3 2 4 2 5 1 6 1h8 16 9l9-1 19-2 10-1 16-2 7-2 6-2 13-5" style="clip-to-self:true;comp-op:src"/>
<path transform="scale(.1)" d="m6979.7 2692.8 1-5 1-3 4-5 3-2 8-4 5-2 12-4 21-6 16-2 17-1 21 3 5 2 7 7 1 5v4 6l-10 20-10 14-7 8-7 6-7 7-6 7-7 5-10 10-5 4-3 3-4 6 5 2 3 1 4-1h6 6 8l7-1 8-1h9 17 8l8 1 7 1 6 2 5 2 4 2 3 4 1 4 1 3-2 10-3 6-5 7-5 5-6 7-13 13-16 12-7 6-14 10-7 3-7 4-6 2-5 2-6 2-4 2-4 1h-3l-4-1-1-4v-3-5l5-11" style="clip-to-self:true;comp-op:src"/>
<path transform="scale(.1)" d="m7180 2595.6v-4l5-3 3-2 4-2 6-2 5-2 14-6 7-2 24-6 9-2 9-1 8-2h8 8 7l6 1 5 1 4 2 3 2 2 4 1 3-1 4-1 5-3 5-3 6-4 6-5 6-6 6-6 7-7 7-6 7-6 6-13 14-5 6-8 12-5 10v5 5l2 4 2 3 4 4 4 3 5 4 5 3 6 2 6 3 14 4 12 5 6 2 4 2 4 3 6 6 1 4 1 5-1 4-2 5-6 10-8 11-4 6-5 6-8 10-3 5-4 4-2 5-1 4-1 3 1 4 1 2 1 4 6 6 4 2 4 3 25 15 12 12 6 15v5l-1 6-1 5-3 6-3 5-4 6-10 10-6 5-12 8-6 3-7 4-12 4-7 2-6 1h-7-8l-23-4" style="clip-to-self:true;comp-op:src"/>
<path transform="scale(.1)" d="m654.38 3747.5-3-2-4-1-3-2 3 3 5 4 3 2 4 3 5 3 12 8 8 4 16 10 10 6 11 6 10 6 12 6 13 6 12 5 14 5 14 6 14 4 14 5 13 4 13 3 12 4 12 2 11 3 10 2 9 2 8 2 8 1 6 1 5 2 4 1h3l2 2-3 1-5-1-14-7" style="clip-to-self:true;comp-op:src"/>
<path transform="scale(.1)" d="m897.81 3703.8-3-2h-4-5l-6 2-3 2-4 2-4 3-4 4-6 4-19 19-8 9-8 10-9 10-10 11-12 11-11 13-23 23-11 12-22 22-10 11-19 19-8 9-7 9-13 13-8 10-6 6 2-4 3-4 8-12" style="clip-to-self:true;comp-op:src"/>
<path transform="scale(.1)" d="m742.5 3711.6v-13-4-4l2 5 2 6v6l1 6 2 16 1 10 2 22 2 14 1 14 2 30 1 17 1 15 1 16 2 16 2 15 2 14 2 13 3 12 1 11 2 9 6 15" style="clip-to-self:true;comp-op:src"/>
<path transform="scale(.1)" d="m1411.9 3685.6 1-4 4-6 1-5 2-5 4-12 4-14 3-8 4-18 2-8 2-9 1-9 1-7 1-8v-6l-1-5-1-3-2-3-3-2-3-1-5 1-6 2-7 4-8 5-9 6-11 8-11 9-12 10-26 22-13 12-24 22-10 11-9 10-8 10-5 9-4 8-2 7v8l1 7 8 14 7 7 7 6 8 7 9 6 10 7 21 12 11 6 10 6 9 7 9 6 7 7 6 7 4 7 3 7 2 12-1 6-1 5-2 5-3 3-4 3-3 2-5 1-4 1h-11-6l-14-2-14-4-6-2-6-3-5-4-6-8-3-5-1-6-1-5 3-14" style="clip-to-self:true;comp-op:src"/>
<path transform="scale(.1)" d="m1492.5 3821.9h5l8-2 3-1 4-1 3-3 4-2 3-3 4-3 4-4 4-3 3-4 4-4 3-4 4-8 2-8v-3l-2-5-4-2h-7l-10 4-6 3-7 4-7 5-14 13-7 7-12 16-5 8-4 8-3 7-2 7-1 6v7l1 6 1 5 3 6 3 5 3 4 5 4 5 3 6 2 7 2h8 9l18-4 10-2 10-4 11-5 10-5 9-6 10-6 23-16" style="clip-to-self:true;comp-op:src"/>
<path transform="scale(.1)" d="m1697.5 3590.6-3-4-5-5-5-2-3 3-1 3-2 10-2 7-2 8-2 9-1 9-3 12-1 12-2 13-2 15-1 14-1 15v15 17 16l1 15 1 16 2 15 2 14 6 24 8 18 4 7 4 5 4 4 5 2 4 1h5l3-2 4-3 7-10" style="clip-to-self:true;comp-op:src"/>
<path transform="scale(.1)" d="m1627.8 3767.2v-3l2-3 5-3 4-2 6-2 6-3 7-3 10-4 10-3 11-4 12-3 13-4 14-3 13-3 24-6 26-6" style="clip-to-self:true;comp-op:src"/>
<path transform="scale(.1)" d="m2212.8 3762.5-4-1-3-1h-4-5l-4 2-5 2-3 4-8 10-4 7-3 7-4 7-3 7-4 16-2 16 1 7 2 7 2 6 4 5 5 4 12 6 7 1h8l7-1 8-2 9-2 8-3 24-12 6-5 6-4 6-5 6-8 2-4 1-5 1-3-1-4-4-8-3-4-7-7-5-4-9-7-5-4-6-2-4-2-5-2-4-2-3-2h-3l-3-2 3-8" style="clip-to-self:true;comp-op:src"/>
<path transform="scale(.1)" d="m2288.8 3762.2v5l1 4 2 10v4l2 3 3 4 5 3h5 5l5-1 6-2 6-3 7-3 7-5 9-6 8-6 8-7 9-7 9-8 8-8 8-7 9-9 7-8 8-9 6-8 10-20 4-10 2-12 2-11 1-12v-11l-1-11-2-10-2-9-3-7-3-6-3-3-5-1h-4l-4 2-5 3-4 6-4 7-4 9-4 11-3 11-4 12-2 12-4 26-2 14-1 14v15 32 18l1 19v19 20 41 22 22 23l-1 23-1 21v20 18 54 9l1 6 1 8 4-1 2-3 6-10 3-6 8-18 4-10 3-11 6-26" style="clip-to-self:true;comp-op:src"/>
<path transform="scale(.1)" d="m2378.4 3946.6-5-3-5-1-8-3-8-2-16-5-8-1-8-3-7-1-6-3-6-2-5-2-4-3-3-2-2-4-1-3 2-8 3-5 3-6 5-6 6-6 6-7 8-7 9-7 20-14 11-6 12-7 12-4 12-5 12-3 11-3 11-2 9-1 10-1h8l17 3" style="clip-to-self:true;comp-op:src"/>
<path transform="scale(.1)" d="m3168.1 3769.1 1-3 2-8 1-5 1-4v-5-4-5-4l-2-9-4-8-2-3-4-3-3-1-4-1-6-1-12 2-7 2-7 4-9 5-9 7-9 8-9 9-8 10-9 11-7 11-7 12-6 12-4 10-3 11-2 9v9 7l3 7 3 4 5 4 4 3 7 1 6 1 7-1 8-2 16-6 9-4 9-5 16-10 8-6 7-6 6-6 10-12 4-6 4-5 2-4 1-3 2-5-1 5-1 3v4l-1 6v12l1 6 1 7 1 6 2 7 3 6 3 5 4 5 4 4 5 3 6 2 6 1 7 1 12-2 7-2 6-3 6-4 4-3 11-12" style="clip-to-self:true;comp-op:src"/>
<path transform="scale(.1)" d="m3296.2 3610v-3l1-5v4l-1 5v7 6l-1 8v9l-1 10-2 22v13l-1 13-2 13-1 15v15l-1 16v16 16 16l2 30 3 12 2 13 3 10 3 8 3 7 4 4 4 3h3l5-1 4-2 5-5 4-5 5-7 8-16 8-20 4-12 2-12 3-12 1-13 2-13 2-28v-15-16-16l1-17v-16l1-16 1-14 1-12v-10l1-7v-4-3 4l1 5v6 8 10l1 11v38l-1 15v14 14l-1 16v16 16l-1 16-1 17v16l-1 17v30l2 26 1 11v9l2 7 8 13" style="clip-to-self:true;comp-op:src"/>
<path transform="scale(.1)" d="m4082.8 3808.4-1 3v5l2 3 3 3 5 2h3l4 1h8l15-3 6-1 6-2 6-3 7-3 6-3 14-8 6-5 5-5 5-4 5-5 3-5 4-8 1-4v-4l-1-4-2-4-2-3-3-2-8-4-4-1-6 1-5 1-6 2-7 4-6 5-7 5-7 7-7 8-6 8-5 9-5 10-3 9-4 10-2 11-1 10v9 9l2 9 3 8 4 6 5 5 6 5 7 3 16 4h9 10 11l22-4 24-8 33-18 9-7 22-19" style="clip-to-self:true;comp-op:src"/>
<path transform="scale(.1)" d="m4337.8 3621.9h-4-3l-4 5-2 3-3 12-1 6v6l-2 14-2 20-2 10-2 12-1 14-4 28-1 16-2 16-1 15v15 15l1 13 2 11 3 10 3 8 5 7 5 4 6 4 7 2h8l8-2 8-3 9-5 10-6 9-7 22-18" style="clip-to-self:true;comp-op:src"/>
<path transform="scale(.1)" d="m4423.1 3838.1 2 3 4 1 5-1 4-1 7-3 10-6 11-7 12-8 5-5 10-11 5-5 4-6 3-5 6-12 1-5 1-6 1-5v-5-4l-1-4-4-3-6 1-3 1-5 3-4 5-6 5-5 7-12 16-5 10-10 22-4 11-6 22-4 20v18l2 7 1 6 3 5 3 4 4 3 6 2 4 1 14-2 8-2 8-4 9-4 18-12 9-7 9-8 8-8 7-9 8-9 12-20 5-10 4-11 4-10 3-9 3-8 1-6 1-4v-4l-1-3-4 5-2 4-4 12-2 7-2 8-1 9-2 9-1 9-1 10v9 19 8l1 8 2 14 2 6 1 5 4 6 5 2 6-2 3-2 7-7 8-10 3-6 5-6 4-8 4-7 5-8 5-9 4-9 6-9 6-8 10-16 5-6 5-4 4-4 6-2 4 2 2 3 1 4 1 5v5 6 7 7 15 7 7l-1 7v16l2 8h5l5-4 4-3 8-10 5-6 12-14 11-16 6-8 7-8 6-9 7-9 14-16 6-8 12-12 5-2 4-2h3 3l4 6 2 5v6l2 7v9l1 8 1 10v9l2 20 1 9 2 10 2 8 3 8 3 7 4 6 4 4 5 2 4 1 5-1 13-4" style="clip-to-self:true;comp-op:src"/>
<path transform="scale(.1)" d="m4935.9 3850.6 4-2 6-1 3-1 5-1 4-2 10-4 12-6 5-4 5-3 10-9 5-5 8-10 3-5 2-5 3-6 2-6 1-7 1-6v-6-6-5l-1-4-2-4-5-2h-4l-4 1-4 3-5 4-6 5-5 7-5 8-5 9-6 9-5 11-4 10-6 23-2 11-2 10-1 10 1 10 1 8 3 7 3 5 4 5 6 3 6 1 7 1 8-1 9-2 10-4 9-4 11-5 9-6 10-8 9-7 9-8 16-18 14-18 5-8 6-9 4-7 3-7 3-5 4-8-2 8-2 5-1 5v7l-2 7v7l-1 7v16l2 14 1 6 4 12 2 4 2 3 3 3 6 2 8-2 10-6 5-4 12-10 5-6 18-21 5-7 6-7 5-8 5-7 5-6 4-6 4-5 6-6 3-1 4 1 4 5 2 10 2 6v7l2 7 1 8 4 16 3 8 2 8 3 7 4 8 8 12 5 5 5 3 5 2 4 2 10-2 4-3 3-3 8-12" style="clip-to-self:true;comp-op:src"/>
<path transform="scale(.1)" d="m5398.1 3605.3 3-5 3-8 4-2 2 5 1 6v6 8 9l-1 10-1 12-2 11-2 12-1 13-3 26-2 29v14 16 15l1 15 1 14 2 14 2 13 2 11 3 11 2 10 3 8 3 6 3 5 1 2 5 1 3-4" style="clip-to-self:true;comp-op:src"/>
<path transform="scale(.1)" d="m5335.3 3802.2 1-4 1-3 3-3 3-2 4-3 36-18 10-4 10-5 12-5 13-5 13-7 14-5 31-14 16-7 16-8 15-7 15-6 14-6 13-5 12-4 10-4 8-4 6-1 5-2 2-1v3l-3 3-6 4-6 5-8 6-9 6-10 7-10 8-10 9-10 8-19 19-7 9-6 8-4 8-3 8-1 6v6l2 6 3 5 3 4 5 4 6 2 14 6 9 2 8 1 24 6 7 2 5 2 6 3 6 6 1 3-1 4-3 4-10 8-8 4-9 4-9 3-10 3-9 2-10 2-10 1h-10-9l-10-1-9-1-8-3-6-4-9-11" style="clip-to-self:true;comp-op:src"/>
<path transform="scale(.1)" d="m6133.1 3665.3v-4-3-3l1-4 4-2 4 3 2 4 2 3 2 8 2 5 1 4 1 5v6 6 6l-3 17" style="clip-to-self:true;comp-op:src"/>
<path transform="scale(.1)" d="m6100.3 3889.1v-3l2-3 4-1 5-1 4-1" style="clip-to-self:true;comp-op:src"/>
<path transform="scale(.1)" d="m6785.3 3455-5-2-4 1-6 2-7 3-9 4-9 5-11 5-22 14-13 7-25 15-12 8-11 8-12 7-18 14-7 6-5 6-4 6-2 5 1 5 1 4 4 5 4 4 7 4 7 3 8 4 18 6 10 2 10 3 9 2 10 2 9 4 7 2 7 3 5 4 4 4 2 5 1 5-1 6-2 6-8 14-6 7-6 8-14 14-15 13-7 6-6 5-7 6-6 4-12 12-2 3 1 5 4 3 4 2 5 2 5 1 7 1h6l7 1h7l7 1 6 1 5 1 4 3 4 2 2 3 1 3 1 4-4 10-3 5-5 6-5 7-6 7-16 16-8 7-9 7-9 8-8 8-9 7-7 7-6 7-10 12-2 6-2 5v5l1 5 2 4 4 3 5 3 7 2 9 1 10 1 11-1 12-2 13-2 27-5 26-8 12-3 10-4 9-3 8-4 11-7" style="clip-to-self:true;comp-op:src"/>
<path transform="scale(.1)" d="m6970.3 3607.8v-12l3 2 2 8 1 5 2 7v7 7 10 9l-1 10-1 11-2 20-2 12-1 24-1 12-2 12-2 24-1 22" style="clip-to-self:true;comp-op:src"/>
<path transform="scale(.1)" d="m7118.4 3785-2 1-3 1-4 2-4 3-5 4-10 10-5 6-10 14-4 6-5 7-4 7-4 6-3 7-5 13-2 5v4l-1 4 1 3 3 1" style="clip-to-self:true;comp-op:src"/>
<path transform="scale(.1)" d="m7171.9 3663.8 2-4 2-3 6-8 4-3 10-6 18-6 14-2h6l12 2 6 3 4 3 3 5 2 6 1 6v7l-1 8-6 18-4 9-5 9-18 27-7 9-6 8-5 7-5 5-4 5-3 4-2 3-1 4 4 3 3 1h9l7-1 16-2 10-1 9-2 10-1 10-2 9-2 10-2 9-3 8-3 19-7" style="clip-to-self:true;comp-op:src"/>
<path transform="scale(.1)" d="m7419.4 3738.8-8 12-6 10-4 6-5 6-11 14-5 8-6 7-6 8-5 8-5 7-4 7-5 7-3 6-4 6-4 8-2 3-3 3" style="clip-to-self:true;comp-op:src"/>
<path transform="scale(.1)" d="m7553.8 3633.1h-5l-3-1-1-3 4-2 3-2 10-4 7-3 8-2 9-3 18-4 18-2 8-1 8 1 6 1 4 3 4 2 2 4 1 4v6l-2 5-3 6-4 7-5 7-12 12-7 6-8 6-7 5-7 4-6 5-6 3-5 3-4 2-3 2-4 3v4l4 2 3 1 4 2 10 2 5 2 12 4 5 3 6 3 4 3 5 4 3 4 2 4 2 5 1 5-2 5-1 5-6 10-4 5-4 4-6 5-6 3-6 4-7 3-14 4-6 2-14 2h-6l-5-1h-5l-5-1-8-4-3-3-4-8-1-11" style="clip-to-self:true;comp-op:src"/>
<path transform="scale(.1)" d="m7806.2 3736.2v-3l-3 3-5 4-4 3-3 4-5 4-5 5-5 6-12 12-13 14-6 7-5 7-12 16-4 7-5 7-4 7-5 7-4 5-4 4-8 9" style="clip-to-self:true;comp-op:src"/>
<path transform="scale(.1)" d="m7982.8 3599.7h-3l-4 2-5 4-3 3-4 3-8 8-6 5-18 18-8 7-8 8-8 7-7 8-7 7-6 8-6 7-5 6-4 6-2 6-1 5-1 4 2 5 2 3 3 3 5 2 7 3 7 1 8 1h9 32 10l11-1h10l9-1h24 5 5 3l4-2-1-6" style="clip-to-self:true;comp-op:src"/>
<path transform="scale(.1)" d="m7975.6 3647.2 2 2v9 4l-1 5-2 12v7l-1 6-1 8v8l-1 9v19l1 10v11l1 10 2 11 1 10 4 20 2 9 3 8 3 6 3 5 3 3 4 1 9 1" style="clip-to-self:true;comp-op:src"/>
<path transform="scale(.1)" d="m8063.8 3528.4h-5-6l4-2 4-1 5-1 6-2 8-1 8-2 10-2 40-4h8l8 1 7 1 5 1 5 3 4 6 1 5-1 6-2 6-3 8-4 8-4 9-6 9-6 10-7 9-6 10-8 10-7 8-7 9-12 14-4 6-3 6-3 5-1 4v4 3l4 6 4 2 4 3 5 3 6 2 7 1 16 4 9 3 7 1 8 3 7 2 6 3 6 2 4 4 3 4 1 5 1 4v5l-2 5-2 6-6 12-4 7-8 12-7 10-2 5-2 4-2 8v4l3 9 5 5 4 3 4 2 10 6 6 2 5 3 6 3 4 3 10 8 8 8 2 5 3 4 2 5 2 10v5 5l-4 10-3 5-8 8-12 8-7 4-7 3-9 3-8 3-27 6-9 1h-19l-9-1-26-2" style="clip-to-self:true;comp-op:src"/>
<path transform="scale(.1)" d="m3660.9 4682.2h-5-4-7-4l4 2 3 1h4l5 1h6 8 8l20-2 24-2 13-1 39-6 13-1 12-2 12-1 11-1 10-1h9 8 6l6 1 5 1 4 1 3 1 4 1-4-3-9-6" style="clip-to-self:true;comp-op:src"/>
<path transform="scale(.1)" d="m3786.2 4586.2-3-3-3-2-4-1-4 1-2 2-2 5v4 4l-1 5v100l1 14v14 14l1 13 2 12 1 12 1 11 2 10 2 9 2 8 3 6 2 6 3 4 3 3 3 1h3l4-3 11-11" style="clip-to-self:true;comp-op:src"/>
<path transform="scale(.1)" d="m4043.8 4801.9v-5l1-3 1-4 2-4 4-10 6-12 8-12 3-8 10-14 4-8 6-6 4-7 5-6 5-5 5-4 3-2 4-2h5l5 5 2 4 2 6 2 7 1 7 2 9v10l1 11v11 12 11 57 7l1 5v4l1 2 1 4 3-2 1-3 4-8 4-12 2-7 4-7 3-8 4-8 4-9 5-10 5-9 6-11 6-10 7-10 6-9 7-8 13-13 6-3 5-3 4-1 4 1 6 6 1 6 3 6 1 7 2 16v10l1 9v10 10 39l1 8v8l1 6 1 5 1 4 2 4 3 1 4-3 6-8 4-6 3-6 4-7 4-8 4-7 4-9 3-8 4-9 4-8 4-9 3-9 4-9 8-16 5-6 3-5 4-3 3-2 4-1 6 4 3 4 2 6 1 6 2 8 1 8 2 9 1 9 4 18 1 9 3 8 2 8 8 14 4 5 5 5 4 3 6 3h6l6-1 5-2 14-10" style="clip-to-self:true;comp-op:src"/>
<path transform="scale(.1)" d="m4537.5 4724.1 2-8 1-6v-4-4-3l-1-3-4-5-6-2h-3l-5 1-5 2-6 3-6 4-6 5-7 6-8 8-7 9-8 10-7 11-7 10-6 12-6 11-5 11-3 11-3 10-1 10v9l1 8 4 12 4 4 4 3 5 2h5l6-1 7-2 7-4 8-5 7-6 8-7 6-8 7-8 6-9 10-18 3-9 4-9 2-9 3-9 1-9 2-7 2-6v-5l1-3-1 5-1 4v6l-1 6v14l1 8v8l1 8 6 21 3 7 3 6 8 10 5 4 4 4 6 2 4 1 6 1 8-2 9-6" style="clip-to-self:true;comp-op:src"/>
<path transform="scale(.1)" d="m4635.3 4738.8 1-5 2-3v-4l2-4 4-6 2-4 6-9 6-4 2-1h6l6 3 2 4 3 3 3 6 2 6 1 7 2 7v9 20 10l-2 22-1 10-1 9-1 10v8 21l4-10 3-5 2-7 3-8 3-7 8-18 5-9 4-10 5-10 5-11 6-11 6-12 7-11 6-10 6-9 6-7 5-5 4-3 4-1 3 1 3 6 1 5 1 6v8 9 9 10l-1 10v11l-1 10v21l1 10v9l2 8 1 8 2 7 3 4 2 5 3 2h3 3l4-2 4-3 4-4 11-13" style="clip-to-self:true;comp-op:src"/>
<path transform="scale(.1)" d="m4878.4 4708.1-4 3-2 3-3 4-2 5-3 6-2 6-1 8-2 7-2 8-2 14v7 7l1 6 2 6 2 5 3 6 8 8 4 3 5 2 6 1 5-1 7-1 12-6 7-4 6-6 7-6 18-21 6-9 4-8 4-9 6-18 1-9 3-8 1-6 1-5v-3l-2 5-1 6-3 8-2 8-3 10-3 11-2 11-6 26-4 26-3 15-2 14-1 15-2 16-2 17-1 16-4 32-4 60-2 14-2 13-1 13-4 22-3 10-3 9-2 8-4 8-8 12-3 4-4 4-4 3-4 2-4 1-3 1h-4l-3-1-4-3-3-2-2-5-3-5-3-6-4-16-1-10-1-9-2-22v-12l1-11 2-13 1-12 2-12 4-12 4-13 5-12 6-13 9-13 9-14 10-14 26-30 15-15 16-15 42-32" style="clip-to-self:true;comp-op:src"/>
<path transform="scale(.1)" d="m5281.9 4805.3-3-3-4-6-1-3-1-4v-4l1-5 2-6 10-20 4-7 5-8 6-8 6-9 7-7 6-7 7-7 7-5 7-4 6-2 6-1h6l5 3 5 4 4 5 3 7 3 9 2 10 2 22 1 13v13l-2 26-2 13-2 24-2 18v12l1 4 1 5 3-1 4-6 3-4 6-14 8-14 24-47 6-11 6-10 5-10 12-16 5-6 5-3 4-2h3l3 2 3 3 2 5 2 6 2 7 1 7 1 8 1 9v8l1 10v9l1 9v9l1 7 1 8 1 6 1 5 2 3 3 2 5 2 4-1 4-2 13-13 8-12 4-8 5-8 4-7 3-9 4-8 4-9 3-9 4-8 4-7 3-6 3-5 3-3 4-1 2 4v5 6l-1 7v8l-1 9-2 19-2 20v18l1 9 1 7 2 7 2 5 3 4 3 3 4 2h3l5-1 5-3 4-4 6-5 13-14" style="clip-to-self:true;comp-op:src"/>
<path transform="scale(.1)" d="m5668.4 4757.5-2 3-3 6-1 3-2 10-1 6v6l-1 6v7 7 6l2 12 2 6 2 5 3 5 6 8 5 3 4 2 5 1h5 4l6-2 10-5 8-8 4-5 4-6 2-6 2-12v-8l-2-14-2-8-3-8-3-7-4-7-5-5-4-6-6-3-5-3-6-2-6-1-6 1-5 1-5 2-4 3-4 2-2 4-1 4v2l2 4 1 3 3 2 8 4" style="clip-to-self:true;comp-op:src"/>
<path transform="scale(.1)" d="m5772.5 4731.2 2-3 6-4 2-2 4-2 3-1 4-1 8 2 4 2 4 4 4 3 8 10 3 7 2 7 3 8 2 9 1 9v9 11l-1 10-2 12-2 10-3 11-2 10-6 16-3 6-2 5-3 4-3 2-4 2-3-3v-4l-1-5 1-7v-7l4-18 3-9 7-20 4-10 5-10 5-11 6-11 8-11 8-10 8-11 8-10 8-8 8-7 7-6 6-3 5-1h4l3 1 2 6v14" style="clip-to-self:true;comp-op:src"/>
<path transform="scale(.1)" d="m5926.2 4796.9 5-4 5-5 4-2 3-3 4-3 5-3 10-8 6-4 5-4 5-5 6-4 6-5 16-16 4-6 4-7 4-6 3-6 1-6 2-6 1-4-1-4-2-3-4-3h-4l-4 2-5 3-5 4-7 6-6 7-7 9-7 10-21 33-6 12-5 12-5 11-4 12-3 11-2 10v9 9l1 8 4 6 3 6 5 5 7 4 7 2 10 2h12l12-1 14-1 16-3 15-4 15-5 14-6 13-7 29-17" style="clip-to-self:true;comp-op:src"/>
</g>
</g>
</g>
</svg>
