<?xml version="1.0" encoding="UTF-8"?>
<svg width="1e3pt" height="1500pt" version="1.2" viewBox="0 0 1e3 1500" xmlns="http://www.w3.org/2000/svg">
<g id="surface55">
<rect width="1e3" height="1500" fill="#20282d"/>
<g fill="none" stroke-linecap="round" stroke-linejoin="round" stroke-miterlimit="10">
<g stroke="#fff">
<g stroke-width="14.1">
<path transform="scale(.1)" d="m3401.9 384.69-1-4-1-3-2-5v-5l-2-4v-3l-1-3v-4-3l3 1 12 12 3 4 5 6 5 7 6 8 14 18 16 22 9 12 8 14 9 14 10 15 9 16 9 18 9 17 10 17 9 18 9 16 9 15 9 14 7 12 8 10 7 10 7 8 6 8 10 12 4 4 3 4 6 4 2-2v-3l1-4v-5-6l1-7v-9-10l1-11 1-12 1-15 2-17 3-18 3-20 3-21 4-22 10-44 6-21 7-22 7-20 6-18 6-16 6-12 6-11 3-7 4-4 3-2 4 1 2 3 2 4 1 5 1 6 2 7 4 28 2 19" style="clip-to-self:true;comp-op:src"/>
<path transform="scale(.1)" d="m3772.8 648.75 2-3 3-2 6-6 5-3 5-4 5-5 6-4 6-6 12-13 6-6 6-7 5-7 4-6 4-7 4-12v-6l1-5-1-5v-6l-2-4-4-6-3-3-2-1h-4l-5 1-4 3-6 4-12 12-6 10-7 10-8 11-7 14-7 12-5 13-6 13-4 12-3 11-2 11-1 9 1 9 2 8 3 7 4 5 6 4 7 2 8 2 9-1 11-1 12-3 26-10 28-14 14-8 14-9 31-22" style="clip-to-self:true;comp-op:src"/>
<path transform="scale(.1)" d="m3946.9 612.81-4-2v-5l3-5 2-3 4-8 3-4 3-5 7-9 3-5 12-15 5-4 3-3 8-6 3-1h5l4 3 1 3 1 4 1 5 1 7v7 8 8 9 16l-1 8v26l1 5v3 4 4l2 2 2-4 3-9 1-5 2-4 1-6 2-6 3-6 2-7 8-16 3-10 10-22 6-12 6-11 7-11 6-10 6-9 6-7 6-5 4-4 4-3 3-1 4 1 2 6 1 4v15l-1 9v10l-1 12-2 26v13 12 12 10 10l2 9 1 7 3 7 2 5 6 8 4 1 4 2h4l5-2 4-2 5-4 4-4 5-6 10-15" style="clip-to-self:true;comp-op:src"/>
<path transform="scale(.1)" d="m4180.6 573.44-2-3 3-5 1-3 2-3 4-4 3-5 4-4 5-6 28-28 12-8 10-4 4-1h4l3 2 2 1 3 3 2 4 1 5 1 6 1 8v19l-1 12v12l-1 11-1 13v11 21 9l2 14 1 5 1 4 2 3 3 3 4-2 4-4 2-4 4-10 3-6 4-14 3-8 9-27 3-11 9-23 5-10 6-11 5-9 6-8 5-7 5-5 4-3 4-2 3-1 4 2 1 3 1 4 1 6v7 8 51l1 10 1 11 1 10 1 9 1 8 6 21 3 5 3 4 8 6 5 2h6l7-1 7-3 9-4 22-12" style="clip-to-self:true;comp-op:src"/>
<path transform="scale(.1)" d="m4831.9 346.25-3 6-1 5v6 63 15 15l-2 34v18l-1 19v19 18 17l1 16 1 15 1 12 2 11 3 9 2 7 7 14 3 3 1-4-1-3-5-11" style="clip-to-self:true;comp-op:src"/>
<path transform="scale(.1)" d="m4790.9 459.38 3-7 3-8 9-20 5-9 6-9 6-8 7-7 7-6 8-6 8-5 18-6 10-3 10-1h11l10 2 11 2 12 4 10 5 11 6 10 8 9 9 8 11 7 12 6 14 5 15 3 16 2 18v19l-2 38-3 20-6 36-4 16-5 14-5 13-6 11-6 10-6 9-7 7-7 6-8 6-7 5-8 3-7 3-7 1h-7-7l-6-1-6-2-10-6-5-5-4-6-3-7-2-7-2-19" style="clip-to-self:true;comp-op:src"/>
<path transform="scale(.1)" d="m5115.6 549.69-2 4v3l-2 5v5l-1 6v7l1 8 1 9 2 7 1 8 4 16 2 7 2 8 2 7 2 8 2 6 2 7 6 10 2 4 2 3 4 2 2-2v-10" style="clip-to-self:true;comp-op:src"/>
<path transform="scale(.1)" d="m5144.4 451.25 3-1 5 1 4 3 5 3 4 3 5 7" style="clip-to-self:true;comp-op:src"/>
<path transform="scale(.1)" d="m5291.2 537.81h-3-4l-5 1-6 2-12 6-7 5-6 6-7 6-6 8-6 9-7 9-10 20-4 11-4 9-2 10-3 8-1 9v7 6l1 6 3 4 2 4 3 2 4 1 10-2 6-3 6-4 7-4 7-6 6-7 12-16 6-9 4-9 4-10 3-10 3-9 3-8 1-7 2-8-3 5-2 6-2 7-1 9-1 8-1 10v9 9l1 9 2 9 2 7 3 8 3 7 5 5 4 5 6 3 6 2 7 1 8-1 9-1 11-4 11-3 12-6 13-5 12-7 13-8 12-8 11-9 10-9 10-11 18-25" style="clip-to-self:true;comp-op:src"/>
<path transform="scale(.1)" d="m5474.7 539.38-1-5-2-5-1-6-3-4-4-3-5-2-5-1h-6l-6 2-7 3-8 2-16 10-9 7-18 16-8 9-8 10-7 9-10 18-4 8-2 8-1 7v5l1 5 3 4 3 3 4 2 5 1h6l7-2 8-2 16-8 8-6 7-6 8-6 18-24 4-9 5-8 7-14 3-5 2-4 3-2 1 3v4 5 8 40 12l1 12 1 13 1 14 2 13 1 15 2 16 6 34 3 18 8 34 3 16 4 17 3 15 4 15 2 15 4 26 2 11v11 10 10l-2 8-6 14-4 5-6 5-6 3-7 4-8 1-9 2h-8l-18-2-9-2-9-3-8-5-7-5-5-6-5-8-2-8-1-10 2-22 3-13 5-13 5-15 6-15 7-16 8-17 9-18 9-19 10-19 28-48" style="clip-to-self:true;comp-op:src"/>
<path transform="scale(.1)" d="m5544.1 596.88-2-4-1-4-2-6-2-5-2-10v-4-4-4l1-4 2-3 5-5 8-4 5-1 6-1h6l6 1 12 6 6 4 5 6 5 7 4 9 2 9 2 10 2 11v11 10l-1 10-2 10-1 9-3 8-2 7-3 5-2 4-2 3-4 2-4 1-4-1-2-2-3-2-2-4-2-5-1-6-1-7v-8l1-9 2-9 2-10 3-11 4-11 5-13 6-12 6-14 8-13 8-12 10-12 9-9 9-8 10-6 8-4 7-2 7-1 6 1 5 2 4 3 3 4 6 13" style="clip-to-self:true;comp-op:src"/>
<path transform="scale(.1)" d="m5832.5 568.44v-6-5l-1-5-1-4-4-8-3-4-2-4-3-3-4-2-3-3-4-2-5-2-5-1-6-1h-5l-7 1-7 2-6 2-7 4-7 5-8 6-7 8-7 9-6 9-6 11-6 10-4 11-3 10-3 9v9 9l1 7 2 7 4 6 4 5 5 4 6 3 6 2h7l8 1 7-1 9-1 8-2 8-3 7-3 7-5 7-4 12-12 10-14 8-18 3-9 3-11 3-10 2-10 2-9 1-8 1-7v-5-5-4l-3 3-1 4-1 5v7l-2 18v9 10 10l1 10 1 9 3 8 2 8 4 7 3 6 4 5 8 6 5 2 4 1h5l4-1 8-4 4-3 3-4 5-12" style="clip-to-self:true;comp-op:src"/>
<path transform="scale(.1)" d="m5918.4 524.38 4 3 2 5 1 3 1 4 2 10v6l1 7v8 8 95l2 8 2 1 3-4 2-3 4-10 2-6 2-7 2-8 3-8 2-9 3-10 3-11 3-12 4-12 4-13 5-12 6-11 5-11 6-9 5-8 11-11 4-3 5-1h3l3 2 3 3 2 4 4 14 2 9 1 10 2 10 1 12v12l3 33 1 10v8l1 8 2 12 1 3 1 4 4 2 3-1 3-2 3-4 2-5 4-6 3-7 3-9 5-9 6-20 4-11 3-12 4-12 4-13 5-11 5-10 4-9 5-8 5-6 3-4 3-2h4l1 4 1 5 1 6v9l-1 11v12l-2 26v14 13 13 12 12l4 20 3 8 3 7 4 6 4 4 5 2 6 1 5-1 6-3 15-11" style="clip-to-self:true;comp-op:src"/>
<path transform="scale(.1)" d="m6300.6 552.5 2-3 3-3 3-5 2-4 1-4 2-4v-3l-2-5-4-3-6-3h-4l-5 1-4 1-6 2-5 2-6 3-5 4-6 4-5 6-5 5-4 7-6 13-1 6-1 7 1 6 2 6 2 5 4 5 4 4 6 4 21 12 8 3 8 4 7 4 7 5 6 4 8 10 3 6 1 5 1 6-1 5-2 6-6 10-4 4-10 8-5 3-5 2-12 4-5 1-6 1h-5l-5-1h-4l-4-2-4-3-4-2-8-8-11-13" style="clip-to-self:true;comp-op:src"/>
</g>
<path d="m356.09 85.688h274.16" stroke-width="1.41" style="clip-to-self:true;comp-op:src"/>
</g>
<g stroke="#ff0" stroke-width="14.1">
<path transform="scale(.1)" d="m7039.4 1161.6-3-1-5-1h-6-6l-7 2-7 3-7 5-8 6-9 7-9 10-9 12-10 13-9 16-9 17-9 19-16 42-7 21-5 22-3 19-3 18v17 16l2 13 3 12 4 10 5 9 6 7 7 5 8 3 8 2h8 9l10-2 9-3 10-4 11-6 10-5 10-7 10-8 10-9 9-9 9-10 8-11 7-11 7-12 10-24 5-13 4-10 3-10 3-7 1-5 2-4v4l-1 5-1 8-1 11-2 12-3 13-6 42-1 14-1 13v13l1 12 3 11 3 8 4 6 6 4 6 1 8-1 8-4 25-16" style="clip-to-self:true;comp-op:src"/>
<path transform="scale(.1)" d="m7165.9 1343.8-1-5-1-4v-3l1-5 3-4 5-1 3-1 4 1 5 1 4 2 5 3 5 4 5 6 5 7 5 8 4 10 6 20 2 12 2 22v11 10l-1 10-2 8-1 7-2 7-2 5-2 4-1 3-5 4-5-2-3-2-2-4-3-4-2-5-4-14v-7l-1-9 1-10 4-22 8-24 5-12 7-12 6-11 7-10 16-16 7-5 8-4 7-2h6l6 1 6 3 4 6 5 7 3 7 3 9 4 20 1 10 2 18v8l1 18" style="clip-to-self:true;comp-op:src"/>
<path transform="scale(.1)" d="m7361.9 1408.1 4-6 2-4 1-6 1-4 1-5v-4-4l-2-8-2-4-2-3-2-2-4-2-3-1h-4l-4 1-6 2-5 4-7 5-12 14-6 9-6 10-5 10-9 21-3 10-2 10-2 18v8l1 7 2 6 2 5 3 3 4 3 4 1h5l5-2 6-2 5-3 6-4 6-5 5-6 6-6 4-6 5-8 4-7 6-14 2-7 4-10 1-4v-3l-1 3v5l-1 5v6 6l1 7 1 6 2 7 3 8 3 6 4 6 5 6 4 5 6 4 5 4 6 3 6 1h7l12-2 6-3 6-4 6-5 14-14" style="clip-to-self:true;comp-op:src"/>
<path transform="scale(.1)" d="m7499.1 1332.2-3 4-1 3v5l-1 7v8 31 11 12l1 13v13l1 13 1 14 1 13 1 15 2 28 1 16 1 14 2 14 1 15 2 13v13l2 20 1 7v7l1 4v3 4l-4-4-2-3-2-4-2-5-3-6-2-6-3-7-3-8-2-8-3-9-4-20v-10l-2-24 2-26 1-14 6-30 10-30 6-16 7-14 9-13 8-12 9-11 8-8 8-7 8-5 9-4 7-1 7 1 7 2 6 4 5 5 5 7 4 7 2 9 2 10 1 10v11l-2 11-6 24-5 11-12 22-7 10-8 9-8 8-8 7-8 6-8 5-7 3-7 2-5 1h-6l-3-1-3-2-3-3-1-5 1-6 1-7 3-8 4-8 6-10 17-28" style="clip-to-self:true;comp-op:src"/>
<path transform="scale(.1)" d="m7696.6 1238.4v-4l-1-2-1 2v55 13 28l1 16v105 11l1 10v10l1 7v6l1 5v4l1 4 2-4 1-3 2-5 2-6 1-8 3-7 2-9 8-20 4-11 5-11 12-24 7-11 7-9 6-8 6-7 10-6h4l3 2 2 4 1 6 1 8v9 10l-2 20v12l-1 11-1 10v10 19 8l1 6 2 6 4 8 6 2 4-1 10-6 12-10 12-14 12-16 20-36 4-9 5-7 3-7 3-5 5-7 1 4v4 5l-1 6-1 7v9l-1 8-1 9v16l1 9 2 16 2 7 3 7 3 5 2 5 4 4 3 1 4 1 4-1 4-2 3-4 8-13" style="clip-to-self:true;comp-op:src"/>
<path transform="scale(.1)" d="m7937.5 1317.5-1-4-2-6-2-4 3 4 2 6 1 4 2 4 4 10 4 12 3 6 2 5 3 5 5 12" style="clip-to-self:true;comp-op:src"/>
<path transform="scale(.1)" d="m8028.1 1361.6-2-4-3-2-4-1-3 2-3 6-5 9-4 12-6 16-6 27-2 18v9l2 16 2 8 6 12 4 5 5 4 6 3 14 2 8-1 9-1 10-2 10-3 20-8 11-5 20-12 9-6 8-7 8-8 6-7 6-9 5-8 4-8 4-7 2-7 2-6v-5-3l-5-3h-4l-4 1-6 2-7 4-7 5-6 6-7 6-7 7-6 7-7 8-5 9-6 8-4 8-5 9-3 7-3 8-2 7-1 6 1 6 1 5 2 4 3 2 4 2 5 1h5l6-2 8-2 7-3 16-8 8-5 17-11 7-7 8-6 6-4 6-6 5-4 4-5 3-2 6-6-1 4-1 5-2 8-1 6 1 4 2 10 3 4 3 5 8 8 6 4 6 2 5 3 14 2 16-2 9-1 18-6 9-4 9-5 8-5 8-6 8-7 12-16 5-10 5-12 4-12 3-15 2-17 3-18 2-38v-20l-1-18-1-16-2-13-3-12-3-10-3-8-5-6-4-5-4-3-5-2-3-1h-3l-3 1-3 2-3 4-2 4-2 5-1 7-2 7-2 20v13 14 15l2 34 1 19 2 18 1 17 3 17 2 16 3 15 8 26 12 20 6 8 7 6 6 4 7 2 6 1 6-1 15-7" style="clip-to-self:true;comp-op:src"/>
<path transform="scale(.1)" d="m7000.6 1803.1-2-4-1-3-1-5-2-8-1-5 1-3 3 1 3 3 2 3 3 4 3 5 3 6 3 7 3 8 4 8 3 9 4 10 8 21 8 22 4 12 8 23 5 10 3 10 4 9 8 16 4 6 7 11 2 4 2 3 6 6 2 3 1-3 4-16 2-6 1-6 3-7 2-7 5-17 3-10 3-9 6-22 3-12 2-12 6-26 2-14 6-28 3-16 3-15 3-16 4-15 4-13 3-11 3-10 2-6 2-5 2-2 4 2 1 4 1 5v6l1 8v51l-1 11v56l1 11 2 27" style="clip-to-self:true;comp-op:src"/>
<path transform="scale(.1)" d="m7250 1913.8 1-5 1-4v-6-5l1-4v-7 6l-1 4v5 7 7l-1 8v17l1 8v8l1 8 2 14 2 6 4 10 2 3 3 3 4 1h3l4-1 3-3 4-3 9-12" style="clip-to-self:true;comp-op:src"/>
<path transform="scale(.1)" d="m7283.8 1787.2-5-2-2-1-6 1-3 2-3 1-3 3-2 1-4 6-3 4-1 4v5l2 5 3 2 5 2h6l4-1 3-1 6-4 3-3 3-2 1-4 2-3 1-4v-3l-1-4-1-3-1-4-4-5-6-4-3-1h-4-3l-5 1-4 3-5 2-8 8-4 5-4 6-2 5-3 6-1 6-1 5 2 13" style="clip-to-self:true;comp-op:src"/>
<path transform="scale(.1)" d="m7427.2 1865.3 1-5-1-3-1-4-2-2-2-3-6-3-4-1h-5l-5-1h-5l-6 1-7 1-6 3-6 2-5 3-5 5-4 3-6 10-2 10 1 6 1 5 6 12 4 5 5 5 5 4 6 5 13 8 6 3 6 4 10 8 3 4 3 5 2 4v4l-2 5-1 5-4 5-5 4-6 6-6 4-9 5-18 8-9 3-10 3-9 2-8 2-8 1h-7l-5-1-4-2-3-2-1-3v-5l2-5 3-7 5-7 16-20" style="clip-to-self:true;comp-op:src"/>
<path transform="scale(.1)" d="m7510.6 1860.6-3-3-4-2-4-1-5 3-3 2-2 3-3 4-2 4-3 5-3 6-1 7-2 8-1 8-2 18v9l3 27 4 16 2 7 3 6 6 10 2 2 4 2 4 1h3l4-1 4-2 5-2 4-4 5-4 4-6 5-6 4-6 5-7 4-8 3-8 2-9 3-8 5-18 4-14 3-6 1-5 1-3 2-4 2 6v4 4l1 7v40 9l1 8 2 8 4 14 4 6 3 5 4 4 5 2 5 1 6 1 7-1 7-2 7-4 8-3 8-5 9-6 16-12 15-15 6-8 6-9 5-8 4-10 3-8 2-8 2-14-2-10-4-8-6-4-3-1h-4l-4 1-4 2-5 3-10 8-6 7-5 7-5 8-6 8-12 27-2 9-2 7-2 8v7l1 6 2 5 1 5 2 3 4 2 3 1 4 1 5-1 6-1 6-3 7-3 7-4 14-10 6-6 6-5 5-6 5-5 3-5 3-4 2-5 2-6v-4l-2 3-1 3v7 4l1 4 6 8 3 3 5 3 5 2 6 2h7 7l7-1 8-2 19-5" style="clip-to-self:true;comp-op:src"/>
<path transform="scale(.1)" d="m7825.9 2008.1 2-4 1-3 4-7 2-3 6-10 3-6 4-6 3-7 2-7 4-8 3-9 2-10 3-10 3-12 1-12 3-13 1-13 2-14 1-14 1-16 1-15v-34l-1-17v-16l-1-14-1-13-2-10-1-7-2-6-2-3-3-1-2 3-2 5-2 7-2 9-2 12-2 14-1 15-6 51-2 36v18l2 34 6 30 4 12 5 12 5 9 7 7 7 6 8 5 8 2 9 2 9-1 10-1 10-2 9-4 10-4 9-6 8-6 7-7 7-8 6-9 5-9 4-9 4-10 3-9 2-10 2-8v-7l1-6-1-5-1-4-3-2-4 3-4 8-2 7-4 16-2 20v10 10l1 10 2 10 2 9 3 9 4 8 4 7 4 5 6 5 12 4h6l7-2 7-3 6-4 12-12 12-20" style="clip-to-self:true;comp-op:src"/>
<path transform="scale(.1)" d="m8065.6 1778.4-6-4-9-9 4 3 3 4 5 4 2 3 9 6 7 6" style="clip-to-self:true;comp-op:src"/>
<path transform="scale(.1)" d="m8101.2 1875.9-3 1-5 2h-3l2-3 3-2 10-5 7-2 8-4 9-2 9-3 20-6 10-2 20-2h9 8l7 1 7 2 5 2 4 4 2 4 2 5-1 6-1 8-4 8-4 10-12 20-8 11-8 10-9 10-9 9-8 10-9 8-8 7-7 7-12 10-4 3-3 2-3 3 4 1 3-1h5l6-2 14-4 8-2 10-2 9-2 9-3 10-2 10-3 10-4 10-2 10-4 10-3 10-4 9-3 22-8" style="clip-to-self:true;comp-op:src"/>
<path transform="scale(.1)" d="m8402.5 1850.6-3-4-3-3-4-1h-4-5l-6 1-12 6-7 3-7 5-14 12-14 14-6 7-6 8-5 8-5 7-3 8-3 7-3 6v6l-1 6 1 3v4l6 4 2 1 9-1 5-2 18-9 7-5 12-12 7-6 18-21 5-6 4-6 7-9 2-2 3-2-2 7-2 5-1 6-4 16-2 9-1 8-1 9 2 16 2 8 6 14 4 6 5 6 6 4 7 3 7 1 8 1 8-1 8-2 9-3 8-4 8-5 8-7 7-7 12-17 5-9 8-22 6-32" style="clip-to-self:true;comp-op:src"/>
<path transform="scale(.1)" d="m8524.4 1689.7-2-10-2-4-2-3h-4l-2 3-1 4-2 7-2 8-2 9-2 11-2 13-2 11-4 52v13 13l2 27 1 13 6 26 4 13 5 11 6 11 6 9 7 8 16 12 10 3 9 3 9 2 10 1h9l10-1 16-4 7-3 5-3 9-9" style="clip-to-self:true;comp-op:src"/>
<path transform="scale(.1)" d="m8440 1856.2-2-2 2-4 5-4 4-2 9-4 6-3 6-2 14-6 8-2 7-2 9-2 16-4 9-1 8-1 8-2 9-1 7-2 18-3" style="clip-to-self:true;comp-op:src"/>
<path transform="scale(.1)" d="m8681.6 1845-4-2h-3-4l-3 2-4 6-2 4-4 10-1 7-2 8-1 9-2 10v10 10l4 21 4 18 4 9 4 7 5 6 5 5 6 4 7 2h7 7l7-2 7-3 7-4 16-11" style="clip-to-self:true;comp-op:src"/>
<path transform="scale(.1)" d="m8707.5 1745.6-4-3-6-3-4-1h-3-4l-6 4-3 4-3 3-4 10-2 6-1 6v6 6l1 7 2 6 3 5 4 6 5 4 6 4 6 3 7 3 7 1 8 1h7l8-1 7-1 16-6 7-4 6-4 4-6 4-5 2-6 2-7v-6l-2-14-2-6-4-6-4-5-4-4-5-3-5-1h-6-6l-12 6-11 11-5 6-5 8-9 21" style="clip-to-self:true;comp-op:src"/>
<path transform="scale(.1)" d="m8867.2 1876.9h-12-6l-6 1-7 2-14 6-8 5-6 5-6 6-6 7-5 7-8 16-3 8-2 8v8 9 7l2 8 3 6 4 6 4 5 6 4 5 3 7 2 7 1h7l8-1 7-3 8-2 6-3 12-10 5-5 4-6 3-5 1-7 1-6v-7l-2-12-2-7-2-5-3-7-3-6-3-5-2-5-3-4-2-8-1-3v-3l3-5 5-5 4-1 5-2 4-1h5l5-1 11 2 5 1 5 2 4 3 6 8 2 5 2 6 1 7v7 8l-2 7-2 8-6 16-4 6-2 7-3 6-3 4-6 9v-3l2-3 2-4 3-5 4-6 5-7 12-16 6-9 7-8 6-9 7-9 8-9 7-9 8-8 8-9 8-7 8-6 7-5 7-4 5-3 4-1h4l4 4 1 4v5l-1 6-1 8-2 8-2 10-1 11-2 11-2 12-2 11-2 13v11l-1 13-1 12 1 11v11l1 9 3 8 2 6 3 4 8 7" style="clip-to-self:true;comp-op:src"/>
<path transform="scale(.1)" d="m7101.9 2312.5-4-4-6-3h-3l-8 2-4 2-5 3-5 4-10 12-6 7-5 8-5 9-10 20-3 12-5 12-4 24-1 12v10l1 10 2 9 3 7 5 6 5 4 6 3 8 2 7 1 16-1 9-2 9-3 9-4 10-4 8-4 9-6 16-12 7-7 6-7 4-7 5-7 3-7 2-6v-7-8l-1-7-2-7-6-14-8-14-5-7-4-5-5-6-8-8-10-2h-4l-5 1-10 6-4 3-4 6-4 5-2 6-2 7-1 6v7l1 6 4 7 3 4 4 5 6 3 17 7" style="clip-to-self:true;comp-op:src"/>
<path transform="scale(.1)" d="m7292.8 2365 4-8 5-11 1-6 2-6 2-12v-8-6-7l-2-8-2-7-1-7-4-7-2-6-4-6-4-5-3-5-4-3-3-3-4-2h-4-3l-4 1-3 2-3 4-4 5-2 7-3 9-2 11-2 12-2 14-2 15-2 16v16l-2 18-2 39-1 21-1 22-2 40-1 19v35l1 15v15l2 13 1 11 2 10 1 7 2 7 2 4 2 3 2 2 1-5v-3-5l-5-20" style="clip-to-self:true;comp-op:src"/>
<path transform="scale(.1)" d="m7167.5 2545.3-5-2-3-1-5-2-4-3-3-4-2-2-1-3v-4l1-4 6-8 5-6 11-11 16-14 9-7 10-8 12-8 24-18 26-18 14-9 14-8 14-7 13-7 12-7 11-5 25-8" style="clip-to-self:true;comp-op:src"/>
<path transform="scale(.1)" d="m7817.8 2308.8 4-8 4-7 4-10 3-10 2-8v-7l-1-7-2-5-6-10-4-4-5-3-6-3-7-2-8-2-8-1h-9-9l-9 2-11 2-20 6-11 5-10 5-8 6-9 7-7 8-5 8-5 9-3 9-3 10-1 10 1 11 4 20 5 11 5 10 8 10 7 10 28 28 20 17 10 8 9 8 8 7 7 7 6 7 5 6 2 6 2 5v4l-1 4-2 3-10 6-14 4-9 2-20 2h-10-11-11l-12-1-11-2-10-1-9-3-7-3-6-5-5-5-7-15" style="clip-to-self:true;comp-op:src"/>
<path transform="scale(.1)" d="m7847.2 2441.6 2 2 5 1h6 3l5-1 4-1 5-1 5-2 6-3 14-6 16-8 8-5 9-5 8-5 8-6 7-4 6-6 6-5 8-10 4-8v-3l-1-6-4-3-4-1h-3-5l-4 1h-5l-6 1-5 3-6 2-7 3-5 4-5 5-6 5-10 14-4 8-5 8-3 9-6 20-1 10v10l1 10 1 9 4 9 4 7 5 7 5 5 6 5 7 4 8 3 8 2 8 1h9 9l10-1 8-1 18-4 8-3 7-3 8-4 5-4 14-11" style="clip-to-self:true;comp-op:src"/>
<path transform="scale(.1)" d="m8076.2 2483.4-1 4v3l4-1 6-3 3-3 4-3 5-4 18-18 7-6 16-16 8-9 8-8 8-9 8-10 7-9 12-20 5-11 4-11 2-12 2-13 2-28v-15l-1-14v-14l-1-14-1-12-2-10-1-9-2-7-2-5-2-3-4-3-3 1-3 7-2 4-1 8-1 9-1 10-1 12-1 14-2 15-1 17-2 17-2 36-2 18-1 19-1 17v18l2 32 3 13 3 12 4 9 4 7 6 4 6 2h7l8-2 8-4 8-6 9-7 8-9 22-24" style="clip-to-self:true;comp-op:src"/>
<path transform="scale(.1)" d="m8106.9 2360.6h-6-3-4l-3-1 2-4 3-3 10-6 6-4 18-8 22-8 13-4 14-5 15-4 15-3 14-4 16-4 28-6 12-3 26-5" style="clip-to-self:true;comp-op:src"/>
<path transform="scale(.1)" d="m8373.1 2312.5 3-2 3-5 3-2 1-3 3-3 6-9 1-6-1-4-3-2-3-1h-4-3l-5 1-10 4-6 3-18 12-6 5-12 12-5 6-8 12-2 6-1 5-1 6 2 4 1 4 3 4 8 7 12 6 5 3 6 3 7 2 12 6 10 6 4 4 6 10 1 5v6l-1 5-3 6-3 7-4 6-5 6-6 6-6 5-7 5-7 4-7 3-6 2-6 3-7 1-5 1-5-1-6-1-5-2-5-3-4-4-7-12" style="clip-to-self:true;comp-op:src"/>
</g>
<g stroke="#fff" stroke-width="14.1">
<path transform="scale(.1)" d="m675 1908.4-3 1-4 3-2 2-2 4-2 5-3 8-3 9-4 10-4 13-4 14-5 16-5 17-6 18-10 38-6 18-4 18-4 16-3 14-3 12-3 11-2 7-1 6-2 4-1 4v-5l1-3 1-5 1-6 2-7 2-8 3-9 3-10 2-11 4-14 3-15 4-16 4-18 6-19 5-20 6-19 14-38 7-17 7-15 7-14 7-11 5-8 4-7 3-4 3-3 5-1 4 4 1 2 1 5 2 5 4 14 1 9 1 10 4 24 1 13 1 15 2 14 1 16 1 17v17l2 34 2 32 2 14 1 12 1 10 2 10 1 8 2 6 1 6 2 5v3l2 5 2-3-1-3-1-5-5-12" style="clip-to-self:true;comp-op:src"/>
<path transform="scale(.1)" d="m591.56 2100.6 2-4 5-5 3-2 3-3 4-2 5-3 5-4 5-3 6-4 14-8 8-3 8-4 8-3 9-2 19-6 9-3 10-4 21-7" style="clip-to-self:true;comp-op:src"/>
<path transform="scale(.1)" d="m840.62 1981.6-3-3h3l7 1 5 1h22l8-1 10-1 21-1 44-4 10-1 21-2 9-1h9 22 5l4 1 3 1 4 1-4 4-3 1-4 2-14 4" style="clip-to-self:true;comp-op:src"/>
<path transform="scale(.1)" d="m857.5 2069.7 3 2h5 6 4l5-1 6-1 5-2 14-4 8-2 8-3 8-2 9-2 30-6 10-1 18-2 8-1h7l6-1h4 8" style="clip-to-self:true;comp-op:src"/>
<path transform="scale(.1)" d="m1324.1 1879.1 2-5 2-7 1-6v-4l-1-4-4-4-4-2-6-2h-8l-4 1-10 4-12 6-21 15-8 7-7 7-8 7-7 7-5 7-6 7-4 6-3 6-1 5v5l1 5 2 4 8 6 6 3 7 2 8 2 8 1h9l10 1h63 6l6 2 4 1 2 2 2 4-3 6-4 4-5 4-6 5-7 4-16 10-8 4-9 4-17 9-8 4-8 3-13 7-5 3-5 2-4 6 4 1h4 6l6-1 8-1 7-1 9-1 7-1 16-1 7-1 7 1h6l10 4 3 3 2 4 1 5-1 6-2 6-3 7-5 7-5 8-7 8-7 7-8 7-7 7-8 6-18 12-8 6-9 5-8 6-9 4-8 6-7 4-7 5-6 4-4 5-3 3-2 4v3l1 3 3 3 3 2 5 2 5 1 7 1 8 1h8 19 10l11-1h22l21-2h10l18-2h7 6l5-1h4" style="clip-to-self:true;comp-op:src"/>
<path transform="scale(.1)" d="m1542.5 1943.8v-4l-3-6-1-4-3 6-1 4-2 5-1 6-2 7-1 7-2 8-1 9-2 9v8l-2 18v18l2 18 1 8 2 8 2 7 3 5 7 11" style="clip-to-self:true;comp-op:src"/>
<path transform="scale(.1)" d="m1656.6 2092.2-1-3-5 2-3 5-4 8-6 10-4 6-10 12-5 8-5 6-4 7-5 6-4 7-4 6-3 5-6 8-5 6-7 2" style="clip-to-self:true;comp-op:src"/>
<path transform="scale(.1)" d="m1751.2 1998.4 1-5 2-3 1-3 6-9 12-9 5-2 5-3 12-4 7-2 6-1 7-1h6 6l6 1 5 1 4 3 3 3 2 4 1 5v7l-1 7-2 8-4 9-4 10-6 11-6 10-7 11-6 11-8 11-8 10-14 18-7 8-6 6-5 6-5 5-3 4-4 6-1 3 5 2h4 6l6-1 7-2 8-1 18-4 10-3 9-3 10-2 18-6 8-2 6-3 6-2 5-2 6-2" style="clip-to-self:true;comp-op:src"/>
<path transform="scale(.1)" d="m1972.5 2085.9 4 1-3 5-2 2-2 4-6 8-4 5-15 18-15 21-5 6-8 14-3 6-4 12-1 5-1 4v6l5-2" style="clip-to-self:true;comp-op:src"/>
<path transform="scale(.1)" d="m2087.2 1966.2-1-3v-4l2-3 6-4 5-2 4-2 6-2 7-2 6-2 16-4 7-1 8-1 9-1 8-1h7 7l6 1 5 1 8 4 3 3 1 4v4l-1 5-2 5-3 6-4 6-11 11-18 15-6 3-7 5-5 2-5 3-8 4-5 2 4 2h8 5l6-1 7-1h8 8 14 7l7 1 6 1 5 2 4 2 6 6 2 8-1 5-2 5-4 5-3 5-6 5-6 6-16 10-9 5-10 5-30 12-12 3-20 6-18 4-7 2-7 1-4 1h-4v-4l3-2 13-7" style="clip-to-self:true;comp-op:src"/>
<path transform="scale(.1)" d="m2311.2 2108.8 4-2 3-2v3l-2 3-4 3-8 8-12 10-6 6-6 5-13 12-22 22-4 5-12 12-3 1-4 2" style="clip-to-self:true;comp-op:src"/>
<path transform="scale(.1)" d="m2457.8 1955.9-6-4h-4-3l-3-1 2-1 11-2 6-1 7-1 8-2 9-2 9-1 20-4 11-3 33-6 20-4 10-1 8-2h8 6l6 1 4 1 3 1 2 3 2 5-1 5-5 10-4 7-4 8-5 8-5 10-5 9-6 10-4 10-5 11-8 20-3 10-3 9-4 16-2 7-2 12-1 5-2 8v3 5l1 3 2-4" style="clip-to-self:true;comp-op:src"/>
<path transform="scale(.1)" d="m2435.3 2067.5 1-5 2-4 10-5 4-1 6-1 6-2 7-2 8-2 9-2 10-1 9-2 10-1 11-2 10-2 10-1 11-1 10-2h9l8-2 8-1 6-1 5-2 8-3" style="clip-to-self:true;comp-op:src"/>
<path transform="scale(.1)" d="m2688.8 2094.1-3 2-4 2-3 3-2 3-4 8-3 4-2 4-6 10-2 4-3 5-3 3-2 5-4 6-1 3-2 5-2 3-4-6" style="clip-to-self:true;comp-op:src"/>
<path transform="scale(.1)" d="m2910.9 1987.8-4-4-3-2-4-3-4-2-5-3-6-1-11-2-7-1-6-1-8-1h-7-8l-7 1-8 1-21 6-7 3-7 4-12 8-5 5-3 4-4 5-2 5v5 4l1 4 3 4 3 3 4 2 5 2 12 2h7l14-2 8-1 8-2 8-3 8-2 7-3 8-3 7-3 7-4 12-8 5-5 5-4 4-5 3-4 3-5 4-8v-2-4l-4 1-4 5-2 3-2 5-2 6-3 5-2 7-1 9-3 8-2 9-1 10-2 10-2 20v10 10 9l1 8 2 8 1 6 2 6 3 5 3 4 2 4 3 3 3 2" style="clip-to-self:true;comp-op:src"/>
<path transform="scale(.1)" d="m3007.8 2077.8-5 10-1 5-3 5-2 5-4 5-2 6-8 14-4 6-6 13-3 5-4 12-2 5-2 8v7l2-4" style="clip-to-self:true;comp-op:src"/>
<path transform="scale(.1)" d="m3108.8 1997.5v-5l1-3 2-5 1-3 3-2 3 1 2 3 1 5 2 8 1 5v7 7l1 7v9 9l1 10v10l1 10v10 10l1 9v9l1 9v7l1 7 2 10 1 3 2 4 3-6" style="clip-to-self:true;comp-op:src"/>
<path transform="scale(.1)" d="m3233.4 1976.2v4l-1 5-1 4-2 4-2 10-3 18-1 7-1 6-1 7v7l-1 8v15l1 8v7l1 7 1 8 4 12 3 6 3 4 3 5 3 3 3 1 6 1" style="clip-to-self:true;comp-op:src"/>
<path transform="scale(.1)" d="m3299.1 1915-1-3 1-4 5-3 4-2 5-2 6-3 14-4 16-4 9-2 8-1 10-1 8-1 9-1h9 8 7l21 3 5 2 4 3 3 3 4 6v4l-1 4-2 5-3 5-4 6-5 7-6 7-7 7-14 15-8 7-14 14-6 7-6 6-4 6-4 5-2 5-3 5-1 3 1 3 1 4 2 2 4 1 4 2 5 1h7l6 1h7 8l7 1h15 7l7 1h5l6 1 4 2 6 4 1 6-1 3-2 4-3 4-8 10-5 5-4 5-5 6-5 4-5 6-4 4-3 4-3 5-3 4-1 3v3l2 5 2 3 3 2 8 4 30 12 4 3 4 2 4 3 2 4 2 3 2 4v5 4l-1 4-3 4-2 4-5 4-5 3-5 4-14 6-8 3-7 3-9 2-8 2-9 2-7 2-16 4-7 1-6 1-5 1h-6-4-4l-6-2-5-4" style="clip-to-self:true;comp-op:src"/>
</g>
<g stroke="#f0f" stroke-width="14.1">
<path transform="scale(.1)" d="m610.31 2661.9 2 6v4 6 7 9 11l-1 11-2 28-1 15-2 16-1 17-2 30-1 14v12l-1 11v18l1 7 2 10 3 3 5 1 5-1 4-3 4-5 5-6 5-7 3-8 10-23" style="clip-to-self:true;comp-op:src"/>
<path transform="scale(.1)" d="m629.38 2726.6-2-5-3-5-1-5 1-5 6-9 6-6 5-4 4-3 12-6 7-2 8-4 27-6 10-2 9-2 9-1h8 7l7 1 6 2 4 3 4 4 2 6 1 6v7l-1 8-3 9-3 10-4 9-6 10-7 10-7 9-8 10-9 9-9 8-10 8-10 7-9 6-9 5-9 4-8 4-7 2-5 2-5 1-4 1 4-2 5-2 6-2 7-3 9-3 11-3 12-3 11-4 14-3 12-3 14-3 26-4 12-2h12 11l10 2 9 3 6 4 6 5 3 6 2 7v8l-2 7-3 9-5 8-6 7-7 8-9 7-10 7-22 12-13 6-13 5-28 8-45 9-15 1-14 2h-12-12l-10-2-8-1-6-2-5-3-3-3-1-4 1-4 3-5 3-4 6-6 6-5 7-6 9-5 25-13" style="clip-to-self:true;comp-op:src"/>
<path transform="scale(.1)" d="m946.88 2763.8-3-2 2-3 6-1 4-1 6-1 6-2 6-1 7-2 25-3 8-1h8l6 1h6l5 2 3 2 1 5-2 3-3 3-14 10" style="clip-to-self:true;comp-op:src"/>
<path transform="scale(.1)" d="m931.25 2842.5 4 1 3 1h4l5 1h5l6-1h6l7-1 15-1h21 7 11 5l9-2" style="clip-to-self:true;comp-op:src"/>
<path transform="scale(.1)" d="m1348.4 2592.2 2-3 2-4v-3l-2-3-4-1h-5l-3 2-4 2-10 4-6 4-6 3-13 10-11 11-6 5-4 6-3 4-2 5-1 4v4 3l2 3 3 2 3 3 5 2 5 1 6 2 6 1 8 1 28 4 6 2 10 4 4 3 3 4 2 5v5 5l-1 6-2 7-3 7-4 6-8 14-17 17-6 4-6 5-6 4-12 6-10 4-6 2h6l5-2 6-1 7-2 7-1 15-2 16-2h7 7l7 1 6 2 4 2 4 3 3 3 2 4 1 4-3 15-2 5-4 6-3 5-4 6-6 5-10 10-12 8-5 5-7 4-6 3-6 4-5 4-12 8-5 3-5 4-4 3-6 8-1 3v4l1 3 2 4 3 4 3 3 5 4 5 3 8 2 8 3 9 1h11 12l26-2 30-4 28-4 12-2 10-2 9-2 7-1 6-3 8-5" style="clip-to-self:true;comp-op:src"/>
<path transform="scale(.1)" d="m1547.2 2700.6 1-4v3l-1 6-2 8-1 6-1 5-2 14-3 24v9 32 7l1 7 1 6 1 4 1 5v4l1 3v3" style="clip-to-self:true;comp-op:src"/>
<path transform="scale(.1)" d="m1659.4 2833.8-6 3-3 5-2 3-2 4-3 4-6 10-3 7-4 6-7 14-5 14-3 6-2 7-3 21-2 10v3l-1 3" style="clip-to-self:true;comp-op:src"/>
<path transform="scale(.1)" d="m1761.2 2764.4v-4l1-4 5-4 2-2 4-1 10-4 12-4 6-1 7-2 12-1h12 6l4 1 4 2 3 2 2 2 1 4 1 3-1 5v5l-2 5-6 14-5 8-5 7-12 16-6 7-14 14-7 5-5 6-6 5-9 9-3 4-2 3-2 4v3l1 5 5 4 3 1 10 2h6 7 6l8-1h8l8-2h8l8-2h8l8-2 7-1 6-1 5-2 5-1 3-1 4-2" style="clip-to-self:true;comp-op:src"/>
<path transform="scale(.1)" d="m1968.1 2853.1 1 3-3 4-3 2-2 3-7 7-4 5-4 4-5 6-4 5-5 6-4 6-5 6-4 5-3 6-4 6-2 5-2 6-2 4-1 5-2 8v5l-1 3-1-8" style="clip-to-self:true;comp-op:src"/>
<path transform="scale(.1)" d="m2082.5 2744.1-1-4-2-4v-3l2-4 2-5 3-2 6-6 10-6 12-6 14-6 8-2 21-6 18-3h5l5 1 6 2 3 2 2 3 2 6-2 8-4 10-4 5-3 6-5 5-5 6-11 11-9 10-5 4-5 5-3 4-4 5-4 4-2 4-1 4-1 2 1 4 3 4 3 2 8 4h5l5 1 6 1 5 1 12 2 5 1 15 6 4 2 6 6 4 6v3 4l-1 4-2 3-3 5-4 4-10 8-6 4-8 4-7 5-9 3-16 8-9 3-9 4-8 2-16 6-14 4-12 4-5 1-4 1h-4-5l-2-2-4-6" style="clip-to-self:true;comp-op:src"/>
<path transform="scale(.1)" d="m2248.1 2661.6 2-4 4-3 4-1 8-4 6-2 5-1 7-2 8-3 7-2 16-4 9-3 8-1 9-2 8-2 14-1h6 6 5l4 1h3l4 3v5l-4 5-6 8-10 10-5 6-6 6-5 7-6 5-6 7-10 12-4 6-5 7-3 5-3 6-1 5-2 5v4 4l2 4 1 3 6 6 4 2 4 3 20 8 12 4 5 1 5 3 5 2 8 6 3 3 2 4 2 8-1 5-1 4-4 10-4 5-3 4-5 5-5 4-4 4-5 4-4 3-4 4-4 3-4 2-2 3-2 2-1 5 1 3 6 2 4 1 4 2 11 2 5 2 6 1 10 4 4 3 5 2 3 3 3 4 2 3 1 5 1 4-2 10-3 5-2 5-4 6-4 5-10 10-6 4-7 4-6 4-21 9-8 3-7 2-7 1-6 1h-6l-6 1h-6l-6 1-5-1-6-1h-6l-6-2-7-1-19-3" style="clip-to-self:true;comp-op:src"/>
</g>
<g stroke="#0f0" stroke-width="14.1">
<path transform="scale(.1)" d="m798.75 3388.4-6-6-3-2-2-2-20-10-4-1-11-1h-5l-14 2-6 2-8 3-16 8-7 5-8 6-7 6-7 9-7 8-7 10-6 10-10 22-3 11-4 11-1 10-2 10v9l1 9 1 8 3 7 3 6 8 10 10 10 7 3 6 3 14 6 8 2 8 3 8 1 7 2 7 1 16 2h7 7l7-1h6l12-2 15-3 3-2 4-1 6-4 4-6 3-7" style="clip-to-self:true;comp-op:src"/>
<path transform="scale(.1)" d="m901.56 3502.2-4-3 3-2 5-1 4-2 5-1 6-1 14-2 9-2h8l19-2 9-1h8 16 7l10 2 3 1 4 2-8 8" style="clip-to-self:true;comp-op:src"/>
<path transform="scale(.1)" d="m915 3569.4v4l2 4 4 2 4 1h3l4-1h6l5-1 6-1 7-2 8-2 8-1 9-3 9-1 9-2 10-2 18-4 8-2 7-3 18-7" style="clip-to-self:true;comp-op:src"/>
<path transform="scale(.1)" d="m1377.2 3334.4 3-12v-13-3l-1-4-2-5-3-4-5-3h-3-4l-6 1-6 2-7 4-8 4-9 5-10 7-11 7-11 8-11 9-11 8-11 9-9 8-9 9-6 8-5 8-3 7-1 7 1 6 3 5 4 6 10 10 6 3 7 4 7 3 6 3 7 3 7 2 12 6 5 3 5 2 8 6 3 4 2 3v4 4l-1 4-3 6-3 5-4 5-10 12-24 24-11 10-4 5-3 5-1 4-1 3 1 3 2 3 3 1 4 2 5 1 6 1 5 1 13 2 7 1h6l6 2 6 1 15 6 3 3 3 4 2 4v4 4l-1 6-5 10-5 6-4 6-5 6-4 6-6 5-6 6-5 7-19 19-5 6-5 5-3 6-3 4-2 5-1 4v3l1 3 5 4 3 2 4 1 5 1h20l9-1 8-1 9-1 20-2 21-3 9-1h10l9-1 14-2 10-2 2-1" style="clip-to-self:true;comp-op:src"/>
<path transform="scale(.1)" d="m1544.4 3475.6-6-1h4l6-1 4-1h5l5-1 14-4 8-3 8-2 9-2 9-3 18-4 10-2 8-2 7-2 6-1h6l5-1h3l8 2 2 4 1 3-1 4-1 5-1 7-2 7-4 9-3 9-8 20-5 10-8 20-3 9-8 16-2 6-6 12-2 5-4 8-1 4-2 4-1 3-2 3-1 3-2 3-2 6-2 3h-4" style="clip-to-self:true;comp-op:src"/>
<path transform="scale(.1)" d="m1557.2 3561.2 1-3 2-3 4-2 7-2 4-1 4-2 6-1 5-2 7-1 7-2 8-1 7-2 18-3 8-1h9l8-1h7l6 1h6l4 1h4l9 2" style="clip-to-self:true;comp-op:src"/>
<path transform="scale(.1)" d="m1761.2 3614.1-9 12-4 4-6 10-6 12-3 5-2 5-6 10-4 8-2 3-1 3-3 4-3 2-7-4" style="clip-to-self:true;comp-op:src"/>
<path transform="scale(.1)" d="m1963.8 3483.4v-3-3-5l-3-12-3-5-4-5-6-2-4-1h-4l-5 1h-6l-6 2-5 2-6 3-7 3-7 4-6 5-11 11-9 11-6 10-2 6-1 4v5l1 4 1 3 5 5 4 2h4l5 1 5-1h6l6-2 6-1 12-6 5-3 6-3 5-4 9-8 4-4 2-4 3-3 2-4 3-5 1-3-2 5v5 4l-1 6v6l-1 7v8l-1 8v9 8l-1 8v9l-1 8v8 50l-1 3-3 5" style="clip-to-self:true;comp-op:src"/>
<path transform="scale(.1)" d="m2052.5 3590.9 4 1v5l-1 6-1 4-2 4-1 6-3 5-2 6-6 13-6 14-3 6-3 7-6 18-1 6-2 10-1 4v3" style="clip-to-self:true;comp-op:src"/>
<path transform="scale(.1)" d="m2176.9 3480 2-3 2 4v12l-1 6-1 7-1 8-4 17-2 9-2 8-2 9-2 8-2 7-2 16-2 14-1 6v6l-1 5v8" style="clip-to-self:true;comp-op:src"/>
<path transform="scale(.1)" d="m2250 3495.3v-11-3l2-4 5-4 2-2 8-4 5-2 5-1 5-2 7-1 6-1h7 13 7l6 1 10 2 4 3 3 3 3 4 1 5v5l-1 7-3 9-3 8-5 10-5 9-6 11-8 10-7 10-8 10-8 9-9 8-8 8-14 12-6 6-5 3-4 4-2 3-3 4 4 3h9l5-1 14-2 8-2 24-3 9-1 7-1 8-1 7-1 6-1 5-1h5 8 4l-2 4-6 1-8 1" style="clip-to-self:true;comp-op:src"/>
<path transform="scale(.1)" d="m2460.6 3615.6-4 1-3 2-2 4-6 9-3 4-2 5-4 5-12 24-7 13-4 7-4 6-3 6-16 20-11 9" style="clip-to-self:true;comp-op:src"/>
<path transform="scale(.1)" d="m2611.2 3483.4-2-3-1-3v12l-1 6v7l-1 8-1 9-2 9-2 11-1 10-4 20-4 18-1 9-1 8-1 7v7l-1 5 1 6 1 3 4 4 5-1 3-3 9-11" style="clip-to-self:true;comp-op:src"/>
<path transform="scale(.1)" d="m2698.8 3515.6-3-5-1-3-1-4-1-3 1-3 3-6 4-2 4-4 10-6 6-3 7-4 7-2 8-2 8-1 9-2 8-1h8 8l7 1 7 2 5 2 4 2 4 4 2 8-2 12-6 12-10 14-7 6-6 6-7 6-7 5-8 5-14 8-7 2-6 2-10 4-3 1-4 1 4 1 7 1h23 7l7 1 8 1 7 1 7 2 6 2 6 3 6 2 5 4 3 3 2 4 2 5v4 4l-2 5-2 4-4 5-4 4-18 12-8 3-7 3-18 6-9 2-8 2-9 1-9 2-8 1-7 1h-7-5-5l-4-1-4-2 1-4 3-3 3-4 4-4 12-9" style="clip-to-self:true;comp-op:src"/>
<path transform="scale(.1)" d="m2904.7 3606.2-2 4v3l-1 4-1 3-2 5-1 5-2 6-4 6-4 12-4 6-2 6-3 6-4 12-1 6-2 5v5l-1 5-1 3" style="clip-to-self:true;comp-op:src"/>
<path transform="scale(.1)" d="m3066.2 3466.2-2 3-1 3v4l-2 10-1 6-1 8-2 8-2 9-2 8-4 18-3 8-2 9-2 8-1 8-2 7-2 14v6l-1 5v4l2 6 7-7" style="clip-to-self:true;comp-op:src"/>
<path transform="scale(.1)" d="m3135.9 3480.6-2-4v-3l3-3 2-3 4-2 10-4 6-3 6-2 7-3 16-4 16-3 8-1h9 8 7l8 2 7 1 7 3 10 6 4 5 3 6 2 7 1 7-1 9-1 10-9 33-8 22-4 10-8 18-4 7-2 7-3 5-2 4-1 4-3 4-3 1h-11" style="clip-to-self:true;comp-op:src"/>
<path transform="scale(.1)" d="m3153.8 3583.4 2-3 6-4 3-1 5-1 4-2 6-2 6-1 6-2 9-2 8-3 9-1 10-2 30-3 18-2h8l7-1 6-1h5l9-2" style="clip-to-self:true;comp-op:src"/>
<path transform="scale(.1)" d="m3375 3419.1v-4-4l2-3 4-3 3-1 4-2 5-1 5-2 6-1 8-2 7-1 9-1 8-1 27-3h9 16 8l12 2h5l5 2 3 1 3 5-1 6-2 4-9 9-5 6-6 5-14 13-8 6-7 7-8 6-15 13-5 7-6 6-4 5-3 6-2 5-1 4v4 4l2 4 2 3 3 3 3 2 4 3 5 1 5 2 12 2 6 2h7l5 1 7 1 10 2 4 1 4 2 3 2 3 3-1 6-4 5-7 7-10 6-5 4-4 3-10 6-6 6-2 3-1 5 3 4 6 4 5 2 5 1 10 4 6 2 4 1 5 2 8 5 3 2 1 3 2 4v3l-2 5-2 4-3 5-5 4-5 5-12 8-8 4-7 4-16 6-9 3-16 4-24 3h-7-7-6l-6-1-5-2-4-2-7-8" style="clip-to-self:true;comp-op:src"/>
</g>
<g stroke="#ff7f00" stroke-width="14.1">
<path transform="scale(.1)" d="m678.44 4117.2 2-3 1 4v6l-1 4-1 6-1 8-2 9-2 11-3 12-3 13-3 14-5 29-3 14-5 28-4 26-1 11-1 10v9 8l1 7 1 5 1 4 2 4 4 3 6-1 3-2 4-3 4-4 4-5 9-15" style="clip-to-self:true;comp-op:src"/>
<path transform="scale(.1)" d="m662.5 4191.6v-10-4-4l1-5 2-3 3-5 3-3 4-5 5-3 12-8 7-3 17-5 9-2 10-2 9-1h10l18 2 9 3 8 3 8 5 6 5 5 7 5 8 3 10 2 11v13 13l-4 28-8 28-5 12-6 12-6 11-7 11-8 10-17 17-8 6-9 7-8 5-9 4-8 4-8 3-7 2-7 1-6 1h-6l-4-1-5-1-3-2-1-3-2-4v-5l1-6 7-16" style="clip-to-self:true;comp-op:src"/>
<path transform="scale(.1)" d="m900.31 4230-1-3 5-2 9-3 5-1 5-2 5-1 6-1 7-1 6-1 7-1h13 5l9 3 3 2 2 3 1 6-5 9" style="clip-to-self:true;comp-op:src"/>
<path transform="scale(.1)" d="m886.88 4306.9 2 3 4 2h4 4 4l6-1 7-1 6-1 8-2 9-1 8-3 19-3 10-2 11-2 10-2 11-2 10-2 9-2 9-3 18-5" style="clip-to-self:true;comp-op:src"/>
<path transform="scale(.1)" d="m1403.1 4067.5 2-6 2-5 1-6 2-5v-5-4l-1-4-1-3-2-2-6-4-4-1h-5l-5 1-6 1-16 6-8 5-9 6-10 6-9 8-10 9-8 8-8 9-7 9-5 8-3 8-2 9-1 7 1 7 2 8 3 6 4 6 5 6 7 5 6 4 17 7 9 2 8 3 9 1 9 2 8 2 8 1 6 2 6 1 4 2 3 3 2 3 1 3-1 3-2 4-3 4-4 5-11 11-7 6-6 5-6 6-7 6-12 10-5 4-6 8-2 4-1 3v3l1 3 2 3 3 3 3 2 4 2 4 3 13 6 8 6 3 2 4 6 1 4v4l-1 5-2 4-2 6-3 6-10 12-12 12-7 6-6 6-7 6-6 6-7 6-5 4-9 9-2 4-2 3-1 3 1 4 5 4 4 1h6 6 7l18-2 10-1 22-4 11-1 13-2 12-2 13-1 11-2 12-2 11-1 10-1 9-1 16-2 6-1 5-1 3-2 4-1" style="clip-to-self:true;comp-op:src"/>
<path transform="scale(.1)" d="m1609.1 4159.7-2-4-2 5-1 3-1 5-2 5-4 14-3 9-3 10-4 20-3 11-1 10-2 10v9l-1 9 1 9v8l2 7 1 7 3 5 2 4 3 2 9 2" style="clip-to-self:true;comp-op:src"/>
<path transform="scale(.1)" d="m1688.8 4212.2-3-4-2-5-2-4v-3l2-3 4-3 3-2 8-5 5-1 13-4 6-1h7 7l6 1h7l5 3 5 2 4 4 2 5 2 6v6l-1 8-2 8-3 9-8 18-12 16-7 8-7 7-6 7-7 6-6 5-15 15-3 4 3 3h6 4 5l6-1h7l7-1 8-1 7-2 16-2 7-1 12-2 10-2 8-4" style="clip-to-self:true;comp-op:src"/>
<path transform="scale(.1)" d="m1838.4 4317.2-3 2-4 3-3 3-5 7-4 4-4 5-4 4-5 6-4 5-8 12-7 11-4 10-1 5-1 4-2 4-1 4v3l-2 3" style="clip-to-self:true;comp-op:src"/>
<path transform="scale(.1)" d="m1976.2 4171.6 3-2 1 3-1 4v3l-2 10-1 7-2 8-1 8-2 9-2 10-1 10-4 20-2 18v8 8 7l1 7 2 12 1 4 2 4 2 2 2 3 4-1" style="clip-to-self:true;comp-op:src"/>
<path transform="scale(.1)" d="m2080 4192.8-1-3-1-6-2-5 2-8 5-4 3-2 4-3 5-2 6-2 7-1 7-3 7-1 8-2h9l8-1h8 7 6l6 1 5 1 4 2 3 2 2 3v3 4l-6 10-4 6-20 20-7 6-9 6-8 7-16 10-12 8-5 3-4 2-6 4 4 1h8 6l7-1h7 8l8-1h8l8 1h7l8 1 6 2 5 1 5 3 4 2 2 3 2 4v4l-2 4-2 5-9 9-6 5-7 4-8 5-9 4-10 5-20 8-19 7-10 4-8 2-7 3-7 2-6 2-5 1-4 1-3 1 3-2 4-3 15-7" style="clip-to-self:true;comp-op:src"/>
<path transform="scale(.1)" d="m2237.8 4310.3-3 2-3 3-4 5-2 3-3 3-2 4-8 8-8 10-5 5-4 6-6 6-9 12-5 6-8 12-5 6-3 6-3 5-2 5-3 3-1 3-3 2" style="clip-to-self:true;comp-op:src"/>
<path transform="scale(.1)" d="m2363.1 4175.9 3 2v4 9l-1 6-1 7-1 9-2 9-1 10-4 20-2 9-2 10v8l-1 9v8 7 7l1 6 4 10 2 2 3 2 8-2" style="clip-to-self:true;comp-op:src"/>
<path transform="scale(.1)" d="m2533.8 4197.5-2-4-4-2-4 2-3 1-3 2-3 3-4 2-3 3-4 3-6 8-3 5-2 4-1 4-1 5 1 4 6 8 4 3 4 4 6 3 6 2 6 3 14 4 8 3 6 2 7 3 12 6 4 3 4 4 6 8 2 4 1 4v5l-2 5-2 4-6 8-5 4-4 4-6 3-12 7-21 6-7 1-6 1-5 1h-6-4l-4-1-4-2-4-3-3-3-6-10" style="clip-to-self:true;comp-op:src"/>
<path transform="scale(.1)" d="m2489.1 4215-1-4 3-3 5-3 5-2 4-1 7-3 6-2 8-2 8-3 8-2 27-6 8-2 9-1 8-1 7-2 7-1 5-1 4-1" style="clip-to-self:true;comp-op:src"/>
<path transform="scale(.1)" d="m2681.6 4085.6 1-3 2-3 8-8 10-6 7-3 7-2 8-3 8-2 18-4 18-2 9-2h9 15 7l5 1 5 2 4 2 2 3 1 3v4l-1 5-3 5-4 5-5 7-12 14-8 8-24 21-7 7-8 7-6 7-6 6-8 10-3 4-2 5v4 3l2 4 2 3 4 2 5 3 6 2 6 1 8 2 7 1 8 2 7 2 8 1 6 3 7 2 6 3 5 3 4 3 2 3 2 4 1 4-1 5-2 5-3 5-4 5-4 6-6 5-13 10-6 5-7 5-6 4-5 5-6 4-5 4-3 3-2 4-2 3 1 5 5 4 4 2 4 1 6 2 12 3 7 2 6 1 7 2 5 2 6 3 5 3 4 3 6 8 2 4 1 6-1 4-1 6-3 6-8 12-5 6-6 6-7 6-7 5-16 12-9 4-8 5-16 8-15 4-12 4-7 1h-12l-12-2-17-4" style="clip-to-self:true;comp-op:src"/>
</g>
<g stroke="#fff" stroke-width="14.1">
<path transform="scale(.1)" d="m6949.1 5354.4v20l-2 38-2 20-3 19-2 20-12 57-5 20-5 19-6 19-7 18-14 38-9 19-8 18-9 19-30 54-12 18-11 18-12 18-26 34-14 18-14 16-14 17-16 17-15 16-16 16-34 32-18 16-18 14-18 16-19 14-20 15-40 28-21 13-22 14-44 26-46 24-23 11-24 12-25 11-24 10-26 11-25 9-26 10-26 9-81 24-27 7-28 7-28 6-29 6-28 5-58 10-29 3-29 4-30 3-29 2-30 2-30 1-29 1h-30-30l-30-1-29-1-60-4-29-3-29-4-29-3-87-15-56-12-28-7-27-7-28-8-27-8-26-8-26-9-26-10-26-9-25-11-25-10-24-11-24-12-23-11-24-12-22-12-23-13-21-13-22-14-21-13-40-28-20-15-19-14-18-16-18-14-18-16-34-32-32-32-15-17-14-17-14-16-14-18-26-34-24-36-11-18-30-54-9-19-9-18-8-19-14-38-7-18-6-19-5-19-5-20-5-19-4-19-6-39-2-19-2-20-2-38v-39l1-19 1-20 4-38 6-39 4-19 5-19 5-20 5-19 6-19 7-19 7-18 7-19 8-19 9-18 9-19 30-54 11-18 24-36 13-17 13-18 28-34 14-16 15-17 32-33 17-16 17-15 36-31 18-15 19-14 20-15 40-28 21-14 22-13 21-13 23-13 22-12 24-12 23-12 48-22 25-11 25-10 26-10 52-18 26-8 27-8 28-8 27-7 28-7 56-12 29-6 29-4 29-5 29-4 58-6 60-4 29-1 30-1h60l29 1 30 1 30 2 29 2 59 6 29 4 29 5 29 4 28 6 29 6 28 6 28 7 27 7 81 24 52 18 25 10 26 10 24 11 25 11 24 11 69 36 66 39 21 14 40 28 20 15 19 14 18 15 18 16 18 15 17 15 17 16 16 17 15 16 16 17 14 16 28 34 13 18 13 17 12 18 11 18 12 18 30 54 9 19 8 18 9 19 7 19 7 18 7 19 6 19 5 19 5 20 12 57 2 20 3 19 2 19 1 20 1 19v19" style="clip-to-self:true;comp-op:src"/>
<path transform="scale(.1)" d="m4344.7 4600.6v-4l1-3v-4l1-4-1-3v-4-2l-1-6v-3l-1-4-3 5-1 4-2 6-2 7-4 8-3 10-4 10-4 12-5 12-5 13-6 14-7 15-12 32-7 16-6 15-5 15-6 13-4 11-4 10-3 8-3 7-1 5-1 4-1 3 3-2 2-4 2-5 3-7 4-8 3-9 4-11 4-12 4-13 5-14 5-16 5-15 5-17 12-34 6-18 7-17 6-18 7-16 6-15 7-13 5-11 4-8 4-6 2-4 2-2 4-2 4 3 2 2 4 8 2 6 1 7 2 7 2 8 1 10 2 10 6 33 6 36 4 26 6 36 3 11 2 10 3 10 2 8 3 8 2 6 2 5 3 5 4 5 3 4 3 1-4-4" style="clip-to-self:true;comp-op:src"/>
<path transform="scale(.1)" d="m4295.6 4690.9-3-3-1-4 4-2 3-1 9-2 5-1 8-3 8-1 9-2 10-2 11-2 12-2 11-1 39-6 30-7" style="clip-to-self:true;comp-op:src"/>
</g>
<g stroke="#f0f" stroke-width="14.1">
<path transform="scale(.1)" d="m5909.4 5344.1v23l-1 22-2 23-3 22-3 23-10 44-12 44-8 21-8 22-9 20-9 21-11 21-11 20-11 19-13 19-13 20-28 36-15 17-32 34-17 16-17 15-18 15-19 14-38 26-20 13-20 11-42 22-21 9-22 9-22 8-23 7-22 7-23 6-23 5-23 4-24 4-23 2-24 2-23 2h-24-24l-23-2-24-2-23-2-24-4-23-4-23-5-23-6-23-7-22-7-22-8-22-9-21-9-42-22-20-11-40-26-18-13-19-14-18-15-17-15-17-16-32-34-15-17-28-36-13-20-13-19-11-19-11-20-11-21-9-21-9-20-9-22-7-21-18-66-4-22-3-23-3-22-2-23-1-22-1-23 1-22 1-23 2-23 3-22 3-23 4-22 18-66 7-21 27-63 11-21 11-20 11-19 26-38 14-19 14-18 15-17 32-34 17-15 17-16 18-14 19-15 18-13 40-26 20-11 21-11 42-20 22-9 22-8 22-7 23-7 23-6 23-5 23-4 24-4 23-2 24-2 23-1 24-1 24 1 23 1 24 2 23 2 24 4 23 4 23 5 23 6 22 7 23 7 22 8 22 9 42 20 21 11 20 11 20 13 38 26 19 15 18 14 17 16 17 15 32 34 15 17 14 18 14 19 26 38 11 19 11 20 11 21 18 42 16 42 12 44 10 44 3 23 3 22 2 23 1 23v22" style="clip-to-self:true;comp-op:src"/>
<path transform="scale(.1)" d="m4689.7 5180.9 1-5 1-4v-3l2-3v-3l1-5 2-6 3 2 2 7v5l1 6 1 8 2 18v10 12 59l1 13 1 11v13 11l1 10 1 9 1 8 1 6 1 4 1 3 2 4 3-1 3-5 1-4 1-6 2-15" style="clip-to-self:true;comp-op:src"/>
<path transform="scale(.1)" d="m4715.6 5200.3-3-1-6-1h-4l-7-2-4-1-9-3-4-3-3-3v-5l1-5 2-4 10-10 5-4 5-5 12-10 7-5 7-4 7-5 8-3 8-4 7-2 14-2 6 1 6 2 8 8 3 6 1 6 1 8v8l-1 9-2 9-2 10-8 18-5 9-5 8-5 7-6 7-6 6-12 10-5 3-5 4-6 2-8 4-3 1-4 1 5-2 3-1 4-2 6-2 6-1 7-3 9-2 8-3 9-1 9-2 9-1 9-2h8 8l7 1 7 2 6 2 6 3 4 3 4 4 4 8 1 6-1 5-1 6-3 7-3 6-8 13-5 6-6 5-6 6-7 5-8 4-7 4-8 3-9 3-8 3-8 2-7 1-8 1-14 2h-11-5l-8-2-4-2v-4l3-4 3-3 10-8" style="clip-to-self:true;comp-op:src"/>
</g>
<path transform="scale(.1)" d="m8218.8 5596.2-1 19v20l-4 38-6 38-5 19-4 19-6 19-5 19-7 19-7 18-8 18-8 19-18 36-11 18-10 18-12 18-24 34-13 17-28 34-15 16-32 32-34 30-36 30-38 28-20 14-42 26-22 13-22 12-23 11-23 12-23 11-24 10-25 10-75 27-27 8-26 7-27 7-27 6-28 6-27 5-28 5-28 3-28 4-29 3-28 2-87 3-28-1-58-2-28-2-29-3-28-4-28-3-56-10-54-12-27-7-26-7-27-8-25-9-26-9-25-9-48-20-23-11-46-23-22-12-22-13-42-26-20-14-38-28-19-15-17-15-18-15-16-15-32-32-15-16-28-34-13-17-24-34-12-18-10-18-11-18-18-36-8-19-8-18-7-18-7-19-6-19-10-38-4-19-6-38-4-38-1-20v-19-19l1-19 2-20 2-19 6-38 4-19 10-38 6-19 7-18 7-19 8-18 8-19 18-36 11-18 10-18 12-17 12-18 12-17 13-17 14-17 14-16 15-16 16-17 16-15 16-16 18-15 17-15 19-15 38-28 20-14 42-26 66-36 24-12 23-10 48-20 25-10 26-9 25-8 27-8 26-8 27-7 27-6 27-5 28-6 84-12 29-2 28-3 58-2h28 29l58 2 28 3 29 2 84 12 27 6 28 5 27 6 27 7 26 8 27 8 25 8 25 9 50 20 24 10 23 10 46 24 44 24 42 26 20 14 38 28 36 30 17 15 17 16 16 15 16 17 15 16 14 16 14 17 13 17 12 17 12 18 12 17 10 18 11 18 18 36 8 19 8 18 7 19 7 18 5 19 6 19 4 19 5 19 6 38 2 19 2 20v19l1 19" stroke="#0f0" stroke-width="14.1" style="clip-to-self:true;comp-op:src"/>
<path transform="scale(.1)" d="m7947.5 4636.6v-5l-2-5-4-4-5-2-9-3h-4l-9-2-4-1h-5-15-6l-6 1-5 2-13 3-6 3-7 4-6 4-7 6-7 5-12 14-7 8-6 9-5 8-6 10-3 10-4 10-3 9-2 10-2 18 1 9 4 14 3 7 4 7 4 5 6 5 12 8 7 3 8 2 7 2 8 1 9 1h17l10-1h9l18-2 9-2 8-1 9-2 7-2 7-1 10-2 3-1 4-1-4-2-3 1-5 1h-4l-7-4" stroke="#0f0" stroke-width="14.1" style="clip-to-self:true;comp-op:src"/>
<g stroke="#ff7f00" stroke-width="14.1">
<path transform="scale(.1)" d="m9026.6 5979.4-1 15-1 14-2 14-3 15-8 28-12 28-7 14-8 14-9 14-9 13-11 14-11 13-12 13-13 14-14 12-14 13-16 13-34 24-18 12-19 12-20 11-21 11-22 11-22 10-24 10-25 10-25 9-54 18-29 8-29 7-62 14-32 5-33 6-68 8-35 2-35 3-36 1h-35-36l-36-1-35-3-35-2-68-8-33-6-32-5-62-14-29-7-29-8-54-18-25-9-25-10-24-10-22-10-22-11-21-11-20-11-19-12-18-12-34-24-16-13-14-13-14-12-13-14-12-13-11-13-11-14-9-13-9-14-8-14-7-14-12-28-8-28-3-15-2-14-1-14-1-15 2-28 2-15 3-14 8-28 12-28 7-14 8-14 18-28 11-13 11-14 12-13 13-13 14-13 14-12 16-13 17-12 17-13 18-12 19-11 20-11 21-11 22-11 22-10 24-11 25-9 25-10 27-9 27-8 58-16 31-7 31-6 32-6 33-5 68-8 35-3 35-2 72-2 35 1 36 1 35 2 35 3 68 8 33 5 32 6 31 6 31 7 58 16 27 8 27 9 25 10 25 9 24 11 22 10 22 11 21 11 20 11 19 11 18 12 17 13 17 12 16 13 14 12 14 13 13 13 12 13 11 14 11 13 18 28 8 14 7 14 12 28 8 28 3 14 2 15 2 28" style="clip-to-self:true;comp-op:src"/>
<path transform="scale(.1)" d="m8800.6 5302.2v-4l2-4 4-2 3-1 2 2 1 4v11l-1 4v6 5l-1 6v7l-1 7v15l1 9 1 8v8l5 45 3 24v8l1 8 1 7v7 6 5l1 5v12l-1 3v4l-1 3" style="clip-to-self:true;comp-op:src"/>
<path transform="scale(.1)" d="m8824.4 5329.4 2-2 3-5 5-3 4-2 3-2 5-2 4-1 5-2 12-4 14-4 8-1 9-2 8-1 19-1 9-1 18 2 9 2 8 2 8 3 6 4 6 5 8 12 2 7 2 8v9l-1 9-1 10-3 10-4 10-4 11-6 10-6 11-7 11-7 10-8 10-8 9-7 8-16 14-7 5-8 6-7 4-7 5-8 3-14 6-7 1-7 2-6 1-5 1h-9l-5-1-4-1-3-2-6-5-6-10" style="clip-to-self:true;comp-op:src"/>
</g>
<path transform="scale(.1)" d="m3906.2 3770.9v3198h5519v-3198h-5519" stroke="#7f7f7f" stroke-width="14.1" style="clip-to-self:true;comp-op:src"/>
<path transform="scale(.1)" d="m9036.6 3456.2-2-8-2-3-4-3-3 1-3 3-3 2-2 4-2 5-4 7-3 8-3 9-3 11-2 11-4 26-2 28v14l1 13 4 26 3 11 3 10 5 10 10 16 12 10 6 3 7 2 7 1 16-2 8-3 8-4 8-6 9-6 15-15 7-9 6-9 6-10 5-11 5-12 3-12 3-14 9-48 1-17 2-16 1-15 1-14v-12-9l-1-7-2-5-2-4-6-2-3 1-3 3-3 4-4 5-3 7-2 7-3 10-2 10-2 24v12 14l2 13 1 13 3 14 2 12 4 12 4 11 5 10 5 9 6 9 5 8 10 14 5 6 3 7 3 5 2 5 4 11" stroke="#7f7f7f" stroke-width="14.1" style="clip-to-self:true;comp-op:src"/>
<g stroke="#fff">
<g stroke-width="14.1">
<path transform="scale(.1)" d="m4179.1 8131.9-2-4-3-4h-5l-3 5-2 4-2 5-2 7-2 8-2 11-2 14-3 15-2 18-2 21-2 22-2 23-1 23-2 22-2 21-1 20-1 19v17l-1 15v14l1 12v11l1 8 1 7 1 5 2 4 1-3 1-4v-6-7l1-8v-31l-2-26v-15l-1-16v-18l-1-19 1-20 1-21 1-20 3-18 2-16 3-15 4-11 3-9 2-8 4-5 3-3 2-1h6l3 3 4 3 5 4 4 6 5 7 5 8 5 10 6 11 6 13 5 14 12 34 6 18 5 18 6 17 5 17 5 16 5 14 5 13 5 12 4 11 4 10 7 14 3 5 3 3 2 3 3 2 2-3 1-4v-3-5-13-8-18l-1-11v-12l-1-13-1-15v-18l1-20v-23l2-24 2-25 4-24 3-21 4-19 3-15 4-12 3-8 2-5 3-3 4 1 3 7 2 5 1 6 4 16 1 9 1 10 3 29" style="clip-to-self:true;comp-op:src"/>
<path transform="scale(.1)" d="m4396.9 8328.4-3-10-2-3-1-3-3 4-2 3-1 4-2 5-1 5-2 7-3 24v9l1 10 1 9 6 30 3 9 4 8 3 7 4 7 4 5 4 4 3 2 4 2h4 4l4-3 4-2 3-4 4-5 4-7 2-6 3-7 3-9 2-8 1-9 2-10 1-11 2-10 1-10 1-9 2-9 1-7 2-6 1-4 2-4 1 7v5 22 9l3 27 2 9 3 8 2 8 3 7 3 8 4 6 3 4 4 3 3 2h4l3-1 10-8" style="clip-to-self:true;comp-op:src"/>
<path transform="scale(.1)" d="m4558.1 8321.6-2 2-1 4-3 9-1 5-2 14-3 24-1 9v9l-1 10v9 10 9l1 8 2 8 2 6 2 5 2 4 3 2 3 1 6-2 4-2 3-4 4-4 3-6 4-6 3-8 2-7 6-27 1-9 2-9 1-10 1-9 2-8 1-8 2-5 1-5 2-4 2 5 1 5v5l1 7v7l2 17 2 18 4 18 2 8 2 9 3 7 2 7 3 6 2 5 5 5 3 1 7-2 3-2 3-4 3-5 2-6 3-6 3-7 2-7 2-8 2-9 1-8 4-18 3-9 3-8 2-8 4-7 3-5 3-4 3-3 3-1 4 4 1 4 1 5 2 6 1 7 1 8 2 8 1 9 1 8 4 20 1 9 3 10 1 10 2 10 2 8 2 6 3 6 1 3 5 1 4-3 2-4 2-5 4-16" style="clip-to-self:true;comp-op:src"/>
<path transform="scale(.1)" d="m4845.3 8142.2 3-2-1 3-1 4-2 5-1 6-2 7-3 8-2 9-2 11-3 13-2 14-3 16-2 17-6 38-6 57-2 18-1 18-1 17v15 14 12l1 10 2 8 1 6 2 4 4 2 5-2 3-3 2-5 3-6 3-7 4-7 4-9 3-9 4-11 3-10 5-11 5-12 6-13 6-12 7-13 7-11 8-9 7-8 7-6 5-2 5-1 4 1 3 3 2 5 1 6 1 8v8l-1 9-1 10-2 10-3 10-2 11-8 20-5 11-5 10-6 9-7 9-6 8-7 6-7 5-7 4-6 3-6 1h-6l-5-1-5-2-4-3-3-5-3-6-1-6-1-8 3-21" style="clip-to-self:true;comp-op:src"/>
<path transform="scale(.1)" d="m4975 8400.9 3 1 12-6 4-3 5-3 5-5 5-4 5-5 4-6 5-5 5-6 4-7 4-5 3-6 3-5 2-5 1-5 1-3-2-3-4 1-4 3-5 4-6 6-6 7-5 8-6 8-6 9-4 9-8 20-2 9-1 9v17l1 8 2 6 3 5 4 4 10 4h6l6-1 7-1 7-3 8-3 7-4 8-4 21-18 12-14 5-8 6-7 4-8 6-8 4-7 5-8 4-6 4-5 2-4 3-2 3-1 2 4v3 5 6 7l-1 8-2 18-2 20-1 11-1 10-2 22-1 10v9l-1 6v13l2-7v-5l4-14 2-8 2-9 3-9 3-10 4-10 4-11 5-12 6-12 7-13 7-14 8-15 9-15 9-13 10-13 9-11 9-9 8-7 6-4 5-2 5 1 3 2 2 3v6l-1 7-2 8-11 23" style="clip-to-self:true;comp-op:src"/>
<path transform="scale(.1)" d="m5546.6 8285.6 5-7 6-7 8-8 7-9 7-8 6-8 10-16 4-8 3-7 3-8 2-14v-7l-1-6-2-5-2-6-4-4-3-2-5-3-5-1h-6l-7 1-7 3-8 3-8 4-9 5-9 7-9 8-8 8-8 10-7 10-6 11-6 12-6 26-2 13v13l1 12 2 13 8 22 7 9 6 10 8 8 18 14 27 18 7 4 7 5 5 4 6 8v4l-1 4-2 3-4 4-5 3-7 4-7 3-9 3-9 2-10 2-11 2-10 1-11 1h-19-8l-7-1-5-2-3-2-2-3 1-3 2-5 11-13" style="clip-to-self:true;comp-op:src"/>
<path transform="scale(.1)" d="m5667.5 8405.3-4 3-3 1-1 3 3 1h4l6-1 5-1 4-1 6-2 13-6 21-12 6-5 14-10 6-5 4-6 5-5 3-6 2-5 1-6v-4-5l-1-4-6-6-4-1-5-2h-5-6l-7 1-7 2-6 4-8 4-6 5-8 6-6 7-12 16-6 9-12 30-1 11-2 10v9l1 9 3 8 4 7 5 6 6 5 8 3 8 4 9 1 10 1h11l22-4 10-2 10-3 10-4 10-3 16-8 6-4 5-5 10-12" style="clip-to-self:true;comp-op:src"/>
<path transform="scale(.1)" d="m5914.7 8237.2v-4l-1-5v-5-5l-1-6v-5l-1-5v-4l-1-3v-4l-1-3-2 4-2 10-2 8-2 10-2 12-2 13-2 14-3 16-2 17-2 16-3 17-2 16-2 30-1 13 1 13v11l3 10 3 9 4 7 5 6 6 4 6 3 8 1h8 8l9-3 10-3 11-5 10-5 10-6 9-7 17-17 6-9 12-24" style="clip-to-self:true;comp-op:src"/>
<path transform="scale(.1)" d="m5867.8 8346.9h-5l-4-1h-4l6-1h3l5-2 5-1 7-1 7-2 8-2 8-3 9-3 10-3 9-3 9-2 9-3 8-2 6-3 5-2 3-1 4-3" style="clip-to-self:true;comp-op:src"/>
<path transform="scale(.1)" d="m6150 8328.8 1-4 2-3 4-10 2-4 2-5 2-8v-3l1-5v-3h-4l-4 3-6 6-3 4-4 5-4 4-3 6-8 12-4 7-9 21-1 7-1 6v7 6l4 12 4 6 3 5 5 6 10 11 7 4 12 10 7 5 6 5 10 8 4 3 3 4 2 2 2 5-2 4-2 2-3 1-4 1-4 2-5 1-7 1-7 2h-6l-7 1h-7l-8-1h-15l-6-1-7-1-6-1-12-4-5-3-4-4-9-10" style="clip-to-self:true;comp-op:src"/>
</g>
<path d="m410.94 864.38h212.53" stroke-width="1.41" style="clip-to-self:true;comp-op:src"/>
<g stroke-width="14.1">
<path transform="scale(.1)" d="m3320.9 11874-2 24-2 11-4 12-4 11-4 12-6 12-7 11-8 11-8 12-20 22-24 22-13 11-14 10-15 11-16 10-17 10-18 10-19 10-20 9-44 18-23 9-25 9-52 16-29 8-29 7-31 6-33 7-34 6-35 5-37 5-37 3-39 4-40 2-82 2-41-1-40-1-40-2-39-4-38-3-37-5-35-5-34-6-32-7-31-6-30-7-28-8-27-8-26-8-48-18-22-9-21-9-20-9-19-10-18-10-17-10-16-10-15-11-14-10-14-11-12-11-22-22-9-11-9-12-8-11-6-11-6-12-5-12-4-11-3-12-2-11-2-12v-12-12l2-11 2-12 3-12 4-11 5-12 6-12 6-11 8-11 9-12 9-11 22-22 12-11 14-11 14-10 15-11 16-10 17-10 18-10 19-10 20-9 21-9 22-9 48-18 26-8 27-8 28-8 30-7 31-6 32-7 34-5 35-6 37-4 38-4 39-3 40-3 40-1h41 41l41 1 40 3 39 3 74 8 35 6 34 5 33 7 31 6 29 7 29 8 52 16 25 9 23 9 44 18 20 9 19 10 18 10 17 10 16 10 15 11 14 10 13 11 24 22 20 22 8 12 8 11 7 11 6 12 4 12 4 11 4 12 2 12 1 11 1 12" style="clip-to-self:true;comp-op:src"/>
<path transform="scale(.1)" d="m2174.1 11747v-3l1-3-1 5v4l-1 6-1 8-1 9-1 10-4 26-2 14-2 15-2 14-2 15-2 14-1 14-2 26-1 12v12 20 9l1 7 1 6 1 4v4l1 3 2 4 3-2 1-5 1-4v-4-13" style="clip-to-self:true;comp-op:src"/>
<path transform="scale(.1)" d="m2176.6 11749v-3-3l3 2 3 5 2 2 3 4 2 4 3 5 8 10 4 7 5 6 10 14 12 16 7 9 8 8 8 9 8 8 9 8 10 8 20 14 11 6 10 6 9 6 10 6 9 6 9 5 8 4 7 5 7 4 11 8 4 3 5 3 3 4 3 3 3 2 4 5 3 5 1 3 2 8v3l1-5 2-14" style="clip-to-self:true;comp-op:src"/>
<path transform="scale(.1)" d="m2458.1 11753 1-4v-3l1-4v-4l1-4v-3-3l1-5v-3-3 4l-2 5v4l-2 4-1 5-1 6-1 7-1 9-2 9-2 22-2 12-4 26-6 40-4 25-2 12-1 10-2 10-1 9v7 7 18 4l-1-7" style="clip-to-self:true;comp-op:src"/>
<path transform="scale(.1)" d="m2197.5 11747-2-4 6 4 4 1 5 2 7 3 3 2 4 1 4 2 3 2 5 2 4 3 5 3 8 8 5 4 5 5 5 6 22 22 5 6 6 6 5 6 5 5 6 5 14 14 6 5 4 4 5 4 20 20 3 4 3 3 3 4 2 3 3 4 2 2 2 3 3 2 3 4 6 6 2 3 3 2h3l6 2 4 3 6 4 4 1h3l4 1" style="clip-to-self:true;comp-op:src"/>
</g>
</g>
<g stroke="#ff0" stroke-width="14.1">
<path transform="scale(.1)" d="m4331.6 11874-1 14v13l-2 13-2 14-6 26-3 14-10 26-6 13-5 13-7 13-8 14-7 12-27 39-10 13-11 12-12 13-12 12-12 13-13 12-14 12-45 36-17 12-16 12-18 11-18 12-18 11-60 33-22 11-22 10-22 11-72 30-26 9-26 10-54 18-29 9-29 8-30 9-31 8-32 7-32 8-68 14-70 12-37 6-37 5-38 4-39 5-39 3-80 6-41 2-123 3-123-3-41-2-80-6-39-3-39-5-38-4-37-5-37-6-70-12-34-7-33-7-33-8-31-7-31-8-30-9-30-8-56-18-27-9-26-10-26-9-72-30-22-11-22-10-22-11-60-33-18-11-18-12-18-11-17-12-16-12-45-36-14-12-13-12-12-13-12-12-12-13-10-12-11-13-27-39-8-12-7-14-6-13-7-13-10-26-4-13-4-14-6-26-2-14-2-26-1-14 2-26 1-14 2-13 6-26 4-14 4-13 10-26 7-13 6-13 7-14 8-12 27-39 11-13 10-12 12-13 12-12 12-13 13-12 14-12 45-36 16-12 17-12 18-11 18-12 18-11 60-33 22-11 22-10 22-11 72-30 26-9 26-10 27-9 56-18 30-8 30-9 31-8 31-7 33-8 33-7 34-7 70-12 37-5 37-6 38-4 39-5 39-3 80-6 41-2 123-3 123 3 41 2 80 6 39 3 39 5 38 4 37 6 37 5 70 12 68 14 32 8 32 7 31 8 30 9 29 8 29 9 54 18 26 10 26 9 72 30 22 11 22 10 22 11 60 33 18 11 18 12 18 11 16 12 17 12 45 36 14 12 13 12 12 13 12 12 12 13 11 12 10 13 27 39 7 12 8 14 7 13 5 13 6 13 10 26 3 14 6 26 2 13 2 14v13l1 13" style="clip-to-self:true;comp-op:src"/>
<path transform="scale(.1)" d="m3483.1 11771-2-4-1-4v-3l4 1 5 3 3 2 4 4 3 4 5 5 4 7 6 6 5 8 13 18 6 9 14 20 8 11 8 10 8 9 7 10 8 9 7 8 6 9 12 14 5 5 4 5 11 11 3 2 4 3 4 2 3-2v-4l-1-3-4-6-5-7" style="clip-to-self:true;comp-op:src"/>
<path transform="scale(.1)" d="m3704.7 11755 1-5 2-8-4 20-2 12-2 8-2 9-2 8-2 10-3 9-2 9-3 10-2 9-4 10-2 10-8 18-6 16-3 7-8 16-2 5-4 8-2 3-1 4-2 5-2 3-3-3" style="clip-to-self:true;comp-op:src"/>
<path transform="scale(.1)" d="m3690.3 11781v-3l1-4v-3l4 1 3 2 4 6 3 3 3 4 4 4 4 6 4 5 4 6 11 13 6 6 6 7 7 7 7 6 21 21 16 14 20 20 12 10 15 12 7 6 4 2 3 1 3 3 6 4-4-1-7-6" style="clip-to-self:true;comp-op:src"/>
<path transform="scale(.1)" d="m3896.2 11742-1-3-2-3-3 3-1 5v4l-1 5v5l-1 7v7l-1 9-1 10-1 9-2 11-1 10-5 23-3 11-2 11-6 22-3 10-2 10-2 9-4 16-2 7v7l-2 8-2-3" style="clip-to-self:true;comp-op:src"/>
<path transform="scale(.1)" d="m3546.2 11760-2-4-4-6-3-3-3-2-1-3 4 2 5 3 3 3 4 3 3 4 5 4 4 5 10 12 11 14 6 8 5 8 13 16 6 8 7 9 6 7 7 8 6 7 7 7 6 7 6 5 6 6 5 6 10 10 7 9 3 5 2 4 2 5 1 4 1 5v3l-1 3-6 7" style="clip-to-self:true;comp-op:src"/>
<path transform="scale(.1)" d="m3719.7 11738-1-3v-3l3-1h4l3 1 4 3 3 3 3 4 8 10 4 6 3 4 3 3 2 3 3 4 4 3 6 7 3 4 7 7 3 4 7 7 10 11 6 7 2 3 3 3 2 3 3 3 12 18 2 6 2 2 4 6 2 2 3 5 15 15 9 6-1 4-3-2" style="clip-to-self:true;comp-op:src"/>
</g>
<g stroke="#ff7f00" stroke-width="14.1">
<path transform="scale(.1)" d="m5177.8 11886v15l-1 15-1 14-2 15-2 14-2 15-3 14-4 15-3 15-4 14-5 14-5 15-12 28-6 15-7 14-8 14-8 15-8 14-18 28-30 42-11 13-36 42-40 40-14 13-15 13-15 14-16 12-16 14-16 12-17 13-18 13-18 12-18 13-19 12-39 25-21 11-42 24-22 11-22 12-23 11-72 33-25 11-26 11-52 20-27 10-56 20-58 18-30 9-62 18-31 8-33 8-32 8-102 21-35 7-108 18-74 10-39 5-38 4-39 3-39 4-39 3-120 6-80 2h-41-40l-40-1-41-1-80-4-39-2-40-3-39-4-38-3-38-4-39-5-74-10-37-6-36-6-35-6-35-7-102-21-32-8-33-8-31-8-62-18-30-9-58-18-56-20-27-10-26-10-27-10-75-33-23-11-24-11-23-11-22-12-22-11-42-24-21-11-39-25-19-12-18-13-18-12-18-13-17-13-16-12-17-14-15-12-15-14-15-13-14-13-40-40-13-14-11-14-12-14-11-13-30-42-18-28-8-14-8-15-8-14-7-14-6-15-12-28-5-15-5-14-4-14-4-15-3-15-3-14-2-15-3-14-1-15-1-14-1-15v-29l2-30 1-14 3-15 2-14 3-15 3-14 4-15 4-14 5-14 5-15 6-14 6-15 6-14 7-14 8-15 16-28 18-28 30-42 11-14 12-13 11-14 13-14 13-13 13-14 28-26 15-14 30-26 17-13 16-13 17-12 36-26 18-12 19-12 39-25 21-12 21-11 21-12 22-12 22-11 23-11 24-12 23-11 25-11 25-10 25-11 27-10 26-10 27-10 56-20 58-19 30-9 31-8 31-9 31-8 33-8 32-8 34-7 34-8 34-7 35-6 35-7 36-5 37-6 74-10 39-5 76-8 39-3 40-3 39-2 80-4 41-1 40-1h40 41l80 2 120 6 78 6 39 4 38 4 39 5 74 10 36 6 36 5 36 7 35 6 34 7 34 8 34 7 32 8 33 8 31 8 31 9 31 8 30 9 58 19 56 20 27 10 52 20 26 11 25 10 48 22 24 12 23 11 22 11 22 12 21 12 21 11 21 12 39 25 19 12 18 12 36 26 17 12 48 39 15 13 15 14 28 26 13 14 13 13 24 28 12 13 11 14 30 42 18 28 16 28 8 15 7 14 6 14 6 15 6 14 5 15 5 14 4 14 3 15 4 14 3 15 2 14 2 15 2 14 2 30v14" style="clip-to-self:true;comp-op:src"/>
<path transform="scale(.1)" d="m4552.8 11704-4-2-4-1-3-1-3 1 3 3 2 3 5 3 3 1 8 2h5l5 1 7 1h6l8 1h8 9 94 9 30l5-1h46l6 1h4l6 1h4l5 1h4 12 3-3l-3 3-3 2-3 3-3 2-28 28-4 5-18 18-6 7-7 7-16 14-7 8-9 7-8 8-10 8-9 7-10 8-9 7-10 8-20 14-8 6-9 7-8 6-14 12-7 5-6 5-5 5-5 4-5 5-5 4-4 3-3 4-7 5-2 3-3 2-12 12-2 3-3 2v3l2 2h4l4-1 3-1h4 5l5-1 7-1h7l8-2h8l10-2 22-4 12-1 24-4 13-1 24-4 13-1 24-4 11-1 24-4 11-1 11-2 20-4 19-2 16-2 14-2 12-2h5l4-1h5 5 4l-3-3-4-5" style="clip-to-self:true;comp-op:src"/>
<path transform="scale(.1)" d="m4864.1 11742 2-4 2-3 1-3-3-1-7 3-4 3-5 3-6 6-4 3-9 9-4 5-5 5-5 7-12 14-13 16-6 8-7 8-6 8-21 24-8 8-8 9-8 8-9 8-8 9-9 8-8 8-18 16-8 7-9 7-8 7-8 6-14 12-13 10-5 4-5 3-4 4-4 3-4 2-3 2-4 3-4 1-3 1 2-2 4-2 2-3 3-5" style="clip-to-self:true;comp-op:src"/>
</g>
<g stroke="#f0f" stroke-width="14.1">
<path transform="scale(.1)" d="m6035.6 11897v15l-2 32-1 15-2 16-2 15-2 16-3 15-6 31-4 16-4 15-4 16-5 15-5 16-11 30-7 16-6 15-14 30-8 16-16 30-18 30-19 30-10 15-21 29-12 15-11 14-12 15-12 14-13 15-26 28-14 15-28 28-30 28-48 42-17 13-16 14-35 27-19 13-18 13-38 26-60 39-21 12-42 25-22 12-23 13-22 11-23 12-24 12-23 12-25 11-24 12-26 11-25 11-26 11-26 10-27 11-27 10-27 11-56 20-29 9-29 10-30 9-29 9-93 27-31 8-32 8-33 8-32 7-33 8-102 21-105 18-36 5-36 6-36 4-36 5-37 4-37 5-75 6-76 6-76 4-39 2-38 1-39 1h-38l-39 1-39-1h-38l-39-1-38-1-39-2-76-4-76-6-37-3-38-3-37-5-37-4-36-5-36-4-36-6-36-5-105-18-68-14-33-7-34-8-32-7-33-8-31-8-32-8-62-18-90-27-29-10-28-9-29-10-28-10-27-11-27-10-27-11-26-10-51-22-25-11-25-12-48-23-24-12-45-23-23-13-21-12-22-12-21-13-21-12-60-39-19-13-37-26-36-27-17-13-17-14-17-13-48-42-15-14-14-14-15-14-14-14-14-15-26-28-13-15-12-14-12-15-11-14-12-15-21-29-10-15-9-15-10-15-18-30-16-30-15-31-7-15-6-15-12-31-6-15-5-16-5-15-4-16-4-15-4-16-3-15-3-16-3-15-2-16-2-15-2-16-1-15-1-16-1-31 1-16v-15l1-16 1-15 2-16 2-15 5-32 6-30 4-16 4-15 4-16 5-15 5-16 6-15 12-31 6-15 7-15 23-46 8-15 18-30 10-15 9-14 10-16 11-14 10-15 12-15 11-15 12-14 12-15 26-28 13-15 28-28 15-14 14-14 15-14 48-42 17-13 34-28 36-26 37-26 19-14 20-12 40-26 21-12 21-13 22-12 21-12 23-13 23-12 22-12 24-11 48-23 25-12 25-11 51-22 26-11 54-20 27-11 28-10 29-9 28-10 59-19 60-18 62-18 32-8 31-8 33-8 32-8 34-7 33-7 68-14 105-18 36-5 36-6 36-5 36-4 74-8 38-4 37-3 38-3 76-5 38-2 39-2 38-1 39-1 38-1h78l38 1 39 1 38 1 39 2 76 4 76 6 37 3 38 4 74 8 36 4 36 5 36 6 36 5 105 18 102 21 33 7 32 8 33 8 32 8 31 8 93 27 29 9 30 9 58 20 28 9 28 10 27 11 54 20 52 22 25 11 26 11 24 12 25 11 23 12 24 11 23 12 45 25 22 12 21 12 21 13 21 12 40 26 20 12 38 27 18 13 19 13 17 13 18 14 16 14 17 13 48 42 30 28 28 28 27 29 26 28 12 15 12 14 11 15 12 15 10 15 11 14 10 16 10 14 27 45 24 45 7 16 7 15 6 15 7 16 11 30 5 16 5 15 4 16 4 15 4 16 6 30 5 32 2 15 2 16 1 15 1 16 1 15v16" style="clip-to-self:true;comp-op:src"/>
<path transform="scale(.1)" d="m5536.6 11654-4-3-3-2-2-2-4-1-3-2h-4l-4-1-3-1h-4l-4 1-10 2-5 3-6 3-6 4-13 13-6 9-7 9-7 10-6 11-7 13-5 13-6 15-6 16-4 16-5 17-3 16-2 17-2 15-1 15v14l1 14 2 13 2 12 3 12 10 22 5 8 7 8 6 6 8 5 8 4 9 4 10 1h10 11l10-1 11-1 22-6 22-8 20-10 10-6 19-12 8-7 8-8 14-16 5-10 6-10 5-10 5-12 4-13 3-14 4-15 6-32 3-17 2-16 1-15 1-14v-13l-2-22-3-9-3-8-4-6-5-7-4-5-6-5-7-5-6-4-7-4-14-6-7-2-24-6h-8-8-8l-8 1-24 6-15 7-6 3-6 4-7 4-5 4-4 4-4 5-6 11" style="clip-to-self:true;comp-op:src"/>
<path transform="scale(.1)" d="m5442.8 11693v-4l-2-6-2 5v3l-1 4v5 38 9l1 11 2 24 1 13v13l2 26 1 12 2 13 1 11 2 12 1 10 2 10 1 9 2 8 2 7 1 7 2 6 1 5 3 12 1 3" style="clip-to-self:true;comp-op:src"/>
<path transform="scale(.1)" d="m5609.1 11646-2 3-4 8-1 3-1 4-2 4-2 10-1 6v7l-1 6-1 7v24l1 9v9l1 9 2 19 2 20 2 9 4 17 2 8 2 7 2 8 2 7 4 12v5l2 4 2 9" style="clip-to-self:true;comp-op:src"/>
<path transform="scale(.1)" d="m5536.6 11854-1-3v-3l1 4v3 3l1 4v6 5 6 7l2 16 2 7 1 9 3 8 2 9 3 8 4 9 4 8 5 8 6 9 7 7 7 8 9 7 10 6 10 4 11 3 11 2 12 1h12l12-1 30-2" style="clip-to-self:true;comp-op:src"/>
</g>
<g stroke="#0f0" stroke-width="14.1">
<path transform="scale(.1)" d="m7783.8 11869v13l-1 15-1 13v14l-2 14-1 14-6 42-3 14-2 14-4 14-3 13-16 56-10 27-6 14-11 28-12 27-7 14-7 13-7 14-8 14-8 13-16 28-17 26-9 14-10 13-9 14-10 13-11 14-10 13-22 26-12 14-11 13-24 26-13 13-12 13-13 13-14 13-13 13-42 39-15 12-30 26-64 50-34 24-17 13-18 12-17 12-18 12-76 48-60 36-20 11-42 24-21 11-22 11-22 12-45 22-46 22-96 44-50 21-26 10-26 11-26 10-27 10-27 11-54 20-28 9-57 20-29 9-30 10-29 9-31 9-30 10-31 9-31 8-31 9-33 9-32 8-32 9-34 8-33 8-68 16-35 8-35 7-35 8-72 14-37 7-37 6-37 7-38 7-38 6-39 6-38 6-40 5-39 6-40 5-41 5-40 5-82 8-42 4-42 5-84 6-43 4-43 2-86 5-87 4-44 2-43 1-44 1h-44l-44 1h-88l-88-1-88-2-88-4-43-2-86-5-43-2-42-4-43-3-42-3-42-5-42-4-82-8-40-5-41-5-79-11-39-5-78-12-38-6-38-7-37-7-37-6-37-7-72-14-35-8-35-7-35-8-68-16-66-16-33-9-32-8-64-18-31-8-31-9-30-10-60-18-29-10-30-9-28-10-56-19-28-10-27-10-27-11-27-10-26-10-26-11-25-10-25-11-25-10-25-11-72-33-46-22-45-22-22-12-21-11-22-11-42-24-20-11-40-24-39-24-38-24-18-12-19-12-17-12-18-12-17-13-17-12-33-25-32-25-16-12-30-26-14-12-29-26-14-13-13-13-14-13-12-13-26-26-24-26-11-13-12-14-22-26-10-13-10-14-20-27-19-27-8-13-17-27-8-14-8-13-8-14-7-14-7-13-13-27-12-28-5-14-6-14-5-13-4-14-5-14-12-42-3-13-9-42-6-42-3-42-1-13-1-15v-27l5-70 6-42 3-14 3-13 3-14 7-28 8-28 9-27 5-14 6-14 5-14 12-27 7-14 6-14 7-13 7-14 8-13 16-28 8-13 9-14 8-13 19-27 20-27 10-13 10-14 11-13 23-26 11-14 24-26 13-13 25-26 27-26 14-13 29-25 14-13 15-13 15-12 16-13 32-25 17-13 16-12 34-24 18-13 17-12 19-12 18-12 38-24 39-24 20-11 40-24 42-23 22-12 21-11 22-11 23-12 22-11 46-22 72-33 25-10 25-11 50-21 26-10 26-11 81-30 84-30 28-9 30-10 29-9 30-10 60-18 62-18 32-9 32-8 32-9 33-8 33-9 33-8 68-16 35-7 35-8 35-7 36-8 36-7 37-6 74-14 76-12 39-7 39-5 39-6 40-6 39-4 41-6 40-4 41-5 41-4 126-12 43-3 42-3 43-3 86-5 43-2 44-2 44-1 44-2 44-1h44l88-1h44l44 1h44l44 1 43 2 44 1 87 4 86 5 86 6 42 3 126 12 41 4 41 5 40 4 41 6 40 4 79 12 38 5 39 7 76 12 74 14 37 6 36 7 36 8 35 7 35 8 35 7 68 16 33 8 34 9 32 8 32 9 33 8 93 27 61 18 29 10 30 9 29 10 57 19 28 10 108 40 26 11 26 10 26 11 50 21 24 10 72 33 46 22 22 11 23 12 44 22 42 23 41 24 20 12 20 11 20 12 76 48 18 12 17 12 18 13 51 36 32 26 16 12 16 13 15 12 30 26 14 12 28 26 27 26 13 13 12 13 13 13 24 26 11 14 23 26 11 13 10 14 11 13 10 13 9 14 10 13 9 14 17 27 8 13 16 28 8 13 7 14 14 27 6 14 6 13 11 28 6 14 5 14 5 13 16 56 3 14 4 14 2 13 3 14 6 42 1 14 2 14v14l2 28v14" style="clip-to-self:true;comp-op:src"/>
<path transform="scale(.1)" d="m6888.1 11695v-35-4-3l-1-5-1-4-1-3 1 4v4l1 5 1 6v8l1 8 1 9v10 13l1 13v14l-1 16v17 18l-2 36-1 17v16l-1 15-1 12-1 13v10l-1 9-1 8-1 7-1 6-1 5-2 8-1 3-2 4-2 3-2-4v-6l1-3v-5l3-14" style="clip-to-self:true;comp-op:src"/>
<path transform="scale(.1)" d="m6925.9 11699-1-4-2-3-2-4 2 3 2 4 2 7v4l1 6 1 7v8 9l1 11v11l-1 13v13 16l-1 15v16l-1 16-1 15v15 37 9l1 9 1 8v7 7l1 5v6l1 4v3l1 3 2 3 2-2 1-3 1-4 1-13" style="clip-to-self:true;comp-op:src"/>
<path transform="scale(.1)" d="m6828.8 11757-4-1-8-6-3-3-2-4v-4l3-6 2-3 4-4 3-4 6-4 6-5 7-4 18-9 10-4 11-4 12-4 12-5 14-4 13-3 14-4 15-3 14-2 26-4h12 11l10 2 8 2 7 2 7 4 5 5 4 5 2 6 2 7v8l-2 10-3 10-4 11-6 12-7 12-16 24-9 12-9 11-10 11-9 9-10 9-9 8-10 6-9 6-8 5-9 4-8 3-8 2-7 2-7 1h-6-4-5l-3-1-4-2-1-3 2-4 4-4 6-4 3-1 4-2 4-1 4-2h4l4-1h4l3 1h4l3 2 3 1 3 2 3 3 9 8 3 4 6 6 5 4 3 4 5 4 4 3 5 5 5 4 12 10 6 4 6 6 21 15 7 6 16 10 7 5 8 5 7 5 12 8 5 3 8 7" style="clip-to-self:true;comp-op:src"/>
</g>
<g stroke="#f00" stroke-width="14.1">
<path transform="scale(.1)" d="m430.31 5424.4 1-2 4 1 4 2 3 2 5 1 4 3 6 2 6 3 14 6 17 9 18 9 10 6 20 10 18 12 18 10 8 5 7 5 7 4 6 4 12 6 4 3 3 2 3 1 3 2-20-20" style="clip-to-self:true;comp-op:src"/>
<path transform="scale(.1)" d="m594.06 5380h-4-5l-5 2-3 2-3 3-4 3-3 4-4 5-10 12-5 8-6 8-6 9-6 10-7 11-6 11-6 12-6 13-7 13-6 13-5 13-5 12-5 11-4 10-6 16-2 6-2 4-1 4v4l3-4 1-4 5-13" style="clip-to-self:true;comp-op:src"/>
<path transform="scale(.1)" d="m517.19 5345.9-6-2-3 1-3 3-2 6v4l-1 4v5 6 15 8l1 9v10l1 11v12l1 13v13l1 14 1 15v15l2 30 1 14 1 13 2 12 2 10 2 9 2 7 5 10 2 3 4 2 5-7" style="clip-to-self:true;comp-op:src"/>
<path transform="scale(.1)" d="m904.06 5336.2-1-4-3 3-1 3-1 4-1 5-2 6-2 8-1 8-4 20-1 12-1 11-2 26-2 28v13 15 41 13 11l1 10v8 6l1 5v3l1 4-2-4v-3l-1-4v-5-7l-1-7-1-8-1-9-1-11v-10-12-12l-1-11v-26l1-14 1-13 2-14 4-26 3-10 4-10 3-8 3-6 4-4 2-3h4 4l4 2 12 12 4 7 4 8 5 8 5 9 10 20 12 20 12 22 7 10 6 10 15 21 7 10 16 18 16 14 7 6 6 5 6 3 5 2 4 2 4 1h3l5-2 2-4 1-4v-10l-1-5-1-7v-7l-2-7-1-8-1-9-2-20v-10l-1-12v-12l1-13v-14l1-14 4-30 3-17 2-15 4-16 3-15 4-15 4-14 4-12 4-10 3-7 4-4 4-2 3 3 3 9 1 7v9l1 9-1 10-4 28" style="clip-to-self:true;comp-op:src"/>
<path transform="scale(.1)" d="m1171.2 5476.9 1-4v-4l-4 2-1 3-4 8-4 12-1 6-3 21v7l1 8 1 7 2 7 2 6 3 6 3 4 4 3 4 2 5 1h5l5-1 6-3 5-4 6-5 5-5 5-6 4-7 4-8 3-7 1-8 1-9v-9l-2-18-3-7-3-8-4-6-10-10-6-3-14-2h-8l-8 2-14 6-7 5-6 4-3 5-3 6-1 4v5l2 4 3 3 14 4" style="clip-to-self:true;comp-op:src"/>
<path transform="scale(.1)" d="m1315.9 5326.6-1-5-1-4-2-6v-3l-1-3-1-4-1 4v3l-1 3v6l-1 5-1 8v8l-1 9v10l-1 12v12l-2 28v15l-1 15-2 17-1 15-1 17v18 17 17l1 15 2 13 2 11 3 8 4 4 4 5 5 1h5l6-1 7-4 6-4 7-7 7-8 7-9 7-10 16-27" style="clip-to-self:true;comp-op:src"/>
<path transform="scale(.1)" d="m1265.9 5456.9-2-3 5-3 3-3 5-3 6-3 6-4 8-4 9-3 9-4 11-5 11-3 11-4 11-3 12-4 11-4 27-9" style="clip-to-self:true;comp-op:src"/>
<path transform="scale(.1)" d="m1758.4 5285.3-3-3-5-2-4 2-2 2-1 5-2 5-2 7-1 7-3 9-2 10-2 11-4 24-2 14-1 13-2 15-1 14v15l-1 15v14l1 16 1 14 1 15 3 14 2 14 3 12 3 11 4 8 4 5 5 4 5 1h7l7-3 7-4 8-6 7-6 7-9 13-22" style="clip-to-self:true;comp-op:src"/>
<path transform="scale(.1)" d="m1671.6 5458.8v-3l1-4 6-4 4-3 6-3 8-3 8-4 9-4 10-5 11-5 13-5 11-5 13-5 13-4 36-12 11-3 10-2 16-2h6l6 2 4 2 3 2 2 3 1 4-1 5-1 6-3 14-3 8-2 8-6 18-2 9-1 8v9 7l1 8 1 6 2 6 3 5 4 5 5 4 10 5 6 1h8 7l8-1 8-3 9-2 8-4 8-3 7-4 6-4 6-5 5-5 4-6 3-6 2-6 2-7v-7-8-8l-2-9-1-8-6-16-4-7-10-10-12-6-6-1h-6-6l-6 1-12 4-5 3-6 3-11 10" style="clip-to-self:true;comp-op:src"/>
<path transform="scale(.1)" d="m2404.1 5403.8 2-6 2-3 1-5 1-4-1-4-2-2h-5l-3 1-4 1-10 5-7 4-8 4-8 5-8 6-10 5-10 7-9 6-18 14-8 7-14 14-4 7-4 6-2 5v5l1 6 3 4 4 5 5 4 6 4 8 4 8 3 9 4 10 3 9 3 10 3 9 3 16 8 6 4 5 4 3 4 3 5 1 5-1 4-1 5-3 4-8 8-6 3-6 4-7 3-8 2-9 2-8 3-45 5h-17l-12-2-5-1-3-1-2-3-1-3v-4l2-5 9-11" style="clip-to-self:true;comp-op:src"/>
<path transform="scale(.1)" d="m2549.4 5427.8-4-4-4-2-5-2h-7-7l-16 2-18 6-10 5-9 5-9 6-9 7-9 8-8 8-7 9-7 10-5 10-5 11-3 11-2 10v11l1 11 3 9 4 9 6 7 7 6 9 5 10 2 12 1h13l15-2 16-5 15-5 16-7 15-8 33-22" style="clip-to-self:true;comp-op:src"/>
<path transform="scale(.1)" d="m2687.2 5418.4 1-3-1-8-3-5-5-3-6-1-4 1-4 2-6 2-5 4-6 5-7 6-6 6-7 8-6 8-7 9-6 10-5 9-5 10-3 11-3 10-2 11-2 9v10 8l1 8 2 6 2 5 3 3 3 2 4 1 4-1 5-2 5-3 10-8 5-6 6-6 5-8 5-6 5-8 4-7 4-8 4-7 3-7 3-5 2-5 2-4 2-6 1 3v3 4l-1 5v20l1 7 2 7 1 8 2 7 3 7 4 6 3 5 5 4 5 3 6 1h6l6-1 6-2 7-3 6-4 12-12 6-7 6-8 5-8 6-9 8-20 3-11 2-11 3-31" style="clip-to-self:true;comp-op:src"/>
<path transform="scale(.1)" d="m2796.6 5284.4-2-4v-3l-2-5-2-4-1 6-1 3v5l-1 5v7 8l-1 9-1 11v12l-1 13-1 15v16l-1 17-1 18-1 19v19l-1 19v19l1 18v16l2 15 3 13 2 11 5 9 5 8 5 4 7 4 7 1 8-1 10-3 9-5 20-14 9-9 23-25" style="clip-to-self:true;comp-op:src"/>
<path transform="scale(.1)" d="m2905.6 5525.6 2-2 5-4 4-1 3-3 8-6 4-4 10-8 4-5 4-4 8-10 2-5 6-10 2-5 1-6 1-5 1-6v-4l-1-6-1-4-4-8-2-3-3-2-3-1-5-1-4 1-5 1-5 3-6 4-5 4-5 5-6 7-5 7-4 8-5 8-4 9-6 20-4 20-1 9v9l1 9 2 7 4 7 4 6 7 5 7 4 9 3 10 2h12 14l15-2 32-6 18-5 16-4 16-6 15-5 14-6 29-13" style="clip-to-self:true;comp-op:src"/>
<path transform="scale(.1)" d="m3288.8 5362.8-4-3-4-4-5-4-5-3-3-2-2-3 10 10 3 4 11 11 5 6 14 12 8 7 9 7 8 7 9 6 9 7 27 18 8 6 16 10 8 4 6 5 7 4 6 3 5 4 10 6 6 4 5 3 2 3-3 1-6-1h-3l-12-3-12-6-13-13" style="clip-to-self:true;comp-op:src"/>
<path transform="scale(.1)" d="m3411.9 5357.5v-5-3l-2-3-4-1-2 2-3 5-3 2-2 4-3 4-4 5-4 6-5 6-10 16-7 10-6 9-7 11-8 10-7 11-7 10-16 20-7 9-6 9-7 8-5 8-5 7-8 10-3 4-4 4-1-3 1-10" style="clip-to-self:true;comp-op:src"/>
<path transform="scale(.1)" d="m3346.2 5328.4 1-3 1-4-1-3-1 5v4l-1 3v5l-1 6v13l1 9v8l2 9 1 9 2 10 3 21 3 11 2 11 3 10 3 12 3 11 5 20 3 10 2 9 2 18-1 22" style="clip-to-self:true;comp-op:src"/>
</g>
</g>
</g>
</svg>
