<?xml version="1.0" encoding="UTF-8"?>
<svg width="1e3pt" height="800pt" version="1.2" viewBox="0 0 1e3 800" xmlns="http://www.w3.org/2000/svg">
<g id="surface140">
<rect width="1e3" height="800" fill="#20282d"/>
<g fill="none" stroke-linecap="round" stroke-linejoin="round" stroke-miterlimit="10">
<g stroke="#fff">
<g stroke-width="14.1">
<path transform="scale(.1)" d="m3394.1 428.44-2-2-3-1-1 4-2 3-1 4-1 6-2 6-1 9-2 9-4 22-2 13-1 13-1 15-2 16-1 16-2 17-1 15-1 17-1 15-1 14v14 25 10l2 16 1 7 1 4 2 4 3 4 4-2 1-3 2-5 2-6 1-7 2-18" style="clip-to-self:true;comp-op:src"/>
<path transform="scale(.1)" d="m3439.7 634.06 2-8 1-5 2-5 2-4 3-5 2-5 3-3 3-4 2-3 6-4 3-1 5 1 4 3 3 2 2 3 2 5 1 4 2 6 1 6 1 7 2 16v8 8l-1 8v8l-1 8-1 7v6l-1 6-1 5v4l-1 3v4l-1-5 1-3v-4l1-4 2-5 4-12 3-6 3-8 3-7 12-24 5-8 5-7 4-7 4-6 4-5 3-3 4-3 5-1 4 3 1 3 1 4v5l1 5v24l-1 8v10l-1 9v10 45 4l1 4 1 3 4-2 1-4 2-4 1-4 4-12 2-7 6-24 3-9 2-9 6-18 8-18 5-8 5-7 4-6 5-3 4-3 4-1h3l6 6 2 4 2 6 2 7 1 7 2 17 1 10 1 9v9l1 10 2 18 1 8 2 9 1 7 2 7 4 10 2 3 5 1 3-1 2-2 7-9" style="clip-to-self:true;comp-op:src"/>
<path transform="scale(.1)" d="m3779.4 589.69-4-2h-7l-3 2-5 2-5 3-5 4-5 3-5 6-6 5-5 6-15 21-8 16-3 9-3 8-4 16v8l-1 8 1 7 1 6 2 5 3 5 3 3 8 4h5 5l6-2 5-2 7-4 6-4 6-6 13-12 5-7 6-8 10-16 4-9 3-9 4-8 4-9 2-8 3-7 2-6 1-5 1-3-3 3-2 4-1 5-2 12-1 7v7 14 7l2 14 2 6 3 7 3 5 4 4 4 5 5 3 5 2 6 2h5 7l12-4 15-9" style="clip-to-self:true;comp-op:src"/>
<path transform="scale(.1)" d="m4005 596.25-3-4-3-3-2-3-4-2-3-2-8-1-4-1h-5-4l-5 1-4 2-5 2-4 3-4 4-5 3-8 10-9 18-5 14-2 14v7 5l1 6 2 4 1 5 2 3 6 6 3 1 5 1h3 4l9-3 4-3 10-6 5-5 5-4 10-10 4-5 5-6 3-6 4-6 3-7 3-6 3-5 3-6 2-6 1-5 2-4 1-3v5l-1 5-1 7v7l-2 19-1 11-2 24-2 14-1 15-1 16-2 17-2 38-1 20-1 19-1 17-2 16-1 15-1 12-2 10-2 18-3 7-1 7-2 5-2 4-6 6-3 1-3 2h-4-3l-12-6-5-4-4-4-5-4-4-5-10-11-4-7-3-7-4-8-3-8-2-9-1-9v-11l2-11 2-12 4-12 4-13 14-26 8-13 9-12 10-12 11-11 29-23" style="clip-to-self:true;comp-op:src"/>
<path transform="scale(.1)" d="m4044.4 691.25 3-2 2-3 4-4 13-12 10-12 4-6 6-6 10-14 12-21 4-6 4-12v-4-3l-1-3-3-4-6-2-3 1h-4l-4 1-5 3-5 2-10 8-10 10-5 6-3 7-5 7-4 16-2 7-1 9 1 7 1 8 2 8 2 6 3 7 4 7 4 6 10 10 6 5 5 4 14 4 7 1h7l14-4 5-2 14-8" style="clip-to-self:true;comp-op:src"/>
<path transform="scale(.1)" d="m4262.5 688.75 2-4 4-3 4-1h3l5 3 2 2 4 6 2 4 1 4 1 5v14l-1 7-1 8-2 8-2 9-3 9-3 8-4 9-4 8-5 8-5 7-5 6-7 5-6 4-8 4-8 2-22 3" style="clip-to-self:true;comp-op:src"/>
<path transform="scale(.1)" d="m4649.4 447.19-2 3-1 4v4l-1 5v7l-1 8-1 9-1 21-1 13-2 12-1 14-2 14-2 15-1 16-2 16-1 16-2 15-2 14-4 24-2 10-1 8-1 7v6l-1 5-1 3-2 4-4-4-2-8-3-16" style="clip-to-self:true;comp-op:src"/>
<path transform="scale(.1)" d="m4624.4 485.94 3-5 2-3 3-4 10-10 4-3 5-3 6-3 5-3 6-2 7-2 7-1 16-2 9 1 8 2 9 3 8 4 7 6 7 7 6 8 5 10 4 10 3 12 2 14 1 14v14l-1 16-2 16-3 17-4 17-15 48-6 14-7 12-6 11-6 10-7 7-7 6-6 5-6 4-8 3-6 2h-8-7l-15-3-7-3-14-8-6-6-11-13" style="clip-to-self:true;comp-op:src"/>
<path transform="scale(.1)" d="m4819.7 653.12-5 5-3 4-2 4-7 10-3 5-3 6-6 18-1 6v5 6l2 4 2 5 2 3 3 4 8 2 5 1 5-1 6-1 6-2 7-4 6-3 12-10 6-6 8-12 3-7 1-7 1-8v-9l-1-9-2-9-2-10-6-18-4-8-4-7-5-5-5-3-6-2-6-1-7 1-7 2-7 3-7 5-12 12-5 6-4 6-2 5-2 6v4l5 11" style="clip-to-self:true;comp-op:src"/>
<path transform="scale(.1)" d="m4940 615.31-2 8v3l-1 3v4 5l-3 18-1 7-1 8-2 7-1 7-1 8-1 7-1 8-2 14v5l-1 5v4 3l-2-3v-8-6l2-12 2-16 2-8 3-10 3-11 10-22 6-11 7-11 7-10 8-9 7-8 8-5 7-5 7-2 6-1h5l5 2 3 4 4 5 2 6 2 8 1 8v10 10 10l-3 30-1 9-2 8-2 14-1 4v4 4l3-2 1-3 3-4 2-5 3-6 4-6 3-8 4-7 5-8 5-9 4-8 6-9 5-8 5-7 6-7 4-5 5-4 4-3 4-2 3-1 4 1 2 3 1 3 1 5 1 6v14l-1 8v8l-1 8v10 8 8l2 16 1 7 2 7 2 5 3 5 8 4 11-2" style="clip-to-self:true;comp-op:src"/>
<path transform="scale(.1)" d="m5209.1 600.62-1-4-3-4-6 1-3 2-4 3-7 9-4 5-4 6-5 8-3 8-4 8-4 9-4 8-6 18-2 8-1 7-1 8v7 6l1 6 4 8 3 3 3 2h4 4l5-2 4-2 5-3 6-4 5-5 6-5 6-6 5-7 6-7 6-6 5-8 5-7 5-6 4-6 3-6 3-5 3-3 2-3 2-4v4 4l-2 5-1 5-3 18v7 7l2 12 4 12 6 8 4 3 10 2 5-1 6-1 6-2 6-3 7-5 6-5 12-12 6-7 5-8 6-8 12-27 6-16 2-7 2-5 1-4v-4l-4 3-2 4-1 4-2 6-1 5-2 7-1 7-2 7v8l-1 7 1 7v7l2 7 5 12 3 5 4 5 4 4 4 3 10 2h5l5-1 4-2 5-4 4-4 11-12" style="clip-to-self:true;comp-op:src"/>
<path transform="scale(.1)" d="m5393.8 537.81-4 2-2 3-1 3-3 3-2 4-3 4-3 9-2 3-2 5v3 4 3l1 4 4 4h5l7-1 4-3 4-2 4-4 4-3 4-4 3-4 5-10 1-4 1-6v-5-6-6l-2-11-2-5-2-4-1-3-3-3h-3l-6 1-8 6-4 5-4 6-5 6-3 7-8 14-3 7-3 18" style="clip-to-self:true;comp-op:src"/>
<path transform="scale(.1)" d="m5430.3 670.62 1-3 3-6 3-3 3-4 4-4 4-5 3-4 5-6 9-9 4-5 4-4 4-3 3-3 4-2 3-1 5-1 4 4 2 6v4 10 6l-2 14-4 14-1 6-1 7-2 12-1 5v7l1 3 3-2 2-2 3-4 2-5 4-5 3-7 4-6 4-7 4-9 10-17 5-9 6-9 5-8 6-8 5-8 6-6 4-5 4-3 3-2h4l1 7v5l-1 6-1 8v8l-1 9v9 29 10l4 18 2 8 3 7 4 6 5 5 5 3 6 2h6l6-1 18-6" style="clip-to-self:true;comp-op:src"/>
<path transform="scale(.1)" d="m5747.5 715.94 2 2 2 5v3l1 3v9l-2 11-2 7-2 6-9 21-4 7-3 7-5 6-4 6-4 5-9 9-5 3-12 4-5 2-16 2" style="clip-to-self:true;comp-op:src"/>
<path transform="scale(.1)" d="m6052.2 518.75-1-3-2-3-3 2-1 3-1 4-1 6-1 7-2 7-4 20-3 12-2 11-9 39-4 26-3 12-2 11-1 11-2 11-1 9-1 8-1 6v6 4l1 4 3-4 1-5 2-12" style="clip-to-self:true;comp-op:src"/>
<path transform="scale(.1)" d="m6011.6 571.88-1-5-1-4v-8l1-4 1-5 1-6 2-6 3-6 4-7 8-16 12-16 6-7 7-7 8-7 8-5 9-5 9-4 9-2 10-2h9l9 2 8 2 8 4 7 5 6 6 5 8 3 8 3 9 1 10v10l-1 10-2 10-4 10-4 11-5 10-6 10-6 9-7 9-7 8-16 14-8 5-9 5-16 6-18 4-8 1-8 2h-8-13-6l-4-1-6-2 3-2h6 4l5 1 6 1 5 1 7 2 7 3 6 3 7 3 7 4 14 10 7 4 7 6 6 5 7 4 6 6 18 12 6 3 5 3 6 2 10 4 5 1h4l5 1h13" style="clip-to-self:true;comp-op:src"/>
<path transform="scale(.1)" d="m6298.1 636.25-2-3-4-5-4-2-3-1h-4-4l-5 2-5 1-5 2-12 6-7 4-6 4-7 5-12 10-6 6-4 6-5 6-3 5-3 6-2 6-2 5v9l2 5 2 3 2 2 3 2 4 1h5 5l5-2 5-1 5-2 6-3 5-2 10-6 4-4 5-4 11-11 2-4 3-3 4-6 3-4 2-3 3 1 2 4 3 9v5l1 5v5 6 5 6l-1 6v5 5 3l-2 8-1-6 1-2 1-4 1-5 2-4 4-10 3-6 4-5 4-6 5-5 10-12 12-10 6-4 10-6 5-1 4-1h5l6 2 6 9 2 8 1 5v4l1 5v4 5 5l-1 4v4l-1 3-1 5-3-3 1-3v-3l2-4 1-4 2-4 2-5 4-4 3-5 9-12 5-5 5-6 12-12 7-5 6-5 7-4 6-3 6-2 5-1h5l4 1 4 2 3 2 4 8 1 4 1 6v12l-2 13-2 7-1 8-1 7-2 7-1 7-1 6v6l-1 5 1 5v3l2 3 8-2" style="clip-to-self:true;comp-op:src"/>
<path transform="scale(.1)" d="m6597.2 639.06v-3-6l-3-5-5-3h-5l-6 2-5 2-4 3-6 4-5 5-6 5-6 6-6 7-10 14-7 14-3 7-2 7v7 6 5l1 5 6 6 3 1 4 1h6l5-1 6-1 6-3 6-2 18-12 10-10 5-4 4-5 3-4 2-4 4-6v3l-1 4-2 5-1 5-4 14-1 9-2 9-2 10-1 10-1 11-2 11-3 39-2 14-4 26-3 11-2 10-4 10-3 9-4 8-4 7-5 7-4 5-5 4-4 3-5 1-3 1-5-1-4-1-4-2-4-3-4-4-4-5-3-5-3-7-6-16-2-9-2-20 1-12 1-11 3-12 3-13 5-12 5-13 7-12 8-12 22-27" style="clip-to-self:true;comp-op:src"/>
<path transform="scale(.1)" d="m6647.8 703.75 4 2 3 1h3l5-2 3-1 4-2 8-6 5-4 5-3 5-4 6-5 5-5 4-5 5-5 5-6 3-6 4-6 3-6 2-6 1-6 1-5-1-4-1-3-2-4-3-2-3-1-4-1-6 1-5 1-6 2-7 4-6 3-7 4-7 5-12 12-4 7-10 14-6 16-2 8-1 7v8l2 7 2 6 3 6 4 5 5 6 6 4 7 3 8 3 8 2 9 1h9l9-1 8-1 8-2 19-9" style="clip-to-self:true;comp-op:src"/>
</g>
<path d="m340.09 85.312h340.06" stroke-width="1.41" style="clip-to-self:true;comp-op:src"/>
<g stroke-width="14.1">
<path transform="scale(.1)" d="m1556.9 1625 2-5 2-6v-3l1-4-1-3-4 3-2 4-2 5-2 6-3 8-4 9-4 11-4 12-5 14-5 15-5 17-5 18-6 18-6 20-5 19-7 19-5 19-6 17-6 15-5 14-5 12-4 10-3 8-3 7-3 4-1 4-2 3 2-4 1-4 3-5 3-6 3-8 4-9 3-9 4-11 5-12 5-14 5-15 5-17 6-18 5-21 7-21 21-66 8-20 8-19 8-17 8-14 8-12 7-9 10-10 5-2 3-1 6 2 1 3 2 3 2 4 4 12 1 7 2 8 2 9 1 10 2 12 2 13 1 15 1 17 2 18v19l1 19 2 40v18l1 16 1 14 1 13 1 11v10l2 8 2 7 2 5 2 8 2 3 2-9" style="clip-to-self:true;comp-op:src"/>
<path transform="scale(.1)" d="m1499.7 1812.8v-5l1-3 2-8 3-5 8-6 5-4 7-3 17-7 9-4 10-3 33-9 20-6 27-9" style="clip-to-self:true;comp-op:src"/>
<path transform="scale(.1)" d="m1767.2 1733.8 3-3 14-7 12-2 7-1 8-1 7-1 8-1 7-1 17-3" style="clip-to-self:true;comp-op:src"/>
<path transform="scale(.1)" d="m1791.6 1799.1-3 3 2 3h5l8-2 12-2 7-1 8-1 7-1 9-1 8-2 7-2 8-2 19-7" style="clip-to-self:true;comp-op:src"/>
<path transform="scale(.1)" d="m2286.9 1503.1-4-3-3-2-3-1h-4l-4-1-8 2-5 1-6 2-5 2-12 6-7 4-6 5-8 6-7 6-8 7-15 15-18 24-3 7-2 8-1 6 1 5 2 6 2 4 5 4 4 3 7 3 6 3 7 1 8 2 32 4 7 1 8 2 7 1 6 2 10 4 6 6 2 5v5 4l-2 6-3 7-3 6-4 7-10 14-18 21-14 14-6 5-6 6-4 6-5 5-3 4-4 8v3l2 4 5 4 12 3 5 1 4 1 5 1 5 2 4 1 5 2 4 3 6 6 2 5 2 4v5 4l-1 6-2 5-3 7-3 6-4 7-5 7-5 8-12 14-7 8-16 16-7 8-8 7-7 7-8 7-7 7-5 7-5 6-4 6-3 5-2 5v5l1 4 2 4 4 4 4 3 7 3 7 2 9 2 9 1 11 1h11l11-1 13-1 12-1 13-1 13-2 12-1 24-4 10-2 9-1 8-1 7-1h6l4-1h4l4 1-6 1" style="clip-to-self:true;comp-op:src"/>
<path transform="scale(.1)" d="m2557.5 1659.7v-3l1-4 2-6v-3l-1-6-1-4-1-3-2-3-4-1-4 1-3 5-3 4-3 5-2 6-7 14-8 20-2 10-3 12-2 12-2 26 1 14v12l2 13 6 20 3 8 5 7 5 5 6 4 6 2h6l7-1 7-2 7-3 8-4 7-7 8-7 7-9 7-10 7-11 6-11 5-13 4-12 4-13 2-12 2-14v-12-12l-1-12-2-12-6-22-8-16-5-5-5-4-6-2-7-1-7 1-7 2-7 4-8 5-13 13-6 7-10 18-4 9-3 10-2 9-2 10v24" style="clip-to-self:true;comp-op:src"/>
<path transform="scale(.1)" d="m2702.2 1809.1-3 1-3 4-2 3-2 4-2 5-6 10-6 12-4 6-4 7-6 14-3 6-2 7-2 5-3 5-2 5-5 10" style="clip-to-self:true;comp-op:src"/>
<path transform="scale(.1)" d="m2929.1 1575.3v-12l-2 2v4l-1 5-1 6-2 16-1 10v10l-1 11-2 24v27l1 14 3 47v15l1 15 1 14 1 29" style="clip-to-self:true;comp-op:src"/>
<path transform="scale(.1)" d="m3059.7 1780.6-1-4-3 2-2 5-1 4-2 5-2 6-6 12-4 7-6 14-4 7-2 8-6 14-3 6-4 10-2 3-3 5" style="clip-to-self:true;comp-op:src"/>
<path transform="scale(.1)" d="m3215.3 1627.5 3-6 1-3 3-2 4-2 4-3 5-1 6-2 13-2 6-2h6 6l10 1 5 1 4 3 2 3 3 4 1 5v6l-1 7-4 16-10 18-6 9-7 9-7 10-7 9-9 8-16 16-14 12-13 13-2 3-1 4 5 3h4 7 7l18-2 10-2 22-4 10-1 11-2 20-4 9-1 7-2 8-1 13-2" style="clip-to-self:true;comp-op:src"/>
<path transform="scale(.1)" d="m3427.8 1737.5v3l-4 6-2 4-2 5-3 5-3 6-8 12-8 14-5 7-4 8-4 7-4 8-3 8-3 7-3 8-3 6-1 5-3 4-2 2-1 5" style="clip-to-self:true;comp-op:src"/>
<path transform="scale(.1)" d="m3565 1592.2h-4-4l1-3 5-3 3-1 4-2 5-1 12-4 7-1 14-4 14-2 6-2h7l5-1h5l5 1 3 1 4 2 2 2 2 3 1 4v3l-1 5-2 5-9 18-5 5-4 6-11 11-10 8-4 4-5 3-3 2-5 2-2 3-4 2 3 3 6 1h4 6l5 1h6l24 4 4 2 5 1 4 2 4 3 6 6 1 3 1 4v4l-2 8-3 4-6 10-4 4-6 5-5 5-6 4-7 5-7 4-16 8-8 3-9 4-9 2-9 3-8 2-14 4-6 2-6 1-4 1-5 1-2-3 1-6 7-8" style="clip-to-self:true;comp-op:src"/>
<path transform="scale(.1)" d="m3745 1521.9v-3l1-5 2-4 9-6 15-6 12-5 14-4 7-1 7-2h7l7-1h6 7l5 1 5 2 5 3 3 3 2 4 1 6v6l-1 6-3 7-8 16-6 8-6 9-6 8-8 9-21 24-7 7-12 14-5 5-4 6-3 5-2 4v4 4l1 3 4 6 4 3 15 6 6 2 7 2 6 2 7 2 6 3 5 2 8 6 3 4 2 4v4 5l-1 6-2 6-3 6-3 7-4 7-4 6-4 7-5 6-5 7-8 12-6 12-3 5-2 4v4 4 3l5 5 3 2 4 2 4 1 6 2 5 2 12 2 5 2 6 2 10 6 7 7 2 5 2 4v6 5l-2 12-6 12-4 7-5 5-4 5-12 10-12 8-8 3-6 4-7 2-8 3-7 2-8 2-7 2-8 1-14 2h-8l-8-1-9-1-21-3" style="clip-to-self:true;comp-op:src"/>
<path transform="scale(.1)" d="m5221.6 1570.9-2-3-3-4-4-8v6 8l-1 6v16 9 9 11l-1 11v11l-3 36-4 52-1 12v11 11l1 9 1 8 1 7 2 5 3 4 3-3 6-9" style="clip-to-self:true;comp-op:src"/>
<path transform="scale(.1)" d="m5228.8 1597.8v-4l3-5 5-6 10-5 5-2 14-6 8-2 9-3 18-4 9-1 10-2h9l16 2 7 2 6 3 4 3 4 5 2 10-2 7-3 7-4 8-6 8-7 9-8 10-8 9-10 8-10 9-20 14-9 7-10 7-9 5-8 5-7 5-7 4-6 3-4 4-3 2-2 4 5 2h5 13l9-1h9l10-1h11 11 12 12l12 2 12 1 12 2 10 4 9 3 8 5 7 5 4 7 3 6 1 7v8l-2 7-3 8-4 7-6 7-7 5-7 7-7 5-27 12-9 3-10 3-9 3-10 2-9 1-9 2-9 1h-7-7-7l-5-1-4-2-4-1-2-3-1-3v-5l2-5 2-6 11-16" style="clip-to-self:true;comp-op:src"/>
<path transform="scale(.1)" d="m5468.8 1689.1 3-2 4-2 5-2 6-3 6-2 8-1 8-3 9-2 10-2 10-1 10-2 10-1 9-1 8-1h14l6 1 6 2 2 4" style="clip-to-self:true;comp-op:src"/>
<path transform="scale(.1)" d="m5498.1 1735.3-5 3-4 3 5 1 8-2 7-2 7-1 8-3 9-2 10-2 11-2 11-1 11-3 11-2 20-6 8-2 20-6" style="clip-to-self:true;comp-op:src"/>
<path transform="scale(.1)" d="m5935.3 1478.1 3-5 2-5 1-4-3-2h-4-3l-3 2-4 2-8 6-5 4-5 3-20 20-4 5-3 6-4 6-2 5-1 6-1 5v6 4l2 6 2 5 6 10 4 5 9 10 9 8 17 17 3 5 2 5 2 12-1 6-2 6-3 7-3 6-5 7-4 7-11 13-10 11-6 4-4 5-5 4-7 7-2 3-2 2-1 5 2 4 6 3 3 2 5 1 11 2 5 2 11 5 5 2 5 3 8 8 3 4 2 4 2 6v5 5l-2 6-2 7-3 6-3 7-4 7-4 6-5 6-4 6-31 31-4 3-3 4-2 3-3 4-1 2-2 6 1 5 4 4 2 1h4l5 1 6-1h6l16-2 9-1 10-1 11-1 10-1 11-2 11-1 10-2 10-1 10-2 16-2h6l5-1h5 4l-6-1" style="clip-to-self:true;comp-op:src"/>
<path transform="scale(.1)" d="m6157.5 1579.4v-4l-1-3v-5-4l-1-4v-3l-1-4 2 4 1 3v6 6 7l1 10v37l-1 15v16l-1 16-3 51-1 18-1 16-1 15-1 13-1 12v11 9l-1 6v11 4l-1-3v-4l-1-5v-6l-1-7v-8l-1-9-1-10v-11l-2-22v-12l-2-26v-14-15-15l2-17 2-16 3-16 3-15 4-14 5-11 5-12 6-9 5-8 7-6 6-5 6-4 6-2 7-2 6-2h6l7 1 6 1 10 6 3 4 3 5 2 6v7l-1 7-2 9-3 8-4 9-18 27-15 17-8 8-16 12-7 5-7 4-7 3-6 3-6 2-8 2h-5l1-4 2-4 3-3 11-10" style="clip-to-self:true;comp-op:src"/>
<path transform="scale(.1)" d="m6306.2 1662.5 2-3 2-6 2-4 3-3 3-2v4l-1 5-1 4-2 4-2 5-3 6-3 5-6 12-4 7-3 6-3 7-4 6-3 6-2 5-3 4-1 4-2 4" style="clip-to-self:true;comp-op:src"/>
<path transform="scale(.1)" d="m6622.2 1579.4 1-3v-8l-1-3-2-3-3-4-6-2h-3-5-4l-6 1-5 1-6 3-7 3-14 8-7 5-6 5-7 6-6 6-10 12-4 6-3 5-2 10 1 4 1 3 5 5 4 2 5 1h5 5l7-2 6-1 7-2 6-3 8-2 6-4 7-2 7-4 6-3 5-3 5-4 4-3 3-2 3-3 3-2v4l-2 3-1 5-2 5-2 7-1 7-4 17-1 9-2 10-1 9-4 40v10l-1 11v93l4-2 10-10 8-10 5-5 5-6 18-21 7-7 7-8 8-7 7-9 14-16 7-9 7-8 6-7 5-7 9-9 7-6" style="clip-to-self:true;comp-op:src"/>
<path transform="scale(.1)" d="m6904.4 1638.4v5l-3 5-1 4-3 4-2 4-5 11-2 6-10 22-2 5-2 4-6 8-3 2-7 6" style="clip-to-self:true;comp-op:src"/>
<path transform="scale(.1)" d="m7024.4 1567.5 4-3 3-1h6l3 1 5 1 8 4 5 3 8 8 4 5 4 6 6 14 2 8 1 8v9 9l-2 18-2 8-2 7-3 7-2 7-3 5-4 5-3 4-4 3-3 3-6 2h-5l-5-3-2-5-1-4v-4l2-10 1-6 3-6 3-7 3-6 10-16 5-9 12-18 14-18 8-9 7-8 8-7 7-6 8-5 7-4 6-2 5-1 4-1 3 1 5 7" style="clip-to-self:true;comp-op:src"/>
<path transform="scale(.1)" d="m7272.5 1644.4-3 1-4 3-8 8-6 8-12 15-4 7-5 7-4 8-5 7-5 8-5 9-10 17-6 7-5 7-6 6-9 12" style="clip-to-self:true;comp-op:src"/>
<path transform="scale(.1)" d="m7510.3 1602.2 4-2 4-3 8-8 4-3 11-11 2-3 2-4 1-5-2-4-5-3-3-1-5-1h-4l-7 1-6 1-7 1-8 2-16 6-9 4-8 4-9 5-16 9-7 5-6 5-5 5-4 5-2 5v5l1 5 1 4 4 5 5 5 5 4 6 4 7 5 15 9 8 4 7 4 8 4 7 4 6 5 5 3 4 4 3 4 2 3 1 4-1 3-3 3-4 2-4 3-12 4-7 2-24 3h-8-8-8l-8-1h-7l-7-2-6-1-6-3-5-2-4-3-7-6" style="clip-to-self:true;comp-op:src"/>
<path transform="scale(.1)" d="m7653.8 1677.8-3 2-2 3-4 5-2 4-2 3-3 4-9 15-3 6-4 6-2 6-6 12-2 5-2 7-2 5-1 4-2 4-1 3-2 4-4-1" style="clip-to-self:true;comp-op:src"/>
<path transform="scale(.1)" d="m7803.4 1509.4-1-4-1-3v3 4 4l1 6v30l-1 10v10 10 52 10l1 9 1 8 2 8 2 6 2 7 3 5 4 5 4 4 4 3 15 6h6 6l6-1 5-2 7-2 5-2 5-3 6-4 11-9" style="clip-to-self:true;comp-op:src"/>
<path transform="scale(.1)" d="m7764.7 1588.8-4-1-3-2 1-3 7-1 4-2 5-2 6-1 6-2 7-2 8-1 9-2 8-2 9-1 10-1 8-1h9 8l15-2 6-1 6-2 13-3" style="clip-to-self:true;comp-op:src"/>
<path transform="scale(.1)" d="m7972.8 1496.9-1-4 2-4 3-3 9-6 5-2 4-1 5-2 6-1 5-2 18-3h6 5 10l4 2 3 2 2 3 2 2v4l-1 6-2 5-2 6-8 14-6 7-6 8-5 8-7 8-25 31-5 7-4 7-4 6-3 6-2 5-1 4-1 5 1 3 1 4 2 4 3 2 4 3 4 2 11 5 12 4 7 2 6 2 7 2 12 4 5 2 4 2 4 3 2 2 2 3v3 3l-2 4-2 3-4 4-3 4-5 3-8 8-5 4-4 3-4 4-4 3-8 8-2 3v6l2 5 1 3 6 6 4 3 7 7 5 3 17 17 3 5 3 6 2 5 1 5v7l-1 5-1 6-6 10-5 5-5 3-5 4-6 4-7 2-7 3-6 2-8 2-7 1-16 2h-7l-7 1h-7l-7-1h-8l-8-2-8-1-23-4" style="clip-to-self:true;comp-op:src"/>
<path transform="scale(.1)" d="m3171.6 2622.8v-3 6 4 6 6l-1 7-1 9-2 20-2 22-1 12-2 12-1 12-1 13-2 12-1 14v13l-1 13-1 11v10l-1 9v7 18-24-7l1-7v-7l1-8 2-18 2-10 1-10 4-24 6-28 4-15 4-16 5-15 6-15 6-16 7-14 14-26 7-11 7-10 13-13 7-4 6-3h5 5l4 2 3 4 3 5 1 6 1 7v8l-1 9-2 10-3 10-8 22-5 10-5 12-7 11-7 9-6 10-7 9-7 8-7 7-7 6-7 4-6 4-5 3-6 2-4 2-4 1h-7l3-4h6 3l4 1h5l4 2 10 4 5 3 10 7 5 4 6 5 4 5 9 11 14 17 3 6 5 5 3 6 4 5 3 5 6 9 3 3 2 3 3 3h3" style="clip-to-self:true;comp-op:src"/>
<path transform="scale(.1)" d="m3373.8 2756.9-2 2-2 4-3 5-1 4-2 4-2 8-1 11-1 6-2 11-1 7v12l1 5 1 6 1 4 1 5 1 3 2 3 4 3 9-4" style="clip-to-self:true;comp-op:src"/>
<path transform="scale(.1)" d="m3534.1 2697.2 2-4 3-2 4-4 5-2 3-1 11-3 6-1 12-1h6 6 5l5 1h6l4 1 5 1 2 3" style="clip-to-self:true;comp-op:src"/>
<path transform="scale(.1)" d="m3537.8 2756.6-3 2-2 4 2 3 3 2h6l4-1h4l12-2 14-2 8-1 7-1 9-2 7-1 8-1 12-4 5-1 9-2" style="clip-to-self:true;comp-op:src"/>
<path transform="scale(.1)" d="m4010 2498.1 3-12v-5-8-3l-2-4-5-3-6-2-4 1-5 1-6 1-14 6-8 3-8 5-8 6-9 6-9 8-8 9-16 19-6 9-6 10-4 9-4 8-2 9v8 7l2 7 6 14 4 6 6 6 6 7 14 10 8 6 8 5 7 5 7 4 6 5 5 4 9 9 4 10v5 4l-4 10-6 10-3 4-5 5-10 8-5 3-6 4-6 3-9 7-6 4-3 4 6 3 3 1h5 5 20l6 1h6l7 1 6 1h5l5 2 4 2 3 2 2 2 2 4v3l-1 4-1 3-6 10-3 4-5 6-4 6-12 12-12 13-7 6-6 5-6 6-6 5-5 5-5 6-6 10-3 6-1 6v7l-1 6 2 12 2 4 3 4 4 3 5 3 5 2 14 2h17 9l8-1 18-2 8-1 9-1 7-2 8-2 8-1 6-1 7-1 5-1h5l4-1h3l4 1v3l-5 1-11 2" style="clip-to-self:true;comp-op:src"/>
<path transform="scale(.1)" d="m2580.3 1703.8 3-2 1-3 3-3 2-3 3-2 2 2v4l-2 3-1 3 3-2 2-3-3 1-1 3" style="clip-to-self:true;comp-op:src"/>
<path transform="scale(.1)" d="m4235.3 2554.7-3-1-5 1-6 4-4 3-3 4-4 4-5 6-4 6-4 8-5 9-4 9-6 11-4 12-5 12-5 14-4 14-4 15-6 30-4 28v13l2 22 2 9 3 9 8 12 5 4 6 4 6 2h7 7l7-1 8-3 19-7" style="clip-to-self:true;comp-op:src"/>
<path transform="scale(.1)" d="m4422.5 2636.2-2-2-6-5-3-2-6-2h-6l-5 2-5 4-7 7-2 5-7 14-2 7-2 9-3 9-2 10-2 22v11 12l1 11 2 10 2 9 4 9 3 8 4 7 5 6 5 4 7 4 6 3 7 2 7 1 7-1h8l8-2 8-4 8-3 8-4 7-5 8-6 6-7 7-7 6-7 6-9 5-9 5-10 4-11 3-11 3-12 2-13 1-13v-14-13l-2-13-2-12-3-12-3-11-4-9-5-8-5-6-7-5-6-3-6-2-8-1-7 1-8 3-8 4-8 5-7 6-7 7-14 16-6 9-5 9-4 8-3 8-2 8-3 16" style="clip-to-self:true;comp-op:src"/>
<path transform="scale(.1)" d="m4439.7 2685.9-4-2-3-2 3 1 4 2 5 1 3 1h4l8-5" style="clip-to-self:true;comp-op:src"/>
<path transform="scale(.1)" d="m4623.1 2756.9 3-2 2 2v8 3l-2 4-1 4-2 5-1 5-2 5-6 12-5 12-4 5-4 7-10 9-5 5-13 11" style="clip-to-self:true;comp-op:src"/>
<path transform="scale(.1)" d="m4756.6 2621.6 8-6 5-1 6 2 2 2 4 3 6 6 2 5 3 5 2 6 1 7 2 8v9 8 10l-1 9-2 10-1 9-5 17-2 7-3 8-3 6-3 5-6 8-6 4-3 1h-6l-3-2-5-4-1-3-2-4-2-12 2-14 2-8 1-9 3-9 3-10 8-20 5-11 5-10 6-11 7-10 7-9 8-7 7-7 9-6 8-3 7-3 14-2 7 1 10 6 4 5 3 6 2 7 2 14v17" style="clip-to-self:true;comp-op:src"/>
<path transform="scale(.1)" d="m4952.2 2510.6 4-3 4-2 4 1 6 2 6 4 4 2 4 4 5 4 5 5 4 6 5 8 5 10 4 11 4 13 4 14 3 15 2 17 2 16 2 19v18 19 18l-4 36-3 15-8 30-5 12-6 12-6 10-6 9-7 9-7 7-6 7-14 10-7 4-6 4-6 1-5 2h-5l-6-1-4-1-4-3-8-8" style="clip-to-self:true;comp-op:src"/>
<path transform="scale(.1)" d="m5140.9 2830.3v-3l-3 1-3 5-2 3-3 5-2 4-2 6-4 6-3 6-3 7-4 8-2 8-6 16-5 17-6 14-2 5-6 10" style="clip-to-self:true;comp-op:src"/>
<path transform="scale(.1)" d="m5391.9 2510.9-1-4-4-3-4-2-3-1h-5l-3 1h-4l-3 2-4 2-4 3-5 4-4 6-5 7-5 9-6 11-5 12-6 13-6 14-6 15-5 15-6 15-4 16-5 16-4 15-3 15-1 16-2 15v14l1 13 2 13 3 12 3 10 4 9 6 7 5 6 6 3 7 3 8 2 8 1h9l9-1 9-2 9-3 23-7" style="clip-to-self:true;comp-op:src"/>
<path transform="scale(.1)" d="m5539.7 2607.5-3-3-3-2-8-4-4-1-4 1-7 3-7 7-3 4-4 5-7 14-3 8-4 9-4 11-3 11-4 11-2 13-2 24v11l1 11 2 10 3 9 4 8 4 7 6 6 6 5 7 3 8 2 9 1 10-1 20-6 11-3 12-5 22-12 22-16 20-18 9-9 8-10 7-11 6-12 5-11 4-13 2-13 2-14v-13-13l-1-13-3-12-4-10-4-9-6-8-7-5-8-4-9-2h-9-11l-22 6-12 4-22 12-10 6-10 7-16 14-7 8-5 7-5 8-3 7-2 7-1 7v6 6l4 14" style="clip-to-self:true;comp-op:src"/>
<path transform="scale(.1)" d="m5583.1 2690-2-3h4l3 1" style="clip-to-self:true;comp-op:src"/>
<path transform="scale(.1)" d="m5737.5 2761.6v-3l2-4 4-7 1-4 2-4 2 4-2 4-1 4-2 3-2 5-3 5-3 6-5 6-4 7-6 8-6 7-7 9-16 15-21 18" style="clip-to-self:true;comp-op:src"/>
<path transform="scale(.1)" d="m5878.8 2587.8 1-4 1-3 1-6v-5l1-5v-5-9-4l-1-5v-3l-1-3-2-5-4-3h-3l-4 3-3 4-3 5-4 6-3 7-4 8-4 10-5 10-4 10-4 11-4 10-4 11-3 11-1 10-2 9-1 9v9 7l2 6 1 5 2 4 3 3 3 2h3 4l8-4 5-3 5-4 4-5 5-4 4-6 4-5 6-12 2-6 2-5 1-5 2-5v-3l1-3 2-4v4l1 3v4l1 5v5l1 7v7 8 9l1 9v18 9 10 9l1 8 1 9 1 6v7l2 5 1 4 1 3 4 3 5 1 3-1 3-2 4-2 5-4 5-3 6-5 6-4 14-12 14-14 7-8 7-9 19-23" style="clip-to-self:true;comp-op:src"/>
<path transform="scale(.1)" d="m6038.4 2504.1 2-5 1-4 4-10 4-6 3-3 3-1h7 4l5 1 6 1 6 2 7 3 16 8 7 6 9 8 7 9 7 10 5 11 5 13 3 13 3 14 1 14v15l-1 16-2 17-3 16-10 32-6 16-7 15-6 13-7 13-8 11-7 11-8 9-7 8-7 7-8 5-7 4-7 2-8 3-6 1h-13l-11-2" style="clip-to-self:true;comp-op:src"/>
<path transform="scale(.1)" d="m6244.1 2755.6v-4l-2 3-3 5-2 4-3 4-6 12-4 7-3 7-4 9-5 8-9 20-11 21-6 11-5 10-7 10-7 9-8 8-20 16" style="clip-to-self:true;comp-op:src"/>
<path transform="scale(.1)" d="m6471.6 2515.9h-4l-3 1-4 1-5 1-6 2-5 2-10 8-6 5-5 6-6 7-5 8-5 9-6 10-4 11-10 24-4 13-3 14-3 13-3 14-1 13-2 14v13 12l2 11 3 10 2 10 5 9 4 7 5 8 12 12 7 6 16 8 8 3 16 4h9 8l16-4 7-2 7-3 7-4 14-11" style="clip-to-self:true;comp-op:src"/>
<path transform="scale(.1)" d="m6636.2 2561.6-4 2-3 6-1 4-2 5-1 5-1 6-2 7-1 6-2 7-1 8-1 9-1 8-2 9-2 10-2 18-2 10v10l-2 9-2 16v7 7 5l2 8" style="clip-to-self:true;comp-op:src"/>
<path transform="scale(.1)" d="m6728.4 2704.1v-3l-2 3-1 6-3 12-4 12-3 6-5 15-4 7-3 8-4 8-3 7-8 14-2 6-6 10-4 8-2 3-3 2-3-7" style="clip-to-self:true;comp-op:src"/>
<path transform="scale(.1)" d="m6910.6 2575-3-1-4 2-5 10-6 18-1 8-2 8-2 10-2 9-6 33-2 12-1 24-1 13v23l1 12v10l2 20 2 8 1 7 2 7 2 5 2 4 2 2 3 2 3-3 4-12" style="clip-to-self:true;comp-op:src"/>
<path transform="scale(.1)" d="m6905.9 2613.8 2-4 1-3 2-5 2-4 3-4 2-4 6-6 8-6 4-2 5-1 5-2 6-1h5l5 1 6 1 6 2 4 2 5 4 4 4 4 12 1 6v7l-1 8-3 8-2 9-4 8-5 9-5 8-5 7-6 7-12 12-12 10-6 4-5 3-6 2-4 2h-5-4-5l-3-2-4-2-3-3-7-10" style="clip-to-self:true;comp-op:src"/>
<path transform="scale(.1)" d="m7076.2 2519.4 2-3 4-4 3-4 6-3 3-2 4-1h3 5 5l10 4 6 3 5 4 6 5 10 14 5 8 5 9 3 9 4 10 4 20 2 11 1 11v10l-1 11-2 11-2 12-3 11-4 11-3 11-5 11-4 10-6 10-5 10-6 9-7 8-6 8-15 15-6 7-8 5-12 10-6 3-5 3-8 4h-4l-6-1-5-6" style="clip-to-self:true;comp-op:src"/>
<path transform="scale(.1)" d="m7242.8 2774.7 1-3v3 3l-2 5-2 3-2 4-3 4-6 10-4 6-4 5-4 6-5 6-4 5-6 6-4 6-16 16-6 5-6 4-6 3-6 4-15 5" style="clip-to-self:true;comp-op:src"/>
<path transform="scale(.1)" d="m7530.9 2533.4-4 1-3 1-4 2-3 2-5 3-4 4-4 6-5 6-5 7-5 8-7 8-6 9-7 9-7 10-8 10-14 22-6 11-5 11-5 12-3 12-2 11-1 12v11l1 10 3 9 3 10 4 7 4 8 5 6 6 6 6 5 7 5 6 4 7 3 14 2h8l7-2 18-4" style="clip-to-self:true;comp-op:src"/>
<path transform="scale(.1)" d="m7626.9 2596.6 1 3v3 5 4 5 5l-1 6-2 14-1 6v8l-1 7-1 8v8 8 15 6 7 9 4l-1 4" style="clip-to-self:true;comp-op:src"/>
<path transform="scale(.1)" d="m7729.7 2718.4-4 2-2 3-3 8-3 3-1 4-2 4-2 6-2 5-3 6-1 6-4 13-2 6-2 7-1 5-4 10-3 4-2 3-7 8" style="clip-to-self:true;comp-op:src"/>
<path transform="scale(.1)" d="m7801.2 2597.8 3-1 4 2 12 12 8 10 3 6 4 5 7 14 2 8 3 8 2 7 2 9 2 14 1 8v7 6l-1 6-1 5v4l-2 4-4 5-4 1h-6l-5-2-5-4-2-3-2-4-1-3-2-5v-5l-1-5 1-6 1-7 2-7 3-7 3-8 4-8 5-8 6-9 7-10 7-9 9-10 10-10 10-9 10-8 11-7 9-6 9-4 8-3 7-3h5l4-1 7 5" style="clip-to-self:true;comp-op:src"/>
<path transform="scale(.1)" d="m7990.3 2475.9 2-3 3-3 3-1h7l4 1 10 2 12 6 7 4 7 5 7 6 16 18 14 22 7 13 5 13 5 14 4 15 3 14 2 15 1 15-1 14-2 16-8 30-6 15-7 15-8 14-9 14-9 12-10 12-10 11-10 10-20 16-10 7-20 10-10 3-10 2-21 1" style="clip-to-self:true;comp-op:src"/>
<path transform="scale(.1)" d="m8203.4 2482.5-1-4 1-4 4-4 3-2 8-4 5-1 12-4 7-2 8-1 8-2h9 8 8l7 1 8 2 6 2 5 4 4 4 3 4 2 6 1 6-1 7-1 9-2 9-8 20-5 10-6 10-12 18-7 8-6 8-6 6-6 5-5 5-5 4-4 5-3 4-4 4-2 4-1 3-1 5v3 4l4 6 3 3 4 2 4 3 6 3 5 3 12 6 10 6 6 3 4 3 4 4 2 3 2 4v5 4l-4 10-4 5-3 5-5 5-4 5-8 8-5 4-3 4-6 7-3 3-1 3-1 5 3 4 6 4 10 4 4 2 12 4 11 6 10 6 8 8 3 5 2 5 1 5v6l-2 12-3 6-4 6-4 7-4 6-6 7-5 6-7 6-6 6-8 5-8 6-8 5-16 8-7 4-8 2-7 3-7 2-6 2-5 1-7 2h-7l-8 1-8-1h-9l-25-3" style="clip-to-self:true;comp-op:src"/>
<path transform="scale(.1)" d="m1380.6 3307.2v-4-5l-1-5-4-6-4-2-4-1-6 2-8 4-5 4-5 6-6 7-7 8-8 10-7 12-9 13-9 15-9 16-8 17-9 19-16 40-7 21-6 21-5 22-4 21-3 20-2 20v18l1 16 3 14 4 13 5 11 7 9 7 8 9 7 10 5 11 5 12 2 12 3 12 1 13 1 13-1 14-1 13-1 13-2 12-2 12-3 11-3 10-3 8-3 7-3 6-3 4-3 3-4 3-8" style="clip-to-self:true;comp-op:src"/>
<path transform="scale(.1)" d="m1599.4 3410.9-2-3-3-3-2-4 1-3 2-4 5-3 3-2 3-1 4-2 3-1h4 5 3l4 1 3 2 4 4 2 4 1 5 1 6v7l-2 16-2 9-4 9-3 9-4 10-5 9-4 9-5 9-5 8-4 9-4 7-5 6-3 5-3 4-4 6 3-5 2-3 3-5 5-5 5-6 5-7 6-7 14-16 8-8 14-18 8-9 14-18 12-20 6-9 5-8 5-7 3-6 3-4 2-4 1-3-5 4-4 4-4 5-5 5-5 7-6 7-6 8-20 36-4 9-3 9-4 18-2 8v8 9l2 14 2 7 3 5 2 6 8 6 3 2 4 1 12-1" style="clip-to-self:true;comp-op:src"/>
<path transform="scale(.1)" d="m1735 3524.7 3-1h4l4 2 5 4 2 3 3 4 2 4 1 4 1 5 1 6v6l-1 7-1 8-4 18-4 10-3 9-5 9-5 8-6 8-12 14-7 6-6 5-15 10" style="clip-to-self:true;comp-op:src"/>
<path transform="scale(.1)" d="m2066.6 3391.9-3-4-6-2h-6l-3 2-3 1-3 3-3 2-6 8-3 5-3 4-3 7-3 5-3 7-1 8-2 8-1 7-1 8 1 7v7l2 6 1 6 3 5 3 4 4 3 4 2 5 1h5l6-1 6-2 7-3 6-4 7-3 6-5 11-11 10-12 3-6 4-7 6-12 2-7 2-5 3-12 1-3v5l-1 4-1 5-1 7-2 16-2 10-1 11-4 24-1 14-2 15-2 16-3 16-1 18-3 18-2 17-3 18-2 17-3 17-3 15-3 13-2 13-3 12-3 11-3 10-3 9-3 8-4 7-3 7-4 5-8 6-8 2h-5-4l-5-2-4-2-5-3-5-4-4-4-5-4-4-5-5-6-4-6-3-6-3-7-1-8-2-7v-8l2-16 2-9 3-9 4-9 4-10 6-9 6-10 7-9 16-18 9-7 9-8 9-7 9-6 8-6 9-6 7-5 8-5 20-11" style="clip-to-self:true;comp-op:src"/>
<path transform="scale(.1)" d="m2285.9 3304.4 4-2h5l6 2 4 2 4 3 5 4 4 5 5 6 4 7 5 7 3 9 4 10 6 22 3 13 1 13v14 14 16l-2 15-3 17-3 18-5 18-12 36-7 19-8 17-16 30-8 13-8 11-7 9-8 8-14 12-6 3-7 3-6 2h-7l-16-3" style="clip-to-self:true;comp-op:src"/>
<path transform="scale(.1)" d="m2650.6 3403.1-1-5v-4-4l1 4 1 5 2 3v5l1 4v11l-1 6v5l-3 17" style="clip-to-self:true;comp-op:src"/>
<path transform="scale(.1)" d="m2643.4 3623.4v-5-5l-1-3v-11l4 3 1 3-1 6-3 7" style="clip-to-self:true;comp-op:src"/>
<path transform="scale(.1)" d="m3056.2 3431.2v-3l-3-12-3-5-3-1-5 2-2 3-2 5-3 5-7 14-3 9-3 10-4 11-2 12-5 25-2 13-1 14v27l1 12 2 12 3 10 7 14 5 4 5 3 6 1 6-1 7-2 7-3 6-4 8-6 7-6 8-8 6-8 7-8 6-9 10-18 4-9 3-9 4-10 2-9 3-8 2-8 2-7 2-10 1-3 1 3-1 4v5 6l-1 8v8l-2 22-1 13-1 15-1 16-2 36-2 40-2 19-1 21-2 20-2 19-4 40-6 38-3 17-4 17-8 28-4 13-4 12-10 20-5 9-5 7-11 11-6 4-12 4-6 1h-6l-7-2-5-2-7-3-12-8-5-5-6-5-4-6-5-7-4-7-3-8-2-7-2-8v-8-9l1-9 4-20 4-10 4-11 6-11 16-24 9-12 9-13 11-13 24-26 26-26 26-28 14-14 13-15 36-32" style="clip-to-self:true;comp-op:src"/>
<path transform="scale(.1)" d="m3510.3 3492.2 3-4 2-3 2-4 2-8v-3l-2-1-3 4-2 3-2 4-2 5-2 6-3 8-2 8-3 9-1 10-4 22-1 12v12l-1 12 1 11v12l2 10 1 9 2 7 2 6 3 5 3 3 3 1h3l3-2 3-3 9-11" style="clip-to-self:true;comp-op:src"/>
<path transform="scale(.1)" d="m3530.6 3390.6-4-2-4-1h-4l-1 4v9 3l1 4 2 3 1 3 2 4 2 3 3 2 5 5 4 2 3 1h4 4l3-1 5-2 4-2 12-9 3-5 3-3 3-4 3-12-1-5-2-8-5-10-4-4-4-5-3-5-5-5-4-3-5-4-4-3-5-2-4-1h-5l-4 1-10 4-5 4-4 4-4 5-4 4-3 5-3 4-2 5-3 12" style="clip-to-self:true;comp-op:src"/>
<path transform="scale(.1)" d="m3696.6 3494.7v-6l1-5v-6-6-14-3l-2-3-5-2-7 1-4 1-5 2-4 3-10 6-8 9-3 4-4 5-2 4-2 5v4 5l1 4 1 5 3 4 2 5 3 5 5 4 9 10 12 10 10 10 8 12 3 5 3 6 1 6v5 5l-1 6-6 10-4 4-4 3-6 3-5 2-6 3-7 1-6 1h-6-6-6l-6-1-5-3-5-2-5-4-4-5-7-14" style="clip-to-self:true;comp-op:src"/>
<path transform="scale(.1)" d="m4085.3 3367.8 1-6 1-3 1-6v-3l1-4 2 4 1 3 2 12 1 7v9 20 11l-1 13-1 12-1 13-1 14-1 13-2 28-1 13-2 14-1 13-2 14-1 12-2 11-2 10-2 7-2 5-7 6" style="clip-to-self:true;comp-op:src"/>
<path transform="scale(.1)" d="m3974.1 3514.1 3-2 2-3 4-4 4-3 4-4 12-6 8-3 8-4 9-4 28-14 9-5 10-5 20-11 10-7 30-18 18-12 8-5 7-5 6-3 5-3 5-2 3-1h4l1 3v8l-1 4-4 14-2 9-3 9-3 10-2 11-4 10-3 12-6 22-2 12-2 11-2 9v9l-1 8v7l1 5v5l1 3 2 5h4l5-5 3-4 2-4 3-4 3-6 3-5 4-7 4-6 3-7 8-12 4-5 3-5 7-7 3-2 4-2 4 3v3l2 4v4l2 10 1 6 3 20 1 6 1 7 4 10 3 4 3 3 4 2 4 1 5 1 4-1h6l7-2 6-4 6-3 14-10 7-6 6-6 5-6 6-7 5-7 5-8 4-7 6-16 4-14 1-6 1-5-1-5-1-3-5-3h-3l-4 1-4 3-5 3-5 5-5 6-5 7-6 8-5 9-6 11-8 22-3 12-2 13-2 12v11l2 10 2 9 4 8 5 7 6 5 7 6 16 6 9 2 8 1h8l21-3" style="clip-to-self:true;comp-op:src"/>
<path transform="scale(.1)" d="m4763.8 3440.6-4-3-4 1-2 2-3 4-5 10-2 8-3 8-2 9-6 20-4 22-2 22v23l1 11 2 11 2 9 3 9 5 7 4 6 6 3 6 2 6 1 7-2 7-3 7-4 7-6 15-17" style="clip-to-self:true;comp-op:src"/>
<path transform="scale(.1)" d="m4753.8 3379.1-3 1-4 1-3 2-2 4v5l1 5 3 5 6 4 10 2 6 1h6l7-1h6l21-6 6-4 5-4 5-3 4-5 2-4 2-5 1-5 1-4-1-5-4-10-3-4-4-5-4-4-5-4-5-3-12-4h-5l-7 1-6 2-7 2-7 4-6 5-6 7-4 6-5 6-2 7-3 7-2 18" style="clip-to-self:true;comp-op:src"/>
<path transform="scale(.1)" d="m4899.4 3470.9 1-5v-4 6l-1 4v6 5l-1 7v8l-1 8-3 27-1 10-1 9v10 36 7l1 6v4l1 4 3-5 1-4 2-5 2-6 1-7 2-7 4-17 2-9 2-10 2-9 3-10 3-11 3-9 8-18 5-7 5-6 4-5 5-4 4-2 4-1h4l4 1 6 6 3 5 6 12 2 7 4 16 1 9 2 9v9l1 8v9 8 20 5 7-4l1-2 1-5 2-5 1-6 2-8 3-7 3-9 3-8 14-28 6-9 5-10 7-9 6-9 13-13 6-4 5-3 4-1h4l4 3 2 3 3 5 2 6 1 6 2 8 1 8 1 7 2 9 2 18 1 8 2 18 1 17 2 8 1 7 3 6 2 3 2 2h4l9-5" style="clip-to-self:true;comp-op:src"/>
<path transform="scale(.1)" d="m5188.4 3473.4 1-4v-4l1-6v-4l-1-5-1-3-5-3h-6l-5 1-4 2-4 3-5 3-15 15-5 7-4 7-5 9-4 8-4 9-4 10-3 10-4 18v9 8l1 8 1 7 2 5 3 5 3 4 3 2h4 4l5-2 10-6 5-5 6-5 11-13 5-7 5-8 5-7 12-24 2-7 4-7 2-6 2-5 2-4 2-3 3-2v5l1 3v9 6l1 6v7l1 8 2 7 1 7 3 8 2 7 6 14 8 12 4 5 5 4 4 2 6 1h5l6-2 14-8" style="clip-to-self:true;comp-op:src"/>
<path transform="scale(.1)" d="m5360.3 3454.7-2-6-3-3-8-2-5 1-6 1-6 3-6 4-11 11-5 6-4 6-8 14-3 7-2 8-2 7-1 7v13l1 6 1 5 2 5 6 8 3 2 4 2 3 1 4-1h5l5-2 4-2 5-2 4-2 5-2 8-2h3l4 1 2 2 2 3 2 4 1 5v7 18 11l-2 11-1 12-4 26-6 24-2 11-3 12-2 12-6 22-3 10-6 18-4 7-2 6-4 5-3 3-4 3-4 1-4 2h-4-5l-4-2-4-1-3-3-4-3-4-8-1-6v-5l1-6 2-6 6-12 4-7 5-7 13-13 8-7 9-8 20-14 11-8 12-8 13-8 12-10 13-9 26-20 13-12 24-26 13-14 11-14 11-13 10-14 10-12 8-11 6-10 5-9 4-7 2-6 1-5-1-5-2-3-2-2-4-2h-5-5l-6 2-7 2-7 3-8 5-7 4-7 6-14 14-6 8-5 8-6 9-4 10-6 20-2 11v11 11 10l2 10 8 16 5 7 6 7 8 6 8 4 9 3 10 2 11 2h12 11l14-2 34-9" style="clip-to-self:true;comp-op:src"/>
<path transform="scale(.1)" d="m5893.8 3506.2-5-2-4-2h-3-4l-4 1-3 2-4 2-4 3-3 4-6 10-6 14-1 7-2 7v17l2 8 1 8 3 9 3 8 4 6 10 12 5 3 6 4 12 2h6l6-1 5-2 6-2 4-4 4-3 4-5 3-6 2-5 1-7 1-6v-7l-1-7v-7l-2-8-3-7-9-24-8-13-4-7-3-4-7-7-4-2-4-1h-5l-2 3 2 5 2 2 3 2 4 2 12 5" style="clip-to-self:true;comp-op:src"/>
<path transform="scale(.1)" d="m6038.4 3504.7 5-3 12-6 7-5 7-4 8-6 14-10 8-6 13-13 6-8 5-7 5-9 4-9 5-9 6-20 3-11 2-10 1-10v-11-10-9l-2-7-2-5-4-4-4-2-5-1-6 1-5 2-7 5-6 5-12 16-6 10-6 11-5 13-4 14-5 15-5 17-8 36-4 19-3 20-3 22-3 24-6 50-3 27-3 25-2 25-3 23-2 23-3 21-2 21-2 20-1 19-2 17-2 16-1 13-2 12-1 11-1 8-2 7-1 5-1 4v-7-5l1-7 2-7 4-18 1-11 3-11 2-12 2-26 1-14 1-12v-13l-2-22-2-10-3-9-3-8-10-14-6-5-5-6-7-5-5-4-7-4-10-8-3-4-4-3-2-4-2-2-1-6 4-6 8-6 12-8 8-4 16-10 9-5 10-5 9-5 10-5 10-4 20-10 10-4 9-4 8-3 14-6 10-4" style="clip-to-self:true;comp-op:src"/>
<path transform="scale(.1)" d="m6358.1 3530.6-1-5v-5-3l2-2 2-3 3-2 4-3 4-2 10-4 10-2h6 5l5 1 4 1 5 3 4 3 3 4 2 4 2 5v5 7l-2 7-2 8-2 9-4 9-4 10-5 9-6 10-5 10-7 9-5 8-6 8-4 6-8 8-2 3 2-4 2-3 4-4 5-6 6-6 7-6 43-43 10-9 9-10 9-9 9-10 16-20 8-9 6-9 6-7 3-6 3-4 1-4-5 2-3 2-4 3-5 4-10 10-6 7-4 7-5 8-8 18-3 11-3 10-2 24v12l1 12 3 12 4 10 5 10 7 9 7 7 8 6 10 5 9 4 11 2h10l30-4" style="clip-to-self:true;comp-op:src"/>
</g>
</g>
<path transform="scale(.1)" d="m2408.8 3259.1 2267-283-91-39 91 39-78 59" stroke="#0f0" stroke-width="14.1" style="clip-to-self:true;comp-op:src"/>
<g stroke="#fff" stroke-width="14.1">
<path transform="scale(.1)" d="m1439.1 4259.7 2-3 1-3 1-4 2-3v-4l1-3v-4l-2-4-4-2-6-1-8 2-5 1-6 3-7 3-6 4-8 5-7 5-16 12-14 14-7 8-6 7-5 8-3 7-3 8-1 7v7 6l6 12 5 5 5 6 6 4 8 5 16 6 8 4 10 3 18 6 8 2 9 3 14 8 5 4 5 5 2 5 1 7v7l-2 8-3 8-4 9-12 20-7 10-16 20-9 11-9 10-8 9-17 16-7 8-6 5-3 6-3 4-2 3 1 4 7 2h4l5-1 6-1 7-1 6-1 7-1 7-2 7-1 6-1h6 6l5 1 4 1 5 5 1 4v5l-3 10-4 6-3 7-5 7-12 14-6 9-7 8-14 18-12 20-6 9-5 9-5 8-4 7-3 6-2 6-1 5v4l1 4 2 4 6 6 4 3 4 1 10 2h6 11 7l21-3 7-2 6-2 7-2 5-1 6-3 5-1 4-3 3-2 4-2" style="clip-to-self:true;comp-op:src"/>
<path transform="scale(.1)" d="m1661.9 4390.3-6 1-3 1-4 2-4 3-4 5-3 5-4 6-4 7-8 16-3 10-4 10-3 10-4 22-1 11-1 10v11l2 10 6 16 5 7 5 6 6 5 7 5 14 6 7 2 8 2h7 7l8-2 7-2 7-3 6-3 7-5 6-4 6-6 5-6 8-14 3-8 2-8 2-9 1-9-1-9-2-9-4-20-8-20-8-19-6-9-10-12-6-4-5-2-6-1-12 2-6 2-5 3-5 4-4 5-3 6-3 5-2 7-1 6v13l5 17" style="clip-to-self:true;comp-op:src"/>
<path transform="scale(.1)" d="m1853.4 4541.6 3-4-2 5-1 3-2 3-2 4-3 5-3 4-4 7-3 6-5 7-4 8-6 8-5 9-6 9-10 18-5 8-3 8-4 8-4 6-2 6-4 4-2 6" style="clip-to-self:true;comp-op:src"/>
<path transform="scale(.1)" d="m1980.3 4347.5v3l1 7 1 3v6l1 5v8 103l1 13v12 10l1 9 1 8v7l2 6 2 10 1 3 2 4" style="clip-to-self:true;comp-op:src"/>
<path transform="scale(.1)" d="m2080.9 4350.9v-3l2-4 2-2 8-6 6-4 6-3 7-4 16-8 9-4 18-6 9-4 8-2 18-4 8-1h7l7 1 5 1 5 2 3 4 3 5 1 6v7l-1 9-2 8-3 10-4 10-10 22-13 21-7 11-7 10-6 11-7 10-7 9-5 9-5 8-4 7-3 6-2 5-1 4v5l1 3 2 3 6 5 4 1 5 1h5l6 1h6 6l6 1h6 6l5 1 8 4 3 1 3 3 2 3v3 3 4l-1 4-6 10-12 15-5 6-5 5-12 15-3 4-3 5-3 4-1 3v3l1 5 9 6 4 2 4 1 5 2 4 2 15 6 5 3 8 6 3 3 3 4 2 4 2 5v5 6l-1 7-3 7-2 6-4 7-5 6-6 7-6 5-14 12-8 6-9 5-8 5-9 4-9 5-9 3-9 4-9 3-16 4-7 1-5 1h-5-4l-4-2-2-2-3-1-2-4v-10" style="clip-to-self:true;comp-op:src"/>
<path transform="scale(.1)" d="m2593.1 4344.1-2-4-3-5-2-3 1 4 1 5 2 6 2 8 6 15 1 6 1 5 1 6-1 17" style="clip-to-self:true;comp-op:src"/>
<path transform="scale(.1)" d="m2591.6 4580.9-1-4 2-2h4l4 1 3 3" style="clip-to-self:true;comp-op:src"/>
<path transform="scale(.1)" d="m3022.2 4325v-13-3l-4-6-2 4-1 3-2 4-2 6-1 7-2 8-3 9-3 11-2 12-3 13-4 13-3 15-8 30-4 16-3 17-4 17-6 34-2 16-4 30-1 11-1 9v8 6 5l1 3 4 1 4-7 1-6 4-16" style="clip-to-self:true;comp-op:src"/>
<path transform="scale(.1)" d="m2986.2 4376.9 1-5 2-4 4-12 3-6 4-7 4-6 5-7 12-12 7-6 9-6 8-6 20-8 10-2 11-2h11 12l22 4 22 11 11 7 9 9 9 10 7 11 7 12 4 14 3 14 1 15-1 15-2 16-3 16-10 34-16 32-9 15-10 14-11 13-12 12-12 11-12 10-13 9-13 8-13 7-13 6-12 5-13 5-11 3-10 3-9 1h-7-6l-4-2-4-4-1-4 2-14" style="clip-to-self:true;comp-op:src"/>
<path transform="scale(.1)" d="m3315 4483.1-3 1-3 2-8 6-5 6-4 5-4 6-4 8-6 14-3 8-3 7-2 7-1 8-1 7 3 18 6 8 4 3 4 2 6 2h5l6-1 6-2 7-2 6-3 7-4 6-5 7-5 5-6 5-5 4-6 3-6 3-7 1-6v-7-7l-1-7-3-7-2-7-4-6-3-6-8-10-5-3-5-1h-5l-6 1-5 1-6 3-6 4-8 8-3 4-2 5-2 3v3l6 8" style="clip-to-self:true;comp-op:src"/>
<path transform="scale(.1)" d="m3462.5 4433.1 1-3v-3l-1 4v3 4l-1 3v5l-2 5v5l-3 21-2 16-1 9-2 16v9l-1 8v14 5 16l4-12 1-5 2-4 3-11 2-5 3-6 4-7 3-7 5-7 5-8 12-16 13-16 6-7 6-6 6-5 6-3 5-2 5-1h4l4 2 6 6 2 4 1 5v7 7 8l-3 27-2 10-2 8-2 16-1 6v5 5 3l1 3 5-1 5-5 3-4 3-5 4-5 4-6 5-7 4-7 5-7 4-8 5-9 4-8 5-7 4-7 4-6 4-4 3-4 3-2 4-1 2 4v4l1 5v43 8l2 16 4 14 2 6 3 6 3 5 4 4 4 2 5 1h5 6l6-2 14-8 7-5 7-6 17-18" style="clip-to-self:true;comp-op:src"/>
<path transform="scale(.1)" d="m3765.3 4449.1v-7-3l-3-4h-6l-6 4-3 4-4 4-4 6-3 6-5 7-4 7-5 8-3 8-4 9-6 18-3 8-2 7-2 14v6l1 5 2 5 4 6 6 2 4 1 4-1 5-1 4-3 6-3 4-3 6-5 4-5 5-5 5-6 4-6 5-6 3-6 7-13 3-6 3-5 2-5 2-3 3-5-2 5-1 3-1 6-1 5-1 7v6 7 6 6l2 12 2 6 6 8 8 6 4 2 5 1 6-1h5l6-2 5-3 6-3 6-5 5-4 5-5 5-6 4-6 3-6 6-14 1-6 1-8 2-6v-6-11l-3 2-1 4-1 5v4l-1 6v13l1 6 1 7 2 6 3 5 2 6 4 5 4 4 4 3 5 4 5 1 5 2h5l5-1 5-2 7-7 3-5 6-12" style="clip-to-self:true;comp-op:src"/>
<path transform="scale(.1)" d="m3937.5 4296.9-2 3-3 5-3 3-4 8-3 4-5 10-3 5-3 4-1 5-2 4-1 3v4 5l1 3 3 2 4-1 5-3 2-3 3-4 2-3 3-5 2-4 2-5 1-5 1-6 1-5v-12l-1-5-2-12-2-6-2-5-2-4-2-3-4-3-5 1-3 2-3 4-3 5-3 7-4 7-2 8-4 7-5 16-5 20" style="clip-to-self:true;comp-op:src"/>
<path transform="scale(.1)" d="m4020.6 4454.1 1-4 2-5 2-6 4-5 4-3 5-1h4l5 4 4 8 1 6 1 7v8 10l-1 10-2 10-2 11-2 12-2 10-3 12-3 11-2 12-2 11-3 10-1 8-2 6-1 5-2 6 2-4 2-3 10-20 8-14 5-7 5-8 6-9 6-10 7-10 6-11 8-11 7-10 8-9 7-9 7-7 6-5 5-3 4-1h4l3 5 1 5v6 8l-1 8v9l-1 9-2 20-3 27v9 8 7l2 7 1 6 2 4 3 4 3 2 4 1h4l8-4 5-4 14-10" style="clip-to-self:true;comp-op:src"/>
<path transform="scale(.1)" d="m4585.9 4494.4-6 4-8 4-4 4-4 3-3 5-3 6-3 7-2 7-2 8-2 7-2 16v8 8l2 7 2 8 2 6 4 6 5 5 4 5 6 3 6 2h7 7 6l8-2 6-2 7-3 12-8 5-6 5-5 4-6 3-7 4-14 1-8v-7l-1-8-2-8-2-9-3-8-4-9-4-8-5-8-10-14-6-5-6-4-12-4-7-1-5 1-6 1-6 3-5 3-5 4-3 4-3 5-3 4-2 5v4 4l3 9" style="clip-to-self:true;comp-op:src"/>
<path transform="scale(.1)" d="m4732.5 4480.6 5-3 3-3 9-6 5-3 5-4 6-4 6-6 7-5 6-6 8-6 14-14 14-18 8-10 7-11 7-12 6-13 6-14 10-29 4-15 4-13 3-12 1-11 1-9v-7l-1-6-2-3-4-3h-4l-4 1-5 3-5 4-6 6-5 7-6 9-7 12-5 12-5 14-6 16-4 17-6 18-4 18-4 19-4 20-3 20-4 21-2 21-3 22-2 23-2 24-2 25-1 25-1 26-2 24v24l-1 23-2 21-1 19-1 17-1 15-1 13-1 11v9l-1 7v13l3-9 1-6 1-5 2-7 2-16v-9-10l1-10-1-12v-12-12l-1-13-4-22-3-10-3-9-4-9-5-7-5-6-6-6-6-5-7-4-14-7-6-2-7-3-6-2-7-3-5-1-5-2-6-4-3-5 2-4 6-4 4-2 5-3 7-2 9-3 9-2 10-4 11-3 12-4 13-3 14-4 26-8 13-3 12-4 12-2 11-3 9-2 7-1 6-1 5-2 4-1-7 3" style="clip-to-self:true;comp-op:src"/>
<path transform="scale(.1)" d="m5205.3 4339.4v6 5l-1 6-1 8v9l-1 10-1 11-2 11-2 12-1 11-2 11-2 12-4 23-1 10-2 10-2 18-1 8-1 7-2 5-1 5v3l-2 4-4-2-2-8v-5l-1-5v-6l-1-6v-7-23-10-10l1-10 2-12 2-11 6-26 4-13 5-13 5-14 6-13 7-13 7-12 8-12 7-9 8-8 8-6 7-5 7-3 8-3 7-1h7 7l6 1 10 6 4 5 2 5 1 7v8l-1 9-1 10-3 11-4 11-5 11-6 10-8 11-7 10-8 10-9 9-10 9-9 8-9 7-10 6-18 10-8 4-8 3-7 3-6 1-5 2h-5-8l3-1 7-1h5l6 1 5 1 7 1 6 2 14 6 7 4 6 4 7 5 6 5 6 6 7 6 6 6 6 7 6 5 6 6 5 7 5 5 4 5 5 6 8 8 6 7 3 2 4 2 6-2" style="clip-to-self:true;comp-op:src"/>
<path transform="scale(.1)" d="m5384.7 4499.1-1-4-2 5-1 6-1 3-1 5-1 6v7 7 8 44 8 15 7l-1 7-1 16" style="clip-to-self:true;comp-op:src"/>
<path transform="scale(.1)" d="m1509.7 5013.1v-3l-1-5-1-3-3-5-4-2-3-1h-7-4-4l-5 1-4 1-6 1-14 7-6 4-10 8-4 5-5 5-4 6-6 12-1 6v6 5l2 5 2 4 8 9 15 12 5 3 10 8 5 3 4 4 5 3 8 8 3 4 4 10v5 5l-2 12-3 6-2 6-4 5-4 7-9 11-5 5-4 5-5 5-4 5-8 8-3 4-3 3-1 3v3l1 5 5 4 3 1 3 2 8 4 3 2 4 2 9 9 4 8 2 10v5l-1 5-1 6-4 12-4 5-4 7-4 6-5 6-4 6-5 6-4 5-5 6-8 12-3 6-4 6-4 12-1 5v4l1 3 2 4 2 2 4 3 4 1 10 4 12 2h6 21 7l7-1h6l14-2h6 5l6-1 4-1 5-1h3l4-2" style="clip-to-self:true;comp-op:src"/>
<path transform="scale(.1)" d="m1729.7 5126.6-2-6-3-5-2-6-2-5-3-4-2-3-3 3-3 7-1 5-1 7-1 8-2 9-1 9-1 11-2 11-1 11v12l-1 12v12 33 10l1 9v9l1 7v7l1 6v5 4 3l-1 4-3-4v-3l-1-5-2-12v-8l-1-9v-9l2-22 2-13 1-14 3-15 4-15 4-16 12-34 16-30 8-13 9-11 8-10 9-7 7-6 14-7 6-1h4l5 1 2 3 2 5 1 5v7l-1 9-2 9-2 11-5 13-5 12-6 14-7 13-7 12-9 12-8 11-9 10-18 17-9 7-8 6-8 5-7 4-5 4-6 3-5 1-6 3-4-1 1-4 6-9" style="clip-to-self:true;comp-op:src"/>
<path transform="scale(.1)" d="m1898.4 5265.9-4 1h-3l-5 2-4 2-3 2-2 3-3 2-2 4-3 4-2 5-3 6-2 6-1 8-2 7-4 16-1 9-3 24v7l-1 7v12l1 5 2 8 3-3 6-11" style="clip-to-self:true;comp-op:src"/>
<path transform="scale(.1)" d="m2061.9 5141.9-1-5-2-5-1-6-2-6-1-5-3-5-2-4-2-3-4-2-2-2-3-1h-4l-8 4-5 3-5 5-5 6-5 7-6 9-5 9-6 10-5 10-4 10-4 9-3 9-2 9v9 7 7l2 6 2 5 6 6 4 1h4 5l5-1 12-6 6-4 8-5 6-6 8-6 6-7 7-7 12-14 10-14 4-6 3-6 3-5 2-3 1-4-4 8-2 5-3 6-2 7-3 9-2 8-3 10-2 9-6 30-2 20v9 8l2 14 1 5 2 5 3 4 3 3 3 2 4 1h5l5-1 6-2 6-3 7-3 14-8 8-6 7-5 7-6 8-7 7-6 21-21 6-8 5-8 5-7 12-20" style="clip-to-self:true;comp-op:src"/>
<path transform="scale(.1)" d="m2268.8 5242.5 3-2 3-3 2 2v6l-1 4-2 4-1 6-2 6-4 13-8 32-1 8-1 7v6l-1 7v5 5l-1 3-1 4" style="clip-to-self:true;comp-op:src"/>
<path transform="scale(.1)" d="m2308.1 5098.8 2-5 3-3 3-1h6 4l5 2 8 4 8 8 4 6 3 8 3 9 2 10 2 22 1 12-1 12v13l-2 12-1 11-1 12-2 10-3 9-1 8-2 7-2 5-2 4-3 4-1 2-4 2-4-2-2-5v-5l1-6 1-7 2-8 4-8 3-10 5-11 5-12 6-13 8-14 7-16 9-16 9-17 18-30 9-13 9-11 6-8 6-6 5-4 3-1-2 12" style="clip-to-self:true;comp-op:src"/>
<path transform="scale(.1)" d="m2554.7 4974.4 6-6 3-2 5-3 4-1 5-2 6-2 13-2 12-2h6 6l4 1 5 2 3 2 2 3 2 5v5l-1 6-6 16-5 10-12 20-7 11-8 12-7 10-8 11-7 11-6 10-7 9-5 9-7 14-2 6-1 5v5l1 5 3 3 4 3 5 4 6 2 6 3 8 2 7 2 24 6 14 4 12 6 8 6 2 4 2 3v5l-1 4-1 6-6 10-4 5-5 5-3 5-4 5-4 4-3 5-6 12v3 3l2 4 4 6 3 3 5 2 4 2 5 3 6 2 6 1 6 3 5 2 10 6 4 4 2 3 3 5v4 5l-1 4-2 6-3 5-4 5-11 11-14 10-8 5-9 5-8 3-10 4-8 3-9 3-18 4-8 2-7 1-8 1h-7l-7-1h-6l-6-2-4-3-4-2-6-9" style="clip-to-self:true;comp-op:src"/>
<path transform="scale(.1)" d="m2783.8 5050.9-3-4-2-3-3-4-4 1-2 4-1 3v3 4 4l1 4v5l2 10v5 6l3 14" style="clip-to-self:true;comp-op:src"/>
<path transform="scale(.1)" d="m2810.9 5259.4-2-4-2-3-1-3-6 2-10 2" style="clip-to-self:true;comp-op:src"/>
<path transform="scale(.1)" d="m3096.6 5022.8-1-3v5 4 11l1 8-1 9v11l-1 12v13l-2 15-1 14-3 48-1 15-1 13v14l-1 12v11l1 10v8l1 8v6l1 4v4l1 3-2-3v-3l-1-4-1-6-1-5-1-7-1-8v-9l-1-9v-23l1-13 1-15 1-16 2-17 2-18 3-18 4-18 3-17 5-16 10-28 6-12 6-10 6-9 7-8 7-7 7-6 8-4 7-3 8-3 7-1h8l6 1 6 3 5 3 4 4 6 12 1 7 2 8v8l-2 10-1 10-3 11-5 11-4 12-21 39-7 12-16 22-8 9-7 8-8 7-14 10-6 4-11 6-6 2-4 1-3 1-4 1h-3l1-3 5-1 6-1h4l5 1 4 1 6 2 5 4 6 3 12 8 28 24 8 7 14 12 8 7 7 5 7 6 6 4 6 5 6 4 4 4 5 2 4 3 4 1h4 4l7-4" style="clip-to-self:true;comp-op:src"/>
<path transform="scale(.1)" d="m3383.1 5174.7-2-2-3-2-4-3-4-1-5-1h-9l-4 1-5 1-10 4-12 6-5 4-6 6-5 4-6 6-12 21-2 8-2 6-1 8v7 7l4 13 3 5 4 4 4 3 4 2 6 2 5 1 18-3 7-3 6-2 6-4 7-4 6-4 12-10 4-5 5-6 9-18 6-18v-4l1-5v-2-4l-1 4v2 4 5 29 6 7l3 18 2 5 4 8 1 3 5 4 4-1 5-3 6-8 4-4 3-5 3-7 4-6 2-7 7-16 3-9 4-9 8-16 3-8 4-7 3-6 3-5 3-3 4-3 4 2 2 6v5l1 5v6 7 7l-1 7v7 7 21 5l1 6v4l1 3 2 5 3 1 4-1 4-5 2-3 4-4 2-4 4-5 8-12 3-6 5-6 4-7 5-7 10-13 6-6 5-6 6-4 5-4 4-3 5-1h3 4l3 2 2 3 1 3 4 10 1 7 1 6 2 14 2 7 1 7 2 7 2 8 2 7 3 6 4 7 3 4 4 4 5 3 4 1 12 1" style="clip-to-self:true;comp-op:src"/>
<path transform="scale(.1)" d="m3762.8 5170v-5l1-3v-6l-2-8-1-2-6-3-12 3-5 2-6 4-7 3-12 9-6 5-5 5-6 5-4 6-4 5-2 5-3 5-1 5-1 4v4l3 9 4 4 3 1h4 3l9-2 10-2 5-2 6-2 4-2 6-2 12-3h3l5 1 5 5 2 3 1 3 1 6v5l2 14v8l2 18v10l1 11v12 12 11 20 8 8 6l-1 6-2 5-1 5-2 4-3 4-5 5-3 2-3 1-4 1h-8-3l-5-1-3-2-4-1-3-3-4-5-2-6v-4l1-4 2-5 3-4 2-5 5-6 10-11 12-11 35-30 8-6 8-8 8-6 8-8 16-15 17-17 7-9 8-8 18-27 5-8 6-14 2-10-1-4-1-3-3-3-3-1h-4l-3 1h-5l-5 2-9 5-10 8-4 4-4 6-4 5-3 6-4 7-4 14-2 8-1 8v7 8l2 7 3 7 3 6 4 6 6 6 7 5 7 4 9 4 10 3 12 3 12 2 13 2h13 13l12-1 31-5" style="clip-to-self:true;comp-op:src"/>
<path transform="scale(.1)" d="m4378.8 5173.4-1-3-2-4-4-1-3 3-2 3-2 2-3 5-3 4-3 6-8 14-3 9-4 9-5 19-2 10-1 10v10l1 10 2 10 2 9 3 8 10 14 6 4 6 3 7 2 7 1h8l8-1 9-2 16-8 9-6 7-5 7-7 5-7 4-8 3-8 2-10 1-9v-9l-1-11-1-10-2-11-3-11-3-9-4-9-4-7-6-4-5-5-6-2-7-2h-6l-6 2-6 1-10 6-3 4-3 5-1 4-1 5 2 8 2 3 8 8" style="clip-to-self:true;comp-op:src"/>
<path transform="scale(.1)" d="m4501.6 5218.4 3-1 3-2 10-5 4-4 5-4 4-5 12-18 4-7 3-8 2-7 3-9 2-9 2-10 1-10 2-24v-12-13-12-11l-1-11v-10l-1-8-1-7-1-5-1-4-3-3-3 3-2 4-3 5-2 6-2 7-3 9-2 11-6 26-3 15-3 17-2 17-4 36-1 18-1 19-1 18v18 19 18l1 18 1 19 4 36 3 18 3 16 3 14 4 12 4 10 4 8 5 7 5 6 6 5 5 4 6 2 7 1h6 6l7-2 6-2 6-3 10-9 4-5 4-6 6-12 2-6 2-14v-7l-1-7-2-7-2-6-3-7-10-12-6-5-7-6-7-5-8-5-8-4-8-5-9-4-8-4-7-3-8-3-12-8-5-3-7-7-1-4-1-3v-3l2-4 2-2 3-4 5-4 4-2 6-4 5-3 7-3 6-4 7-3 7-4 16-6 7-3 6-3 7-3 6-2 4-3 12-5" style="clip-to-self:true;comp-op:src"/>
<path transform="scale(.1)" d="m4907.2 5088.4v7 8l-1 10-1 12-2 12-1 13-3 14-1 14-3 14-2 15-3 14-4 26-2 11-2 10-1 10-2 14-1 4v4l-1 3-1-6v-4l-1-5v-5-7l-1-7v-8l-1-8-1-9v-10l-1-11v-12l1-13v-15l2-16 6-36 4-19 5-19 6-18 7-17 7-15 8-13 7-11 8-10 9-7 8-5 9-5 8-2 8-1h8l8 2 8 3 5 4 5 5 4 6 2 8 1 8v9l-2 9-3 11-4 11-5 11-14 24-8 11-9 11-18 18-10 8-10 6-8 5-9 4-8 4-6 2-7 1-6 1h-9l-5-1-3-1h5l3 1 3 2 5 2 4 3 6 3 5 3 6 5 12 9 6 5 7 6 7 5 7 6 12 12 7 6 6 5 6 7 5 5 11 10 9 9 5 3 3 2 4 2 3 1 6-1" style="clip-to-self:true;comp-op:src"/>
<path transform="scale(.1)" d="m5086.9 5216.2 1 4v6l-1 3-1 4v5l-1 5-3 18-1 8v8 9 9l1 9v9l1 9v8l1 8 1 17" style="clip-to-self:true;comp-op:src"/>
<path transform="scale(.1)" d="m6927.5 4316.2-3-1-4 1-4 3-5 10-4 12-3 7-3 9-4 10-5 10-4 11-5 12-6 13-12 28-12 30-6 16-6 15-6 16-5 15-6 14-6 12-4 10-5 8-3 7-3 5-2 5-2 2 1-5 4-10 2-7 1-8 3-8 2-10 3-10 2-11 4-12 3-13 3-14 4-14 4-16 5-15 5-16 18-48 6-14 6-13 5-11 5-10 5-8 3-6 4-4 3-2 5-1 3 1 6 5 3 2 2 4 4 5 6 10 4 6 7 14 3 8 4 9 3 11 2 10 3 12 2 13 2 12 2 15 2 28v15l1 14v28 12 13l1 11v9l2 8v7l1 6 1 4 2 4 2 2 3 2 3-2 2-5 1-4v-5l-1-6-4-14" style="clip-to-self:true;comp-op:src"/>
<path transform="scale(.1)" d="m6853.8 4515.9v-4l2-3 3-4 3-2 4-3 4-2 5-2 5-3 6-2 12-6 14-4 8-3 16-4 8-3 8-2 9-3 16-6 17-8" style="clip-to-self:true;comp-op:src"/>
<path transform="scale(.1)" d="m7107.2 4373.8-2-3-3 1 1 4 3 3 3 6 4 5 2 5 1 3 1 8" style="clip-to-self:true;comp-op:src"/>
<path transform="scale(.1)" d="m7106.6 4527.2 2 2 3 2 3 1h3l4-1" style="clip-to-self:true;comp-op:src"/>
<path transform="scale(.1)" d="m7416.6 4338.4 2-6 2-5 1-4 3-5 2-3 3-4 3-2 8-6 4-1 4-2h5 4 3l4 2 2 2 4 8 1 6 1 7-1 8-2 18-2 10-4 11-4 10-4 11-12 22-5 11-6 11-6 10-5 10-6 9-5 9-12 24-2 6-3 6-2 6-1 4v5 4 3l2 4 5 2" style="clip-to-self:true;comp-op:src"/>
<path transform="scale(.1)" d="m7417.5 4581.6-2 2-2 3-3 5-2 4-3 5-3 4-2 6-3 5-3 10-2 5-2 9v5 4l1 5v3l3 4 2 3 2 2 4 2 8 2h5 5l15-3 5-2 5-3 8-6 3-3 2-4 1-3 1-4v-4-5l-1-4-4-8-7-7-12-6-5-2h-6l-5-1-6 1-10 2-5 2-5 3-7 6-4 3-3 4-3 3-3 10" style="clip-to-self:true;comp-op:src"/>
<path transform="scale(.1)" d="m6839.1 5008.8 1-4 1-5v-4l1 4v6 4l1 6v22l-1 10v10 11 12l-1 12-1 13-1 12-1 13v12l-1 12v24l1 10 1 11v8l1 8 1 6 1 5 1 3 2 3 3-4v-3l-1-10" style="clip-to-self:true;comp-op:src"/>
<path transform="scale(.1)" d="m6852.5 5060.3-2-4-4-6-2-2-2-6v-4l1-4 2-3 16-16 7-4 6-4 8-5 18-8 10-5 10-3 22-6 10-1h10 9l8 1 8 2 12 8 8 12 2 6 1 8v8l-1 9-2 9-3 9-4 9-5 10-7 9-6 9-8 9-9 7-8 8-9 7-10 6-18 10-8 4-9 4-8 3-7 3-6 2-5 2-4 1h-3l4-4 4-2 12-4 7-2 7-1 8-2 9-1 9-2h9l11-1h10l10 1 9 1 9 2 9 3 7 3 6 5 5 6 6 12 1 7v7l-1 8-6 14-4 7-5 7-6 6-7 6-7 5-8 5-9 5-9 4-10 3-9 3-11 3-20 4-10 1-9 1h-10-10-8l-9-1-7-1-7-2-5-2-4-3-3-3-2-3-1-3 1-4 2-4 3-4 8-8 13-12" style="clip-to-self:true;comp-op:src"/>
<path transform="scale(.1)" d="m7110.9 5077.2v-12l3 3 1 4v3l1 3v4l1 3v4 8l-1 4-3 9" style="clip-to-self:true;comp-op:src"/>
<path transform="scale(.1)" d="m7127.8 5241.2 3-1 2-2 3-2-7 2" style="clip-to-self:true;comp-op:src"/>
<path transform="scale(.1)" d="m7375 5037.5-3-4-6-2-5 1-3 2-3 3-3 5-3 6-2 6-4 8-3 9-3 10-4 11-3 10-2 12-3 11-3 12-1 11v12 11l1 12 1 10 3 10 3 8 4 7 5 5 4 5 5 3 6 1h5 6l7-2 6-3 6-4 7-4 12-12 5-6 10-14 4-7 6-16 4-16 1-7 1-6 1-5 1-4v-3l-2 4-2 10-1 6v13l1 6 1 7 1 6 2 6 2 5 3 5 3 4 4 4 4 2 5 2 4 1h6l6-1 18-6 12-8 5-5 8-10 3-6 1-6v-5l-1-6-1-7-3-7-3-6-5-6-4-7-11-11-7-4-6-3-8-2-7-1h-7l-8 1-8 3-14 8-6 5-5 5-4 6-2 5-1 5v4l1 4 2 4 10 7" style="clip-to-self:true;comp-op:src"/>
<path transform="scale(.1)" d="m7672.5 5067.2-3-3-7-2h-3-3l-4 1-4 3-4 2-5 4-8 10-5 7-4 7-5 8-4 9-8 19-4 10-6 20-4 20v9 8l1 8 2 7 2 5 3 5 3 4 4 4 5 2 4 2h5 4 5l10-4 5-3 5-4 5-3 4-5 5-5 5-7 4-6 4-7 5-8 8-18 5-10 8-22 4-13 3-14 4-15 3-17 2-17 3-19 1-20 4-40 2-18 1-17 2-15 1-12 2-10 1-8v-5-3l-2 4-1 5-3 8-2 10-3 12-3 14-3 17-3 19-3 21-4 44-2 42v20l2 36 1 16 2 14 3 14 4 10 4 9 4 6 5 5 5 2h5l6-1 5-4 7-4 6-6 13-19" style="clip-to-self:true;comp-op:src"/>
<path transform="scale(.1)" d="m7807.8 5090v-6-10-5l-1-3-3-2-4 3-2 3-4 10-2 6-1 7-4 16-2 18v9l1 9v9l2 8 1 8 2 8 2 7 3 6 4 5 3 4 4 3 4 2h4l5-1 5-2 4-4 5-3 5-5 4-5 3-6 3-7 2-7 1-7v-8-8l-4-16-9-27-7-15-4-6-3-5-4-4-4-2-4-1-4 1-5 2-8 8-3 5-2 6-2 5-1 7-1 5 2 12 2 4 2 5 2 3 8 9" style="clip-to-self:true;comp-op:src"/>
<path transform="scale(.1)" d="m7941.2 5071.9 1-4 1 4-1 3v4 5l-1 5v6l-2 14-1 8v9l-1 9-2 10-1 9-2 10-3 30-1 8v7 10 3l1 3 2-3 1-3 3-4 2-5 1-5 3-7 2-7 3-8 3-7 3-8 3-9 8-18 5-9 4-9 6-9 5-7 6-7 10-10 6-4 4-2h3 4l5 5 1 4 2 10 1 7v7l1 7v7l1 8v15 8 8l2 12v5l2 4 3 5h4l3-1 3-3 4-3 3-4 4-5 6-12 4-7 6-16 2-8 3-8 3-7 3-8 3-6 3-7 3-5 2-4 3-2 4-1 2 4 1 4 1 5 1 6v7l1 7v8l1 8 1 9v8l1 8 2 9 2 8 3 7 2 7 4 6 4 5 3 4 5 3 4 1 5-1 13-4" style="clip-to-self:true;comp-op:src"/>
<path transform="scale(.1)" d="m8245.6 5099.1 1-6 1-5v-7-6l-1-4-2-4-6-2h-3l-8 4-6 4-4 5-5 6-5 7-4 7-5 8-3 8-4 9-3 9-2 8-2 9-2 8-1 8v8 7 7l1 6 1 5 2 5 2 3 6 2 4-1 8-4 5-4 4-4 10-12 6-5 5-8 10-14 12-24 8-14 3-6 3-5 4-8v4l-2 10-1 6-2 14v8 7 8l1 7 3 15 3 5 3 6 4 5 4 4 5 4 5 3h5 6l12-4 6-4 5-5 6-5 5-7 6-7 5-7 8-17 4-9 2-10 3-9 3-10 2-10 1-8 1-7 1-6v-5l-1-3-3 4-2 5-2 6-2 7-2 8-1 9-2 9-1 10-1 9v9l1 10 1 9 1 8 2 8 3 7 3 8 4 6 4 5 4 4 5 2 5 1 5-1 4-2 5-4 4-5 10-18" style="clip-to-self:true;comp-op:src"/>
<path transform="scale(.1)" d="m8361.2 4975.9-4 6-4 8-2 5-2 6-1 6-2 6-1 5v6 6l3 9 2 4 2 3 4 3 3 1 4 1h5l4-2 6-1 4-4 6-4 4-4 9-12 4-6 3-6 4-14v-6l1-7v-7l-1-7v-6l-1-6-1-5-2-5-2-4-4-3-4 2-5 5-6 15-2 6-2 7-3 19" style="clip-to-self:true;comp-op:src"/>
<path transform="scale(.1)" d="m8479.7 5142.8-2-3 1-4 3-4 5-4 2-3 3-3 4-3 3-3 5-4 5-3 9-7 10-6 4-3 4-1 4-2 3-1 5-1 5 1 4 3 2 3 1 3 1 4 1 5v5 14 7 7l-2 16-1 7v21l1 6 1 5v4l1 3 2 5 4 1 3-1 3-4 2-3 1-4 2-4 1-4 2-5 2-10 2-5 2-6 1-7 2-6 3-7 2-7 3-8 4-8 5-9 10-16 19-19 6-5 6-4 6-3 5-3 5-2h5 5 3l8 4 3 4 2 3 6 15 2 7 1 6 1 7 1 8v24l-1 9-3 24v8l-1 7-1 6v11l1 4v3l1 4 3 3 3 1 5-2 4-5 7-7" style="clip-to-self:true;comp-op:src"/>
</g>
<g stroke="#f0f" stroke-width="14.1">
<path transform="scale(.1)" d="m5813.4 6197.8v-10l-1-3v-3l-2-4-3-1-3 2-2 3-3 4-2 4-3 5-2 7-4 7-2 8-3 9-2 10-3 10-1 12-2 13-2 16-1 16-1 19-1 21-2 20v21l-1 19-1 17v15l1 14 1 13 2 11 2 12 3 10 3 9 3 8 3 6 4 6 4 4 4 3 5 2 5 1h6l7-1 7-2 7-3 16-8 16-10 8-6 9-6 7-6 8-6 6-5 6-7 5-5 8-12 3-7 7-14" style="clip-to-self:true;comp-op:src"/>
<path transform="scale(.1)" d="m5765.3 6218.8 3-4 11-11 12-6 7-4 8-3 9-3 10-4 33-9 20-4 10-1h8l12 2 4 1 3 1 1 6" style="clip-to-self:true;comp-op:src"/>
<path transform="scale(.1)" d="m5785.9 6374.7 6-4 5-3 5-2 10-6 7-3 6-4 7-3 8-3 8-4 21-6 6-1 5-2h5l9-1" style="clip-to-self:true;comp-op:src"/>
<path transform="scale(.1)" d="m5926.2 6345.3 4 3 5 3 3 3 3 4 9 9 5 4 5 6 7 5 12 12 19 18 6 7 6 6 11 12 5 5 4 5 4 4 4 3 4 1 7 2" style="clip-to-self:true;comp-op:src"/>
<path transform="scale(.1)" d="m6019.4 6339.1-1-3-1-6-4-3-5 1-3 4-1 3-2 4-1 4-2 7-3 6-2 8-2 9-2 10-6 22-2 11-3 12-1 11-2 12-2 11-2 10-2 18-1 7-1 13" style="clip-to-self:true;comp-op:src"/>
<path transform="scale(.1)" d="m6122.5 6368.4 4 2 3 2 2 4 1 4 2 5 1 7v7l1 8v19l-2 22-2 11v13l-2 12-2 13-1 12-3 13-2 14-1 13-2 13-2 12-1 10-1 9v8 10 4l1-4v-22-7l-1-9-2-9-1-10-2-11-3-11-6-24-3-14-2-14-2-32 2-32 6-32 5-15 5-13 6-12 6-10 7-8 7-7 8-6 8-4 18-6 16-2 9 1 8 2 7 4 6 4 7 6 5 7 3 8 3 9 1 10v12l-1 12-2 12-3 12-4 11-5 11-6 11-14 18-7 7-8 6-8 5-7 4-8 2-6 2h-6-5l-4-2-4-3-2-4-1-5-1-6 2-19" style="clip-to-self:true;comp-op:src"/>
<path transform="scale(.1)" d="m6314.1 6435.6 4 2 2 3 4 2 5 2 4 1h3 3 4 4l5-1 4-1 10-2 6-3 6-2 5-3 6-3 6-4 7-5 6-4 11-11 5-6 4-7 3-6 1-6 2-6v-7l-2-6-1-5-3-6-3-4-4-4-6-3-5-1-8-1h-7l-8 1-8 2-8 3-9 4-8 6-9 6-8 8-16 20-7 12-6 11-6 12-8 24-2 11v11 11l2 9 8 16 7 6 7 5 9 4 9 3 11 2 11 1h12l12-2 12-1 13-3 13-4 13-5 12-5 29-13" style="clip-to-self:true;comp-op:src"/>
<path transform="scale(.1)" d="m6605.3 6360.9 1-5v-4l-2-3-4-4-8-2h-5-6l-6 1-7 3-9 2-8 3-9 5-10 5-9 6-9 8-9 7-16 16-7 9-5 9-4 9-2 9-1 9 1 9 1 8 4 8 5 7 6 6 7 6 8 4 10 4 10 3 10 2 11 1h12 12 12l13-1 24-4 12-4 22-10 9-6 19-17" style="clip-to-self:true;comp-op:src"/>
<path transform="scale(.1)" d="m6698.4 6215.3v3l-1 6-1 5v24l1 7v8 8 17 10l-1 11-1 12-2 26-2 15-2 14-1 13v14l-1 11v10 10l1 8v7l1 6 1 4 2 4 1 3 2-4 1-9" style="clip-to-self:true;comp-op:src"/>
<path transform="scale(.1)" d="m6590.9 6352.2-2-8v-4l7-7 4-2 4-3 6-4 14-7 9-3 10-4 11-4 24-6 25-6 12-4 22-6 25-6" style="clip-to-self:true;comp-op:src"/>
<path transform="scale(.1)" d="m6939.4 6322.5v4 4 6 6l2 16 1 10v10 10l1 12 1 11 2 11 1 12 2 11 3 10 2 10 3 9 3 8 3 7 5 6 3 4 5 4 4 3 4 2 4 1h4l8-2 6-6 3-4 4-12 2-7 3-27v-11l1-12v-13-13l1-15 2-28 2-14 2-11 3-10 2-7 2-5 2-4 4-2 3 4 4 11" style="clip-to-self:true;comp-op:src"/>
<path transform="scale(.1)" d="m7136.2 6403.1 5-4 3-5 10-12 3-7 2-7 2-6 1-6v-5l-2-8-2-3-3-3-4-2h-4l-5 1-6 2-7 3-7 6-8 6-8 8-16 18-14 22-5 11-5 10-4 11-3 11-2 10-1 9v9l1 9 1 7 2 5 3 6 7 7 4 2h5l5 1 12-2 6-2 6-3 6-4 6-5 5-4 6-6 5-6 5-7 4-7 5-8 4-7 4-8 8-14 6-12 2-3 3-3 2-1 2 5v6 4l4 24 4 13 2 5 2 6 3 5 2 5 2 3 2 4 6 7" style="clip-to-self:true;comp-op:src"/>
<path transform="scale(.1)" d="m7234.4 6371.2 1-3 1-4 2-2 4-1 5 1 3 1 3 3 3 2 4 4 3 6 5 5 3 7 4 7 6 16 3 9 3 8 1 9 2 9 4 32v6 6 4 3l-1 5-4-2-2-5-1-4v-4-11-7l1-7 2-8 2-9 3-9 3-10 5-10 4-11 6-12 6-11 7-12 7-10 9-10 7-8 8-6 8-5 7-4 6-2 5-2h8l2 1 7 6" style="clip-to-self:true;comp-op:src"/>
<path transform="scale(.1)" d="m7399.4 6344.7v18l1 5 1 14v7l1 8v15 9 8 17l-1 8v35l2 6 1-4v-3-11" style="clip-to-self:true;comp-op:src"/>
<path transform="scale(.1)" d="m7402.8 6225.3-1-3v-5l-2-5-1-4-1-2-4 3-3 5-2 4-1 3-1 5-1 4v5 4 5l3 8 1 5 2 4 3 3 2 3 6 4 4 2h3l4 1h3l4-1h3l4-1 3-2 5-5 2-3 2-4 1-3 1-4v-5l-1-4-2-6-1-5-3-5-3-6-2-6-4-6-3-5-4-4-9-6-4-1h-5-5l-5 2-5 4-4 4-5 4-4 5-3 6-3 5-4 17" style="clip-to-self:true;comp-op:src"/>
<path transform="scale(.1)" d="m7557.8 6386.2 2-4 2-5 3-7 3-6 2-12v-5-5l-1-4-2-3-3-2-3-1h-5l-5 1-6 2-7 4-8 5-8 6-7 8-8 9-7 9-6 9-6 10-5 10-4 10-3 10-2 9-2 17v7l1 6 2 6 3 3 3 4 8 4h5 6l6-1 6-2 7-3 8-3 14-8 7-5 6-5 11-11 4-5 7-7 4-6-3 12-2 5-2 10-1 6 2 10 2 5 5 9 4 5 5 4 5 3 7 3 6 1 7 1h7 8l8-1 7-2 7-4 7-3 8-5 12-12 12-16 5-9 4-11 5-12 3-13 8-40" style="clip-to-self:true;comp-op:src"/>
<path transform="scale(.1)" d="m7716.2 6226.6-2-6-2-5-3-5-2-5-2-4-6-6-2 4v20l1 8v9l1 9v11l1 11v12 13l1 15-1 16v35l1 17v17l2 17 1 14 3 14 2 11 4 10 3 8 4 6 5 6 10 6 5 1 6 1 6-1 12-4 6-3 5-4 5-5 4-6 4-7 3-8 3-21" style="clip-to-self:true;comp-op:src"/>
<path transform="scale(.1)" d="m7672.8 6360-3-1 2-2 3-2 4-3 4-2 5-3 6-3 6-4 8-3 7-4 8-5 8-4 9-4 8-4 10-4 9-4 8-4 16-6 7-2 6-1 5-1h5l3 1 4 4 2 3v6 6l-1 8-1 9-1 10-2 11-6 39-2 14-1 13-1 14v12l1 11 1 10 2 9 4 8 3 8 8 10 8 6 4 1 10-2 11-7" style="clip-to-self:true;comp-op:src"/>
<path transform="scale(.1)" d="m7851.6 6234.7-4-6h-3l-6 3-2 3-4 3-4 4-3 4-3 5-4 5-2 6-5 13-2 7-1 8v7 8l1 7 2 6 3 7 4 6 9 9 6 2 7 2 6 2h6l8-1 7-2 6-2 6-3 6-4 5-5 4-5 3-6 4-6 1-6 1-7v-7-6l-1-7-1-6-2-5-2-4-3-4-4-2-3-2-5-1-8 2-5 1-10 8" style="clip-to-self:true;comp-op:src"/>
<path transform="scale(.1)" d="m7979.1 6393.1-3-1-6-1h-4l-4 1-5 1-5 3-4 3-10 8-4 4-4 6-4 5-3 6-3 7-6 18v6 6l1 6 4 10 2 4 3 3 4 3 3 3 3 2 4 1h4 3 4l6-4 3-3 1-2 3-4 1-3 1-5 1-4v-6-5l1-5v-6l1-12 1-7 4-12 5-13 4-5 5-6 5-5 6-5 5-3 6-4 7-2 6-2 6-1h5l12 2 5 2 8 6 3 4 6 10 2 6v6l1 6v6l-2 14-4 14-3 7-2 6-3 6-3 5-4 8v2l-3 4v-4l3-5 4-10 4-5 3-7 12-21 15-24 12-18 14-18 16-18 9-7 8-7 8-5 7-3 6-1h5l5 2 2 3 2 4 2 6v8 8l-1 9-3 20-2 9-2 11-2 10-2 9-2 10-2 9-1 8v8 6l1 6 2 3 2 4 2 1h4l4-1 10-6" style="clip-to-self:true;comp-op:src"/>
<path transform="scale(.1)" d="m8278.1 6327.2v-3l-3-6-3-3-3-1h-4-4l-5 1-5 2-4 3-5 3-10 8-3 4-4 5-2 5-1 5-1 6v5l1 6 2 5 3 6 7 11 4 6 5 6 5 5 6 5 5 6 7 5 12 12 5 6 5 7 4 6 3 6 2 12v5l-2 5-2 4-3 5-3 3-5 4-4 2-5 3-5 1-6 2-6 1-5 1h-5l-6-1h-4l-10-4-4-3-3-3-7-10" style="clip-to-self:true;comp-op:src"/>
<path transform="scale(.1)" d="m8635.3 6287.5 5-1 3 1 5 2 1 3 2 4 1 5v6 7 26 11 10l-1 11v11l-1 11v39l1 8v7l1 6 2 6 1 5 2 3 3 4 3-3 2-7" style="clip-to-self:true;comp-op:src"/>
<path transform="scale(.1)" d="m8617.5 6178.1v-3l1-4 3-1 2 2 3 4 2 2 1 4 2 3v3 4 15 3l3 6" style="clip-to-self:true;comp-op:src"/>
<path transform="scale(.1)" d="m8748.1 6327.5 1 5-2 12-1 7-2 8-2 18v10l-1 11v10 10l-1 10v27l1 8 1 7v5l2 5 2 3 2 4 4 2h4l4-5 2-3 3-4 2-6 2-5 2-7 1-7 3-7 1-9 4-18 2-11 2-10 4-12 3-12 5-12 6-12 7-11 7-10 7-9 8-8 8-5 7-4 7-2 6-1 7 1 6 1 5 3 5 4 4 5 6 14 4 18v10l1 11-2 24-3 12-2 14-4 12-3 12-4 12-3 12-8 22-3 10-6 18-1 6-2 6-2 10" style="clip-to-self:true;comp-op:src"/>
<path transform="scale(.1)" d="m6741.9 6875-2-4-1-3-4-10-11-11-10-6-12-4-7-2-7-1-8-1-8 1-9 1-10 2-9 3-20 10-10 7-11 8-18 18-8 11-7 11-5 11-4 11-2 11v11l1 10 2 9 4 9 5 7 6 6 7 5 16 6 8 1 10 1 9-1 10-2 9-2 9-4 9-5 8-5 9-6 14-16 7-10 5-9 5-11 5-12 4-12 3-12 6-28 2-14 2-16 3-16 1-17 2-17 1-17 2-15 1-14 1-13v-9l-1-7v-4l-3 7-1 8-1 10-1 11-2 28-1 15-3 48v16 16 15l1 15 2 14 3 13 2 11 4 10 4 8 6 7 5 6 6 3 7 3 7 2h7l8-1 16-4 8-3 8-5 7-5 6-6 12-15" style="clip-to-self:true;comp-op:src"/>
<path transform="scale(.1)" d="m6858.8 6881.9 1 3 3 1h4l6-2h5l4-1 10-4 6-2 5-3 6-3 6-4 5-3 13-13 3-5 2-4 1-5v-5l-1-4-1-3-3-3-4-2-5-2h-6-7l-8 2-8 3-20 10-11 7-11 8-11 9-9 9-8 9-7 10-5 11-4 10-2 10v10l1 9 3 9 4 8 6 7 7 6 8 4 9 4 10 4 22 2h11l22-2 11-3 20-8 8-6 18-14" style="clip-to-self:true;comp-op:src"/>
<path transform="scale(.1)" d="m7050.3 6812.8 3-4 3-3 3-4 6-10 2-5 1-6v-5-7-6l-1-7-6-21-3-7-3-5-4-5-4-4-8-6h-4-5l-4 1-4 3-3 5-4 7-3 8-2 10-3 10-1 12-2 12v13 43 14 46l-1 16v17l-1 16-1 17-2 30-1 16-2 14-2 13-2 12-2 11-3 10-3 8-3 7-3 6-4 5-3 2-4 2-4 1-6-3-3-2-3-5-9-13" style="clip-to-self:true;comp-op:src"/>
<path transform="scale(.1)" d="m6979.4 6938.4 5-3 4-3 13-10 14-10 16-10 9-5 8-5 10-6 8-5 9-5 8-4 9-5 8-4 7-4 6-3 6-2 5-2h4l5 1 2 4 1 4-1 4-2 12-2 7-2 8-6 27-1 9-2 10-1 9v8 8l2 7 1 7 1 5 3 5 2 4 4 2 3 2h4l3-1 4-1 5-3 4-4 3-4 8-13" style="clip-to-self:true;comp-op:src"/>
<path transform="scale(.1)" d="m7163.8 6782.5-3-2-3 4-3 5-2 3-1 4-2 4-1 4v5 4l1 5 1 4 2 5 2 3 2 4 2 3 6 4 3 1h7 3l4-1 2-1 6-4 2-3 1-3v-3-4-4l-1-4-2-4-3-5-3-4-3-5-13-13-10-6-4-1h-6-5l-4 1-5 2-7 7-3 5-2 5-1 6-2 6v6 7l3 17" style="clip-to-self:true;comp-op:src"/>
<path transform="scale(.1)" d="m7212.2 6939.4 3-3 2-4 16-16 4-5 30-30 5-4 4-3 4-2 4-3 4-1h5l3 4 1 3v4 11 7l-1 6-2 16-1 9v8 15 7l1 6 2 5 1 6 2 3 2 4 4 3h4l5-3 6-6 2-5 3-4 4-6 3-5 3-6 4-7 3-6 5-7 4-7 5-7 6-8 5-8 6-8 7-7 8-7 7-7 7-6 6-4 5-3 5-1 5 1 2 6v5 6l-2 6-1 8-2 8-4 18-3 8-2 9-1 9-2 16v7l1 6 2 7 2 4 3 4 3 3 10 2 12-2 6-2 5-4 6-4 6-5 5-6 13-17" style="clip-to-self:true;comp-op:src"/>
<path transform="scale(.1)" d="m7521.9 6823.1-1-3v-3-4l-1-4-1-3-3 2-7 14-3 7-4 8-6 16-3 9-3 10-4 18-1 10v9 9l2 8 3 8 4 7 5 7 6 4 7 5 8 3 18 4h11 10l10-1 10-2 9-3 8-4 16-11" style="clip-to-self:true;comp-op:src"/>
<path transform="scale(.1)" d="m7532.2 6708.4-2-1-2-3-4-2-3-2-3-1-6 1-4 4-5 4-1 4-2 6v4 4l2 3 1 4 3 4 3 3 5 3 4 2 5 2 5 1h6 5 5l6-1 4-2 5-3 3-3 6-8 1-4 1-5-1-5v-5l-1-5-6-8-2-3-8-4h-4-5l-4 2-10 6-8 12-4 7-6 18-2 10-1 10 2 26" style="clip-to-self:true;comp-op:src"/>
<path transform="scale(.1)" d="m7680.6 6740v-6-4-3-3l-1-4-1 7v12 8 10l-1 10v11 12l-1 12v54l1 14v14l2 28 1 13 2 24 2 11 3 10 1 8 3 8 3 6 3 5 4 4 4 2 10 2 12-2 12-6 12-10 6-6 6-8 14-20" style="clip-to-self:true;comp-op:src"/>
<path transform="scale(.1)" d="m7684.4 6864.1-1-3-1-4 3-4 5-4 4-3 4-2 5-3 6-3 7-3 8-4 8-3 17-5 18-4 8-2 16-2 7-2 12-2 13-2" style="clip-to-self:true;comp-op:src"/>
<path transform="scale(.1)" d="m7894.7 6810-1-3-1 4-1 3-2 4-1 4-1 6-2 6-1 8-2 7-2 19-1 10v10l-2 20v11 20 9l1 8 1 7 2 6 2 5 2 4 2 3 5 2 3-1 2-3 7-8" style="clip-to-self:true;comp-op:src"/>
<path transform="scale(.1)" d="m7872.2 6732.2-6-4-4-3-3-2-8-2-4 3-3 4-1 4v3 5l1 4 7 14 4 4 10 8 7 3 6 3 7 3 8 2 16 2h7 13l5-1 4-1 3-2 1-4v-3l-4-8-3-4-13-13-6-4-12-6-6-2-6-1h-7-6l-6 2-5 3-6 3-5 6-4 5-6 14-2 8-1 8v9l4 22" style="clip-to-self:true;comp-op:src"/>
<path transform="scale(.1)" d="m8044.4 6854.1-2-3-4-3-6 1-2 2-4 2-3 4-4 4-4 5-3 6-4 6-3 8-3 7-3 8-1 7-1 9-1 8 1 9 1 8 2 8 3 7 4 7 10 12 6 4 7 4 7 3 8 3 8 2 9 1h8l9-1 10-1 8-2 8-3 14-8 6-5 4-5 6-14 1-7 1-8-1-8-1-9-4-18-6-18-4-8-4-7-5-7-5-5-6-4-8-4-7-2-7-1h-8l-7 1-14 4-7 4-5 3-5 4-6 10-2 7-1 6 1 6 1 7 3 7 3 5 4 5 9 9 15 7" style="clip-to-self:true;comp-op:src"/>
<path transform="scale(.1)" d="m8203.8 6883.4v-2l2 4v6 8l1 5v28l-2 10v5l-2 8-1 5-1 2v-2-9l1-3v-5l1-5 2-5 4-12 3-6 2-7 4-7 4-6 10-14 6-7 14-14 8-6 9-6 8-6 8-4 7-3 6-1h6l4 1 4 3 4 4 5 10 1 6 1 8v8l1 9-1 9v9 9l-1 9v9 9 8 8 7l2 7 2 5 2 4 3 3 3 2 4 1h4l6-1 5-2 5-3 15-10" style="clip-to-self:true;comp-op:src"/>
<path transform="scale(.1)" d="m8490 6833.8v-5-4l-1-3-3-4-5-1-3 1h-4l-4 1-5 2-15 9-5 4-10 10-8 12-3 6-5 12-2 14 1 6v6l2 7 2 6 3 6 4 6 4 5 5 5 4 5 5 5 11 9 4 5 5 4 4 5 3 4 4 8v3 3l-4 6-3 3-5 2-10 3-7 2-14 2h-7-14-7l-7-1-16-3" style="clip-to-self:true;comp-op:src"/>
</g>
</g>
</g>
</svg>
