<?xml version="1.0" encoding="UTF-8"?>
<svg width="1e3pt" height="800pt" version="1.2" viewBox="0 0 1e3 800" xmlns="http://www.w3.org/2000/svg">
<g id="surface85">
<rect width="1e3" height="800" fill="#20282d"/>
<g fill="none" stroke="#fff" stroke-linecap="round" stroke-linejoin="round" stroke-miterlimit="10">
<g stroke-width="14.1">
<path transform="scale(.1)" d="m3906.9 448.44-4-6-2-4-4-3-5-3-5-1h-5-6l-7 1-6 3-7 2-8 4-7 4-9 6-8 6-8 8-8 9-9 11-8 13-9 14-8 17-8 19-7 20-7 22-10 44-4 21-1 20-1 18 2 17 2 14 5 12 5 10 8 7 8 6 8 5 10 3 11 1 11-1 12-2 12-4 12-5 13-7 12-8 12-9 13-11 22-26 10-15 9-17 7-17 7-20 5-21 4-23 3-22 2-22 1-21v-19l-1-16-4-15-5-12-6-9-8-8-9-5-11-4-10-2-13-1-24 2-12 2-22 8-10 4-9 6-8 6-6 6-5 7-3 7-2 8-1 7 2 8 2 9 3 8 3 9 11 21" style="clip-to-self:true;comp-op:src"/>
<path transform="scale(.1)" d="m4015 545.62-3-5-5-8-2 3v8l-1 7v8 11l-1 13v15l-1 17v17l-1 19-2 37v17 47 14l1 12 1 10 1 8 1 6 1 5 2 3 2 2 2-6 1-5 1-6v-7-18-10l-1-10-1-12-2-12-2-13-4-30-1-16-1-18v-35l2-16 1-15 2-13 3-11 6-18 5-7 4-6 6-5 6-4 7-4 8-3 8-1 9-2h9l9 1 9 2 7 4 7 6 5 6 5 9 3 10 1 11v13l-1 14-3 15-5 16-5 15-14 28-8 13-7 11-14 18-12 12-5 4-4 3-4 1-5-1-3-3-1-4v-15" style="clip-to-self:true;comp-op:src"/>
<path transform="scale(.1)" d="m4152.5 695.94 4 1 3-1 5-3 3-2 3-3 4-3 15-15 3-5 3-4 6-10 1-6 2-5v-5-5-4l-2-4-2-2-3-2h-4l-4 1-5 1-6 3-6 5-12 12-6 7-6 8-10 18-5 10-3 10-4 10-2 9-1 10v8l1 8 2 7 4 6 3 5 10 6 6 2 6 1h7l7-2 8-2 7-4 8-5 8-4 8-7 7-7 7-6 12-16 5-9 5-8 5-10 12-27 3-9 4-7 3-7 2-5 3-4 2-3 5-2 5 3 3 3 3 4 2 5 2 6 3 8 1 8 2 9 3 20 1 10 1 11v10l1 10v9 8 7l1 5v5l-1 4v3l-2 4-3-1-2-4-1-3-1-5-2-6-1-6-1-8v-9-9-10l1-12 2-11 2-13 12-39 6-12 5-11 6-9 5-8 6-6 5-4 5-3 5-1h5l4 1 11 8" style="clip-to-self:true;comp-op:src"/>
<path transform="scale(.1)" d="m4495.3 633.44-2-3-3-2-4-4-4-2-5-2-6-1-5 1-7 1-7 2-8 4-14 10-14 14-6 8-10 18-8 20-2 9-2 20v8 8l1 7 2 6 3 4 3 3 4 2 4 1h5l6-2 6-3 6-4 6-6 7-6 5-7 6-8 6-7 4-9 5-7 6-16 2-6 2-5 1-5 1-7 1 4v12l2 12 1 7 1 6 3 8 6 14 4 7 4 6 5 5 6 5 6 3 5 2 6 1h7l12-4 5-4 6-5 5-5 5-7 5-8 4-8 4-10 3-10 3-11 4-26 2-15 1-16v-18-18l1-19v-53-15-11l-1-8v-7l-1-3-2-4-1 4v18l1 10v10l1 12 1 13 1 15 2 32 2 18 2 17 1 18 2 17 3 14 2 15 3 12 3 11 3 9 2 9 3 5 2 5 3 4" style="clip-to-self:true;comp-op:src"/>
<path transform="scale(.1)" d="m4497.2 674.38 15-15 21-15 9-6 8-6 10-6 10-7 10-6 22-12 12-6 11-5 12-5 11-4 10-3 9-2 8-1 7-1 6 1 4 1 4 3 2 4v5 6l-1 8-3 8-3 10-3 11-5 12-4 12-5 12-4 13-5 12-4 12-3 11-3 10-1 9-1 8v7l2 6 2 4 2 3 4 3 5 1h5 6l7-2 6-3 8-3 14-10 7-6 6-7 5-8 10-18 6-22 2-12 2-24-1-12-2-11-8-18-5-7-7-5-7-4-9-2-8-1-9 1-10 3-16 8-8 7-5 6-4 6-3 7-1 7v5l6 13" style="clip-to-self:true;comp-op:src"/>
<path transform="scale(.1)" d="m4825 589.38 3 5 2 4 2 5 1 7 2 6 2 7 1 8v8l2 18v10l1 10-1 10v10l-2 18v9l-1 7-1 6-2 5-2 4-2 3-5 1-3-1-4-2-3-3-3-4-4-6-2-6-3-6-1-8v-9-9l1-10 3-10 3-11 5-12 5-13 8-13 8-14 9-13 9-14 11-13 11-11 11-10 12-8 22-14 10-6 8-4 17-9" style="clip-to-self:true;comp-op:src"/>
<path transform="scale(.1)" d="m5101.2 459.69v-4-3l-2-6-1 3v4l1 6 1 7 1 8v11l1 11v14l1 15v17l1 19v21l1 22v22 21l1 19v18 15l1 14 1 11v10 7 6 4l-1 3-4-3-9-18" style="clip-to-self:true;comp-op:src"/>
<path transform="scale(.1)" d="m5027.2 491.56 2-7 3-7 3-8 4-8 5-8 7-7 8-6 9-5 11-5 12-4 13-5 13-3 13-2h12l11 1 11 2 10 4 8 6 6 8 6 9 4 10 2 12 1 13v16l-3 17-4 18-5 19-6 20-16 40-9 17-9 16-9 13-9 10-8 8-8 6-7 4-7 3h-6-5l-4-2-4-4-2-5-1-7v-8l6-25" style="clip-to-self:true;comp-op:src"/>
<path transform="scale(.1)" d="m5247.5 604.69-1-4-1-5v-5-5l2-8 2-2 4-1h4 5 6l6 2 7 3 6 4 6 6 5 7 6 9 4 9 5 11 3 11 2 12 3 13v13l1 14-1 13-1 14-3 12-2 10-3 9-3 6-2 5-4 3-3 2-4 1-8-2-4-3-4-4-3-5-4-7-2-7-2-8-1-10v-10-10l2-12 2-13 4-12 5-14 6-13 14-24 9-11 10-10 20-16 9-6 23-10" style="clip-to-self:true;comp-op:src"/>
<path transform="scale(.1)" d="m5421.2 624.69-4 10-5 7-4 6-5 7-9 16-5 8-4 8-3 7-3 8-2 6-1 7v5 5l1 5 1 3 6 6 5 1 4 1h6l6-2 14-6 8-5 7-5 7-6 12-12 5-7 4-8 3-7 1-8 2-8-1-7-2-8-2-7-3-7-4-6-5-5-12-8-7-2-14-2-8 1-14 4-5 3-5 4-4 3-1 4-1 3 8 7" style="clip-to-self:true;comp-op:src"/>
<path transform="scale(.1)" d="m5556.6 584.06-4 2-3 2-3 4-4 4-3 5-3 7-4 8-3 8-2 9-3 10-2 10-1 11-2 13-1 13v15 33 19l1 19 2 36 2 18 3 15 3 14 2 12 4 9 3 9 4 6 2 4 3 3 2 1v-5l-2-5-1-5-3-7-4-8-4-9-5-10-6-11-6-12-7-13-14-28-8-14-14-30-6-14-8-28-1-14-1-13 1-13 1-12 4-12 5-12 6-10 7-10 9-10 10-8 10-6 12-6 24-6h12 12l11 1 12 3 10 4 9 6 8 6 8 8 6 9 4 9 3 10 1 11-1 12-2 11-4 11-5 12-7 11-8 10-10 10-20 16-11 6-10 4-11 3-10 1h-10l-9-2-8-3-7-4-5-5-3-7v-21" style="clip-to-self:true;comp-op:src"/>
<path transform="scale(.1)" d="m5695.9 651.88-4 3 5 1 3-2 3-3 5-3 4-4 5-4 4-4 5-6 4-5 4-6 4-5 4-6 5-11 1-5 1-4-1-3-5-3h-4l-5 2-7 3-7 4-16 12-8 9-7 8-8 10-7 10-12 22-8 22-2 11-1 10v8l1 8 3 7 3 5 5 4 5 2 6 2h8l7-1 8-2 18-8 18-12 9-7 16-16 7-8 12-18 4-10 5-9 6-16 2-7 1-7 3-12 4 2 2 3 3 4 6 10 3 7 4 8 3 8 3 9 3 10 3 11 2 11 1 11 1 12 1 11v10 9l-1 8-1 6-1 5-2 4-2 3-6 2h-3l-4-2-4-4-3-4-3-6-3-8-2-8-1-9v-10-11l1-11 2-11 3-11 4-11 5-12 6-10 7-11 7-9 16-16 9-7 9-5 9-4 8-4 8-3 7-2 16-2" style="clip-to-self:true;comp-op:src"/>
<path transform="scale(.1)" d="m5978.1 481.56-1-4v-5l-1-4v-3-3l2 3v3l2 4 1 6 1 7 1 8 1 9 1 12 2 12 1 14 1 16 1 17 1 18 1 19 6 57 3 17 2 15 3 14 4 12 4 10 4 7 5 7 5 4 4 3h6 4l6-2 4-4 11-13" style="clip-to-self:true;comp-op:src"/>
<path transform="scale(.1)" d="m5936.2 647.5-1-4 1-5 6-6 12-8 7-4 9-5 8-6 11-5 10-5 11-5 12-4 13-5 12-4 13-3 12-3 10-1 10-2h9l7 2 6 2 4 3 4 4 2 5 4 14v9 10l-1 10-2 24-2 13-2 24-1 11v18l1 7 1 5 2 4 2 3 4 2 4-2 2-3 2-5 1-5 4-17" style="clip-to-self:true;comp-op:src"/>
<path transform="scale(.1)" d="m6082.8 520.31 2-8 1-5 4-8 4-3h4l4 1v4l-1 8" style="clip-to-self:true;comp-op:src"/>
<path transform="scale(.1)" d="m6180.3 653.12-3 2-3 3v4l3 1h5l3-1 4-1 10-4 6-3 5-3 7-4 5-4 7-4 5-5 6-5 4-5 8-12 2-5 1-6 1-4-1-4-3-4-2-2-4-2h-5-5l-6 2-6 3-6 4-7 4-5 6-6 7-10 16-5 9-3 8-4 18-1 9v8l1 8 2 7 3 7 10 10 6 4 9 3 8 2 11 2h11 12 12l13-2 12-2 12-4 11-4 11-5 10-6 24-17" style="clip-to-self:true;comp-op:src"/>
<path transform="scale(.1)" d="m6405.6 575 2-3 1-4 2-4 2-3 1-4 1-3v-4l-2-3-3-3h-6-3l-4 1-8 4-5 3-5 4-10 9-5 6-5 5-8 13-3 6-3 7-1 6v6 5l4 10 6 8 5 4 5 3 6 3 7 3 6 2 7 2 8 3 6 2 7 3 6 2 5 3 3 3 3 2 1 4v3l-1 3-2 3-3 4-4 3-5 4-6 2-6 3-6 2-14 4-7 1h-7-20-7l-6-2-7-1-22-11" style="clip-to-self:true;comp-op:src"/>
</g>
<path d="m376.34 89.438h271.97" stroke-width="1.41" style="clip-to-self:true;comp-op:src"/>
<g stroke-width="14.1">
<path transform="scale(.1)" d="m3019.4 1681.9-1-5-2-3-1-3-2-4-1-3v4 4 6 6 8l2 20v10l2 23 1 12 1 13 4 26 2 14 1 12 2 11 1 11v9l1 9 1 7 1 6v6 4l1 3v4l-4-1-1-2-3-4-8-11" style="clip-to-self:true;comp-op:src"/>
<path transform="scale(.1)" d="m2829.7 1744.1-2-5-2-4v-3-3l1-3 2-3 3-3 4-3 4-4 6-4 7-4 9-4 10-5 10-6 13-6 14-6 15-7 16-8 54-24 20-7 19-7 38-12 17-4 14-5 14-3 11-3 10-3 7-2 6-1 8-2-2 2-6 2-5 3-3 1-5 4-4 4-2 4-1 4-1 6-1 8v9 9 12l2 24 2 26v14l1 14 2 26 1 12 2 11 2 20 2 9 4 16 2 7 2 10 2 8v-3-4-4-5l1-6 2-6 2-7 2-8 3-8 3-7 4-8 3-7 8-12 3-4 4-3 3-2 4 1 4 6 1 4 2 12 2 14 2 8 1 8 2 8 1 8 2 8 4 14 6 10 2 4 3 3 3 2 3 1h3 4l8-4 4-3 5-4 10-10 4-6 5-6 8-12 4-7 6-12 3-5 2-5 4-6 2-1 4 4 1 3 2 4 1 5 1 6 2 6 1 7 4 13 6 18 2 5 3 5 2 4 3 3 3 2 3 1 5-1 5-3 4-8 2-5 2-15" style="clip-to-self:true;comp-op:src"/>
<path transform="scale(.1)" d="m3333.8 1690.3-3 2-1 4v3l2 3 4-1 2-3 1-5 1-4v-3l-1-5v-3l-1-6-1-4-2-3-3-2-4 1-1 3-2 5-1 3-1 4v4 7 3l1 4 1 2 3 5 3 3 5 1h5l6-1 3-1 11-11 2-3 2-4 1-4 1-3 1-5v-4l-2-8-2-5-1-4-4-8-2-5-3-3-2-3-3-4-3-1-5-2-6 1-3 3-3 4-2 5-3 5-2 7-3 8-1 8-4 16-3 20" style="clip-to-self:true;comp-op:src"/>
<path transform="scale(.1)" d="m3400.6 1828.8-1-5 2-6 1-4 2-3 6-10 6-12 8-12 5-7 4-6 10-12 5-5 5-4 4-3 4-2 4-1 5 1 3 5 2 4 1 5 1 6v6l2 14v8 8 32l1 7v6l1 5 2 8 2 4h4l3-5 2-3 4-10 6-12 6-14 4-8 3-8 4-8 5-7 5-8 5-5 5-6 4-4 4-3 4-2 6 1 2 3 2 4 1 5 1 6 2 14 3 24 1 9 2 8 3 8 2 7 7 14 8 8 6 3 5 1 6 1h7l12-4 7-3 6-5 7-5 6-5 6-6 6-7 4-7 4-8 3-8 2-9 4-16 1-8v-7l-1-6-1-5-1-3-6-2-3 1-5 2-5 3-10 10-5 6-5 7-6 8-9 17-8 18-4 16-1 8v6l1 6 1 5 2 4 4 2 8 2 10-4 6-3 6-4 6-5 11-11 5-6 5-5 4-6 6-8 4-3 2 5v5l-1 6v8l-2 20-1 12-2 26-1 15v15 16 18l2 38 2 20 2 19 2 18 1 16 3 14 1 13 1 12 1 11 1 10v9l-2 14-2 5-1 4-3 3-4 2-4 1h-5l-5-2-6-2-6-4-7-4-8-5-6-6-6-8-6-7-5-10-4-9-3-9-2-10-1-10v-11l1-11 2-12 8-26 5-14 6-14 7-14 8-15 9-13 20-28 11-14 12-13 13-15 16-15 15-15 17-16 17-15 17-16 17-15 30-28 13-12 11-10 8-9 7-7 6-9-3-3-4 1-6 3-7 3-9 5-10 5-11 6-12 6-12 7-13 6-12 7-13 7-11 7-18 12-11 11-3 5-1 3 1 4 3 3 4 2 5 3 6 2 8 2 8 1 9 2 10 2 9 3 19 5 9 3 8 3 7 5 6 4 5 4 3 6 2 5v5 5l-2 6-3 4-9 9-6 4-5 3-6 3-7 1-6 2-7 1h-14l-7-1-7-2-6-2-6-3-12-8-4-5-8-14" style="clip-to-self:true;comp-op:src"/>
<path transform="scale(.1)" d="m4190.9 1754.7v6 5l-1 6v7 8l-1 8v9 10l-1 10v27l2 14 1 6 1 4 2 3 3 3h4l3-3 2-3 2-4 4-10 3-6 15-35 8-14 4-5 4-6 5-3 3-3 4-1h4 3l6 6 3 4 4 12 3 7 3 6 2 7 3 7 6 12 3 5 4 4 3 4 4 2 3 2 8 2 3-1 4-2 9-9 6-15 1-6 1-7v-7-8-7-17-8l2-16 1-7 1-6 2-4 2-3 3-3 6 6" style="clip-to-self:true;comp-op:src"/>
<path transform="scale(.1)" d="m4426.2 1839.1 5-4 3-3 3-4 4-4 3-5 5-5 3-6 5-6 3-6 4-7 3-7 2-6 2-7 1-8 1-7v-6-7l-1-6-2-5-2-4-2-3-3-2h-5l-4 1-5 3-5 4-6 5-12 16-7 10-5 11-6 11-10 26-4 13-4 12-2 13-3 12-1 12 1 10 1 9 3 8 4 5 5 6 7 4 8 2 9 1h10l12-2 13-3 13-4 15-6 14-6 13-8 14-8 30-23" style="clip-to-self:true;comp-op:src"/>
<path transform="scale(.1)" d="m4973.4 1777.8-2-4-7-7-4-3-5-2-6-2h-7l-6 1-8 1-16 6-9 4-8 5-8 6-8 7-8 8-7 8-5 9-5 10-3 9-2 10-1 9v9l1 9 2 7 3 6 4 6 5 3 6 4 14 2h7l8-1 8-2 9-3 8-3 8-4 7-5 8-5 6-5 12-12 5-7 4-6 6-12 3-5 3-9 1-4 2-4 1 6 1 3v5l1 6 1 5 1 6 6 18 2 4 3 5 4 4 3 4 4 2 4 1 5 1h6l5-1 7-1 6-3 7-4 6-4 7-6 5-6 6-6 5-8 4-7 4-9 3-9 3-11 2-11 2-12 1-13 1-14 1-15 1-16 2-34 1-18 2-32 1-14 1-12 1-10v-8l1-6v-4l-1-4-1 6v5l-1 7v19l1 11 1 13 1 14 2 15 1 15 2 15 2 16 2 15 3 16 2 15 3 14 4 15 8 26 5 11 4 11 5 9 4 9 4 6 4 5 3 4 10 5" style="clip-to-self:true;comp-op:src"/>
<path transform="scale(.1)" d="m5225 1776.6-2-4-1-5 1-4 9-3 6-1h12l14 2 7 2 12 6 10 10 4 7 2 7 2 8v9 9l-1 8-4 18-6 16-4 6-4 5-3 4-5 3-4 2-4 1h-4l-4-1-3-2-3-3-2-4-1-5v-6-7l4-16 12-27 6-10 5-10 7-9 16-18 9-7 8-7 8-5 8-4 6-4 6-2h12" style="clip-to-self:true;comp-op:src"/>
<path transform="scale(.1)" d="m5397.2 1815.3 4-2 4-3 12-8 6-5 7-5 7-4 14-10 5-6 6-5 4-6 4-5 4-10v-4-5l-4-6-4-3-4-1h-5l-12 2-7 3-8 5-7 5-8 6-7 7-7 8-7 9-6 9-8 20-2 10-1 10v10l2 9 3 8 4 8 6 7 7 6 9 5 10 4 10 2 11 1h13l12-1 14-2 13-3 13-4 13-5 32-16" style="clip-to-self:true;comp-op:src"/>
<path transform="scale(.1)" d="m5659.4 1726.2-4 2-6 1-7 3-8 3-9 4-10 5-10 6-11 6-22 14-10 7-10 8-9 8-8 8-8 7-7 8-6 7-4 8-3 7-3 6-1 6v5l1 4 2 3 2 2 8 2h5l5-1 6-2 7-3 8-3 8-5 8-4 9-6 20-10 27-18 8-5 6-4 6-3 3-3 6-4-1 3-7 14-4 20v5l1 5 1 4 3 4 2 3 5 3 4 2 6 2 6 1h6 8l7-2 7-1 8-3 6-3 18-10" style="clip-to-self:true;comp-op:src"/>
<path transform="scale(.1)" d="m5859.4 1751.9-2-4-7-7-3-4-5-4-5-3-18-6-7-1h-14l-14 2-21 9-12 10-5 7-5 6-5 8-5 7-3 9-2 9-2 8-1 10-1 9 1 8 2 8 2 7 4 7 4 5 5 5 6 4 14 4h8l8-2 9-2 9-4 9-5 9-6 10-7 8-7 8-10 8-9 12-22 4-13 5-13 3-15 3-16 2-18 2-19 4-80v-18-15-13l-1-9-1-7-2-4-5-2-5 6-2 5-3 9-3 10-2 13-4 15-3 17-2 18-3 21-3 20-2 21-1 21-1 20 1 21 1 19 2 18 3 17 3 15 5 13 5 10 7 9 7 6 8 5 8 2 9 1 9-1 9-3 23-11" style="clip-to-self:true;comp-op:src"/>
<path transform="scale(.1)" d="m6015 1727.2-1-3-2-5-5-2-6 3-6 8-6 12-3 8-3 7-1 8-2 8-1 9-1 8 1 9v8l4 16 3 7 3 5 4 5 4 3 5 2 6 1h5l12-4 7-3 6-5 7-4 7-7 12-14 12-18 4-9 5-9 3-9 3-8 4-12 1-4v-3l-3 3-2 4-2 6-2 7-3 8-2 9-2 10-2 11-1 11-2 24v13 14l1 13 2 28 1 15 1 16 1 17 1 16 1 17v15l1 15-1 13-2 22-3 10-2 9-5 8-5 7-6 6-7 6-16 8-9 2-10 2h-10l-10-1-22-2-22-6-12-3-11-5-12-4-20-12-9-8-8-7-6-9-6-8-8-23" style="clip-to-self:true;comp-op:src"/>
<path transform="scale(.1)" d="m6418.1 1509.4v-3l-3 3-1 5-1 6v8l-1 9-1 11-1 13-1 14v16l-1 18-1 19-2 40v21 39 18l2 32 1 13 2 12 2 10 2 9 2 8 3 5 3 4 2 1 6-1 4-3 9-14" style="clip-to-self:true;comp-op:src"/>
<path transform="scale(.1)" d="m6516.2 1655.3-3 3-3 2-5 4-6 5-5 6-7 6-7 8-15 15-7 8-7 6-8 7-7 7-8 7-7 6-8 6-7 7-7 5-12 10-5 4-4 4-2 3-2 2-2 3 5 2 6-2 5-1 5-2 5-1 6-2 7-1 6-1 21-3h7 7 6l8 1 6 1 6 2 6 3 5 3 5 4 4 3 3 5 3 4 2 5 3 12 2 5 1 3 3-1 3-3 1-3 2-4 6-15 3-7 2-7 3-7 3-8 4-9 3-8 5-9 5-8 4-7 5-6 5-4 5-2 4-1 4 1 3 3 3 4 2 5 2 7 2 8 1 8 1 9 2 9v10l1 11 1 9 1 10 1 9v8l2 7 1 6 1 4 2 4 4 3 6-1 7-7 4-5 4-6 10-14 20-36 12-20 5-10 6-10 6-8 5-6 4-6 3-3 3-2 3 2 1 3v9 7l-1 8v8 9 18 10l2 18 2 8 2 7 4 7 3 5 5 4 4 3 5 2 5 1h6l7-1 7-2 7-3 8-4 7-4 8-6 7-6 6-7 6-8 6-7 4-9 4-7 2-7 2-6 1-5 1-4-1-3-2-3-4 2-2 2-2 3-4 8-2 5-2 12v6l1 6 1 5 2 5 3 5 8 8 5 3 6 2 5 2 7 1 12-2 6-2 6-3 10-8 6-10 2-6v-5-7l-1-6-2-7-3-7-3-6-4-6-5-6-5-5-6-5-6-4-14-4h-7-6l-6 1-6 2-3 2-5 5v5l4 4 3 2 5 2 5 1h5l7 1h7l8-1h8l9-2 10-2 9-2 19-5 9-3 10-2 16-6 8-2 6-2 5-2 5-1 3-1 3 1 1 3v3l-1 3-2 4-2 5-1 5-4 10-2 7-1 6-1 7-1 6v13l2 10 4 8 3 3 9 6h4l8-2 4-3 4-2 4-3 8-8 9-15 3-6 9-17 3-4 2-5 2-3 2-2 3-4 3 2 1 4 1 2v5 4l2 5 1 4 6 15 4 4 3 5 8 8 6 2 5 3 6 2 7 1 6 1h7l7-1 6-2 7-2 5-3 6-3 9-9 3-5 3-6 2-14 1-8v-9l-1-9-2-20-3-10-1-8-2-9-3-6-2-7-2-4-3-3-6-2-4 3-3 9-1 5-2 11" style="clip-to-self:true;comp-op:src"/>
<path transform="scale(.1)" d="m7293.1 1681.2v-3l1-4v-3l2-5 2 2-1 6-1 4v4l-2 8-2 4-1 5-4 11" style="clip-to-self:true;comp-op:src"/>
<path transform="scale(.1)" d="m7294.4 1823.4 7-2h3l-6-1" style="clip-to-self:true;comp-op:src"/>
<path transform="scale(.1)" d="m2987.8 2548.8-2-10-1 6v6l-1 7v8 11l-1 13-1 15v17l-1 18-3 36v18l-1 17-1 16v15 15 13l1 12v11l1 10 2 9 1 7 2 6 2 5 2 3 6 1" style="clip-to-self:true;comp-op:src"/>
<path transform="scale(.1)" d="m3114.1 2700.9-2-3 4-2h4l4-1h5l7-1 8-1 9-1 10-2 10-1 12-2 13-2 12-1 13-1 12-1 13-1h10 10l10 1h8l6 1 5 1 4 1 3 1-9 1" style="clip-to-self:true;comp-op:src"/>
<path transform="scale(.1)" d="m3189.7 2622.2-1-4v-8l1-3 1-4 4 2 2 3 1 3 2 5 3 11 2 14 2 9 1 9v10l1 10v11l1 11 1 12v12l1 11 1 12 2 22 2 9 1 9 1 6 2 5 1 6" style="clip-to-self:true;comp-op:src"/>
<path transform="scale(.1)" d="m3388.4 2628.4-1-4 1-4v-4l3-3 3-4 4-3 4-4 12-8 8-3 7-3 8-3 8-2 7-2h8 6l6 1 5 3 4 3 3 4 3 6 1 7-1 9-2 9-3 11-5 11-5 12-8 13-7 12-8 12-16 22-8 10-7 8-6 8-5 8-4 6-3 6-2 5-2 4-1 4v4l1 3 2 2 5 4 4 2 5 2 5 1 7 1h15l8-1 18-2 8-2 9-1 8-1 8-2 8-1 12-4 4-3 5-3 3-3 5-7" style="clip-to-self:true;comp-op:src"/>
<path transform="scale(.1)" d="m3686.2 2653.1 4-3 4-1 4-2 5-1 7-1 6-1 7-2 9-1 17-2 8-1 9-1 7-1h8 7l10 2 3 1 3 2-6 8" style="clip-to-self:true;comp-op:src"/>
<path transform="scale(.1)" d="m3709.1 2705.6-2 8v4l3 3 6 3 4 1h4 19 7l8-1h8l9-1 18-1 9-2 8-2 8-3 16-7" style="clip-to-self:true;comp-op:src"/>
<path transform="scale(.1)" d="m4071.6 2585.3 1-5 2-4 3-5 4-6 4-5 5-4 6-4 5-4 7-4 7-3 6-3 7-1 6-1h5l5 1 4 1 4 4 2 4 2 5v7 7l-4 20-4 12-10 28-6 15-8 16-7 15-10 15-8 15-10 14-9 13-9 11-7 10-7 9-12 14-4 5-3 4-2 3-1 3h6l5-1 6-2 7-2 9-3 9-2 10-4 11-2 12-3 13-3 12-3 13-2 12-2 12-1 22-4 9-1 8-2 7-2 13-4" style="clip-to-self:true;comp-op:src"/>
<path transform="scale(.1)" d="m4276.6 2692.2h24 6 7l16-2 18-2 10-2 11-1 10-2 11-1 20-4 9-2 9-3 14-6 5-4 7-10" style="clip-to-self:true;comp-op:src"/>
<path transform="scale(.1)" d="m4363.8 2584.7-2-3 3 7 4 8 1 6 2 6v8l1 8 2 18v9 20l1 11v10 10 10l1 10v9l1 10v8 8l2 12 4 9" style="clip-to-self:true;comp-op:src"/>
<path transform="scale(.1)" d="m4619.7 2570v-4-4l3 3 1 3 2 4 1 5 1 6v7 8l1 10v11 12 26l1 12v13l2 13 1 13 4 24 4 22 1 9 4 19" style="clip-to-self:true;comp-op:src"/>
<path transform="scale(.1)" d="m5796.6 2651.2 8-11 10-16 5-9 12-24 4-14 2-6v-7-5-5l-1-3-4-5-3-1h-5l-5 2-7 2-7 5-8 6-20 16-10 10-9 10-9 12-8 11-8 12-6 11-5 10-4 10-2 9-1 7v6l1 5 2 4 3 3 4 3 4 1 5 1 6 1h5l12-1 7-1 14-4 9-2 7-2 16-8 8-3 6-4 7-4 6-4 4-4 5-4 2-4 3-3 2-3 2-4-3 5-2 8-2 5-1 13-1 6-1 8v6 7l2 7 1 6 2 6 3 5 4 5 4 4 4 3 5 1 5 2h5l6-1 14-5" style="clip-to-self:true;comp-op:src"/>
<path transform="scale(.1)" d="m5947.5 2673.4 4 1h4 14 7 7l8-1 9-1h9l9-1 10-1 9-1h10l10-1h10 8 9 7l8-1h6l6-1 4-1 4-2 2-2 2-5" style="clip-to-self:true;comp-op:src"/>
<path transform="scale(.1)" d="m6059.4 2568.4v-3 6l1 5 2 12v8l2 18 1 10 2 10 1 10 4 20 1 9 2 10 6 27 3 8 2 7 2 6 2 5 2 3 9 1" style="clip-to-self:true;comp-op:src"/>
<path transform="scale(.1)" d="m6238.8 2496.2 2 3 3 15 1 6 2 7 1 9v9 9 88l1 13v12l1 10 1 9 1 7 1 6 1 3 2 4 2-3 1-3 1-4 1-5 2-6 2-7 3-7 3-8 4-9 5-9 4-9 7-9 6-8 8-7 8-6 7-5 8-3 8-2h6l6 2 5 3 4 5 3 5 2 7 2 8v8 9l-1 9-4 16-4 9-3 7-5 8-5 7-6 6-7 5-6 5-7 4-14 6-6 2h-5l-6 1-5-1-6-1-10-4-8-8-8-11" style="clip-to-self:true;comp-op:src"/>
<path transform="scale(.1)" d="m6511.9 2625 6-4 10-6 4-3 5-3 5-2 7-1 14-4h8l9-1h8 7 8l7 1 6 1 5 1 4 1 3 1 3 5" style="clip-to-self:true;comp-op:src"/>
<path transform="scale(.1)" d="m6487.8 2692.8-3 2 3 2 6-1 5-1 12-2 9-1 9-2 10-2 11-1 13-3 39-6 14-3 32-9" style="clip-to-self:true;comp-op:src"/>
<path transform="scale(.1)" d="m6905.3 2466.2v-13l3 3 1 2 2 10 1 7v9l-1 10-1 11-2 26-3 15-4 32-6 34-4 32-1 15-2 14-1 12v10 21 4l2 4 4-1 5-5 3-4 2-5 8-12 3-7 4-7 4-8 5-8 5-9 13-16 7-6 6-6 7-5 7-3 6-3 6-1h6 6l5 1 4 3 5 3 3 4 3 5 2 6 2 7 1 6v8 7l-1 8-3 7-3 8-4 7-5 7-5 6-7 7-7 4-8 5-18 8-9 2-10 1-18 2-8-1-7-1-7-2-6-2-5-4-4-3-2-5v-15" style="clip-to-self:true;comp-op:src"/>
<path transform="scale(.1)" d="m7089.4 2672.8 3-2 6-2 4-1 6-1 7-1 8-2 9-2 10-1 20-4 11-1 11-2 30-3 8-1h8l7-1 5-2 4-2 3-5" style="clip-to-self:true;comp-op:src"/>
<path transform="scale(.1)" d="m7169.4 2605.6-1-4v4l3 9 2 5 4 12 1 7 3 8 4 16 2 9 3 9 1 8 2 9 1 8 2 8 1 7 1 6v5l1 4 2 7" style="clip-to-self:true;comp-op:src"/>
<path transform="scale(.1)" d="m7472.8 2570.9-5-3-4-3-6-3-7-2-6-1h-7l-6 1-7 2-7 3-8 4-8 5-8 6-9 7-8 9-8 10-7 9-7 11-5 10-4 10-3 10-1 9v8l1 7 2 6 3 5 3 3 5 2 6 1 6-1 7-1 7-3 9-3 27-15 9-7 8-7 14-16 6-8 4-7 5-7 3-6 2-5 2-3-1 4-2 5-1 7-2 7-4 18-2 10-1 10v11 11l1 10 2 11 2 10 4 10 3 9 5 8 5 7 5 6 5 4 16 5" style="clip-to-self:true;comp-op:src"/>
<path transform="scale(.1)" d="m1238.4 3590-6-2-4-2-3-4v-4l2-5 2-3 6-8 4-4 5-4 6-3 6-4 6-3 7-2 7-3 14-2h7 7l6 1 5 3 4 4 6 10 2 7v8l-1 9-2 10-2 11-5 12-5 11-6 12-7 12-8 12-8 11-9 12-10 10-9 10-10 9-9 9-9 8-9 7-8 7-8 6-6 5-5 4-5 3-3 3-3 4 4 3 3 1h5 5l6-1 16-2 9-2 10-2 11-2 11-3 22-4 20-4 19-3h8l7-1h10l3 1h4l-3 3h-4l-8-4-6-5" style="clip-to-self:true;comp-op:src"/>
<path transform="scale(.1)" d="m1483.4 3572.8 2-3 1-3h4l4 2 3 2 3 3 4 3 5 4 16 16 6 5 7 7 6 7 13 16 6 8 6 9 6 8 20 32 4 7 5 6 4 6 4 4 4 5 4 3 3 2 4 1 5-1 3-2 1-3 1-5 1-4-1-14" style="clip-to-self:true;comp-op:src"/>
<path transform="scale(.1)" d="m1599.4 3576.6-1-4-1-3-4 1-4 2-8 8-3 4-5 5-4 7-6 6-5 8-6 8-7 9-6 9-6 10-7 10-6 10-5 10-6 10-5 10-4 10-3 10-2 10-2 8-1 8 1 6 1 5 2 3h6l10-5" style="clip-to-self:true;comp-op:src"/>
<path transform="scale(.1)" d="m1714.7 3593.1-3-3-3-4-1-4 2-4 8-8 4-2 9-5 6-3 6-2 14-4h7l6-1h7l7 1 6 2 10 6 3 4 3 5 2 5 1 6v7l-1 7-3 7-3 8-4 7-15 21-5 6-29 29 6 1h3l10-2 7-1h7l9-1 8-1 19-2h10 9 9l16 2 6 2 5 3 4 3 2 4 1 3v5l-2 5-2 6-4 5-11 11-7 5-16 10-10 4-10 5-10 4-10 3-11 3-11 2-20 4-10 1-9 1h-9l-7-1h-8l-14-4-7-3-12-8-17-11" style="clip-to-self:true;comp-op:src"/>
<path transform="scale(.1)" d="m1133.4 3319.1-3 1-4 1-5 3-6 3-6 5-7 6-7 8-8 8-9 11-9 12-10 13-10 16-10 19-11 20-10 22-20 46-9 24-8 24-6 24-5 24-2 25v24l1 23 5 21 7 20 10 19 13 17 16 16 18 15 21 11 23 10 26 7 25 5 28 2 28-1 29-4 30-6 74-21" style="clip-to-self:true;comp-op:src"/>
<path transform="scale(.1)" d="m1923.4 3468.1 3-1h9l5 1 6 2 6 3 7 3 7 5 8 5 7 6 8 7 7 9 7 10 6 11 6 13 5 14 4 15 3 16 2 16 1 17v16l-1 16-6 30-8 28-5 13-6 13-7 12-8 10-7 8-9 7-8 5-7 4-8 4-12 4h-5l-8-2-6-6-5-13" style="clip-to-self:true;comp-op:src"/>
<path transform="scale(.1)" d="m2107.5 3532.8 2-3 6 1 7 4 11 7 12 10 7 6 8 6 15 15 8 7 8 8 9 7 8 7 7 8 8 7 14 14 7 5 6 6 6 4 5 5 10 6 4 3 4 1h5l3-8" style="clip-to-self:true;comp-op:src"/>
<path transform="scale(.1)" d="m2272.5 3502.2-2-2-3 3-2 5-2 3-2 5-3 4-3 6-4 6-4 9-5 8-5 11-14 22-7 12-8 12-7 13-16 24-7 12-6 12-6 11-5 11-4 10-3 9-2 7-1 6-1 4 4 3" style="clip-to-self:true;comp-op:src"/>
<path transform="scale(.1)" d="m2505.6 3495.3v-3l-5 7-7 7-10 8-6 6-8 6-8 7-9 7-9 9-20 18-9 9-10 9-8 8-6 9-6 7-4 7-3 6v5 5l3 4 4 3 5 3 6 2 8 2 9 1h11 11 13l13-1 42-3 39-3 11-1 9-1 15-5 12-5" style="clip-to-self:true;comp-op:src"/>
<path transform="scale(.1)" d="m2511.6 3516.6-3 2v9 4l1 6v40l-1 10-1 11v11l-1 11-1 22v12 11l1 11 4 22 1 10 3 11 3 9 4 8 3 8 4 6 3 4 5 3 11 2" style="clip-to-self:true;comp-op:src"/>
<path transform="scale(.1)" d="m2743.8 3575.6 3-2 5-1 4-1h5l6-1h6l7-1h8l8-1 7-1h9 7 13 6 3 4" style="clip-to-self:true;comp-op:src"/>
<path transform="scale(.1)" d="m2726.6 3658.1-3 3-1 3 5 3h3 5l6-1 7-2 8-1 8-2 10-2 11-2 10-2 12-2 22-4 11-1 10-3 11-3 9-3 20-7" style="clip-to-self:true;comp-op:src"/>
<path transform="scale(.1)" d="m3292.8 3562.2-8-1-8-2-4-3v-3l5-3 4-3 5-2 5-3 7-3 9-3 8-2 9-2 10-3 20-2 10 1 9 1 8 2 6 3 6 5 4 6 1 7 2 8-2 9-2 10-4 11-5 11-6 12-8 11-9 12-9 11-10 11-10 9-11 9-10 9-10 8-10 7-9 6-8 5-7 5-5 4-5 3-4 3-2 2-3 4 3 3 6 2 5 1h5l7 1h9 9 42l11 1 20 1h10l9 1h17 7l7-2 15-4" style="clip-to-self:true;comp-op:src"/>
<path transform="scale(.1)" d="m3522.5 3554.4h4l3 3 2 3 1 3 3 4 4 4 3 4 4 5 5 5 6 5 12 12 8 6 7 6 8 7 10 6 8 6 9 7 18 12 7 6 8 5 7 5 12 8 5 3 4 3 4 2 4 1h3l3-7" style="clip-to-self:true;comp-op:src"/>
<path transform="scale(.1)" d="m3678.8 3569.1v-12l-1-3v-4l-2 4-4 6-4 10-8 12-4 7-5 8-6 7-12 16-14 18-7 8-14 18-12 18-4 9-5 7-3 7-3 5-2 3" style="clip-to-self:true;comp-op:src"/>
<path transform="scale(.1)" d="m3907.5 3479.1-8 6-5 6-5 7-7 7-6 10-8 11-6 11-7 13-7 14-7 13-6 14-5 14-4 13-4 12-2 22 1 10 2 9 4 8 4 7 7 6 7 5 9 4 10 2 9 2 11 1 20-2 11-2 9-3 25-11" style="clip-to-self:true;comp-op:src"/>
<path transform="scale(.1)" d="m3979.4 3570v-5l1-3 1-5 3-4 4-4 4-5 6-4 6-5 8-4 14-8 16-6 16-4 8-1h7 8 7l6 2 5 3 4 3 2 3 2 5v5l-2 6-2 7-8 16-5 7-7 9-6 7-21 21-7 6-6 6-6 5-5 5-8 6-2 3-1 4 2 3 3 1 4 2 6 1 5 1 7 1h7l16 2 8 2 8 1 8 2 7 2 16 8 3 3 2 4v4 4l-2 3-3 4-10 8-7 3-6 3-16 6-9 2-8 1-9 2-7 1-8 1h-7-7-6l-6-1-4-1-3-2-3-1-2-6 1-3 1-4 8-13" style="clip-to-self:true;comp-op:src"/>
<path transform="scale(.1)" d="m4186.9 3546.9 5 1 3 2 5 2 4 2 6 2 6 4 6 3 6 5 7 4 7 6 7 5 7 6 6 7 7 6 6 6 6 7 5 7 4 7 4 6 6 12 2 5 3 5 1 3 2 3 2 4 3-3 4-6" style="clip-to-self:true;comp-op:src"/>
<path transform="scale(.1)" d="m4352.2 3508.8h-3l-4 2-5 5-2 3-6 8-8 10-4 7-4 6-5 8-7 8-6 9-14 18-16 20-9 10-8 10-8 9-7 10-6 8-5 8-4 7-5 10-1 4 1 3 4-1 12-7" style="clip-to-self:true;comp-op:src"/>
<path transform="scale(.1)" d="m4506.2 3522.5h-4-5l-3 1-2 2-4 2-7 7-10 8-11 11-5 6-7 6-6 6-15 21-4 6-2 7-3 6-1 5-1 6 1 4 1 5 4 3 4 4 5 2 6 2 7 2 9 2 20 2h11l12 1h35l12-1h10 10l18-2 14-4 5-1 9-5" style="clip-to-self:true;comp-op:src"/>
<path transform="scale(.1)" d="m4496.2 3537.2-1-3 4 3 2 6 1 4v5l2 12v7l1 7v8l1 8v8l2 16v8l3 24 1 9 1 8 1 7 2 8 2 12 2 6 4 8 2 3 4-3" style="clip-to-self:true;comp-op:src"/>
<path transform="scale(.1)" d="m4642.8 3442.5 5 4 4 3 11 8 6 5 6 6 14 16 8 9 7 10 8 10 9 12 7 13 8 14 12 28 4 14 3 14 1 15-1 13-3 14-4 12-5 12-5 11-7 10-8 8-8 9-9 7-8 6-10 6-10 5-9 3-10 3-10 2h-9-9l-9-2-19-4" style="clip-to-self:true;comp-op:src"/>
<path transform="scale(.1)" d="m5945.9 3604.7 4-3 3-2 10-10 4-3 4-5 4-4 8-10 4-6 4-7 2-6 2-7 2-6 1-6 1-7v-6l-3-18-3-4-2-4-4-3-5-2-5-1h-6l-6 1-8 3-8 4-8 5-9 7-10 8-9 10-9 11-18 24-7 13-7 12-5 12-4 11-2 18 1 7 2 6 4 5 4 3 7 3h6 8 9l8-2 10-4 10-3 20-8 10-6 19-13 9-6 8-8 14-16 5-8 5-9 4-8 3-9 2-8 2-7 1-6v-4-3l-3 3-1 5-1 6-2 8-1 9-2 20v10 10l1 10 2 9 6 18 4 8 10 14 7 6 6 4 8 4 8 3 9 2 8 1 10 1 10-1 10-2 9-2 23-9" style="clip-to-self:true;comp-op:src"/>
<path transform="scale(.1)" d="m6197.8 3506.6 2-4 4 1 6 4 8 4 10 6 5 4 12 10 14 12 14 14 7 9 7 7 7 8 7 9 7 7 6 8 5 7 7 6 5 6 5 5 6 4 4 3 5 3 3 1h4l6-2 6-8" style="clip-to-self:true;comp-op:src"/>
<path transform="scale(.1)" d="m6378.4 3473.4-2-1h-4l-4 4-4 2-3 3-4 3-8 8-6 5-5 5-7 6-6 7-7 7-40 45-14 18-7 8-6 8-5 7-4 7-4 10v3l4 2 3-1 20-12" style="clip-to-self:true;comp-op:src"/>
<path transform="scale(.1)" d="m6503.1 3399.1-3 3v4 5 5l-1 7v8l-1 9v10 11l-1 11v13l-1 14v15l-1 15v15 14 14l1 13 1 11 1 9 1 8 4 10 1 3 4 1 3-3 2-3 2-5 2-6 4-14 2-9 2-10 4-22 3-11 2-11 3-10 4-9 4-7 5-6 6-4 5-3 6-2h6l12 2 7 4 6 4 12 10 10 15 5 8 6 18 2 9 1 9v9l-1 8-2 9-3 7-3 8-10 12-6 5-7 5-7 4-7 3-16 4-8 1h-8l-8-1-9-1-9-2-9-3-11-4-27-11" style="clip-to-self:true;comp-op:src"/>
<path transform="scale(.1)" d="m5859.4 3407.2h-4-13l-7 1-9 1-8 3-9 4-9 5-10 7-9 7-9 9-10 11-9 12-8 14-8 16-7 16-5 19-3 19-2 19v18l2 18 5 18 6 16 9 15 11 14 13 14 15 11 16 11 18 10 17 8 19 7 19 6 19 3 49 4" style="clip-to-self:true;comp-op:src"/>
<path transform="scale(.1)" d="m6737.5 3354.1-2-4-2-5 1-3h3 4l4 1 4 2 6 1 14 6 9 4 18 10 10 6 9 8 9 9 9 10 8 12 6 12 5 14 4 15 1 16v19l-2 19-8 38-5 19-12 34-7 14-6 13-7 11-7 9-6 8-7 7-6 5-12 6-6 2h-6l-14-2" style="clip-to-self:true;comp-op:src"/>
<path transform="scale(.1)" d="m6969.7 3462.5-3-1h-4v4l5 10 3 3 3 5 4 6 4 5 6 7 5 7 12 16 14 18 32 36 7 8 8 7 19 19 5 4 5 3 6 6-3-4" style="clip-to-self:true;comp-op:src"/>
<path transform="scale(.1)" d="m7106.6 3454.7 1-3-1 3-5 5-4 3-10 8-6 5-7 6-6 5-16 14-15 15-16 18-6 9-6 10-5 9-4 9-3 9-2 8-1 7v7l1 5 2 5 3 3 3 1h4l12-2" style="clip-to-self:true;comp-op:src"/>
<path transform="scale(.1)" d="m7329.4 3459.4v-2l-3-6-6-4-8-2h-5l-6 2-6 1-7 3-9 4-8 4-9 6-10 7-9 8-8 9-8 10-8 11-7 12-6 13-5 13-5 14-4 14-3 13-2 13-1 12 1 11 3 10 4 8 6 8 8 7 8 4 10 4 12 3 12 2 12 1h14l12-1 13-2 11-2 12-4 28-13" style="clip-to-self:true;comp-op:src"/>
<path transform="scale(.1)" d="m7455 3518.1 2-3 3-1 7-1h4l5-1h6 7l7-1h8l8-1h38l5 1h5l5 3" style="clip-to-self:true;comp-op:src"/>
<path transform="scale(.1)" d="m7427.8 3595.9v3 3l3 3 3 1h3 18 8l9-1 10-1 22-2h12l23-3 12-2 11-2 30-7" style="clip-to-self:true;comp-op:src"/>
<path transform="scale(.1)" d="m7955.6 3534.7 2-6 4-6 6-16 2-8 1-8 1-7v-7l-1-7-2-5-3-6-3-4-10-6-6-2-8-1h-8l-9 1-10 2-10 3-12 5-12 6-12 8-12 10-11 10-12 11-20 26-9 14-7 13-6 13-4 12-3 11v10l1 8 2 7 5 6 6 4 7 2 9 2 10 1 11-1 12-2 24-6 12-4 11-6 11-5 9-6 9-7 7-7 6-8 5-8 4-9 3-8 2-8 1-7v-6-4l-1-3-2-3-3 2-2 2-2 4-1 5-2 7v7l-1 8 1 7 2 8 2 9 3 8 4 9 5 8 12 14 8 6 7 6 8 5 8 3 9 3 8 3 9 2 8 1h13l14-2" style="clip-to-self:true;comp-op:src"/>
<path transform="scale(.1)" d="m8139.4 3511.2 3-2 4-2 6 1 4 1 5 2 5 3 6 3 7 4 14 10 9 6 8 8 8 7 24 27 7 10 7 9 6 10 7 9 5 8 8 16 4 6 4 5 2 4 4 2 7 2" style="clip-to-self:true;comp-op:src"/>
<path transform="scale(.1)" d="m8313.8 3507.8v-3l-4-1-3 2-6 6-4 6-5 4-4 7-10 14-5 8-6 8-5 9-12 18-6 8-6 9-12 16-5 9-5 7-4 7-3 6-2 6-2 8 11-4" style="clip-to-self:true;comp-op:src"/>
<path transform="scale(.1)" d="m8551.9 3450.9-3-2-3-1-5-2-12-2h-7l-14 4-7 4-8 4-8 6-9 6-8 8-9 10-8 11-14 26-6 15-5 16-4 17-3 16-1 16v16l1 15 3 15 5 13 6 13 8 10 9 10 11 8 11 7 26 8 14 2h15 14l14-2 37-8" style="clip-to-self:true;comp-op:src"/>
<path transform="scale(.1)" d="m8635.3 3473.4v5 16l-1 7v9l-1 10-2 22-2 12-1 12-2 25-1 12v12l-1 10v41l1 4v4l3-4 2-3 4-10 3-6 8-14 5-7 14-16 8-8 9-7 9-6 9-5 9-3 8-3 7-1h7l7 1 6 2 5 4 4 3 3 5 3 6 2 6v7l-1 8-2 8-4 7-3 8-5 7-7 8-6 6-8 7-18 10-20 8-9 2-10 2-9 1-8 1h-8l-6-1-5-1-5-2-4-2-3-3-2-4-1-5 5-13" style="clip-to-self:true;comp-op:src"/>
<path transform="scale(.1)" d="m8810.6 3541.2 1-3 4 3 5 5 3 4 5 4 4 5 17 17 7 6 40 40 6 7 5 5 4 5 5 4 3 3 8 3" style="clip-to-self:true;comp-op:src"/>
<path transform="scale(.1)" d="m8951.2 3499.7-5-2-5 3-8 8-4 5-5 6-6 7-5 6-10 14-18 21-13 14-6 7-5 7-7 6-10 14-4 7-3 6-3 5-2 4v4h9" style="clip-to-self:true;comp-op:src"/>
<path transform="scale(.1)" d="m9072.2 3527.2-3-1-4-2-10-4-5-1h-6-5l-10 2-5 2-12 6-6 4-5 5-6 7-5 7-6 9-5 9-7 20-3 10-2 11-2 20v9l1 9 2 9 3 7 4 7 12 12 7 4 8 4 20 4 10 1 11 1 10-1 11-2 20-6 21-10" style="clip-to-self:true;comp-op:src"/>
<path transform="scale(.1)" d="m9126.9 3396.9 2-5 2-4 3-2 4 2 6 4 3 4 4 4 8 10 12 14 12 18 8 11 7 12 6 13 7 14 6 15 5 17 5 18 3 18 2 19v19l-2 18-3 19-5 18-7 17-8 18-10 16-11 16-11 14-11 13-12 10-11 8-11 7-10 4-28 6" style="clip-to-self:true;comp-op:src"/>
<path transform="scale(.1)" d="m4840.9 5067.2-2-3-2-5-1-4-2-3 2 4 1 3 1 5 1 8 1 9 1 11 1 13 1 15v17l1 19v133 20l1 18 1 16 1 15 2 13 2 12 1 10 1 9 1 7 2 7 1 6v5 7 4l-5 1-15-15-4-5-3-6-5-7-8-15-4-9-4-10-3-10-3-11-2-12-2-13-2-28v-17l1-17 1-18 2-18 3-19 8-36 5-16 5-15 6-15 14-24 8-11 9-9 8-7 9-6 8-5 8-3 7-2h7l6 1 5 2 4 3 3 5 2 4 2 6v7l-1 8-2 9-3 9-4 11-5 11-5 12-7 13-8 14-8 13-8 14-9 13-9 12-8 10-16 16-7 6-6 5-5 3-5 2-3 1-2-4 1-4 3-5 5-7 5-8 17-25" style="clip-to-self:true;comp-op:src"/>
<path transform="scale(.1)" d="m5032.5 5075.3-2-2-1 5 2 5 2 4 4 4 3 4 4 5 5 5 6 5 6 6 14 12 16 12 9 7 8 6 10 7 8 7 9 7 16 14 14 12 5 6 6 5 8 8 4 3 3 2 2 1-1-10" style="clip-to-self:true;comp-op:src"/>
<path transform="scale(.1)" d="m5155.9 5069.7 2-6 1-4-5 4-2 3-7 7-3 6-5 5-5 7-4 7-10 14-11 17-5 8-10 20-5 9-5 10-5 11-4 11-5 11-4 11-4 9-6 18-3 7-1 6-2 5v4l1 4 3 3 6-2 8-6" style="clip-to-self:true;comp-op:src"/>
<path transform="scale(.1)" d="m5338.4 5045.6-1-4-3-1-3 3-2 5-1 3-2 10v5l1 5v6l1 6 2 8 1 7 2 8 4 17 2 10 3 9 2 9 3 10 3 11 6 20 5 18 4 8 2 8 3 7 4 12 2 3 2 4v-3" style="clip-to-self:true;comp-op:src"/>
<path transform="scale(.1)" d="m5521.2 5123.1 2-3 1-3 4-1 6-2h4l10-2 6-1h7l8-1h8 27 8l8 1h6l6 1 4 1 3 4" style="clip-to-self:true;comp-op:src"/>
<path transform="scale(.1)" d="m5477.5 5202.2v4l3 1 4 1h4 12 7l24-3 10-1 10-2 10-1 11-2 24-2 22-2 20-4 9-3 20-5" style="clip-to-self:true;comp-op:src"/>
<path transform="scale(.1)" d="m5855.3 5049.4-2-2-2 2v4 4 6l1 7v8 8l2 20 2 22 1 13 2 13 4 28 3 15 6 29 3 15 8 26 4 11 3 10 4 8 8 12 7 7 3 2 3 1 1-2-3-7" style="clip-to-self:true;comp-op:src"/>
<path transform="scale(.1)" d="m5855.9 5080.9 1-4 2-5 2-6 6-11 10-10 6-4 7-4 8-5 20-6 22-4h12 11l20 4 9 3 7 4 5 6 4 6 4 14-1 9-1 8-3 8-4 8-5 9-12 16-7 7-8 7-8 6-8 5-7 4-8 2-7 3-6 1h-6-6l-5-1-10-4-7-7-4-11" style="clip-to-self:true;comp-op:src"/>
<path transform="scale(.1)" d="m4850.6 5802.5v-3l2-3h4l3 4 2 4 1 5 2 6 2 8 1 9 1 10 1 12 1 13 1 15v16 19 85 21 20l-1 19v17 17 15l-1 14v13l-1 12v11 9l-1 9v8l-1 5v6l-1 4v3-13-7-28" style="clip-to-self:true;comp-op:src"/>
<path transform="scale(.1)" d="m4843.1 5954.1-1-5v-5-6-6-14-7l1-6 4-14 3-7 3-6 5-7 4-7 6-7 6-6 14-12 8-4 9-5 9-2 10-3 10-2h9 10l9 2 8 3 8 4 10 10 2 7 2 8 1 9-1 9-1 11-6 22-4 11-5 12-6 12-7 11-7 12-7 10-8 9-8 7-7 6-16 10-7 3-7 1-6 2h-7l-6 1h-10l-5-1h-4l-4-1-2-4v-3l2-4 4-4 12-11" style="clip-to-self:true;comp-op:src"/>
<path transform="scale(.1)" d="m5130 5859.7 3-2 5-2 6 2 8 6 6 4 7 4 6 5 7 6 8 6 8 7 8 6 18 16 10 8 9 7 11 8 9 7 9 8 9 6 9 7 14 12 7 5 5 3 5 4 4 3 3 3 2 5-5 2h-4l-11-1" style="clip-to-self:true;comp-op:src"/>
<path transform="scale(.1)" d="m5331.2 5850v-4l-3-1-5 1-3 1-8 2-5 2-10 6-6 3-12 10-7 5-6 7-7 9-8 9-9 10-20 26-10 15-11 15-20 30-9 15-8 12-6 13-6 11-4 9-3 7-2 6-1 4 7-4" style="clip-to-self:true;comp-op:src"/>
<path transform="scale(.1)" d="m5498.8 5847.2v-8l-1-3-4 3-6 15-2 7-3 7-2 8-3 9-6 33-2 13-1 12v13l1 13 1 12 2 11 4 10 3 10 4 8 11 11 6 5 6 3 7 2 16 2h8l16-3 8-2 16-8 6-4 5-5 4-7 4-6 2-7 2-18-1-10v-11l-2-12-1-13-2-12-3-13-8-26-5-12-12-22-7-9-7-8-8-7-7-6-8-4-6-4-12-4h-5-3l-3 4 2 5 3 3 4 3 4 4 14 11" style="clip-to-self:true;comp-op:src"/>
<path transform="scale(.1)" d="m5751.6 5885.3h-10l6 2h4l6-1h6 6l8-1h9l9-1 20-1 44-4h10 18 7l6 1h4l-5 8" style="clip-to-self:true;comp-op:src"/>
<path transform="scale(.1)" d="m5759.7 5972.5-2 3h3l7-2 3-1 10-2 12-4 16-4 9-2 20-4 11-2 12-2 11-3 11-2 22-6 27-5" style="clip-to-self:true;comp-op:src"/>
<path transform="scale(.1)" d="m6085.6 5835.9h-6l-8 2-4 2-4 3-4 4-3 5-5 6-4 6-8 14-4 9-3 9-2 9-2 10v10l1 10 2 11 3 11 4 11 5 11 16 18 9 8 10 6 11 4 12 3 11 2h13l12-1 13-1 24-6 11-4 11-5 9-5 8-6 7-7 5-7 6-16v-9-9l-1-10-3-10-3-11-8-24-10-24-6-13-6-11-7-10-7-9-7-8-7-5-7-4-8-2-7-1h-7l-7 2-7 4-17 15" style="clip-to-self:true;comp-op:src"/>
<path transform="scale(.1)" d="m3040.9 4473.4 1-3v-4l2-10 1-6v-5l1-6v-16l-4-20-3-4-4-8-4-3-3-2-4-2-5-1h-4l-6 2-7 2-7 4-7 5-9 7-9 9-10 11-22 28-10 16-11 16-9 16-9 15-8 15-6 14-4 13-3 12-2 11-1 11 1 9 6 14 4 5 6 4 6 2h7 8l8-2 18-8 9-6 10-6 9-8 9-7 16-18 14-20 6-11 5-11 4-10 3-12 3-11 4-20 1-9v-19l-1-4-1-3v5 18l2 16 1 9 2 8 3 9 3 8 2 9 4 8 3 8 4 8 4 7 4 6 10 12 5 4 4 4 5 4 5 3 4 3 3 1 4 1 8-3" style="clip-to-self:true;comp-op:src"/>
<path transform="scale(.1)" d="m3153.8 4422.8 3 1 2 2 4 3 3 4 9 9 5 6 12 12 7 8 8 7 8 8 18 16 10 8 9 8 11 7 10 8 9 7 10 7 8 6 9 6 14 10 7 4 6 3 10 4 4 1h3l4-3 1-7" style="clip-to-self:true;comp-op:src"/>
<path transform="scale(.1)" d="m3322.8 4417.2-3-3-3 1-4 5-1 3-3 3-1 4-4 4-3 6-3 5-5 7-4 7-5 8-12 18-5 10-7 10-6 10-19 31-11 20-3 10-4 8-3 8-2 8-2 12v5l2 5" style="clip-to-self:true;comp-op:src"/>
<path transform="scale(.1)" d="m3482.2 4321.6v-4l1-3v-3-4l-4 1-2 3-3 3-3 5-3 6-4 7-5 9-4 10-5 11-4 14-5 14-4 17-5 18-8 40-2 19-3 19-1 18 1 17 2 15 2 14 5 12 6 11 6 10 8 9 8 8 9 6 9 5 9 3 10 1h9l9-1 10-3 16-8 18-15" style="clip-to-self:true;comp-op:src"/>
<path transform="scale(.1)" d="m3602.2 4339.7 3-2 4 4 2 3 1 4 1 5 1 8 1 7v10l1 11v121 13l1 12 1 10 1 9 1 7 1 5 1 4 1 3 2 3 3-4 3-6 2-5 2-7 3-7 3-8 3-9 4-10 5-10 12-22 7-11 8-11 16-18 8-7 8-4 7-3 7-2h6l6 2 10 6 4 5 3 6 3 7 2 8 1 8v9l-1 9-2 10-3 9-8 18-5 8-6 9-14 14-8 6-8 4-9 5-8 4-9 2-9 3-9 1-8 2h-8-8-6l-6-1-5-2-4-3-3-2-2-4v-5l4-13" style="clip-to-self:true;comp-op:src"/>
<path transform="scale(.1)" d="m3794.7 4487.5 3-2 6-1 4-1 6-1 5-1 8-1 18-4 12-1 11-2 14-2 12-3 28-4 13-2 13-1 22-2 10-1h36l-8-6" style="clip-to-self:true;comp-op:src"/>
<path transform="scale(.1)" d="m3915 4383.8 2-3 3 3 5 10 4 16 1 6 1 7 1 8 2 8v9l1 10v9l1 10v29 9l1 8 1 9v7l4 14 2 5 3 5 4 4 3 2 4 1h4l15-6" style="clip-to-self:true;comp-op:src"/>
<path transform="scale(.1)" d="m4210.3 4365.3-1-3-2-3-3-3-3-2-4-2h-5-4-5l-12 4-6 3-7 4-7 5-8 5-7 7-6 9-7 9-5 9-6 11-4 11-3 12-3 11-2 12-1 11 2 20 2 9 4 8 4 6 5 6 7 5 16 6 9 2 10 1h10 10l22-2 9-3 9-2 9-3 7-4 5-3 11-10" style="clip-to-self:true;comp-op:src"/>
<path transform="scale(.1)" d="m4248.8 4258.1 3-1 2-1 7 1 10 4 12 8 6 5 7 6 13 13 6 8 7 9 6 10 7 11 6 11 6 13 8 28 3 16 3 18 1 18 1 19v19l-1 20v19l-2 17-2 16-3 14-3 12-3 9-3 8-4 7-4 5-3 5-4 4-5 3-4 1-5 1-10-2-10-7" style="clip-to-self:true;comp-op:src"/>
<path transform="scale(.1)" d="m4629.4 4424.1-4-1-3-1h6l7 1h5 13 8 8l9-1h9l10-1 21-2 11-1h11l10-1h10l10-1h22l6 1 4 1h3l2 3-4 3-3 1-14 6" style="clip-to-self:true;comp-op:src"/>
<path transform="scale(.1)" d="m4588.1 4529.4-3 4-2 3v3l2 3 8 2h4l5 1 5-1h6l9-1 8-1 10-1 22-4 12-2 14-3 13-2 15-2 28-4 14-1 12-1h11 10 9l7 1h5l5 1" style="clip-to-self:true;comp-op:src"/>
<path transform="scale(.1)" d="m5252.2 4461.2 3-4 3-5 4-5 3-6 3-8 4-6 2-7 3-8 3-6 2-8 2-6 2-7v-7-6-5l-1-5-2-4-2-3-3-2-4-1-3-1-6 1-5 1-14 8-8 7-9 8-9 9-10 12-10 13-10 14-10 15-10 16-16 30-6 14-5 13-2 12-3 11v9l1 8 3 7 2 5 5 4 5 2 6 1h6l8-1 8-2 8-3 18-8 9-5 9-6 9-7 8-7 15-15 6-8 6-7 5-9 5-8 8-14 2-6 1-5 1-3 1-5 1 5v9l1 6v7l2 7 1 8 3 8 3 9 4 7 5 9 5 7 6 7 14 14 14 10 7 4 8 3 8 1 7 1 8-1 7-2 17-8" style="clip-to-self:true;comp-op:src"/>
<path transform="scale(.1)" d="m5430.9 4393.4 3 2 5 3 4 3 3 3 5 3 10 8 12 8 14 10 14 12 8 6 7 8 16 14 9 8 16 14 7 7 8 5 6 5 5 5 6 3 5 3 4 2h3l5-2 3-5" style="clip-to-self:true;comp-op:src"/>
<path transform="scale(.1)" d="m5604.7 4391.2 3-9v-3l-4 4-3 4-3 5-4 5-5 6-5 8-6 8-6 9-6 10-7 10-6 11-7 11-14 23-8 10-7 10-6 9-7 10-6 8-4 7-4 6-2 5-2 3 3-2" style="clip-to-self:true;comp-op:src"/>
<path transform="scale(.1)" d="m5732.2 4314.4-1-3-3 2v7 6 6l1 7v9l1 10v11l1 12v13 14l1 15v15l1 16v15l1 15 1 13 1 12 1 10 1 8 2 7 2 5 1 4 2 4 4-1 4-6 2-4 6-14 3-8 4-8 4-10 10-20 12-20 7-9 6-8 7-7 7-5 7-4 8-3 6-2 7-2h6 7l6 2 10 4 5 4 5 5 3 5 4 6 2 7 2 16-1 8-1 9-3 10-4 9-6 8-6 9-7 8-18 14-9 6-10 5-11 4-9 3-10 3-9 2-8 1-9 1h-7l-8-1-6-1-6-2-6-3-3-3-7-11" style="clip-to-self:true;comp-op:src"/>
<path transform="scale(.1)" d="m6063.4 4467.8 5-3 4 1 5 1h6l7 1h8 9l9 1h41l11-1h12 11l11-1h48 4l3-1 2-2-2-5-9-7" style="clip-to-self:true;comp-op:src"/>
<path transform="scale(.1)" d="m6136.9 4380-2-3-1 5 1 4v4l2 12 1 7 1 8 1 9 2 8 2 9 2 10 4 19 9 30 12 27 3 8 5 8 3 7 4 6 6 10 3 3 3 7" style="clip-to-self:true;comp-op:src"/>
<path transform="scale(.1)" d="m6552.2 4412.5-1-4-2-3-2-5-3-4-8-8-8-6-5-1-5-2-6-1h-7-7-7l-8 2-7 3-8 5-7 4-8 7-14 18-10 22-4 12-3 13-1 12v12 11l1 10 2 9 4 9 4 6 5 6 5 4 6 3 7 2 7 1h9l8-1 9-2 10-3 9-3 9-4 9-6 8-6 9-6 15-15 6-9 6-10 5-10 5-11 10-20 4-9 3-7 4-5 2-4 3-3 3 6 2 3 2 12 2 7 6 24 9 24 3 7 4 7 5 6 4 6 6 4 5 4 10 4 5 1 5-1 11-3" style="clip-to-self:true;comp-op:src"/>
<path transform="scale(.1)" d="m6700.9 4382.2 6 2 10 6 5 4 6 5 8 5 7 6 16 14 18 16 8 9 10 9 8 10 24 27 14 16 6 8 5 6 12 12 3 2 3 1 3-8" style="clip-to-self:true;comp-op:src"/>
<path transform="scale(.1)" d="m6852.5 4399.1 1-6 1-4v-6-7l-2 3-1 4-3 5-3 6-3 7-5 8-5 9-5 10-6 10-14 22-8 12-8 11-8 10-7 10-6 10-6 9-5 9-3 7-3 6-1 5v3l3 3 9-1" style="clip-to-self:true;comp-op:src"/>
<path transform="scale(.1)" d="m7158.4 4347.5-4-8-3-2-3-1-4-1-4 1-10 2-6 3-14 6-7 5-16 12-8 8-8 9-7 10-8 11-6 12-6 13-5 13-3 14-2 13-2 14 1 12 2 13 4 11 5 9 6 9 8 8 20 12 13 5 14 4 14 3 16 3 17 1 32 2 16-1h16l14-2 13-2 27-7" style="clip-to-self:true;comp-op:src"/>
<path transform="scale(.1)" d="m2192.8 6816.6v-4l1-5 1-9 2-22v-20l-1-9-1-8-2-7-6-10-8-6-10-2-14 4-7 3-9 5-9 6-9 7-10 10-11 9-11 11-22 24-10 13-9 12-8 13-7 12-5 12-3 12-1 12 1 11 4 11 5 11 8 10 10 11 11 11 13 12 13 11 12 11 13 11 12 11 11 9 10 10 10 8 7 9 8 8 5 9 4 8 3 9 2 9v8l-1 9-2 7-4 8-4 6-6 6-14 10-8 4-9 3-9 2-18 2-18-2-7-1-8-2-6-3-5-4-4-3-3-5-1-4v-6l2-5 3-6 4-6 13-13 7-6 8-7 20-16" style="clip-to-self:true;comp-op:src"/>
<path transform="scale(.1)" d="m2229.7 7016.9v4 3 4l1 4 1 5 3 11 2 6 1 7 3 6 2 6 3 6 2 7 2 6 2 7 3 8 1 7 2 7 1 7 2 6 1 7v5l1 5v3l1 3 1 4 1-5v-4-15" style="clip-to-self:true;comp-op:src"/>
<path transform="scale(.1)" d="m2270.9 6937.5-2-4-1 6v7l1 4v4l1 4 2 5 1 4 4 6 6 7" style="clip-to-self:true;comp-op:src"/>
<path transform="scale(.1)" d="m2324.7 7005-2 3-1 3v5 5 113 7 5l1 4v2l2 4v-4l1-4v-4l1-4 2-12 2-6 4-14 4-8 3-9 4-9 5-9 10-20 6-9 6-8 5-7 5-6 5-3 4-2h3 3l3 3 1 4 2 6 1 7 2 9 1 9v10l2 20v11l1 9 1 10 2 9 2 8 2 7 3 5 3 4 4 2 4 1h4l5-2 4-2 5-4 4-4 5-6 5-7 5-8 4-8 5-9 7-19 3-9 3-8 4-9 2-8 3-6 4-10 2-4 2 4v4 11l1 7v7l1 9v8l1 9 1 16 2 7 1 7 2 6 3 6 6 8 4 3 4 1h4 4l5-1 5-3 9-9 10-14" style="clip-to-self:true;comp-op:src"/>
<path transform="scale(.1)" d="m2590.3 7048.4-1 4-1 3v4l-2 10-1 6v13l1 7 3 13 2 6 2 5 6 10 4 4 5 4 4 3 5 1h5 4l5-3 4-2 4-4 8-11" style="clip-to-self:true;comp-op:src"/>
<path transform="scale(.1)" d="m2618.1 6946.2-4 3-3 2-6 8-6 18-1 6v5 6 6l1 5 2 5 6 8 3 2 4 2 8 2 10-2 4-3 5-3 4-4 4-5 3-5 2-6 1-7v-7-8l-1-8-2-9-3-9-3-8-4-8-4-9-5-7-5-6-6-5-5-3-6-2-6-1-6 1-5 2-4 4-4 5-4 6-2 7-2 8-2 7v9 24" style="clip-to-self:true;comp-op:src"/>
<path transform="scale(.1)" d="m2778.4 6846.9-2-4-3-3-3-4-4-2-3-1h-3l-3 6-1 5-1 6v7l-1 9v11l-1 12v87l2 40 2 19 2 18 3 17 3 16 4 14 5 13 4 11 5 9 5 7 6 4 5 4 7 2h6 7l7-2 8-3 14-8 14-12 11-18" style="clip-to-self:true;comp-op:src"/>
<path transform="scale(.1)" d="m2895.9 7000.9-2-3-3-2-3-3-5-1h-4l-5 2-4 2-10 8-10 12-4 6-5 8-3 8-4 9-4 10-2 10-3 10-2 10-1 10v10l1 9 1 8 2 8 3 7 3 5 7 7 5 1h4l5-1 6-2 12-8 6-5 5-6 6-7 5-7 5-6 3-7 4-6 3-7 1-5 2-5 1-4 1-3v-4l-2 5-1 4v4 5 5l2 12 5 11 2 6 4 5 4 4 8 6 5 1 4 1 13-3" style="clip-to-self:true;comp-op:src"/>
<path transform="scale(.1)" d="m2987.2 7040.3-2-5-1-3-1-4v-3-4l1-3 2-4 6-6 4-3 4-2 4-1 5-1h5l4 1 6 1 10 6 5 4 5 6 4 6 4 7 2 7 3 8 2 9 1 8v9 9l-1 10-2 9-1 9-2 9-4 14-2 5-2 4-2 2-5 4-4-2-4-5-1-4-2-5v-7-14l2-16 3-9 2-9 3-10 5-10 10-22 6-12 7-12 16-22 7-9 8-7 6-5 7-3 4-2 5 1 7 9" style="clip-to-self:true;comp-op:src"/>
<path transform="scale(.1)" d="m3452.2 6993.1 1-3 2 4 2 5 1 6 1 7 3 9 1 10 1 11 2 26 1 14v32l-1 17v18l-2 38v19l-1 19-1 17v15 14l-1 12v11 9 9l-1 7-2 10v3l-4-1-2-4-1-5-1-6-2-7-1-9-2-9-1-10-2-10-1-11-2-12-1-11-3-36-2-25-2-23v-11l-1-10v-10l2-20 2-9 2-8 7-16 5-7 4-7 6-6 7-5 7-4 9-4 9-2 10-2 10-1h11l10 1 9 1 9 2 8 3 6 5 5 6 2 6 2 8 1 8-1 8-2 9-3 9-4 9-5 9-6 8-7 9-14 14-8 5-7 5-7 3-6 2-5 2h-6-4l-4-1-4-3v-3-5l5-10 4-7 14-18" style="clip-to-self:true;comp-op:src"/>
<path transform="scale(.1)" d="m3600.3 7045 1 3 4 1 7 2 4 1 10 2 5 3 6 3 5 3 5 4 5 5 4 6 3 6 3 7 1 8v9 10l-1 10-6 20-4 9-3 9-5 8-5 7-4 5-5 5-4 3-5 3-4 1h-4l-3-1-4-2-2-3-2-4v-5-7l1-8 3-9 3-10 5-11 4-11 6-11 6-12 8-13 7-13 8-13 18-28 9-13 9-12 9-10 9-9 7-6 6-5 4-2 4-1 3 4 1 3v6l-2 12-4 16-5 24-1 8-1 9-1 7v8 6l1 7 2 6 2 5 2 6 4 4 3 4 5 4 3 3 5 3 4 3 4 2 5 2 4 1h4 4l6-2 3-2 4-5 2-6v-7-4l-1-4-4-8-2-3-3-3-6-4-4-1h-4l-4 1-4 2-8 6-4 5-3 5-4 6-4 14-2 8v7 8l2 14 2 6 6 10 7 7 4 2 5 1h4l6-1 6-2 6-3 6-4 6-6 7-6 6-7 5-8 5-10 5-9 3-11 3-10 3-11 2-24v-12l-1-13-2-24-2-10-3-9-2-7-4-5-5-3-4-1-6 1-5 3-11 11-6 8-5 9-6 10-4 11-5 10-4 10-3 10-4 25" style="clip-to-self:true;comp-op:src"/>
<path transform="scale(.1)" d="m3918.4 7014.7 1-4 1-3 3 4 5 10 1 5 4 14 1 8 2 18 1 11v10 12 12 14 14l-1 13-2 28-1 13-1 14v12l-2 20v34l1 4v-5-13-6l-2-14-1-8-2-18-2-10-4-22-2-26-2-14-1-14v-14-14-14l2-13 1-13 3-12 4-10 3-10 6-9 5-8 6-6 6-5 6-3 7-2h6l7 1 12 4 7 4 6 5 4 5 5 7 2 7 3 8v9 10l-4 20-4 10-5 10-12 20-7 9-14 16-7 6-6 5-5 4-5 2-4 1-5-1-3-6 1-11" style="clip-to-self:true;comp-op:src"/>
<path transform="scale(.1)" d="m4027.8 7099.4v4l1 4 3 3 6 2 3-1 10-2 7-2 6-3 8-3 8-4 8-6 8-5 7-6 7-5 7-6 5-5 5-6 4-6 2-7 4-12v-6l-1-5-2-4-3-3-5-2h-5l-8 2-7 3-8 4-9 7-8 7-8 9-7 9-7 11-6 11-5 12-4 11-3 12-2 12-1 11 1 11 1 10 3 9 4 8 4 6 6 5 5 4 7 2 7 1h7l9-1 8-2 8-3 8-4 8-5 13-13 7-8 12-16 5-10 12-21 6-11 8-12 7-11 8-10 7-10 7-8 6-7 6-5 4-3 4-1 6 2 2 3 1 5 2 6 1 7 1 9 1 8v20l-1 10-3 33-1 10-1 9-2 9v8l-2 6-1 6-2 8-3 3-4-2-1-7v-4l1-6v-7l2-8 1-8 5-18 8-20 5-11 6-11 6-12 16-24 9-12 9-11 8-10 7-9 6-7 13-11" style="clip-to-self:true;comp-op:src"/>
<path transform="scale(.1)" d="m4400.9 6882.2-4-8-3 2-4 6-1 5-1 6-2 8-2 9-1 10-1 12v13 15l-1 15-1 16v17l-1 16v16 32 16l2 14 1 14 4 13 4 12 4 10 5 8 7 8 6 5 7 4 8 2 7 1 9-1h9l8-2 8-4 9-3 7-4 11-11 4-6 3-6 3-15" style="clip-to-self:true;comp-op:src"/>
<path transform="scale(.1)" d="m4367.8 7084.7 1-3 6-12 3-5 4-4 3-4 5-4 11-8 6-3 12-5 7-2 6-2h7 6l7 1 6 2 6 3 5 4 4 5 5 6 6 16 4 18 2 20v10 10l1 10v20 9l1 8v6l1 5v4l5-5" style="clip-to-self:true;comp-op:src"/>
<path transform="scale(.1)" d="m4480.6 6927.5-5-2-3-1h-4l-5 1-3 2-4 6-2 4-2 8v4l1 5 4 8 4 4 8 6 6 2 5 1 6 1 6-1h6l6-2 6-3 5-3 4-3 4-4 3-4 3-12-1-4-1-5-4-8-4-5-3-4-5-3-4-2-5-1-4-1-5 1-4 1-4 2-8 8-2 6-3 6-2 6-2 8-1 22" style="clip-to-self:true;comp-op:src"/>
<path transform="scale(.1)" d="m4572.2 7065.6 2 3 3 2 6 2h3 4 5 5l6-2 6-1 7-2 14-6 21-12 10-10 5-4 3-6 4-10 1-5v-5l-1-4-4-6-4-2h-5-5l-7 2-7 3-16 10-16 14-14 18-5 9-4 10-3 9-3 11-2 10v10 10l1 9 3 8 3 7 4 6 6 5 7 3 8 3 9 2h9l10-1 10-2 11-3 10-4 20-10 10-6 10-7 10-8 9-8 8-10 9-9 8-11 14-21 6-11 5-9 3-8 2-7 1-5v-4l-4-3-7 2-4 2-10 8-10 12-6 12-2 7-1 7v7 6l2 6 6 12 3 5 8 10 4 4 3 5 8 8 6 8 2 3 1 4 1 3-3 7-2 4-8 6-6 3-5 2-6 3-7 1-14 4-6 1h-6-5l-5-1-4-2-4-1-7-6" style="clip-to-self:true;comp-op:src"/>
<path transform="scale(.1)" d="m5241.2 6775-4-4-5-3-6-4-8-3-9-2h-10-10l-10 1-11 2-10 4-9 3-9 6-8 6-6 7-6 8-5 9-4 11-3 12-3 13-3 14-1 16-2 17-1 18v20l-1 21v21l1 21v21l1 21v20l1 20v18 19l1 17v32l-1 15v13 13l-2 20-1 7-2 6-1 5-2 3-3 3-5 2-5-2-2-2-2-3-15-20" style="clip-to-self:true;comp-op:src"/>
<path transform="scale(.1)" d="m5011.9 7120.6 4-6 3-5 18-21 7-7 8-6 18-14 10-7 10-6 9-5 10-5 9-3 8-2 7-1h7l6 2 5 3 3 4 6 10 2 6v7l2 16v8l1 8v34l2 14 1 6 3 6 3 4 4 2 4 3 5 1 4-1 5-1 5-2 4-2 4-3 4-4 3-4 3-5 2-5 2-12v-6l-1-6-1-7-9-21-4-6-5-6-5-5-6-4-14-6-6-1-7-1h-7-6l-4 1-4 2-3 3 1 3 6 3 4 1 5 1h12l14-2 8-1 16-4 8-3 8-2 16-6 7-3 14-4 6-2 11-2 5-1 8 2 2 2 4 3 2 3 1 5 2 5 1 6v7 8 8l-2 18-1 10-1 9-1 10-1 9-1 8-1 7v7l-1 6-1 4v3 4l-3-2-1-7-2-4-1-5-2-12v-15l1-9 1-8 2-10 3-9 3-10 10-22 6-10 8-11 16-18 9-8 10-7 18-10 9-4 8-3 8-2 16-3" style="clip-to-self:true;comp-op:src"/>
<path transform="scale(.1)" d="m5790.9 7014.7 4-5 9-9 3-5 2-4 1-4v-3l-2-3-3-2-4-1h-5l-7 1-6 1-8 2-9 2-8 3-8 4-9 5-8 5-8 6-7 7-6 7-10 16-3 8-2 9-1 9v8l1 9 3 8 2 9 3 8 8 16 5 6 4 7 4 6 3 6 3 5 3 4 2 8v4l-4 6-4 3-5 3-6 2-8 2-24 3h-8-9l-14-2-6-3-5-2-4-2-3-4-1-4v-4l2-5 3-5 5-6 6-7 20-17" style="clip-to-self:true;comp-op:src"/>
<path transform="scale(.1)" d="m5807.2 7083.4h4l3 1h5l4-2h5l4-2 5-2 12-6 14-8 18-12 8-10 3-4 3-5 2-5 1-5v-4-4l-2-3-4-2-3-2h-5l-12 2-14 8-7 5-7 6-6 7-12 16-5 9-8 18-2 18v8l1 7 3 7 4 5 5 5 6 4 8 3 8 2 8 1h10l11-1 11-2 22-6 11-5 11-4 18-12 9-7 7-7 6-8 10-18 8-22 3-13 2-14 1-16 2-16v-18-36l-1-16-1-14-2-12-2-10-3-8-2-5-3-3-3-2-6 2-3 3-2 4-1 7-2 8v9l-1 12 1 13v15l2 15 1 17 4 34 2 16 2 17 2 16 3 16 2 14 3 14 6 24 2 10 3 8 3 7 2 6 3 4 3 3 4 2 5-3 2-3 2-4 2-5 4-24" style="clip-to-self:true;comp-op:src"/>
<path transform="scale(.1)" d="m5955 7031.6-1-4v-3l2-3 6-4 10-6 6-3 7-5 7-4 9-4 9-5 10-4 10-5 11-4 10-3 11-5 10-4 9-3 21-6" style="clip-to-self:true;comp-op:src"/>
<path transform="scale(.1)" d="m6369.4 7036.2-10 2-7 2-8 2-8 5-8 6-8 7-8 8-7 9-6 10-7 10-5 10-4 10-2 10-3 10v10l1 8 3 8 4 6 6 5 6 4 7 2h9l10-1 11-2 11-3 12-5 26-12 13-7 24-16 10-9 9-9 7-9 6-10 4-10 2-11 1-11-2-24-3-12-5-11-6-10-8-8-9-7-10-5-12-4-12-2-12-1-12 1-12 2-12 4-10 4-10 6-9 5-15 15-5 8-3 8-2 9 2 16 4 8 5 6 7 6 9 5 9 4 10 2 28 2" style="clip-to-self:true;comp-op:src"/>
<path transform="scale(.1)" d="m6541.2 7005.6v-3l-2-5-3-4h-4l-3 5-1 3-1 5v5 6 6l1 8 1 7 2 9 1 10 2 10 2 11 1 11 2 13 1 13 2 30 2 32v16 17 35l1 16v13 13l1 9v8 7 5l-1 4-2 3h-4l-6-4-2-4-4-5-3-5-6-14-4-8-3-8-2-8-6-30-1-10v-11-12l1-12 3-13 2-13 4-14 5-13 5-14 6-14 6-13 7-13 7-12 9-12 8-11 9-11 9-9 10-9 10-8 11-7 10-5 10-4 9-2 8-1h8l5 1 6 3 3 3 2 4 1 5-1 7-3 7-4 8-5 9-7 10-9 10-21 21-24 22-12 10-12 9-10 8-10 6-7 4-6 5-4 2-3 1 3-5 5-4 6-4 9-5 10-6 11-6 11-7 11-8 28-18" style="clip-to-self:true;comp-op:src"/>
<path transform="scale(.1)" d="m6709.7 7068.4-2 3-1 4v4l3 2 5 1h4l4-1 6-1 6-2 7-2 7-3 8-3 16-8 8-5 7-5 6-5 4-5 4-6 3-5 2-5 1-5-1-3-2-4-3-2-4-2h-6l-5 1-7 2-16 8-7 6-8 6-7 7-6 8-6 9-5 9-6 18-2 9-1 9v8l2 8 4 14 4 5 5 4 12 6 6 1h8l7-1 8-2 9-2 8-3 8-4 7-4 14-12 12-14 5-8 6-8 5-8 11-16 10-12 4-5 3-3 3-2 4 1 2 5v4l1 5v6 7 7l-1 7-1 16-4 15-1 8-3 7-2 7-2 6-2 5-3 7-2 3-4-2v-6-4l1-5 2-6 4-14 2-8 3-9 4-8 4-9 10-20 6-10 7-10 8-10 9-9 18-16 9-6 8-4 7-2 6-1h5l4 2 2 3 4 11" style="clip-to-self:true;comp-op:src"/>
<path transform="scale(.1)" d="m7058.1 7038.4-2-2-6-3-4-1-5 1-5 2-5 3-6 4-5 4-6 6-12 16-7 8-6 9-6 10-10 20-8 20-2 10-4 18v8 7l1 6 1 4 2 4 4 1h3l5-1 5-2 5-3 6-4 12-10 7-6 6-7 6-8 7-7 6-8 6-7 6-8 5-6 6-6 5-4 4-5 4-3 3-1h5l4 3 1 3 2 5 2 4 2 5 5 11 6 12 4 5 4 6 6 5 6 3 14 6 8 2h9 9 9l9-2 9-3 8-3 8-4 8-5 7-6 7-5 5-7 4-6 4-8 3-7 1-9 2-9 1-9v-10-11-11l-2-28-1-16v-16l-1-19v-19-19l2-36 1-16 2-13 1-12 2-9 1-6 1-5 2-2 4 5 2 4 2 7 1 7 1 10 1 11 1 14v32l-1 18-1 19v19l-1 19v19 17 17l1 16 1 15 3 13 1 13 3 12 3 10 3 8 5 7 4 4 5 3 5 2h4l5-1 4-2 6-8 5-13" style="clip-to-self:true;comp-op:src"/>
<path transform="scale(.1)" d="m7152.2 7042.5-6-6-1-4 1-5 2-3 3-3 4-3 5-5 7-3 7-5 16-8 9-4 11-4 10-3 12-3 39-9 14-2 13-3 14-2 13-2 12-1h11l9 1 7 1 6 3 5 3 3 4 3 6 1 6 1 8v8 10l-1 10-2 11-3 11-4 22-2 21 1 9 1 10 2 8 6 16 4 6 4 5 5 5 5 4 6 3 10 4h4l5-1 3-1 7-6" style="clip-to-self:true;comp-op:src"/>
<path transform="scale(.1)" d="m7439.1 6932.2-2-6-4-6-3-2-6-2h-4l-8 2-10 6-6 4-5 5-6 7-8 14-4 8-1 8-2 8-1 8 1 8 1 7 2 7 3 5 4 5 5 4 5 3 7 2 6 1h7l8-1 7-1 7-3 8-3 12-10 5-5 3-6 4-7 2-7 2-14-1-7-2-7-2-5-4-4-5-3-6-2-6-1-8 1-7 3-7 4-7 5-6 6-7 8-5 9-8 18-4 10-3 25" style="clip-to-self:true;comp-op:src"/>
<path transform="scale(.1)" d="m7532.2 7063.1-4 1-3 1-3 2-8 6-4 5-4 4-4 6-6 12-3 7-1 7-2 8v7 7l2 14 3 7 3 6 4 6 3 5 4 4 5 3 4 2 3 2h4l4-1 3-4 2-6v-4l-1-4v-5l-1-5-1-6-1-5-1-6v-6l-1-6 1-7 2-12 3-6 3-5 8-12 6-5 5-5 12-8 7-3 6-3 7-3 7-2 12-2 12 2 4 1 5 2 8 6 3 3 4 10 1 5v6l-1 8-1 6-3 8-2 7-3 8-4 7-4 8-3 7-3 6-2 5-4 8-2 2 1-4 4-8 4-5 3-6 5-6 4-7 5-7 5-8 5-7 6-8 5-8 7-8 7-9 8-8 8-9 9-9 10-8 9-8 8-7 8-4 7-4 5-1h4l5 10v6l-1 7-1 8-2 8-2 9-2 10-3 10-6 30-1 10v9l2 16 2 7 2 5 4 4 4 3 9 1" style="clip-to-self:true;comp-op:src"/>
<path transform="scale(.1)" d="m7835.6 7056.6 2-8v-7l2-8 1-7-1-5-2-4-1-3-6-2-5 1-3 2-3 3-2 3-3 4-2 4-1 6-1 5v6l1 6 2 6 2 7 3 7 3 6 5 7 4 6 18 21 19 20 10 14 5 6 3 7 4 12v6l-4 12-4 5-5 5-7 5-8 4-9 4-11 4-12 3-24 4-12 1-11 1-26-2" style="clip-to-self:true;comp-op:src"/>
<path transform="scale(.1)" d="m8172.5 6959.4-1-3-1-4-1-6v-5l1-6 2-5 4-6 4-5 11-11 7-5 16-10 18-8 20-6 11-2 10-1h10l9 1 9 2 7 3 8 10 2 8v8l-1 10-3 10-10 24-7 13-8 13-8 14-27 42-9 13-8 12-7 11-7 10-5 9-5 8-4 8-3 7-3 6-1 6v6 5 6l2 4 3 4 7 7 5 3 6 2 7 2 7 1 9 1 7 1 8 1h8 6 12 5 4 4" style="clip-to-self:true;comp-op:src"/>
<path transform="scale(.1)" d="m8300.9 7232.2-4 2-3 2-3 1-4 2-5 3-4 3-5 3-4 4-4 3-3 5-4 4-4 5-3 5-3 6-2 5-3 6-1 5-2 5v5 5l1 5 4 8 6 6 5 2 10 2h6l12-2 6-2 5-3 3-3 3-4 3-5 1-5v-5l-1-6-1-7-2-7-6-14-8-12-10-10-5-3-7-2-6-2h-6l-12 2-10 6-4 3-3 4-2 4-1 5" style="clip-to-self:true;comp-op:src"/>
</g>
</g>
</g>
</svg>
