<?xml version="1.0" encoding="UTF-8"?>
<svg width="1e3pt" height="700pt" version="1.2" viewBox="0 0 1e3 700" xmlns="http://www.w3.org/2000/svg">
<g id="surface70">
<rect width="1e3" height="700" fill="#20282d"/>
<g fill="none" stroke-linecap="round" stroke-linejoin="round" stroke-miterlimit="10">
<g stroke="#fff">
<g stroke-width="14.1">
<path transform="scale(.1)" d="m3943.1 537.5 1-6v-3-3l-1-4-3-5-2-4-1-4-5-5-4 3-1 2-3 5-2 5-3 8-4 9-3 11-2 12-3 13-3 16-2 16-1 17-1 18-1 19v18 18l1 18 2 16 3 15 3 14 4 11 5 10 5 9 5 6 6 5 5 3 7 2 7 1h7l7-2 7-3 9-4 8-6 8-7 9-8 8-10 7-11 8-12 8-13 7-14 6-15 7-16 5-17 6-17 5-19 10-40 4-20 4-19 3-18 3-16 2-13 1-10 1-7v-5l-1-4-3 1-3 3-1 5-2 5-4 16-2 18-1 11v23l1 12 1 13 3 27 2 13 1 13 2 13 2 12 2 11 3 10 3 9 3 7 3 5 3 4 7 5" style="clip-to-self:true;comp-op:src"/>
<path transform="scale(.1)" d="m4195.3 644.38-1-4-2-10v-3l1 3v3 5 5 6 8l-1 9v10l-1 12-1 11-1 12v13 34 10l1 7 1 6 1 4v3l2 3 5-5 4-10 2-7 3-8 3-9 2-9 3-11 3-10 9-33 4-11 10-24 6-11 7-10 7-8 7-6 6-5 5-2 6-1 4 1 4 2 4 3 2 5 3 7 4 18 1 11 2 13 1 13 1 14v14l1 14v15l1 13 1 14 1 11 4 18 2 6 2 5 2 3 4 1h3l3-2 9-9 11-19" style="clip-to-self:true;comp-op:src"/>
<path transform="scale(.1)" d="m4434.4 629.06 3-2-2 3-1 3v5l-1 4-1 5-1 7v7l-2 7-1 8v8l-1 9v9l1 10v10l1 10 3 9 2 9 2 8 6 12 3 3 4 3 3 1 3-1 3-3 8-11" style="clip-to-self:true;comp-op:src"/>
<path transform="scale(.1)" d="m4466.6 519.38-6-6-3-1-3 2-1 4-1 6-1 4v4 5 5 5 5l4 10 4 8 6 6 3 2 4 1 3 1h3l4-1 4-2 2-2 3-4 3-3 4-10 1-5v-6-6l-2-12-4-12-2-5-6-10-3-4-2-2-3-1-6 2-3 3-2 3-2 5-3 13-2 17" style="clip-to-self:true;comp-op:src"/>
<path transform="scale(.1)" d="m4649.4 628.44-1-2-5-5-6-2-4 1-3 1-4 2-8 8-5 6-5 5-5 7-5 8-4 9-5 10-3 11-4 11-1 12-1 13 1 12 1 13 4 12 3 10 6 9 5 8 7 4 8 2 8 1 9-2 10-3 10-5 9-7 9-8 9-9 8-11 7-11 12-24 4-12 3-12 2-12 2-13v-11-12l-1-10-4-18-4-6-3-5-5-4-6-1h-6-6l-7 3-6 3-5 5-6 5-4 6-3 7-3 6-2 14v6l5 15" style="clip-to-self:true;comp-op:src"/>
<path transform="scale(.1)" d="m4799.1 621.25-2-2-1 3-1 6-1 4v6 27 9l1 8 1 10 4 36 1 8 1 7 1 6 1 4 2 4 2-4 1-3 2-12 1-7v-9l2-18 1-10 3-20 6-33 3-11 3-12 4-11 5-10 5-9 5-8 6-5 5-3 5-2h5l4 2 5 3 5 4 5 6 5 7 4 9 5 9 4 10 3 10 2 12 3 13 2 14 1 15v15 16 16l-1 15-1 14-1 12-3 33" style="clip-to-self:true;comp-op:src"/>
</g>
<path d="m381.91 92.281h116.88" stroke-width="1.41" style="clip-to-self:true;comp-op:src"/>
</g>
<path transform="scale(.1)" d="m4297.2 1186.9v-3l-2 3-1 4-1 5-1 3v3 24 5l1 6v6l1 6 1 7v7l3 21 1 9 2 8 2 9 1 8 10 40 2 7 3 7 2 8 6 14 8 21 4 7 3 6 4 7 3 6 4 6 4 5 3 5 9 9 4 5 4 4 4 3 4 4 4 2 4 3 8 5 4 1 3 1h4 10 3l3-1 4-1 4-2 6-4 4-2 12-12 2-4 2-5 3-4 3-5 5-11 3-5 2-6 3-6 2-6 3-6 2-6 3-6 1-6 2-7 2-5 2-12 2-6v-7l2-12 1-7v-6l3-21v-7l1-7 1-8v-7l1-8v-8l1-9 1-8v-8l1-8v-7l1-7v-7l1-5v-5-4l1-4v-3-3l1-4v-4-6l-2-3-1 5-1 4v4l-1 4" stroke="#0f0" stroke-width="14.1" style="clip-to-self:true;comp-op:src"/>
<g stroke="#fff" stroke-width="14.1">
<path transform="scale(.1)" d="m2248.8 1939.1-3-2h-4l-2 2-3 5-3 4-2 5-2 6-3 7-4 7-3 9-8 20-4 12-3 12-4 13-3 13-5 15-4 14-3 14-4 15-3 13-2 14-3 11-2 10-2 14v4l-1 3v3l1-5 1-4 1-5 1-6 2-7 3-8 2-8 2-9 6-20 3-11 4-12 3-13 8-28 5-16 5-17 6-17 5-18 12-34 6-16 6-15 6-11 4-10 5-8 3-5 4-3 3-2 4 2 2 2 1 5 2 5 2 6 1 8 1 7 2 8 1 9v8l2 18 1 10 1 9 2 10 2 11 1 11 2 12 2 11 2 12 2 24 2 12 1 11 1 12 1 11 2 11 2 18 2 14 2 10 2 6 1 4v-4l-1-4-2-4-4-13" style="clip-to-self:true;comp-op:src"/>
<path transform="scale(.1)" d="m2202.8 2079.7 1-4 3-3 5-4 10-5 4-3 6-2 6-3 14-6 9-2 8-3 10-3 11-3 10-2 22-6 10-4 20-6 23-8" style="clip-to-self:true;comp-op:src"/>
<path transform="scale(.1)" d="m2476.2 2008.1 3-2 3-1 12-6 11-2 18-3 14-2h12l5 1h4l4 1h4" style="clip-to-self:true;comp-op:src"/>
<path transform="scale(.1)" d="m2480.6 2066.6 3 1h5l4-1 5-1 24-4 21-3 8-1h7l8-1h7l12-2 5-1 4-1 8-1" style="clip-to-self:true;comp-op:src"/>
<path transform="scale(.1)" d="m2879.1 1829.7-2-4-1-3-3-3-2-3-3-2-4-2-3-1h-4-5l-5 2-7 1-7 3-16 8-9 6-10 6-9 7-10 7-8 9-9 8-7 9-9 18-3 9-2 8v8l1 7 2 7 3 7 10 10 6 5 7 4 8 3 16 7 8 2 7 3 7 2 6 2 5 3 4 3 3 2 2 3 1 3v3l-1 4-2 4-3 4-4 5-4 4-5 6-6 4-12 10-6 4-10 8-4 3-2 3-3 5 3 3 3 1 5 1 4 1h6l18 3 7 1 6 1 5 1 6 2 4 2 5 2 3 3 2 3 2 4v5l-1 4-2 5-2 6-3 6-5 6-5 7-6 5-6 7-7 6-6 6-8 6-6 6-7 5-5 6-6 6-4 6-3 6-2 6-1 5v5l1 6 2 4 4 4 4 3 6 4 7 3 9 3 10 4 20 4 12 2 12 1 11-1 12-1 36-6 11-2 10-3 10-2 9-3 9-2 7-2 6-2 5-2 5-5-4-6" style="clip-to-self:true;comp-op:src"/>
<path transform="scale(.1)" d="m3093.1 1947.5-2-5-2-3-1-5-2-3-4-4-2 2-1 3-1 4v5 6l-1 7v16l1 9v10 11l1 11v12 12 13l1 12v23 9l1 9v7l5 11" style="clip-to-self:true;comp-op:src"/>
<path transform="scale(.1)" d="m3179.7 2085 2 1v5 5l-2 3-2 4-2 5-3 4-2 6-4 6-3 6-4 7-2 6-6 14-3 6-2 6-6 10-2 3-3 4" style="clip-to-self:true;comp-op:src"/>
<path transform="scale(.1)" d="m3340 1969.4-12-3-3-2-4-1 4-2 3-1 3-2 4-1 5-2 6-1 6-2 7-1 6-1h7l6-1 6 1 5 1 6 1 7 6 3 4 1 4 1 5-1 7-2 6-8 16-7 9-7 10-7 9-16 20-8 9-21 21-5 6-5 5-3 5-3 3-1 4v5l5 5 5 1 6 1 7 1 8 1h9l22-2 12-1 36-6 12-3 11-2 10-3 9-4 16-8" style="clip-to-self:true;comp-op:src"/>
<path transform="scale(.1)" d="m3512.8 1844.7v-3l1-3 1-4 1-3 4-8 3-2 4-4 5-3 4-3 6-4 12-6 14-6 8-3 7-2 16-4 16-2h7 8l7 1 6 2 6 1 5 3 4 4 2 4 2 6v6 7l-3 9-3 10-8 20-6 10-5 10-7 10-7 11-7 9-6 10-7 9-12 16-10 14-6 12-2 5-1 6v5l1 5 4 8 8 8 5 3 6 3 7 2 7 3 8 2 8 3 7 1 8 2 7 1 7 2 6 2 5 2 5 3 3 3 2 3 2 4-1 5-2 5-3 5-3 6-10 12-7 6-12 12-6 7-11 11-4 5-3 5-2 5-1 4v4l2 4 3 3 3 4 5 3 4 2 7 3 6 2 28 10 7 3 6 2 10 8 4 4 2 6 2 5v6l-4 10-4 6-6 4-6 6-16 8-9 4-9 3-10 4-11 3-10 2-11 3-10 3-10 1-9 1h-9l-9-1-8-1-15-8" style="clip-to-self:true;comp-op:src"/>
<path transform="scale(.1)" d="m5139.4 1881.6v-23-2-4l2 7v5l1 6 1 7v10l1 10v11l-1 12v13l-2 28-2 14-1 29-1 16-1 15v26l1 10 1 8v5l2 4 2 2 2-3 4-11" style="clip-to-self:true;comp-op:src"/>
<path transform="scale(.1)" d="m5126.6 1943.8-1-5 1-3 2-4 3-3 4-2 4-4 12-6 7-4 7-2 9-3 9-2 10-2 21-2 10-1h10 10l9 1 8 2 14 6 5 4 3 5 2 6v6l-1 7-2 7-4 7-5 7-6 8-7 7-8 6-8 7-18 11-9 5-10 4-9 4-16 6-7 3-6 2-5 2-3 2-1 3 7 1h5l7 1h28l10 1h10l11 2 10 2 18 6 7 4 6 4 5 5 3 5 2 6v6l-2 6-3 5-3 6-6 5-14 10-8 4-9 4-20 6-11 2-12 2-24 2-14 1h-12-13l-11-1-11-2-10-1-7-2-7-3-5-4-3-3-2-3-1-4 4-10" style="clip-to-self:true;comp-op:src"/>
<path transform="scale(.1)" d="m5399.7 2011.6 2-2 3-2 4-2 4-1 12-4 6-1 7-1 8-2 16-2h7l7-1 6 1h5l4 1 3 1-4 5" style="clip-to-self:true;comp-op:src"/>
<path transform="scale(.1)" d="m5388.1 2078.4h6 5l10-2 6-1 7-1 16-2 9-1 8-2 9-1h8l9-1 14-2 6-1 5-1 8-2" style="clip-to-self:true;comp-op:src"/>
<path transform="scale(.1)" d="m5790.9 1833.1 2-5 1-4 2-6 1-4 1-5v-6l-1-5-3-3-3-2h-3-5l-5 1-6 2-7 2-7 4-9 4-9 5-10 6-10 7-11 7-12 7-10 9-10 8-9 8-7 8-5 8-4 8-1 8v8l1 7 3 7 4 5 5 7 6 5 14 10 16 8 18 6 8 3 7 2 7 3 11 5 6 6 1 3v4l-1 4-2 4-3 4-9 9-6 5-7 5-24 15-7 5-14 8-6 4-4 3-3 2-3 3-1 3 2 3 5 2 3 1 5 2 5 1h4l6 1 10 4 5 3 5 2 4 3 5 3 6 6 4 8 1 4v4 4l-1 4-2 5-3 4-3 6-3 5-10 12-18 18-6 5-7 5-6 5-5 4-8 8-4 5-2 3-1 4-1 3v3l1 4 6 4h5 14 9l10-1 10-2 12-2 11-2 12-2 12-1 33-6 10-1 9-1 10-1h7l7-1 5-2h4" style="clip-to-self:true;comp-op:src"/>
<path transform="scale(.1)" d="m5915 1949.4-1-3 2-4 4-3 6-3 3-1 5-2 5-1 5-2 18-3h7l7-1h6l7 1 6 1 5 1 8 6 2 4 2 5v5l-2 12-3 7-8 14-6 8-5 8-14 16-24 21-16 12-8 5-7 5-7 4-6 4-5 3-9 9-1 3 3 2h4 6 6l8-1 8-2 9-1 40-8 9-2 8-1 8-3 5-2 11-3" style="clip-to-self:true;comp-op:src"/>
<path transform="scale(.1)" d="m6105.3 2074.1 4 1 3 1v3l-4 4-2 3-8 8-5 4-5 5-12 10-6 6-7 6-6 5-6 6-12 10-4 5-7 7-2 3-3 2-3 1-1-4" style="clip-to-self:true;comp-op:src"/>
<path transform="scale(.1)" d="m6240 1948.1-1-3v-5-4l2-4 5-4 4-2 3-3 5-2 6-2 6-3 14-4 8-1 8-2 16-3h8 7l7 1 6 1 5 2 3 2 2 3 1 4v5l-2 5-2 6-4 6-5 7-20 20-17 13-8 6-9 5-8 6-8 4-6 4-7 3-5 3-4 2-3 2 3 2h3l12-2 14-2 9-1h8l9-1h9l9 1 16 2 7 2 6 3 4 3 3 4 2 5v5l-1 6-2 6-4 6-10 12-14 12-8 6-9 5-8 5-9 4-8 4-18 6-8 2-17 3-14 2h-12l-5-1-4-1-3-2-2-1 2-10" style="clip-to-self:true;comp-op:src"/>
<path transform="scale(.1)" d="m6443.8 2078.1 3-1 1 4-6 9-4 3-4 5-4 4-5 6-6 5-14 15-16 14-7 7-9 8-7 7-7 8-7 6-16 16-5 3-6 4-2-5 6-10" style="clip-to-self:true;comp-op:src"/>
<path transform="scale(.1)" d="m6622.2 1936.2-6-4h-4l-4 1-5 2-3 2-5 2-4 3-6 4-6 3-12 10-7 5-19 19-6 7-4 7-4 6-3 6-2 6-1 6v6l2 5 3 5 3 4 6 4 6 3 8 3 9 3 9 2 10 1 11 1h11 12 11l12-1 11-1 20-2 9-2 8-1 6-1 5-1 4-2 2-2 1-5-4-6" style="clip-to-self:true;comp-op:src"/>
<path transform="scale(.1)" d="m6633.8 1972.2 3 1 2 5 1 4 1 3v5 4 6l-1 7v8l-2 18v10l-4 44v11 12 10l1 11v11l1 10 2 10v9l2 7 4 8h3l6-5" style="clip-to-self:true;comp-op:src"/>
<path transform="scale(.1)" d="m6780 1894.1-2-3-1-3-1-4 2-3 4-5 4-2 3-3 4-3 5-2 5-3 12-4 7-1 6-2 8-1 6-1 7-1h13l7 1 6 1 5 1 5 2 3 2 4 3 1 4 1 3-2 10-3 6-4 7-10 14-7 8-6 7-8 9-7 7-7 8-8 8-6 7-5 7-5 6-6 12-1 5-1 6 1 4 2 5 7 7 5 4 6 3 7 4 7 3 8 2 7 3 9 3 7 3 8 2 7 3 6 4 6 3 5 3 5 4 6 6 2 5 1 4v4 5l-2 5-2 6-3 5-4 6-4 5-3 4-4 6-3 3-6 8-2 6v5l4 5 2 2 12 6 6 2 5 2 6 2 13 4 6 3 6 2 6 4 5 2 5 4 8 8 4 8v5l-1 5-4 10-10 8-7 4-8 4-18 8-22 6-24 6-24 4-12 3-11 2-20 2-9 1h-10l-17-3" style="clip-to-self:true;comp-op:src"/>
<path transform="scale(.1)" d="m3432.2 2891.9 1-4 1-2 2-8 1-2 1-4h-5l-3 6-3 5-5 15-4 9-4 11-3 14-5 14-5 15-5 16-6 15-6 16-5 15-6 15-5 14-6 14-5 13-4 12-5 11-3 9-2 7-4 10v4l3-1 6-6 4-5 5-6 12-16 14-20 7-11 8-13 7-12 7-15 8-15 6-17 7-18 8-20 7-20 8-20 7-19 8-18 13-26 5-9 4-7 6-6 3 2 2 4v6 6l1 8v20 10l1 12 2 13 1 13 4 26 2 14 9 39 4 12 6 22 4 10 3 9 3 8 3 7 5 11 2 4 2 3 4 3 1-4-2-7" style="clip-to-self:true;comp-op:src"/>
<path transform="scale(.1)" d="m3412.8 3058.8 2-4 2-2 3-2 3-3 4-3 5-2 14-6 7-2 18-6 10-2 11-1 10-3 13-1 11-3 22-4 10-2 19-4" style="clip-to-self:true;comp-op:src"/>
<path transform="scale(.1)" d="m3676.9 2894.7-4-3-3 3-1 6v10l1 6v7l1 9 2 20 1 12 2 11 3 12 2 12 9 36 4 12 3 11 4 11 5 9 4 9 5 8 5 6 5 5 6 4 5 2 5 1h6 4l5-2 5-3 4-4 4-3 8-10 3-6 2-7 3-6 2-7 1-8 2-18v-11-11l-1-12-1-14-2-14-2-15-3-32-2-14-2-13-1-11-1-7-1-6-2-8 1 3 2 7 1 4 4 10 2 6 8 17" style="clip-to-self:true;comp-op:src"/>
<path transform="scale(.1)" d="m3905.9 2920.9-2 4 1 4v5l1 7v7 10 9 22l-1 11v12l-1 11v12 33 10l1 9 1 8 1 7 1 6 3 8 2-3" style="clip-to-self:true;comp-op:src"/>
<path transform="scale(.1)" d="m3925.6 2921.2 3-9 4-8 11-11 4-3 6-3 5-3 6-2 6-3 5-1 6-1h6 6 5l5 1 8 6 2 4 2 12-1 7-2 8-3 8-4 10-6 9-5 10-7 10-8 10-8 9-7 8-7 7-7 6-6 6-6 5-4 4-4 3-2 2-2 4 5 1h4l6-1h6l8-1 7-1 9-1h8 8l8 1 7 1 8 1 6 2 5 2 5 3 4 4 3 4 1 4 1 5-1 5-2 5-2 6-4 6-11 11-6 5-7 5-6 5-14 8-6 4-6 3-6 2-5 3-5 1-8 2h-6l-3-3 1-5 4-7 6-10" style="clip-to-self:true;comp-op:src"/>
<path transform="scale(.1)" d="m4198.1 2979.4-1-4 1-3 4-3 7-3 3-1 15-3 4-1 6-1 5-1h6l4-1h5l4 1h3l3 1 4 3 1 3-2 2-8 6" style="clip-to-self:true;comp-op:src"/>
<path transform="scale(.1)" d="m4214.4 3041.6 2 3 3 2 6 1h4 9l11-1 6-1 7-1 6-1h6l7-1 13-2h5 6l6-1h4 5l3-1" style="clip-to-self:true;comp-op:src"/>
<path transform="scale(.1)" d="m4712.8 2806.6 1-4 2-3 1-3 1-4v-3l-1-5-2-4-4-4-3-2-3-1-8-2h-5l-12 2-7 2-8 2-7 3-18 8-9 5-9 6-10 6-9 6-8 6-14 14-6 7-6 14v7 7l3 6 4 7 5 6 7 6 8 5 9 5 9 6 20 8 11 4 9 4 10 4 8 3 8 4 7 4 6 5 5 4 4 5 2 5 2 6v7l-2 7-2 6-4 7-4 8-11 13-6 7-6 6-7 6-6 5-12 8-4 4-4 3-3 2-1 4 4 2 3 1h4 5 29l16 2 7 1 14 4 10 6 3 4 2 4 1 5v6l-1 6-6 12-5 6-4 7-18 18-7 6-8 5-6 6-8 5-6 5-6 6-6 4-12 12-2 3-1 4v5l4 4 3 2 4 1 5 1 12 2h8l7 1h26l9-1h10l9-1h10l18-2h8l8-1h7 6 5l3-1 4-1-3-3-8-2" style="clip-to-self:true;comp-op:src"/>
<path transform="scale(.1)" d="m4905.6 2882.2-2-3v3 3 4l1 6v6l1 8 2 18 1 11 2 10 4 23 2 11 2 10 3 10 2 10 3 10 3 9 2 9 3 8 3 7 1 5 3 9v5" style="clip-to-self:true;comp-op:src"/>
<path transform="scale(.1)" d="m5070.3 3021.2-1 4-1 5-3 12-1 5-2 6-1 5-3 7-2 6-4 14-2 6-2 7-4 13-2 5v5l-2 8-6-2" style="clip-to-self:true;comp-op:src"/>
<path transform="scale(.1)" d="m5145.3 2906.2-2-3-1-4 2-4 5-3 10-4 6-2 14-4 8-2 9-2 18-2h9 8l8 1 7 1 5 2 5 3 3 4 2 6v6l-1 8-2 8-3 10-6 11-5 11-8 11-8 12-9 11-10 11-18 18-18 16-8 6-7 5-6 5-5 4-4 3-2 3-1 3 6 2h11l8-1 9-1 10-1 10-2 11-1 11-2 11-1 22-4 9-1 10-1 8-3 7-1 7-2 13-4" style="clip-to-self:true;comp-op:src"/>
<path transform="scale(.1)" d="m5365.9 3012.8 4-1v3l-2 4-2 3-6 6-4 5-4 4-4 5-4 6-4 5-5 7-3 6-4 6-4 7-3 7-3 6-1 7-2 6-2 5-2 4-1 4-2 3" style="clip-to-self:true;comp-op:src"/>
<path transform="scale(.1)" d="m5519.1 2879.1-2-3v-4l3-2 5-2 5-1 4-2 7-1 14-4 16-2 9-1 16-1h7 7l7 1 5 1 5 2 3 3 2 3v4 5l-2 6-3 6-4 7-5 7-7 7-6 7-7 7-16 14-7 6-14 10-5 4-6 3-8 6-3 3 3 1 4-1 11-2 6-1 8-2 8-1 9-2 8-2h9l16-2h15l12 2 4 2 6 6v4 4l-3 6-3 5-5 6-6 6-14 12-9 6-9 5-9 6-9 4-9 5-10 3-8 4-16 6-8 2-7 1-5 2h-5l-3 1-5-1 3-4 2-3 10-10" style="clip-to-self:true;comp-op:src"/>
<path transform="scale(.1)" d="m5815.6 2959.7-3-2-1 2-8 8-4 5-4 4-6 5-5 6-6 5-7 7-21 18-8 7-7 6-8 6-7 6-8 5-12 10-6 4-5 5-12 6v-3" style="clip-to-self:true;comp-op:src"/>
<path transform="scale(.1)" d="m6042.2 2788.4-4 2-3 2-3 3-4 3-9 9-6 5-13 13-16 14-16 16-9 8-16 16-7 8-6 8-5 7-4 6-3 6-1 5-1 3v4l2 3 2 2 5 2 12 2 8 1h21l11-1h11l52-4 12-1 11-1h10l9-1h9l6-1h5l4-1 2-1-5-5" style="clip-to-self:true;comp-op:src"/>
<path transform="scale(.1)" d="m6014.1 2844.4 2 5v5 4l1 4-1 6v6 7l-1 7-1 9-1 8-1 10v11 33 11l1 12 1 10 1 11 2 10 1 10 2 9 2 8 1 7 2 5 2 3 3 3 8-5" style="clip-to-self:true;comp-op:src"/>
<path transform="scale(.1)" d="m6147.5 2760.9v-4-3l3-6 6-4 4-2 5-2 6-2 7-1 8-2 8-1h9l9-1h10 10l9 1 19 3 7 2 8 3 12 8 4 5 3 6 2 7 1 8-1 8-3 9-3 10-5 11-6 11-7 10-7 11-8 11-9 11-8 10-9 9-7 9-7 8-7 7-6 7-5 5-5 6-3 4-3 5-1 4-1 3v3l4 5 3 2 4 1 6 2 6 1 32 4 9 2 8 1 9 2 7 2 8 3 6 2 6 3 5 3 3 3 2 4 1 3v4l-2 4-3 4-4 5-6 4-6 5-7 5-8 4-8 5-9 5-21 12-5 4-5 3-3 3-2 3-1 5 4 4 4 2 5 2 6 2 7 2 7 1 24 6 9 3 8 2 22 11 6 4 6 5 4 6 2 6 1 6-1 6-2 6-3 6-5 6-6 5-7 6-8 5-10 6-10 5-22 10-36 12-12 3-11 4-11 2-19 4-7 2-7 1h-6l-6-1-5-1-4-3-3-2-6-7" style="clip-to-self:true;comp-op:src"/>
<path transform="scale(.1)" d="m2727.8 3749.4 3-2 1-4 1-3-2-4-2-3-3-2-4-1-2-1-4-1h-4l-5 1-12 2-7 2-7 4-8 3-8 4-18 10-9 6-10 6-8 7-8 6-8 7-12 13-5 6-3 5-1 4v5l2 3 3 3 5 3 6 2 7 2 18 2h10l22-2 23-1h10 21l8 1 7 1 6 3 5 2 3 4 2 3 1 5-1 5-4 12-5 6-5 7-6 7-28 24-6 5-7 5-6 4-10 8-3 2-3 3-2 3 5 2h8l6-1h5l6-1h6l6-1h6l5 1 4 1 4 2 3 3 2 3v4l1 5-1 7-2 7-3 8-15 27-7 10-21 27-8 8-8 9-7 8-8 7-7 7-8 7-6 7-5 6-5 7-4 6-2 7-2 5v5 4l4 8 3 4 5 2 4 3 12 4 7 1h7 8 9l9-1 10-1 10-2 22-4 12-2 22-4 18-4h8 11 3l3 3v4l-7 7-3 1h-9" style="clip-to-self:true;comp-op:src"/>
<path transform="scale(.1)" d="m2961.6 3917.5-3-2-6-3-4-3-3-2 2-3 5-3 3-2 10-4 6-2 21-6 7-1 14-1 7 1 6 1 5 3 5 4 3 4 2 6 1 7 1 8-2 18-2 10-3 10-8 20-5 9-4 9-5 7-4 7-4 6-4 5-2 4-3 3-2 4 3-3 3-2 3-4 10-11 7-5 14-14 16-15 7-9 8-8 7-9 8-8 14-18 12-18 6-7 5-7 6-10 2-4-5 1-3 2-10 8-4 5-12 14-5 8-11 18-15 30-6 22-2 10-2 20 1 9 1 8 2 7 3 6 3 5 5 4 5 3 12 4h7 7l7-1 8-2 8-3 8-4 19-11" style="clip-to-self:true;comp-op:src"/>
<path transform="scale(.1)" d="m3297.2 3857.2 1-3v-3h-4l-1 4-1 6v4 3l1 4v5l1 4v4 13" style="clip-to-self:true;comp-op:src"/>
<path transform="scale(.1)" d="m3317.5 4056.2 4-6 3-1 4 1 2 4-1 4" style="clip-to-self:true;comp-op:src"/>
<path transform="scale(.1)" d="m3513.8 3898.1-2-3v-4l2-4 5-5 4-2 5-3 6-4 6-3 7-3 7-4 8-2 9-3 8-3 9-2 10-1 9-1h8 8l7 2 7 3 5 4 5 5 3 7 2 7v9 10l-1 10-3 11-3 12-4 12-10 25-6 13-6 11-6 12-7 11-6 10-7 8-5 9-7 7-5 6-9 9-5 4-5 5-4 3 5-1 15-7 6-5 8-5 18-12 20-16 22-18 11-10 12-10 21-21 20-22 8-11 7-11 7-10 6-10 9-18 2-8 2-7v-5l-1-3-3-4-6 1-4 2-5 3-4 3-4 4-5 6-6 6-6 7-6 8-5 9-7 9-5 10-6 10-11 23-8 24-6 25-2 13-2 12-2 11v10l1 9 2 8 2 6 3 5 5 4 5 3 7 3 8 1h9 10l12-1 11-2 12-3 13-3 11-3 20-8 21-10" style="clip-to-self:true;comp-op:src"/>
<path transform="scale(.1)" d="m4100.6 3843.8-3-3-6-3-3-1h-4-5l-5 1-6 1-7 2-14 6-9 5-9 4-10 5-20 15-10 8-20 20-18 22-7 12-7 11-5 12-5 11-4 22v12l4 20 5 10 5 9 7 9 8 8 9 8 10 7 10 5 12 4 13 3 12 2h13 14 13l14-2 13-2 12-3 12-2 10-4 18-6 12-8 4-5 3-5 3-11" style="clip-to-self:true;comp-op:src"/>
<path transform="scale(.1)" d="m3946.6 4009.1-4-2 3-3 5-2 3-1 5-1 4-2 6-1 6-3 7-1 8-2 9-3 9-2 11-2 10-2 11-1 11-2 11-1 11-2 10-1 9-2 9-1 14-1" style="clip-to-self:true;comp-op:src"/>
<path transform="scale(.1)" d="m4386.9 3847.5-1-4-1-3-1 4-2 6-1 4-2 6-3 7-3 8-8 20-5 12-4 13-6 13-18 42-6 15-5 14-6 15-5 14-4 13-5 11-3 10-3 8-3 5-1 4-2 4 4-1 2-2 6-8 3-5 4-6 4-7 5-8 5-10 4-10 5-11 4-13 5-13 5-14 5-15 12-34 12-36 7-18 6-17 5-16 6-13 4-11 4-9 3-5 2-4 3-2 2 2 3 7 2 10 2 7 1 7 2 8 1 9 4 18 2 10 3 10 2 11 3 11 6 39 2 14 2 15 1 14 2 16 2 15 2 13 1 12 1 11 2 8v6l2 5 1 4 2 4-9-15" style="clip-to-self:true;comp-op:src"/>
<path transform="scale(.1)" d="m4309.1 4005.6 5-1 8-3h5l5-2 6-2 7-2 8-3 8-2 9-3 10-3 10-2 44-12 10-3 24-6" style="clip-to-self:true;comp-op:src"/>
</g>
<path transform="scale(.1)" d="m4883.1 3885.6-3-3-4-2h-4l-6 2-8 6-5 5-5 7-6 8-12 22-7 13-7 14-12 30-5 14-4 15-3 14-2 13-1 11v10l3 9 2 7 5 6 5 4 6 3 8 2h7l9-2 9-3 20-10 9-7 18-16 8-10 12-20 4-10 4-12 2-12 1-12v-14l-2-26-3-12-3-9-5-9-4-7-6-5-7-4-7-1-8-1-8 1-8 3-9 3-9 5-7 6-8 7-7 8-6 9-4 9-3 8-2 9-1 7 2 7 7 12" stroke="#0f0" stroke-width="14.1" style="clip-to-self:true;comp-op:src"/>
<path transform="scale(.1)" d="m4954.1 3901.6 2-4 2-2 2-4 3-3 12-6 5-1h5l6-1 5 1 6 1 6 3 6 2 5 5 6 5 5 6 10 16 5 9 4 10 3 10 6 22 1 11 1 10v9 8l-1 8-2 7-2 6-6 10-4 3-3 2-5 2-4 1h-5l-4-1-4-2-4-3-6-8-2-6-1-6v-7-8l1-9 3-10 4-12 4-13 6-14 7-14 8-15 8-14 10-14 10-13 10-11 10-9 9-8 9-7 9-4 7-3 6-2h6l3 1 2 6-1 4-8 16" stroke="#0f0" stroke-width="14.1" style="clip-to-self:true;comp-op:src"/>
<g stroke="#fff" stroke-width="14.1">
<path transform="scale(.1)" d="m5517.2 3888.4h-4l-3-1-2-4 1-5 3-5 10-10 5-3 5-4 7-3 7-2 7-3 7-1 8-1h7l8 1 7 2 6 3 6 5 4 6 4 9 3 10 1 12v14l-1 15-2 17-3 17-5 17-5 16-6 15-6 13-5 12-7 11-12 16-11 11-5 3-5 2-9 3-3-1-4-3-2-5 1-4 2-5 6-12 12-16 6-9 8-10 9-11 9-12 10-13 12-14 11-16 39-48 13-15 13-13 12-11 11-10 9-7 7-7 6-3 3-3 3 1-4 7-3 6-6 8-8 10-7 11-9 12-10 14-18 30-10 15-18 30-8 15-8 13-6 12-5 11-4 10-3 9-1 7v7l1 5 3 5 5 3 5 2 7 1h8l9-1 11-1 11-3 12-5 12-4 31-15" style="clip-to-self:true;comp-op:src"/>
<path transform="scale(.1)" d="m5992.8 3853.4-6-2-4-1h-5-5l-5 1-6 1-5 1-12 6-7 3-6 6-8 5-7 6-8 9-7 9-8 10-7 11-7 12-6 12-5 12-3 11-2 11v11l1 10 3 9 4 9 5 8 7 7 8 7 9 6 10 5 10 4 11 4 12 3 11 1 12 2h12 11l11-1 10-1 10-2 9-2 8-2 7-3 6-4 5-4 9-13" style="clip-to-self:true;comp-op:src"/>
<path transform="scale(.1)" d="m5889.7 3991.2 2-3 5-3 4-2 10-2 7-2 7-1 8-2 18-4 9-1 20-2 11-1 10-1 9-2 8-1 7-2 11-2" style="clip-to-self:true;comp-op:src"/>
<path transform="scale(.1)" d="m6220 3830.3-1-4-1-3 1 4v3 4 5l-1 6v8l-1 8-1 10-2 11-2 12-1 12-2 13-1 13-2 14-4 52v11l-1 9v16l1 5v4h5" style="clip-to-self:true;comp-op:src"/>
<path transform="scale(.1)" d="m6189.1 3877.2-2-6v-3-3l1-3 4-6 5-3 5-2 6-3 7-4 8-2 9-3 8-2 9-2 10-1 9-2h10 9 9l16 2 7 3 6 3 5 3 6 10v5 7l-2 7-4 7-4 9-6 8-7 8-7 9-14 16-9 7-7 6-8 6-7 4-7 5-5 4-6 3-4 3-3 2-4 3h5 4l6-2 7-1 8-1 9-2 9-1h9l10-1 18 1 16 4 8 3 7 4 5 4 5 5 3 6 1 5 1 6-1 7-3 6-4 7-6 6-6 7-6 6-16 10-18 8-8 3-18 6-10 2-9 1-10 1h-9-8-9l-6-1-7-1-4-1-4-3-3-4-2-3v-6l6-14" style="clip-to-self:true;comp-op:src"/>
<path transform="scale(.1)" d="m6448.8 3694.1 9-6 4-2 6-1 5-2 7-1 6-2 7-1 8-1h7 15 6l7 1 6 1 5 2 5 3 4 3 3 4 2 6v6 7l-2 8-3 9-4 9-4 10-6 11-6 10-7 11-8 11-7 10-16 20-7 10-7 9-6 9-6 7-8 14-2 6-2 5v5l1 3 2 3 3 3 10 4h7l8 1h17 10 18 8l8 1 8 2 6 2 5 2 4 3 3 4 1 5v4 6l-2 5-3 6-4 7-5 6-5 7-13 12-6 6-7 5-6 6-6 4-6 6-5 4-7 7-2 3-2 5 2 4 5 3 3 2 4 1 10 4 5 1 6 3 6 2 4 3 5 3 8 8 4 10 2 12-1 6-1 7-6 12-4 7-10 14-6 7-7 6-6 6-14 10-14 8-7 2-6 3-14 4-6 1-5 1h-11l-6-1-5-1-5-2-12-4-17-6" style="clip-to-self:true;comp-op:src"/>
<path transform="scale(.1)" d="m4894.7 5324.7-1 14-1 15-2 14-6 30-10 28-6 15-7 14-16 28-20 28-11 13-12 14-12 13-14 13-15 14-14 12-16 13-18 12-17 13-19 11-19 12-42 22-22 11-23 11-24 10-25 10-26 9-27 9-27 8-58 16-31 7-31 6-32 6-33 5-33 4-68 6-70 4h-36-35l-70-4-68-6-34-4-33-5-32-6-31-6-30-7-30-8-56-16-27-9-26-9-48-20-46-22-21-11-20-11-20-12-18-11-18-13-17-12-16-13-15-12-14-14-14-13-13-13-11-14-11-13-11-14-18-28-14-28-6-15-6-14-4-14-4-15-3-15-2-14-1-15v-14-15l1-14 2-15 3-14 4-15 4-14 6-15 6-14 14-28 9-14 9-15 11-13 11-14 11-13 13-14 28-26 15-13 16-12 17-13 36-24 20-12 20-11 21-11 23-11 23-10 48-20 26-9 27-9 28-9 28-8 60-14 31-6 32-6 33-5 68-8 34-3 35-2 35-1h35 36l35 1 35 2 34 3 34 4 33 4 33 5 32 6 31 6 31 7 29 7 29 8 54 18 26 9 25 10 24 10 23 10 22 11 42 22 38 24 17 12 18 13 16 12 14 13 15 13 14 13 12 14 12 13 11 14 10 13 10 15 16 28 7 14 6 14 5 15 5 14 3 15 3 14 2 15 1 14 1 15" style="clip-to-self:true;comp-op:src"/>
<path transform="scale(.1)" d="m5974.7 5347.2-1 15-1 14-2 14-3 14-3 15-10 28-6 14-7 14-8 14-8 13-9 14-10 14-11 13-12 14-13 13-13 12-14 13-16 13-32 24-36 24-20 12-20 11-21 11-22 10-23 11-24 10-50 18-54 18-29 7-29 8-31 6-31 7-64 10-34 5-68 6-35 2-36 1-35 1-35-1-36-1-34-2-35-3-34-3-66-10-32-5-31-7-30-6-30-8-28-7-28-9-27-9-50-18-24-10-23-11-22-10-21-11-20-11-20-12-36-24-32-24-30-26-13-12-13-13-12-14-10-13-20-28-8-13-8-14-7-14-6-14-10-28-3-15-3-14-2-14-1-14-1-15 1-14 1-15 2-14 6-28 10-28 6-15 7-14 8-13 8-14 10-14 10-13 10-14 12-13 26-26 15-13 15-12 16-13 16-12 36-24 40-22 21-11 22-11 23-10 24-10 25-10 25-9 27-9 56-16 30-8 30-6 31-6 32-6 33-5 33-4 34-4 35-3 34-2 36-1h35 35l36 1 35 2 34 3 68 8 32 5 32 6 62 12 58 16 27 8 27 9 25 9 25 10 24 10 23 10 22 11 21 11 40 22 36 24 16 12 16 13 16 12 14 13 26 26 12 13 11 14 10 13 9 14 8 14 8 13 7 14 6 15 10 28 6 28 2 14 1 15 1 14" style="clip-to-self:true;comp-op:src"/>
<path transform="scale(.1)" d="m3186.6 4737.2-2-6-2-3-1-4-3-3-2 1-1 6-1 5-1 6-1 7-1 8-1 10-2 10-2 11-2 12-3 11-3 13-7 25-5 12-4 13-4 11-8 20-6 14-2 6-2 3-2 4-1 3 1-5 2-4 2-5 3-6 2-8 8-18 4-11 5-11 10-26 5-14 5-15 5-16 6-17 5-17 5-18 6-18 5-17 5-15 5-12 4-9 2-7 3-4 3-2 3 3 2 4 4 12 3 8 2 8 3 10 2 10 3 10 3 11 4 10 3 12 20 55 2 10 4 8 2 8 3 6 2 6 2 5 2 3 3 5 2 2 3-3-1-5-1-3-2-4-5-11" style="clip-to-self:true;comp-op:src"/>
<path transform="scale(.1)" d="m3145.6 4825.3 3-2 6-1 4-2 5-1 6-2 14-6 16-6 9-3 10-3 10-2 10-3 10-2 20-7 23-10" style="clip-to-self:true;comp-op:src"/>
<path transform="scale(.1)" d="m5935.6 4706.2-3-4-1-3v3l1 4v3l2 10 1 6v7l1 8v8 10 10 12 12l-1 11v11l-2 23v11l-1 10v38l1 3v4" style="clip-to-self:true;comp-op:src"/>
<path transform="scale(.1)" d="m5930.3 4790.6-3-4-3-6-1-5 1-5 2-3 3-1 3-4 5-2 5-3 6-3 14-6 9-2 9-3 18-4 10-2h9l9-1 8 1h7l6 2 6 3 5 3 3 3 2 4 1 5v6l-2 6-3 6-4 6-6 7-7 7-7 6-7 7-9 6-8 5-7 6-14 8-6 4-5 2-4 3-6 4 3 1h4l5-1 6-1 7-1 24-3h10l9-1 8 1 9 1 8 2 8 3 7 3 5 3 6 4 4 5 2 6 2 5v7l-1 6-3 6-3 7-6 6-5 6-8 7-8 6-9 6-9 4-9 5-9 3-18 4-10 1h-10-9l-9-1-8-2-8-3-6-2-7-3-5-4-4-4-3-5v-14" style="clip-to-self:true;comp-op:src"/>
</g>
<g stroke="#0f0" stroke-width="1.41">
<path d="m323.5 533.38 91.656-44.906" style="clip-to-self:true;comp-op:src"/>
<path d="m328.62 553.41 120.88-59.75" style="clip-to-self:true;comp-op:src"/>
<path d="m344.72 564.84 127.12-62.219" style="clip-to-self:true;comp-op:src"/>
<path d="m358.5 573.5 177.03-82.438" style="clip-to-self:true;comp-op:src"/>
<path d="m471.84 502.62 28.344-14.156" style="clip-to-self:true;comp-op:src"/>
<path d="m383.75 579.75 181.66-81.125" style="clip-to-self:true;comp-op:src"/>
<path d="m428.62 579.62 154.22-70.375" style="clip-to-self:true;comp-op:src"/>
<path d="m479.59 576.09 112.56-54.812" style="clip-to-self:true;comp-op:src"/>
<path d="m511.81 580.59 85.531-42.25" style="clip-to-self:true;comp-op:src"/>
</g>
<g stroke="#00c0ff" stroke-width="14.1">
<path transform="scale(.1)" d="m3755.9 645.31-4 1h-4l-6 1-4 1h-5l-4 1h-4-4l-4 2-4 1-8 4-8 6-8 4" style="clip-to-self:true;comp-op:src"/>
<path transform="scale(.1)" d="m3606.9 771.88-4 2-3 2-4 2-6 8-3 5-2 6-2 4-1 3-1 4-2 7-1 3-4 10" style="clip-to-self:true;comp-op:src"/>
<path transform="scale(.1)" d="m3540.6 950.31-2 4-2 6-2 7v3l-1 5v4 4 15 6l1 6v5l5 30 2 6 1 6 2 5 4 16" style="clip-to-self:true;comp-op:src"/>
<path transform="scale(.1)" d="m3634.1 1205-3-3-2-3 1 3 3 5 2 5 2 4 1 3 2 4 3 4 2 5 3 4 9 15 6 8 11 11" style="clip-to-self:true;comp-op:src"/>
<path transform="scale(.1)" d="m3722.8 1353.8-2-3-1-3h4l4 3 5 4 9 9 6 8 4 4 3 4 3 3 2 4 8 8" style="clip-to-self:true;comp-op:src"/>
<path transform="scale(.1)" d="m3886.6 1455.3 3 2h4l8 2 9 3 2 1 3 1 6 3 6 4 5 5 4 3 5 3" style="clip-to-self:true;comp-op:src"/>
<path transform="scale(.1)" d="m4020.6 1512.5 1 3 4 1h4l5 1h6 15l5 1 4 1 3 1" style="clip-to-self:true;comp-op:src"/>
</g>
</g>
</g>
</svg>
