<?xml version="1.0" encoding="UTF-8"?>
<svg width="1e3pt" height="800pt" version="1.2" viewBox="0 0 1e3 800" xmlns="http://www.w3.org/2000/svg">
<g id="surface5">
<rect width="1e3" height="800" fill="#20282d"/>
<g fill="none" stroke-linecap="round" stroke-linejoin="round" stroke-miterlimit="10">
<g stroke="#fff">
<g stroke-width="14.3">
<path transform="scale(.1)" d="m4051.6 298.12 1-7v-3-5l1-7v-5l-1-4v6l-1 7v10l-2 12v15l-2 17-1 19-1 20-3 45-1 48-1 24-1 25-2 48-1 23v22l-1 20-1 18v17 47 7l1 5 2 5 5-3 4-9 2-7 3-21" style="clip-to-self:true;comp-op:src"/>
<path transform="scale(.1)" d="m4044.1 421.56-2-6-1-6-2-8-2-9-2-20v-11-12l2-12 1-14 4-13 8-27 7-12 6-11 7-11 8-9 9-7 9-6 10-6 10-4 9-2 10-2h11l9 2 9 3 10 5 8 7 7 9 6 11 4 14 4 16 2 18 1 20-1 21-1 22-3 21-4 20-5 19-7 19-7 16-9 15-10 13-11 12-10 11-12 10-13 8-12 7-13 6-13 5-14 3-13 3-12 2-12 1-11-1-9-2-8-4-7-5-10-18" style="clip-to-self:true;comp-op:src"/>
<path transform="scale(.1)" d="m4318.1 511.25 4-2 8-1h4 5l4 3 5 2 9 9 4 6 3 9 2 9 2 10 1 11v11 13 12l-1 13-4 24-2 10-3 9-3 8-2 6-3 4-2 4-6 3h-5l-5-3-4-8-1-5-2-6v-7l-1-7 2-18 1-11 6-22 4-14 5-12 6-13 7-13 8-11 7-11 8-8 8-7 6-5 7-3 6-1 6 2 5 2 4 6 4 7 3 8 2 9 2 10 1 10 2 10 3 26" style="clip-to-self:true;comp-op:src"/>
<path transform="scale(.1)" d="m4500 615.94 4-4 5-4 5-6 12-12 6-7 7-7 12-14 5-6 5-7 4-7 4-5 2-6 1-5 2-4-2-6-4-3-9 2-5 1-6 3-8 3-16 12-8 8-9 8-8 9-21 33-6 13-10 24-4 11-3 11-2 11v10 9l2 8 8 14 6 6 14 10 9 3 9 4 10 3 10 1 11 2 20 2 20-2 9-2 20-9" style="clip-to-self:true;comp-op:src"/>
<path transform="scale(.1)" d="m4862.2 298.12v-9l-2-8-2-11-1-9-4-8-6-10-5-3-5-1h-6l-6 1-6 2-6 3-6 5-6 6-6 8-5 9-4 11-4 13-4 15-2 16-3 17-2 19-2 20-2 21-1 22-2 21-2 23-1 23-1 24-1 23v24 71l-1 23v22 22l-1 21-1 22v20l-1 19-1 18-2 16v13l-1 12-2 9-1 8v4l-4 4-5-2-2-4-9-13" style="clip-to-self:true;comp-op:src"/>
<path transform="scale(.1)" d="m4667.2 623.44 2-4 3-4 3-5 3-6 4-6 6-6 6-7 7-6 7-7 8-6 9-7 10-7 11-7 11-6 11-5 12-5 12-4 33-9 9-2 23-5" style="clip-to-self:true;comp-op:src"/>
<path transform="scale(.1)" d="m4952.5 516.88-5 1-5 2-8 2-8 3-8 4-7 5-8 6-14 16-7 10-6 9-20 44-4 12-4 10-3 11-2 10-1 8v8l1 6 2 4 5 5 3 2 5-1 4-2 10-6 10-10 10-12 5-7 10-15 4-7 10-14 5-8 12-21 4-5 2-5 3-4 4-4 3 4v14 7l-2 8v9l-1 9-1 10v21l1 11 1 10 2 10 2 9 4 7 4 6 6 4 6 2 7 1 7-1 7-4 18-11" style="clip-to-self:true;comp-op:src"/>
<path transform="scale(.1)" d="m5136.2 534.06-5-3h-4l-6 1-7 5-3 3-4 5-5 5-4 7-5 7-5 9-8 18-3 11-3 10-2 11-2 10v21l1 10 3 10 2 9 4 8 4 7 6 8 6 5 7 5 8 4 8 2 10 1 10-1h11l11-3 11-4 12-5 12-6 24-14 22-17 11-9 10-9 9-10 18-22 8-12 6-12 6-14 8-26 3-12 1-10v-9l-1-8-2-7-4-4-5-2-6-1h-6l-6 2-7 4-7 5-7 6-8 9-8 10-7 11-8 11-7 14-10 26-3 14-2 13-1 11 1 12 4 11 4 10 6 9 8 8 9 6 11 5 11 3h13l13-2 14-4 14-5 36-16" style="clip-to-self:true;comp-op:src"/>
<path transform="scale(.1)" d="m4057.8 870.62-5 1-4 1-6 1-6 2-10 2-4 1-5 2 2 4 8 2 7 1h9l11 1h43l18-1h20l22-2 23-2 52-4 58-6 29-2 29-3 30-2 58-4 28-2 27-2 25-1 23-1h39l15 1h14l11 1h9l7 2h5" style="clip-to-self:true;comp-op:src"/>
<path transform="scale(.1)" d="m4863.4 905.31-3 3 6 3 4 1h6 15 10l13-1 14-1 17-1h18l20-1 21-2 44-2 21-2 22-2 22-1 21-1 21-2 38-2 34-2h39l10 1 9 1 7 2 5 2 5 4-1 5-5 3-4 2" style="clip-to-self:true;comp-op:src"/>
</g>
<g stroke-width="14.1">
<path transform="scale(.1)" d="m498.75 1373.1v-15l-1-6v-7-7l-2-6v-7l-1-6-2-11-1-6v-4l-2-8v-3l-1-3-1-4-1 5v5 7 7l-1 10-2 22-1 13-3 42-1 15-1 14-2 15-2 30-2 14v13l-1 12-2 12v10 25 7l2 5 1 6 1 5 2 5 2 4 3 4 3 2 8 6 5 2 6 1h7 8 9l9-1 10-1 11-3 12-2 11-3 24-6 11-2 11-3 10-2 9-2 16-2h6 6l8 2 2 2 5 3 2 2v3l-1 4 3-2 1-7" style="clip-to-self:true;comp-op:src"/>
<path transform="scale(.1)" d="m690.31 1487.5-3-1-1 3v4l2 4v3l2 3 3 4 5 5 4 3 5 3 4 2 5 1 6 2 5 2 12 2 12 4 10 4 4 2 4 3 3 3 3 4 2 8v5 5l-2 5-4 12-8 12-10 12-6 7-27 27-8 7-7 6-7 8-8 7-8 8-7 8-7 9-21 24-6 6-14 12" style="clip-to-self:true;comp-op:src"/>
<path transform="scale(.1)" d="m1117.5 1441.9-3-4-2-4-3-2-1 4-1 3v3 6l-1 6-1 8-1 9-1 11-2 12-2 13-2 14-3 15-4 30-3 15-2 16-3 15-2 16-2 14-3 15-2 13-2 12-2 10-2 9-2 7-2 6-2 5-1 3-2 4-3-3-1-3-5-20" style="clip-to-self:true;comp-op:src"/>
<path transform="scale(.1)" d="m973.12 1402.5h-6l-6-1-9-1-14-2h-7l-6-1h-5l-4-1h-4-4 4 3l4 1 7 1h7l9 1h10l12 1h14 14l15-1h16l16-1 17-2 17-1 17-2 18-2 16-2 15-2 14-3 14-2 11-2 11-1 9-1 8-1 6-1h9l4 2v3l-9 6h-4l-9 2" style="clip-to-self:true;comp-op:src"/>
<path transform="scale(.1)" d="m1292.2 1363.1-2-3-2-2-3-1-3 5v4l-1 5-1 7-1 8-1 10-3 13-2 14-1 17-3 17-2 20-3 20-2 21-2 20-2 18-2 17-2 16-2 13-1 12-1 10-1 8-1 7v6 5 9l4 1 7-8 4-4 4-6 12-12 6-7 8-8 7-9 8-9 18-19 24-24 7-6 5-4 5-3 4-2h5l2 6v12 8l-1 9-2 22v12l-1 12v12 13 11l1 10 2 9 2 7 2 6 2 4 3 3 4 1h4l6-2 5-2 6-5 7-5 6-7 8-9 6-8 7-10 13-20 6-11 18-36 3-7 4-8 3-3 1 5v4l1 6v5 8l1 7v9 9l2 18v9l2 18v8l1 7 2 6v6l2 4 1 3 4 4h3l3-5 1-4 3-14" style="clip-to-self:true;comp-op:src"/>
<path transform="scale(.1)" d="m1518.4 1462.2-3-2-4-1h-5l-4 3-3 4-2 2-4 8-4 10-2 6-1 5-2 6-1 9 1 4 1 3 3 5 4 2 6-2 3-2 3-3 6-8 2-5 1-5 2-5 1-6 1-5v-11l-1-6v-6l-2-10-1-4-1-3-4-4-3 1-2 2-2 4-2 5-2 6-2 7-2 8-4 22" style="clip-to-self:true;comp-op:src"/>
<path transform="scale(.1)" d="m1553.4 1626.2 4-16 2-5 1-4 2-5 12-20 4-5 4-4 5-4 5-3 4-3 5-3 4-1h4 4l4 1 4 2 6 8 4 12 1 7 1 9 1 8v20 11l-1 10-1 9v9l-1 9-1 7v6 12l2-5 1-5 2-5 3-6 3-8 3-7 4-9 5-9 10-20 5-11 18-30 6-8 6-7 4-5 5-4 3-2 5 2 1 4 1 5v8l-1 8v9l-2 20-1 12v11l-1 11v10l1 11 1 9 1 10 2 7 2 6 3 5 6 6 4 1 4-1 5-3 4-3 10-12 11-20" style="clip-to-self:true;comp-op:src"/>
<path transform="scale(.1)" d="m1835.9 1396.2v-7l1 3 1 6v4l-1 6v7l-1 8-1 10v12l-2 13-1 14-1 16-2 17-2 34-2 32-1 15-2 26v28l1 7 2 10v3l2 5 5-1 2-3 3-3 8-10" style="clip-to-self:true;comp-op:src"/>
<path transform="scale(.1)" d="m1914.7 1524.4v-3l1-5-2-4h-5l-4 5-21 21-6 5-12 12-6 7-12 11-10 12-8 10-3 3-4 8-1 3v3l2 5 4 5 3 2 5 2 4 2 7 3 6 2 21 9 8 3 7 3 8 3 7 4 7 3 34 17 3 2 4 1" style="clip-to-self:true;comp-op:src"/>
<path transform="scale(.1)" d="m2312.2 1364.4-4-6-2 2-1 3-1 5-1 6-1 9-1 11-2 14-3 17-3 19-3 22-3 23-5 23-3 24-4 22-3 22-2 21-2 19v18 14 13l3 11 2 7 3 6 5 3 4 2h6l6-2 7-3 7-5 7-6 16-16 8-10 8-11 12-24 6-13 10-24 4-12 3-10 3-9 1-7 2-6 1-4v-4l-3 6-1 5-2 6-1 7-2 9-1 9-2 10-1 9v10l-1 10v10l1 9 2 16 2 7 2 6 2 5 3 5 3 3 8 4 5 1h4l5-1 5-2 4-4 4-6 3-5 7-19" style="clip-to-self:true;comp-op:src"/>
<path transform="scale(.1)" d="m2451.6 1455.6-1-4-1-3-1-4v-4l4 2 3 5 3 4 2 4v6" style="clip-to-self:true;comp-op:src"/>
<path transform="scale(.1)" d="m2526.9 1342.8 1-4v-3l1 4v3l1 5v7l1 8-1 9v10l-1 13-1 15-2 17-2 18-3 21-2 22-3 22-3 23-3 22-2 21-2 20-2 18-1 16-1 13v12 9l1 8 1 6 2 3 6 1 3-2 3-4 10-14" style="clip-to-self:true;comp-op:src"/>
<path transform="scale(.1)" d="m2671.2 1454.7v-3l-2-3-4 1-5 4-29 29-7 8-7 7-7 8-8 8-6 8-7 9-7 8-6 8-6 7-5 8-5 6-3 7-3 5-2 6-2 5v5 4l2 5 1 3 3 4 3 3 4 3 10 4 6 1 7 1 16-2 18-2 8-2 18-4 16-4 14-6 15-6" style="clip-to-self:true;comp-op:src"/>
<path transform="scale(.1)" d="m2762.5 1573.4 2 5 3 9 3 5 2 2 1 3 9 6 4 2 4 1h5 5l6-1 12-4 14-8 6-4 7-6 12-12 5-8 5-7 4-8 3-7 2-9 2-8 1-8v-9-9l-1-7-2-7-2-6-6-6h-5-5l-5 3-6 5-6 6-7 9-7 10-8 12-7 12-8 14-6 15-7 14-6 15-5 15-4 14-3 14-1 13v14l2 11 3 11 4 9 6 7 6 6 8 3 10 3h10l11-2 12-2 24-10 13-7 30-24" style="clip-to-self:true;comp-op:src"/>
<path transform="scale(.1)" d="m3431.2 1356.2-3-1-6-1h-3l-3 1-3 2-2 3-3 4-4 10-2 7-2 8-2 9-1 11-2 13-2 15-2 16-4 38-1 19-1 20v19 19l2 19 2 16 3 15 4 14 4 11 6 10 6 9 6 7 7 6 8 4 9 3 9 1 9-1 11-2 10-3 11-4 10-4 10-5 20-12 9-7 8-7 7-8 6-8 6-9 5-9 5-10 3-9 2-9 2-10 2-18v-9l-1-7-1-6-3-6-2-3-3-3-5-2h-4l-5 1-5 3-6 4-7 5-6 6-6 7-6 8-7 9-12 18-8 20-3 9-2 10v9l1 8 2 7 4 7 5 6 5 4 6 4 8 3 8 2h9 10l10-2 21-5 11-4 10-3 10-6 10-4 8-6 7-6 6-6 12-14" style="clip-to-self:true;comp-op:src"/>
<path transform="scale(.1)" d="m3747.5 1523.8-1-6-1-5-1-6-3-6-1-4-4-7-5-2h-4l-4 1-5 4-5 5-6 7-7 8-8 10-7 12-8 13-7 14-7 13-6 14-10 26-3 13-2 11-1 11v9l1 8 2 6 3 5 4 3 4 1h5l6-1 14-7 8-6 8-7 16-16 8-9 7-10 12-20 6-11 4-10 4-11 4-9 2-9 2-7 2-6v-4l1-3-1 3-1 4-1 5-1 6-1 8-1 7v9 15 9l1 7 2 8 1 8 2 7 3 8 2 7 2 5 3 6 3 4 3 3 2 1 7-2" style="clip-to-self:true;comp-op:src"/>
<path transform="scale(.1)" d="m3830.9 1525.6 1-6v-3l4-6 3-3 4-1 10-4h5 6l5 1 6 2 5 2 5 4 5 5 4 5 3 7 3 9 2 8v10 11 10l-1 11-2 10-3 11-6 20-3 8-4 7-4 6-3 4-4 4-3 2-2 1-5-1-4-6v-5l-1-6 1-7v-8l2-8 2-9 3-10 4-11 4-10 6-12 6-13 7-12 8-13 7-12 8-11 9-10 7-9 7-6 6-5 5-4 11-2" style="clip-to-self:true;comp-op:src"/>
<path transform="scale(.1)" d="m4020.9 1482.5 1 3v27l-1 9v9l-1 10v10l-2 11-1 10-1 11-2 10-2 22-1 10-2 11-1 9v9 7 5 3l4-1 2-4 3-4 4-7 3-7 4-7 4-10 6-9 5-10 6-11 7-10 6-12 7-12 14-22 6-10 6-7 11-11 3-2h5l2 3 2 5 1 7v7l2 20v10l1 12v11l4 44 2 9 2 8 3 7 3 6 4 4 4 3 6 1h5l7-1 7-2 8-4 8-5 9-7 20-16 11-9 11-10 10-9 9-11 9-10 8-10 7-9 6-8 5-7 3-6 3-3 2-3v3l-1 4-7 21-2 8-6 20-2 11-2 10v10l-1 11 1 10 1 9 2 9 3 8 4 7 4 6 6 4 6 2 6 1 7-1 8-4 7-4 14-14 16-20" style="clip-to-self:true;comp-op:src"/>
<path transform="scale(.1)" d="m4283.8 1413.1h-6-4l-3 1-6 4-2 3-1 3-2 8v4 4l1 5 1 4 3 4 2 4 4 3 4 2 5 2 6 1h5 7l6-2 12-6 6-5 10-10 3-6 4-6 2-6 1-7v-7-6l-2-14-2-6-4-6-3-5-5-3-4-2-6-1h-6l-6 1-6 3-7 4-6 5-6 7-7 6-10 16-11 24" style="clip-to-self:true;comp-op:src"/>
<path transform="scale(.1)" d="m4395.3 1580v-3-4l1-5 2-3 4-12 6-10 3-6 4-5 3-5 4-6 4-5 5-6 5-4 4-4 5-4 4-3 4-2 5-1h3 3l4 2 2 2 2 4 2 5 2 6 1 7 1 9v19l-2 22-2 11-1 10-3 20-1 9-1 8-1 6v6 10l2-4 2-3 2-4 2-5 3-5 4-6 8-14 5-8 12-18 6-10 7-11 8-10 14-20 6-8 7-7 6-5 5-5 4-3 8-2 5 2 2 3 2 5v5l1 6v7l-1 8v8l-1 9v9l-1 8v9l2 15 1 7 2 6 2 5 3 5 3 3 8 4 10-2 6-3 7-4 17-12" style="clip-to-self:true;comp-op:src"/>
<path transform="scale(.1)" d="m4777.2 1441.2-6-6-3-2-8-2-12 3-5 3-9 9-5 6-6 7-5 9-6 10-11 22-5 12-8 24-4 11-2 11-1 10v9 7l1 6 3 6 4 3 3 3 6 1h5l6-1 8-2 7-3 8-4 7-5 14-12 14-14 5-8 5-9 4-9 4-8 4-16 2-5 1-5v-3-3l-4 6-1 6-2 5-4 16-2 9-2 10-4 22-4 24-1 12-1 13-1 14v16l-1 17v18l-2 38-2 40-1 18-4 38-2 17-3 17-3 16-8 28-4 12-5 11-7 10-6 8-13 13-7 5-14 8-7 1-6 2h-6l-10-2-5-2-4-4-4-3-3-5-4-5-3-6-2-6-3-7-2-16v-10l1-10 2-11 3-12 3-14 6-14 6-15 7-15 8-16 10-16 11-17 12-17 26-38 14-19 15-19 39-45" style="clip-to-self:true;comp-op:src"/>
<path transform="scale(.1)" d="m5243.1 1562.8v-3l-1-3v-4-5-3l-2-8-4-8-2-3-2-4-6-4-4-2-4-1-5-1-5 1-5 2-6 2-14 10-8 7-7 9-16 18-8 11-8 12-14 22-4 11-5 10-3 10-2 9-1 8v7l2 14 3 6 3 5 3 4 8 6 4 1 5 1h5l6-1 12-4 12-7 14-10 6-5 7-6 6-7 13-13 6-7 10-16 4-8 5-8 6-18 4-18 1-10 1-9v-17l-1-6v-5l-1-3-4 1-1 4-2 5-2 6-1 9-1 11-2 12-1 12-1 15-1 13v14 14l4 28 3 12 4 13 5 10 7 9 6 6 8 4 9 2h9l10-2 29-14" style="clip-to-self:true;comp-op:src"/>
<path transform="scale(.1)" d="m5753.8 1517.5v-6l-1-4v-5-5l-1-4v-3 3 6 7l-1 8-2 11-1 12-4 26-2 14-2 12-4 26-1 12-1 13-1 11v11 19 6l1 6 1 4 3 3h5l3-2 3-3 3-4 5-5 4-6 4-7 5-8 4-8 5-9 4-10 5-10 4-11 5-10 4-10 10-18 4-7 4-5 3-5 3-1 3 1 2 3v5l1 5 1 7v7l1 8v9l1 8 4 18 1 8 2 8 3 8 6 12 9 9 12 4h6 6l8-2 7-2 8-3 7-4 8-5 7-5 7-6 7-7 12-14 10-16 4-10 4-9 2-9 4-16v-7-6l-2-6-2-4-3-3-4-3-5-1h-4l-5 1-5 3-6 4-5 4-5 6-6 6-5 7-4 7-8 18-4 18-1 10v17l1 7 2 8 3 7 4 6 5 5 6 4 14 6 16 2 9-1 16-2 16-6 7-4 16-11" style="clip-to-self:true;comp-op:src"/>
<path transform="scale(.1)" d="m6081.2 1535-3 2-1 3-2 4-1 5-4 14-2 9-3 10-3 11-4 24-3 12-1 13-2 24 2 22 4 18 3 6 3 5 4 3h4 4l6-3 6-5 6-4 6-7 7-8 7-9 8-9 7-10 12-21 6-10 10-19 3-8 4-7 2-5 2-4 2-3-1 5v4l-1 5-1 6-1 7v8 16l2 18 1 8 3 9 3 8 8 14 4 6 5 5 6 4 12 6 7 1 6 1 14-2 7-2 7-3 7-4 5-4 6-5 5-6 4-7 3-8 3-9 2-9 2-10 1-11 2-11 1-13v-13-13-47-8-7l-1-5-1-4-3 5-2 10-2 6-3 16" style="clip-to-self:true;comp-op:src"/>
<path transform="scale(.1)" d="m6701.2 1696.2-3 4-4 3-3 4h4l3-2 3-3 4-3 5-4 31-31 7-8 8-9 7-9 8-10 7-11 6-12 7-13 6-13 5-15 6-16 10-36 3-18 3-19 3-18 2-16 2-14v-12-9l-3-12-3-3-4 1-4 2-4 6-5 8-6 11-7 13-12 34-6 20-5 21-6 21-4 20-3 20-2 20-1 19v18l2 18 3 16 4 15 5 12 6 10 8 7 8 6 10 3 10 1h12l12-1 13-4 15-4 14-6 16-7 15-8 15-9 28-20 11-11 11-10 10-11 8-10 7-10 6-10 4-10 3-9 1-8 1-7-1-7-2-5-3-4-5-3-5-1-7-1-6 1-7 2-8 3-8 4-8 5-7 7-8 7-14 18-7 10-6 11-10 22-6 20-2 18 1 7 1 6 3 4 4 4 5 2h5 7l7-2 16-6 9-5 9-6 8-7 9-7 7-7 8-9 6-8 7-8 6-8 5-8 7-14 3-5 2-4 2-3-1 5v4l-1 6-1 5-2 14v7l-1 6v7l1 6v7l2 5 1 5 2 4 2 3 6 4 7-1 4-1 8-6 13-13 5-6 4-7 5-6 5-7 4-7 5-6 4-6 4-5 3-4 3-3 4-3h4l1 5v4 4 27l1 6 2 9 1 5 1 2 4 4 2 1 3-2 4-5 2-4 1-4 1-5 4-12 2-7 2-8 3-7 8-16 5-7 4-8 6-7 5-6 6-5 6-4 7-3 6-2h5l12 2 10 8 4 5 5 6 6 16 2 8 2 9 1 9v9 18 9l-1 10-1 9-1 8-1 9v7l-1 6-1 4v3" style="clip-to-self:true;comp-op:src"/>
<path transform="scale(.1)" d="m7465.6 1567.8-2-10-2-6-3-6-3-5-3-4-4-5-4-3-4-2-5-1h-6-6l-6 1-6 3-7 4-7 5-7 6-7 8-7 9-8 9-6 10-5 9-6 10-4 9-2 9-2 8-1 7 1 7 1 4 2 4 3 2 4 1h5l5-1 7-3 12-8 7-6 8-5 20-20 6-7 6-6 5-6 5-4 3-3 4-2v2l-1 4-1 5-2 7-2 9-3 10-3 11-3 13-3 15-2 16-3 17-2 18-2 20-2 19-3 20-2 20-3 20-2 20-3 21-3 20-2 18-3 18-3 17-2 14-3 13-3 11-3 10-3 8-4 6-4 5-4 3-10 4h-7l-6-1-7-1-7-2-8-3-7-4-8-4-6-5-7-6-12-12-10-14-3-7-4-16v-9l1-9 3-10 3-11 5-12 6-12 7-13 8-13 9-14 22-28 12-14 13-15 13-14 14-13 26-26 32-27" style="clip-to-self:true;comp-op:src"/>
<path transform="scale(.1)" d="m7541.9 1608.1 1-5-1-5-2-4-3-1-3 1-5 4-2 4-3 4-4 5-3 6-4 7-3 9-4 9-3 10-4 24-2 11v11 10l1 9 2 8 2 6 4 5 4 3 4 2h6l5-2 6-2 14-8 7-7 7-6 7-8 6-9 7-9 6-9 10-20 4-10 4-9 3-8 4-12 2-4v-3l-1 3-2 4-1 4v6l-2 14v8 8l1 9 1 8 2 9 3 8 3 7 4 7 4 5 5 5 5 3 6 3 6 1h5l6-2 20-12" style="clip-to-self:true;comp-op:src"/>
<path transform="scale(.1)" d="m7819.4 1612.5v-4-3l-1-6-4-10-4-8-9-9-8-4-5-2-4-1h-5-5l-10 4-6 3-6 5-5 5-5 6-6 8-5 7-5 9-5 8-6 18-2 8-1 7v7l1 6 2 5 2 4 3 3 8 2h6l12-4 6-3 7-4 7-5 14-12 13-13 12-14 5-6 4-6 4-5 4-4 2-3 3-4-2 5-1 4-2 5-1 6-2 6v8l-1 7 1 8 1 7 2 7 8 14 5 5 6 5 7 4 9 3 9 1h10l12-1 12-3 35-10" style="clip-to-self:true;comp-op:src"/>
<path transform="scale(.1)" d="m8103.4 1559.4v-10l-1-6-2-5-8-8-12-4-7-1-8 1-9 1-10 3-10 4-11 4-11 7-12 7-11 8-10 8-11 10-10 9-8 10-14 18-5 9-3 9-2 8-1 7v7l1 5 2 5 3 3 5 2 4 2h6l6-1 7-2 8-2 8-3 9-5 9-4 10-5 9-5 10-5 18-11 9-5 8-5 8-4 6-4 6-3 5-2 4-1 4 1 1 6-1 4-1 6-3 8-2 9-2 11-3 12-3 14-6 30-4 16-2 16-4 16-3 18-3 17-3 19-2 17-2 18-3 16-2 16-2 13-3 12-3 11-3 8-3 7-3 6-4 4-8 4h-5-5l-5-1-5-2-4-3-5-3-4-4-4-5-3-4-3-6-1-6-2-14 2-7 1-8 2-9 3-9 5-9 4-9 6-10 7-10 16-20 9-11 9-10 10-10 10-11 12-11 11-10 11-11 11-12 12-12 24-26 24-28 13-14 11-14 13-14 11-14 10-14 9-13 8-12 7-12 5-10 3-8 2-7 1-6-1-3-2-3-2-2h-4l-5 1-5 2-14 8-7 6-8 8-7 8-8 8-7 9-7 10-6 9-6 10-4 10-4 20v9l2 8 4 8 5 7 7 6 9 6 11 4 14 4 15 2 16 1 18-1 18-2 19-3 19-4 44-12" style="clip-to-self:true;comp-op:src"/>
</g>
</g>
<g stroke="#ff7f00" stroke-width="14.1">
<path transform="scale(.1)" d="m1428.1 1979.7h4l5 2 3 1 12 6 5 3 5 2 12 6 6 4 7 4 6 4 18 15 11 11 6 5 6 6 10 12 10 11 4 6 4 5 6 10 3 4 2 4 6 9 3-2-1-7" style="clip-to-self:true;comp-op:src"/>
<path transform="scale(.1)" d="m1600 1941.9-8-2-5 1-5 3-3 2-4 2-3 4-4 3-7 10-10 14-6 9-6 10-7 10-14 22-8 12-16 22-7 11-8 10-14 18-7 8-6 7-6 5-5 6-4 3-6 6-4 3v-4l1-3v-5l4-13" style="clip-to-self:true;comp-op:src"/>
<path transform="scale(.1)" d="m1514.1 1938.1-2-3 4 3 2 5v3l1 6v6 7 29 11 35l-1 11v59l1 7v6 5l2 8v2l-1-4" style="clip-to-self:true;comp-op:src"/>
<path transform="scale(.1)" d="m1417.5 2063.1h-6l-4 1h-3l-5 1h-4 4l6-1 4-1 12-2 7-2 9-1 10-2 22-6 13-2 14-3 14-4 15-3 45-12 14-3 13-4 22-6 10-2 8-2 7-1h6l5-1h4l4 1 3 1-6 4" style="clip-to-self:true;comp-op:src"/>
<path transform="scale(.1)" d="m1850.9 1978.4-1-3-3-2-2 5-1 3-1 4v5l-1 7v7l-1 8-2 18-1 21-1 11-2 12-2 24-3 22-2 10v10l-1 8-1 7-1 5v4l-1 4v-11l2-12v-8l2-16 3-27 6-27 4-16 3-6 3-5 2-4 3-3 5-1 5 3 3 3 3 5 4 5 4 6 4 7 5 8 4 8 6 8 5 9 6 9 6 8 5 9 6 8 6 9 5 7 6 8 11 11 6 5 5 4 5 3 5 2 8 2 3-1h3l4-5 2-4v-4l1-5v-12l-1-7v-8l-2-18-1-10-1-11v-24l1-12 2-14 1-13 2-13 4-12 3-10 6-16 3-4 3-3 4-1 6 3 3 3 3 5 3 7 1 7 2 8 1 8 2 23" style="clip-to-self:true;comp-op:src"/>
<path transform="scale(.1)" d="m2105 2134.4 4-6 6-8 3-6 3-5 3-6 2-5 3-6 3-7 2-6 3-7 1-6 4-14 2-5 1-6 1-4v-4-3l-3-4-4-1-4 3-7 7-4 5-8 12-4 8-3 8-6 18-2 9-1 9-2 9v17l2 8 4 14 4 7 4 6 10 12 14 10 7 4 8 4 7 3 16 2 8-1 7-1 6-3 13-8" style="clip-to-self:true;comp-op:src"/>
<path transform="scale(.1)" d="m2272.8 2043.1-2-2-2 3-1 6-1 5v5l-1 7-1 6-1 8-1 7-1 9v8l-1 9v16l1 8 1 7 2 10 2 4 3 5 3 2 4-1 5-3 2-3 2-4 3-3 3-5 2-5 6-10 2-6 4-6 5-11 4-5 3-4 5-6 5-2h4l3 3 1 3 2 4 1 5 2 5 1 6 6 21 3 7 2 8 3 7 6 12 4 6 8 8 4 3 6 2h5l6 1 12-2 13-6 6-4 12-10 5-7 5-6 4-7 4-9 4-8 2-8 3-9 4-18 3-17v-7-8l1-7-1-6v-6-5-5l-1-3v-3-4l1 4 1 7" style="clip-to-self:true;comp-op:src"/>
<path transform="scale(.1)" d="m2881.6 2043.1v6l1 6v13 10l-1 9-1 21-2 20v10 19 8l1 7 1 5 1 4 2 2 5 2 3-2 6-6 8-10 4-7 4-8 4-7 5-9 4-8 4-9 4-8 4-9 3-8 4-6 3-6 3-4 2-4 2-2 4 3 1 3v5l1 6v7l1 7 2 8 1 8 4 16 3 7 3 8 3 7 4 6 4 5 9 9 6 2 5 1h6l6-1 6-2 5-4 6-3 10-10 5-6 8-14 3-8 4-16 2-9v-9l1-10v-9l-1-8-1-9v-8l-1-6-2-6-1-5-1-3-2-3-2 4v3l2 11" style="clip-to-self:true;comp-op:src"/>
<path transform="scale(.1)" d="m3176.9 2046.2-3-2-3-1-5-2h-5-6l-6 1-5 2-12 8-4 6-5 6-8 14-6 16-3 24 1 9 1 7 1 8 3 7 3 6 5 5 5 4 6 3 7 2h7 7l8-1 8-3 7-3 7-4 6-4 5-6 6-5 3-6 4-6 2-7 2-6v-6-7l-1-7-1-6-2-7-3-6-3-5-3-6-4-5-3-4-7-7-4-6-5-5" style="clip-to-self:true;comp-op:src"/>
<path transform="scale(.1)" d="m3236.9 2055.3 3-3 4-3 3-1 3-2 8-3h4 4 4l4 1 4 2 8 6 6 12 3 7 2 8 1 9v9 10 10l-2 20-2 18-1 8-1 7v6 4l-2 8-1-6v-5l1-6 1-7v-8l3-27 1-10 2-10 4-21 2-11 6-21 4-10 5-8 4-8 6-5 4-4 5-3h4 5l4 2 4 3 4 4 4 5 10 15" style="clip-to-self:true;comp-op:src"/>
<path transform="scale(.1)" d="m3535.3 2088.4 4-4 3-4 3-6 3-7 2-7 1-7v-7-7l-4-12-3-6-4-5-4-4-5-3-6-2-7-1h-6l-14 4-6 4-7 4-6 6-7 8-6 7-7 9-5 10-6 9-4 11-5 10-3 10-2 10-2 9v9 7l2 7 2 6 3 4 3 3 5 2 4 1 6-1 5-1 6-2 14-8 8-6 16-14 7-8 7-9 7-10 6-10 6-11 4-12 5-13 4-13 8-28 2-14 4-15 6-42 2-11 1-10 1-8v-9l-3 2-2 5-2 6-1 8-3 9-2 10-1 10-4 24v13l-2 13v14l-1 16 1 15 2 15 1 15 2 15 3 13 4 13 3 12 5 11 4 9 6 8 6 6 7 3 7 2 21-2" style="clip-to-self:true;comp-op:src"/>
<path transform="scale(.1)" d="m3732.5 2048.8 3-7 2-6 2-8 1-6v-5l-1-4-2-4-5-3h-4l-4 2-4 1-5 3-14 14-4 5-3 6-4 6-2 7-2 6-2 12v7l1 5 4 12 8 10 5 6 6 4 5 5 12 10 10 10 5 4 4 5 4 4 2 5 1 5v5 5l-2 5-3 5-4 5-6 5-6 4-7 4-9 4-9 3-10 1-24 2-35-1" style="clip-to-self:true;comp-op:src"/>
<path transform="scale(.1)" d="m1417.5 2473.8 2-2 5-1 3 1 5 2 5 3 6 3 6 5 7 5 7 7 6 7 7 9 6 10 7 11 6 12 7 12 6 13 7 12 12 24 7 10 6 9 6 8 6 7 6 5 5 4 6 2h5 5l4-2 8-8 6-14" style="clip-to-self:true;comp-op:src"/>
<path transform="scale(.1)" d="m1595.9 2451.2-4 1-4 5-2 3-4 4-3 5-4 6-5 7-5 6-6 8-14 18-7 11-8 11-17 24-7 12-14 22-7 10-10 16-5 6-3 4-2 4-3 2-3-3 1-9" style="clip-to-self:true;comp-op:src"/>
<path transform="scale(.1)" d="m1553.4 2437.2-3 3-4 5-1 3-3 4-4 8-3 5-8 12-5 8-4 8-6 10-4 11-11 27-5 14-5 15-4 14-5 14-3 13-3 11-3 10-1 9-2 7-2 8-3 1" style="clip-to-self:true;comp-op:src"/>
<path transform="scale(.1)" d="m1423.1 2568.1 1 3 4 3h8l10-2 6-2 9-2 9-3 10-2 12-3 13-3 14-4 15-3 30-7 28-6 13-3 12-2 27-1" style="clip-to-self:true;comp-op:src"/>
<path transform="scale(.1)" d="m1905.6 2480.3-2-3-4 1-2 6-1 5-1 6-1 8-2 8-1 10-2 11-2 24-2 12-2 13-2 11-1 11-2 10-1 9v8l-2 6v6l-1 3v3 3l-2-4v-25l1-7v-8l1-9 1-10 2-10 1-11 2-11 3-10 2-9 3-8 3-7 2-4 3-3 3-2 6 2 8 6 4 6 4 7 5 9 5 10 6 11 4 12 6 12 5 11 5 13 4 11 5 11 5 10 4 9 5 9 4 7 5 7 8 10 3 3 4 3 3 1 4 1 3-3 2-3v-4l1-6v-6l1-6v-8-9l1-10v-11l1-13 1-14 2-16 3-16 2-18 4-17 5-17 5-16 6-14 5-12 6-10 6-7 4-6 5-4 5-2h4l3 1 3 3 2 4 1 5 1 18" style="clip-to-self:true;comp-op:src"/>
<path transform="scale(.1)" d="m2131.2 2614.1 3 4 3 3 4 1 4-1 3-1 4-1 4-3 10-6 9-10 10-12 5-8 4-8 12-27 2-9 3-10 2-18v-7l-1-8-1-5-3-5-2-2-4-2-4 1-5 2-5 5-6 5-5 8-6 9-6 10-5 12-6 14-5 13-4 15-4 14-3 13-2 13v12 10l1 9 1 8 3 7 4 5 4 4 5 3 12 2 7-1 8-2 8-3 9-5 9-6 9-7 8-9 8-10 18-27" style="clip-to-self:true;comp-op:src"/>
<path transform="scale(.1)" d="m2279.7 2500.9-3 4-2 4-3 4-3 7-2 8-3 8-2 10-1 9-2 10-1 18-1 9v23l1 6v5l2 5 4 6 5 3h4l3-1 4-2 3-3 4-3 8-10 4-7 4-6 5-8 3-7 8-14 3-7 3-5 2-4 2-3 3-4 2 3v3l1 4v5l1 5v6l2 14 1 6 2 6 1 6 2 6 3 5 6 8 4 3 5 2 10 2 6-1 7-1 7-3 8-3 14-10 7-6 14-16 5-9 6-10 4-11 3-12 3-11 4-22v-10-9l-1-8-1-6-4-10-2-3-3-2-5-1-4 1-3 2-2 3-2 4-2 10" style="clip-to-self:true;comp-op:src"/>
<path transform="scale(.1)" d="m2981.9 2508.4v-6l1-6v-7l-1-7v-6l-2-10-4-8-2-2-4-3-4-1h-5l-7 1-6 2-8 3-8 4-8 5-7 5-8 6-7 7-6 7-5 6-4 7-3 7-2 7v6 6l1 6 3 6 3 5 4 5 5 5 5 4 6 5 7 4 7 5 6 5 7 4 6 6 5 6 4 5 4 14v8l-1 8-2 9-5 7-5 8-6 6-7 6-7 5-7 4-8 4-7 2-8 3h-6l-5 1-5-1-4-1-3-3-2-4-1-5 2-17" style="clip-to-self:true;comp-op:src"/>
<path transform="scale(.1)" d="m3049.4 2543.4 3-1 1 5v8l-1 6-1 7-2 6-1 8-6 21-2 12v4 5 4l3 4h5l3-2 4-3 10-10 6-7 7-8 6-8 7-9 7-10 6-10 7-10 6-10 6-8 5-8 4-7 3-5 3-4 1-3 1 4-1 5v7l-1 8-2 10-2 12-1 13-2 14-1 15-2 15v16l-1 17-1 16v16l-2 32v17l-2 16v17l-2 18-6 32-3 15-8 26-5 11-4 9-6 9-6 7-6 6-6 5-7 4-7 3-7 2h-7-7l-7-1-6-2-7-3-6-3-5-4-5-5-5-4-5-5-4-5-3-6-4-6-1-5-2-7v-7-8l2-8 1-9 8-18 5-11 5-10 6-11 7-11 8-12 9-13 8-12 20-26 10-14 22-29 12-14 11-14 12-13 27-28" style="clip-to-self:true;comp-op:src"/>
<path transform="scale(.1)" d="m3173.4 2564.4 5-2 12-9 3-2 3 2v5 4l-1 5v5 7 62 9l1 8v8l2 6v6l1 5 2 4 1 3 3 2 3-2 4-5 2-4 2-5 2-7 1-7 3-7 3-9 3-10 6-22 8-24 4-11 5-11 3-9 4-7 4-6 5-5 3-2 4-2h4l3 1 4 3 3 3 4 5 3 6 3 7 5 15 4 16 1 8 1 7 1 8 1 6v5l1 4v3 3l1-5 1-3 2-4 2-6 1-6 3-7 4-8 3-8 10-18 5-8 7-9 6-7 6-6 12-10 6-2 5-2h5l4 1 3 2 2 5 3 5 1 7 1 8v8l1 10-1 9v10 9 16 7l1 7 1 4 1 3 5 2 6-6 11-13" style="clip-to-self:true;comp-op:src"/>
<path transform="scale(.1)" d="m3534.4 2399.1v-8l1 4v4 6 6l-1 7-1 8-1 9v10l-1 10-2 12v12l-1 14v14 50 18l1 17 1 16 2 14 1 12 1 10 1 7 1 5 1 4 1 2v-5-5l1-4 2-6 1-7 3-8 3-9 8-20 17-34 6-11 8-9 6-9 8-7 6-5 7-4 7-2 7-1h6l5 2 6 3 6 5 4 6 4 7 6 18 2 11 1 10v11l-1 12-2 11-6 22-5 11-6 11-6 9-6 8-8 8-7 5-8 5-7 4-8 2-7 1h-8l-6-1-6-2-4-4-4-5-3-6-1-6v-7l2-8 3-8 4-9 5-10 6-11 19-25" style="clip-to-self:true;comp-op:src"/>
<path transform="scale(.1)" d="m3758.1 2542.5 3 2 3 4-1 7v4l-2 5-1 6-2 6-3 7-9 24-4 9-2 8-2 9-2 8v7 7 7l2 6 2 4 2 5 5 2 3 3 6 1h5l7-1 7-2 8-3 9-4 8-5 8-6 9-6 14-14 6-8 5-9 4-9 2-9 2-10 1-10-1-10-1-9-3-9-4-7-4-5-5-5-6-3-7-1-6-1h-6l-7 2-7 1-6 2-5 2-5 3-4 2-2 2-2 3 4 1 8-4 11-9" style="clip-to-self:true;comp-op:src"/>
<path transform="scale(.1)" d="m3955.3 2364.1 4-10 2-6v-3l-3 1-2 3-2 6-2 7-4 8-2 10-4 10-3 12-7 25-6 28-4 14-4 15-6 32-2 16-2 18-2 36v17l1 17 2 16 2 13 3 11 4 9 4 8 4 5 5 4 5 2h5l5-1 14-7" style="clip-to-self:true;comp-op:src"/>
<path transform="scale(.1)" d="m4068.1 2552.8v-4l-1-3-1-4-2-4-5-5-3-1-4-2h-4-6-6l-5 2-7 1-5 2-6 2-6 3-5 3-5 4-4 4-7 8-4 10v5l1 5 2 4 3 5 3 3 10 8 14 8 8 3 9 4 26 13 9 5 14 8 5 4 4 4 4 8v4l-2 2-3 4-4 3-6 3-7 2-7 3-8 1-9 1-10 1h-11l-11-2-11-1-29-7" style="clip-to-self:true;comp-op:src"/>
</g>
<g stroke="#fff" stroke-width="14.1">
<path transform="scale(.1)" d="m626.88 3040.9v-7-4-15 3l1 7v5 7l1 8v10 11l1 13v14l-1 15v16l-1 17-3 54-1 17-2 17-1 15-1 14-1 13-1 11v10l-2 9-1 7v6 9 3l3 5 2 2 3 1h4 9 6l7-1 8-1 18-4 10-2 10-3 10-2 11-3 11-2 11-3 10-2 20-5 10-1 8-2 8-1h7 6 9 3l5 1 2 2-3 2-3-2-2-4v-5-11" style="clip-to-self:true;comp-op:src"/>
<path transform="scale(.1)" d="m831.56 3222.2-4 1-3 1-3 2-5 4-2 2-4 5-3 4-2 4v4l1 4 4 4 3 2 4 2 4 3 10 5 10 4 10 6 6 2 4 3 5 4 4 3 3 4 3 3 2 5 1 4 1 5v4 5l-2 4-2 5-3 5-8 10-12 10-7 5-7 6-8 5-7 5-8 6-8 5-14 10-6 5-6 4-5 3-5 4-4 3-3 2-7 5" style="clip-to-self:true;comp-op:src"/>
<path transform="scale(.1)" d="m1190.6 3104.4v-15l-1-3v-3l-2-8-3-3-2 3-2 5-1 5-1 6-1 7-2 10-2 11-2 13-2 14-2 15-1 16-2 17-3 18-1 18-2 18-3 48v13 31 7l2 10v4l2 3 3 4 5 2h6 4l5-1 6-1h7l16-2 18-2h9l10-1h10l9-1h10 10l8-1h8l8-1 7-1h6l5-1h4l8-2 5-1 3-2 3-1 1-4-3-9" style="clip-to-self:true;comp-op:src"/>
<path transform="scale(.1)" d="m1485.3 3213.8 2-10 2-12v-8l-1-4v-3l-1-3-3-5-5-4h-3l-4-1-4 1-6 2-5 3-6 4-7 6-6 7-7 9-7 12-6 12-6 14-5 14-6 15-3 15-4 15-2 13-2 12v11 9l2 7 2 6 3 5 4 4 4 2 4 1 5 1 5-1 6-1 6-3 5-3 6-4 7-6 6-6 6-7 7-7 10-16 5-9 4-9 4-10 2-10 3-10 2-10 2-8 1-7 1-6 1-4v-3 9 7l-1 7v9 10l-1 10v47l1 7v6l1 5 1 4 1 3 2 3 5-2 5-10 2-5 2-6 2-7 3-8 2-8 2-9 9-30 3-9 4-10 5-8 4-7 4-6 4-5 4-3 4-1 5 2 2 4 2 5 1 6 1 8 2 9 2 18 1 10 1 9v9l2 8 1 7 1 6 2 10v2l2 4 3-2 6-10 2-6 2-7 4-8 6-18 4-10 4-11 4-10 4-11 5-10 6-11 5-9 6-8 11-11 5-2 4-1h4l3 2 3 4 3 6 2 7 1 8 2 18 3 33v11 11l1 10 1 9 2 9 1 7 3 6 2 5 3 4 3 2 4 1 3-1 4-2 3-3 13-9" style="clip-to-self:true;comp-op:src"/>
<path transform="scale(.1)" d="m1913.4 3194.4-1-3-3-2-2-3-3-3-4-3-3-2-4-1-3-2-4-1h-4l-4-1h-5l-4 1-5 1-4 3-6 3-5 3-11 11-5 7-5 8-12 18-4 10-10 22-6 20-2 10-1 8v7 6l2 5 2 4 3 3 3 2 4 3 15 3 6 1h5l5-1 6-1 7-1 5-2 18-9 6-5 15-15 5-6 4-6 4-7 4-6 5-13 2-7 2-5 2-12 1-5v-5-4-8 5 5l-1 7-1 8-1 11-2 12-4 28-3 16-2 16-2 17-3 17-2 16-3 18-2 18-3 18-2 18-3 19-2 20-6 40-2 19-2 18-3 18-3 16-2 16-3 15-3 13-3 12-3 11-4 8-3 8-3 5-4 5-8 6-4 2-4 1h-6-4l-6-1-10-4-6-3-6-4-12-10-6-6-5-7-6-7-5-8-4-8-4-9-3-8-3-9-2-8-1-9-1-8v-9l1-8 2-8 2-10 4-8 4-9 6-10 7-9 8-10 9-10 21-21 12-11 26-20 14-11 28-20 15-9 13-9 13-8 11-8 11-6 8-5 7-5 5-3 4-2 5-3-5-1" style="clip-to-self:true;comp-op:src"/>
<path transform="scale(.1)" d="m2036.2 3221.2v-6-4-11-3l1-4v8l-1 4-1 5-1 6-1 7-1 9-3 10-1 11-2 12-6 39-2 24v10 9l1 9 4 12 2 5 4 8 6 4 9 3h4l4-1 4-2 5-1 5-2 4-3 6-3 4-4 6-5 5-5 10-12 4-7 5-7 9-17 3-9 5-11 3-10 3-11 3-10 2-11 3-11 2-10 1-9 1-8 1-7v-4-7l-2 6-1 4-2 12-2 8-1 9-2 11-2 10-1 11v11l-1 11 1 10 1 9 1 8 2 8 2 7 3 6 4 6 6 8 4 3 4 2 4 1 5 1h5 5l5-1 4-1 6-3 5-2 5-3 5-4 12-8 14-13" style="clip-to-self:true;comp-op:src"/>
<path transform="scale(.1)" d="m2326.2 3229.1 5-7 4-6 5-8 3-8 4-10 1-4v-4l-3-4-5-3h-4l-4 1-6 2-6 1-5 3-7 4-6 5-7 5-13 13-6 9-7 9-6 10-6 11-7 11-15 36-6 22-2 10v8 8l2 12 3 4 2 3 4 2 3 1h4l5-1 6-2 5-4 7-3 14-12 8-6 7-8 21-27 7-11 6-10 5-11 5-9 8-18 3-7 2-5 4-8v5 4l-1 5-1 7-2 8-2 18v11l-1 11v11 11l2 18 2 9 3 8 3 7 3 6 8 8 6 2 5 1h6l7-1 7-2 9-4 9-5 10-6 10-7 10-8 23-22" style="clip-to-self:true;comp-op:src"/>
<path transform="scale(.1)" d="m2556.6 3217.2 1-4v-3-4-4l-2-2-2-3-5-3-2-2h-5-4-5l-4 2-12 4-5 3-7 4-7 5-6 6-7 6-7 8-6 9-7 9-12 22-5 10-8 20-2 8-1 9-1 6v6l2 4 1 4 3 2 3 1h4l6-1 6-2 14-8 8-6 9-6 8-6 16-15 7-8 19-19 4-5 4-3 2-3 3 3v3l-1 5-1 6-2 7-2 9-1 10-2 10-4 22-1 12-2 11-1 12v13l-2 13-1 14v14l-2 30v16l-3 48-4 30-4 28-4 13-3 11-4 11-4 10-5 9-10 14-4 5-6 4-4 3-8 2h-4l-4-1-3-1-6-6-2-4-3-5-2-6-4-14-1-7-1-9v-9-9l1-10 2-10 2-11 3-12 4-11 4-13 6-13 7-14 9-14 9-16 10-16 11-16 13-17 12-16 28-34 14-16 13-16 12-15 11-13 22-25" style="clip-to-self:true;comp-op:src"/>
<path transform="scale(.1)" d="m2658.4 3308.4-3 3-1 3 4 4h3l5-1 12-8 10-8 6-5 7-6 6-6 6-7 6-6 6-7 5-7 5-6 8-14 4-6 2-6 3-6v-5-4-3l-3-4-5-3h-5-4-5l-6 1-6 2-14 6-6 4-14 10-6 6-7 8-12 16-5 10-5 11-4 11-3 11-2 12-2 11-1 11 1 10 1 9 3 8 3 7 4 6 6 5 7 4 7 2 9 1h10l10-1 22-6 12-4 11-6 12-7 22-14 21-19" style="clip-to-self:true;comp-op:src"/>
<path transform="scale(.1)" d="m3169.4 3214.7-3 3-2 3-1 5-1 6-2 7-2 9-1 10-3 12-3 13-3 14-2 15-2 14-3 14-2 26v12l2 10 1 10 7 14 4 5 5 2 6 2h5l7-2 6-2 7-5 7-4 8-6 7-7 7-8 7-9 7-10 6-10 6-11 10-26 4-14 4-15 4-14 2-13 3-11 2-9 2-7 1-6v-3l-2 6v6l-2 7-1 10-1 11-2 13-1 13-2 13-1 14-1 13-1 12 2 22 2 9 2 8 3 6 4 5 4 4 5 1 6 1 6-1 6-2 16-8 16-13 8-7 18-20 9-11 8-11 8-12 16-31" style="clip-to-self:true;comp-op:src"/>
<path transform="scale(.1)" d="m3486.9 3246.2 2-4 1-3 2-4 1-5 1-4 1-3v-7-4l-1-4-1-3-1-4-2-3-3-2-3-3-3-2-3-1-4-1h-4-4-5l-4 2-6 2-4 3-12 8-6 5-6 6-5 7-6 6-4 7-6 14-2 14 1 7 2 6 6 12 4 5 6 5 5 5 6 5 12 8 7 4 6 4 4 5 4 4 4 6 2 10v6l-1 6-2 5-3 6-10 10-6 4-7 5-8 3-7 4-16 4-7 2-8 1-7 1-7-1-6-1-4-1-4-3-2-2-1-5v-5l2-6 4-8 3-8 15-22" style="clip-to-self:true;comp-op:src"/>
<path transform="scale(.1)" d="m3526.6 3305.3 1 3 1 4 3 2 3 1 7-1 7-4 4-2 20-16 15-15 5-6 5-5 4-6 3-6 3-5 3-6 1-5 1-6v-5-5l-1-5-1-4-2-3-6-4h-3-4l-4 2-5 2-6 3-6 5-6 6-12 14-6 10-6 9-5 11-5 10-8 23-4 11-2 10-1 10v10l2 16 3 6 3 5 5 4 7 3 6 1 8 1 9-1 10-1 10-3 22-8 11-6 12-6 27-16" style="clip-to-self:true;comp-op:src"/>
<path transform="scale(.1)" d="m3730.3 3231.2-3-4-5-4-2-1h-8-4l-10 4-10 6-12 10-6 6-6 8-5 8-6 9-10 20-4 11-3 10-4 18-1 9v8l1 7 1 6 3 4 2 4 4 3 5 2 5 1 5-1 6-1 7-2 7-3 7-4 7-5 7-6 6-7 7-8 12-18 6-11 12-24 6-14 4-13 5-15 8-30 8-32 4-17 3-17 3-16 2-15 2-13 2-12 1-10v-14l-1-5-1-3-3-1-3 2-2 3-2 5-3 5-2 7-3 7-3 9-2 10-6 22-3 12-2 13-3 14-2 14-6 32-2 17-2 18-4 38-1 19v17l1 17 1 16 1 13 2 11 1 9 2 6 1 4 6 2" style="clip-to-self:true;comp-op:src"/>
<path transform="scale(.1)" d="m4120.3 3403.1 10-19 8-18 4-10 3-11 4-12 4-13 8-30 3-17 4-17 3-18 4-16 3-16 2-14 3-13 2-11 2-10 1-8v-6-5-2l-1-4-5 2-3 6-1 5-4 12-1 9-2 10-1 11-1 13-1 14-1 16-4 36-1 19-2 19-1 18-1 17v15 14l1 12 2 10 3 8 3 7 4 5 5 4 5 2 6 1h6l7-2 7-4 8-4 8-5 8-6 9-8 8-7 14-18 10-20 4-12 4-11 2-11 3-12 2-11 1-9v-8-9h-3l-3 2-1 5-2 5-1 8-2 8-1 9-1 10v10 10 11l1 10 2 9 2 8 3 8 3 6 4 6 5 4 5 3 6 3 12 2 14-2 7-3 7-2 5-3 6-5 5-4 4-5 6-12 1-6v-7-8-8l-6-27-2-10-2-9-6-16-8-10-4-3h-6-6l-7 1-14 4-8 4-9 3-8 3-23 9" style="clip-to-self:true;comp-op:src"/>
<path transform="scale(.1)" d="m4130 3262.5-3-2-2-4 2-4 5-4 4-2 5-3 20-10 18-8 10-4 11-3 12-4 11-2 12-3 11-1 10-1 8-1h8 6l11-1" style="clip-to-self:true;comp-op:src"/>
<path transform="scale(.1)" d="m4834.1 3292.8 2-10v-6-5l-1-4-2-4-6-4-3-1h-5-5l-12 4-8 3-7 4-8 4-8 6-9 6-16 16-7 8-7 9-7 10-7 9-5 10-4 10-7 19-1 9-1 8 1 8 1 7 3 7 3 6 4 5 6 4 5 4 5 2 7 2h7 7l7-1 8-3 7-3 8-4 16-10 16-14 16-16 7-10 8-10 7-12 8-12 7-14 14-30 7-17 6-17 7-17 10-34 4-17 4-18 3-17 3-16 1-14 1-12 1-9-1-8-1-4-4-1-3 2-3 5-5 6-5 9-5 11-7 12-6 14-7 15-7 16-7 18-12 36-5 19-4 20-3 18-1 18v15l1 15 3 12 3 11 5 8 6 7 6 5 8 4 8 3 9 1h8 10l9-1 9-3 10-2 8-3 16-8 13-11" style="clip-to-self:true;comp-op:src"/>
<path transform="scale(.1)" d="m4957.2 3345 1 4 2 3 6-1 5-3 4-2 12-12 5-4 4-6 10-12 8-14 4-8 3-8 6-14 1-7 3-8 1-5v-5-5l-1-3-4-3h-4-4l-4 2-6 4-5 4-6 6-7 8-7 9-6 11-18 36-10 26-3 11-2 11-2 10v9l1 8 2 6 4 6 10 8 8 1 7 1h9l8-1 10-3 9-3 9-5 23-15" style="clip-to-self:true;comp-op:src"/>
<path transform="scale(.1)" d="m5175.3 3184.1-4 2-5 3-2 3-1 4 2 3 3 3 5 2h3l4 1 4-1 5-1 6-1 5-2 7-2 7-4 8-3 16-10 16-12 21-18 5-7 8-12 2-5 2-6v-6-6-5l-1-6-2-6-3-5-3-6-3-5-4-5-3-3-5-3-3-2-5-1-3 1-5 2-4 3-3 4-4 6-3 7-4 9-2 10-4 28-2 16-1 18-2 20-1 22-2 21-4 48-4 50-1 24-2 22-1 21-1 20-2 18-1 17-2 16-1 14-1 12-1 10-1 7v7 8-6-5l-2-14" style="clip-to-self:true;comp-op:src"/>
<path transform="scale(.1)" d="m5090.9 3390.6v-4l3-9 3-4 12-12 5-4 14-10 18-12 11-6 11-7 13-8 13-7 28-16 15-7 14-7 26-12 11-5 11-3 9-4 8-2 7-2 5-1 4-1h4" style="clip-to-self:true;comp-op:src"/>
<path transform="scale(.1)" d="m5339.7 3262.2 2-2-2 3-1 4-2 3-2 5-2 6-2 7-3 8-4 18-3 10-5 20-2 10-1 9-2 9-1 9v7 8 6l1 7 2 5 2 4 2 3 6 4h4l4-1 3-1 5-3 4-3 8-10 10-16" style="clip-to-self:true;comp-op:src"/>
<path transform="scale(.1)" d="m5393.4 3164.7h-5l-8 4-3 2-5 4-4 5-2 6-2 8v4l2 8 2 3 6 6 4 2 4 1 6 1 5-1h5l6-1 5-2 15-9 4-4 2-4 3-5 1-4v-5-3l-2-5-2-4-5-9-7-7-5-4-8-2h-4l-5 1-4 2-4 3-4 4-3 4-2 5-3 18 1 18" style="clip-to-self:true;comp-op:src"/>
<path transform="scale(.1)" d="m5415.9 3335.9-4 2-3 1-2-3 1-6 1-4 2-5 1-6 3-6 3-7 4-7 8-16 10-16 18-21 5-5 6-4 4-3 5-2 4-1 4 1 5 5 2 5 2 6 1 7 1 8v18l-1 11-1 10-2 22-2 20-2 16v6 4l1 4 2 4 3 2 4-3 3-2 3-3 3-4 12-15 10-14 5-8 6-9 5-8 12-20 5-9 6-9 5-8 6-7 4-5 3-5 3-3 4-3 1 5-1 4-1 5-1 7v8l-2 8-3 30-1 11v11l-1 9 1 10 1 8 2 7 3 7 8 10 6 3 7 2h7 8l8-2 9-2 9-4 20-10 10-6 9-7 9-8 10-9 16-20 8-12 12-24 4-13 4-12 3-13 2-12 1-11 1-10-1-9-1-5-3-5-4-1h-5l-6 1-6 5-7 5-7 8-7 9-7 12-8 12-7 14-7 15-12 32-5 16-3 15-2 14v13l2 11 3 10 5 8 6 7 7 4 10 3 10 1h11l24-6 13-6 32-20" style="clip-to-self:true;comp-op:src"/>
<path transform="scale(.1)" d="m6192.2 3124.1v-4l1-3v-4l2-8 1 3v4 5l-1 6-2 8-1 10-3 12-3 13-4 14-8 30-5 17-4 17-5 17-3 18-4 17-4 16-2 16-2 12-1 12 1 10 1 8 2 6 4 4 5 3 6 1h7 8l9-2 9-3 18-8 16-10 15-14" style="clip-to-self:true;comp-op:src"/>
<path transform="scale(.1)" d="m6072.5 3310.3v-4l2-6 6-6 8-6 12-8 16-10 9-6 10-6 11-6 24-14 13-7 13-8 13-7 14-8 13-8 13-9 12-8 11-8 20-16 8-7 25-25 2-3 1-3-4 4-2 4-2 5-2 7-3 8-3 9-3 11-8 24-4 15-4 14-5 15-7 32-4 17-3 15-4 15-2 13-2 12-2 10-2 9-1 8-2 6v5l-1 3v5h4l4-4 2-3 7-9 4-5 4-6 5-6 10-14 5-8 6-9 12-16 12-14 10-10 4-2 3-2 4 1 1 6v6 6l-1 7-2 16v9l-2 18-1 8v9l1 7 2 6 1 6 2 5 7 7 6 2h5 7l8-1 9-3 8-3 10-3 9-5 10-6 9-6 18-14 8-7 7-8 12-18 5-9 4-9 3-9 2-16v-7l-1-6-3-6-3-4-3-5-4-3-6-2-4-2-6-1h-6l-6 2-5 2-7 4-6 5-5 5-6 8-5 8-4 9-4 10-4 11-2 12-1 10v11l2 20 4 9 4 7 6 7 6 6 9 5 9 4 9 2 11 2h10l11-1 10-2 26-11" style="clip-to-self:true;comp-op:src"/>
<path transform="scale(.1)" d="m6932.8 3291.9-1-3-3-7-1-3v-4l-1-3v-3l1-6 2-3 4-3 6-1 8 1 4 2 5 3 5 4 5 5 5 7 4 8 4 9 2 9 2 11 2 22-1 11v11l-2 11-4 20-1 8-3 8-3 6-2 6-3 5-3 4-2 3-3 2-3 1h-5l-4-2-2-5-1-4 1-5v-5l4-12 3-8 5-8 5-9 6-9 6-10 7-12 8-12 9-14 27-39 18-20 8-7 7-5 7-4 4-2h4l4 3-1 11" style="clip-to-self:true;comp-op:src"/>
<path transform="scale(.1)" d="m7117.5 3263.4-4-1-5 2-2 3-4 4-3 6-2 6-4 8-2 9-3 10-2 10-3 10-2 11-1 11-2 10-2 20 1 9v8l2 8 2 6 3 6 8 8 5 3 5 2 5 1h7l5-1 7-1 6-2 6-3 5-4 6-4 5-4 6-5 5-6 4-6 8-14 4-8 3-8 3-9 4-10 3-10 6-22 2-10 3-10 2-8 2-7 2-5 1-3 3-1 2 5 1 5v6 33 9 19 9l2 16 2 6 3 6 2 5 4 5 3 3 4 2 4 1h5l4-1 12-7" style="clip-to-self:true;comp-op:src"/>
<path transform="scale(.1)" d="m7377.8 3093.8-5-1-6 1-3 2-4 3-2 4-3 5-3 6-4 14-6 20-2 11-2 13-3 13-3 15-2 15-4 34-2 19-2 36 2 34 4 28 4 12 5 10 5 7 6 6 7 5 7 2 7 1h8l8-2 8-3 9-4 9-5 8-6 9-7 9-8 8-9 7-9 7-11 6-12 5-12 8-28 2-14 1-13v-11-10l-2-7-3-4-4-3-5-2-6 1-7 2-7 4-8 6-8 8-9 10-8 11-7 13-8 13-6 15-6 13-5 14-4 13-2 13-2 11v10l2 9 3 7 4 7 7 6 8 4 8 3 10 2h11l12-1 12-2 13-4 13-5 30-15" style="clip-to-self:true;comp-op:src"/>
<path transform="scale(.1)" d="m7661.9 3270v-3l1-4v-8l-1-3-1-4-2-4-3-4-9-3h-4l-4 1-5 1-9 3-5 2-6 3-10 8-10 10-12 18-2 6-1 7-1 6 2 10 2 6 6 10 5 5 4 5 4 6 5 5 5 6 4 5 5 6 3 6 6 10 2 10v5l-1 5-4 8-6 6-12 6h-4l-5 1h-4-5l-4-1-8-3-4-2-3-2-4-3-3-3-2-3-2-5-1-4-1-6-2-13" style="clip-to-self:true;comp-op:src"/>
<path transform="scale(.1)" d="m672.19 4241.9 4-3 3-3 1 4 1 5 1 4v25l-1 9v12l-1 12-1 15-2 32-2 17-1 18-2 17-1 17-1 16-1 14v13l-1 11v9 14 5l1 4v4l2 3 2 4 5 2 3 1h8l5-1h6l7-2 16-4 9-2 10-2 10-3 11-1 10-2 10-1h10l20-2h17l8 1h7l14 2h6l10 2 3 1 4 2 3 1 4 2 3 2 4-1v-4l1-6 1-10" style="clip-to-self:true;comp-op:src"/>
<path transform="scale(.1)" d="m865.94 4420.9-4-1h-4l-3 2v3l1 4 2 3 4 5 3 2 3 3 3 2 5 3 4 2 18 6 7 2 7 1 21 6 6 1 12 4 4 2 4 1 3 2 5 4 2 4-2 6-3 3-3 4-9 9-7 6-7 5-7 7-8 6-16 13-8 6-8 7-8 6-19 19-5 6-4 5-3 4-1 3 4-3" style="clip-to-self:true;comp-op:src"/>
<path transform="scale(.1)" d="m1405.9 4374.7 2-8 2-7 3-9 4-18 1-8 1-7v-6-11l-1-5-1-4-2-3-3-3-4-2-4-1-6 1-7 1-16 6-9 5-20 12-11 8-10 8-17 17-8 9-6 8-5 8-3 7-1 8v7l1 7 3 7 5 7 5 8 8 7 8 8 18 16 11 8 10 7 9 8 18 14 8 8 6 8 10 14 3 7 1 6 1 7v6 7l-4 12-4 7-4 5-5 5-6 4-6 3-8 3-8 2-9 3-10 1-10 2-9 2-10 1-9 1-16 2-7 1h-12l-6-2-2-3 2-6 3-5 4-5 16-15" style="clip-to-self:true;comp-op:src"/>
<path transform="scale(.1)" d="m1527.5 4289.1-1-3-2-5-3-3-1 2v9 7l-1 8-1 10-1 11-1 13-2 14-1 16-2 16-1 17-2 16-2 15-1 16-2 15-1 14-1 12v12 19 8 6l1 5 1 3 1 5 3-4 3-6 1-5 3-5 3-6 2-6 4-7 3-8 4-8 5-8 4-9 6-9 5-9 6-9 5-9 6-6 4-5 9-6h4l3 3 2 3 4 12 2 18v11 12 13 49l1 11 2 18 2 6 4 5 3 4 12 2 6-2 8-2 10-5 10-6 11-7 11-8 12-10 13-10 28-26" style="clip-to-self:true;comp-op:src"/>
<path transform="scale(.1)" d="m1801.9 4416.9-3-5-2-2-3-1-6-1-3 1-4 2-3 3-5 4-5 6-6 7-7 8-6 9-7 10-8 11-6 11-7 12-6 11-5 12-8 20-2 9-1 8v7l1 6 2 5 4 3 3 3 4 2h5 5l12-4 6-3 7-4 6-5 7-4 7-6 6-7 6-6 6-7 6-8 5-7 4-7 4-6 3-6 3-5 2-4 1-3 2-3 1 5v4l-1 5v6 7l-1 7v8 7 8l1 7 4 12 3 5 7 7 5 2 5 1h6l7-1 14-6 16-10 8-7 8-9 7-9 6-10 13-28" style="clip-to-self:true;comp-op:src"/>
<path transform="scale(.1)" d="m1944.7 4248.4 1-6 2-14v-6l1-3 1 3v5l-1 6-1 9v9l-1 11-2 11-1 14-2 14-2 34-1 18-1 19v19 38 19l1 19v19l2 36 1 15 2 13 2 11 2 8 2 6 3 4 3 3 3 1 3-1 4-2 3-4 5-5 4-6 5-8 5-10 4-10 6-12 4-13 4-14 3-15 3-16 3-18 3-20 2-21 3-24 6-75 3-24 2-23 2-20 2-18 2-14 2-12 1-7v-5-3l-2 6-1 6-2 8-3 11-3 13-4 15-3 16-4 19-3 20-3 22-3 23-3 24-3 25-4 47-2 23-1 23v44l1 20 2 17 3 14 3 12 5 9 5 6 5 4 6 2h6l6-2 6-3 15-13" style="clip-to-self:true;comp-op:src"/>
<path transform="scale(.1)" d="m2129.7 4483.1 2-4 2-6v-4-5l-1-2h-4l-8 16-3 7-4 7-3 9-3 10-3 9-2 11-1 10v10 10l2 9 3 8 8 14 10 8 6 2 6 1h6l6-1 7-3 6-3 7-5 5-6 6-7 5-7 8-18 3-10 2-10 1-11v-11-12l-1-11-1-12-2-10-2-9-4-8-3-5-5-4-6-2h-5l-7 1-7 3-7 5-6 6-6 7-6 8-10 18-6 20-2 10-1 9v9l1 8 5 16" style="clip-to-self:true;comp-op:src"/>
<path transform="scale(.1)" d="m2290.6 4471.2-4-3-3-2-3 2v4l-1 3v4 6 13 8l2 18v10l2 10 2 11 2 9 3 9 2 9 3 7 6 12 4 4 2 3 3 3 3 1h5l4-3 2-2 4-8 2-5 4-12 3-6 3-8 3-7 8-16 4-7 5-7 5-6 4-5 5-4 4-2 4-1h4l3 1 3 2 3 4 5 10 1 7 4 14 6 24 2 7 4 8 2 6 4 6 4 5 4 4 4 3 5 3 6 1h5l6-1 5-2 6-3 5-4 6-5 10-12 5-8 8-18 4-11 4-12 2-11 3-13 3-14 2-14 2-26 1-12 1-10v-9l-1-6-3-9-4-4-5 3-3 3-3 4-3 5-9 12" style="clip-to-self:true;comp-op:src"/>
</g>
<g stroke="#f0f" stroke-width="14.1">
<path transform="scale(.1)" d="m1763.8 4845.6 2-4 3 2 5 3 4 2 3 3 10 8 6 4 5 4 7 5 7 6 8 6 8 7 9 7 19 16 10 8 10 9 20 16 9 9 9 8 8 7 8 8 8 7 31 31 3 2 5 4-1-5-2-3-6-11" style="clip-to-self:true;comp-op:src"/>
<path transform="scale(.1)" d="m1916.9 4851.6v-14l-3 5-1 3-2 4-2 5-2 6-10 20-4 9-5 9-6 9-5 10-21 33-8 11-16 23-8 10-9 11-8 10-7 10-7 8-6 7-16 16-4 3-3 3-4 2-1-5 1-4 2-5 5-16" style="clip-to-self:true;comp-op:src"/>
<path transform="scale(.1)" d="m1845.6 4861.9 2-10v-4-3 5 3l-1 4v5l-2 12-2 16v9l-1 9v9l-1 9v9 9 25 8l1 8 1 7 2 12 2 5 1 4 1 5 1 3 2 4 2-5-2-8" style="clip-to-self:true;comp-op:src"/>
<path transform="scale(.1)" d="m1764.1 4961.2-6-4 1-3 5-2 4-2 5-2 6-1 8-3 8-2 10-3 11-2 26-6 14-3 15-3 16-3 14-2 15-2 14-2h12l12-1 9 1h6l5 1 3 1" style="clip-to-self:true;comp-op:src"/>
<path transform="scale(.1)" d="m2213.8 4873.4-1-3v3l1 4v12l-1 8-1 9v10l-3 10-1 11-2 11-3 12-2 11-3 11-2 11-6 22-4 18-2 8-2 7-1 5-1 4-1 5-1-6 1-4v-5l3-21 2-8 2-10 4-19 4-21 3-11 3-12 4-11 4-12 5-10 6-10 5-9 5-6 5-5 5-3 4-1h5l3 2 5 3 3 5 8 14 4 9 3 10 28 77 5 10 5 9 10 16 10 12 6 4 5 4 6 2 5 1h6l5-1 4-2 5-3 4-4 2-6 3-6 3-7 2-9 1-8 2-10 1-11 2-24v-13l2-28 1-15v-15l1-15 1-14 1-13 2-12 1-9 3-8 2-4 2-3h5l3 4 2 4 4 14 2 9 1 9 2 26" style="clip-to-self:true;comp-op:src"/>
<path transform="scale(.1)" d="m2512.5 4957.8v3l-3 6-1 5-3 5-4 12-2 7-2 6-1 7-2 7v6 6l1 6 1 5 2 5 3 3 4 3 4 2 6 1h6l6-2 7-2 7-3 8-5 7-4 8-6 7-6 12-14 5-7 4-8 3-8 3-16-1-8-2-8-6-18-4-8-4-7-6-7-6-5-7-3-8-2h-8l-8 2-10 4-10 6-10 8-9 9-8 9-9 11-6 11-6 10-4 11-2 10 2 23" style="clip-to-self:true;comp-op:src"/>
<path transform="scale(.1)" d="m3103.8 4905.9v-4l1-6-1-5-2-3-4 2-3 3-6 10-4 7-4 8-5 9-4 11-5 11-4 11-4 12-3 13-2 13-2 12v12 11l1 11 3 9 4 8 4 6 5 5 7 3 6 2 9 1 8-1 20-6 10-5 11-5 11-6 11-8 20-16 16-18 7-9 5-10 5-9 3-9 2-10 2-9 1-9v-7-7-4l-3-3-5 5-3 5-3 6-2 9-4 9-3 10-2 11-3 11-2 11-2 24v11l1 10 2 9 3 8 3 7 5 5 5 3 5 1h6l7-1 7-3 7-4 6-5 7-6 7-7 6-8 10-16 3-10 4-18v-10-10l-2-10-2-11-6-20-4-9-3-9-6-7-4-5-6-3-6-2h-5l-7 2-6 4-7 5-7 7-12 16-4 9-4 10-4 18v8 8l2 7 7 16" style="clip-to-self:true;comp-op:src"/>
<path transform="scale(.1)" d="m3371.2 4938.4-2-6-4 2-3 5-1 4-1 5-2 6-1 7-2 8-2 9-1 10-2 11-2 10-3 33v11 10 9l1 8 1 6 2 8 3 4 3-4 1-3 1-4 2-6 1-6 1-7 1-6 1-8 2-8 4-18 3-9 3-10 5-9 4-9 5-9 5-7 5-6 5-4 4-3 4-1h4l3 1 4 8 2 6 1 6 2 8 2 16 2 18 1 10 2 9 1 9 4 14 2 6 3 5 3 3 3 2 3 1 3-1 4-1 4-2 4-4 5-4 5-7 6-6 6-8 7-8 7-10 7-9 7-10 8-10 7-11 15-21 6-9 6-8 6-6 4-5 4-3 4-1 1 6v5 6l-1 7-1 9v9l-1 10-2 22v12 23l2 23 1 10 2 9 3 9 3 6 3 4 5 3 4 2h5l4-2 5-4 11-12" style="clip-to-self:true;comp-op:src"/>
<path transform="scale(.1)" d="m3657.2 4946.2 1 4v21 6 6 8 9l-1 10-1 11-1 13-1 14-1 15-1 16-4 36-1 18-4 36-2 16-2 15-1 13-1 11v11l-1 8v7 13-6l1-5v-6l1-8 2-8 2-10 4-22 2-13 4-14 2-15 4-16 3-18 8-40 5-21 5-20 6-20 7-18 6-17 8-14 6-11 7-9 6-6 6-3 5-2 5 1 4 2 6 10 2 7 2 8 2 10 1 11v12 12l-1 14-2 13-6 30-4 13-5 14-10 24-6 10-5 8-6 8-5 5-4 5-4 2-3 1-6-1-3-5v-11l2-8 1-9 3-11 3-14 11-36" style="clip-to-self:true;comp-op:src"/>
<path transform="scale(.1)" d="m3850.3 4788.4-2-3-3 2-3 5-4 10-3 6-6 18-2 10-3 12-6 28-1 16-2 16-2 18-1 17-1 18v18l1 18 1 16 3 16 4 15 5 13 5 12 7 9 7 8 8 5 9 4 10 2h9l10-1 10-3 9-4 9-6 9-7 8-8 7-10 12-22 6-13 4-12 4-14 3-14 2-14 2-26v-10l-1-9-2-6-3-4-5-2-6 1-6 3-8 6-7 6-8 9-8 10-14 22-6 13-5 13-4 14-3 13-2 26 1 12 1 11 4 10 4 8 4 7 6 5 5 4 7 3h8 8l7-1 9-4 7-4 8-6 8-7 14-18 14-27" style="clip-to-self:true;comp-op:src"/>
<path transform="scale(.1)" d="m4021.9 4930.3-3 2-5 4-2 2v4 4 4l4 10 4 5 3 5 4 5 5 6 6 5 7 6 6 6 7 6 8 7 24 18 8 5 8 6 8 5 7 4 6 4 6 3 6 2 4 2 4 1 4-1 2-1 5-11" style="clip-to-self:true;comp-op:src"/>
<path transform="scale(.1)" d="m4163.8 4939.4v-3l-4 2-4 6-3 5-2 5-5 6-4 6-5 6-13 13-6 7-23 23-8 9-9 9-18 20-9 11-9 10-7 11-6 10-6 9-4 9-3 7-2 6 4 8" style="clip-to-self:true;comp-op:src"/>
<path transform="scale(.1)" d="m4747.2 4902.2 2-4 3-3 2 3 1 4 1 6 2 8v10 12 14l-2 16-3 17-2 20-3 22-4 24-3 25-8 48-4 21-3 18-2 17-2 15v12l-1 10 1 9v7l1 6 2 4 1 3 3 2 3-3 2-3 2-5 1-6 1-8 2-20" style="clip-to-self:true;comp-op:src"/>
<path transform="scale(.1)" d="m4740.6 5036.6-1-5v-4-6-6l1-5 2-6 3-5 8-12 19-19 16-12 9-6 10-5 10-4 10-3 11-2 10-1h11l10 2 10 3 8 5 7 6 5 8 4 9 3 9 1 11-1 12-2 12-3 12-4 13-4 12-6 12-6 11-6 9-7 9-6 7-7 5-6 4-6 2-6 1h-5l-5-2-4-2-5-4-3-6-3-7-1-9-1-10v-11l3-27" style="clip-to-self:true;comp-op:src"/>
<path transform="scale(.1)" d="m4967.5 4962.2v12 5 7l1 7v9 8l2 18v10 21l1 10v20 8 7 6 7 3l-3-5-1-4v-4l-3-21v-9l1-9 1-10 1-11 4-11 3-12 6-12 5-13 7-12 16-26 9-12 10-11 10-10 10-8 8-5 9-4 6-3h6 4l6 8" style="clip-to-self:true;comp-op:src"/>
<path transform="scale(.1)" d="m5110.3 4963.8-4 3-5 5-3 4-4 4-4 6-4 7-5 8-4 8-5 9-3 8-3 10-4 18v9l2 9 4 14 3 5 5 4 4 3 6 1h6 7l6-2 7-3 8-4 7-4 6-5 12-14 4-8 5-8 3-9 3-10 2-9 2-20v-10l-2-18-2-7-4-6-4-4-5-4-6-1h-6l-6 1-7 3-5 3-5 4-4 4-4 5-2 5-1 5v5l1 5 3 12" style="clip-to-self:true;comp-op:src"/>
<path transform="scale(.1)" d="m5247.5 4985.9h-4l-6 2-5 3-7 7-4 5-8 12-8 13-6 14-2 8v8 7 8l2 7 3 6 9 9 7 4 6 1 7 2 9-1 8-1 8-2 9-3 8-4 8-5 7-5 6-7 10-14 3-8 1-9 1-8v-9l-1-10-2-9-3-9-4-8-5-8-6-6-6-5-7-4-8-3-8-2h-8-8l-9 3-7 3-6 4-5 4-3 4-2 5-1 6v5l2 5 2 4 4 4 12 10" style="clip-to-self:true;comp-op:src"/>
<path transform="scale(.1)" d="m5404.4 4968.1 3-2 3-3 8-6 10-8 5-5 6-5 19-18 6-8 14-16 6-10 5-9 6-11 8-22 4-12 2-12 3-13 2-14 2-26v-11-10l-1-8-2-5-2-2-6 3-4 5-9 18-6 11-6 14-6 15-12 34-12 38-10 40-8 42-3 22-2 22-1 23-2 23-1 24-1 23v21 19 18l1 15 1 14 1 12 1 11 1 9 1 6v5l1 3 4-3 1-4 1-5 1-6 1-17" style="clip-to-self:true;comp-op:src"/>
<path transform="scale(.1)" d="m5372.2 5086.2v-4-7-4l2-5 2-4 3-4 9-9 5-4 14-12 8-5 9-7 9-6 22-14 13-7 13-8 28-14 15-8 15-7 28-14 13-5 11-5 11-4 9-4 14-6 8-4 4-4-1-4-2-3-5-3-6-2h-4l-4 1-5 1-10 5-7 4-6 5-6 6-7 6-6 7-10 16-3 7-2 8v7l1 7 3 7 4 6 6 6 6 4 8 5 8 3 17 6 8 3 7 3 6 2 5 4 4 3 3 4 1 5v6l-2 5-4 6-6 7-8 7-8 6-10 6-22 12-12 4-11 3-12 3-11 1-25-4" style="clip-to-self:true;comp-op:src"/>
<path transform="scale(.1)" d="m1797.8 5589.7 6 4 3 3 8 6 5 4 12 10 7 5 16 12 9 7 8 7 18 16 8 8 9 7 8 8 8 6 16 14 7 6 6 6 12 10 4 4 10 6 4 2h3 3l4-4 2-3 2-9" style="clip-to-self:true;comp-op:src"/>
<path transform="scale(.1)" d="m1974.7 5585 1-4-1 4-2 3-1 3-3 4-3 6-8 12-4 8-5 7-5 9-6 8-6 9-14 18-8 10-16 18-7 8-8 8-14 16-6 6-5 6-15 15-2 3 2-2 3-2 6-8 4-6 9-15" style="clip-to-self:true;comp-op:src"/>
<path transform="scale(.1)" d="m1895.6 5568.1v-3-4l-2 3-1 4v4l-1 6v7l-1 7-1 9v9 31 11 13l1 13v27 14 15l1 15v15l2 30 2 13 1 13 2 10 1 8 2 6 2 4 4 1 3-3 2-4 1-5 2-7 1-7v-9l-2-23" style="clip-to-self:true;comp-op:src"/>
<path transform="scale(.1)" d="m1817.5 5718.4-6 1h-3l-4-1 1-2 4-3 4-1 6-1 7-2 8-2 9-1 12-3 13-3 15-2 15-3 32-6 16-2 14-4 13-1 11-3 20-4" style="clip-to-self:true;comp-op:src"/>
<path transform="scale(.1)" d="m2364.7 5622.5 2-4 2-5 6-12 12-28 2-6 2-7 1-6v-5-5l-1-4-3-4-2-3-4-3-4-2-4-1h-12l-6 1-6 2-7 2-7 3-8 4-8 5-7 4-7 6-8 6-14 14-6 7-5 7-4 7-3 7-2 7v7l4 12 4 6 5 6 6 7 14 12 8 7 8 6 18 14 16 14 14 16 6 8 4 8 4 9 2 8 1 9v8l-1 8-3 8-3 6-4 6-5 5-12 8-14 4-24 3-18-2-8-1-8-2-9-2-14-6-6-3-4-4-3-5-1-4v-6l1-5 3-5 5-6 6-5 6-7 16-12 24-14" style="clip-to-self:true;comp-op:src"/>
<path transform="scale(.1)" d="m2470.6 5675.3-2 4-2 5-2 8-1 5v5l-2 12v6 68 9 9 8 7 5 5l-1 3-1 4-3-2-1-3-1-4-1-6-2-7-4-32" style="clip-to-self:true;comp-op:src"/>
<path transform="scale(.1)" d="m2471.2 5633.1 2-2 2 2 4 10 6 10 3 6" style="clip-to-self:true;comp-op:src"/>
<path transform="scale(.1)" d="m2564.7 5725-1 3-1 7-1 5-1 6-1 7-1 8-1 9-2 9-1 10-2 9-2 10-1 9-1 8-1 7v5l-1 5v3 3l-3-2-1-6v-9l1-6v-6l2-7 1-8 2-9 3-8 4-9 3-9 5-9 5-8 12-16 5-6 12-10 4-3 5-1 4-1 4 1 3 1 3 3 3 4 2 4 2 7 1 7 2 7 2 16v8l3 24 2 7 1 6 2 8 3 4 3-1 4-6 2-5 2-6 4-14 6-24 3-9 2-9 3-8 7-16 4-7 3-6 4-4 2-4 3-2h4l2 6v4 6l1 7-1 8v8 9 19 9l2 18 1 7 2 6 1 5 2 4 2 3 4 2 4-1 5-10 4-13" style="clip-to-self:true;comp-op:src"/>
<path transform="scale(.1)" d="m2794.1 5685.3 4-1 2 4 3 5v5l1 4v6 8l-1 8-1 11-2 13-1 13-2 16-2 17-4 36-1 19-1 18-2 34v15l-1 13v12l1 10v9l1 8v5 5 3 3l-3-2-4-7-1-5-2-7v-6l-2-9v-9-11-11l1-12 1-13 2-15 2-16 2-17 3-19 8-38 5-19 6-18 6-16 6-15 7-12 7-11 6-10 7-7 7-6 7-5 7-3 6-1 7-1 12 4 9 9 3 6 3 8 2 9v9l1 10-1 10-1 11-6 24-5 13-4 12-6 11-5 11-6 10-6 8-6 5-5 5-5 3-4 1h-3l-4-1-2-3-1-3-1-5 1-7 1-8 2-9 3-11 3-13 12-31" style="clip-to-self:true;comp-op:src"/>
<path transform="scale(.1)" d="m2972.8 5564.4-4-2-3 2-2 5-1 4-1 5-1 7-2 7-1 9-2 9-2 11-2 12-1 14-2 14-1 15v16 17 17l1 17 2 16 2 15 3 14 3 12 4 10 5 8 4 5 5 5 12 2 7-1 7-2 7-5 8-5 8-7 7-9 7-10 8-11 6-11 7-13 12-26 6-14 5-13 5-12 4-12 2-10 2-8v-7-5l-2-3-3-1h-4l-10 5-13 13-7 8-7 10-8 10-6 12-6 13-5 12-5 14-3 14-1 14-1 13 2 13 2 12 4 10 5 9 6 6 8 6 10 3 11 3 12 1 13-1 13-3 14-4 13-5 13-6 30-19" style="clip-to-self:true;comp-op:src"/>
<path transform="scale(.1)" d="m3513.1 5686.6v-5l-1-3-3 4-1 3-3 4-3 5-2 6-4 8-4 9-4 10-5 10-3 13-4 12-3 14-2 26v13 12l2 10 3 7 5 6 5 4 6 1h9l8-2 9-3 10-5 9-7 9-8 9-10 18-27" style="clip-to-self:true;comp-op:src"/>
<path transform="scale(.1)" d="m3510.3 5584.1-2-1-6-1h-6l-3 3-2 3-3 10-1 4v7l1 4 1 5 1 4 2 4 2 3 4 3 3 3 3 2 3 1h3 4l5-1 3-2 6-9v-4-9-5l-1-5-4-11-6-12-12-15-4-3-5-3-4-2-3-1h-4l-8 2-8 6-6 8-4 5-2 5-3 4-2 6-2 4-2 6v4l-2 4v5l2 5" style="clip-to-self:true;comp-op:src"/>
<path transform="scale(.1)" d="m3700.9 5681.6-8-4-5-1-7-1-6 1-7 1-6 2-6 3-6 4-11 11-4 6-5 7-9 17-3 10-4 10-2 10-1 11v11 10l1 10 3 9 3 8 4 6 6 5 10 6 7 1 6 1 7-1 6-3 8-2 6-4 7-5 12-14 6-8 5-9 6-10 5-11 4-11 5-13 4-13 4-14 4-16 8-34 6-38 3-18 2-18 3-17 2-15 1-13 1-9-1-7-1-5-3-2-6 12-3 7-3 10-8 24-3 16-5 16-4 18-5 18-3 19-4 20-4 19-5 39v18 19 16l3 14 4 12 5 8 6 7 8 3 8 1h10l9-3 11-4 11-7 11-8 22-22 10-12 19-27 7-14 7-13 6-14 6-24 2-10v-9l-1-7-2-6-3-4-5-2h-5l-6 2-8 3-7 4-16 14-14 18-7 10-6 11-5 11-4 13-2 11-1 12v12l1 11 3 11 5 9 6 9 8 6 8 5 10 4 10 2h11l12-1 12-2 11-3 26-14" style="clip-to-self:true;comp-op:src"/>
<path transform="scale(.1)" d="m4000.3 5685.6 2-4 1-3 2-5 1-3v-4l-1-5-3-5-2-2-6-2-4-1-4 1-5 2-6 2-5 4-6 4-13 13-7 9-14 20-6 10-6 11-5 12-6 22-1 11v10l1 9 3 7 3 6 5 5 6 3 6 1h8l7-2 8-4 18-10 8-8 9-8 14-18 6-10 6-11 6-10 4-11 3-11 3-9 2-9 2-7v-6-5l-1-3-3 1-7 14-2 6-4 16-2 9-1 10-1 9v11 10l1 11 2 10 2 11 6 20 4 8 10 10 6 2 6 1 7-1 17-8" style="clip-to-self:true;comp-op:src"/>
<path transform="scale(.1)" d="m4178.1 5688.8 2-6 2-5 2-4 2-8 2-4v-4l1-4v-7l-2-6-4-3-5-2-7 2-4 2-5 3-4 4-6 4-4 5-5 6-4 6-4 7-3 7-2 8-2 7v7l1 7 2 6 3 7 3 6 4 7 5 6 6 6 7 5 8 6 14 10 7 6 7 5 6 5 8 10 2 5 1 4v5 3l-2 4-3 2-4 3-10 4-5 1h-7-6-6l-7-1-6-3-6-2-6-4-6-5-20-20" style="clip-to-self:true;comp-op:src"/>
<path transform="scale(.1)" d="m4924.1 5484.1-3-4-6-3-6-2h-4l-4 1-10 2-5 3-6 2-7 4-6 4-7 6-8 6-7 8-8 9-8 11-8 12-9 14-8 15-7 16-8 16-6 18-5 19-5 18-3 18-2 17v16l1 16 3 15 4 14 5 13 5 11 7 11 14 18 9 6 9 5 9 4 20 2 11-1 22-4 11-5 10-4 10-7 24-17" style="clip-to-self:true;comp-op:src"/>
<path transform="scale(.1)" d="m5063.1 5578.4-1-3v-3-4l-1-3-2-5h-3l-4 10-1 6-3 7-2 9-2 10-2 11-10 65-1 13-2 11-1 13-1 11-2 23-1 10v27l1 6 1 5 1 3 4-3 4-11" style="clip-to-self:true;comp-op:src"/>
<path transform="scale(.1)" d="m5069.4 5603.8-3-2-2-3v-3l4-5 3-3 4-3 4-4 6-3 14-6 7-2 8-2 16-2h8l8 1 7 1 6 2 5 2 5 4 3 4 2 6 1 6v7l-1 9-2 8-8 20-5 10-7 10-6 10-14 18-7 8-7 7-7 6-7 5-10 8-4 3-3 2-3 3 3 4h3 9 6l14-2h7l8-1h8 7 8l6 1 7 2 5 2 5 3 2 4 3 4 1 5v6l-1 6-3 8-3 7-5 7-12 16-8 7-7 7-9 6-8 5-9 5-18 8-9 3-9 2-8 2-9 1h-7-8l-12-2-5-3-4-2-4-5-2-4-1-5 1-5 1-7 2-8 4-8 12-20" style="clip-to-self:true;comp-op:src"/>
<path transform="scale(.1)" d="m5280.6 5700.3-1-3v-5l-4 3-1 4-1 5-2 6-1 8-3 8-1 9-4 18-1 11v10 11 10l1 9 2 10 1 8 2 7 3 6 3 5 6 8 3 2 5 2h4l4 1 5-1h5l10-4 4-2 5-4 5-3 4-5 5-5 4-6 5-7 8-16 4-9 8-20 5-20 3-9 2-9 1-7 1-6 2-8v5l-1 4v5l-1 5-1 7v6l-1 7v16l1 8 2 15 1 7 2 7 4 10 3 4 3 3 9 6 3 1h6l4-1 4-4 2-5 2-10" style="clip-to-self:true;comp-op:src"/>
<path transform="scale(.1)" d="m5481.2 5573.1 3-5 4-2 2 4v4l1 5-1 7v7l-1 9-1 11-2 12-4 26-2 14-2 16-3 15-4 32-2 17-2 16-1 17-1 15v25l1 10 3 8 3 6 3 4 4 2 5 1 12-2 7-3 8-4 8-5 16-14 9-9 8-10 7-11 14-27" style="clip-to-self:true;comp-op:src"/>
<path transform="scale(.1)" d="m5447.5 5712.5-3 1-6 1h-3l2-3 5-4 4-3 5-4 5-3 7-4 8-4 8-5 10-4 11-5 11-4 12-5 12-4 13-5 24-10 11-5 22-8" style="clip-to-self:true;comp-op:src"/>
<path transform="scale(.1)" d="m5969.7 5717.2 2-5 2-4 2-6 2-5 2-6 1-7 1-5v-11l-1-5-2-5-1-3-3-4-3-3-4-1-4-2-5-1h-6l-5 1-7 2-7 3-7 5-7 4-7 6-15 15-6 8-7 10-10 18-4 10-3 11-2 20 1 10 2 9 4 8 5 8 6 6 8 4 8 3 9 3h11 11 11l12-2 25-6 13-3 13-5 13-4 13-6 12-6 13-6 11-8 11-7 10-7 16-16 6-8 5-8 4-8 3-8 1-7 1-6-1-5-2-5-2-4-8-4-5-1h-5l-6 2-7 2-6 3-8 5-7 5-7 6-7 7-6 8-7 7-6 9-5 8-4 9-5 10-6 18-2 9-2 16 1 7 1 6 1 5 2 4 3 2 2 2h4 3l4-1 4-2 4-3 5-3 9-9 5-6 4-6 5-6 5-7 4-7 5-7 4-8 4-6 8-14 4-5 3-5 3-4 2-3 3-2 4 4v3l1 4v5l1 5v6 7l1 7v7 8l1 7v7l1 7 1 6 1 5 2 8 2 3 5-1 3-6 3-4 2-5 2-6 6-14 2-8 3-9 4-8 3-8 8-18 4-8 4-7 4-6 4-5 3-3 3-2 4 1 4 5v4l1 5 1 6v7l1 8v33 7l1 7v6l2 5 1 4 2 3 3 3 5-2 9-9 3-6 5-5 3-7 5-7 4-7 5-7 4-7 5-8 5-7 5-8 6-7 5-7 14-14 5-1h3l5 3 2 5 1 5 1 8v8 11l-1 11-1 12-1 14-1 13-2 14v14l-1 13v11l1 11 2 10 2 8 3 6 3 5 5 2h5l16-5" style="clip-to-self:true;comp-op:src"/>
<path transform="scale(.1)" d="m6661.6 5532.5v-4l2 5v18l-1 8v9 10l-1 11v12l-2 13-1 14-4 29-4 30-5 29-3 15-2 13-2 12-1 12-2 9v8l-1 6v7l3-4 2-4 2-5 3-6 6-14 9-15 5-8 6-9 21-24 8-8 8-7 9-6 8-5 9-3 16-4 7 1 6 1 6 2 6 4 4 4 6 12 2 14v8l-2 8-6 18-5 9-5 8-6 9-7 8-8 7-7 7-9 6-7 4-8 3-7 3-7 1h-6l-6-1-5-2-4-3-4-4-4-10-1-7 1-7 2-8 2-9 4-9 12-20" style="clip-to-self:true;comp-op:src"/>
<path transform="scale(.1)" d="m6794.4 5721.9 7 7 1 3 4 4 2 4 4 4 4 3 5 2 6 2 6 1 12-1 7-3 7-2 8-4 7-4 7-5 21-18 5-7 8-14 3-7 2-9 1-8v-7l-1-7-2-7-4-4-4-3-6-3h-7l-8 2-8 3-9 5-9 7-10 8-10 9-11 10-9 12-10 12-8 12-9 13-6 14-6 13-4 13-3 13-1 11 1 11 2 8 4 7 6 6 7 3 9 3 10 2h11 12l24-6 14-4 12-5 13-7 28-21" style="clip-to-self:true;comp-op:src"/>
<path transform="scale(.1)" d="m7270.6 5712.5-4-5-2-3-9-6-4-1-8-1-8 2-4 2-5 3-5 4-6 5-6 6-7 8-6 8-7 9-7 10-6 10-6 11-5 12-5 11-3 10-2 10-2 9v8l4 12 4 3 5 3 5 2h6 7l8-2 8-3 9-3 8-5 9-5 9-6 8-7 8-8 8-9 8-10 7-10 8-12 7-13 8-13 7-14 7-15 12-32 6-17 10-36 6-18 4-18 5-16 3-15 3-14 2-9 1-8 1-5-2-3-3 5-2 5-3 8-3 9-3 10-3 12-8 28-4 16-3 17-3 16-3 18-2 16-2 17-1 17-1 16v15l1 15 2 13 2 11 4 10 4 8 4 6 5 5 6 2 5 2 5 1 6-1 5-2 6-2 5-4 6-5 6-7 5-7 6-8 6-9 6-10 6-11 6-10 10-22 4-10 8-18 2-8 4-10v-3 3l-1 4-1 5-1 6-1 7-2 7-2 17v8l-1 8v9l2 16 2 7 3 6 2 6 8 8 10 4 6 1h6l5-2 12-6 8-10 7-15" style="clip-to-self:true;comp-op:src"/>
<path transform="scale(.1)" d="m7467.8 5623.4-2-4v-3-4l8-2h4l5-1 4-1" style="clip-to-self:true;comp-op:src"/>
<path transform="scale(.1)" d="m7718.4 5457.2-2-4-3-4-7-7-4-1-4 1-5 2-3 4-4 5-4 7-2 8-3 9-3 10-6 22-6 26-3 15-3 16-3 17-6 38-3 21-3 20-3 22-3 23-3 22-6 48-6 46-3 22-3 19-2 17-3 13-1 12-2 9-1 8-2 6-1 6-1 3-2 4-1-6-1-5-2-17" style="clip-to-self:true;comp-op:src"/>
<path transform="scale(.1)" d="m7556.9 5755.6v-4l1-4 2-4 2-5 3-4 4-3 4-4 6-3 7-3 14-8 16-10 24-18 8-7 9-7 9-8 10-8 20-18 34-34 12-11 24-24 10-11 9-9 7-9 6-8 4-6 2-5 1-5 1-4-1-3-3-2h-6l-4 1-4 2-10 6-12 10-6 6-7 8-5 8-12 20-5 11-6 13-5 14-5 15-5 17-3 17-4 17-3 18-2 18-3 19-2 19-1 19-1 20-1 19-2 34v15l-1 13v13l-1 11-1 10-1 9-1 8-1 6-2 6-2 4-1 4-3 4-3 1-5-4-2-2-3-4-3-5-12-24" style="clip-to-self:true;comp-op:src"/>
<path transform="scale(.1)" d="m7603.8 5791.6v-4l1-4 1-5 2-5 3-4 4-3 5-4 12-6 8-5 9-4 9-5 10-5 9-5 11-5 11-6 11-5 12-5 23-10 11-4 10-5 9-2 8-3 7-2 10-2 3-1h3l1 4-2 5-2 4-2 5-3 6-6 16-4 9-3 10-4 11-4 12-6 24-2 12-1 11-2 11v9 8l1 8 1 6 2 5 3 4 3 2 2 2 4 1h4l3-1 8-6 4-5 11-18" style="clip-to-self:true;comp-op:src"/>
<path transform="scale(.1)" d="m7832.2 5635.3v-3-17l-1-4-2-4-3 1-4 3-2 6-1 4-1 5v5l-1 5v5l1 5 1 4 1 5 2 3 4 3 3 2 4 2 10 2 10-2 6-1 5-2 6-3 5-3 4-5 3-4 4-6 2-6v-6l1-7-1-6-1-7-2-6-3-6-3-5-5-4-4-3-6-3h-6-7l-7 2-14 8-8 6-7 6-18 21-10 21" style="clip-to-self:true;comp-op:src"/>
<path transform="scale(.1)" d="m7960.9 5683.1 1-5 1-4 2-5 2-4 1-4v-3l1-3-1-3-3-2-5 2-3 4-4 3-5 5-10 14-6 8-7 10-6 11-11 23-5 12-5 13-3 14-2 13v12 11l6 18 5 6 6 5 7 4 8 1 9 1 10-1 11-2 11-4 11-5 12-6 11-8 11-9 24-25" style="clip-to-self:true;comp-op:src"/>
<path transform="scale(.1)" d="m8062.5 5705.6v-11 3l-1 3-1 4-1 5-1 6-3 8-1 8-2 9-1 10-1 9v11 10l1 10 1 9 2 9 4 7 3 7 4 6 4 5 5 4 5 3 6 1 6 2h6 6l6-1 12-4 6-3 6-4 5-4 8-10 8-14 3-9 3-8 4-19 6-33 1-13 1-11 1-12 2-11 1-11 2-9v-7l1-5v-4l-1 5v6 7l-1 8-1 9-1 10v10l-1 10v10l1 10 1 11v10l2 10v9l2 9 1 9 1 7 3 6 2 5 3 3 3 2h5l7-4" style="clip-to-self:true;comp-op:src"/>
<path transform="scale(.1)" d="m8316.6 5513.8v-20l-1-6-1-5-1-3-3-4-3 1-4 6-4 14-2 8-3 9-3 11-1 12-4 26-4 32-1 18-2 17-1 18-2 19-1 18v17 17l2 32 2 15 2 13 3 12 3 11 4 8 3 8 3 5 4 5 4 2 3 1 5-1 3-2 4-9" style="clip-to-self:true;comp-op:src"/>
<path transform="scale(.1)" d="m8429.7 5523.8v-4 10 7l-1 8-1 10-4 24-2 15-9 48-6 34-2 17-3 18-2 17-2 32v16 13l1 12 2 11 2 8 4 6 3 5 4 3 4 2 4 1 10-4 5-4 5-5 4-7 9-21" style="clip-to-self:true;comp-op:src"/>
<path transform="scale(.1)" d="m8349.7 5702.2-3-1 1-3 9-6 4-2 10-6 7-2 7-4 18-6 10-4 12-3 22-6 12-2 11-3 9-2 9-3 7-2 10-3" style="clip-to-self:true;comp-op:src"/>
<path transform="scale(.1)" d="m5144.7 6092.8v-10l-1-3-3 3-2 4-2 5-3 7-4 9-3 10-3 14-4 15-4 17-4 18-6 38-3 18-2 19-3 18-1 18v17 16l2 14 3 12 3 10 5 8 5 7 6 4 14 4 7-1 8-1 16-6 7-5 8-4 7-7 5-7 4-7 7-20" style="clip-to-self:true;comp-op:src"/>
<path transform="scale(.1)" d="m5080.3 6270.3 3-4 5-5 4-3 6-3 5-5 7-4 8-5 9-5 9-6 10-7 11-6 11-7 11-6 12-7 11-6 10-6 18-9 8-3 4-2h5l3 1 3 6v4l-1 7-2 7-2 9-4 9-4 11-7 22-3 10-6 22-1 10-1 9v9 7l2 7 2 5 3 5 3 3 4 3 5 1h5 5l6-1 12-4 7-4 6-3 6-5 5-5 4-6 3-6 2-6 2-7v-7l-2-7-4-16-4-9-9-18-4-9-10-16-11-11-6-3-5-3h-5-6l-4 2-4 4-3 4-3 5-1 5-1 6v6 6l7 13" style="clip-to-self:true;comp-op:src"/>
<path transform="scale(.1)" d="m5548.4 6155 1-3 3-6 2-3 2-2 3-2 4-1h4 4l5 1 5 2 4 3 5 4 3 6 5 7 3 8 4 20v11 12 11l-6 36-6 22-3 10-3 9-10 20-3 5-2 3-5 2-4-1-2-4-1-4v-4l1-6 4-14 3-9 4-9 16-32 7-12 7-13 8-14 8-15 10-15 9-15 9-13 8-12 8-9 8-6 6-4 4-1 4 2 2 3 1 5v7l-1 9-1 10-2 10-3 11-2 10-8 25" style="clip-to-self:true;comp-op:src"/>
<path transform="scale(.1)" d="m5683.8 6247.8h10l6-1h3l4-1 15-6 7-2 8-4 7-3 7-5 8-5 6-6 7-5 12-12 4-7 3-7 3-6 2-8v-8-6l-2-7-2-6-3-5-4-3-4-2h-6l-6 1-14 8-8 7-9 9-9 10-8 11-8 13-8 12-6 14-6 13-5 13-3 13-2 13-1 12v11l2 10 3 9 5 8 5 6 7 4 8 3 10 1h11l11-1 12-2 12-3 13-4 25-10 12-5 11-7 11-6 18-16 16-24" style="clip-to-self:true;comp-op:src"/>
<path transform="scale(.1)" d="m5886.9 6147.2-4 2v3l-1 4v5 5 6l-1 7v7 6l-1 8-1 7v8l-1 8v7l-1 8v8l-2 14v7l-1 6v18l3-9 2-10 2-5 4-12 6-14 3-8 8-15 5-8 4-8 6-7 5-7 5-6 5-4 4-4 4-2h5l5 6 1 4 1 5 1 6 1 7v8l-1 7v8l-1 9-1 8-3 16-1 6-1 7-1 5-1 4v4 3l3-3 2-3 3-4 2-6 8-12 4-7 15-24 5-9 6-9 12-20 6-9 5-9 6-7 10-10 4-2 3-1 4 3 1 4 1 5v14 8l-1 8-1 10v10l-1 9v9 9l1 8 2 9 2 6 2 7 3 5 2 4 4 2 9 1" style="clip-to-self:true;comp-op:src"/>
<path transform="scale(.1)" d="m6145.6 6249.4 3 3h5 4l4-1 6-2 6-1 6-2 7-3 6-3 14-8 12-10 6-6 4-5 5-6 3-7 3-6 1-6v-6-6l-2-5-3-4-4-3-4-2-6-1h-6l-8 1-7 2-8 5-7 5-8 6-14 14-6 9-10 18-3 10-3 9-3 10-1 9v9l1 7 3 7 3 6 5 5 12 6 8 2 8 1h9 8l10-2 9-2 9-3 9-2 10-4 8-4 9-4 8-5 14-11 6-6 5-7 6-8 4-7 4-8 6-18 2-10 4-18v-7l1-6v-5l-1-3-3 2-2 5-1 6-2 7-2 8-6 27v9l-1 8-1 9-1 8v14l1 6v5l2 8 2 5 5 1 8-8 2-4 3-4 4-6 2-5 8-12 3-7 4-7 5-8 4-8 6-8 5-9 6-8 5-7 6-7 9-9 4-2 5 1 2 2 2 10v6 15 9l-1 9-1 8v8l-1 8v13l1 6 1 5 1 4 2 3 4 4 5-1 3-1 6-6 3-4 4-6 3-5 4-6 12-21 9-16 4-9 5-8 6-9 5-8 5-7 4-6 5-5 3-2 4-1 4 4 1 5 2 14 1 8v9 10l1 10 1 9 1 10 2 9 3 9 4 8 3 7 5 7 5 5 5 3 6 2 5 1 15-2" style="clip-to-self:true;comp-op:src"/>
<path transform="scale(.1)" d="m6668.8 6034.4-5 4-1 4-2 5-8 24-2 10-3 11-4 12-4 13-6 28-4 14-2 14-3 14-2 12-1 12-1 11-1 8 1 8v5l1 4 3 5 4-1 4-2 12-12 5-6 6-8 6-7 7-8 7-10 8-10 7-9 16-20 7-9 8-7 7-6 6-4 6-2h6l3 1 4 3 3 5 1 6 1 7v8 9l-1 10-3 10-3 11-4 10-3 10-5 10-10 18-5 8-6 8-5 7-6 5-5 5-4 2-4 3-3 1-5-1-3-5-2-4v-4l-1-6 1-5v-7l4-14 2-9 3-9 10-22" style="clip-to-self:true;comp-op:src"/>
<path transform="scale(.1)" d="m6809.7 6170.3 2 4 3 4 3 3 3 1h4l4-4 3-2 3-4 4-3 4-5 4-4 4-6 3-6 2-5 3-6 1-6 1-5v-5-4l-2-4-5-3-3-1-8 4-5 4-6 6-5 7-6 9-4 10-5 11-8 22-4 22-1 10 1 9 1 8 3 8 3 6 4 6 6 4 6 3 6 2 8 1h8l7-1 9-2 8-3 8-4 7-5 8-6 12-12 5-7 5-8 4-8 8-17 3-8 8-16 2-6 3-6 3-4 3-2h4l4 6 1 5 1 6 1 7 1 9v18l-1 10-1 11-2 10-1 9-2 10-2 9-6 24-4 12-2 4-2 3-3 3-3-1-2-5-1-4 1-5v-6l4-14 3-9 4-8 5-9 7-10 7-11 8-12 10-13 11-13 11-14 12-14 24-24 12-10 11-8 9-4 8-3 7-1h4l3 3 1 3-1 5-3 6-11 18" style="clip-to-self:true;comp-op:src"/>
<path transform="scale(.1)" d="m7195.6 6019.4h5l5 1 7 1 9 3 16 8 10 6 8 7 9 7 17 17 7 10 8 11 6 12 6 13 5 14 4 16 2 16 1 18-1 18-3 18-4 18-6 19-7 18-8 18-9 19-30 51-22 30-12 14-11 13-12 10-13 9-13 7-12 5-32 7" style="clip-to-self:true;comp-op:src"/>
</g>
</g>
</g>
</svg>
