<?xml version="1.0" encoding="UTF-8"?>
<svg width="1e3pt" height="800pt" version="1.2" viewBox="0 0 1e3 800" xmlns="http://www.w3.org/2000/svg">
<g id="surface100">
<rect width="1e3" height="800" fill="#20282d"/>
<g fill="none" stroke-linecap="round" stroke-linejoin="round" stroke-miterlimit="10">
<g stroke="#fff">
<g stroke-width="14.1">
<path transform="scale(.1)" d="m2747.5 430.94-1-3-1-6-3-3-4-1-7 14-2 5-1 6-2 16-1 10-1 12-1 15-2 16v18l-2 40v20l-1 19v18l-1 17v15l1 14v12l1 12 2 9 2 8 2 6 3 5 3 4 4 4 4 2 5 2 6 1h7l7-1 8-1 18-4 10-3 10-2 30-9 9-3 8-3 8-2 7-2 7-1 10-2h7l4 1 3 1" style="clip-to-self:true;comp-op:src"/>
<path transform="scale(.1)" d="m3054.7 633.44 1-3v-3l1-5v-8-3l-1-3-1-4-1-3-2-3-1-3-4-3-3-1h-4l-3 1-5 3-4 3-6 4-6 6-7 8-7 9-7 10-14 24-6 13-7 13-6 14-4 15-5 14-3 14-3 13-2 13-1 10v8l1 8 2 5 2 3 3 2h4l5-2 6-3 6-4 20-20 8-9 7-10 6-10 12-22 10-22 4-11 4-10 3-9 3-7 2-6 2-4 2-3-1 4v5l-1 6-1 7-1 8v8 30 10l3 30 1 9 1 10 2 9 2 8 2 7 3 5 3 4 4 2 4 1h4l5-2 4-3 5-4 4-6 5-6 4-8 9-22" style="clip-to-self:true;comp-op:src"/>
<path transform="scale(.1)" d="m3166.6 627.5 1 4 1 5 1 3 1 5v17l-1 7-2 16v9 8 9 8 8l1 8 2 8 1 7 1 6 2 5 2 4 2 3 5 2 6-2 2-2 3-4 4-4 3-6 4-6 3-7 3-8 3-9 2-8 2-10 5-18 3-8 2-8 2-7 4-10 2-4 3 4 1 4v5l1 7v8l1 8 2 17 1 9 6 27 2 8 4 8 3 7 4 7 3 4 5 4 5 2h4 6l5-2 5-3 6-4 11-11 5-8 8-16 3-9 3-10 2-11 2-12 1-11 2-26v-14l2-28v-13l1-12 1-10v-7l1-5v-3 6 5l-1 8v9l-3 30-1 28" style="clip-to-self:true;comp-op:src"/>
<path transform="scale(.1)" d="m3879.1 587.19-6-4h-4l-5 3-3 2-12 12-5 7-5 6-5 8-5 9-4 8-4 9-3 8-2 9-2 10-1 9v9 8l1 8 2 7 3 7 4 5 4 4 5 3 7 2 6 2h7 8l16-4 7-2 8-3 7-3 7-4 6-5 10-10 4-6 3-6 2-6 1-7 1-8v-8-9l-2-18-4-18-2-8-4-6-3-5-5-4-4-2h-5l-6 1-5 3-7 3-5 4-10 10-3 4-3 5-2 4 3 9" style="clip-to-self:true;comp-op:src"/>
<path transform="scale(.1)" d="m4097.5 430.31v-2-7-3l-3-7-3-4-4-4-5-2-3-1-6-1-4 1-3 1-8 6-3 4-4 5-4 6-2 9-4 9-2 10-2 12-3 12-2 15-1 15-2 16-4 36-2 36-1 17v16 15l1 14v13l2 12 1 11 1 10 2 9 1 9 1 7v7 6 6 5l-1 5-2 8-4 6-3 2-5 2-6-1-8-4-11-7" style="clip-to-self:true;comp-op:src"/>
<path transform="scale(.1)" d="m3976.2 641.25 4-4 3-4 6-4 4-3 10-7 6-5 6-3 22-13 8-4 6-4 7-3 6-4 5-3 10-5" style="clip-to-self:true;comp-op:src"/>
<path transform="scale(.1)" d="m4546.2 465v-5l-1-4 1 3 1 4v5 6 8l-1 10v11l-1 13-1 15-2 34v18l-1 19v18 17 17l2 28 2 12 2 11 1 8 3 8 2 6 3 5 2 3 3 2h5l7-5" style="clip-to-self:true;comp-op:src"/>
<path transform="scale(.1)" d="m4742.8 612.81-3-2h-4l-5-2h-5l-12 2-5 2-6 2-10 6-5 4-5 5-4 5-5 6-12 21-7 16-6 24v8 8l1 7 2 6 2 5 4 5 3 2 5 2 5 1h4l6-1 5-2 6-3 12-8 12-12 5-6 6-7 5-8 8-18 4-10 4-12 4-13 3-15 4-17 3-17 3-19 3-18 2-19 3-17 2-16 2-13 1-11v-8l-1-6-1-4-3-1-5 7-3 6-3 8-3 10-4 11-3 13-2 14-3 15-1 16-2 17v16 15 16l2 14 2 13 3 12 3 10 4 9 4 8 6 7 12 10 7 3 7 2 6 1h7l5-1 15-5" style="clip-to-self:true;comp-op:src"/>
<path transform="scale(.1)" d="m4855.3 671.56-2 2 1 4 3 1 5 1 6-1 4-1 13-6 4-3 5-4 4-3 10-10 4-5 6-10 3-6 1-5 2-6v-6-4-5l-2-3-1-3-3-2-4-1h-4l-4 2-6 4-5 4-6 5-5 7-10 16-7 18-4 10-2 9-1 9-2 8v8l1 6 1 7 2 6 3 4 4 4 4 3 6 2h6 7 7l16-4 9-3 8-4 10-4 8-5 9-5 8-5 8-7 7-8 6-7 12-16 6-9 5-9 4-9 3-7 4-7 2-6 2-3 1-3-4 6-2 5-4 12-2 7-4 16-1 8-1 7v15l2 12 1 5 2 4 5 6 6 2h3 4l8-4 4-4 4-3 8-10 8-12 4-7 10-20 3-7 3-6 3-5 2-3 3-3 2 4 1 4v5 5l2 12 1 7 2 7 2 6 6 12 4 6 4 5 5 5 6 3 5 3 12 4h6l18-6 5-3 13-11" style="clip-to-self:true;comp-op:src"/>
<path transform="scale(.1)" d="m5232.2 450.62v-10-5l-1-4-4-1-2 6-1 5-1 6-1 7-1 9-2 10-1 10v12l-1 12v28l1 15v16l2 15 2 32 2 15 2 14 3 13 3 12 4 10 4 8 8 12 9 9 4 1 5 2h3l3-1 5-4v-8" style="clip-to-self:true;comp-op:src"/>
<path transform="scale(.1)" d="m5162.8 630 2-3 5-5 9-5 6-4 7-3 8-5 8-4 27-15 10-5 11-4 20-8 20-4 9-2h8l8 1 7 1 5 2 5 4 4 5 4 6 2 6 4 18 1 9 2 22 1 10v10l2 10v9l2 9 1 7 3 7 2 6 2 5 3 3 2 3 3 2 5-1 3-2 2-3 2-12" style="clip-to-self:true;comp-op:src"/>
<path transform="scale(.1)" d="m5369.7 513.44-2 3-1 4v6 3l2 6 4 6 3 2 3 3 6 2 4 1h4l8-2 6-4 3-3 3-4 2-3 1-5 1-3v-5l-1-4-1-5-3-9-3-3-2-3-4-3-2-2h-4-4l-4 1-3 1-8 6-8 11" style="clip-to-self:true;comp-op:src"/>
<path transform="scale(.1)" d="m5519.1 458.44v-23l-2 6-1 5-1 8-2 9-1 11-3 12-1 14-2 15-3 17-2 17-2 19-1 20-2 19-1 19-1 18-1 17 1 15 1 14 2 13 2 10 4 8 4 6 5 5 5 2 6 1h7l7-1 7-3 8-4 8-5 8-6 14-16 7-9 12-20 6-11 4-11 4-10 3-9 2-8 2-7v-4-3l-4 1-3 3-6 12-2 8-3 9-2 9-2 10-2 9v9 10l2 16 2 7 4 7 3 5 4 4 5 3 6 2 7 1 6-1 8-1 7-3 9-3 8-4 8-5 8-6 7-7 12-14 6-8 8-16 4-7 4-6 2-5 2-4 2-3v3l-1 4-1 5v5l-2 14v8 10l-1 10v10 26 14l1 15v15l1 16 2 16 2 30 2 15 1 14 1 13 1 15v12 13 12 11l-2 10-1 8-3 8-3 6-4 5-10 8-12 4h-6-6l-7-1-6-2-6-3-6-4-5-6-4-6-3-7-3-9-1-9-2-22 1-11 1-13 2-12 2-14 8-30 5-16 5-17 6-15 13-38" style="clip-to-self:true;comp-op:src"/>
<path transform="scale(.1)" d="m5495 594.69 2-3 2-4 3-3 5-4 5-3 7-3 8-4 8-2 21-7 12-2 13-2 13-3 14-3 13-2 14-4 13-3 12-4 24-7" style="clip-to-self:true;comp-op:src"/>
<path transform="scale(.1)" d="m6067.8 440.31v-4l1-4v-3l1-3v5 4l-1 5-1 7-2 9-2 10-3 11-3 13-4 14-3 15-4 17-4 18-3 18-1 19-1 18v18l2 16 3 16 4 13 5 12 6 10 8 7 8 6 9 4 10 3 10 1h10l9-1 10-2 9-2 7-3 8-3 10-8 7-14" style="clip-to-self:true;comp-op:src"/>
<path transform="scale(.1)" d="m6045.6 477.5-1-4v-7l1-5 2-4 4-3 6-4 6-5 8-4 8-5 18-11 10-5 9-3 8-4 7-2 8-2 12-2 4 1 2 1v9" style="clip-to-self:true;comp-op:src"/>
<path transform="scale(.1)" d="m6033.8 553.44-3 5-3 3 6-1 3-2 5-2 5-3 6-2 7-2 7-3 21-6 6-2 6-3 5-2 10-6" style="clip-to-self:true;comp-op:src"/>
<path transform="scale(.1)" d="m6246.2 444.69 1-5v-11l-2-4-3 2-3 6-2 5-2 7-3 7-3 9-2 10-3 10-6 26-2 15-3 16-2 17-3 35-1 17v17 15l1 14 2 12 2 11 4 9 3 7 5 7 6 4 6 3 7 1h8l9-1 9-2 9-4 10-4 10-6 18-12 8-8 8-9 12-20 6-11 4-12 5-11 3-12 2-9 1-9-1-8-1-5-2-4-3-3h-4l-5 1-5 2-5 3-5 6-6 6-5 7-5 9-8 20-4 9-2 11-2 10-1 9v10l1 8 2 9 8 14 4 6 12 8 6 3 7 1h7 8l19-5" style="clip-to-self:true;comp-op:src"/>
<path transform="scale(.1)" d="m6450.9 591.88-2-4-3 3-2 5-2 4v4l-2 5-1 7-1 6-2 8-4 18v9l-2 18-1 10v9 8 8l1 8 1 7 1 5 1 4 2 4 3 2 4-2 6-6 6-10 2-7 3-7 2-7 2-9 4-16 2-9 3-9 3-10 3-8 2-8 3-6 2-5 2-3 4-3 5 5 2 5 1 5 1 6 2 6 1 7 2 8 2 7 1 8 6 21 1 6 2 6 2 10 2 3 1 3 3 4h3l4-3 2-4 3-3 2-4 3-5 4-5 4-6 3-6 5-7 6-8 5-8 7-9 6-9 6-8 7-8 6-5 5-5 5-3 3-1 6 1 2 3v5l2 5v7 7 34l2 16 1 7 4 12 3 4 3 3 4 1h4l3-1 11-6" style="clip-to-self:true;comp-op:src"/>
<path transform="scale(.1)" d="m6689.7 640.62-2 3-2 6v3 4l1 4 1 3v3l2 3 5 4 3 2 8 2h6 5l12-2 7-2 6-2 7-3 6-3 5-4 6-4 8-8 3-5 2-6 1-6 1-5-1-7-1-5-2-6-6-8-5-2-5-1h-6l-6 2-7 3-6 4-6 5-6 6-5 7-6 7-8 16-3 9-3 8-2 8-1 8v8 7l2 5 1 6 4 5 3 4 5 4 4 2 12 4h6 7l8-2 7-1 8-2 7-4 8-3 6-4 7-4 7-5 5-5 5-6 4-7 5-6 9-24 2-9 3-8 4-14 3-5 1-4 2-3 1-3 2 4 1 4v4l1 6v36 9l1 7v7l1 7 2 12 3 12 2 3 4 1 3-4 3-3 6-8 6-10 8-12 10-12 5-7 6-8 6-7 7-7 7-6 6-5 6-4 5-4 5-1 4-1h4l4 4 2 4v4l2 12v7 6l1 7v7l1 7 2 12 2 5 1 4 2 4 2 3 4 1 7-3" style="clip-to-self:true;comp-op:src"/>
<path transform="scale(.1)" d="m7066.6 442.81v-5-14-3l-2 4-2 8-2 6-1 7-2 9-1 9-1 11-2 24-2 15-1 16-2 36-1 19v19 18 18l2 17 1 16 2 15 3 12 2 12 3 10 4 7 3 6 4 5 3 3 3 2 3 1 2-1 4-5 1-11" style="clip-to-self:true;comp-op:src"/>
<path transform="scale(.1)" d="m6996.6 583.44 1-4 1-2 6-5 4-1 5-2 7-1 7-2 8-2 9-2 11-1 22-4 13-2 14-2 13-1 14-1 13-2 12-1 10-1 8-2 5-2 2-5" style="clip-to-self:true;comp-op:src"/>
</g>
<path d="m275.38 92.031h276.94" stroke-width="1.41" style="clip-to-self:true;comp-op:src"/>
<path d="m586.03 86.375 122.47-1.3438" stroke-width="1.41" style="clip-to-self:true;comp-op:src"/>
<g stroke-width="14.1">
<path transform="scale(.1)" d="m3905.9 1612.8-1-4-3 3v3 5 5l-1 7v8 9l-1 11v12l-1 13v14 16l-1 16v17l-1 19-2 36-2 19-2 36-2 18-1 16v16l-1 14-1 13-1 12-1 10v9 9l-1 7v6 4l-1 3v3l-3-9v-4l-1-5v-5l-1-6-1-7-1-8-1-7-1-8-1-9v-9l-1-9-1-10v-11l-1-12v-12l1-13v-14l1-14 2-14 2-15 3-28 3-14 9-39 8-24 8-20 5-9 4-7 5-6 5-5 5-4 6-3 10-4 6-1 5-1h5l4 1 5 2 4 3 3 3 3 6 3 5 2 16-1 10v10l-4 20-2 11-3 10-4 9-4 10-5 8-4 7-6 7-5 7-10 10-10 6-5 2-5 1-4 1-3 1-4-1-3-1-4-3-1-6v-4l1-9" style="clip-to-self:true;comp-op:src"/>
<path transform="scale(.1)" d="m4430 1644.7-1-3-4-2h-23l-7 1-8 1h-9l-10 1-10 2-11 1-12 2-11 2-25 4-13 3-14 2-14 3-15 4-28 6-12 4-11 3-10 4-8 2-6 3-4 1-2 3 8 4 6 1 16 2 10 1 12 1 13 1 13 2 14 1 15 2 14 1 14 2 15 2 13 1 13 3 24 4 20 6 14 8 6 4 4 4 3 5 2 5 1 4-2 10-2 4-3 5-4 4-10 8-12 8-7 3-8 4-16 6-9 3-27 6-20 4-30 3-22 2-10 1h-9-17-7l-12-2-4-2-3-1-4-5 1-5 4-8 3-4 11-12" style="clip-to-self:true;comp-op:src"/>
<path transform="scale(.1)" d="m4338.8 1553.1v-5-4-4l1 6v10l-1 8-1 10-1 12-2 13-2 16-2 18-3 19-3 21-8 64-3 21-2 21-3 21-1 19-2 19-1 16-1 15-1 14v22l1 8 1 7 1 5 1 4 4 4h4l5-5 2-3 7-11" style="clip-to-self:true;comp-op:src"/>
<path transform="scale(.1)" d="m4678.1 1650.9-4-1-5 2-5 5-6 10-2 6-3 8-2 7-3 9-6 27-1 9v9 8 8l1 8 2 7 6 14 3 5 9 9 5 3 10 4 5 1h6 6l5-1 6-2 5-2 5-3 11-11" style="clip-to-self:true;comp-op:src"/>
<path transform="scale(.1)" d="m4696.2 1514.7h-4-4l-10 2-4 2-4 3-6 6-2 4-1 4v5 4 5l1 4 2 5 6 8 4 3 8 4 10 2h6 5l5-1 5-2 5-1 9-6 1-3 2-5-2-5-1-4-2-3-3-3-6-8-4-3-7-7-4-3-8-4-3-1h-4-4l-3 1-6 4-2 4-3 3-3 12" style="clip-to-self:true;comp-op:src"/>
<path transform="scale(.1)" d="m4885.6 1699.7 3-5 5-2 4-2 10-2 14-4 17-4 18-4 10-2 18-2 16-2h7l6-1h4 3" style="clip-to-self:true;comp-op:src"/>
<path transform="scale(.1)" d="m4894.7 1759.7 2 2h5l4-1 5-1 12-2 8-2 18-4 10-3 33-6 13-1 33-6 9-1 21-3" style="clip-to-self:true;comp-op:src"/>
<path transform="scale(.1)" d="m5329.1 1588.4v4l-1 3v6l-1 7-1 9-2 11-2 12-2 13-1 14-2 15-1 15-4 30-3 46-1 15v16l-1 15v15 43 12 11l1 10v7 7l1 5 1 3 5-3" style="clip-to-self:true;comp-op:src"/>
<path transform="scale(.1)" d="m5275.3 1659.4 6-12 3-8 6-8 5-6 14-10 8-4 16-6 9-3 8-1 8-2h15l7 2 12 4 4 5 3 4 2 7 1 7v9l-1 9-2 10-4 11-3 11-5 10-6 11-5 10-14 16-13 13-14 8-6 3-6 2-5 1-6-1-5-1-14-6" style="clip-to-self:true;comp-op:src"/>
</g>
</g>
<g stroke="#ff0" stroke-width="14.1">
<path transform="scale(.1)" d="m6915.9 1379.4-4-2-7-5-3-1-15-3h-7-7-8l-18 4-10 2-21 7-11 5-12 4-20 10-9 5-8 5-6 4-3 5-2 4v5l2 4 3 4 20 10 18 4 10 2 11 2 10 2 12 2 10 3 11 2 9 2 10 3 16 8 6 4 5 4 4 4 4 10v4l-2 8-6 8-5 4-5 3-7 3-7 4-7 3-9 3-8 2-18 4-9 1-9 2-9 1-20 2h-9-10l-9 1-9-1h-8l-8-1-6-1h-5l-4-2-2-2-1-6 1-4 3-5 3-4 11-15" style="clip-to-self:true;comp-op:src"/>
<path transform="scale(.1)" d="m6818.1 1334.7v-4-4-9l-1-2v-4l1 3v3 4 4 6l1 8v8l-1 10v10l-1 11-1 12-2 14-1 14-2 15-2 16-2 18-2 17-2 18-1 18-2 17-1 16-1 15v14 13 13l1 11v9l1 9 1 6 1 5v4" style="clip-to-self:true;comp-op:src"/>
<path transform="scale(.1)" d="m7159.7 1409.4-5-3-4-1-4-2h-5-4-6l-6 2-6 1-7 2-6 4-7 3-7 5-7 6-5 6-6 8-6 9-4 9-6 18-1 10-1 9v8l1 9 1 6 3 7 3 4 4 4 5 2 6 2h6l6-2 8-2 8-3 8-4 9-6 16-12 14-16 6-8 6-7 4-8 3-8 3-7 5-15 1-4-1 4v3l-2 6-1 7-1 8-2 9-1 10-4 22-2 24-1 11-2 25v14l-1 13v14l-1 15-2 15v15l-2 15-2 12-2 11-2 9-2 8-3 7-4 6-3 5-4 4-4 3-5 2-4 2-5 1-9-2-5-1-5-3-4-3-5-4-3-5-4-5-4-14-2-9v-10-11l1-12 2-13 3-14 4-15 13-38" style="clip-to-self:true;comp-op:src"/>
<path transform="scale(.1)" d="m7215.3 1487.2 1 3 3 1h4l4-1 3-2 8-4 5-3 5-4 6-5 6-4 22-22 5-6 4-6 3-6 3-5 2-5 1-4v-4l-1-5-4-1-3 1-4 2-4 3-10 8-5 6-10 16-4 8-4 9-3 9-3 10-3 9-1 9-1 8v9l2 14 2 5 3 5 8 6 6 1 5 1 14-2 16-6 8-4 16-10 8-7 7-6 12-16 10-16 4-9 6-18 2-8 2-7 1-6 1-5 1-3-2 10v6l-1 6v8l-1 8v16l1 9v8l1 8 1 7 1 6 2 5 1 5 2 4 2 2 2 4 5-1 4-4 1-4 2-5 3-4 4-12 3-6 2-7 3-7 6-16 4-8 9-16 6-7 10-10 6-4 4-2 5-1 4-1 3 1 3 3 2 3 3 4 1 5 2 14v16l-2 18v9l-2 16v7l1 6v5l2 4 1 3 3 2 4-2" style="clip-to-self:true;comp-op:src"/>
<path transform="scale(.1)" d="m7560.6 1474.1 4-1 4-2 6-6 3-2 6-6 5-8 3-5 4-4 2-5 3-5 3-4 2-5 2-4 2-7v-3l-1-4-5-1-5 2-3 2-8 8-5 6-4 6-5 7-8 16-6 16-2 8-1 8-1 7v6l2 6 1 5 3 5 2 4 8 6 4 2 5 2 6 1h5l6-1 6-2 5-2 6-3 14-9" style="clip-to-self:true;comp-op:src"/>
<path transform="scale(.1)" d="m7667.2 1400.6h4l4 2 7 2 4 2 4 1 4 3 5 3 9 9 3 5 4 7 3 7 2 7 2 9 1 8v9 10 9l-1 8-2 9-2 7-1 6-2 6-1 4-4 8h-3l-1-4-1-3 1-4v-5l4-12 3-7 4-8 3-9 5-9 5-10 6-10 12-22 6-10 7-10 14-16 6-7 6-5 5-4 5-3 9-3" style="clip-to-self:true;comp-op:src"/>
<path transform="scale(.1)" d="m7867.8 1388.4-4 2-2 3-1 3-3 12v5l-2 12v6 21 8l1 8 1 7 2 7 1 6 4 12 3 4 2 4 2 2 4 2 4-3" style="clip-to-self:true;comp-op:src"/>
<path transform="scale(.1)" d="m7891.2 1288.8-3 1-2 2-4 8 1 4 2 4 3 2 5 1 10-4 3-3 2-3 3-3 2-5 4-12 1-5v-8l-2-10-2-3-1-4-2-3-6-6h-5l-2 1-3 3-3 2-3 4-4 10-3 6-2 6-3 18-1 14" style="clip-to-self:true;comp-op:src"/>
<path transform="scale(.1)" d="m8031.9 1364.1-4-1h-4l-3 1-9 6-4 3-4 4-12 15-4 6-4 7-7 14-2 7-2 8-1 7-1 8 2 14 6 14 4 5 6 6 6 3 14 6 9 1h9l9-1 9-2 8-3 9-3 7-5 16-12" style="clip-to-self:true;comp-op:src"/>
<path transform="scale(.1)" d="m8477.8 1366.9-3-2-5-1-7 2-3 2-5 2-4 4-6 5-6 7-6 6-6 9-7 8-7 10-6 9-10 20-4 10-2 10-1 9v8l2 8 2 7 3 5 5 4 4 3 6 2 7 1 7-1 6-2 7-3 8-4 7-5 14-12 5-6 5-7 4-7 3-7 2-8 1-8 1-9-1-9v-9l-4-19-2-8-3-8-3-6-4-4-4-3-5-1h-5l-5 1-5 2-6 5-9 9-4 6-3 6-2 7-1 7 1 6 1 5 5 10 4 4 4 3 13 5" style="clip-to-self:true;comp-op:src"/>
<path transform="scale(.1)" d="m8599.4 1376.9-1 3v3l-2 4-2 5-2 6-1 6-4 14-2 8-1 9-1 8-1 9v10l-1 9v11l1 10v11 13l1 12 1 27v64l-1 7v6l-1 5v4l-3 4-4 1-4-3-3-3-2-4-2-5-2-6-3-6-1-7-4-17-3-10-1-10-2-11-3-36 2-28 1-15 3-15 4-16 5-16 6-17 7-17 9-17 10-15 9-15 11-13 10-12 10-9 10-7 9-5 9-3 8-1 8 1 7 4 5 5 5 6 3 9 2 9v11l-1 10-3 11-3 12-5 11-12 22-7 10-8 10-8 9-9 9-8 7-14 10-7 4-5 2-4 1h-4l-3-4v-4l1-4 2-6 8-15" style="clip-to-self:true;comp-op:src"/>
<path transform="scale(.1)" d="m8730.3 1376.6-2 4-2 6-1 5 1 5 2 3 4 1h3 4l4-2 5-1 6-2 6-3 5-3 12-8 5-4 6-5 4-5 5-5 3-5 3-6 2-5 1-4v-5-3l-4-3h-3l-4 2-5 2-12 10-6 7-14 16-6 9-10 18-8 18-2 9-4 16v7l1 6 1 5 2 5 3 3 3 2 4 2h5 5l7-1 6-2 7-2 21-14 7-5 7-6 6-7 7-7 7-6 12-14 17-17 5-4 4-2 4-3h4 5l4 4 1 4 2 4 1 5v5 6l1 6v6l-1 7v7l-2 14-1 8-1 6-2 7-2 5-1 5-2 3-2 4-3 1-2-4-1-3v-4l-1-4v-6l1-6v-7l1-6 3-8 2-8 3-9 4-9 5-9 6-10 7-9 14-16 8-6 7-5 7-4 7-3 6-2 6-1h5 4l11 5" style="clip-to-self:true;comp-op:src"/>
<path transform="scale(.1)" d="m9040.9 1362.5-1-3-1-4-4-3h-6l-7 1-3 2-8 6-5 5-4 5-5 6-5 7-5 8-4 7-4 9-4 8-3 8-4 16-1 8v7l1 7v5l2 5 3 4 6 4 5 1 4-1 5-1 5-2 5-3 6-4 5-4 10-10 4-7 4-6 4-7 3-7 3-6 3-7 2-5 1-5 4-8 1 4v25 5l1 7 1 5 4 12 6 10 4 4 4 3 5 2 6 2 5 1 12-2 7-2 5-3 7-4 5-5 6-5 10-12 5-7 3-8 4-9 3-9 2-11 3-12 2-12 2-15 3-14 1-16 2-16 1-16 1-15 1-13v-11-9-7-5l-2-6-2 8-1 5-1 8v8l-2 22-1 13v14l-1 14v14l-2 28v14 59 10l2 14 1 6v3l1 4" style="clip-to-self:true;comp-op:src"/>
<path transform="scale(.1)" d="m9142.2 1367.5 3-3 3-2 2-1 5-2 4-2 12-4 5-2 6-3 7-2 12-5 7-1 6-2 6-1 6-2h6l5-1 8 2 3 1 2 3 2 7v4l-1 6-2 5-3 8-2 8-3 8-9 27-2 9-1 9-1 8 1 8 2 7 2 5 3 4 5 4 4 2 6 2 5 1 6-1 7-1 8-2 7-3 7-4 7-5 6-5 5-6 4-6 4-8 2-7 2-8v-9-9l-4-18-4-9-4-8-6-7-6-6-8-4-9-3-10-2h-9l-10 1-9 2-8 3-6 4-6 3-4 5-2 4-1 4v4l1 3 2 3 8 7" style="clip-to-self:true;comp-op:src"/>
<path transform="scale(.1)" d="m9358.1 1340.9 3-1 3-2h3l4-1h5l3 2 8 8 1 5 4 10v6l1 7v13l-1 8-2 14-2 7-1 7-2 6-1 6-2 4-1 4-2 3-2 4-4-2v-4-4l1-4 2-5 2-6 4-6 3-7 4-8 5-7 5-9 7-9 6-9 8-10 9-10 18-22 31-31 10-9 10-7 9-6 18-8" style="clip-to-self:true;comp-op:src"/>
<path transform="scale(.1)" d="m6817.2 1929.4-4-1-5 1-5 5-3 5-7 14-4 9-4 11-8 28-4 16-6 32-2 16-1 16-1 14 1 13 1 12 3 10 3 9 4 8 6 6 6 4 8 2h9l9-1 9-3 10-4 10-6 9-7 21-23" style="clip-to-self:true;comp-op:src"/>
<path transform="scale(.1)" d="m6788.1 1857.2-4 2-5 4-6 6-2 5-3 4-1 4-1 5-1 4v4l1 3 4 6 3 3 3 2 5 1h4 6l5-1 6-1 7-3 12-7 7-5 5-4 5-5 4-6 4-10 1-6v-5l-1-5-1-6-2-6-3-5-2-5-4-5-2-3-4-2-4-1-4 1-5 2-5 3-11 11-5 7-5 9-6 9-4 10-4 9-3 10-4 24" style="clip-to-self:true;comp-op:src"/>
<path transform="scale(.1)" d="m7152.2 1960.9-3-4-5-4-5-2-5 1-5 4-3 3-3 4-3 5-6 14-2 8-4 20-1 11v12 11l1 13 1 11 6 20 4 8 10 14 6 4 7 4 14 2 14-2 8-3 6-4 7-5 5-6 5-7 8-21" style="clip-to-self:true;comp-op:src"/>
<path transform="scale(.1)" d="m7160.3 1879.4-4-1-3-1-4-1-2 4 2 8 2 3 1 3 2 4 3 3 3 2 2 4 4 2 8 8" style="clip-to-self:true;comp-op:src"/>
<path transform="scale(.1)" d="m7379.7 1950.9-3-2-5-1h-4l-3 1-5 2-4 2-5 3-5 4-12 10-5 7-6 7-12 16-5 9-5 10-4 10-4 9-3 10-1 9-1 8v7 6l2 6 2 4 4 4 3 2 4 2 5 1h5l10-2 6-2 5-2 6-3 6-4 5-3 16-16 10-14 5-8 4-8 5-9 8-18 8-20 2-10 6-33 1-11 1-12v-12l1-12v-12-11-10-9l1-8v-6-3l-1 4-2 14-1 9-2 9-4 24-1 12-1 14-2 13-1 14v29l1 15 1 14 4 26 3 11 4 10 4 8 4 6 6 4 5 3 6 1h5 6l7-1 6-3 6-2 10-7" style="clip-to-self:true;comp-op:src"/>
<path transform="scale(.1)" d="m7483.8 2043.4 1 5 1 4 2 4 2 3 4 2 7-1 4-1 5-2 5-3 7-4 7-5 8-5 7-7 8-7 9-8 7-7 14-16 6-8 5-7 4-7 4-12 1-6v-3l-1-4-3-3-7 2-3 2-5 3-5 6-5 5-5 7-8 18-8 20-2 11-2 12-1 11v12 11 10l1 10 2 9 6 14 4 4 3 5 5 2 5 1 6 1h6l5-2 7-2 6-3 14-8 7-5 13-13 6-7 12-18 5-10 6-11 5-11 4-12 5-12 3-11 4-10 4-9 3-7 5-10 3-3v4 3 6l-1 6-1 7v9l-1 9-3 30-1 9v9 16 7l1 5 2 4 1 3 3 2 5-2 2-2 3-4 6-12 4-7 3-8 3-9 4-9 8-30 3-11 3-10 6-18 4-6 3-6 3-4 3-2h4l2 6 1 5 1 6 1 7v9l1 9 1 10 1 11 1 22 2 11 4 20 2 9 2 8 4 6 3 5 4 3 4 2 4 1 5-1 6-2 6-4 5-5 7-6 5-8 14-22" style="clip-to-self:true;comp-op:src"/>
<path transform="scale(.1)" d="m7902.2 1821.9 2-4v5l-1 5-1 6v8l-1 8-1 9-1 10-1 11v12l-1 12v13l-1 13-1 14v15l-1 15v34l1 16v15l2 14 1 12 2 10 3 9 4 7 8 8 4 3 5 1h5l10-4 6-5 5-5 5-7 10-17" style="clip-to-self:true;comp-op:src"/>
<path transform="scale(.1)" d="m7857.2 1978.1v-4l3-4 7-7 5-3 4-3 6-3 13-7 14-6 17-7 16-7 8-4 17-6" style="clip-to-self:true;comp-op:src"/>
<path transform="scale(.1)" d="m8047.2 1932.8v4l-1 3-1 4v4l-1 5-1 6v7l-1 7v9l-1 8v8l1 10v8l1 8 2 8 2 7 2 6 3 4 4 4 4 2 4 1 4-1 5-3 5-4 4-5 11-14" style="clip-to-self:true;comp-op:src"/>
<path transform="scale(.1)" d="m8103.4 1810.6-1-3 1 4v4l2 7" style="clip-to-self:true;comp-op:src"/>
<path transform="scale(.1)" d="m8167.2 1783.8-2 4v4 9l-1 6v15 9l-1 11v12l-1 13v13 14l-1 15v29l2 28 1 13 3 12 3 10 3 9 4 7 4 5 5 3 4 2 6 1 5-2 6-2 7-4 6-5 7-6 6-7 7-7 18-24 4-9 14-28 1-4 2-4-3 3-1 4-2 5-1 5-2 7-2 14v8 8 8l1 7 2 7 1 7 3 6 4 5 3 4 5 3 5 1h5l6-1 6-3 7-4 7-5 6-6 7-6 7-7 6-7 5-8 6-8 5-8 3-8 4-8 6-14 2-7 1-4 2-4 1-3-2 5-1 5-2 5-1 7-4 18-1 11-2 11-3 26-1 14-2 15-1 15-2 15-1 16-2 16-1 16-5 34-2 16-3 16-3 13-3 12-3 11-3 9-3 8-4 6-3 5-8 6h-4-4l-3-2-5-4-3-4-3-7-4-8-3-9-4-11-10-32" style="clip-to-self:true;comp-op:src"/>
<path transform="scale(.1)" d="m8164.1 1916.9 5-3 6-2 8-4 9-4 10-4 12-4 13-4 14-4 15-4 16-5 14-5 15-4 32-11" style="clip-to-self:true;comp-op:src"/>
<path transform="scale(.1)" d="m8692.5 1970.3h4l5-3 8-4 4-3 6-3 18-12 12-9 5-4 8-8 2-3 1-3 1-5-3-3-5-2h-4-4l-5 2-6 2-7 3-7 4-8 5-8 6-8 7-8 8-7 9-8 9-6 11-6 12-5 12-5 13-3 13-3 12-1 12-1 10 1 9 3 8 3 6 5 5 6 3 6 2 8 1h9l20-4 11-4 11-5 22-12 10-8 9-8 9-9 17-23" style="clip-to-self:true;comp-op:src"/>
<path transform="scale(.1)" d="m8860 1792.2-3 3v3l-2 10-1 7-1 8-2 10-2 11-1 13-4 28-3 16-2 16-3 18-2 17-1 18-1 17v17 16l2 13 3 13 3 10 4 7 4 6 5 5 6 2 7 1 7-1 8-2 9-3 8-5 10-7 8-7 8-10 8-9 12-22 5-12 3-12 3-11 3-12 1-11 1-10v-9l-2-14-3-5-3-4-3-3-4-2-3-1h-4l-8 4-4 3-4 5-3 5-3 6-3 7-2 7-2 8-1 9v9 10 10l6 30 4 9 3 9 5 8 5 7 5 6 6 5 5 4 6 2h6 5l5-2 12-9" style="clip-to-self:true;comp-op:src"/>
<path transform="scale(.1)" d="m9026.9 1922.5-2 3-3 3v4l-2 4-1 3-1 5-4 12-2 7-1 8-2 9-2 20-2 10-2 22v10l-1 9v8l1 7v6l1 5 1 3 2 3 3-1 4-5 5-11 3-7 4-7 3-10 3-9 6-20 4-11 3-11 4-11 8-20 5-8 3-7 4-6 3-4 3-3 3-1 2 3 1 4v10l-1 6v7 8l-1 8v8l-1 8v9 15 7l1 7 1 5 1 4 1 2 5 3 5-3 3-3 3-5 4-5 4-6 4-8 4-7 8-16 3-9 5-9 3-8 9-17 5-7 4-6 4-5 3-3 5-3 3 2 2 7v5l1 6v7l1 7 1 9 1 18 2 9 1 10 2 9 3 10 2 9 3 7 4 8 3 5 4 5 5 2 4 2 3-1 5-2 4-2 10-11" style="clip-to-self:true;comp-op:src"/>
<path transform="scale(.1)" d="m9258.8 1964.1-1 3 3 3 5-1 4-1 5-1 5-2 14-4 7-4 8-3 7-4 16-9 6-5 7-5 5-5 8-10 4-8v-4l-2-4-3-1h-4l-4 1-5 2-12 8-6 6-14 12-5 8-6 9-5 8-8 18-4 18v9 9l1 7 2 8 3 6 4 6 5 4 6 3 7 2 7 1 16-2 8-2 16-8 7-5 8-5 7-7 7-6 6-7 6-8 5-7 4-9 8-16 3-7 2-6 2-10v-3-4l-3 1-2 3-2 4-2 5-2 6-2 7-3 7-1 7-1 8-1 9-1 7v8l1 8v7l1 7 2 6 1 5 6 6 3 2 3 1 3-1 4-2 8-6 4-5 5-5 4-6 4-7 4-6 4-7 4-8 16-28 3-6 3-5 5-6 2-2 1 3v3l-1 5v5l-1 6v6 7 7l1 8 1 7 3 7 2 7 4 7 4 5 9 9 5 2 6 1 5 1 7-2 6-1 6-4 7-4 7-5 6-6 6-7 6-8 13-26 4-10 2-11 3-11 3-12 2-13 4-28 4-30 2-28 1-13 2-10v-8l1-6v-4-3l-2 3-1 4-2 6-2 7-2 9-3 10-1 11-2 12-6 39-2 15-1 13-2 28-1 13v14 13l2 24 2 10 1 8 2 7 3 4 3 3 5-3" style="clip-to-self:true;comp-op:src"/>
<path transform="scale(.1)" d="m9554.1 1906.2-3-2-2-3 3-2 8-4 6-2 5-1 7-3 9-3 8-2 20-6 22-6 10-3 10-2 9-3 8-3 7-3 8-5" style="clip-to-self:true;comp-op:src"/>
<path transform="scale(.1)" d="m7206.2 2404.1-3-3-5-3-6 1-3 3-3 4-4 5-4 6-10 16-6 10-4 11-6 11-5 11-4 12-3 11-2 11-1 11v10l2 9 2 8 3 6 9 9 6 3 6 1h6l6-2 7-3 7-4 6-4 7-6 6-7 5-7 8-16 3-8 2-16v-9l-1-9-2-8-3-9-4-16-3-7-6-10-4-3-3-2h-3-4l-3 2-2 2-2 3-1 4-1 5 2 8 3 5 3 4 5 3 4 3 6 2 5 3 15 3" style="clip-to-self:true;comp-op:src"/>
<path transform="scale(.1)" d="m7357.2 2439.1 4 1h4l5-1 3-2 4-2 4-3 10-8 10-12 6-7 5-8 6-8 4-9 5-10 4-10 6-20 4-20v-10l-2-20-2-10-3-8-3-6-4-4-5-3-4-1-5 1-5 3-6 4-6 6-5 7-5 9-4 11-5 13-5 14-8 32-8 38-3 18-3 19-2 19-2 18-2 38v37 20l3 60 1 18 1 17 1 15 1 12 1 9 1 8 1 6 1 3 2 3 1-5 2-4 2-7 2-8 3-10 8-40" style="clip-to-self:true;comp-op:src"/>
<path transform="scale(.1)" d="m7312.5 2532.8-3-1-2-2-4-1-3-2-2-4v-3l1-4 4-6 3-3 2-4 5-3 10-8 6-4 21-12 8-4 7-5 8-5 19-12" style="clip-to-self:true;comp-op:src"/>
<path transform="scale(.1)" d="m7851.9 2410.6v-5-3l-1-3-7-7-3-2-4-2-4-1-5-1-12-2h-6-7l-8 1-8 2-9 2-9 3-9 4-19 10-20 12-10 7-9 7-9 6-8 7-5 5-5 6-2 5-1 4 1 4 2 3 4 4 5 2 6 3 8 2 9 1 10 2 11 1h12l13 1h14 14l14 1 29 1 14 1 12 1 12 2 9 2 8 2 7 2 4 3 2 3v5l-3 4-3 3-12 6-8 3-9 2-21 6-11 2-26 4-14 2-14 1-15 2-14 1-30 2h-14-14-12l-12-1h-10l-8-1-7-1-5-1-3-1-1-3 6-5 4-3 6-4 17-10" style="clip-to-self:true;comp-op:src"/>
<path transform="scale(.1)" d="m7786.6 2324.7-2-3v3l1 4 1 6 1 7 1 8 1 10 1 11v29l-2 34-1 18-1 19-2 18-1 18-1 17-1 18v16 15l1 15 2 13 2 11 2 9 4 7 5 4h5l18-7" style="clip-to-self:true;comp-op:src"/>
<path transform="scale(.1)" d="m6838.8 2790.9-1-3v-4 5 3l1 5v13l-1 9v10l-1 13-2 15-2 17-1 18-3 20-1 21-3 22-2 21-4 40-1 18-2 32v12 20 6l1 4v4l1-4v-27l-1-9v-9l-1-10v-10l-1-10v-24l1-13 2-30 3-16 3-17 4-16 4-17 6-17 5-15 13-26 7-11 7-9 8-7 6-6 14-6 6-1 7 1 5 2 6 3 4 4 4 5 6 12 1 8 1 9-1 8-1 9-2 10-2 9-4 10-8 19-6 9-5 9-6 8-6 6-5 6-6 5-6 4-11 6-4 1-5 1h-5l-3-1-4-1-6-6-1-4-1-11" style="clip-to-self:true;comp-op:src"/>
<path transform="scale(.1)" d="m7243.8 2966.6-8-16-3-3-4-2-3-3-4-1-3-1h-9l-6 1-5 1-6 3-5 3-6 4-6 6-6 7-6 8-5 10-6 11-5 12-4 12-3 13-3 12-2 13-1 11v11l1 10 2 9 3 8 3 6 5 5 4 3 5 2 6 1h5l6-1 7-3 6-4 8-5 14-12 8-7 6-8 7-8 12-18 5-10 4-10 5-10 4-11 2-10 3-9 2-9 2-8 2-6v-4l2-3-1 6-1 5v6l-1 8-2 10-1 10-2 10-1 11-1 10-2 22v11 9 9l1 8 2 7 2 5 2 4 3 1h4l4-1 5-5 4-5 5-6 15-30" style="clip-to-self:true;comp-op:src"/>
<path transform="scale(.1)" d="m7337.8 2957.5v20 5l1 5 1 6v7l1 6v22l-1 8v7 8l-1 7v6 18l1 4 2-5 1-3 2-4 1-4 1-6 1-5 4-14 3-7 2-8 6-18 4-9 5-9 4-8 5-7 4-7 10-8 4-2 4-1h5l3 2 4 2 3 4 3 5 3 6 3 8 1 8 3 9 1 10 1 11v11l1 11v11l2 20 1 9 1 8 2 6 2 4 2 2h6l3-3 4-5 12-24" style="clip-to-self:true;comp-op:src"/>
<path transform="scale(.1)" d="m7520.3 2959.7-2 4v3 5 32 7 7l4 28 1 6 2 6 4 8 3 3 4 1h4l4-1 5-2 10-8 5-6 6-5 4-7 5-7 5-8 7-15 4-8 3-7 3-13 1-4 1-3-2 2-2 4-1 6-3 7-2 8-3 10-2 11-4 24-2 14-2 15-1 15-2 34-2 36-1 19-2 36-1 17-1 18-2 18-2 17-3 17-3 16-3 14-3 13-3 11-4 10-5 9-10 12-6 4-7 4-7 2-14 2-7-1-7-2-8-3-7-4-7-5-6-5-5-6-5-7-4-7-3-8-2-8v-9-10l1-10 3-11 4-10 5-13 6-12 9-13 8-14 11-15 11-16 12-16 13-18 14-19 30-38 40-45" style="clip-to-self:true;comp-op:src"/>
<path transform="scale(.1)" d="m7790 3011.2-2-4-1-4-1-3 3 2 3 3 2 3 6 6 3 4 3 6 4 6 8 14 10 18 4 10 10 20 4 10 5 9 4 9 4 8 4 6 4 5 3 4 3 3 5 2 4-1 3-2 2-3 4-10 2-6 2-8 2-7 2-9 1-8 4-18 3-27 1-10 1-9 2-9 1-8 4-14 3-3 3-4 4-1 6 2 2 4 3 3 3 5 2 5 3 5 5 15" style="clip-to-self:true;comp-op:src"/>
<path transform="scale(.1)" d="m8066.9 3006.2v-3l-1-6-4-4-4-1h-4l-4 3-5 3-5 4-7 6-6 7-7 8-14 18-12 20-10 22-4 11-6 22-2 10v9l-1 8 1 7v5l2 5 2 2 6 2h4l4-2 5-3 5-5 10-12 10-16 12-27 2-8 3-8 2-6 2-5 1-3 2-4v5 20l1 7v7l2 7 1 7 2 6 2 7 3 6 3 5 3 4 8 6 4 1 5 1 4-1 5-1 5-3 9-9 10-14" style="clip-to-self:true;comp-op:src"/>
<path transform="scale(.1)" d="m8154.7 2915.3 2 5v5l1 6 1 7v8 8l1 9v21 13 40l1 14v15l1 14v14l2 13 1 12 2 10 3 8 2 6 3 5 3 4 4 3h4 3l5-2 4-3 9-9 10-14 4-8 4-9 5-10 3-10 4-11 3-10 6-21 3-9 2-9 5-13 1-4 2-3v6 11 8l-1 8v31l1 10v10l2 11 4 18 3 9 3 6 3 7 3 4 4 3 4 2h5l5-1 6-2 6-4 6-5 5-6 7-7 12-16 5-9 4-10 5-10 3-10 4-11 2-10 2-9 3-7 2-6 1-5v-3l-3 4-1 4-2 4-1 6-2 14v15 7l1 8 4 14 6 12 4 5 4 4 4 3 4 2 5 1h12" style="clip-to-self:true;comp-op:src"/>
<path transform="scale(.1)" d="m8465.3 3089.4 3 2 4-1 5-2 6-4 8-6 4-2 4-4 4-3 8-8 3-4 9-15 4-10 1-4v-5-3l-2-5-5-3-6-1-8 2-5 3-4 2-9 9-8 12-5 8-3 8-9 27-2 20v9 9 9l2 8 3 8 3 7 4 6 6 5 6 4 7 4 8 2 10 2 10 1 11 1 12-1 24-4 13-4 13-5 34-15" style="clip-to-self:true;comp-op:src"/>
</g>
<g stroke="#fff" stroke-width="14.1">
<path transform="scale(.1)" d="m2629.1 3601.2-3 1v4 3l-1 4v33 12 14l-1 16v17 18 19l-1 20v21 19 87 8l1 7v9 5l2-5 1-4v-5l1-5v-7l1-7v-46l-1-12v-41l1-16v-16l6-51 3-17 4-16 3-14 5-14 4-13 5-11 6-9 5-8 5-6 6-5 5-4 6-3 6-2 5-1h6l10 2 7 7 2 5 2 6 2 8v8l-1 10-2 11-2 12-10 24-7 13-16 26-8 12-9 11-10 11-9 10-10 8-9 8-8 6-9 5-6 4-7 2-4 2h-4l-3-2v-3l1-4 3-5 4-6 4-8 6-7 17-21" style="clip-to-self:true;comp-op:src"/>
<path transform="scale(.1)" d="m2803.1 3719.7h11l4-1h5l12-2 7-1 9-2 8-2 9-1 18-5 20-4 9-3 9-2 8-2 8-1 7-2h6l5-1 8-2 3-1-2-3" style="clip-to-self:true;comp-op:src"/>
<path transform="scale(.1)" d="m2911.2 3638.4v-3l3 4 3 5 1 3 2 4 2 10 2 12 1 7v8 9l1 9v9 11l1 12 1 10v12 11l1 11 2 9 2 16 2 5 1 4 3 4 3-2" style="clip-to-self:true;comp-op:src"/>
<path transform="scale(.1)" d="m3143.1 3614.7-2-3-4 1-3 5-2 3-2 4-2 6-2 7-3 7-2 9-3 9-3 11-2 11-1 10-1 12v23l1 11 4 24 4 10 3 10 4 9 5 8 12 10 7 2 7 1 7-1 7-2 8-3 7-4 7-5 14-12 6-7 10-16 8-18 3-10 2-10 2-11v-12-12l-1-14-1-12-2-14-3-12-4-12-3-10-5-7-5-5-6-3-7-1h-8l-9 1-9 4-10 3-9 6-9 5-8 6-6 6-5 6-4 6-2 6-1 5 3 12" style="clip-to-self:true;comp-op:src"/>
<path transform="scale(.1)" d="m3410.9 3674.7 3-2 5-1h4l4-1 5-1 6-1 14-2 16-4 8-1 9-1 8-2 9-1 9-2 8-1 8-2h7 7 5l5 1 4 1-1 3-8 10" style="clip-to-self:true;comp-op:src"/>
<path transform="scale(.1)" d="m3403.8 3756.2 4-1 3-1 4-1h5l12-2h7l7-1 8-1 7-1 8-1h8l24-3h7 8l7-1h5 9l7 2" style="clip-to-self:true;comp-op:src"/>
<path transform="scale(.1)" d="m3780.6 3606.9-5-2-3 3-1 4-1 5-1 6-2 8v8l-2 10-1 11-2 11-1 13-2 14-1 15-1 16-1 17-1 16-1 18v18l-1 18v75l1 10v7l1 6 1 4 5-2" style="clip-to-self:true;comp-op:src"/>
<path transform="scale(.1)" d="m3782.5 3682.8 2-4 1-3 3-4 4-4 3-4 5-4 6-3 6-4 14-7 7-3 8-3 9-3 8-2 9-1 8-1h7l7 1 6 1 6 3 3 4 3 5 2 6v7l-1 8-6 18-6 10-7 11-16 20-11 9-10 9-20 16-10 7-9 6-18 8-9 2-8 1h-7l-7-1-14-5" style="clip-to-self:true;comp-op:src"/>
<path transform="scale(.1)" d="m5620.3 3645.6-2 3v7 4l-1 7-1 8-1 9-1 11-1 13-1 14-1 17-1 18-2 39-1 20v18l-1 18-1 16v14 41 5l2 10 1-6v-4l1-5v-15" style="clip-to-self:true;comp-op:src"/>
<path transform="scale(.1)" d="m5615.6 3739.1-1-3v-10l1-4 1-3 2-3 2-4 7-8 4-5 6-4 5-5 6-4 7-5 6-4 16-6 7-2 7-1h6l12 2 5 3 4 4 3 5 2 7 1 7-1 9-2 9-2 10-4 10-5 11-6 11-7 10-8 10-8 9-18 16-9 6-8 5-8 4-14 6h-5-4l-4-1-2-2-1-3v-5l1-5 9-15" style="clip-to-self:true;comp-op:src"/>
<path transform="scale(.1)" d="m5827.8 3733.8 2-3 8 2 4 2 4 3 5 2 6 3 5 4 13 10 6 5 7 6 6 6 8 7 6 6 7 6 7 7 6 5 7 6 6 5 5 5 5 4 5 3 8 4h4l6-1 3-2 1-3 2-4v-4l1-12" style="clip-to-self:true;comp-op:src"/>
<path transform="scale(.1)" d="m5951.6 3692.8-3-2-3 2-3 3-3 5-3 3-4 3-4 5-5 4-6 6-6 7-6 8-8 8-8 9-8 10-18 22-15 23-7 12-6 11-5 11-5 9-3 8-2 8-1 5v4l4 3 3-1 12-8" style="clip-to-self:true;comp-op:src"/>
<path transform="scale(.1)" d="m6138.8 3677.8-1 5 1 4v5l1 5 1 6v6l1 8v7 9l1 9 1 10 6 72 2 11 2 12 4 20 1 8 2 8 2 6 1 5 1 4" style="clip-to-self:true;comp-op:src"/>
<path transform="scale(.1)" d="m6346.6 3801.6 3-3h7l5-1h7l7-1 8-1 7-1 24-3h7 29 7 5l5 1h4 4" style="clip-to-self:true;comp-op:src"/>
<path transform="scale(.1)" d="m6344.7 3869.1 4-1 5-1 4-1h4l4-2 12-2h6l7-1 16-2h9l8-1h10 9l10-1h9l9-1 16-2 21-3" style="clip-to-self:true;comp-op:src"/>
<path transform="scale(.1)" d="m6691.2 3753.4 1 5 2 8 1 6 2 6 1 7 2 18 2 24 2 14 1 15 2 32 1 15v15 14l1 13v12l2 22 1 9v7l1 5 1 4 3 4 2-2 1-4 3-10" style="clip-to-self:true;comp-op:src"/>
<path transform="scale(.1)" d="m6696.6 3804.4-1-4-1-3v-5l1-5 2-5 2-4 3-5 4-4 5-4 14-8 16-6 10-3 9-2 19-3 9-1h9 9l7 2 6 2 7 2 5 3 4 4 3 5 1 5 1 6-1 7-2 6-3 7-4 8-6 7-7 8-9 7-9 8-10 7-22 12-12 4-13 4-31 7" style="clip-to-self:true;comp-op:src"/>
<path transform="scale(.1)" d="m2725.6 4845.9 2-8 1-5 3-12 1-3v-4l1-4-2-8-3 5-1 4-2 5-2 6-2 8-3 11-3 12-3 14-4 15-8 34-5 17-4 17-5 17-6 17-4 16-5 15-4 15-6 13-3 12-4 10-4 8-3 7-2 5-3 4-1 2-3 3-3-3 1-3v-5l2-4 1-6 2-6 2-8 3-7 3-9 4-10 8-22 5-12 4-13 6-14 5-15 6-15 12-32 5-16 6-15 6-14 5-13 5-10 4-10 4-7 3-6 2-5 2-4 2-2 3-4 3-1 4 2 4 3 4 6 3 4 3 5 4 6 3 8 3 9 4 10 4 12 6 24 6 28 3 13 2 14 3 13 6 36 2 11 4 20 2 9 4 16 2 6 2 5 2 6 2 3 1 4 2 3 3 3 2 1 2-3v-3-5l-2-6-2-3-8-5" style="clip-to-self:true;comp-op:src"/>
<path transform="scale(.1)" d="m2704.4 5003.4v-3l1-3 3-3 5-2h3l5-2 4-1 5-1 12-2 7-2h9l8-1 18-2 10-1 18-2 17-2 6-1 14-2" style="clip-to-self:true;comp-op:src"/>
<path transform="scale(.1)" d="m2984.4 5073.1-2 5-3 2-2 2-4 1-3-2-1-3-1-6 1-3v-4l1-4 2-6 2-5 4-14 3-7 6-16 2-9 6-18 4-10 6-22 4-12 4-13 5-14 4-13 6-15 5-14 12-24 7-10 6-8 6-7 7-5 6-5 7-3 12-2 6 1 6 2 6 3 6 4 5 6 5 7 4 7 5 9 3 10 4 11 3 11 2 12 1 13 2 13v13 36 12l-1 11-2 20-2 18-3 24-1 6-2 10-1 4v7l1 4 2 4 3-1 3-4 3-5 2-4 2-10" style="clip-to-self:true;comp-op:src"/>
<path transform="scale(.1)" d="m3350 4853.8v-4l-1-5v-3l-3 4-1 4-1 5-1 7-1 8-2 9-1 10-2 24-2 25-1 12v25l1 12v11l2 10 1 10 3 9 2 7 4 6 3 6 12 12 8 4 3 1 5 1 3 1h4l4-1 5-1 4-2 4-3 5-3 4-3 8-8 4-5 8-12 3-6 4-7 6-13 3-8 2-9 3-8 6-20 2-12 3-12 3-14 2-13 4-15 2-13 3-14 2-11 2-10 1-8 1-7 1-4v-3l-2 3-1 4-2 5-3 6-2 8-3 8-3 10-1 11-2 11-2 12-2 24v12l-1 13v25l1 12v11l2 11 1 9 3 9 2 8 4 7 8 12 4 5 10 6 10 4h5 6l6-2 5-2 6-2 5-3 11-9" style="clip-to-self:true;comp-op:src"/>
<path transform="scale(.1)" d="m3621.2 4925.6-3-1 3 1 7-1 4-1 5-1 6-1 6-2 8-2 7-2 8-2 7-2 8-3 6-2 7-2 6-2 6-1 6-2 4-2 5-1 4-1 5-1-7 5" style="clip-to-self:true;comp-op:src"/>
<path transform="scale(.1)" d="m3605.3 5013.4 3 2h4 6l12-3 10-2 6-2 6-1 7-2 7-1 7-2 8-1 7-1 9-1 7-1h7l7-1h5 5 4l9-2" style="clip-to-self:true;comp-op:src"/>
<path transform="scale(.1)" d="m3989.4 4829.1-3 1-2 3-2 4-1 6-2 7-2 8-3 10-2 11-3 12-3 13-4 14-3 13-4 14-3 14-12 39-4 12-3 11-3 10-2 10-2 8-4 12v3 5l2-4 1-3 2-4 1-5 4-12 3-8 2-7 2-9 6-20 6-24 2-13 3-14 3-16 3-17 8-36 3-19 5-17 4-18 6-16 5-14 5-13 6-11 5-9 4-7 8-8 3-2 6 1 3 2 2 3 3 4 6 12 2 7 2 8 2 9 3 9 2 10 2 11 4 24 3 14 2 14 2 15 3 16 4 30 3 15 2 13 3 12 2 12 3 10 3 11 3 9 2 9 6 14 2 5 2 4 2 3 3 3 3 2 2-5v-5l-1-4-2-4-2-5-9-11" style="clip-to-self:true;comp-op:src"/>
<path transform="scale(.1)" d="m3953.8 4991.6 3-3 5-1h3l4-1 4-2 6-1 6-2 14-4 9-2 9-1 9-2 10-2 9-1 9-2 8-1 7-1 13-5" style="clip-to-self:true;comp-op:src"/>
</g>
<g stroke="#00c0ff" stroke-width="14.1">
<path transform="scale(.1)" d="m1703.1 5849.7v-4l1-3v-5-3-3-3l-3-9-3-3-3-2h-4l-4 2-3 2-2 3-2 6-3 5-2 8-4 20-2 12-1 13v13 15 15l1 15 3 16 3 14 3 13 4 11 4 10 6 7 5 6 5 4 6 4 6 2 5 1 7 1h6l5-1 5-2 6-2 5-4 6-4 5-6 8-12 5-8 3-8 3-10 4-9 2-12 3-12 2-11 2-14 2-12 1-13 2-24 1-10v-9l1-8 1-4v-4l-1 4-1 5-1 7-1 9-1 11-2 11-1 13-1 14-2 30v14l1 14 1 13 3 12 3 10 3 9 4 7 5 5 5 4 5 2h5l6-1 5-4 13-12" style="clip-to-self:true;comp-op:src"/>
<path transform="scale(.1)" d="m1875.9 5883.1-1 5v18l-1 5v40l1 9v9 9l1 9 2 8v7l1 6 2 8 2 6 1-5v-4-5l1-6v-8l1-8 2-20 1-11 2-12 3-11 3-13 4-12 5-13 5-11 6-10 5-7 6-7 5-4 6-3 5-1h4l4 2 3 4 3 5 1 7 2 9 1 10v10 12l-1 13v13l-1 14-2 26v12 11 9l1 7v5l2 4 3 2 3-4 1-4 4-14" style="clip-to-self:true;comp-op:src"/>
<path transform="scale(.1)" d="m2004.7 5875 3-1 1 4 1 3 1 4 2 10 1 7 1 6 2 16v9l3 27 2 9 2 8 3 8 2 7 3 6 3 5 3 4 4 3 2 2 6 1 4-2 2-3 2-4 1-5v-6l-1-17" style="clip-to-self:true;comp-op:src"/>
<path transform="scale(.1)" d="m2058.4 5799.7 2-8v-4l-2 4v3l-2 6v11l2 6 1 5 3 5 3 2" style="clip-to-self:true;comp-op:src"/>
<path transform="scale(.1)" d="m2116.2 5874.4v-4-4l-1-4v-4-4l3 3v4l1 4 1 5 2 14 2 8 4 20 1 11 4 24 2 13 2 12 2 11 3 11 3 10 6 14 3 5 3 4 4 1 3 1h4l4-2 3-4 5-5 4-7 5-9 4-10 5-12 4-13 5-13 4-14 4-15 8-28 3-15 4-14 3-13 4-12 2-10 3-7 1-5 1-3-2 5-1 6-2 8-1 9-3 9-2 22v11 11l1 10 4 26" style="clip-to-self:true;comp-op:src"/>
<path transform="scale(.1)" d="m2319.1 5885.3v-16l-1-5-1-4-1-3-4-5-3-2-3-1h-4-3l-5 1-3 2-5 3-4 3-4 4-4 6-3 6-4 7-4 8-3 9-2 9-3 10-1 10-1 11v10l1 11 1 10 3 8 3 9 4 6 5 6 5 5 6 4 6 2 7 1h8l7-1 8-2 8-3 8-4 8-5 7-6 14-14 13-16 10-18 8-18 3-9 3-8 4-14 2-10 2-7 2 4 1 3 1 6 1 5 1 7 1 8 2 9 6 30 3 11 6 20 3 9 2 9 3 7 2 6 3 4 4 8-1-4-1-5-2-4-1-6-2-7-1-8v-9l-1-9 1-10v-11l2-12 6-24 4-13 10-22 6-11 6-9 6-8 12-12 6-5 4-2 5-1 5 1v7l-4 13" style="clip-to-self:true;comp-op:src"/>
<path transform="scale(.1)" d="m2621.9 5914.7 1-5 1-4v-7-5l-1-4-2-5-3-3-3-2-4-2-4-1-5-1h-5-6l-6 2-6 1-6 2-6 3-5 4-9 9-3 5-2 6-2 12 1 7 1 6 2 6 8 12 5 6 6 5 13 10 6 5 18 12 4 4 5 4 3 4 2 3 1 4v4l-1 3-2 4-4 3-6 3-6 4-7 3-7 2-8 3-8 2-9 2-7 1-15 2h-12l-5-1-3-1-3-2-4-6 2-8" style="clip-to-self:true;comp-op:src"/>
<path transform="scale(.1)" d="m2771.2 5912.8-1-5-2-4-6-10-4-3-4-2-10-2-12 2-7 2-7 3-16 10-8 6-15 15-7 9-5 9-6 9-5 10-3 10-3 9-2 16v7l1 6 2 5 2 4 3 3 8 2h4l6-2 5-2 6-3 7-4 6-5 12-12 5-6 5-7 5-6 6-10 4-7-2 5-1 4-1 5-2 6-1 7v7l-1 7v7l1 6v6l1 6 2 4 3 5 3 4 3 2 8 4h6l5-1 6-1 7-3 6-3 7-4 6-5 7-6 5-6 5-8 5-9 4-10 4-11 2-12 2-13 1-13v-15-15-15l-4-64-2-28-1-11v-9l-1-7-3-7-3 2-1 4-2 6-1 7v10l-1 10-1 12v12l-1 14-1 15v15 16l-1 16v52l1 18 1 17 1 16 1 15 2 12 2 11 2 9 3 7 2 6 3 4 2 3 3 2 9-3" style="clip-to-self:true;comp-op:src"/>
<path transform="scale(.1)" d="m3193.4 5874.1 2-6 1-6 2-6v-6l-1-4-2-4-6-4-5-1h-6-7-8l-9 1-20 6-10 4-20 10-18 14-16 18-7 9-10 18-4 18v8l4 16 4 7 5 6 7 6 7 5 8 5 24 12 9 4 7 4 7 3 5 3 5 4 3 3 1 3 1 4-4 6-4 3-6 3-5 2-7 3-7 2-8 1-14 2h-7l-12-2-6-2-4-3-2-3-2-5v-5l1-7 7-18" style="clip-to-self:true;comp-op:src"/>
<path transform="scale(.1)" d="m3217.5 5961.2v4l1 5 2 4 4 2h4l3-2 8-5 14-15 6-6 5-6 5-7 9-13 3-6 3-7 2-6v-6-5l-2-4-2-5-3-2-4-1h-5l-6 1-7 2-7 5-7 4-7 7-12 16-6 10-4 11-5 12-3 12-3 13-2 13-2 22 1 11 2 9 4 8 4 6 5 6 7 4 8 3 8 1 10 1 10-1 10-2 11-3 12-5 11-5 12-6 12-7 11-8 11-9 10-9 8-11 8-12 7-13 6-14 4-14 3-15 2-16 2-32v-16-16l-2-28-1-11-2-10-2-8-2-5-2-4-5-2-5 5-3 5-3 6-2 8-2 9-2 10-2 22-1 12-1 13v27l1 15v15l1 16 2 30 2 15 2 13 2 12 3 10 7 14 4 5 4 2 4 1 4-1 3-2 3-4 3-5 5-17" style="clip-to-self:true;comp-op:src"/>
<path transform="scale(.1)" d="m3343.1 5872.2h4 5 4l5-1 6-1 6-2 8-1 8-3 10-2 9-2 11-3 10-2 10-3 9-4 9-2 7-4 12-7" style="clip-to-self:true;comp-op:src"/>
<path transform="scale(.1)" d="m2660.3 5758.1 688-599-97 19 97-19-32 93" style="clip-to-self:true;comp-op:src"/>
</g>
<g stroke="#fff" stroke-width="14.1">
<path transform="scale(.1)" d="m5485 4815.3v-3l-1-4-3-1-2 4-1 3-2 4-1 7-2 7-2 10-3 12-4 13-3 14-4 15-4 16-8 31-4 15-3 14-4 14-3 14-6 24-3 10-1 8-1 7-1 6-1 5v3 4l2-4 4-6 1-5 2-4 1-5 2-5 2-6 4-14 4-16 2-9 3-10 3-11 4-13 4-14 5-15 4-17 5-17 5-18 12-34 5-15 6-12 5-11 5-8 4-7 4-6 6-6 4-1 4 4 1 3 1 4 2 5 4 12 1 7 2 8 1 8 3 9 2 10 1 10 2 13 1 12 2 14 2 15 2 14 1 15 2 16 1 14 2 14 1 13 2 12 1 10 1 9 3 9 1 7 2 6 1 5 2 5 1 3 2 4 3 1 2-3 1-4v-7l-1-4-1-5-4-12" style="clip-to-self:true;comp-op:src"/>
<path transform="scale(.1)" d="m5469.7 4981.6-2-4 4-1 6-2 4-1 6-1 5-1 6-1 7-2 6-1 8-2 6-1 7-1 5-2 5-1 4-1 4-2" style="clip-to-self:true;comp-op:src"/>
<path transform="scale(.1)" d="m5716.2 4849.7 2-4v-3l1-5v-3-3-8l-1 5v5 5l-2 8-1 9-1 11-2 24-2 27-2 26v24l2 20 2 9 2 8 2 7 3 6 3 4 4 4 4 2 4 3 4 1h5 5 5l10-4 6-1 5-3 5-4 6-3 4-5 5-4 4-5 3-4 4-6 2-5 3-6 2-6 1-7 2-6 1-7 1-8 2-18v-10l1-11v-11-11l1-12 1-10v-10l1-8v-6l1-5v-4-4l1 3v8l-2 10-4 10" style="clip-to-self:true;comp-op:src"/>
<path transform="scale(.1)" d="m6043.8 4848.1-6-8-3-2-3-1h-3l-4 1-4 4-2 3-3 5-3 6-3 7-4 9-4 10-3 11-4 12-3 11-3 12-4 24-1 11v11l2 20 3 10 3 8 5 9 5 7 5 6 14 10 8 4 18 4h10 9l10-2 11-2 10-3 20-8 10-5 9-6 8-7 8-6 7-7 7-8 6-7 10-18 3-10 2-10 2-11v-10-12l-1-12-2-12-2-13-3-11-8-20-5-7-6-7-6-6-7-4-7-2-8-2h-8l-8 1-10 2-9 2-18 8-9 5-8 5-7 5-8 5-11 11-3 4-2 4-2 3 2 4 5 2 10-3" style="clip-to-self:true;comp-op:src"/>
<path transform="scale(.1)" d="m6156.6 4753.8v-16l-1-5-4 2-3 6-1 4-1 5-2 6-2 7-1 9-3 10-1 11-4 12-2 14-4 16-4 18-4 20-6 22-12 46-14 48-6 25-7 24-7 25-6 23-6 22-6 20-5 18-5 16-4 14-4 12-2 9-2 7-1 6-2 8 4-5 3-4 3-6 4-6 4-7 12-22" style="clip-to-self:true;comp-op:src"/>
<path transform="scale(.1)" d="m6313.4 4913.8 3-2h4l7-2h4l5-2h5l6-2 6-1 7-1 7-2 8-1 7-2 9-1 16-2 14-2h6 15l-5 5" style="clip-to-self:true;comp-op:src"/>
<path transform="scale(.1)" d="m6292.5 4983.8v3l1 3 3 3 5 3 3 1h10l12-2 7-1 8-1 10-2 9-2 11-1 33-6 10-2 9-2 9-3 18-7" style="clip-to-self:true;comp-op:src"/>
<path transform="scale(.1)" d="m6758.4 4740-1-4-1-3-4-6-4-2-4 2-4 5-2 5-3 5-3 6-2 7-3 8-3 10-2 10-3 11-6 26-3 14-3 16-4 17-5 17-4 18-5 17-3 16-4 16-4 14-3 12-2 11-1 9-2 8v6l-1 5v8l4-4 2-3 4-10 2-6 6-14 3-8 6-18 3-11 3-12 4-14 3-14 4-16 10-34 5-18 5-17 6-17 6-15 5-14 5-11 5-10 4-7 4-4 3-4 2-2 5-1 4 4 2 4 1 4 2 5 2 6 1 7 1 8 2 18 2 10 1 11 2 11 1 13 2 13 2 14 3 15 4 30 6 28 2 12 3 12 3 10 4 8 3 8 2 5 3 5 3 4 2 3 4 2 4-1v-4l-1-4-3-10" style="clip-to-self:true;comp-op:src"/>
<path transform="scale(.1)" d="m6685 4935.6 4-3 3-2 3-1 4-2 6-1 7-3 7-2 8-2 9-3 10-2 10-3 10-2 11-2 11-1 10-2 20-2 8-1 7-1 13-3" style="clip-to-self:true;comp-op:src"/>
</g>
</g>
</g>
</svg>
