<?xml version="1.0" encoding="UTF-8"?>
<svg width="1e3pt" height="800pt" version="1.2" viewBox="0 0 1e3 800" xmlns="http://www.w3.org/2000/svg">
<g id="surface75">
<rect width="1e3" height="800" fill="#20282d"/>
<g fill="none" stroke-linecap="round" stroke-linejoin="round" stroke-miterlimit="10">
<g stroke="#fff">
<g stroke-width="14.1">
<path transform="scale(.1)" d="m3999.4 530.31 2-8v-4-5l1-4v-10 3l1 4v6 6 9 11l-1 11-1 13-2 16-1 16-3 18-5 37-2 18-1 17-1 16-1 15v13 38 5l1 4 1 3 1-3v-3-15" style="clip-to-self:true;comp-op:src"/>
<path transform="scale(.1)" d="m3951.6 595.94-4-6-3-4-2-4-4-10-1-5v-6-5l1-6 3-6 4-7 5-7 6-6 6-7 9-6 8-7 10-5 11-6 11-5 12-4 14-3 13-2 14-1h15l13 2 14 3 12 5 12 7 10 7 9 9 7 10 5 11 4 12 2 12v13 13l-2 14-8 28-6 15-7 14-14 26-8 12-8 10-17 17-10 8-9 6-18 10-27 9-16 2-7 1h-6l-5-1h-4l-3-2-2-3v-3l3-9" style="clip-to-self:true;comp-op:src"/>
<path transform="scale(.1)" d="m4293.8 616.56 2-3-2 4-3 3-6 10-4 6-4 7-5 7-3 7-4 8-3 7-6 16-2 8-1 7v8l1 16 2 7 2 6 3 6 3 5 4 5 4 4 6 4 5 3 5 2 6 2 5 2 5 1h4 4l4-1 6-4 4-8" style="clip-to-self:true;comp-op:src"/>
<path transform="scale(.1)" d="m4309.7 541.88h-4-5-4l-3 2-2 8 1 5 3 5 4 5 3 2 3 1 4 2 3 1 4 1h4 3l8-2 3-1 6-4 4-6 1-3 1-4v-3-4l-1-4-1-3-4-8-3-3-2-3-4-2-3-2-4-1-3-1h-4l-4 1-4 2-5 2-7 7-6 8-2 4-1 9" style="clip-to-self:true;comp-op:src"/>
<path transform="scale(.1)" d="m4468.1 542.19 3-2 7-7 4-5 3-4 8-10 8-12 2-6 3-7 2-6v-7-13-6l-6-15-2-4-3-2-4-2-4-1h-4l-4 1-5 2-5 3-5 4-4 5-8 16-3 10-3 12-6 28-4 32-3 18-2 18-1 19-2 20-1 20v21l-1 20v58 18 15l-1 15v13l-1 12-1 10-2 18-1 7-4 10-1 3-4 3-3-1-3-5-2-6-6-15" style="clip-to-self:true;comp-op:src"/>
<path transform="scale(.1)" d="m4363.8 747.5v-4l1-5 3-4 5-5 3-2 4-3 3-4 10-8 6-5 7-5 16-12 9-7 10-8 19-19 11-10 11-12 10-12 11-12 12-13 22-26 11-12 10-12 16-22 6-9 5-9 3-8 2-6 1-6 1-4v-3l-2-5-2-2-4 1-2 3-2 4-3 5-2 5-3 8-4 9-3 9-3 11-2 12-2 13-4 28-1 15-1 16v17 17l4 68 2 15 1 15 2 14 1 13 2 22v9l1 8v12l-1 5-2 6-2 5-4 3h-3-6l-4-2-5-2-4-3-11-12" style="clip-to-self:true;comp-op:src"/>
<path transform="scale(.1)" d="m4460.3 735v-3l1-5 3-4 2-3 12-12 10-8 6-4 7-4 8-4 9-5 10-5 11-5 24-10 14-5 12-4 13-5 28-10" style="clip-to-self:true;comp-op:src"/>
<path transform="scale(.1)" d="m4663.4 670.31 3 3 3 1h4l6-1 4-1 5-2 10-5 5-3 6-4 6-5 6-4 5-6 5-5 4-5 4-4 3-5 2-8v-3l-2-5h-3-4-5l-5 3-7 3-7 5-7 7-8 7-8 9-9 10-16 22-7 12-6 12-5 12-4 12-2 10-1 10 1 7 2 7 4 5 4 3 6 3h7l9-1 9-2 10-4 10-5 11-6 22-14 11-9 10-8 18-18 6-10 7-9 5-9 3-9 3-7 1-7 1-4v-4l-1-3-4-6-4-2h-5l-3 2-2 4 2 5 3 5 3 3 4 3 4 4 4 3 10 8 5 5 4 6 5 6 4 7 3 8 4 16v8 9l-4 16-2 7-6 13-8 8-4 2-8 2-6-2-4-2-1-4-2-4v-7-7l2-8 2-9 4-10 5-10 6-11 7-12 8-11 8-12 9-12 10-12 9-10 10-11 10-8 9-7 8-5 7-3 6-2h4l3 1 6 10" style="clip-to-self:true;comp-op:src"/>
<path transform="scale(.1)" d="m4890.3 718.44 3 4h4 6l4-1 5-1 6-1 6-2 7-2 8-2 18-6 10-5 10-3 9-5 10-4 8-5 7-4 7-5 10-10 4-5 1-5 2-5v-5l-1-5-1-3-3-4-4-3-4-1-7-1h-7l-16 2-9 3-18 8-9 6-8 7-8 8-8 10-12 20-6 11-4 12-4 11-4 22v11l1 9 3 9 4 7 6 6 7 5 9 3 11 3h12l14-1 13-3 15-4 14-5 14-7 13-7 29-20" style="clip-to-self:true;comp-op:src"/>
<path transform="scale(.1)" d="m5068.1 663.75-2 2-1 5-1 4v3l1 4v3l1 3 2 8 2 5 1 5 2 6 1 6 2 7 1 7 2 16 2 7 1 7v8 7 5 5l-1 4-1 3-2 4-2-2-1-7v-10-6l1-6v-8l2-7 1-9 3-9 2-9 8-20 5-11 6-10 7-9 8-9 7-8 8-6 16-10 7-2 8-2h8 7l7 2 6 2 12 10 5 6 4 8 3 8 2 10 1 9v10l-1 11-2 10-3 11-3 9-3 10-3 9-3 8-3 7-1 6-2 4v4l2-4 3-3 11-15" style="clip-to-self:true;comp-op:src"/>
<path transform="scale(.1)" d="m5352.2 637.5-3-2-6-2h-3l-9 1-5 1-12 4-7 3-7 4-12 10-7 7-5 7-9 15-3 8-2 8-3 9v9 8l2 9 2 8 4 8 5 8 7 7 8 5 9 5 10 3 11 2 12 2 12-1 13-1 13-2 13-3 13-5 12-4 12-6 11-6 10-7 11-8 9-9 8-9 7-10 12-22 4-11 3-12 2-11v-11l-1-9-2-8-3-6-5-5-6-3-7-2h-7l-7 1-7 3-8 3-8 6-7 6-7 7-7 9-5 9-5 10-3 10-2 11-1 11 1 10 3 10 5 9 7 9 10 8 12 7 13 5 15 3 17 1h18l18-1 19-3 41-10" style="clip-to-self:true;comp-op:src"/>
</g>
<path d="m399.44 89.406h159.34" stroke-width="1.41" style="clip-to-self:true;comp-op:src"/>
</g>
<path transform="scale(.1)" d="m4478.4 1170.9 4 1h3l10 2h3 4l6 1h4 14l8 1h18l11-1h12 14l15-1 17-1 19-1 19-2 21-1 20-1 38-2 18-1h17 15 14l12 1 10 1 9 1 8 1 6 1 5 1 3 1 3 2 6 6 4 3 2 3h-4l-3 1" stroke="#f0f" stroke-width="14.1" style="clip-to-self:true;comp-op:src"/>
<g stroke="#fff" stroke-width="14.1">
<path transform="scale(.1)" d="m2442.8 1690.6-1-4-3 6-1 5-3 7-3 8-3 11-9 27-5 17-6 19-6 20-6 21-6 22-7 20-7 19-6 18-5 16-6 13-4 12-4 10-3 7-2 6-2 5-2 3-1-5 2-4 2-6 3-7 3-8 5-9 4-10 5-10 4-12 6-14 6-15 5-16 7-18 14-40 8-21 9-20 9-19 9-17 8-14 8-12 6-8 5-6 4-3 3-1 3 2 1 4 1 5 1 7 1 8 2 20 1 12v12l2 28 2 15 2 14 2 15 3 15 4 13 3 13 3 12 4 11 8 18 3 8 3 6 6 10 2 4 2 2 2 4 2-4-3-9" style="clip-to-self:true;comp-op:src"/>
<path transform="scale(.1)" d="m2380.9 1869.4 1-5v-3l3-5 6-6 4-2 5-3 5-4 14-6 9-3 10-4 11-4 12-3 29-7 16-4 32-10 17-5 37-13" style="clip-to-self:true;comp-op:src"/>
<path transform="scale(.1)" d="m2684.7 1793.8 3-2 5-2 3-1 10-2 6-1 6-2 24-3h7l7-1h6 6 11" style="clip-to-self:true;comp-op:src"/>
<path transform="scale(.1)" d="m2694.4 1874.7 5-1 5-2 8-1 6-2 6-1 5-1 7-2 7-1 7-2 16-2 9-1 8-1 8-3 16-4 16-3" style="clip-to-self:true;comp-op:src"/>
<path transform="scale(.1)" d="m3150 1615 1-4 2-6 1-5v-3l-3-2-3 1-3 2-4 2-3 3-6 4-4 5-14 13-6 7-7 8-8 8-6 8-7 8-5 8-5 7-4 7-3 6-2 12v5l1 5 2 4 8 8 5 3 5 2 6 3 14 4 8 1 8 2 16 2 7 1 6 1 6 2 5 1 5 2 4 1 4 4 1 4-2 6-2 3-3 4-3 5-4 4-10 8-4 4-5 4-4 4-5 3-4 4-4 3-6 6-3 2-3 4-1 4 1 3 2 3 4 2 3 1 4 1 5 1h4l6 1 5 1 12 2 6 2 10 6 3 2 3 5 2 4 1 5v4l-4 12-8 12-5 8-6 6-7 6-7 7-7 6-8 7-9 6-8 6-9 6-24 17-8 5-7 6-5 4-9 9-3 4-2 4-1 4v3l1 4 4 6 4 2 3 2 9 4 7 2 14 2h8 9 9l10-1 22-4 11-1 11-3 23-5 11-3 11-2 11-3 9-1 8-1 6-1 5-1 3-1-13-1" style="clip-to-self:true;comp-op:src"/>
<path transform="scale(.1)" d="m3424.1 1712.2 3 1 1 6v4 5l1 6-1 6v7 8l-1 8-2 18v10 32l-1 11v32l1 21" style="clip-to-self:true;comp-op:src"/>
<path transform="scale(.1)" d="m3587.8 1860.9-4 1-3 2-7 7-4 5-8 11-10 14-6 7-5 8-6 8-5 8-6 8-5 8-4 8-5 7-3 7-3 6-2 6-2 4-1 3" style="clip-to-self:true;comp-op:src"/>
<path transform="scale(.1)" d="m3745.6 1741.2v-6l2-8 1-3 3-3 4-3 5-2 6-3 6-2 7-2 7-1 8-2 7-2 7-1h8 6l7 1 6 2 5 2 3 2 4 4 2 10-1 7-2 7-4 7-4 9-6 9-7 10-8 9-16 20-10 9-8 9-9 9-7 9-7 7-6 7-5 6-3 4-2 5-1 3v3l4 5 4 1 5 1 7 1h8l8-1 18-2 10-1 19-3 8-2 9-1 8-2 7-1 6-1 10-4 3-2 6-3" style="clip-to-self:true;comp-op:src"/>
<path transform="scale(.1)" d="m3962.2 1881.2-3 1-6 1-4 2-3 1-4 2-8 6-8 8-8 10-12 18-3 7-3 6-3 7-3 6-4 12-2 5-4 8-5 6" style="clip-to-self:true;comp-op:src"/>
<path transform="scale(.1)" d="m4111.2 1730.3-3-1-6-4 2-3 4-3 4-1 4-2 6-2 5-2 6-1 7-2 8-1 7-2 7-1h7l7-1h6l15 3 3 2 2 2 2 3v4l-1 3-1 5-3 4-4 6-5 5-6 5-7 6-8 6-7 6-8 6-9 5-8 5-14 8-6 4-5 3-4 2-2 2v4l5 2h5l6 1h7l8 1h8l27 3 9 2 8 2 7 2 7 3 6 3 5 4 4 4 2 4 1 6v5l-1 5-2 6-4 5-5 6-7 5-6 5-8 5-9 5-18 8-9 3-10 3-9 2-8 3-8 2-8 1-7 1h-6-6l-6-1-4-1-3-2-4-8" style="clip-to-self:true;comp-op:src"/>
<path transform="scale(.1)" d="m4335.6 1621.6 2-3 4-4 4-2 3-1 5-3 18-6 8-2 8-3 8-2 9-3 8-1 18-4h9l9-1h8l7 1 6 1 5 2 4 3 3 3 1 5v5l-1 5-3 7-4 7-5 8-6 8-7 8-8 9-8 8-18 16-8 8-8 7-8 6-16 16-2 4-2 3v3l1 3 2 3 4 2 5 2 7 2 14 2 10 1 9 1 20 2 27 6 8 3 6 3 5 3 4 3 2 4 1 4-2 10-6 10-4 5-16 16-5 4-4 5-6 8-2 4-1 4v3 3l4 6 3 3 8 5 5 3 6 3 6 2 7 2 6 2 7 3 7 2 6 3 5 3 6 3 8 8 4 8 1 5v4l-2 5-2 4-4 5-5 4-6 5-7 4-16 9-18 8-19 7-10 2-9 3-27 6-10 2-8 2-16 2h-14l-13-3" style="clip-to-self:true;comp-op:src"/>
<path transform="scale(.1)" d="m5742.8 1637.8 2 6 1 5 2 6 4 14 1 9 2 9 2 11 2 10 3 12 1 12 3 13 4 25 2 12 2 13 2 11 2 10 2 9 2 8 1 6 2 5 1 4 2-4" style="clip-to-self:true;comp-op:src"/>
<path transform="scale(.1)" d="m5732.2 1707.5-3-9 1-5 8-8 5-3 6-2 6-3 7-2 8-3 8-1 10-2 18-2h10 9l10 1 8 1 7 2 7 3 5 4 4 4 3 5 1 5v5l-2 5-3 7-4 6-5 6-13 13-8 5-7 6-9 5-7 4-9 4-14 6-6 3-5 2-6 4 4 2h3 6l7 1h28 10l22 2 11 2 11 3 10 3 9 4 8 5 7 5 5 5 4 6 2 14-1 7-3 7-4 7-5 6-13 13-7 5-8 5-9 4-8 3-10 3-9 3-10 3-9 2-9 1-9 2-10 1-8 1h-9l-8 1h-7l-6-1h-4l-3-1-2-5 1-3 8-9" style="clip-to-self:true;comp-op:src"/>
<path transform="scale(.1)" d="m6028.4 1740.3 2-2 6-1 5-1h4 6l12-2h8l7-1h9l8-1h15l7 1 6 1 9 1-3 6" style="clip-to-self:true;comp-op:src"/>
<path transform="scale(.1)" d="m6012.5 1821.6 1 2h5l10-2 5-2 6-2 8-2 9-2 10-2 11-2 22-6 13-3 11-4 28-9" style="clip-to-self:true;comp-op:src"/>
<path transform="scale(.1)" d="m6435.6 1646.2 12-10 8-6 7-6 7-5 5-5 5-4 4-3 6-6 1-4-3-4-4-1h-4-6-7l-8 2-9 2-20 6-10 5-11 5-11 6-10 6-18 14-7 7-6 7-5 8-3 8-2 8v7l2 8 3 7 12 14 8 6 8 5 9 5 9 4 20 8 10 3 16 6 7 3 6 2 4 3 2 3 1 5-2 3-3 3-5 2-12 6-24 9-9 2-7 3-8 3-7 2-6 3-4 3-3 2-2 4 5 4 3 2 5 2 6 2 7 2 6 2 14 6 18 12 4 6 4 5 3 6 2 6v5 6l-2 6-3 5-4 5-4 6-12 10-6 4-7 5-28 16-5 4-6 4-4 3-3 3-2 3v4l6 3 6 1 7 1h20l13-1h14l16-1h17l17-1 18-1 32-2 14-1 13-1 11-2 9-2 6-2 9-6" style="clip-to-self:true;comp-op:src"/>
<path transform="scale(.1)" d="m6722.5 1741.9-3-3-5-3-2-3v-4l4-4 7-5 5-2 5-4 6-3 7-3 8-2 9-3 9-2 10-3 10-1 10-2h10 10l8 1 8 2 7 2 5 3 5 4 2 4 1 6v5l-1 7-8 14-6 8-7 7-7 8-8 8-9 7-9 8-9 6-8 7-8 5-14 10-6 5-10 6-2 2-3 2-1 4 5 2h3l12 2h8 9 20 12 12l12-1 13-1h12l22-2 10-1 8-1 7-1 17-4" style="clip-to-self:true;comp-op:src"/>
<path transform="scale(.1)" d="m7038.8 1830.6-7 4-2 3-8 6-4 4-5 4-5 5-6 5-6 6-6 7-7 7-7 8-8 8-7 8-8 7-6 8-7 8-6 7-5 6-8 10-2 4-1 3 1 5 5 2 8-2 6-2 5-3 7-3 16-10" style="clip-to-self:true;comp-op:src"/>
<path transform="scale(.1)" d="m7225.6 1711.9-5-4-5-3-3-1h-5l-4 2-3 2-8 4-4 5-5 3-12 10-25 25-6 7-5 6-4 6-3 6-3 5-1 5v4l4 6 3 2 5 2 6 1 7 1h9l11-1 12-1 13-1 28-2 15-1 42-3 24-2 11-1 9-1 8-1h6l6-1h4l3-1" style="clip-to-self:true;comp-op:src"/>
<path transform="scale(.1)" d="m7229.1 1737.2 1-3 3-1 2 3 1 5 1 4v4 6 33 10 12l-1 12v83l1 12 1 10 1 9 2 8 3 9 6 2" style="clip-to-self:true;comp-op:src"/>
<path transform="scale(.1)" d="m7384.4 1647.5-1-4 2-3 6-3 5-1 5-2 7-2 8-2 18-4 11-2 11-1 12-2 12-1 12-2h13 24l12 1 9 1 8 2 7 4 4 4 3 4v6l-1 6-3 7-5 7-7 8-8 9-9 8-10 8-11 9-20 16-9 7-9 6-8 6-6 6-6 4-4 4-3 4-1 3v5l5 5 5 2 6 2 7 2 8 3 9 2 20 4 35 6 11 2 10 3 9 2 8 3 6 3 5 4 3 4 1 4-1 5-2 5-10 10-7 6-8 5-9 5-19 9-10 5-8 5-8 4-7 4-6 4-4 3-3 3-2 5 4 4 4 2 6 2 7 1 8 2 18 4 11 2 10 2 11 4 20 6 8 5 8 4 6 5 5 4 4 6 2 5v6l-2 5-4 6-5 6-7 5-9 5-11 5-11 4-13 4-13 2-13 3-26 4h-12-11-10l-10-1-9-2-7-3-6-3-4-5-4-16" style="clip-to-self:true;comp-op:src"/>
<path transform="scale(.1)" d="m3765.6 2627.5-1-3-2 2-1 3-4 8-2 6-3 7-4 8-3 10-4 10-5 12-10 26-6 14-5 15-12 28-5 14-5 13-4 11-3 10-2 9-2 7-2 5-2 8 2-6 2-4 2-7 3-6 3-8 4-9 3-9 4-11 4-10 5-13 4-12 6-14 5-15 12-32 14-34 7-16 13-26 5-9 5-8 3-4 6-6 3 2 3 5 1 4 1 6 2 7 1 7 1 9 2 20v11 13l1 12v14 13l1 14v14 14l1 14v12l1 12 1 11 1 10 1 9 2 8 1 7 2 5 1 4v3l2 4 2-5-1-3-2-4-4-11" style="clip-to-self:true;comp-op:src"/>
<path transform="scale(.1)" d="m3729.7 2777.8 2-3 6-6 4-3 3-2 10-6 6-2 7-3 16-6 10-3 21-5 12-3 22-4 10-1 10-2 10-1 10-3 21-4" style="clip-to-self:true;comp-op:src"/>
<path transform="scale(.1)" d="m3972.5 2728.1 4 1 4-1h4 4l6-1h6l7-1h8l8-1 9-1h9 9 9l10-1 16-2 7-2 12-4" style="clip-to-self:true;comp-op:src"/>
<path transform="scale(.1)" d="m4164.1 2650.9 6-4 3 1 1 5v14 5l-1 7-3 24-2 9v9l-1 9-1 10v38l1 8 1 6 1 7 4 8 4-1" style="clip-to-self:true;comp-op:src"/>
<path transform="scale(.1)" d="m4176.6 2676.9-1-4v-8l3-12 3-3 2-3 4-4 4-3 5-2 12-6 8-1 7-2 8-1 18-2 16 2 8 2 6 3 6 4 4 4 2 4 2 6v6l-2 5-2 7-3 7-10 14-6 7-7 6-7 7-6 7-7 5-6 6-7 3-4 4-5 3-3 2-4 2 3 3h3 5l5 1h16 9l10 1 11 1 10 1 10 3 9 2 8 3 7 4 4 4 4 5 1 5v6l-2 7-3 7-5 7-6 7-13 13-8 6-24 15-8 4-8 3-14 4-12 2h-6-4l-5-1-6-4-2-2-2-3v-4-4-5l6-13" style="clip-to-self:true;comp-op:src"/>
<path transform="scale(.1)" d="m4482.8 2739.4 1-2 3-4 5-3 3-1 5-1 6-1 6-2 8-2 16-2h9 8 17 8 6l6 1 4 1 5 1" style="clip-to-self:true;comp-op:src"/>
<path transform="scale(.1)" d="m4470.3 2794.4h5l3-2h4l4-2 6-1 7-1 7-2 9-1 9-2 10-2 20-2 22-2 18-2 8-1 6-1 12-4" style="clip-to-self:true;comp-op:src"/>
<path transform="scale(.1)" d="m4931.6 2583.4 2-3 2-4 3-5 5-10 2-5 1-4 1-5 1-4v-7-3l-2-5-5-3-3-1h-4l-4 1-6 2-6 3-8 3-8 6-9 6-10 7-9 7-11 9-9 8-16 16-6 8-4 8-3 8-2 6v7l2 7 3 6 5 6 7 5 7 6 8 5 10 4 10 5 11 4 10 5 10 4 9 5 8 4 8 6 5 6 4 6 2 6v6l-1 7-3 7-4 7-5 6-12 12-15 10-7 4-8 3-12 6-6 2-4 1-4 2 4 1h4 5l6 1h7l8 1 7 1 16 4 7 2 6 3 6 4 4 4 4 5 2 6v5 6l-1 7-8 14-5 7-6 8-6 7-8 7-7 7-8 6-16 14-14 10-7 6-5 4-4 5-3 5-3 4-2 4-1 5v4 5l2 8 2 5 3 4 4 3 4 4 6 3 7 2 8 3 10 1 11 1h11l13-1 14-1 15-2 16-2 30-4 14-3 13-2 11-2 20-5" style="clip-to-self:true;comp-op:src"/>
<path transform="scale(.1)" d="m5200.6 2635 1-3v-4 4l-3 6-1 5v5l-2 5-2 13v7l-1 7v7l1 8v7l1 7 1 8 4 28 2 7v7l1 7 2 12v5 5 4l-1 8" style="clip-to-self:true;comp-op:src"/>
<path transform="scale(.1)" d="m5327.8 2782.2 2-6-2 3-10 20-2 5-12 28-4 8-3 8-6 17-3 7-3 8-2 6-2 5-6 6" style="clip-to-self:true;comp-op:src"/>
<path transform="scale(.1)" d="m5485.6 2654.1v-10l1-3 3-3 9-6 5-1 5-2 6-2 14-4 9-1 8-2 18-2h8l8-1 7 1 5 1 6 2 3 2 3 3 1 3v5l-1 4-3 5-10 14-15 14-9 8-18 14-9 6-8 5-7 5-7 4-5 4-4 2-3 2 1 3h15l8-1h9l10-1 11-1h21 10l18 2 8 3 6 2 5 4 3 4 2 4v6l-1 6-2 5-3 7-5 6-12 12-7 6-7 4-8 6-7 4-7 3-6 4-12 4-5 3-3 1-4 1-8 4-4 3-4 2-5 2-2 1-4 1-9 1" style="clip-to-self:true;comp-op:src"/>
<path transform="scale(.1)" d="m5676.6 2530.9v-4l3-2 3-1 4-1 5-1h6l7-2h9l9-1 20-2 22-2h11l9-1 9 1h8l6 2 6 1 4 2 4 3 2 5 1 4v5l-1 5-2 7-3 6-5 8-6 7-6 8-16 15-8 8-8 7-14 14-6 5-8 10-3 4-1 4v3 4l2 3 6 6 4 3 5 3 6 2 6 3 7 3 6 3 15 5 7 3 6 2 6 3 5 3 4 3 3 4 2 4v5 5l-4 12-8 12-5 6-6 6-7 6-6 5-6 6-7 4-6 4-5 4-5 3-5 5-2 4 3 5 3 2 4 1 6 2 7 2 16 4 9 1 18 4 24 9 12 8 5 4 3 6 3 5 1 7v6l-1 8-3 7-3 8-10 16-5 7-7 7-7 6-7 5-8 6-7 3-8 4-8 3-8 2-9 2-8 1-16 3-8 1-9 1h-9l-9 1-10 2-10 1h-11l-29 1" style="clip-to-self:true;comp-op:src"/>
<path transform="scale(.1)" d="m3078.4 3362.8v-4-4l-1-5-8-6-3-1h-4-3-5l-5 1-12 4-14 6-7 4-15 9-7 5-18 18-5 6-6 12-2 5-1 5 1 4 2 4 4 4 5 4 7 3 7 2 8 3 10 1 10 2 10 1 9 2 10 2 16 4 7 3 5 3 5 4 4 8 1 5-2 8-2 4-2 3-3 4-4 4-5 3-4 3-9 5-5 3-4 1-4 2-3 1-4 2 3 2h3l4 1h5 13l12 2 7 1 6 2 10 6 3 4 2 4 2 5v5 5l-4 12-3 6-4 7-4 6-6 6-6 7-7 7-7 6-8 7-8 6-7 6-8 5-7 6-14 10-5 4-5 5-4 5-2 4-1 4-1 3 1 3 1 4 3 2 4 4 5 2 6 3 7 1 8 2 8 1h19l11-1 12-1 11-1 24-4 11-2 12-3 10-2 9-1 21-7 5-2 3-2 4-2" style="clip-to-self:true;comp-op:src"/>
<path transform="scale(.1)" d="m3295.3 3455-3-3-2-3-3-5v-3l4-4 3-1 4-2 5-2 6-1 7-2 7-1 7-2h8 7 7l7 2 5 3 5 4 3 4 2 6 1 7-1 7-2 9-3 9-4 10-5 9-21 27-7 8-7 7-7 6-6 5-6 4-4 3-6 4 5-4 3-3 5-4 6-3 7-6 7-5 18-12 10-7 11-7 10-7 10-9 10-8 30-27 17-17 6-7 11-11 2-3v-3h-5l-4 1-12 8-8 6-9 7-28 28-8 11-8 10-14 20-5 9-4 9-3 8-1 8v7l1 6 3 4 3 5 6 3 6 2 8 2h8 9l11-2 10-1 11-2 20-6 10-4 8-4 7-4 16-11" style="clip-to-self:true;comp-op:src"/>
<path transform="scale(.1)" d="m3580.6 3390v-6-3-3l-1-4-1 4 2 6v4l1 5v4l1 5 2 8 2 12" style="clip-to-self:true;comp-op:src"/>
<path transform="scale(.1)" d="m3612.2 3529.7 3-2 3 1-3 2" style="clip-to-self:true;comp-op:src"/>
<path transform="scale(.1)" d="m3882.5 3453.4v-4-6l1-5 4-6 4-2 3-3 10-6 6-3 8-1 16-4 9-1h9 9l8 1 8 2 7 3 6 3 5 5 3 5 3 7 2 7v8 8l-1 9-3 10-2 9-4 9-4 10-5 9-5 8-6 8-5 7-7 6-6 5-5 4-10 5-8 2h-4l-1-3 2-4 3-3 4-3 6-5 5-4 7-6 7-5 16-12 17-14 9-7 9-8 9-7 8-8 8-7 7-8 6-7 6-6 5-6 3-4 2-4 1-4-3-1-3 2-4 1-5 3-6 4-6 6-7 5-7 7-14 16-8 9-6 9-7 10-12 20-5 11-4 11-4 10-3 10-1 9v9l1 9 3 7 5 6 6 6 7 4 8 2 10 1h10l13-1 13-3 13-4 15-5 13-5 33-14" style="clip-to-self:true;comp-op:src"/>
<path transform="scale(.1)" d="m4390.6 3429.7 1-3 3-5v-5l-4-3-3-1-10-2h-6-7l-7 1h-9l-10 2-9 2-10 3-10 4-11 5-10 5-9 6-9 8-8 7-14 18-6 10-5 9-4 9-2 9-1 9v8l2 8 3 8 5 6 6 6 8 5 9 5 12 3 13 2 15 1 16 1 16-1 17-2 32-4 15-3 26-6 10-4 9-4 7-3 5-4 6-8" style="clip-to-self:true;comp-op:src"/>
<path transform="scale(.1)" d="m4194.4 3522.2h3l6-2 8-2 6-1 7-1 8-2 10-1 10-2 12-3 14-2 15-3 17-2 16-3 36-6 16-3 16-2 15-4 13-3 30-9" style="clip-to-self:true;comp-op:src"/>
<path transform="scale(.1)" d="m4672.5 3387.2-4-6-3-4-3-3-4-3-2-2-4-1-5-1-4 1h-3l-2 2-3 2-6 7-3 5-2 5-3 6-3 7-2 7-3 8-3 9-4 9-3 10-12 30-4 11-4 9-3 9-3 8-3 7-2 6-1 5-1 3-1 5 3-1 4-6 7-8 4-5 3-6 8-14 4-8 10-16 4-9 10-20 24-40 6-9 12-14 4-5 4-3 3-2 4-2 4 2 3 6 2 10v5l2 7v8l1 7 1 8v9l2 20 1 9 6 30 4 18 3 9 3 7 4 14 3 6 1 4 2 4 2 5-5-7" style="clip-to-self:true;comp-op:src"/>
<path transform="scale(.1)" d="m4582.8 3499.1 1-3 4-2 6-1 4-1 11-3 7-1 8-2 30-6 11-3 10-4 10-3 23-9" style="clip-to-self:true;comp-op:src"/>
</g>
<g stroke-width="14.1">
<path transform="scale(.1)" d="m5165 3444.1h-8-5l-6 1-7 1-6 1-7 2-8 3-7 3-16 8-16 12-15 15-7 8-7 9-6 8-5 10-4 9-2 8-1 9v8 7l3 7 3 5 4 5 4 4 5 3 5 2 6 1 14-2 7-3 16-8 8-5 8-6 8-7 14-14 12-16 4-7 5-8 3-7 3-8 4-14 2-6 1-6 1-4 2-6v4l-2 10v7l-2 16-1 9v10 9l1 10 2 18 2 9 3 7 2 7 8 8 3 2 5 1h4l6-2 6-3 5-5 6-5 10-14 5-8 8-16 3-9 3-8 6-18 2-8 3-8 1-7 3-6 2-6 2-3 1-4 3-2 2 2 1 4 1 3 1 6v6l1 6v24 7l1 7v6l1 6v4l1 4 1 3 2 3 4-2 1-3 3-4 2-5 3-6 3-5 4-6 8-14 5-7 5-8 7-7 6-7 7-6 8-7 16-10 9-3 7-2 8-2 7 1 5 1 6 3 5 4 3 5 2 6 2 8v8 10l-2 20-1 11-2 11-1 11-2 11-2 18-1 7v8l3 2" stroke="#f0f" style="clip-to-self:true;comp-op:src"/>
<path transform="scale(.1)" d="m5635 3488.4v-4l-2-5-1-3-6-4-8-4-3-1-5-1h-5l-6-1-6 1-7 1-6 2-8 3-8 4-7 4-9 6-7 6-8 6-7 8-6 8-6 9-4 9-3 10-4 20v9l1 9 2 7 3 7 4 5 10 6 7 1h8l7-2 9-3 8-3 18-10 16-14 7-7 7-8 12-16 4-9 5-9 3-9 4-10 6-33 1-12 1-11v-12l1-12-1-13v-22-9l-1-7v-5-3l-3 7v5l-2 7-1 8-2 9-1 11-2 12-1 12-1 13v12l-1 14v25l1 13v13l1 12 2 12 3 13 2 11 3 12 2 10 3 10 2 9 7 18" stroke="#f0f" style="clip-to-self:true;comp-op:src"/>
<path transform="scale(.1)" d="m5906.6 3472.2 3-3 3-2 3-3 4-2 4-1 6-3 6-1 6-3 8-1 8-2 7-1 8-1h8l7 1 12 4 8 8 3 5 1 6 2 6-2 16-1 7-3 9-3 8-3 9-4 7-5 7-4 7-6 5-5 5-5 4-6 4-5 2-6 2-5 2-10 2h-7l-5-1-2-3 2-3 5-3 4-3 5-3 7-3 8-4 8-5 18-10 11-6 10-7 12-6 11-7 11-8 12-7 11-8 21-16 16-14 7-6 6-7 6-10 1-4-1-3-4-5-3-1h-5l-5 2-6 2-7 3-7 4-14 10-7 6-8 7-6 7-6 8-10 16-3 8-4 9-2 8-2 10-1 9-2 9v16l4 14 3 5 4 5 5 4 6 2 7 2 8 1h9l9-1 10-1 11-2 10-3 10-2 10-3 9-2 7-3 6-2 4-2 3-3 2-4-5-4" stroke="#fff" style="clip-to-self:true;comp-op:src"/>
</g>
<g stroke="#f0f" stroke-width="14.1">
<path transform="scale(.1)" d="m6536.9 3435.3 3-3v-3l-3-2-4-2-5-1h-6-5-5l-5-1h-14l-8 1h-8l-8 1-10 1-20 4-10 3-11 2-10 3-11 4-33 15-10 5-18 12-8 7-7 6-12 14-8 14-6 16-1 8v8l1 8 1 7 3 8 4 7 10 14 7 5 8 5 9 5 9 3 11 3 11 1 12 2h13 13 13l13-2 15-1 13-2 28-4 24-4 11-2 18-4 7-1 4-1 5-1 5-2 2-2h-4-3l-4-1-7-2" style="clip-to-self:true;comp-op:src"/>
<path transform="scale(.1)" d="m6276.2 3551.6 2-4 4-2 4-1 6-2h4l5-1h6l7-1h8l9-1 21-1 12-1 13-1 12-1 28-4 15-1 16-1 15-2 15-1 14-2 14-1 22-2h8 7 11 3l-5 3-3 1-5 1-4 1h-17l-5-1-14-2" style="clip-to-self:true;comp-op:src"/>
<path transform="scale(.1)" d="m6505 3299.1-4 3-2 2-1 3-3 5-3 4-2 6-3 7-3 8-4 9-4 10-4 11-6 13-5 15-6 17-7 19-7 21-6 21-21 66-12 42-4 19-5 18-4 16-3 14-2 11-3 11-2 9-1 7-1 6-2 10-1 3v4l3 3 3-3 2-4 3-5" style="clip-to-self:true;comp-op:src"/>
</g>
<g stroke="#fff" stroke-width="14.1">
<path transform="scale(.1)" d="m6772.5 3403.1v-3l1 4 2 6 1 5 1 6 1 7 1 9 2 10 1 11 2 24 4 28 1 13 1 14 2 13 3 24 1 10 2 9v8l2 6 1 5 1 3 6-11" style="clip-to-self:true;comp-op:src"/>
<path transform="scale(.1)" d="m6806.6 3450.9 1-3 4-5 3-1 3-2 5-2 5-1 14-4 8-1 27-3h9 9l8 1 14 4 5 3 4 5 2 5v6 8l-2 7-4 9-4 8-6 9-7 9-8 9-9 9-9 8-20 14-9 6-8 5-8 4-15 8-3 1 5-1h4l7-2 8-2 9-1 9-2 11-1 10-1 11-1 10-1h11 9l10 1 9 1 8 2 14 6 4 4 3 5 1 5v6l-1 6-2 5-8 12-5 5-6 5-8 5-7 5-8 4-9 4-18 6-10 2-9 1-10 2h-10l-11 1h-10-35-6-6l-3-1-3-3 8-8 17-9" style="clip-to-self:true;comp-op:src"/>
<path transform="scale(.1)" d="m7022.5 3392.8-2-2 2-3 5-2 3-2h5l4-1 12-2 7-1h7l24-3h8 25 8l14 2 6 3 6 2 4 3 3 3 2 3v5l-1 5-3 6-4 7-5 6-14 16-16 16-10 8-9 7-9 8-9 6-8 7-7 6-7 5-6 5-9 9-3 4-1 4-1 3 3 5 2 2 4 2 6 1 5 1 8 1h7 9l9 1h9 9l9 1h9l8 1 7 1 7 2 8 4 3 3 1 3-1 3-2 5-4 4-5 4-6 5-7 6-7 5-8 5-8 6-8 5-8 6-7 4-12 10-7 7-2 4-1 3v5l5 4 3 2 4 2 6 2 5 2 6 1 6 3 7 2 7 3 6 3 12 8 5 5 5 4 4 5 3 5 1 6v6 6l-1 5-3 6-3 5-5 5-4 5-12 8-7 4-14 7-7 2-8 3-8 2-7 2-16 2-14 2h-7-6l-6 1h-6-4-6l-4-1-10-2-12-7" style="clip-to-self:true;comp-op:src"/>
<path transform="scale(.1)" d="m5310.3 4749.4v19l-4 38-3 18-4 19-5 18-6 19-7 18-8 18-8 17-10 18-10 17-11 17-12 17-14 16-13 16-15 16-32 30-17 15-19 13-18 14-20 13-20 12-21 11-22 11-23 11-46 18-24 9-26 7-24 7-52 10-27 4-27 3-26 3-27 1h-27-27l-27-1-54-6-26-4-52-10-50-14-48-18-23-9-23-11-22-11-21-11-20-12-20-13-18-14-19-13-17-15-32-30-15-16-26-32-13-17-11-17-10-17-10-18-8-17-8-18-7-18-6-19-5-18-4-19-3-18-4-38v-19-18l4-38 3-19 4-18 5-18 6-19 7-18 16-36 10-17 10-18 11-17 13-16 13-17 13-16 31-31 16-15 17-14 19-14 18-13 20-13 20-12 21-12 22-11 46-20 24-9 24-8 50-14 26-6 26-4 26-5 27-3 27-2 54-2 54 2 26 2 27 3 27 5 26 4 26 6 24 7 26 7 24 8 23 9 46 20 22 11 21 12 20 12 20 13 18 13 19 14 17 14 16 15 31 31 13 16 14 17 12 16 11 17 10 18 10 17 16 36 7 18 6 19 5 18 4 18 3 19 4 38v18" style="clip-to-self:true;comp-op:src"/>
<path transform="scale(.1)" d="m6093.1 4857.5-1 20-1 19-2 20-3 20-4 19-5 20-12 38-8 19-9 19-9 18-10 19-11 18-12 17-12 18-14 16-14 17-15 16-16 16-17 15-17 14-19 15-38 26-20 12-21 12-22 11-22 10-23 10-23 9-48 16-24 6-25 6-25 4-26 5-26 3-26 2-25 1-26 1-26-1-27-1-25-2-26-3-26-5-25-4-25-6-24-6-48-16-23-9-23-10-22-10-22-11-21-12-20-12-20-13-18-13-19-15-17-14-17-15-16-16-15-16-14-17-14-16-12-18-12-17-11-18-10-19-10-18-16-38-12-38-5-20-4-19-3-20-2-20-2-19v-20-20l4-40 3-20 4-19 5-20 12-38 16-38 20-36 11-19 24-34 28-34 15-16 16-16 17-15 17-14 19-14 18-14 20-13 20-12 21-12 22-11 22-10 23-10 23-9 24-8 48-14 50-10 26-4 26-3 25-3 27-1h26 26l25 1 52 6 26 4 50 10 48 14 24 8 23 9 23 10 22 10 22 11 21 12 20 12 19 13 38 28 17 14 17 15 16 16 15 16 28 34 24 34 11 19 10 18 9 18 9 19 8 19 12 38 5 20 4 19 3 20 2 20 2 40" style="clip-to-self:true;comp-op:src"/>
<path transform="scale(.1)" d="m3958.8 4266.2v-3l2-5v-5l-2-3-2 4-3 5-2 4-2 5-2 6-13 26-5 12-6 11-18 39-17 35-6 9-4 8-3 8-3 6-3 4-2 8 7-7 3-5 4-6 10-16 6-10 6-11 6-13 7-14 6-15 7-16 8-17 7-18 8-19 8-18 9-18 9-16 9-15 8-13 7-11 7-9 4-6 4-4 4-2h4l2 6 1 5 1 6 1 9v9l1 11v12l-2 26v16l-1 15-1 16v17l-2 16v17 55 11l1 9 1 8 1 7v6l1 4 1 3 2 4 3 1 2-4v-3-4l-4-8" style="clip-to-self:true;comp-op:src"/>
<path transform="scale(.1)" d="m3946.2 4367.2v-4l1-5 5-4 4-2 6-2 7-2 9-3 20-6 14-2 13-3 15-2 64-12 37-11" style="clip-to-self:true;comp-op:src"/>
<path transform="scale(.1)" d="m6063.1 4210.3-1-3v-3l-3 2-1 5-1 3v20l1 6v8l1 8 1 9v10l1 10 1 11v11 11 31 8 7l-1 5-1 3" style="clip-to-self:true;comp-op:src"/>
<path transform="scale(.1)" d="m6041.9 4250.9 2-6 1-4 2-4 3-4 3-3 5-3 4-3 7-3 7-2 8-3 9-3 10-2 10-3 22-3 10-2h10 9l8 1 6 3 5 3 3 3 2 5v5l-3 5-3 7-4 7-6 7-7 7-8 7-8 8-9 7-18 12-10 6-14 10-6 3-8 6-3 4 5 3 3 1h6l7 1h8l9 1 30 3 20 4 9 3 16 8 6 5 5 6 3 6 2 6v7l-1 7-2 7-5 6-5 7-7 6-8 6-9 5-10 5-10 3-11 4-11 2-11 1-11 2h-10-19l-16-2-7-1-6-2-6-3-6-4-8-10" style="clip-to-self:true;comp-op:src"/>
</g>
<g stroke="#f0f" stroke-width="1.41">
<path d="m446.38 428.78-39.031 43.312" style="clip-to-self:true;comp-op:src"/>
<path d="m467.62 425.09-59 65.719" style="clip-to-self:true;comp-op:src"/>
<path d="m481.78 425.09-67.344 75.969" style="clip-to-self:true;comp-op:src"/>
<path d="m495.44 432.53-70.344 77.594" style="clip-to-self:true;comp-op:src"/>
<path d="m485.41 471.38-46.656 46.625" style="clip-to-self:true;comp-op:src"/>
<path d="m481.78 495.94-28.344 28.344" style="clip-to-self:true;comp-op:src"/>
<path d="m487.38 509.25-14.406 14.375" style="clip-to-self:true;comp-op:src"/>
</g>
<g stroke="#fff" stroke-width="14.1">
<path transform="scale(.1)" d="m3590 6043.4-2-2-3 2-7 7-2 4-4 5-4 6-4 8-5 9-5 10-6 11-7 13-22 44-14 34-8 17-14 34-6 16-6 15-5 13-4 10-4 9-4 8-2 6-2 3-2 5 2-6 2-5 2-7 4-8 3-10 4-12 5-13 4-14 6-15 5-16 12-32 7-16 7-17 7-16 14-30 13-26 6-10 6-9 4-8 5-5 3-5 5-5 4-2 4-1 2 1 4 3 4 5 1 4 2 4 1 5 4 14 2 9 1 10 2 10 1 11 2 13 1 12 2 14 1 12 2 14 2 13 1 13 2 12 1 12 2 12 2 10 2 9 2 8 1 7 2 5 1 5 2 3 4 4 4 1 4-1 4-3 3-5v-4l1-4-3-18" style="clip-to-self:true;comp-op:src"/>
<path transform="scale(.1)" d="m3463.8 6233.1-2-3v-4l1-4 5-3 8-4 5-2 7-3 7-2 8-3 10-3 10-4 11-3 24-6 13-3 22-4 10-3 10-1 9-2 20-4" style="clip-to-self:true;comp-op:src"/>
<path transform="scale(.1)" d="m3766.2 6214.1 5-3 2-2 4-1 3-1 4-1 5-1 12-2 7-1 7-2 7-1 9-1 8-1 18-2h7l8-1 6-1 7-1 13-2" style="clip-to-self:true;comp-op:src"/>
<path transform="scale(.1)" d="m4050.3 6056.9 3 5 1 3 1 6v6l1 6v9l1 9v11l1 11v13l1 14v14l1 15 1 16 1 15 2 28 3 13 2 11 3 10 4 9 4 6 4 5 4 4 4 2 4 1 3-1 7-5" style="clip-to-self:true;comp-op:src"/>
<path transform="scale(.1)" d="m4076.2 6080.6-1-4v-4l3-3 4-1 4-2 6-2 6-1 9-2 8-2 20-4 10-1 11-1h9 10 8l8 2 6 2 5 3 4 3 3 5 2 6v7l-2 8-3 8-4 10-6 9-7 10-8 11-10 10-9 10-10 9-10 10-10 8-8 8-16 12-5 5-5 3-3 3-3 4 6 1 4-1 7-1 8-1 9-3 11-2 11-3 11-2 12-2 11-2 11-1h10 9l8 1 6 2 5 2 4 4 3 4 1 5v6l-1 7-2 7-4 8-4 9-7 10-7 9-9 9-20 16-11 8-10 6-11 6-10 5-18 6-16 4h-7-6l-6-1-5-1-4-2-3-3-2-4-1-5 1-6 5-18" style="clip-to-self:true;comp-op:src"/>
<path transform="scale(.1)" d="m4627.5 6161.6-2-3 4-1 6-1h4l5-1 6-1 7-1 16-2 9-1 10-2 10-1 9-1 10-2 10-1 19-2h9l9-1h8l6 1h7l8 2 3 2-6 7" style="clip-to-self:true;comp-op:src"/>
<path transform="scale(.1)" d="m4628.8 6253.8 4-1 6-1h4l4-1 5-1 6-2 7-1 7-2 9-1 18-3 10-2 22-2 12-1 13-1 12-2 13-1 12-1 11-2 11-1 22-3" style="clip-to-self:true;comp-op:src"/>
<path transform="scale(.1)" d="m5214.1 6072.2h-3l-5 7-3 5-3 7-4 8-5 11-4 11-6 13-5 13-6 14-5 15-12 30-5 15-6 16-8 26-3 11-3 10-2 8-1 6-1 4-2 4 2-4 2-3 1-6 2-6 3-8 4-9 3-11 4-11 5-12 4-13 5-13 5-14 12-30 14-28 7-13 6-10 6-9 5-8 5-7 5-4 3-4 4-2 3-2 3-1h5l4 3 3 2 2 4 2 3 3 4 3 5 2 6 3 6 2 7 2 8 2 18 2 22v23l-1 12v11 11 11l-1 11v27l1 8v7 5 6l1 4v4l1 4" style="clip-to-self:true;comp-op:src"/>
<path transform="scale(.1)" d="m5116.9 6240.3 1-3 4-6 8-6 6-3 6-1 7-2 8-2 18-4 20-4 21-3 10-2 11-1 9-2 9-1 21-3" style="clip-to-self:true;comp-op:src"/>
<path transform="scale(.1)" d="m5374.4 6242.8 3-4 5-3 3-2 10-2h7l6-1 8-1h8l9-1 30-3 22-2h11l10-1h9 7 7l5-1 7-1" style="clip-to-self:true;comp-op:src"/>
<path transform="scale(.1)" d="m5960.9 6044.1-5 1-4 1-7 2-7 4-7 3-9 6-8 6-18 16-18 20-24 36-6 13-5 15-5 14-3 16-3 15-1 17v16 17l6 28 5 10 6 9 9 8 9 5 11 5 24 4 13-1 26-4 13-4 31-13" style="clip-to-self:true;comp-op:src"/>
<path transform="scale(.1)" d="m6105.3 6130.9v-4-4l-4 2-4 5-6 8-2 5-3 5-2 6-3 7-3 8-2 9-4 9-3 9-3 10-3 11-3 10-3 9-2 9-3 9-2 7-1 6-1 4-1 3-1 4 1-4 1-3 1-5 2-5 1-7 3-8 2-8 4-10 2-10 5-10 3-11 5-12 5-13 6-13 6-14 7-15 16-30 18-26 8-10 8-9 7-7 5-4 5-3 4-2h4l4 1 6 4 3 4 3 5 1 7 2 7v8 10l-2 11-1 11-2 11-2 13-3 12-2 14-3 12-3 13-2 12-2 11-1 11v9l-1 9 1 7v7l1 6 2 10 2 3 3 5 3 1 1-4" style="clip-to-self:true;comp-op:src"/>
<path transform="scale(.1)" d="m6050 6215.3 1-3 3-12 3-4 3-3 4-3 6-2 6-3 7-3 8-3 9-3 9-2 10-2 10-1 10-2 11-1 10-1 9-2 9-1 18-1" style="clip-to-self:true;comp-op:src"/>
<path transform="scale(.1)" d="m6323.1 6295.6-8-6-4-4-4-5-2-3-2-8-1-5v-5-6l2-12 1-7 2-7 2-8 3-7 6-17 4-9 5-9 4-10 6-10 6-11 7-11 14-20 8-8 8-7 8-6 8-4 7-3 7-2 7-1 6-1 6 1 7 2 5 2 4 3 4 6 4 5 4 6 3 7 6 24 2 18v9 9 10l-1 9v9 28 8l1 7v7l1 6 1 5 2 8 2 4 3-1 3-12" style="clip-to-self:true;comp-op:src"/>
<path transform="scale(.1)" d="m6601.6 6087.5 2-3 4 1 1 4 2 7 2 10 2 6 1 6 2 16 2 18 1 11v11l1 11v11 12l1 12v12 12l1 11v10l1 8 1 7v4l1 3" style="clip-to-self:true;comp-op:src"/>
<path transform="scale(.1)" d="m6640.9 6087.5 3-5 6-4 4-2 5-3 6-1 7-2 8-2 27-3h9 17l8 1 7 1 6 1 5 3 5 2 3 3 2 4 1 4v5l-3 6-3 5-6 6-6 7-7 7-9 6-9 7-10 7-9 6-9 5-8 6-7 4-5 4-5 3-3 4-2 3v2l2 5 3 3 4 2 6 2 8 2 8 3 9 2 10 2 10 3 10 2 9 3 10 3 9 3 8 4 7 4 7 5 6 5 4 6 4 5 2 6 1 5v6l-2 5-3 6-4 5-6 5-8 5-8 4-9 4-10 4-10 3-10 2-11 2-9 2-10 1h-9-9-8l-8-2-7-1-12-6-4-5-5-11" style="clip-to-self:true;comp-op:src"/>
<path transform="scale(.1)" d="m6877.5 6032.2-1-4v-3l3-2 6 2 4 2 5 2 7 3 8 3 10 4 10 5 12 5 12 7 11 7 12 8 10 9 9 10 9 11 8 12 7 13 5 14 4 15 3 15 2 17v17l-1 18-6 38-5 17-7 16-7 15-9 14-10 12-11 12-14 10-13 8-15 7-15 6-15 4-37 5" style="clip-to-self:true;comp-op:src"/>
</g>
</g>
</g>
</svg>
