<?xml version="1.0" encoding="UTF-8"?>
<svg width="1e3pt" height="1200pt" version="1.2" viewBox="0 0 1e3 1200" xmlns="http://www.w3.org/2000/svg">
<g id="surface145">
<rect width="1e3" height="1200" fill="#20282d"/>
<g fill="none" stroke-linecap="round" stroke-linejoin="round" stroke-miterlimit="10">
<g stroke="#fff">
<g stroke-width="14.1">
<path transform="scale(.1)" d="m3678.4 550.62 1-3v-5-3-3l-3 5-1 3-2 12-1 8-1 9-2 10-1 11-2 13-1 14-2 15-1 15-2 16-1 15-2 14-1 13-2 24v9l-1 9v21l1 5v4l1 4 1 3 3 1 3-3v-4l1-4 2-12" style="clip-to-self:true;comp-op:src"/>
<path transform="scale(.1)" d="m3674.1 545.62-2-3-3-3-2-3 1-4 3-2 5-4 3-2 4-2 5-2 4-3 12-4 7-3 6-2 8-2 7-2 17-4 8-2 9-2 8-2 9-2 18-2 17-2 7-1h7 12 5l3 1 4 1h3l4 3 3 3-1 3-4 5" style="clip-to-self:true;comp-op:src"/>
<path transform="scale(.1)" d="m3675.3 675-3-2 2-4 4-1 5-2 4-1 3-1 4-2 10-2 6-1 14-2 8-2 8-1 17-2 8-1 9-1 8-2h8l8-2 7-1 15-2" style="clip-to-self:true;comp-op:src"/>
<path transform="scale(.1)" d="m3934.7 646.25-1-3-3-3-3-2h-3l-3 1-4 3-3 7-2 4-1 5v6l-1 8-1 6v24l1 7 1 8 4 14 2 6 2 5 6 8 3 2 4 3 3 1 8 2 8-2 5-2 4-2 5-3 5-4 13-13 8-12 3-6 3-7 4-6 2-7 3-7 2-6 3-7 1-6 2-5 1-4 2-7v10 6 5l-1 7v29l1 8v8l1 8 2 7 1 6 4 10 3 4 3 2 2 2 4 1 6-1 8-4" style="clip-to-self:true;comp-op:src"/>
<path transform="scale(.1)" d="m4109.4 705.94h-4l-3-1-3-2v-4l2-3 4-5 2-3 6-8 8-8 20-16 5-3 8-6 5-1 3-2 4-2h3 6l6 6 2 8 1 5v5 6 6l-1 7v7l-2 14-3 18-1 10-1 4-1 3v3l9-18 3-5 2-5 3-5 6-12 8-12 15-21 6-7 5-6 6-5 5-5 5-4 5-2 4-2h4 3l5 3 2 3 2 8 1 6v5 7 6 7l-1 7v7l-1 7v7l-1 6v6 15 4l1 3 2 5 3-4" style="clip-to-self:true;comp-op:src"/>
<path transform="scale(.1)" d="m4411.9 610.94-6-3-5-1h-4-5l-4 1-5 2-4 2-5 3-5 4-10 10-4 6-5 7-3 7-4 8-3 8-2 9-3 9-2 9-1 10v10l1 9 2 9 2 8 3 7 5 7 5 5 6 3 7 2 8 1h8l9-1 10-3 20-10 24-15" style="clip-to-self:true;comp-op:src"/>
<path transform="scale(.1)" d="m4516.9 471.56-4 2-2 8-2 5-2 7-3 8-2 9-3 10-3 12-3 13-2 14-6 32-2 16-6 45-1 13v13l-1 12 1 11v10l2 9 1 7 3 8 3 6 3 5 5 4 5 3 6 2 6 1 8 1 14-2 8-2 9-2 16-6 7-4 8-5 7-6 14-15" style="clip-to-self:true;comp-op:src"/>
<path transform="scale(.1)" d="m4497.2 647.19 4-4 2-3 10-10 5-3 12-8 7-4 8-4 8-3 18-6 10-2 9-2 10-1 18-2 14-2 12 1" style="clip-to-self:true;comp-op:src"/>
<path transform="scale(.1)" d="m4705.6 615.31-2 3-4 5-2 8-2 5-1 6-2 7-1 7-1 16-2 16-1 9v8l-1 8v8l1 7v6l1 6 1 4 2 4 1 3 5 1 3-4 4-8" style="clip-to-self:true;comp-op:src"/>
<path transform="scale(.1)" d="m4764.1 471.56-4-3-4-2-3 1-2 4-3 7v3l-1 3 1 4v3l1 3 3 6 3 3 3 2 4 2 8 2h9l4-1 5-1 4-1 3-2 3-3 3-2 1-2 2-6 1-6-3-9-4-5-3-3-3-2-6-2-12 3-8 4-8 6-4 4-8 12" style="clip-to-self:true;comp-op:src"/>
<path transform="scale(.1)" d="m4849.1 636.56h-4l-9 3-4 2-8 6-3 4-4 3-4 4-3 5-4 5-3 6-2 6-2 7-1 5-1 7v6l1 6 2 5 2 4 3 4 4 3 4 2 5 2h5 5 6l6-1 5-2 6-2 10-6 4-3 5-3 3-4 2-4 3-4 2-8v-5-5l-2-5-1-6-2-6-3-5-2-6-3-5-4-5-3-5-8-8-4-2-5-2-4-1h-4l-5 1-3 1-5 1-4 3-4 2-3 3-3 2-2 2-2 8" style="clip-to-self:true;comp-op:src"/>
<path transform="scale(.1)" d="m4951.9 638.12 3 2v3 3 3 4l-1 5v4 6l-1 5v6 6 7l-1 6v26l2 8 2 2 1-4 2-5 2-8 1-5 2-4 2-6 5-10 2-6 4-6 5-7 5-8 6-8 7-9 32-36 9-8 7-6 7-4 7-3 6-2h4l4 2 3 2 2 3 2 4 1 5 1 6v7l-1 7-1 8-1 9-2 9-1 9-4 18-2 10-2 16v7 7l1 5 2 4 3 2 2 1 10-3" style="clip-to-self:true;comp-op:src"/>
<path transform="scale(.1)" d="m5231.6 598.44v-6l1-5 1-7v-6l-1-5-1-3-5-3-6 1-4 1-5 2-5 3-18 12-18 15-5 5-4 6-4 5-3 5-2 4v6l1 4 2 5 3 4 4 4 12 8 8 4 9 4 8 3 10 4 18 8 10 4 8 3 7 5 6 4 9 9 3 4 1 4v4l-1 4-3 4-4 4-5 3-6 3-7 3-16 4-9 3-20 2-11 1-10-1-11-1-26-7" style="clip-to-self:true;comp-op:src"/>
</g>
<path d="m358.84 91.562 179.62-6.5312" stroke-width="1.41" style="clip-to-self:true;comp-op:src"/>
<g stroke-width="14.1">
<path transform="scale(.1)" d="m1003.8 1447.2-5 5-2 4-4 6-3 5-4 7-4 8-3 8-4 9-4 10-4 11-5 12-4 12-9 25-15 45-3 10-4 16-2 7-3 6v5l-2 4v3l-2 4 1-5 1-3 2-5 2-4 4-12 3-8 4-8 3-8 4-8 4-10 5-9 4-10 6-11 5-13 6-13 12-28 21-45 7-14 8-14 7-13 7-10 6-10 6-7 4-5 7-7 3-1h4l2 3 2 5v3 4 5l1 5v5l1 6 1 7 1 8v9l2 9 3 21 4 22 1 12 2 11 3 12 2 11 4 20 3 9 6 16 3 6 2 6 2 5 3 5 2 4 3 3 1 2 3 2 3 3 4-1v-9" style="clip-to-self:true;comp-op:src"/>
<path transform="scale(.1)" d="m955.31 1581.6-2-4v-3l1-3 2-3 7-7 4-1 4-3 4-2 18-6 7-2 8-1 7-2 8-1 9-2 7-2 8-2 7-2 14-6" style="clip-to-self:true;comp-op:src"/>
<path transform="scale(.1)" d="m1270.3 1483.8 1-5 2-5 5-2 4-1 10-2 6-1 7-1 7-2 7-1 16-2h7l8-1h15l6 1h5l5 1 8 2h3l-1 4" style="clip-to-self:true;comp-op:src"/>
<path transform="scale(.1)" d="m1289.4 1519.1-2 3 2 1 5-1h4l3-1 10-2 12-2h7l7-1 8-1h15 8 7l6-1 5-1 12-1" style="clip-to-self:true;comp-op:src"/>
<path transform="scale(.1)" d="m1640.3 1434.7 3-5 3-4 6-12 4-5 2-5 7-9 3-5 4-5 2-5 3-4 2-5 1-3 1-4-2-5-5-3-3-1h-4l-5 1-6 1-7 1-8 3-8 2-18 8-27 15-10 6-8 6-8 7-6 6-5 6-6 12-1 5v6l4 10 4 5 10 8 7 4 6 4 32 12 7 3 7 2 12 6 5 4 3 4 2 5 1 5v6l-4 14-4 6-4 7-18 21-21 18-6 6-7 6-5 4-8 8-3 4-1 2v4l5 2 6 1 5-1h4l5-1h15l5 1 4 2 4 1 3 3 3 4 1 4v5 5l-1 6-2 6-3 7-4 7-8 13-6 6-4 6-6 6-5 6-5 5-4 6-4 5-4 4-3 5-2 3-1 4v3l1 5 4 4 3 1h4 6 6 7l8-1 9-1 20-2 11-2 11-1 12-2 13-1 25-3 24-2 11-1h10l8-1h6l6-1h7" style="clip-to-self:true;comp-op:src"/>
<path transform="scale(.1)" d="m2112.5 1523.4v-3-3-5l-1-3-2-8-6-9-5-4-6-2h-3-4l-8 2-10 6-6 5-6 6-12 14-5 9-6 8-5 10-4 9-5 9-2 10-3 8-1 9-1 7v7l1 6 2 4 2 3 3 2h3 5l4-2 5-3 5-4 6-5 5-6 7-6 6-7 5-8 6-7 4-9 5-7 3-8 4-8 2-7 3-7 4-12 1-4 1-3 2-4 2 4v3 4l2 10v6l2 12 2 7 1 6 3 6 2 7 6 10 3 4 7 6 3 1h4 4l4-1 4-2 3-3 4-3 9-11" style="clip-to-self:true;comp-op:src"/>
<path transform="scale(.1)" d="m2228.8 1490-1 5-1 4v4l-1 5-1 6-1 7-1 8-1 9v9l-1 10-2 24-3 42v15l-2 28v57l1 6-1 5v8l-1 4-3-1-2-4-1-6-1-4-2-10-1-7v-6-17-10l1-11 2-12 1-13 2-14 3-14 2-16 3-15 3-16 3-15 5-15 4-14 6-13 4-12 6-10 5-9 5-7 10-8 4-2h4 4l3 1 3 2 2 4 3 4 1 6 1 5 1 6v7l-2 16-1 7-4 16-5 15-4 8-3 8-12 18-4 4-3 4-4 2-3 2-3 1h-4l-3-3-1-6v-8l1-12" style="clip-to-self:true;comp-op:src"/>
<path transform="scale(.1)" d="m2377.5 1459.7 1-3 2 3 2 5 1 3v4 19 9l-1 9-1 11-1 12-2 12-2 28-4 30-2 16-4 28-1 12-2 10-1 9-1 7-1 5-1 4-2 6-3-3-1-7v-42l1-9v-11l2-11 1-12 4-26 2-14 4-14 3-15 4-14 5-13 6-12 5-11 6-10 5-7 11-11 5-4 4-2 6-2h4l3 1 6 4 4 8 1 4 1 6v12l-1 6-3 14-2 7-3 7-2 8-7 14-12 18-4 4-3 5-4 3-3 2-4 3-3-1-3-2-1-5v-3l3-9" style="clip-to-self:true;comp-op:src"/>
<path transform="scale(.1)" d="m2545.9 1358.4v-4l-1-2-4 2-1 6v4l-1 5v6l-1 7v8 8 10 10l-1 12v23l1 13v12l2 22 4 18 3 7 3 6 3 5 4 4 4 3 5 2 10 2 6-1 5-1 12-4 6-3 5-3 6-3 4-4 5-3 3-5 4-4 3-5 3-4 4-12v-6l2-7 1-6v-7l1-7v-13-4l-1-4-4-6h-4l-4 3-2 2-3 4-2 5-3 6-4 7-3 8-3 9-4 9-4 18-1 9v7l1 8 1 7 3 7 3 6 5 5 5 4 6 3 7 3 8 1h8 9l8-2 9-2 42-14" style="clip-to-self:true;comp-op:src"/>
<path transform="scale(.1)" d="m2835.3 1551.9 2-3 3-2 4-1h5l3 1 5 3 2 2 4 5 2 3 2 8v10l-1 7-2 6-2 7-3 7-11 22-5 6-5 7-7 7-7 6-8 6-22 13" style="clip-to-self:true;comp-op:src"/>
<path transform="scale(.1)" d="m3129.1 1393.4-3 3-2 3-2 5-1 6-2 8-4 20-1 12-2 13-1 14-2 14-4 30-1 14-2 13-2 12-1 11-1 10v8 7 17l2-3 2-5 1-3 2-4 2-3 1-5 3-4 9-15 3-6 4-6 5-6 4-6 5-6 6-5 5-5 6-4 10-6 4-2 5-1h4l3 1 3 2 4 6 1 4v5 6l-1 11-2 6-6 12-3 7-4 5-4 6-5 6-6 5-5 5-7 5-5 4-6 4-7 3-6 3-5 3-6 2-4 2h-4l-4 1-4-1-2-3v-3l3-7" style="clip-to-self:true;comp-op:src"/>
<path transform="scale(.1)" d="m3283.1 1564.1-4 6-2 4-3 5-4 5-3 5-5 7-3 6-3 5-3 6-2 6-2 5-1 5-1 4v5l1 4 1 3 2 2 3 2 3 1 4 1 5-1 4-1 12-4 6-4 7-3 6-5 12-9 11-10 4-6 3-4 2-6 1-4 1-6-2-10-2-6-2-5-3-6-4-7-3-5-4-5-4-4-5-3-5-2-6-2h-6l-6 1-6 2-7 3-12 8-12 10-4 4-3 5-3 4-3 10" style="clip-to-self:true;comp-op:src"/>
<path transform="scale(.1)" d="m3392.8 1523.4 4 7 3 5 7 7 2 3 3 3 3 4 4 3 3 4 13 13 5 6 5 4 4 6 5 5 4 5 4 4 4 3 3 3 4 2 6-3" style="clip-to-self:true;comp-op:src"/>
<path transform="scale(.1)" d="m3482.5 1516.9-2-2-4-2h-5l-5 4-3 1-3 3-2 3-3 3-9 12-8 12-5 7-5 6-15 24-4 9-9 17-9 24-2 6-1 5-1 6-1 8" style="clip-to-self:true;comp-op:src"/>
<path transform="scale(.1)" d="m3592.5 1636.9 1-4v-3l-1 5-1 4-3 5-1 5-2 8-3 8-3 9-3 10-4 10-4 11-3 10-4 9-4 10-5 8-3 8-4 6-4 5-5 5-10 6" style="clip-to-self:true;comp-op:src"/>
<path transform="scale(.1)" d="m3946.2 1510-2-3-8-4h-6l-6 1-6 2-5 2-3 1-4 3-4 4-4 3-10 12-4 7-5 8-5 9-4 9-8 22-3 10-1 12-3 10v11 10l1 10 2 8 1 8 3 7 6 12 10 8 4 3 6 2 6 1h7 6l14-2 14-4 5-2 6-3 13-13" style="clip-to-self:true;comp-op:src"/>
<path transform="scale(.1)" d="m4115.9 1575.9v-4l1-3-1-3v-6l-2-10-2-4-6-8-4-2-4-1-6 2-4 1-3 3-4 3-5 5-4 5-6 7-15 21-5 8-4 7-3 8-3 7-2 6-1 6v6 5l2 4 4 6 3 2 4 2h4 4 4l10-2 5-2 5-3 5-2 5-4 4-4 6-4 8-8 8-10 9-15 2-5 3-4 1-4 2-4 1-3 2-5-2 6v3l-1 5-3 18-1 7v8 7 8l2 14 2 6 4 10 3 3 4 3 3 1 4 1h4l10-4 5-3 12-8 15-13" style="clip-to-self:true;comp-op:src"/>
<path transform="scale(.1)" d="m4307.2 1439.7v-3-6l-3-3-3 2-3 5-1 3-4 8-3 5-2 6-2 7-4 8-2 10-6 20-3 12-2 12-4 26-1 11v12 11 10l2 9 1 9 3 8 2 6 3 5 4 4 4 3 5 2h4 5 5l10-4 4-4 4-3 7-11" style="clip-to-self:true;comp-op:src"/>
<path transform="scale(.1)" d="m4256.2 1536.2-3-3 1-3 2-2 6-3 3-2 4-1 4-2 6-2 6-1 6-2 14-3 8-2 16-2 7-2 6-2 6-1h12" style="clip-to-self:true;comp-op:src"/>
<path transform="scale(.1)" d="m4532.8 1601.6-3 3-2 7v5l-2 5-1 6-1 7-2 7-4 17-3 9-2 10-6 18-6 16-5 8-4 8-5 6-12 10-15 7" style="clip-to-self:true;comp-op:src"/>
<path transform="scale(.1)" d="m4824.1 1543.1 1-3v-3l-1 3v3l-2 4v5l-3 14-3 9-2 10-3 12-3 14-4 15-4 16-4 17-4 18-4 17-4 16-4 15-6 26-3 10-2 9-2 7-2 6-1 5-2 4-1 4-2 4-3 1-1-3-1-6v-11-5l2-12 2-14 1-8 2-20 2-22 2-13 1-13 2-14 1-14 3-14 2-14 4-12 3-12 4-10 4-9 5-7 5-6 10-8 10-4 5-1h10l10 2 4 2 4 3 6 6 3 5 1 4 1 6v5 6l-1 7v7l-2 6-2 7-9 21-4 6-4 7-3 6-5 5-4 5-3 4-7 7-8 6-5-3-1-5 2-10" style="clip-to-self:true;comp-op:src"/>
<path transform="scale(.1)" d="m4994.1 1547.2-3-3-3-2-4-2-2 2-2 6-2 8-1 6-2 7-2 8-1 8-1 9-2 10-1 10v9l-1 10v19l1 9v7 7l1 7 2 4 1 4 3 3 3-1 2-4 2-10" style="clip-to-self:true;comp-op:src"/>
<path transform="scale(.1)" d="m5022.8 1426.6-3 1-1 4v5l1 5 1 6 3 5 4 5 9 3h4 3l8-2 4-2 4-1 4-3 4-2 6-6 4-6v-3l1-4v-2l-1-3v-4l-2-3-2-2-4-6-4-3-5-2-6 1-3 1-3 3-3 2-4 3-14 14" style="clip-to-self:true;comp-op:src"/>
<path transform="scale(.1)" d="m5225.9 1697.5 2 2-1 6-1 4-4 10-1 6-3 7-4 8-3 8-5 9-6 8-14 18-8 8-7 8-9 8-7 6-16 12-8 4-16 6-18 3" style="clip-to-self:true;comp-op:src"/>
<path transform="scale(.1)" d="m5535 1548.4-9-3h-5l-7 2-8 1-8 4-4 1-5 3-8 6-5 4-4 4-3 4-4 5-3 5-8 24-1 6-1 7 1 6v5l2 6 4 8 3 4 3 3 3 2 4 2 4 1 5 1h5l15-3 6-2 10-6 5-4 12-12 3-5 4-10 3-10v-5l-3-15-2-6-1-5-2-6-3-5-2-4-2-5-3-4-4-6-3-2-5-3h-5l-4 2-4 5-2 5-1 3v3 3 6l7 8" style="clip-to-self:true;comp-op:src"/>
<path transform="scale(.1)" d="m5619.1 1564.4 5-3 3-1 8-2h4l9 2 8 4 8 8 4 10 2 7 1 7v8 8 8l-1 9-2 8-1 8-4 14-2 6-2 5-1 4-4 5-3 1-4-1-2-4-1-3v-4-5l2-12 2-6 4-14 4-8 3-7 4-8 5-7 4-9 5-7 5-8 6-9 5-7 6-8 6-7 7-7 6-5 7-5 6-3 7-2 6-2h5l5 1 5 2 4 1 6 6 3 10" style="clip-to-self:true;comp-op:src"/>
<path transform="scale(.1)" d="m5838.4 1586.6 8-5 10-6 4-4 5-4 12-12 6-8 2-4 2-6-1-4-4-2-6 1-4 2-5 3-6 3-7 5-6 6-8 6-8 8-14 16-7 10-8 10-12 20-5 11-4 10-3 11-3 10-2 8v7 6l1 5 1 3 3 2 3 1h3l4-1 4-2 5-2 4-3 6-5 17-17 13-15 6-9 6-8 12-18 10-18 6-9 4-8 5-7 4-6 3-5 4-3 2-3 2-2 4 4v3l1 4v4 5 5l1 6v6 5 7 6l1 6v6 5l1 4v5l2 6 1 5 2 2 3-3 3-5 1-3 6-12 3-5 2-4 6-10 4-5 19-19 6-4 6-3 6-4 12-4 5-1h5l8 2 3 2 2 3 3 4 1 4 1 6v13l-2 14v8l-2 8-1 7-1 8-1 6-1 5v7l3 2 5-4 2-3 4-4 3-6 4-5 5-6 4-7 6-7 5-7 6-8 5-7 6-8 6-7 6-8 7-7 6-7 6-6 7-5 5-3 6-3 4-1h5l3 1 3 2 2 3 2 5 1 5 1 7v7 7l-1 8-1 10v9l-2 18v23l1 6 1 5 4 8" style="clip-to-self:true;comp-op:src"/>
<path transform="scale(.1)" d="m6309.7 1564.4v-9l-1-3v-4l-1-4-2-5-4-4-5-2h-3-4-4l-6 2-5 2-7 3-6 4-8 4-7 6-7 7-8 7-8 8-6 8-7 8-4 8-5 8-6 16-1 7v6l1 5 2 5 3 2 4 2h4l12-2 14-6 7-4 24-15 7-6 8-5 7-6 6-5 7-5 5-5 6-4 5-2 5-3 4-1h3l6 2 4 6 1 4 2 12v8 8l-1 9v10l-2 22-1 12-1 11-2 12-1 12-2 12-2 13-2 11-1 12-3 11-2 10-6 20-5 19-4 8-4 7-3 7-8 10-8 6-4 2-4 1h-4-4l-6-3-4-6-3-4-2-5-2-6-1-6-1-7-1-8v-7-9l1-8 1-9 2-10 3-10 4-12 5-12 6-13 7-14 7-15 8-15 9-15 9-14 24-28" style="clip-to-self:true;comp-op:src"/>
<path transform="scale(.1)" d="m6404.4 1635.6 3 2 5 1 6-2 4-2 5-3 5-2 6-3 7-4 6-5 7-4 15-11 7-5 7-6 7-5 17-17 4-7 3-5 5-10 2-5v-4l-1-3-4-3-4-1-5 1-5 2-7 3-7 4-7 5-8 6-8 7-16 18-8 10-9 12-7 12-7 11-6 12-5 12-4 11-2 10-1 10 1 9 2 6 3 7 5 5 6 4 8 3 9 1 10 1h12l14-1 14-2 14-3 30-8 14-5 35-13" style="clip-to-self:true;comp-op:src"/>
<path transform="scale(.1)" d="m6684.1 1417.2-3-2-3-3-1-4 3-2 7-4 4-1 12-4 8-2 7-2 8-1 9-1 10-1 9-1h9 9l9 1 7 2 6 2 5 4 6 8 1 6v7l-2 8-3 9-4 9-6 10-7 11-16 22-10 12-10 11-9 11-10 11-10 9-8 10-9 8-13 13-5 6-4 6-4 8v4l3 5 3 1 12 2h6 8l7 1h25 8l8 1 7 1 5 2 8 4 2 8-1 4-1 5-3 5-5 5-4 6-6 6-6 7-13 13-7 6-12 12-7 6-5 5-4 5-3 3-3 4v4 3l3 5 4 2 3 2 10 4 6 2 11 4 6 2 10 6 4 3 3 3 3 4 2 4v5l-1 4-4 10-4 5-10 11-6 6-7 5-8 6-16 10-9 5-9 4-9 5-9 3-9 4-9 3-24 6-14 2-6 1h-6l-6-1-6-2-8-2-18-5" style="clip-to-self:true;comp-op:src"/>
<path transform="scale(.1)" d="m941.25 2098.8v-3l-1 5v4l-1 5v5l-1 7v7l-2 16-2 9-1 10-1 11v12l-1 11v11l-1 11v20 8 24 3" style="clip-to-self:true;comp-op:src"/>
<path transform="scale(.1)" d="m948.12 2135 3-5 3-3 4-5 4-3 6-4 7-5 8-4 18-8 10-5 10-4 9-4 9-3 9-4 9-2 7-1 8-1 10 2 4 2 3 4 1 3 1 6-1 6-2 7-3 8-4 8-5 8-6 9-14 16-8 8-8 7-16 12-16 10-7 5-6 3-6 4-5 2-4 2-3 3 5 1h6l12-2 8-2 18-4 9-1 10-2 9-2 18-2h9l14 2 6 3 5 3 3 4 4 10-1 5-1 7-3 7-4 6-5 8-6 7-7 7-8 7-9 7-9 6-9 7-21 11-10 5-22 8-10 3-11 2-10 2-9 2-7 1h-6l-5-1-3-5 1-5 2-5 4-7 17-18" style="clip-to-self:true;comp-op:src"/>
<path transform="scale(.1)" d="m1286.6 2171.9 4-4 7-3 4-2 6-1 7-2 8-2 9-2 8-1 8-2 9-1h7 7 6l10 2 3 2 2 4-3 7" style="clip-to-self:true;comp-op:src"/>
<path transform="scale(.1)" d="m1268.1 2255.6-4 6 2 2 6 1 3-1h5l5-2 6-1 14-4 8-1 9-3 8-3 8-2 8-3 18-6" style="clip-to-self:true;comp-op:src"/>
<path transform="scale(.1)" d="m1671.9 2091.6-3-4-3-1h-6l-5 1-4 1-8 4-4 1-5 3-4 3-5 2-4 4-10 8-10 10-4 5-5 6-4 6-3 5-3 6-2 6-1 5v6l1 5 2 5 4 4 3 4 5 4 5 3 7 2 6 3 14 4 6 2 14 2 6 1 6 2 5 1 5 2 3 2 4 6v4l-1 4-2 5-2 6-3 4-5 6-4 5-6 4-5 6-12 8-6 5-6 4-6 3-10 8-5 3-4 2-5 5-2 4 2 3h6l3 1h13 4l3 1 4 1 3 2 2 2 2 5 1 4v3l-1 6-1 5-2 6-6 13-3 7-4 6-4 7-5 7-4 6-5 6-12 15-9 9-3 5-3 4-2 4-1 4-1 3 3 4 6 3 4 1h20l7-1 18-2 9-2 40-8 18-4 8-1 6-2 10-4 4-2" style="clip-to-self:true;comp-op:src"/>
<path transform="scale(.1)" d="m1863.4 2209.7-1-3-4-1h-4l-5 2-4 5-6 6-2 4-6 8-3 5-2 5-2 6-3 11-1 5v5l1 5 3 9 3 3 2 3 4 3 4 2 4 1 5 1h5 6l5-1 6-1 12-4 7-3 5-2 6-4 5-3 5-4 8-8 6-8 1-5 2-4v-6-4-5l-1-6-2-5-2-6-2-5-6-10-4-5-3-3-4-3-3-1-4-1h-5l-4 1-4 3-5 3-4 3-5 5-7 9-3 4-5 12" style="clip-to-self:true;comp-op:src"/>
<path transform="scale(.1)" d="m2000.6 2298.4-3 2-2 3-2 5-12 24-3 7-12 24-5 8-4 7-5 7-10 15" style="clip-to-self:true;comp-op:src"/>
<path transform="scale(.1)" d="m2201.9 2169.7 1-6 1-2 1-4v-7l-2 5-1 4-1 5-2 6-1 8-2 8-2 10-2 11-2 10-4 23-1 11-2 12-1 12v11 10 8 7l3 14" style="clip-to-self:true;comp-op:src"/>
<path transform="scale(.1)" d="m2330 2329.1-3-1-4 1-2 4-2 5-1 4-2 3-1 4-4 8-3 5-1 5-2 5-3 6-2 5-1 6-2 5-1 5-2 5-3 9" style="clip-to-self:true;comp-op:src"/>
<path transform="scale(.1)" d="m2458.1 2197.8-6-8-3-3 2-3 3-2 6-2h4l5-2h5l12-2h12l7 1 6 1 10 2 4 2 3 4 3 3 1 5v5l-2 12-3 7-4 8-5 7-6 9-6 8-22 22-8 6-7 6-7 5-6 5-5 4-8 6-2 3-1 4 5 2 4 1 5 1h14 8l9-1 10-1 9-1 20-2 9-1 10-1 9-2 8-1 8-2 7-1 6-1 4-2 3-1 5-1" style="clip-to-self:true;comp-op:src"/>
<path transform="scale(.1)" d="m2678.4 2318.8h-3l-6 1-3 2-4 1-6 4-4 2-3 4-4 3-3 5-4 4-4 5-3 6-3 5-7 11-4 12-3 5-2 6-4 10-3 3-3 2-2 3" style="clip-to-self:true;comp-op:src"/>
<path transform="scale(.1)" d="m2806.6 2202.5v-4l2-3 10-5 13-3 6-2h4l6-1h10 4l5 1 8 2 3 1 3 2 3 9-1 4-1 5-2 4-3 5-4 5-8 9-5 5-10 8-4 4-5 3-6 6-3 2-1 3 1 3 6 1h4 5 6 6l7-1h6 15 6l7 1h7l5 2 5 1 4 3 3 3 2 3 2 4v3l-1 4-1 5-3 4-4 4-4 5-6 4-5 5-14 8-8 4-7 3-7 4-8 2-7 3-14 4-6 1-10 2h-7l-3-2v-3l3-5 9-9" style="clip-to-self:true;comp-op:src"/>
<path transform="scale(.1)" d="m3040.3 2327.8-1-4-8 4-3 3-3 2-4 3-3 4-15 12-4 5-5 6-6 6-9 14-5 7-12 21-3 6-3 5-7 14-3 2-5 4" style="clip-to-self:true;comp-op:src"/>
<path transform="scale(.1)" d="m3222.2 2196.2-2-2-4 1-3 1-5 3-6 5-3 2-4 3-3 3-8 6-3 4-4 5-4 4-4 5-3 4-6 10-2 4-2 8v4l1 4 2 6 3 3 4 3 10 4 6 2 14 2 8 1h8 17 10l8-1 9-1h8l8-1 6-1 7-1 6-1 5-1h4l3-1 4-1-1-4" style="clip-to-self:true;comp-op:src"/>
<path transform="scale(.1)" d="m3242.5 2220.6v4 3l-1 3-3 15v6l-1 6-1 7v14l1 7 1 8v8l1 8 2 8 2 16 6 24 1 7 2 6 2 5 5 8" style="clip-to-self:true;comp-op:src"/>
<path transform="scale(.1)" d="m3407.5 2337.2-3 1-2 4-3 4-1 4-4 8-2 5-3 6-4 12-5 14-2 7-2 6-2 7-4 12-3 5-3 4-5 7" style="clip-to-self:true;comp-op:src"/>
<path transform="scale(.1)" d="m3539.1 2194.7 4-3 1 4-2 6-2 4-4 10-3 6-2 6-3 7-2 6-2 7-2 5-1 6-1 4 1 5 1 4 1 3 2 3 3 1 4 2h3 5l6-1 6-2 7-2 8-1 7-3 8-1 9-3 8-1 21-3h6 5l4 2 3 1 3 5v4 5l-2 4-2 6-3 6-10 12-6 7-6 6-7 6-6 6-7 6-6 5-7 5-6 4-5 3-5 2-4 2h-4-3l-3-2-5-5-5-9" style="clip-to-self:true;comp-op:src"/>
<path transform="scale(.1)" d="m3580.3 2192.5 3-2 6-2 4-1 5-2 5-1 6-1 7-1h8l7-1 8-1 9-1 8-1 16-1h8l7-1 6-1 5-1 4-1 6-1" style="clip-to-self:true;comp-op:src"/>
<path transform="scale(.1)" d="m3798.4 2364.4-2-2-3 4-1 3-2 4-2 5-2 6-4 7-3 7-8 18-5 8-5 9-10 16-4 8-5 6-4 6-5 6-3 4-3 3-4 3-5 2-4-3" style="clip-to-self:true;comp-op:src"/>
<path transform="scale(.1)" d="m3931.2 2227.2-1-3-1-4-4 2-2 4-3 7-2 5-2 4-2 6-2 7-5 13-2 8-3 8-1 8-4 16-1 8v7 7l1 6 2 6 6 8 5 3 5 1 6 1 6-1h7l6-2 7-1 14-6 5-3 6-4 6-3 8-8 3-5 3-4 2-4 2-5v-4-4l-4-8-2-3-3-2-5-3-4-1h-5-5l-12 4-8 4-8 3-7 5-8 4-9 6-14 10-6 5-8 10-6 11" style="clip-to-self:true;comp-op:src"/>
<path transform="scale(.1)" d="m4065.3 2136.9 2-3 4-4 3-2 8-4 5-2 6-3 6-2 7-2 6-3 6-2 7-2 24-4 5-1 5 1h3l4 1 3 4v6l-1 4-3 6-4 6-10 14-6 7-6 8-6 9-7 9-6 8-5 9-6 8-8 16-2 7-2 12v5l1 5 2 4 7 7 4 3 10 4 6 2 6 3 6 1 6 2 5 2 6 2 10 4 3 3 4 3 2 2 2 6v3l-1 4-2 4-3 3-3 5-3 4-4 4-4 5-4 4-3 4-3 5-3 3-1 4-1 3v3 4l2 2 2 3 4 2 3 3 8 4 5 2 5 4 4 2 5 4 4 4 4 3 4 5 3 4 4 8 2 5 1 5v5l-3 15-2 5-3 5-3 4-3 6-9 9-4 5-5 4-6 4-5 3-6 3-5 3-6 3-6 2-5 1-6 2-12 2-7 1h-16l-32-4" style="clip-to-self:true;comp-op:src"/>
<path transform="scale(.1)" d="m1025.9 2990.3-3-1-6-4-4-1-3-2h-3-4-4-4-4l-4 1-5 2-8 4-3 3-4 3-4 4-3 5-4 5-3 7-4 7-2 9-3 10-3 11-4 26-4 30-1 15-1 17v16l-1 16v17l-1 16v16l-1 17v17l-1 17-2 17-4 32-6 34-8 32-5 16-5 15-5 14-5 13-11 22-6 9-6 7-11 11-6 3-5 3-10 2h-6l-5-1-10-4-4-4-4-5-8-12-3-9-7-22" style="clip-to-self:true;comp-op:src"/>
<path transform="scale(.1)" d="m901.88 3315.6v-3l1-6 3-4 7-7 18-12 7-4 16-8 9-5 10-4 22-9 22-6 10-4 11-2 18-4 7-2 7-1 13-1" style="clip-to-self:true;comp-op:src"/>
<path transform="scale(.1)" d="m1156.2 3148.1 2-6 3 3 1 3 2 5 1 3-1 10" style="clip-to-self:true;comp-op:src"/>
<path transform="scale(.1)" d="m1199.1 3340.6-3-2-8-6-1-3 3-2 4-1 3-1" style="clip-to-self:true;comp-op:src"/>
<path transform="scale(.1)" d="m1501.6 3124.4-3-4-4-2h-3l-4 2-3 6-3 4-2 6-3 6-4 9-5 9-4 11-5 11-6 13-5 13-6 14-13 30-6 16-5 16-5 15-5 14-4 13-4 11-8 24-1 5-2 8 3-2 2-2 3-4 3-6 4-6 3-7 4-8 4-9 3-9 4-9 4-10 3-11 8-22 3-13 4-13 8-30 5-15 5-16 12-30 5-13 6-10 6-9 4-7 4-5 4-3 3-2 4-1 5 2 6 6 4 10 4 14 1 8 1 10 1 9v11l1 10v34 12l4 48 1 10 2 10 2 9 2 8 2 7 2 6 2 5 4 8 1 3 3 4 2 2-7-2" style="clip-to-self:true;comp-op:src"/>
<path transform="scale(.1)" d="m1408.8 3308.8 1-5 1-2 2-3 4-3 5-3 8-4 5-1 12-4 7-2 8-1 9-2 10-2 11-1 10-3 10-2 10-3 24-7" style="clip-to-self:true;comp-op:src"/>
<path transform="scale(.1)" d="m1668.4 3225.3 4-1h6l4 1h4l6-1h7 8l10-1 11-1h13l13-2 14-1 15-2 16-1 16-2 17-2 16-2 17-2 32-2 15-2 26-2 11-1h10 30 4l5 1-5-4" style="clip-to-self:true;comp-op:src"/>
<path transform="scale(.1)" d="m1918.1 3119.1-1-3 6 4 5 3 2 3 3 2 3 3 8 6 10 6 12 6 6 4 8 3 14 6 8 2 8 3 16 4 7 2 8 1 12 4 6 1 5 2h4l4 1 4 3-1 3-5 4-2 2-4 2-15 9-6 3-5 4-6 4-7 4-7 5-12 10-25 25-4 5-4 4-4 3-3 3-7 3-8 3" style="clip-to-self:true;comp-op:src"/>
<path transform="scale(.1)" d="m2201.9 3118.8 1-3 2 3 2 5v4 17 7l-1 8-1 9v9l-3 30v10l-1 10v10 11l-1 10v26l1 7v5l1 5v2l1 4" style="clip-to-self:true;comp-op:src"/>
<path transform="scale(.1)" d="m2211.6 3157.5 1-6 4-6 3-2 3-3 3-2 5-2 4-2 12-4 7-1 6-1 7-1h7 8 6l7 1 7 2 6 2 5 4 4 2 3 4 3 5 2 5v5 6l-1 7-2 6-4 6-3 7-5 7-5 6-6 6-7 6-6 6-6 4-7 5-6 4-5 4-5 3-4 2-3 3-2 4 3 4h4l5 1h7l7 1h8l10 1h9l10 1 10 2 11 1 9 2 9 3 8 3 7 3 6 4 5 4 3 4 3 5 1 5-2 10-3 6-3 5-5 5-6 5-7 5-8 4-9 5-9 4-11 4-10 4-11 3-10 3-33 6-10 1h-11-9l-8-1-6-1-6-2-5-3-3-3-3-5-2-11" style="clip-to-self:true;comp-op:src"/>
<path transform="scale(.1)" d="m3270.3 3160.6v-3-6l-2-5-2-1-2 3-2 6-2 4-2 10-2 6-3 21v7 8l1 7 1 8 1 7 4 14 2 5 3 6 3 5 3 4 7 7 5 3 4 1 5 1h4l5-1h5l15-6 5-3 4-3 8-8 4-6 4-4 6-12 2-6 3-6 1-6 2-7 2-12v-5-5-4-3-4l-2 4-1 4-1 5-2 12-1 8-2 9-1 10-2 24-2 13-1 15-1 14-1 16-4 32-3 32-3 16-4 30-3 14-2 13-4 11-3 10-4 9-3 8-5 7-4 5-5 5-5 4-4 2-10 2h-5l-5-2-10-5-5-3-5-4-12-9-6-5-14-12-7-5-7-7-7-6-6-5-7-6-12-9-5-5-5-4-6-8-3-8" style="clip-to-self:true;comp-op:src"/>
<path transform="scale(.1)" d="m3458.4 3245.6v-3l2-4h3 7l4-1h6l5-2 14-2 7-2 8-1 8-2 9-2 16-2 7-1h7 15 4l-6 6" style="clip-to-self:true;comp-op:src"/>
<path transform="scale(.1)" d="m3470.6 3311.9 2 3 3 3 6 1h8l4-1 6-1 6-2 7-2 6-1 14-4 16-4 7-2 8-1 6-1 7-1 4-1 5-1 9-2" style="clip-to-self:true;comp-op:src"/>
<path transform="scale(.1)" d="m3935 3025.3-1-7-2-6-2-7-3-7-3-5-3-4-8-4-8-2-8 2-5 2-5 3-4 3-10 12-4 8-4 11-4 12-3 14-4 17-2 17-4 40-1 21-2 22-1 22-2 23-2 48-6 69-2 21-1 20-2 18-1 17-1 14v12 9 8l1 5v4l4-5 2-5 5-19" style="clip-to-self:true;comp-op:src"/>
<path transform="scale(.1)" d="m3737.8 3272.8 6-6 5-3 5-4 6-3 14-6 8-4 9-4 10-3 10-4 22-8 11-3 24-4 10-2 20-2 8-1 7-1 18-3" style="clip-to-self:true;comp-op:src"/>
<path transform="scale(.1)" d="m4103.1 3169.4-2-3-4-3-5-1-5 2h-3l-3 2-4 2-4 4-4 3-16 16-5 7-6 8-6 9-5 9-6 10-4 10-5 11-4 11-3 11-4 22v11 9l1 9 2 8 4 6 4 5 5 4 7 3 8 1h9 10l10-3 11-4 12-4 11-5 12-7 10-7 25-17" style="clip-to-self:true;comp-op:src"/>
<path transform="scale(.1)" d="m4131.6 3225 2-4 3-3 5-3 3-1 4-2 4-1 9-2h5l5-1h5l15 3 4 1 8 6 3 3 4 8 1 5v6 6l-1 6-2 6-3 6-3 7-3 5-3 6-6 8-5 5-5 3h-3l1-4 1-3 2-3 2-5 3-4 6-10 4-6 5-5 8-11 15-18 4-6 5-6 12-15 2-3 3-3 3-4-6 9-2 5-3 4-2 5-3 6-2 6-3 7-4 14-1 8-2 14v7 7l2 5 1 6 7 7 4 3 6 2h6 6l6-2 7-3 7-4 6-5 15-13" style="clip-to-self:true;comp-op:src"/>
<path transform="scale(.1)" d="m4287.5 3162.5 3-4 6-6 4-2 5-2 10-2h6 5 6l7 1 12 4 6 3 6 4 5 4 6 6 5 6 4 7 6 16 2 9 2 20-2 22-2 11-3 12-3 11-8 22-4 9-5 8-5 7-8 10-4 4-4 3-4 1-4 2h-4l-3-1-4-2-6-6-3-5-6-14" style="clip-to-self:true;comp-op:src"/>
<path transform="scale(.1)" d="m4581.2 3266.9 6-1h5l7-1h8 8 8l8-1h29l7 1h6 6l6 1h5l5 1h7l4 1 3 1h-4" style="clip-to-self:true;comp-op:src"/>
<path transform="scale(.1)" d="m4584.1 3306.6-3 2-3 3v4l3 2 3 1 4 1h5l5 1h7 25 10l9-1h10l11-1h10l11-1h9 10l8-1 8-2 7-1h6 12" style="clip-to-self:true;comp-op:src"/>
<path transform="scale(.1)" d="m5008.4 3311.9-3-1-3-2 1-5 2-5 2-2 4-8 3-3 6-10 8-10 4-6 5-4 5-5 4-5 15-12 4-2 5-3 8-2 5-1h3l3 1 4 1 2 3 3 3 2 3 2 5 1 5v6 15 8l-1 9-1 10-2 9-1 9-4 18-2 8-1 7-2 6-1 5v4l-1 3v4l3-4 3-6 2-3 2-5 3-4 2-5 3-5 2-6 4-7 3-6 8-14 4-8 4-7 5-9 5-8 12-16 5-7 6-7 10-12 5-4 5-3 4-3 4-1 5-1 3 3 2 3v4l1 4v11l-2 12-1 8-1 7-1 17-2 18-1 8v21l1 6 1 4 2 4 1 3 3 3 5 1" style="clip-to-self:true;comp-op:src"/>
<path transform="scale(.1)" d="m5326.2 3237.8-6-7-3-1-3 1-2 3-1 6-1 3-2 10-1 7-2 6-1 7-2 9v8l-1 9v8 9 7l1 8 1 7 2 6 4 10 3 4 2 3 4 2 2 2 4 1h4 4l3-1 4-2 3-2 8-6 3-3 5-4 3-4 6-10 2-5 3-6 3-5 2-7 2-6 9-18 6-10 3-4 6-6 4-1 3 2 1 6 1 4v11l-1 6v12 6 18 6l1 4v4l1 3 4 4 5 1 6-2 2-2 7-6 4-3 7-9 4-5 5-5 4-6 10-14" style="clip-to-self:true;comp-op:src"/>
<path transform="scale(.1)" d="m5488.4 3271.2 2-3 3-6 3-4 1 3v11l1 4v24l-1 7v6 8l-1 7-1 8v6 7l-1 7v17l1 4 1 5 2-1 2-5 2-8 2-4 1-6 1-5 4-12 4-14 3-7 4-8 3-7 5-7 10-12 4-5 5-4 4-3 4-2 3-1 5 2 3 5 1 4 1 5 2 12v7l1 7v7 6 6 7l1 6v5 5l1 3 1 4 2 3 5-1 4-5 3-3 3-4 2-5 4-5 8-12 3-7 5-6 4-7 6-8 5-6 5-7 6-6 5-6 5-5 5-3 4-3 5-2 3-1 6 2 4 6 1 4 1 5 2 12 1 7 1 8v22l-1 8v8l-1 7v6l-1 7v10l2 8 4-3 2-3 4-10" style="clip-to-self:true;comp-op:src"/>
<path transform="scale(.1)" d="m5789.4 3156.9 4-12 4 2 3 5 1 3 1 5v5l1 7v7 9 8 10l-2 20-1 12-1 11-2 24-2 13-2 12-2 11-1 10-2 9-1 7v6l-1 4v4l2-3 1-4 1-3 4-10 2-7 2-6 2-7 4-7 3-7 5-7 4-7 6-7 5-7 6-6 7-6 6-4 12-6 6-1 5-1 5 1 4 2 3 2 3 4 2 4 2 5 1 6v6l-1 7-1 8-2 7-6 16-5 8-6 8-5 7-6 7-7 7-14 10-6 4-7 2-5 2-5 1h-5l-3-1-4-2-2-3-1-3-1-5v-5l2-14 3-7 9-17 13-22" style="clip-to-self:true;comp-op:src"/>
<path transform="scale(.1)" d="m5915 3292.8 2 5 1 4 2 2 2 3 2 2 5 2h4 4l4-1 4-2 4-3 5-2 4-4 5-3 9-9 4-5 4-6 3-5 4-6 4-12 2-5 1-6v-5-4l-1-4-3-4-6 1-3 2-4 3-5 3-4 6-4 5-5 7-4 7-4 8-4 7-3 9-3 8-2 9-2 8-2 14v7l1 5 2 5 4 6 4 2 4 1h4l10-2 15-9 6-5 4-4 5-6 5-5 4-6 5-7 4-6 5-7 5-6 5-7 5-6 5-5 4-6 5-3 5-4 4-2 4-1h3 3l6 5 1 3 3 4 2 5 2 6 1 6 1 7 2 16v16l-1 9-2 16-4 16-4 12-2 4-4 6-4 1-3-1-3-5-1-5v-4-6l2-12 2-7 3-7 3-8 4-8 4-9 6-9 12-20 7-10 8-11 8-10 9-10 17-17 16-12 7-4 5-3 5-2 3-2 5-1" style="clip-to-self:true;comp-op:src"/>
<path transform="scale(.1)" d="m6486.9 3247.5h-6l-4 1-5 2-4 3-10 8-4 6-4 5-5 7-4 6-8 14-3 7-2 6-2 12 1 5 2 5 2 3 4 3 4 2 10 2 6-1 13-3 6-2 6-3 5-4 6-4 4-5 5-5 3-5 4-6 1-6 2-6 1-6v-6-6l-1-7-2-6-2-5-3-5-2-4-3-3-4-3-2-1-4-1-5 1-5 3-2 4 2 8" style="clip-to-self:true;comp-op:src"/>
<path transform="scale(.1)" d="m6573.1 3270.3h4l3-1h4l4-1 6-1h5l6-2 14-4 8-3 7-3 24-12 24-15 7-6 8-6 6-6 12-14 5-8 4-8 6-18 2-11v-10l1-11-1-10v-9l-2-9-3-8-3-5-4-4-5-2-4-1h-6l-6 2-10 8-4 6-5 8-5 9-4 10-4 11-4 12-8 28-3 14-3 16-2 16-3 17-2 19-1 18-1 21v21 42l-1 21v22 22l-1 22-1 21-2 19-1 18-2 16-2 15-2 13-1 11-1 10-2 8-1 6-1 4v3l-1-5 1-4 2-11 1-7 1-8 2-9 1-9 3-30-1-10v-10l-4-20-3-9-4-9-8-16-15-18-4-5-4-4-4-5-6-8-2-4-2-3-3-12 1-3 1-4 1-3 3-3 2-4 8-6 4-4 6-2 5-4 6-3 7-2 7-3 8-3 7-3 9-3 7-3 8-2 8-3 17-8" style="clip-to-self:true;comp-op:src"/>
<path transform="scale(.1)" d="m7054.7 3236.2-4-1h-3l-6-1h-5l-5 1-6 2-5 2-6 3-6 5-5 4-6 7-5 6-5 8-6 9-6 10-8 20-3 10-1 9v10l1 8 3 7 4 7 6 4 7 3 8 2h9l10-1 11-2 11-4 12-4 12-6 11-6 29-18" style="clip-to-self:true;comp-op:src"/>
<path transform="scale(.1)" d="m7159.7 3199.4v-2l1-7v-3l1-3 2-4 2-3 2-1 4 1 5 5 1 5v4l1 7v7 8l-1 9-2 11-2 10-2 12-3 12-3 11-3 13-3 12-2 13-4 12-4 20-2 8-2 7-1 5v4l1 4 5-1 2-2 4-3 8-8 4-6 5-5 5-7 5-6 5-8 6-8 5-7 5-8 10-14 5-6 4-5 4-4 4-3 3-1h4l4 4 1 3v5l1 4v6 41l1 7v7l1 6 1 5 3 5 2 5 6 6 3 1 4 1 5-1 4-1 5-1 6-3 5-3 6-4 13-12" style="clip-to-self:true;comp-op:src"/>
<path transform="scale(.1)" d="m7345.9 3282.8 1-6 1-5v-7-6-5l-1-3-4-4-5 1-4 3-3 3-4 5-5 5-4 7-5 7-4 8-8 18-3 10-3 9-2 9-3 10-1 9-1 8v9 7l1 6 2 6 2 5 6 6 4 1h5 4l5-1 5-3 4-4 5-4 10-10 5-6 4-7 4-6 4-7 3-7 4-7 3-7 4-7 3-5 2-6 3-4 2-3 3-3 3 2v6l1 4v5 6l4 24 2 6 3 6 6 10 3 4 7 7 4 2 3 2h3l10-3" style="clip-to-self:true;comp-op:src"/>
<path transform="scale(.1)" d="m7441.9 3305.3 2-4 2-3 5-4 3-1 4-2 4-1h4 4 4l8 2 5 1 4 3 7 7 4 5 4 10 2 14-1 7-1 8-2 8-2 7-3 7-4 7-3 7-4 5-4 4-3 4-6 4h-6l-4-3-1-3-1-4v-11l1-6 2-8 2-7 2-8 3-8 4-9 3-8 5-8 6-9 5-8 6-8 7-8 6-7 6-6 6-4 5-4 5-2 4-1h4 3l4 4v9" style="clip-to-self:true;comp-op:src"/>
<path transform="scale(.1)" d="m7632.2 3286.9 2-5 2-4 6-10 2-5 3-12v-3l-3-5-5-2-3-1h-4l-9 2-4 1-5 3-5 2-4 3-4 4-3 4-2 3-2 5-2 9v4 6l2 4 1 5 3 6 2 5 6 12 3 5 12 24 3 11 2 6v5 5 4l-2 5-2 4-2 3-6 6-4 2-4 1-5 1h-4l-5-1-4-1-6-1-8-6-4-4-4-5-7-13" style="clip-to-self:true;comp-op:src"/>
<path transform="scale(.1)" d="m7983.4 3235.3-1 4-1 6-1 5-2 12-2 7-1 8-4 16-6 27-3 17-1 7-1 8v6 12 4l1 3 4-1 1-8" style="clip-to-self:true;comp-op:src"/>
<path transform="scale(.1)" d="m7970.9 3177.2h-4l-3 1-3 3-1 3 1 4 3 3 4 2 4 1h3 4 4l5-2 10-2 10-6 4-3 3-3 3-5 2-4 2-5 1-5v-4-6l-1-5-6-15-6-8-4-3-8-4-5-1-10 2-5 3-5 2-5 5-4 5-4 7-3 6-3 8-6 21 1 17" style="clip-to-self:true;comp-op:src"/>
<path transform="scale(.1)" d="m8040.9 3297.2-1-3v-6-5l2-4 1-3 6-8 4-4 5-3 4-3 5-3 4-2 5-2 4-1h4l4 1 3 1 3 2 3 3 2 3 1 4 1 5 1 7-1 6v8l-1 7-2 16-2 8-2 7-1 8-2 6-1 6-2 4v4l-1 4 4-8 1-4 2-5 3-6 3-7 2-7 4-6 3-8 4-7 5-8 4-8 10-16 6-8 6-6 7-6 6-6 6-3 5-3 5-2h5l6 2 4 8 1 5v7l1 8-1 8v9 10 10l-1 10v18l1 8v8 7l1 6 2 8 5 4" style="clip-to-self:true;comp-op:src"/>
<path transform="scale(.1)" d="m8443.1 3265.3v-5l1-3v-4l1-2 4-6 3-3 3-2 8-4 5-2 5-1h5 6 6l6 1 5 2 6 3 5 3 5 4 5 5 3 5 2 6 2 8v8l-1 9-6 20-4 10-5 9-6 10-6 9-7 9-6 8-13 13-6 5-6 4-4 4-4 1-3 1h-4l1-4 2-3 1-4 12-15 11-13 31-31 8-9 9-9 9-10 8-9 8-10 8-9 7-8 6-8 10-10 3-4 3-3-3 1-4 5-4 3-3 4-4 4-4 5-8 12-4 7-3 6-3 8-3 9-3 8-1 9-2 9-2 8v17l2 7 2 8 2 7 4 6 4 5 10 8 14 4h8 7l21-2" style="clip-to-self:true;comp-op:src"/>
<path transform="scale(.1)" d="m1328.8 4039.4v-4l2 3 1 6 1 3 1 5 1 6 1 7 1 9 1 11v13 16 18 20 21l-3 66v21 38 17l1 16 1 14 1 12 2 10 2 8 2 6 2 5 2 4 2 2 5 2 4-2 5-5" style="clip-to-self:true;comp-op:src"/>
<path transform="scale(.1)" d="m1433.8 4278.8-1 3 2-3 5-5 2-3 4-3 7-9 15-15 5-6 12-12 6-5 6-4 5-5 6-3 10-4h4 4l3 3 3 2 2 5 2 6 2 7v9l1 10v11l1 11-1 11v11 11l-1 11v10 18 7l1 5 2 8 4 3h3l6-4 2-4 3-4 3-5 6-14 3-6 2-7 3-8 2-7 4-16 3-7 3-8 2-7 3-7 3-6 3-5 3-3 3-2 6-1 5 3 2 4 3 3 2 5 6 12 3 7 2 6 3 8 3 7 2 7 4 7 2 6 6 10 2 4 2 5 5 5 4 2h4l2-4 3-5 2-4 1-4 2-5 1-5 2-5 2-7 2-6 6-14 4-7 10-16 7-8 6-6 14-12 7-4 7-2 6-1 5 1 5 2 4 3 4 5 3 6 2 6 2 8 1 8 3 27v9l1 9v10l1 8v9l2 14 2 5 2 4 3 3 4-5" style="clip-to-self:true;comp-op:src"/>
<path transform="scale(.1)" d="m1862.5 4232.5 1 4-1 6v3 5l-2 12-2 16-3 30-1 12v11l-1 12v13 13 13l2 28 6 39 1 11 3 9 2 9 3 7 2 5 4 8 3 3 3-1v-4-4-4l-1-4-4-14" style="clip-to-self:true;comp-op:src"/>
<path transform="scale(.1)" d="m1866.2 4324.1 2-7 3-7 3-9 4-9 4-10 6-10 5-10 5-9 7-9 7-7 6-7 6-5 6-4 6-3 5-1h5l4 1 4 2 3 4 2 4 2 14v8l-1 10-2 10-3 11-8 22-5 11-6 12-6 10-7 11-6 9-12 16-17 17-4 2 4-8 3-5 4-6 12-17" style="clip-to-self:true;comp-op:src"/>
<path transform="scale(.1)" d="m2045 4248.8-1 3-3 6-5 9-3 5-2 5-5 11-6 12-2 6-6 12-2 5-2 12v10l1 4 4 6 4 1 3 2h5l10-2 7-2 20-10 6-4 14-10 6-5 5-6 4-5 4-6 4-12 1-7v-7l-2-12-2-7-6-10-4-2-4-3-5-1h-5-6l-6 1-6 3-6 2-10 6-4 3-3 3-2 3v3 3l4 5h3l4 1 10 1" style="clip-to-self:true;comp-op:src"/>
<path transform="scale(.1)" d="m2151.9 4246.2 6-4h4l5 1 3 1 3 2 3 3 4 3 2 4 4 5 4 12 2 8 2 7 1 9v8l-1 9-1 10-1 9-2 10-2 9-3 9-6 16-3 6-3 5-3 4-4 2-3 2-3 1-3-1-6-4-2-4-1-4-1-6v-6-7l4-17 3-9 8-20 6-11 5-11 7-11 8-12 7-12 8-13 9-13 10-13 9-13 20-22 9-9 9-7 21-13" style="clip-to-self:true;comp-op:src"/>
<path transform="scale(.1)" d="m2343.4 4097.2 2-10 1-6 2-10 1-3 2-3 2 3 1 2v4 5 7 9 9l-1 10v13l-1 13-1 15-2 32-2 34-1 16v15 15 13l1 13 1 11 1 10 2 8 1 7 2 6 2 5 3 3 2 3 4 1 6-7" style="clip-to-self:true;comp-op:src"/>
<path transform="scale(.1)" d="m2309.4 4247.5 1-4 3-6 2-3 2-4 11-11 6-3 12-8 7-2 8-4 7-2 24-6 18-4 23-3" style="clip-to-self:true;comp-op:src"/>
<path transform="scale(.1)" d="m2558.1 4220.3-10 2-4 1-5 2-6 3-12 8-14 12-7 7-6 7-6 8-7 8-5 7-4 7-3 8-2 7-1 6v6l1 5 2 5 2 3 3 4 4 2 8 2 10-2 6-2 12-6 7-3 18-15 6-6 10-12 5-7 4-6 4-5 3-6 6-8 2-3 3-3 2 3-1 6v5 5l-1 6v18l1 7v6l1 6 2 10 4 8 1 3 4 3 4 1 5-3 2-2 8-16 8-24 3-6 6-14 3-6 4-7 4-6 3-6 4-4 3-4 4-3 3-1 6 1 4 4 2 3 2 4 2 10v6l1 6v6l1 6v5 6 22" style="clip-to-self:true;comp-op:src"/>
<path transform="scale(.1)" d="m2692.5 4303.1v-3-7-5l3-9 2-3 3-4 2-4 6-8 4-5 3-4 5-5 5-4 4-5 14-14 5-4 8-6 4-1 3-1 3 1h3l5 5 2 4 4 10 1 5 1 7v7l-1 7v8l-2 8-1 8-3 8-4 16-6 21-2 10-1 3v3 3l4-2 3-5 3-4 7-11" style="clip-to-self:true;comp-op:src"/>
<path transform="scale(.1)" d="m2882.8 4068.1 1-3 3-1 1 4 1 3v4l1 5v6 15 9l-1 11v12l-1 13-1 14-1 15-2 15-2 30-2 28v13 23 11l2 18v8l2 7 1 5 2 5 2 4 5-2" style="clip-to-self:true;comp-op:src"/>
<path transform="scale(.1)" d="m2850.9 4206.9v-3-3l1-4 2-4 2-3 3-3 4-3 10-8 7-4 6-3 6-4 8-3 8-4 7-2 8-2 18-5 9-2 8-2 9-3 8-2 17-7" style="clip-to-self:true;comp-op:src"/>
<path transform="scale(.1)" d="m3101.2 4115.6-2-4-2-3-1 4v4 5 14" style="clip-to-self:true;comp-op:src"/>
<path transform="scale(.1)" d="m3116.2 4325.6-1-4-3-4-1-4" style="clip-to-self:true;comp-op:src"/>
<path transform="scale(.1)" d="m2167.2 4814.7 2 3 2 5 1 5 4 10 12 21 5 8 14 16 16 17 20 16 44 32 11 7 10 7 10 6 10 7 8 7 8 6 7 5 5 5 5 4 4 3 3 3 3 2" style="clip-to-self:true;comp-op:src"/>
<path transform="scale(.1)" d="m2363.1 4834.1-4 1-3 1-4 2-3 3-2 3-3 3-6 8-3 5-4 5-4 6-5 7-4 8-6 8-5 9-6 9-7 10-6 9-7 10-14 18-8 10-7 9-8 9-7 8-7 7-7 8-11 11-5 4-9 9 5-11" style="clip-to-self:true;comp-op:src"/>
<path transform="scale(.1)" d="m2271.9 4835v-3-3l-3 4-2 6-2 10-2 6-1 8-1 9-2 10-1 21-1 12-1 11v23l1 11 1 12 1 11 4 22 3 12 2 11 3 10 2 10 7 22" style="clip-to-self:true;comp-op:src"/>
<path transform="scale(.1)" d="m2735 4839.1v-5-4l-2 5v4l-1 4-1 6v6l-2 8-1 8-1 10-2 10-2 11-2 10-3 23-3 11-4 22-1 10-2 10v8l-1 7v7 17 3l2-5 1-4v-3l1-6v-5l1-6v-7l1-7v-8l1-8v-9l1-10 1-11 3-22 2-12 3-11 6-18 3-7 3-4 2-3 3-1 5 3 2 4 3 4 2 5 2 6 3 7 4 16 5 17 2 8 3 8 2 9 3 7 2 6 3 6 3 5 4 8 5 3h4l3-2 3-5 1-4 3-8 1-6 4-12 2-8 2-7 4-16 6-19 4-9 4-11 15-30 6-9 5-7 6-6 5-4 5-3h5 4l4 3 3 5 3 6 4 18 2 11v13l2 27v28l-1 13v14l-1 13v37l1 10 1 9 1 7 2 5 2 4 4 2 6-4" style="clip-to-self:true;comp-op:src"/>
<path transform="scale(.1)" d="m3005.9 4915.9v-5l-1-4-4-1-5 2-3 1-2 3-4 3-7 7-3 5-4 4-6 12-6 14-5 15-2 8-2 16v7 8l1 7 1 6 3 6 3 4 4 4 4 2 5 2h5 6l6-1 6-3 6-2 7-4 6-5 7-5 6-4 15-18 8-12 2-6 3-5 1-4 1-3 1-4-2 5v3l-1 4-1 5v5 12l3 18 3 6 2 5 3 6 4 4 3 5 5 3 4 2 5 2 5 1 5-1 5-2 6-2 5-4 12-11" style="clip-to-self:true;comp-op:src"/>
<path transform="scale(.1)" d="m3142.5 4960v-3l-1-5-3-2-2 4-1 4v5l-1 6v6l-1 8v9 9l-1 9v11 87 13l1 12v12l1 11v9l1 7 1 6v4l2-6v-18-8-9-8l-2-9-3-30-1-11v-11-11-12-11l1-11 1-10 3-9 3-10 3-9 5-9 5-8 6-7 7-7 7-6 9-5 8-5 8-3 9-3 7-3 7-1h7l6 1 6 2 3 4 4 4 2 5 1 7v7l-1 7-3 9-4 9-4 10-6 10-7 10-8 10-8 9-9 8-8 8-8 6-8 5-7 5-5 3-5 1-3 1-5-1 1-4 2-5 4-5 4-6 6-7 6-8 17-19" style="clip-to-self:true;comp-op:src"/>
<path transform="scale(.1)" d="m3369.7 4937.8 1-4-2-3-3-2-5-1h-4l-12 3-6 2-4 3-6 4-5 3-10 10-4 6-4 5-4 6-4 12-1 5v6l1 5 4 10 2 4 8 8 8 7 4 3 4 2 8 5 3 2 4 3v4l-3 4-8 4-5 1-7 2-6 2-21 3h-14l-6-1-5-1-6-2-4-2-5-3-9-9" style="clip-to-self:true;comp-op:src"/>
<path transform="scale(.1)" d="m3742.5 4731.9v5 3l-1 5-1 6-1 7-1 9-2 10-1 11-4 24-4 30-3 16-2 16-1 17-2 16-1 17-1 15v15 14l1 13 4 22 6 16 4 6 4 4 4 3 5 2h4l5-1 4-2 3-3 7-10" style="clip-to-self:true;comp-op:src"/>
<path transform="scale(.1)" d="m3682.2 4940.9 6-6 5-3 5-4 5-3 6-3 15-7 8-4 9-4 9-5 8-4 10-3 9-4 8-3 9-2 8-2 7-1h8l6 1 5 2 4 3 4 4 2 5 1 6v7 7l-6 27-2 10-6 27-1 9-1 8v6 5l2 5 1 3 9 3 4-1 4-2 5-2 5-4 6-3 5-5 6-4 5-6 8-10 3-6 2-6 2-12v-7l-2-14-4-14-3-6-3-5-4-6-8-6-5-1h-5l-6 1-6 4-7 3-8 5-8 6-8 5-8 6-18 16" style="clip-to-self:true;comp-op:src"/>
<path transform="scale(.1)" d="m4314.7 4894.4h-4l-6 1-4 3-3 4-4 4-6 13-3 7-9 24-4 16v9 7 8l2 7 2 6 4 7 9 9 7 3 6 3 6 2 7 1h7 5 5 4 4l3-1-2-4-5-3-6-4-8-6-4-2-4-4-3-4-4-4-3-5-2-5-1-5-1-6 1-6 2-7 7-14 5-7 7-9 7-8 27-27 9-8 10-7 10-6 9-5 10-3 9-2 9-1h9l8 2 14 6 7 5 5 7 4 7 4 8 2 10 1 10v10l-2 10-2 11-2 10-3 11-5 10-3 9-4 9-7 14-3 5-2 4-1 3 2-3 1-4 3-4 3-5 12-18 5-8 4-6 5-8 4-7 5-7 5-8 16-23 5-7 6-5 4-5 6-3 3-2h4 3l2 3 3 2 2 5 1 5 1 6 1 7 1 8 1 9 1 8v8l1 9v8 9 8l1 8 1 7 4 14 4 10 3 4 3 2 3 1 3-1 4-2 7-7 8-13" style="clip-to-self:true;comp-op:src"/>
<path transform="scale(.1)" d="m4652.8 4766.9v-4l1-5v7 5l-1 6-1 7-1 8-2 9-1 10-1 12-2 12-1 13-2 14-1 15-2 14-1 15v15l-2 14v15 13 13l1 11 1 10 3 8 2 7 7 7 4 2h5l5-1 4-2 10-8 4-6 5-5 4-6 3-8 3-7 5-17 6-17 1-8 3-7 1-6 2-5 1-3 1 4-1 4v5l-1 6-1 7v8l-1 7v8l1 8v7l2 8 1 7 2 7 3 6 4 5 3 4 4 4 5 2 4 1h5 5l12-4 5-4 6-4 5-4 6-6 11-12 5-7 4-6 8-14 4-6 2-6 2-5 3-4 2-2 3-1v5 4 5l-1 6-1 7v7l-2 16v9l-3 30-2 24-2 13-2 15-2 14-3 16-6 30-4 14-4 15-6 15-5 14-6 14-6 12-7 12-7 11-9 8-8 8-9 6-9 5-9 4-9 2-10 2h-10-10l-11-1-10-2-22-6-11-4-10-5-10-6-9-8-8-7-9-9-6-9-7-9-4-10-4-9-3-10-1-23" style="clip-to-self:true;comp-op:src"/>
<path transform="scale(.1)" d="m5236.2 4927.2v-5-3l-2-3-3 2-5 6-3 4-3 5-4 5-4 6-9 14-7 16-4 8-3 9-1 8-2 9v8 9 7l2 7 1 7 3 5 3 4 3 3 4 3 5 1h4 4l4-1 3-2 4-2 6-6 2-3 4-8v-5-22-5l1-7 2-6 2-7 3-6 8-12 5-5 6-5 5-4 6-4 6-3 7-2 7-3 6-2h7l7-1 6 1h6l5 2 5 3 4 3 4 4 4 10 1 5v7l-2 14-2 8-6 14-3 8-6 14-4 10-1 4-2 4 7-7 3-4 8-10 5-6 6-6 6-7 6-5 6-7 6-6 14-12 6-6 12-8 5-3 4-2 3-1 5 2 1 5v4 5l-1 5v6l-3 21-2 16v7l2 7 1 7 1 6 2 5 8 8 4 2 5 1h6l6-1 6-2 7-3 8-3 8-4 7-5 8-5 14-13 7-6 5-8 5-7 4-7 3-7 3-8 1-8 1-9v-8-8l-2-7-1-7-2-5-3-3-4-2-4-1h-5l-4 2-10 6-10 10-4 7-4 6-3 7-4 8-2 7-1 9-1 8v8l2 8 6 14 6 8 6 7 7 7 8 6 9 4 10 5 12 3 12 1 13 1 33-2" style="clip-to-self:true;comp-op:src"/>
<path transform="scale(.1)" d="m5902.2 5027.2-1 4 1 2 4 3 5 2h3 4 4 5l5-1 11-2 12-4 14-6 8-4 7-4 7-5 6-4 6-5 6-4 4-5 5-5 2-5 4-8v-4-4l-2-4-2-3-8-4-4-1h-5l-6 1-6 2-7 3-7 4-8 4-7 6-8 6-14 16-7 9-6 9-6 10-8 22-2 10-1 11v10l2 10 4 8 4 9 6 6 7 6 8 6 9 4 10 2 12 2h12l13-1 15-2 14-3 15-4 14-4 14-6 12-6 24-18" style="clip-to-self:true;comp-op:src"/>
<path transform="scale(.1)" d="m6144.7 4857.5v-6-10l-1-5v-4l-3-5-3-1-3 1-3 5-2 4-2 5-2 6-2 8-2 9-2 10-4 24-3 14-2 14-2 13-2 14-1 14-2 30v28 13l1 14 1 12 1 11 2 9 3 8 2 6 3 5 3 4 3 1 4 1 4-1 3-2 8-7" style="clip-to-self:true;comp-op:src"/>
<path transform="scale(.1)" d="m6182.5 5028.4-2 3-1 3 2 4 3 2h6 8l4-1 6-1 12-4 7-3 6-3 7-3 12-7 6-5 9-9 2-4 3-5 2-10v-4l-2-10-4-8-4-3-3-2-5-1h-4-6l-5 2-6 3-6 4-6 5-5 6-6 7-4 7-6 8-3 8-4 9-2 8-1 9v9 8l4 16 3 6 4 7 5 5 5 4 12 6 7 1 8 1 7-1 8-1 8-2 8-3 8-2 8-5 6-4 7-5 5-5 6-5 8-12 4-7 9-24 2-8 4-14 1-6 2-5 1-3 1 3v4l-1 5v18l1 7v7l1 7 1 6 1 7 1 6 1 5 4 10 4 6 4 3h4l5-3 4-6 6-8 2-6 6-12 2-6 4-6 3-7 3-6 8-14 5-6 4-5 5-5 8-6h4l6 1 3 5 2 4v5l1 5v6l1 6v6l1 7v5l1 5v5l2 3 1 4 1 3 3 3h4l4-3 3-3 6-8 3-5 3-4 4-5 2-6 4-4 3-6 4-4 3-5 8-9 4-4 5-4 3-3 4-3 8-2 5 1 4 6 1 4 1 6v6 15 7 26 7 7l1 6v6l3 12" style="clip-to-self:true;comp-op:src"/>
<path transform="scale(.1)" d="m6600.6 5032.8h3l5-1 3-2 4-1 9-4 4-3 11-6 5-3 6-3 9-7 11-11 2-4 2-5 2-8v-4l-1-3-2-5h-5l-3 1-4 2-4 4-4 5-6 5-15 21-5 8-4 9-4 8-2 8-3 8-2 16v8l1 6 2 7 3 4 3 5 10 4 6 2h6 6l7-2 7-1 8-2 8-4 8-3 7-4 7-6 14-10 6-7 6-6 5-7 6-7 5-7 5-8 6-7 4-7 5-7 8-10 6-6v5l-1 3-2 4-2 6-1 6-3 6-1 7-1 8-1 7v7 7l2 14 1 5 3 5 3 4 3 3 4 1 3 1h5l4-1 5-1 10-6 10-8 5-5 4-6 10-12 4-7 20-30 8-10 7-7 3-2 3-1 4 1 2 5 2 2 1 4 2 10 2 4 1 6 2 5 3 5 2 5 3 5 3 4 4 5 8 6 10 4 5 1 4-1 6-1 5-1 4-2 5-3 4-4 5-4 4-4 4-5 3-5 6-12 2-6 2-7 4-15 1-7 1-9 1-8v-9l1-9v-10-10l2-19 2-9 1-9 1-7 2-8 1-3v5 5 6 8l-2 18-1 11-2 10-1 11-2 11-4 44v10 11 11l2 20 2 10 3 8 3 7 3 5 4 4 4 3h5 4 5l5-2 5-3 5-4 5-5 4-6 8-17" style="clip-to-self:true;comp-op:src"/>
<path transform="scale(.1)" d="m6949.4 4970.3h6l3-1 4-1 6-2 6-1 7-3 8-2 9-2 10-3 11-3 23-4 13-4 13-2 22-6 10-3 9-3 19-9" style="clip-to-self:true;comp-op:src"/>
<path transform="scale(.1)" d="m7350.9 4943.4-4 2-3 2-6 6-4 5-3 6-3 7-4 7-3 8-4 8-3 9-2 9-3 10-2 20 1 9 1 10 6 16 6 7 5 5 7 5 8 3 9 1h9 10l11-2 20-8 18-12 20-20" style="clip-to-self:true;comp-op:src"/>
<path transform="scale(.1)" d="m7375.6 4872.5-2 3-1 4v14l1 5 3 5 5 3 3 2 3 1h4 4l5-1 5-2 5-1 4-3 5-4 4-3 6-8 2-5 1-4 1-5-3-15-4-10-9-12-4-3-8-4h-4-4l-4 1-3 2-3 3-3 4-4 10-1 6v7 7l1 7 1 6 2 7 7 17" style="clip-to-self:true;comp-op:src"/>
<path transform="scale(.1)" d="m7448.1 5015.3-6-6-1-4 1-4 2-5 9-9 5-3 4-3 12-6 5-1 6-2h6l5-1 8 2 3 2 3 3 1 3 1 4v6 5l-1 6-4 14-3 7-2 8-9 21-2 6-2 5-1 5-1 3v4l3-2 5-5 3-4 8-10 8-12 10-14 4-6 4-7 5-7 4-7 5-6 5-7 4-5 5-5 4-5 4-3 3-2 3-1 4 1 2 4v14l-2 12v7l-2 7-4 32v8 31 10" style="clip-to-self:true;comp-op:src"/>
<path transform="scale(.1)" d="m7936.2 4839.1 4 5v5l1 6v17l-1 10-1 11-1 13-5 25-2 12-3 14-4 12-9 39-6 24-3 30v13l1 5v4l1 4v-8" style="clip-to-self:true;comp-op:src"/>
<path transform="scale(.1)" d="m7893.1 4927.2 2-3 1-4 4-10 3-5 4-6 5-6 5-5 5-6 14-10 8-4 8-5 8-2 9-3 8-1h8l7 1 8 2 6 3 9 9 3 7 1 7v7l-2 16-3 9-4 8-5 8-12 16-14 14-16 12-7 5-8 4-6 4-7 3-5 3-5 2-3 1-4 2 4 1h5 5l8-1h8l9-1h21 10l11 1 10 2 10 1 10 4 9 3 8 3 7 5 5 5 4 6 4 7 1 8v8l-2 8-6 16-5 7-12 14-8 6-16 10-9 4-10 3-9 2-10 2-10 1h-18l-8-1-9-1-6-1-7-2-6-3-5-3-10-8-4-4-11-12" style="clip-to-self:true;comp-op:src"/>
<path transform="scale(.1)" d="m2211.6 5650.6-3-4-2-5v-3l3-1h6l5 1 10 4 7 3 6 4 7 5 7 6 16 14 8 9 9 9 18 20 9 11 10 11 9 11 8 12 9 11 8 11 8 10 8 9 6 8 8 7 6 6 6 5 7 4 6 3 5 2 6 1 4-1 3-2 5-6" style="clip-to-self:true;comp-op:src"/>
<path transform="scale(.1)" d="m2431.2 5674.1-4-1h-5l-7 2-3 2-5 2-4 2-5 4-12 8-6 5-7 6-6 6-7 6-6 7-7 7-6 8-7 7-6 8-7 8-6 8-7 8-6 8-6 7-6 6-5 6-4 5-12 12-3 2-4 3-7-1" style="clip-to-self:true;comp-op:src"/>
<path transform="scale(.1)" d="m2347.8 5630-2-2-4-6-4-2-4 1-4 5-2 4-3 5-2 6-3 7-2 8-4 20-2 24-1 14v14l1 15 2 33 1 16 2 17 1 17 2 16 1 17 3 32 1 16 1 15v13l1 31" style="clip-to-self:true;comp-op:src"/>
<path transform="scale(.1)" d="m2732.8 5623.8-1-4v-5l-1-4-2 2v4l-1 3v5l-1 6-2 7-1 9-4 20-1 11-4 24-1 11-2 24v11 11 38 7 6 5 10" style="clip-to-self:true;comp-op:src"/>
<path transform="scale(.1)" d="m2708.1 5646.2 2-4 2-5 2-6 4-6 5-6 6-6 7-5 8-6 10-6 11-5 13-6 30-8 15-3 15-2 15-1h14l13 2 12 5 11 6 10 8 8 10 7 11 4 14 3 15 1 15-1 16-3 16-4 17-5 16-7 16-8 16-8 15-9 14-10 13-10 12-10 10-10 8-10 7-10 6-20 8-10 2-10 1-9 1h-10l-8-1-7-1-8-1-6-2-6-3-5-3-3-4-2-6-2-5 1-16" style="clip-to-self:true;comp-op:src"/>
<path transform="scale(.1)" d="m2966.6 5780.6 3 2 4 3 8 4h4 7l5-1 12-2 7-2 8-3 7-2 16-6 7-3 7-4 6-4 5-3 4-4 2-4 2-3v-6l-5-3-3-2-4-1h-6l-6 1-14 3-8 3-16 8-7 5-8 5-6 6-6 7-4 7-7 13-2 14 1 6 2 6 3 5 4 5 5 4 6 3 7 3 7 1 8 1h7 9l8-1 9-1 9-3 9-2 9-3 9-4 9-3 8-5 10-4 8-6 9-5 9-7 16-14 8-9 9-9 8-9 16-24 7-12 8-14 12-30 4-16 4-17 4-18 2-19 1-17 1-18 1-15v-12l-1-10-3-12-2-3-3-1-5 3-3 4-3 7-4 8-3 10-2 13-3 14-3 15-6 51-3 36-1 18-3 57-2 40-2 20-1 21-1 20-2 38-2 18-1 17v15l-1 13-1 11v8 7l-1 4v4l-2-2-1-4-1-5-1-6-2-8-4-22" style="clip-to-self:true;comp-op:src"/>
<path transform="scale(.1)" d="m3094.7 5824.4-2-4-1-5 2-4 4-6 3-2 4-4 4-3 5-4 5-5 6-5 7-5 8-5 18-12 10-7 11-6 10-6 11-6 11-5 10-5 11-4 9-3 9-2 8-1h7 6l5 2 4 2 4 4 3 5 1 5 1 7v8 8l-1 9-2 9-1 9-2 9-2 8-1 8v7l-1 7 1 5 1 3 3 4 4-2 5-8" style="clip-to-self:true;comp-op:src"/>
<path transform="scale(.1)" d="m3343.1 5653.8h-3l-3 2-4 4-3 5-2 3-1 3-2 3-1 6v2l2 6 4 4 3 2 3 1 4 1h8l4-1 10-2 12-6 4-3 4-6 2-8v-4l-3-8-4-10-3-3-3-4-4-3-8-2h-4l-10 2-15 12-3 6-5 6-3 7-2 6-4 18" style="clip-to-self:true;comp-op:src"/>
<path transform="scale(.1)" d="m3395.9 5781.6 1-4 2-6 2-4 2-3 3-5 3-4 3-5 4-4 5-6 9-9 5-6 6-5 5-5 12-8 6-3 5-2 6-1h5l3 1 3 3 3 2 2 5 1 5v7 7l-2 16-2 10-1 9-2 11-2 10-2 9-1 8-2 8v7 5 4l3 3h4l3-2 4-3 3-4 4-4 10-11 5-6 5-8 5-6 5-8 20-28 4-7 5-6 8-10 3-3 3-2h4l2 3 1 4v4 6 7l-1 7v8l-1 9v8l1 9v8l2 7 2 8 3 6 3 5 4 5 5 4 10 4 5 1h6 6l5-2 7-3 12-6 5-4 6-5 5-5 5-6 4-6 4-7 2-7 2-8 2-14v-7l-1-7v-7l-1-6-2-5-2-4-2-3-3-2h-6l-4 1-3 2-4 3-3 5-3 4-3 6-2 6-2 8-2 7v7 8l1 8 2 6 2 7 3 6 4 5 4 6 4 3 5 4 5 3 5 1 6 1h13" style="clip-to-self:true;comp-op:src"/>
<path transform="scale(.1)" d="m3792.2 5724.7-4-1h-3l-4 1-5 1-6 2-6 4-6 3-7 5-6 5-7 5-12 12-5 6-5 7-4 6-3 6-2 6-1 5v6l1 5 1 4 2 4 3 3 8 4 5 1 6 1h5l6-1 6-2 7-1 5-3 7-3 5-3 6-5 5-4 5-6 4-6 5-6 6-14 3-8 1-8 2-10 1-10 2-22v-12l1-13v-14l1-15 1-16 2-17 2-18 6-34 3-14 3-11 2-7 1-4v8l-1 7-1 9-1 11-3 13-1 13-4 29-1 14-4 30-3 45-1 16-1 15v28 13l1 12 1 11 4 24" style="clip-to-self:true;comp-op:src"/>
<path transform="scale(.1)" d="m4380.6 5538.4-4-10-2-6-3-6-3-4-3-2-4-2-4-1h-3l-4 1-3 1-6 4-3 4-3 5-6 12-6 18-6 24-6 30-7 32-4 17-3 17-4 16-4 18-12 51-4 15-4 16-3 14-3 13-2 12-2 10-4 18-2 6-2 5-2 4-3 3-5-1-3-2-8-8" style="clip-to-self:true;comp-op:src"/>
<path transform="scale(.1)" d="m4186.6 5758.1 3-4 4-3 12-10 7-4 9-5 9-4 33-15 12-5 48-16 12-3 11-2 11-3 20-2h9l7 1 7 2 5 3 3 3 2 5v5l-1 6-2 6-2 7-3 7-7 16-6 16-2 8-4 12v10l2 3 4 4 2 1 4 1 4-1 9-3 5-2 4-3 5-3 3-3 3-4 3-3 1-4 1-5v-5l-3-15-3-5-2-5-6-10-3-4-7-7-8-4h-3-4l-4 1-4 2-6 6-3 4-2 9-1 5 1 4v5l5 8" style="clip-to-self:true;comp-op:src"/>
<path transform="scale(.1)" d="m4472.8 5717.2 4-4 3-2 4-2 8-2h4l8 2 5 2 3 3 4 3 6 10 2 6 2 7 1 7v8 9l-1 9-2 9-2 10-6 18-3 8-3 6-4 6-3 5-3 4-2 3-3 1-5 1-3-3v-3-3l1-5 4-12 3-7 4-8 4-9 10-16 5-9 7-9 6-8 7-9 7-8 7-9 16-16 8-7 14-10 5-3 5-2 8 2" style="clip-to-self:true;comp-op:src"/>
<path transform="scale(.1)" d="m5107.2 5765v3l4 1 4-1 5-4 4-2 4-3 4-4 6-3 10-10 7-5 7-6 18-18 7-6 5-7 6-7 4-6 4-7 6-13 2-14 1-6-1-7-1-6-1-4-3-4-3-2-4-1-4 1-6 2-6 5-8 5-16 16-8 10-8 11-8 12-7 13-7 14-6 14-5 14-6 30-2 14v14 12l1 11 2 10 6 14 5 5 5 3 6 2 7 1 7-1 8-2 10-3 9-5 9-6 10-7 11-8 20-18 20-22 10-12 9-10 9-12 9-10 7-10 13-21" style="clip-to-self:true;comp-op:src"/>
<path transform="scale(.1)" d="m5297.5 5661.2v-3-4l1 4 1 6 1 3 1 5 1 4 1 6 2 6 1 6 1 7 4 16 2 7 2 8 2 9 1 8 2 8 4 14 3 6 1 5 3 5 1 3 4 4 3 1 3-4 2-3 1-4 2-4 2-5 2-6 2-12 4-14 1-7 2-8 1-7 6-24 2-7 8-16 3-4 4-3h3l3 3 1 3 2 8 2 10v5l1 6v6 5l1 5v5l1 5v4l2 8 1 3 2 5 4 2 4 1 7-2 3-1 8-6 5-4 5-3 5-5 6-5 5-6 5-5 10-12 4-7 4-6 3-6 4-7 6-18 1-5 1-4v-3l-1-4h-4l-6 7-4 5-5 6-4 7-5 8-4 10-4 9-4 10-6 21-2 11-1 11v11 11 10l1 9 2 8 1 7 3 5 3 4 4 3 4 1h4l5-1 4-3 6-3 5-4 6-6 6-7 5-7 5-8 6-9 10-18 5-10 4-9 5-9 4-9 5-7 4-8 4-6 4-5 8-6 4-1h3l8 4 6 8 6 12 2 8 3 8 2 8 3 9 2 10 1 9 1 10 1 9 1 10 1 9 1 8v19l-1 4v4l-2 4-4-1-3-5-1-5-1-4-1-6-1-7v-8l1-8v-10l2-9 1-11 6-20 4-11 5-9 4-9 6-9 5-7 10-12 5-4 5-3 4-3 6-2 6 2" style="clip-to-self:true;comp-op:src"/>
<path transform="scale(.1)" d="m5736.6 5677.2-3-3-4 4-1 3-1 4-1 5-2 6-1 6-2 8-1 7-1 8v18l1 9 1 10 4 18 2 8 6 14 3 5 3 4 3 2 4 2 4 1 3-1 4-1 4-2 7-7 6-10 4-6 3-7 2-6 3-7 2-7 2-8 1-6 4-14 3-10 2-4 1-3 4-2 2 3 1 2 1 5 1 6 1 7v9l1 10v11l1 11 1 13 1 14 1 13v14l1 14v27 13 14 26l-1 13-2 25-1 12-2 11-4 20-3 9-4 8-3 7-4 6-5 5-4 5-4 3-10 6-4 1-5 1h-5-5-4l-5-1-8-4-3-2-4-3-4-8-2-5v-5-13-6l2-8 3-8 2-9 3-9 4-10 4-11 10-22 7-13 6-12 8-12 9-14 9-13 10-12 10-13 11-12 27-25" style="clip-to-self:true;comp-op:src"/>
<path transform="scale(.1)" d="m6215.6 5785.3-3 2 3 2h3l6-2 4-3 10-5 5-4 12-8 6-5 7-5 12-10 5-5 5-6 3-4 4-5 2-5 2-3v-4-3l-3-5-6-1h-4l-5 2-12 4-14 10-8 6-16 14-14 16-10 18-4 9-3 9-2 8-1 8v7l1 6 1 5 4 3 3 3 5 1 6 1h7l7-2 8-1 27-9 9-4 10-4 8-4 9-4 16-10 7-5 6-6 13-12" style="clip-to-self:true;comp-op:src"/>
<path transform="scale(.1)" d="m6425 5555.3-3-3-3-4-3-3h-4l-3 3-1 6-2 4-1 5-1 6-1 8-1 9-1 10-1 12-1 14-2 32-1 18-2 18-1 18-2 34v16l1 14 2 13 2 11 3 10 3 8 4 7 3 5 4 5 4 2 5 2 4 1 10-2 12-6 12-10 6-6 15-24 4-9 6-20 2-10 2-9 2-10 1-8v-8-6-6l-3-9-3-1-4-2-3 1-3 2-2 3-4 4-3 4-3 5-6 13-4 14-2 9-1 8-1 9-1 8v8l1 9 1 8 2 7 2 6 4 6 3 5 4 5 4 3 5 3 4 2 5 1h5 5l6-2 5-3 6-4 13-12" style="clip-to-self:true;comp-op:src"/>
<path transform="scale(.1)" d="m6584.4 5710.3v-3 7l-1 4-2 11-2 7-1 8-3 8-2 9-2 10-2 9-1 9-4 18-1 8-1 7v6l-1 5v8l4-3 2-3 2-4 3-4 4-5 6-14 4-7 8-16 4-7 4-9 4-7 7-14 5-6 6-8 6-4h4l3 3 1 3 2 8v5l1 5 2 13 1 6 1 7 1 6 2 11 1 5 2 4 1 4 2 3 4 3h4l4-3 2-3 9-12 3-6 3-5 4-6 2-6 4-6 3-7 7-11 3-5 6-8 3-3 3-2 4-1 4 3 2 3 1 3 1 5v6l1 6v8 7l1 9v8l2 16 2 8 3 8 6 12 3 5 5 3 5 2 4 2h6l5-1 6-2 5-3 6-4 18-18" style="clip-to-self:true;comp-op:src"/>
<path transform="scale(.1)" d="m6827.5 5763.1h8 6l6-2 4-1 4-2 4-1 8-5 5-4 9-6 4-4 4-5 4-4 3-4 3-5 2-4 1-5 2-4v-5-8l-2-5-3-1-5 1-3 3-3 2-3 5-4 5-3 7-6 16-4 10-4 20-3 11-1 11-2 11v11l-1 10 1 9 1 8 2 6 3 6 6 6 4 2h5l5-1 6-2 7-4 6-3 14-12 14-16 6-8 7-9 6-10 6-9 5-9 6-10 4-9 6-8 4-8 5-7 3-5 4-4 2-3h3l1 4v4l-1 5v5 6l-1 7v29l1 7v7l1 7 2 12 1 5 2 5 2 3 4 4h3l6-4 2-3 4-4 3-5 4-5 20-30 5-7 4-5 5-4 8-8 4-2 6-2 6 1 4 5 3 3 2 3 4 10 3 6 2 5 6 12 6 10 4 5 8 6 4 2 4 1 3 1 4-1 8-4 8-6 4-5 3-5 4-5 3-6 6-15 3-7 2-8 3-9 4-18 2-10 2-11 2-10 2-24 2-12 1-14 1-11 2-12 1-11 1-8 1-6 1-5v4l-1 5v7l-1 7-1 8-2 20-1 11-2 24-2 13-1 13-1 12v14 25 11l1 11 4 18 4 12 2 4 5 5 5 1 5-2 4-6 1-4 2-4 1-12" style="clip-to-self:true;comp-op:src"/>
<path transform="scale(.1)" d="m7130.6 5716.9-3-3-3-4v-4l3-4 3-3 3-2 8-5 6-4 5-2 7-3 14-4 8-2 9-2 9-1 9-2 10-2 24-4" style="clip-to-self:true;comp-op:src"/>
<path transform="scale(.1)" d="m7540.9 5716.9-4 1h-4l-3 1-3 2-6 6-3 4-3 5-3 4-3 5-2 6-3 5-3 15 1 5v5l2 3 2 4 4 2 3 2 10 2 5-1h7l6-2 14-4 15-7 8-3 6-4 7-4 6-4 10-8 4-4 3-4 2-4 2-5 1-4v-5-4l-2-5-2-3-3-4-7-7-4-2-3-3-8-2-3-1h-9" style="clip-to-self:true;comp-op:src"/>
<path transform="scale(.1)" d="m7629.7 5695.3 4 3 5 2 6 1h3 4l4-1 10-2 5-2 5-3 6-2 5-4 6-3 6-4 7-5 6-4 6-5 6-6 5-6 6-6 5-6 4-7 5-7 3-8 4-8 3-8 2-8 2-9 2-18v-8l-1-8v-7l-2-4-1-4-4-2-5 2-3 4-3 6-4 6-2 9-4 11-3 12-4 13-4 15-4 17-3 19-5 20-8 44-4 24-3 25-3 24-2 24-1 22-1 21 1 19v17 16l1 14 1 13 1 12 1 9 2 9 1 8 1 6 2 5 4 6 3 2 4-1 4-6 4-8 2-5 2-7 2-5 2-14 2-6v-7l-1-7-1-6-2-7-2-6-3-5-4-6-3-4-5-5-4-5-6-4-16-12-5-4-5-3-5-4-10-10-4-6-2-6v-5l6-9 7-7 5-3 4-4 15-12 6-3 5-4 7-4 5-3 6-4 7-2 6-4 7-3 7-2 6-3 14-4 16-3" style="clip-to-self:true;comp-op:src"/>
<path transform="scale(.1)" d="m8107.8 5613.1-5-1-5 2-4 2-2 4-4 5-7 14-3 9-5 9-5 10-4 11-6 13-6 12-5 14-5 13-6 15-5 14-6 14-4 13-7 21-2 8-2 6-1 4v4l2-2 2-3 2-5 3-6 2-7 6-16 2-9 4-10 5-20 3-11 2-11 3-11 3-12 6-26 4-14 3-14 5-14 4-13 5-11 4-9 4-7 4-5 3-3h5l2 2 2 4 2 6 1 6 4 18 2 11 4 21 3 12 6 33 2 10 3 11 4 20 3 9 2 9 3 7 2 7 4 12 4 8 4 6-4-6" style="clip-to-self:true;comp-op:src"/>
<path transform="scale(.1)" d="m8030.9 5754.1 2-3 4-2 4-1h3l5-2 5-1h6l21-3h7l9-1 24-3 22-2" style="clip-to-self:true;comp-op:src"/>
</g>
</g>
<g stroke="#ff0" stroke-width="14.1">
<path transform="scale(.1)" d="m3315 6354.1v-4-4l3-2 4-2h13l5 1 7 1 7 2 8 2 7 3 18 8 9 5 18 13 8 7 10 8 8 9 9 8 8 10 9 9 8 10 8 9 8 8 8 9 7 8 7 7 14 12 6 5 5 4 10 4 4 2h3l4-3 2-11" style="clip-to-self:true;comp-op:src"/>
<path transform="scale(.1)" d="m3503.8 6327.8-3-2-4 1-4 2-4 4-2 3-3 3-6 7-4 4-3 5-4 6-5 5-4 7-10 14-6 7-5 8-12 16-5 9-6 8-6 7-4 8-5 6-4 6-4 5-3 5-10 10v-4" style="clip-to-self:true;comp-op:src"/>
<path transform="scale(.1)" d="m3468.4 6306.9-2-3v4l-1 3v3 5l-1 6-1 7v8l-1 9-1 10-2 24-1 14-2 30-2 32-1 17v17 32 13l1 12 1 10 2 7 5 11" style="clip-to-self:true;comp-op:src"/>
<path transform="scale(.1)" d="m3763.1 6360.9 1-4v-5l2-3 3-1v4 8l-1 6v7l-2 8-2 9-2 10-4 22-3 12-2 12-2 13-2 14-1 13-2 13-1 12-1 9v9 13 4l7-4" style="clip-to-self:true;comp-op:src"/>
<path transform="scale(.1)" d="m3868.8 6431.6 3-1 4-2 5-1 12-4 7-3 6-3 7-3 8-4 7-4 8-5 21-18 6-6 5-8 5-7 5-8 4-7 6-16 1-7v-7-6-6l-1-4-2-4-2-2-3-2h-3-3l-3 1-4 3-4 4-3 5-4 5-4 8-4 9-4 10-4 11-8 26-4 14-4 15-4 16-3 16-3 17-3 18-2 20-2 19-2 18-2 19-2 16-1 17-1 14-2 24v24l1 5v3 5l-2-4-1-3-2-12" style="clip-to-self:true;comp-op:src"/>
<path transform="scale(.1)" d="m3816.6 6570.6-1-3v-5l2-4 6-4 22-11 8-5 8-4 9-4 20-10 10-4 10-6 10-5 9-6 9-5 20-12" style="clip-to-self:true;comp-op:src"/>
<path transform="scale(.1)" d="m4165 6472.5 1-4v-5l2-4 2-3 6-6 2-3 13-13 4-2 4-4 15-6 6-2h5 5 6l8 4 4 3 3 4 2 4 2 6 2 7v9 8 10l-2 10-1 10-2 10-1 9-3 9-2 14-1 5-1 3v4l3-2 2-3 3-4 3-5 4-6 3-7 5-8 9-17 11-18 6-10 5-9 6-8 7-9 12-14 6-6 6-5 10-6h4 3l3 1 3 2 1 3 2 4 1 5 2 6v6l3 20 1 8 1 7 2 7 1 6 1 5 4 8 3 2 4 3h5l5-3 4-3 6-8 4-4 2-5 4-5 5-11 4-6 3-6 2-6 3-5 2-5 2-4 5-5 3-1 2 3 2 5 1 4v4l1 6v5l5 30 4 10 3 4 6 6 4 2 3 1h4l5-1 4-1 5-3 4-2 12-12 6-10 4-10 1-6v-5-6l-1-6-2-5-2-6-6-10-4-4-3-4-4-3-5-2-4-1-5-1-5 1-6 1-5 2-7 2-6 3-6 4-6 3-5 4-8 8-4 8v3l1 3 6 2" style="clip-to-self:true;comp-op:src"/>
<path transform="scale(.1)" d="m4592.2 6291.9 4-14 1-3 2-5 3-1 2 3v5l1 4-1 5v6l-1 7v8l-1 10-2 10-1 11-1 13-2 13-2 14-2 13-2 27-1 14 1 14v13l2 12 1 10 3 9 3 7 3 6 5 4 4 3 5 2h5 6l5-1 6-2 5-2 6-4 5-3 5-5 5-6 8-13" style="clip-to-self:true;comp-op:src"/>
<path transform="scale(.1)" d="m4569.7 6409.7-2-4v-4l3-2 2-2 8-5 5-2 4-3 6-2 6-3 7-3 14-4 8-3 7-3 7-2 6-4 16-6" style="clip-to-self:true;comp-op:src"/>
<path transform="scale(.1)" d="m4789.1 6475 3 2v3l1 5v14l-1 9-1 11-2 10-2 12-3 11-4 11-3 10-5 11-5 10-5 9-6 9-5 8-6 8-5 6-11 11-5 4-5 3-6 3-6 2-20 1" style="clip-to-self:true;comp-op:src"/>
<path transform="scale(.1)" d="m5203.8 6351.6-4-4-3 1-6 9-2 6-1 6-2 6-4 16-4 18-2 10-2 11-1 11-1 10v12 10 10l2 9 2 8 3 6 3 5 8 6h5 5l5-2 6-3 5-4 5-5 11-15" style="clip-to-self:true;comp-op:src"/>
<path transform="scale(.1)" d="m5197.2 6277.5-2 2-2 10v5l2 4 3 3 5 1 6-1 3-2 16-12 4-4 3-5 3-4 6-15 1-5v-5l-3-15-8-16-3-2-6-2h-3l-3 2-5 2-8 8-4 5-4 6-2 6-3 6-1 6-1 15" style="clip-to-self:true;comp-op:src"/>
<path transform="scale(.1)" d="m5359.7 6205.6-5-2-4 2-3 2-2 3-3 5-2 6-6 16-2 9-3 11-3 10-3 13-2 13-3 14-2 15-4 34-2 18-2 19-1 19v19 35 16l2 14 2 12 2 10 3 7 2 5 2 4 5 2 5-6" style="clip-to-self:true;comp-op:src"/>
<path transform="scale(.1)" d="m5256.6 6413.8 2-3 4-2 3-1 3-2 5-1 6-3 6-2 6-3 16-6 10-3 9-3 10-3 9-3 10-4 22-7" style="clip-to-self:true;comp-op:src"/>
<path transform="scale(.1)" d="m5484.7 6347.2-2-3-3-3-4-3-5-1-6 1h-4l-5 2-4 2-5 3-6 3-5 4-6 4-5 6-5 5-5 6-4 7-3 8-3 6-2 14v6l2 7 2 5 3 5 4 5 4 4 5 3 5 4 12 6 7 3 5 2 6 2 10 4 4 3 3 1 3 3v3 3 4l-3 4-8 8-5 4-7 4-7 3-8 4-7 3-7 2-8 2-6 2-7 1h-5-5l-8-2-4-3-3-2-3-10" style="clip-to-self:true;comp-op:src"/>
<path transform="scale(.1)" d="m5859.1 6402.5-2-2-3-1-4-2-5-1h-6l-7 1-7 3-8 3-8 4-8 5-9 6-8 6-21 21-5 7-4 7-3 8-3 6-1 7-1 5 1 6 1 4 6 6 4 1 5 1 12-2 7-3 6-2 16-8 7-5 8-5 7-4 6-5 7-4 6-5 4-3 5-4 9-9v4l-1 4-1 5-2 5-1 6v6l-1 7v7 6l1 7 3 6 3 5 4 5 5 3 6 3 7 2 7 1h8l9-1 8-2 18-4 16-8 19-11" style="clip-to-self:true;comp-op:src"/>
<path transform="scale(.1)" d="m6374.4 6382.2 1 5-1 4v6 7l-1 8v10l-1 10-1 11-1 12-1 13-2 14-4 30-2 17-2 16-2 17-2 16-4 30-3 14-3 27-4 22-1 9-1 8-1 7-2 6-1 4-2 3-4 3h-4l-4-5-2-4-3-4-2-6-1-7-3-18" style="clip-to-self:true;comp-op:src"/>
<path transform="scale(.1)" d="m6302.8 6547.2v-4l1-7 2-11 2-16 6-31 4-15 4-13 6-14 5-12 6-10 8-9 7-8 8-7 9-5 9-4 9-3 9-2 10-2 9-1h8l8 1 8 2 7 3 5 3 5 5 3 5 3 7 2 8 1 8-1 9-1 10-2 11-8 22-6 12-6 11-7 11-8 10-7 8-9 8-8 6-8 5-7 4-7 3-7 2-5 1h-5-4l-4-2-4-1-2-6v-4l1-6 2-6 10-17" style="clip-to-self:true;comp-op:src"/>
<path transform="scale(.1)" d="m6569.4 6426.6 3-4-4-1-6 2-3 2-5 3-5 4-7 5-6 5-7 6-7 7-7 8-6 8-7 10-4 9-6 9-3 10-3 9-2 8-1 8-1 7 1 6 1 5 2 4 2 3 4 1 3 1h4l5-2 4-2 6-2 5-4 7-4 6-4 10-12 6-7 4-8 5-8 4-9 4-8 3-9 4-8 3-7 2-6 6-12 4 2 2 7 1 4 3 15 1 7 2 6 3 13 1 6 2 6 1 6 4 13 2 3 2 4 2-3v-22l2-12 1-7 2-7 4-17" style="clip-to-self:true;comp-op:src"/>
<path transform="scale(.1)" d="m6648.1 6437.2 4-3 5-3 3-2 3-1h3 5 4 4l5 1 5 2 5 1 4 2 5 4 4 3 5 4 3 5 6 12 2 14 1 9v8 8l-1 8-2 8-2 7-3 7-3 6-2 5-3 4-3 3-4 3-3 1h-5l-5-1-3-5-1-3v-4-4-6l2-5 1-7 2-6 3-7 4-7 4-8 5-8 5-7 12-16 16-16 7-8 9-7 8-7 17-14 19-15" style="clip-to-self:true;comp-op:src"/>
<path transform="scale(.1)" d="m6878.4 6268.1v-3l1-3v-10l-1 4-1 6-1 5-1 6v7l-1 8-1 9-1 10-1 11-1 12-2 13-4 28-3 15-6 32-3 17-2 17-2 16-1 16v13 12l2 10 2 9 3 6 8 8 4 2 5 1h5l5-1 6-2 12-8 4-5 5-7 4-7 7-19" style="clip-to-self:true;comp-op:src"/>
<path transform="scale(.1)" d="m6817.5 6435 2-2 5-3 8-4 6-2 5-1 8-2 7-3 9-2 8-2 9-2 8-2 9-2 9-1 8-1h8 7 6l6 1 6 2 8 6 3 4 4 12 1 7 1 9v9l-2 20-1 12-1 10-2 11-1 11v9 9 7l1 6 1 5 4 6 4 1 3-1 3-2 3-3 7-11" style="clip-to-self:true;comp-op:src"/>
<path transform="scale(.1)" d="m6990.3 6348.1-3-1-3 1-2 4-2 3-2 5v5l2 5 7 7 3 1 3 2 8 2h7l4-1 6-2 4-4 3-5 1-3v-7l-1-4v-4l-2-4-2-8-2-3-2-2-5-3h-4l-5 3-4 6-1 4-2 4-1 13" style="clip-to-self:true;comp-op:src"/>
<path transform="scale(.1)" d="m7172.2 6427.5 3-4 2-2 2-4 1-3v-3l-2-4-6-4-4-1h-6l-6 1-7 2-8 2-8 4-9 4-18 12-8 7-8 8-7 8-7 9-5 8-5 10-5 9-6 18-2 7-1 7-1 6 2 8 3 2 5 3h4 4l5-1 6-2 10-6 12-8 16-14 4-5 5-5 5-4 3-4 7-4 5-2 3 2 2 5 2 8 3 15 1 7 2 5 2 6 4 5 3 5 4 5 15 9 12 2h5 6l12-4 5-3 6-4 5-4 5-5 4-7 5-6 3-7 4-9 2-9 4-20 2-11 1-12 2-13 1-12 1-14 4-28 4-30 4-15 3-16 4-16 4-15 3-14 4-13 4-11 3-9 2-7 2-4 3-4v6l-1 4-1 7-2 8-1 9-3 11-2 12-3 13-4 15-3 14-3 16-4 16-3 16-7 36-3 18-3 17-2 18v17l-1 15v15l1 11 1 10 3 7 3 6 5 5 4 3 5 2h5 6l6-2 6-3 14-9" style="clip-to-self:true;comp-op:src"/>
<path transform="scale(.1)" d="m7834.1 6206.2-4-5-2-3-3-2-3-3-6-2-5 1-3 1-3 3-2 3-2 5-3 6-2 7-3 9-2 10-3 11-2 12-2 13-2 14-4 31-1 16-2 15-1 16-2 17-2 34v19l-1 17v32l1 14v41l-1 6-1 5-1 4-2 3-6 5" style="clip-to-self:true;comp-op:src"/>
<path transform="scale(.1)" d="m7639.7 6434.1v-3l1-7 1-3 6-8 5-4 6-3 7-4 16-8 20-8 12-4 23-6 12-3 25-4 25-3 12-1h11 10 9l9 1 7 1 13 4" style="clip-to-self:true;comp-op:src"/>
<path transform="scale(.1)" d="m7908.1 6391.6 4-8-4-1-7 7-3 5-4 5-4 6-4 7-4 8-3 8-4 9-2 9-4 20v10 9l1 10 2 9 2 7 7 14 4 4 5 4 5 3 12 2h7l7-1 6-1 7-2 7-3 6-4 7-5 6-5 6-6 5-7 9-15 3-8 3-9 3-7 2-8 1-7v-6-8l-1-5h-5l-6 9-4 10-4 12v7 7 7l2 14 2 6 6 10 2 4 6 4 8 3" style="clip-to-self:true;comp-op:src"/>
<path transform="scale(.1)" d="m8058.8 6435-1 4-1 3-1 4-1 5-2 5-1 6-2 14-2 8-1 8-2 14v6l-1 7v18l1 4 3-1 2-4 2-3 2-8 2-5 1-5 1-6 2-6 2-7 2-8 4-14 3-8 8-16 5-7 6-7 12-12 5-4 6-3 5-2 6-1 4 1 3 1 4 2 3 4 2 3 4 10 1 6 1 7 1 8v8l1 8-1 9v9 8l-1 9v7 14 4l1 5 2 4h4l8-8" style="clip-to-self:true;comp-op:src"/>
<path transform="scale(.1)" d="m8300.6 6395-5-2-6 2-9 4-5 3-5 4-5 3-6 5-11 11-5 7-6 7-5 8-8 18-3 10-2 10-1 10v9 10l2 9 2 8 4 7 5 6 6 4 7 4 7 2 8 1h9 10l10-2 10-3 10-4 11-4 11-5 18-14 9-8 8-10 7-10 7-12 5-11 8-26 6-27 3-13 1-14 4-28 2-13 1-14 2-12 1-11 1-8 2-11-1-3-2 4v5l-1 6v7l-1 8-1 10v10l-1 12-2 12-1 14-2 14-2 15-3 17-2 18-3 18-2 18-3 17-1 15-1 14-1 12v18 7l1 5 1 4 3-9" style="clip-to-self:true;comp-op:src"/>
<path transform="scale(.1)" d="m8345.9 6459.1 1-4 4-5 6-6 4-3 5-3 6-5 6-4 7-4 7-3 8-4 24-6 7-1h8 7l7 1 6 2 5 2 5 4 4 4 4 5 2 5 2 7 3 15v8 46l1 8v7l1 6 2 4 1 3 4 5" style="clip-to-self:true;comp-op:src"/>
<path transform="scale(.1)" d="m8525.9 6323.4-3-2-4-1-5 1-6 4-3 3-2 3-2 4-1 3-1 4v4 4l2 5 1 3 3 4 3 3 8 6 5 2 10 2h5 6 6l5-1 5-2 4-1 5-3 6-6 2-4 2-3v-4-4l-1-5-1-4-4-8-3-4-4-3-4-2-3-1-5-1h-5l-10 2-5 2-4 4-4 3-6 8-4 14" style="clip-to-self:true;comp-op:src"/>
<path transform="scale(.1)" d="m8639.1 6432.2-3-3-4 2-3 2-3 3-3 4-4 4-4 6-4 7-5 7-8 16-5 8-3 9-3 8-1 7-1 8v6l1 6 6 10 4 3 5 3 6 2 5 1 7 1h7l6-1 8-1 7-2 6-2 7-4 5-4 5-3 5-5 6-12 2-6 2-7v-7l1-8-2-16-4-14-2-6-3-4-4-4-4-3-10-4h-6-6l-7 2-6 1-6 3-7 3-5 3-5 4-3 4-3 3-1 5-1 3 1 4 2 3 3 2 3 3 4 1h5l5-1 15-4" style="clip-to-self:true;comp-op:src"/>
<path transform="scale(.1)" d="m8746.2 6427.5 2-8 1-3 3-1 3 3 1 6 1 5v13l-1 9v10l-1 10-1 11-2 11-1 11-2 10-1 10-2 9-1 9-1 8-1 6v5 5 3l1 3 3-1 4-4 7-14 2-6 3-6 3-8 3-7 5-16 4-9 3-9 3-10 3-9 8-20 10-18 5-8 16-16 5-2 4-2h4 3l4 2 3 2 3 3 3 4 3 5 4 14 2 8 1 8 1 10 1 9v10l1 10v9 9l1 9v8l2 7 1 7 1 6 2 5 1 4 2 3 8 4" style="clip-to-self:true;comp-op:src"/>
</g>
<g stroke="#fff" stroke-width="14.1">
<path transform="scale(.1)" d="m2666.6 3241.9-1-4v-4l-1-4v-3l-1-4-2 5-2 8-2 12-3 7-2 8-1 8-2 9-4 16-1 8-2 8-1 8-1 7v5l-1 6v7l1 3 2-3 1-8" style="clip-to-self:true;comp-op:src"/>
<path transform="scale(.1)" d="m2662.5 3127.5-2-1h-4l-3 2-3 4-1 4-1 3-2 4-2 9v4l-1 5 1 3v4l2 3 3 4 5 2h6l6-2 3-2 5-4 2-2 2-4 4-6 3-12v-4-4-4l-2-8-1-5-1-3-1-4-2-3-1-3-4-3h-3l-4 3-1 3-3 4-1 4-2 4-1 5v5l-1 5 1 12" style="clip-to-self:true;comp-op:src"/>
<path transform="scale(.1)" d="m2795.9 3208.1 1-4-1-5-2-4-2-3-8-4h-5l-7 1-6 3-3 2-3 3-3 2-3 3-2 5-3 4-3 5-2 5-3 5-2 6-1 5v5 6 4l1 5 2 5 6 8 2 4 4 4 8 7 4 3 4 4 4 3 5 4 14 14 3 4 2 4 2 5 1 4 1 5v4 4l-2 5-1 4-2 3-7 7-8 5-10 4-6 1-5 1-6 1h-6l-6 1h-5l-6-1h-6l-6-1-7-2-5-2-6-2-6-3-13-8" style="clip-to-self:true;comp-op:src"/>
<path transform="scale(.1)" d="m3173.4 9295.3v44l-2 88-3 43-2 43-8 84-4 40-5 40-5 39-5 37-7 37-6 36-7 35-7 34-14 66-9 31-16 60-9 28-8 28-9 27-9 26-20 50-9 23-10 24-10 22-10 21-11 21-20 40-11 19-22 36-11 17-22 32-12 15-22 28-12 13-35 35-13 11-11 10-13 10-36 24-12 7-13 6-12 6-13 5-12 5-12 4-13 3-12 3-13 2-12 1-26 2-12-1-13-1-12-1-13-2-12-3-13-3-12-4-13-5-12-5-24-12-13-7-36-24-24-20-24-22-24-24-11-13-12-14-11-14-12-15-22-32-11-17-22-36-10-19-22-40-20-42-10-22-10-24-9-23-10-25-9-25-9-26-9-27-18-56-16-60-8-31-8-33-7-33-7-34-7-35-6-36-7-37-5-37-5-39-10-80-6-84-3-43-2-43-2-44-1-44v-44-44l1-44 2-43 2-44 9-126 5-41 10-78 5-38 7-37 6-36 7-35 7-34 7-33 8-32 8-31 16-60 18-56 9-27 9-26 9-25 10-25 9-24 10-23 20-44 10-21 11-20 11-19 10-19 22-36 11-17 22-32 12-15 11-14 12-14 11-13 36-36 36-30 12-8 12-9 12-7 13-7 12-7 24-10 13-5 12-4 13-3 12-3 13-2 12-1 13-1 12-1 26 2 12 1 13 2 12 3 13 3 12 4 12 5 13 5 12 5 13 7 24 14 12 9 12 8 13 10 11 10 13 10 11 12 24 24 12 13 22 28 12 15 22 32 11 17 22 36 11 19 10 19 10 20 11 21 20 44 10 23 9 24 20 50 9 26 9 27 8 28 9 28 16 60 9 31 7 32 7 33 7 34 7 35 6 36 7 37 5 38 10 78 4 41 8 84 2 42 3 44 1 43 1 44v44" style="clip-to-self:true;comp-op:src"/>
<path transform="scale(.1)" d="m4859.7 9380.6-1 48-1 49-1 47-2 47-3 47-3 46-4 45-4 43-5 43-5 41-6 40-5 39-7 38-6 37-14 70-14 66-8 31-8 30-7 30-8 28-9 28-8 27-9 26-9 25-8 24-9 24-9 23-10 22-9 22-10 20-9 20-10 20-10 19-10 17-10 18-10 17-10 16-10 15-11 15-10 15-10 13-22 26-10 11-11 12-33 30-11 8-11 9-22 14-11 6-12 6-22 10-11 4-12 3-11 2-11 3-12 1-11 1h-12-11l-11-1-12-1-11-3-11-2-12-3-11-4-12-5-11-5-22-12-22-14-11-9-12-8-22-20-10-10-11-12-11-11-10-13-22-26-30-45-11-16-10-17-10-18-10-17-9-19-20-40-9-20-10-22-9-22-9-23-18-48-9-25-8-26-9-27-16-56-16-60-7-31-8-33-7-33-14-70-6-37-6-38-6-39-5-40-5-41-5-43-4-43-4-45-3-46-3-47-4-94-1-49v-48-49l1-48 2-48 2-47 3-47 3-45 4-45 4-44 10-84 5-40 6-39 6-38 6-36 7-36 14-68 8-32 7-32 8-30 16-58 8-27 9-27 8-26 18-50 9-23 9-24 9-22 10-21 9-21 10-20 10-19 9-19 20-36 10-17 11-15 10-16 10-15 10-14 11-14 11-13 10-12 11-12 11-11 10-11 11-10 11-9 12-9 22-16 11-7 11-6 11-5 11-6 12-4 11-4 12-3 11-3 11-2 12-2 11-1h23l11 1 12 2 11 2 11 3 12 3 22 8 11 6 12 5 11 6 11 7 22 16 22 18 11 10 22 22 10 12 11 12 11 13 20 28 11 15 10 16 10 15 10 17 20 36 20 38 9 20 10 21 9 21 10 22 9 24 9 23 8 25 9 25 9 26 8 27 9 27 8 29 7 29 8 30 8 32 7 32 14 68 7 36 6 36 7 38 5 39 6 40 10 84 4 44 4 45 3 45 3 47 2 47 2 96 1 49" style="clip-to-self:true;comp-op:src"/>
<path transform="scale(.1)" d="m2475.9 7652.8v-4-7-4l-2-4-2-3-3 1-4 5-2 4-3 4-7 14-3 8-4 8-4 9-4 10-5 10-4 10-5 11-9 23-4 10-4 11-4 9-3 9-4 8-2 6-2 5-1 3-2 4 2-4 1-4 2-5 3-5 6-14 4-9 4-8 4-10 5-9 5-10 4-11 10-22 6-11 6-12 5-11 6-11 6-10 5-9 6-8 5-6 4-5 3-3 3-2 3-1 4 1 4 2 6 9 2 4 4 10 2 6 3 6 1 7 6 21 2 8 2 7 1 8 2 7 3 13 2 7 1 7 3 5 1 6 3 8 1 3 2 4-4-4" style="clip-to-self:true;comp-op:src"/>
<path transform="scale(.1)" d="m2440 7731.9-2-3 3-2 6-1 2-1h4l10-2 7-1 8-1 9-1 10-2 11-1 13-3 13-2 14-4 15-3 39-10" style="clip-to-self:true;comp-op:src"/>
<path transform="scale(.1)" d="m4237.5 7627.5 2 5v16l-1 7v7l-1 9v8l-1 8-1 9v8 16 7l1 6 1 5 1 4 2 3 2 2 4-3" style="clip-to-self:true;comp-op:src"/>
<path transform="scale(.1)" d="m4264.1 7640.9 4-6 5-7 12-9 15-9 12-4 6-3 6-1 6-2h6 5 6l4 2 4 1 3 3 2 3 2 4v5l-1 6-6 14-4 7-5 8-7 7-7 8-7 7-14 12-8 6-7 5-7 4-6 3-5 3-4 3-3 2 4 1 4-1h7l7-1 9-2 10-2 10-1 10-2 12-2 12-1 11-1h11 11l9 1 8 1 7 3 5 3 3 4 2 5 1 6-1 6-3 6-3 7-5 6-6 7-7 6-7 7-9 6-8 6-9 6-9 5-10 5-11 4-10 4-20 6-20 2h-9l-9-1-16-4-20-10" style="clip-to-self:true;comp-op:src"/>
<path transform="scale(.1)" d="m2539.7 8104.7v4 4l-1 5-1 6-2 14-1 8-1 7v8 16l1 7v9l3 16 1 8 2 8 1 18" style="clip-to-self:true;comp-op:src"/>
<path transform="scale(.1)" d="m2481.2 8503.8-1-4v-3l3-2 5-3 7-3 3-1 4-1h4l5-1h4l5 1h4l5 2 4 2 5 3 4 3 3 4 3 5 4 12 1 6v7l-1 7-1 8-2 7-3 8-4 7-3 8-4 7-5 7-4 7-15 18-5 4-6 5-4 4-5 4-13 13 1 3h4 4 3l10-2 6-1 14-2 7-2 8-1 8-2h8l14-2h12l5 1h4l4 1 4 2 1 4-3 3-10 2" style="clip-to-self:true;comp-op:src"/>
<path transform="scale(.1)" d="m2475.3 8915.3-2-2 3-3 5-2 4-1 3-2 4-1 4-2 5-2 10-2 4-1h5 4l8 2 6 4 4 6 2 8v5l-3 12-2 5-2 4-3 5-2 4-10 10-5 4-4 2-4 3-12 7-4 1-3 2-5 1 3 2h10 6 5l6-1 7-1h6 14 6l7 1 6 1 5 2 6 2 8 6 2 3 2 4 1 5v4l-1 6-1 5-6 12-10 12-12 12-7 6-24 15-16 8-8 3-7 3-8 2-7 1-6 2h-7-4-5l-4-1-3-2-2-3-1-5 5-15" style="clip-to-self:true;comp-op:src"/>
<path transform="scale(.1)" d="m2548.8 9297.2v-5l1-4-6 9-4 2-4 5-10 10-6 5-7 6-6 7-8 6-7 6-16 14-8 6-21 18-6 5-8 10-2 4-1 3v3l5 4 3 2 6 1h6 8l8-1 10-2 22-4 13-3 11-3 13-3 12-3 22-6 10-3 9-2 8-2 6-1 6-2 4-1h3l3-1-4-4" style="clip-to-self:true;comp-op:src"/>
<path transform="scale(.1)" d="m2560 9309.1-1 3-1 6-1 3-1 4-2 10-2 6-1 7-1 6-1 7v7l-1 8 1 9v9l2 9 4 22 3 11 2 11 6 22 3 10 3 11 2 10 1 10 1 26" style="clip-to-self:true;comp-op:src"/>
<path transform="scale(.1)" d="m2515.6 9721.9 1-5v-3l1-5-1-3h-4l-4 4-2 3-3 4-6 10-6 12-3 7-2 7-3 7-2 7-2 12v10l1 5 2 4 3 4 2 3 4 3 5 1 5 2 5 1 6 1h7 6 7l7 1h6l12 2 4 1 5 1 3 2 4 4 1 6-2 8-2 4-4 6-3 5-18 18-5 3-9 6-4 2-4 1-3 1-6 1-5-2-4-4-3-4-5-10" style="clip-to-self:true;comp-op:src"/>
<path transform="scale(.1)" d="m2516.9 9685.3v-4l4-1 5-1h3 4l5-1h6 68 10" style="clip-to-self:true;comp-op:src"/>
<path transform="scale(.1)" d="m2534.1 10054v-4l-3 1-3 4-2 3-4 8-4 5-6 12-4 7-4 8-6 18-9 30-2 20v9l1 9 1 8 2 8 4 7 3 6 4 6 5 4 5 5 10 4 7 2h6 7l6-2 7-1 12-4 15-9 2-4 3-3 2-8v-3l-1-4-2-4-4-6-4-4-3-2-4-2-10-4-5-1h-5-4l-10 2-10 4-4 3-5 4-4 5-5 5-3 5-5 4-3 5-8 13" style="clip-to-self:true;comp-op:src"/>
<path transform="scale(.1)" d="m2486.6 10371-2-3 3-4 8-4 3-1 9-4 10-4 18-6 12-2 5-1h5 5l4 2 3 2 2 4 2 5 1 6 1 8-1 8-2 22-2 14-3 14-2 14-3 15-3 14-2 13-1 14-2 12v10 18l1 7 1 5 1 4 1 5 6 6 3 1 4-1 2-5" style="clip-to-self:true;comp-op:src"/>
<path transform="scale(.1)" d="m2495.9 10485 1-3 3-1 6-1 3-1 5-1h5l5-1 6-2 7-1 16-2 9-1 10-2 9-1 20-2 16-2 7-1 5-1 7-1" style="clip-to-self:true;comp-op:src"/>
<path transform="scale(.1)" d="m4235 8171.6v-4l-1-3v-3-4-6-3l3 2v3l1 4 1 6v7l1 8v9 10 23l1 11v12 12l3 33 2 21 1 10 1 9v8l2 7 2 12v3l1 5-3-9-2-8-1-6-1-5-2-6-2-7-2-6-3-21-2-16v-17-10l2-10 1-11 3-13 3-12 4-14 4-15 5-14 5-13 6-11 6-10 5-8 6-5 5-5 4-2 8-2 3 1 3 5 1 4 1 5v6l-2 16-2 8-9 30-4 9-5 9-4 9-10 16-10 12-8 10-4 4-4 2-2 3-6 4-3 1-4 1-6-3" style="clip-to-self:true;comp-op:src"/>
<path transform="scale(.1)" d="m4289.4 8579.7 2-8-2-4-1-3-3-3-5-1h-5l-7 3-4 2-4 3-4 4-4 5-5 7-4 7-8 16-6 16-2 8-2 14-1 6 1 6v5l2 5 3 4 6 2 6-2 5-2 4-3 9-9 4-5 5-6 4-6 5-7 3-7 4-7 3-7 3-6 3-7 2-6 2-5 1-4 2-3 1-4 1 5v9l-1 6v6 8l-1 7v9l-1 9v19l1 10v11l1 10 3 27 2 8 2 12 2 5 1 5 2 4 6 9 3 3 4 1 4-2 10-10 3-4 4-4 3-5 4-5 4-6 5-5 5-7 10-12 5-7 11-13 5-7 5-6 4-7 3-8 4-7 9-18" style="clip-to-self:true;comp-op:src"/>
<path transform="scale(.1)" d="m4269.1 9013.4 5-5 5-4 6-1 6 1 3 2 4 2 2 2 6 8 2 5 1 7 2 7v8l1 8-3 27-1 8-2 9-4 14-3 6-4 10-2 3-3 2-3 3-5-2v-4-7-4l4-12 4-14 3-7 4-8 3-9 5-8 4-9 5-9 6-10 5-9 6-9 6-8 5-6 6-6 5-4 5-3 3-2h4l4 3 2 5v9" style="clip-to-self:true;comp-op:src"/>
<path transform="scale(.1)" d="m4335.3 9374.1 1-3v-6l-2-6-4-5-4-2-6-2h-4-4l-15 3-6 2-5 3-6 2-6 3-5 4-12 12-3 4-2 4-1 5-1 3 1 4 1 3 2 3 6 6 9 4 4 3 6 2 20 10 5 4 7 7 4 8 1 4v5 4l-4 10-3 4-12 12-6 3-5 4-6 3-7 2-5 2-6 2-18 3h-5-9l-4-1h-4l-3-1-4-4 1-8" style="clip-to-self:true;comp-op:src"/>
<path transform="scale(.1)" d="m4279.4 9613.4-1-4-2-4-4 2-3 5-1 5-2 5-3 6-1 6-4 14-4 16-2 9v9l-1 10v10 21 11l1 10 2 10 2 11 2 10 3 9 2 8 4 8 8 12 6 4 5 4 5 2 7 2 6 2h7 6l6-1 7-2 6-1 12-4 5-4 5-3 3-4 3-5 5-12" style="clip-to-self:true;comp-op:src"/>
<path transform="scale(.1)" d="m4258.8 9766.9 4-4 4-1 8-4 11-5 6-2 7-2 8-2 8-3 8-2 9-2 8-3 7-2 13-3" style="clip-to-self:true;comp-op:src"/>
<path transform="scale(.1)" d="m4267.8 10098-4 1-2 4-1 4-2 5-1 5-2 7-1 7-1 8-2 17v9 9 9 8l2 8 1 8 2 6 3 7 2 4 3 5 3 3 8 4 4 1h4l4-1 5-1 5-2 4-2 5-3 8-6 4-4 3-5 3-4 3-5 4-12 2-12 2-14v-7-8-8-15l-1-7v-6-5l-1-4v-4-3 31 7l1 7v8l2 16 1 7v7l1 8v8l1 7 1 8 1 7v7 5 11l-1 11" style="clip-to-self:true;comp-op:src"/>
<path transform="scale(.1)" d="m4248.1 10402-2-2-4-2 2 4 3 4 2 2 3 4 5 7 3 4 3 6 4 5 3 7 7 13 6 14 3 6 3 8 3 6 3 8 3 6 3 7 6 12 5 8 1 4 3 2 3 4 3 1 4-1 2-4 2-5 2-8v-4l1-5 2-4 1-6 2-5 1-7 3-12 3-6 4-12 4-10 3-4 3-7 3-3-4 4" style="clip-to-self:true;comp-op:src"/>
</g>
<g stroke="#7f7f7f" stroke-width="14.1">
<path transform="scale(.1)" d="m2634.4 8548.8 1536-262-92-35 92 35-76 63" style="clip-to-self:true;comp-op:src"/>
<path transform="scale(.1)" d="m2640.9 8190.9 1503 507-65-74 65 74-96 20" style="clip-to-self:true;comp-op:src"/>
<path transform="scale(.1)" d="m2643.4 8985.3 1447-246-92-35 92 35-76 63" style="clip-to-self:true;comp-op:src"/>
</g>
<g stroke-width="14.1">
<path transform="scale(.1)" d="m2692.2 9352.2 1417-283-93-32 93 32-74 65" stroke="#f0f" style="clip-to-self:true;comp-op:src"/>
<path transform="scale(.1)" d="m2692.2 9352.2 1417 142-80-58 80 58-90 40" stroke="#f0f" style="clip-to-self:true;comp-op:src"/>
<path transform="scale(.1)" d="m2692.2 9777.2 1459-79-89-45 89 45-83 54" stroke="#7f7f7f" style="clip-to-self:true;comp-op:src"/>
<path transform="scale(.1)" d="m2692.2 10302v32l-3 32-3 30-5 28-6 26-6 24-7 22-8 20-8 18-9 17-9 14-10 13-9 12-10 10-10 8-11 7-10 6-10 3-11 3-11 1-11-1-10-3-11-3-10-6-11-7-10-8-10-10-9-12-10-13-9-14-8-17-9-18-7-20-8-22-6-24-6-26-4-28-4-30-2-32-1-32 1-33 2-31 4-30 4-29 6-26 6-24 8-22 7-20 9-18 8-17 9-14 10-14 9-11 10-10 10-8 11-7 10-6 11-4 10-2h11 11l11 2 10 4 10 6 11 7 10 8 10 10 9 11 10 14 9 14 9 17 8 18 8 20 7 22 6 24 6 26 5 29 3 30 3 31v33" stroke="#00c0ff" style="clip-to-self:true;comp-op:src"/>
</g>
<g stroke="#f00">
<g stroke-width="14.1">
<path transform="scale(.1)" d="m6542.8 7186.6-4 1-6 10-2 6-3 8-3 9-3 10-4 12-5 13-5 14-10 32-6 17-5 17-5 16-6 17-5 16-11 31-4 14-3 13-4 11-2 9-2 8-1 6-2 4v4 3l4-5 2-5 2-6 6-20" style="clip-to-self:true;comp-op:src"/>
<path transform="scale(.1)" d="m6473.8 7220.6 1-4 3-5 3-3 3-1h5l3 1 2 2 4 3 3 4 4 4 8 12 5 8 10 18 6 11 7 11 12 26 14 28 7 13 6 13 7 12 12 22 6 10 5 9 5 8 5 6 4 6 4 4 2 4 3 2 4 3 4-3 1-5v-5l-1-13" style="clip-to-self:true;comp-op:src"/>
<path transform="scale(.1)" d="m6665.3 7220.3 2-6 1-4 3-9 1-4-2 8-2 6-1 7-3 8-2 9-2 10-4 24-3 13-1 14-3 14-2 15-3 15-5 28-1 12-2 12-2 22-2 18-1 7v6l-1 5v3 5l-1-7" style="clip-to-self:true;comp-op:src"/>
<path transform="scale(.1)" d="m6798.4 7273.8 2-3 3-9v-5l-1-3-6 2-9 9-4 6-4 7-5 8-4 9-5 10-8 22-8 24-2 11-3 12-1 12-1 11v11l4 20 3 8 3 6 5 6 4 4 6 3 5 1 7 1 6-1 7-1 14-6 7-4 7-5 7-6 12-12 6-7 5-7 4-7 4-8 6-16 2-9 2-10v-10l1-10v-10l-1-10-1-11-2-11-2-10-3-9-2-8-4-8-4-5-4-4-4-3-10-2-5 1-6 1-5 2-5 3-4 3-5 3-11 11-3 4-1 3-2 8" style="clip-to-self:true;comp-op:src"/>
<path transform="scale(.1)" d="m6998.4 7277.2v-3l-1 5 1 4v11l-1 7v7 8l-1 9-1 10-2 22v12l-2 26-2 13-1 13v13l-1 12-1 11v10 24 4l1-6v-17" style="clip-to-self:true;comp-op:src"/>
<path transform="scale(.1)" d="m6926.9 7252.5-3-1-4-2-3-2 4-2 4-1 5-1 14-2 8-2 10-1 30-6 11-2 32-6 10-2 9-2 18-2 14-2h6 4l4 1 4 3-2 4-5 4-10 5" style="clip-to-self:true;comp-op:src"/>
<path transform="scale(.1)" d="m7566.9 7270.9-4-4-4-3-3 1-3 2-3 4-3 5-4 6-4 8-3 9-4 9-4 11-5 11-4 12-3 12-3 13-4 28-1 15v15l1 14 2 13 3 12 4 10 6 9 5 7 14 10 9 2 8 2 8 1 18-2 8-2 9-3 18-10 8-5 8-6 8-8 6-7 6-8 5-9 5-8 4-10 2-9 2-10 1-10v-11l-1-11-1-12-2-12-2-13-3-12-4-12-5-12-5-10-5-9-7-7-7-5-8-5-8-2-9-2-9-1h-18l-16 2-7 1-6 2-10 2-3 1-2 2 8-3" style="clip-to-self:true;comp-op:src"/>
<path transform="scale(.1)" d="m7771.2 7230.6 1-3 1-6v-4-3l1-3v-4l2 4v20 9 8l-1 10v11l-1 12-1 13v13l-1 14-2 14-2 26v13l-1 12v11 42 6 5l1 2 2-1" style="clip-to-self:true;comp-op:src"/>
<path transform="scale(.1)" d="m7906.2 7222.5 1-4-3-2-4 3-4 5-2 3-3 4-3 5-3 6-4 6-4 7-10 16-10 18-6 9-5 8-6 8-5 8-5 7-4 6-5 5-3 5-3 3-3 4-2 4-1 3 2 3 4 2 3 1h4l5 1 6 2h6l7 2 7 1 8 1 14 4 8 2 21 6 5 3 6 2 5 2 4 2 4 3 3 2 2 1 3 3-4 3" style="clip-to-self:true;comp-op:src"/>
</g>
<path d="m637.66 765.19h170.03" stroke-width="1.41" style="clip-to-self:true;comp-op:src"/>
</g>
<g stroke="#fff" stroke-width="14.1">
<path transform="scale(.1)" d="m1015.6 6938.4h-4l-3 1-4 2-9 5-4 5-3 4-3 6-4 6-4 14-1 8-2 9-1 9v31l1 12 2 13 4 28 3 15 2 14 3 16 3 14 6 30 2 14 3 15 2 15 1 15 2 15v15l1 15v29 14l-1 13-1 27-1 13-2 12-1 13-2 11-2 12-1 10-2 10-2 8-4 13-1 6-2 8-1 5-3-4-1-3-1-4-5-10" style="clip-to-self:true;comp-op:src"/>
<path transform="scale(.1)" d="m834.38 7331.2-2-2-4-6-1-3v-3l-1-3 2-6 6-6 8-6 6-4 7-3 7-4 8-4 9-4 21-7 11-3 13-5 13-3 15-4 14-4 28-6 14-2 12-2 11-2 10-1 9-2h8l8-1h15" style="clip-to-self:true;comp-op:src"/>
<path transform="scale(.1)" d="m1226.9 7253.4v-5l1-3v-6-3l3 1 2 3 2 4 1 8" style="clip-to-self:true;comp-op:src"/>
<path transform="scale(.1)" d="m1215 7461.9-3-2v-3" style="clip-to-self:true;comp-op:src"/>
<path transform="scale(.1)" d="m1454.4 7267.2v-4l-1-4-2-2-3 4-2 3-1 4-3 4-2 6-2 7-3 8-3 9-4 9-5 10-4 11-4 12-5 12-4 12-4 13-8 22-3 10-2 9-2 7-2 10-1 3v4l2-3 1-3 1-4 2-5 4-13 3-6 2-8 3-8 6-18 3-10 6-22 3-12 8-24 4-13 5-13 5-14 5-12 5-11 4-9 5-8 4-6 3-5 4-3 3-2h4l5 4 1 3 2 5 2 12 2 9 1 8v10l2 20 2 22 1 12 1 11 1 12 2 22 1 10 2 18 2 8 2 7 4 12 1 5 2 4 3 2 3 3 3-1 2-5 2-7" style="clip-to-self:true;comp-op:src"/>
<path transform="scale(.1)" d="m1433.4 7374.4-2-4-1-3 2-2 6-3 3-1 4-3 5-1 5-2 7-2 6-1 16-4 8-1 9-1 10-2 9-2 20-4 26-6" style="clip-to-self:true;comp-op:src"/>
<path transform="scale(.1)" d="m1643.8 7316.6 3-2 4-1 3-1h4l5-1h6l15-2 9-1 11-1 11-2 12-2 13-1 12-1 13-3 13-1 26-4 36-6 11-1 10-1 10-2 16-2h7l6-1h6 5l3-1h6l-3-1h-5l-7-1h-3l-8-2-3-1-4-2-5-2-3-2-5-2-3-3-4-2-4-3-9-9-2-3-1-3-2-3-1-3-1-5-1-3v-3l3 1 5 3 3 1 8 4 5 3 5 2 6 2 12 6 15 6 21 9 7 4 7 3 13 7 5 3 5 4 5 3 3 4 3 3 2 4 2 3v4l-1 4-2 4-2 5-4 4-4 5-10 10-7 4-6 5-7 4-6 4-7 5-6 4-6 3-6 4-10 6-4 3-4 2-6 4-3 1" style="clip-to-self:true;comp-op:src"/>
<path transform="scale(.1)" d="m2120.3 7228.8v-4-3-4l-1-3-1-4v4l-3 6-2 5-1 6-2 6-4 16-4 18-4 20-2 11-2 21v10 11 10l4 18 2 8 2 7 3 7 3 5 6 8 4 3" style="clip-to-self:true;comp-op:src"/>
<path transform="scale(.1)" d="m2135 7254.4 2-3 1-3 3-5 11-11 4-3 6-3 5-3 6-2 6-3 7-2 6-2 6-1 5-1h6 5 5l8 4 3 3 2 4 2 5v5 6l-2 7-2 6-3 8-4 7-5 8-6 7-6 8-28 28-6 5-13 14-3 3-1 5 2 3 3 2h4l5 1h6 41l9 1h9l8 1 9 2 7 1 6 2 5 4 5 3 3 3 2 10-1 4-3 6-3 5-5 6-6 5-7 5-8 6-8 5-18 8-8 4-9 3-8 3-7 3-8 1h-7-7l-8-2-21-4" style="clip-to-self:true;comp-op:src"/>
</g>
<g stroke="#f0f" stroke-width="14.1">
<path transform="scale(.1)" d="m5882.5 8194.7 4-5 3-2 3-6 4-5 2-3-3 2-3 3-3 5-4 5-5 7-14 16-7 10-8 10-9 10-8 11-9 10-8 11-18 21-8 10-8 9-7 9-7 8-6 7-5 7-5 6-4 6-3 5-3 4-1 3-2 5 3 3h5 4l4-1 6-1 6-2 8-2 8-3 9-2 20-6 11-3 12-2 12-3 23-3h10l11-1h9 9l8 1h7l6 2 4 1 4 2 6 4 1 4h-3l-2-2-2-4-1-3v-4l-2-11" style="clip-to-self:true;comp-op:src"/>
<path transform="scale(.1)" d="m5905 8228.1-1-5-2-4v-2l-1-4-2-4v-3l-3 2-3 6-1 5-1 6-2 6-2 7-1 9-2 9-1 9-1 10-1 11-2 11-1 11-1 12-2 11-2 24-1 11v11l-1 10 1 9v9 7l1 6 1 5 2 4 1 3" style="clip-to-self:true;comp-op:src"/>
<path transform="scale(.1)" d="m6190.6 8296.2v-13l2 5v15l-1 7v9l-1 10-1 11-2 11-4 24-3 25-2 11-1 11-1 10v9 8l1 7 1 5 2 4 4 2 3-1 4-3 3-4 10-13" style="clip-to-self:true;comp-op:src"/>
<path transform="scale(.1)" d="m6185.9 8174.4-4-2-3-1h-3l-3 3-1 5v4l-1 4v9l1 6 2 10 3 6 2 5 3 5 4 5 8 8 4 3 4 2 6 1 4 1h5l10-2 5-2 5-3 5-4 4-4 4-5 3-5 2-5 2-6 1-5v-6l-1-6-2-7-2-6-3-8-3-7-12-24-4-7-5-7-5-6-4-4-5-2-5-1h-6l-7 2-6 3-6 4-6 5-10 16-5 10-4 9-3 10-2 10-2 9v22" style="clip-to-self:true;comp-op:src"/>
<path transform="scale(.1)" d="m6371.2 8292.5v-4l-1-3v-4l-1-4-2-3-3-4-4-2h-5l-3 1-5 1-5 2-5 3-6 3-5 3-6 4-5 4-5 5-5 4-3 5-4 5-2 4-2 8 2 8 3 3 3 4 4 3 4 4 5 3 6 3 12 8 12 6 6 4 10 8 3 4 2 4 2 5v4 4l-3 5-3 3-4 5-5 3-6 3-6 4-7 2-6 3-8 2-7 1-7 2-12 1-6-1h-5l-4-1-3-1-3-3-4-6" style="clip-to-self:true;comp-op:src"/>
<path transform="scale(.1)" d="m6726.9 8375-3 1-3-2v-5l1-5v-4l4-8 2-5 4-6 3-5 4-6 6-6 5-6 12-14 7-7 8-6 6-7 14-10 6-4 5-3 6-2 4-1h3l4 2 2 2 1 4 2 10v7l-1 8-1 9-1 11-4 22-3 11-2 12-6 22-3 10-1 8-2 8-1 5-1 4v5l3-2 3-6 6-10 2-6 15-30 5-8 8-16 5-9 10-16 6-8 5-7 11-11 5-3 4-2 3-1 3 1 4 5 2 5 1 5v7l1 8v8l1 9v10 9l1 9v9 8l1 7v7l1 4 2 10h4l4-2 2-4 4-3 2-5 4-5 4-7 7-13 5-7 4-8 12-21 5-7 9-14 4-5 5-4 4-4 4-3 3-1 5 1 2 3 3 9v6l1 7v7 38l2 18v9l1 8 1 7 2 6 2 5 2 4 2 2 3 2h6l6-3 14-14" style="clip-to-self:true;comp-op:src"/>
<path transform="scale(.1)" d="m7135.3 8310.3 2-4 1-4h-4l-4 3-3 4-9 9-4 5-12 16-12 18-6 10-15 27-3 8-4 8-4 14v5 5l1 3 4 4 5-1 4-2 10-6 5-4 11-11 12-14 6-8 5-7 10-16 8-16 4-7 4-6 6-8 3-3 3-1 2 4 1 3v37 7 6l2 6 2 12 2 5 1 5 2 3 3 4 3 2 2 2 4 1h4l3-1 4-1 12-9 13-13 3-5 5-6 4-5 3-6 4-6 3-7 4-7 3-6 6-14 2-7 6-12 1-5 2-4 3-5 1 5v4 4l-1 5-1 6v7l-1 7-1 9-3 19-1 11-6 33-2 13-1 12-3 14-2 28-2 13v12l-1 11v10 8 7l1 5v3l2 3 2-3v-3l2-4 1-4v-5l1-7v-6l3-24 1-9 2-10 1-11 2-11 4-24 3-13 5-26 4-14 6-24 4-11 4-9 4-8 4-6 8-10 4-3 8-4 4-1h4l3 1 3 2 3 3 2 4 1 4 1 6 1 5-1 8-1 7-2 9-4 8-3 9-4 9-5 8-10 18-6 8-6 7-5 6-5 5-3 4-6 6 4-3 3-4 4-3 5-4 5-5 12-10 7-6 17-17" style="clip-to-self:true;comp-op:src"/>
<path transform="scale(.1)" d="m7405.9 8323.4-1 4-3 5-2 4-1 4-1 5-3 18-1 7-1 8-1 7v9l-1 8-2 20-1 9v11l-2 20v11l-1 12v11 51 6 6l1 4v7l-2-3-1-3-2-8-1-6v-6l-1-7v-8-9l1-9v-9l2-10 1-10 2-10 3-11 2-12 3-12 4-13 4-14 6-14 5-14 6-15 7-15 8-13 8-12 8-11 7-9 8-7 6-5 7-3 4-2h5l3 1 3 2 1 4 1 5 1 7-1 7-2 18-6 22-4 11-5 11-6 11-7 11-6 11-8 11-8 10-7 10-7 8-13 13-5 4-3 3-3 2-3-2 1-3 2-5 4-5 3-6 6-8 5-8 6-8 16-23" style="clip-to-self:true;comp-op:src"/>
<path transform="scale(.1)" d="m7611.6 8384.4-1 4 2 3h3l8-3 3-2 4-2 3-2 8-6 5-3 10-8 4-5 9-9 4-5 3-5 2-4 2-5 2-8v-4-3l-3-4-5-2h-3l-8 2-5 2-5 3-10 8-12 12-10 14-5 9-5 8-4 8-3 9-2 7-2 8v7l1 6 2 5 8 8 12 6 7 2 8 3 8 1 8 2 9 1 9 2h9l10 1 9 1 10-1 9-1 10-1 10-2 24-7" style="clip-to-self:true;comp-op:src"/>
<path transform="scale(.1)" d="m7902.8 8329.1-1-4-2-4-2-5-3-4-4-3-4-2-5-1-6-1-14 2-8 2-8 3-9 2-9 4-9 5-8 5-9 5-8 6-7 6-13 13-6 8-12 21-2 6-1 7v6 6l2 5 3 4 8 6 10 2 6 1 6-1 7-1 7-2 16-6 7-3 14-10 14-12 6-7 5-7 6-7 5-8 4-10 5-9 4-9 4-11 3-11 6-24 2-12 2-13 2-14 2-28 1-15 1-14 1-13v-11-9-10 3l-1 5-1 8-2 10-1 12-2 13-1 15-3 15-4 32-5 32-3 16-2 16-2 15-1 16-1 15-1 14v14l1 13 1 10 1 9 2 8 1 6 6 9" style="clip-to-self:true;comp-op:src"/>
<path transform="scale(.1)" d="m8400 8120.6 1-5v-12l-3 1-1 4-1 5-2 8-2 9-2 11-3 14-3 15-3 16-4 16-3 18-4 17-3 19-4 19-6 38-3 18-4 34-1 15v13 13l1 10 2 7 2 6 4 5 3 3 4 1 10-2 5-3 5-4 6-5 12-16" style="clip-to-self:true;comp-op:src"/>
<path transform="scale(.1)" d="m8298.4 8326.6 3-2 10-4 8-4 5-2 4-2 11-4 13-6 6-2 7-3 6-2 7-3 12-4 10-2 3-1 9-1" style="clip-to-self:true;comp-op:src"/>
<path transform="scale(.1)" d="m8520.6 8298.4-2-2-5-4-3-2-4-2h-4l-2 3-3 4v3l-2 4-1 5-2 12-1 8-1 7v9 9l-1 10v20l1 10v10l1 9 1 8 2 8 2 6 2 5 3 5 3 3 3 2 4 2 4 1h4l8-2 4-2 3-2 4-3 7-7 2-4 3-4 2-5 3-5 1-5 2-7 1-6 2-8 1-7 2-17v-29l-2-20-1-11-2-10-1-9-4-16-4-8-3-2-3-1-3 1-4 2-9 9-5 6-10 16-6 8-6 9-12 16-5 9-13 19" style="clip-to-self:true;comp-op:src"/>
<path transform="scale(.1)" d="m7350.9 8891.2h4l5-2 4-2 4-3 10-6 5-5 5-4 6-5 6-6 6-5 6-6 10-12 9-12 4-5 2-7 2-5 1-6 1-5v-5-4l-1-3-2-3-5-2h-4-3l-5 2-6 3-5 4-6 5-13 13-6 8-6 9-5 10-4 10-8 22-4 22v10 10l1 8 3 8 2 6 5 5 5 4 5 3 7 1 6 1h8l7-1 8-1 7-2 16-6 14-8 8-6 13-13 15-20" style="clip-to-self:true;comp-op:src"/>
<path transform="scale(.1)" d="m7571.2 8647.2-6-4-5 4-4 6-3 4-2 4-9 15-2 6-3 7-3 8-3 9-3 11-4 11-3 13-4 14-5 14-4 16-3 16-4 17-4 32-1 16v14l1 13 2 12 3 10 4 8 4 7 6 5 6 3 7 2h7l16-4 9-4 8-4 9-5 8-7 7-7 8-7 6-9 6-8 5-10 4-10 6-20 2-20v-9l-1-9-1-8-1-7-2-6-2-4-3-3-2-1h-7l-3 1-5 2-7 7-4 6-6 12-3 7-3 8-2 8-1 8-1 9v18l1 8 4 16 3 6 5 6 4 6 5 4 6 4 6 3 6 2 6 1h6l6-1 16-4" style="clip-to-self:true;comp-op:src"/>
<path transform="scale(.1)" d="m7716.2 8803.4 2-4 1-4-2 5-2 3-1 5-2 7-3 7-2 8-4 10-2 10-4 11-3 10-4 11-2 12-4 11-2 10-3 9-1 8-2 7-1 6-1 4v3l1 4 6-4 7-7 3-5 4-6 5-7 4-9 5-9 4-10 10-20 15-33 6-11 5-11 6-10 5-8 5-7 5-6 3-3 4-2h4l2 6v19l-1 8v9l-1 9-3 20-1 10-2 9-1 10-2 9-1 15-1 6-2 8v4l4-4 2-4 3-4 3-6 4-6 4-8 10-16 13-18 6-10 6-9 14-18 6-9 21-21 6-5 5-3 5-1h3l2 2 2 4 1 5v13l-1 8-2 18-2 10-1 10-4 20-1 10-2 9-1 8-1 7v6l-1 4v4l4-3" style="clip-to-self:true;comp-op:src"/>
<path transform="scale(.1)" d="m7912.2 8845.3-3 9v4 4l2 6 2 3 3 2 2 1 3 1 4 1 8-2 6-1 5-2 7-3 6-3 7-3 7-5 6-4 12-10 10-10 7-11 6-12 2-12v-5-4l-3-6-3-1h-4-4l-4 3-6 3-5 4-6 4-5 6-6 7-6 8-8 16-3 9-3 10-2 9-1 10v18l1 9 3 8 3 7 3 6 5 6 5 4 6 3 14 2 8-1 9-1 8-2 9-3 9-4 9-5 17-12 18-16 8-8 8-9 16-20 14-20 6-11 5-10 10-18 3-7 5-10 1-3-2 8-2 5-2 12-2 8-2 7-3 24-1 9v8 8 8l1 7v5l1 6 2 8 2 2 4-2 2-3 2-4 3-5 6-11 3-6 8-14 4-8 10-14 5-8 6-7 12-16 6-7 7-6 6-5 6-4 7-2 5-1h4l4 2 3 2 3 5 2 5 1 6 2 14v8 9 9 8l-1 9v25l1 7v6l1 5 1 4 2 4 3-1 5-5 3-5 7-15" style="clip-to-self:true;comp-op:src"/>
<path transform="scale(.1)" d="m8366.9 8663.4-3 4-2 5-1 5-1 4-4 12-1 7-2 8-2 9-2 10-2 20-3 34-1 12-1 11v13l-1 12v12 23 10l2 18 2 12 1 4 2 4 3-9" style="clip-to-self:true;comp-op:src"/>
<path transform="scale(.1)" d="m8284.1 8810.3 4-1 6-1 4-1 5-2 5-1 6-2 14-4 18-6 10-3 11-3 12-3 12-4 39-12 12-4 13-4 23-7 10-2 10-3 9-2 7-2 7-1 5-1h4l4 1v5l-5 5-4 5-6 4-6 5-6 6-8 5-7 6-8 7-7 7-7 6-5 7-5 6-3 6-3 5-1 5v4l2 5 2 4 2 3 4 3 5 3 5 2 6 3 6 2 6 3 6 2 5 3 6 3 5 3 4 3 3 3 3 4 4 8v4l-1 4-3 4-7 7-6 3-12 4-7 3-8 1-7 1h-8-8-8l-10-1-8-2-21-7" style="clip-to-self:true;comp-op:src"/>
<path transform="scale(.1)" d="m8850 8747.8-3 4-2 3-4 8-3 5-6 13-6 14-3 8-3 7-6 27-2 20-1 8v8l1 7 1 5 1 4 2 2 3 4 3-2 1-4" style="clip-to-self:true;comp-op:src"/>
<path transform="scale(.1)" d="m8855.9 8643.8-3 3-1 6 1 3v3l1 4 1 3 2 4 7 7 9 5" style="clip-to-self:true;comp-op:src"/>
<path transform="scale(.1)" d="m8922.5 8775.9-1 5v3l-2 5-1 5-1 6-2 7-1 7-2 8-1 15-1 8-1 7v7 6 6l1 5 2 6 2 3 4-2 3-5 1-3 1-4 4-10 1-6 8-24 2-7 2-6 3-8 3-7 3-8 4-8 4-9 8-16 5-8 5-7 5-6 4-5 4-3 3-1 4 1 1 7v5 7l-1 8-1 9-2 9-4 20-1 11-6 33-4 20-1 10-1 9-1 7v7l1 4v4l3 4h4l6-3 2-3 3-4 3-5 2-5 3-7 6-19" style="clip-to-self:true;comp-op:src"/>
<path transform="scale(.1)" d="m9184.7 8618.8 3-1 1 3-1 6-2 10-1 7-1 8-2 9-2 10-2 11-1 11-2 13-3 13-2 14-2 15-4 28-2 28v14l-1 13 1 13v12l1 11 2 18 1 7 1 5 1 4" style="clip-to-self:true;comp-op:src"/>
<path transform="scale(.1)" d="m9176.6 8670 1-4 4-3 4-1 4-2 6-2 7-1 16-4 9-1 30-3h10 10l10 1 18 4 7 3 7 4 5 4 3 6 2 6 1 7-1 8-8 16-7 9-8 9-9 9-10 8-11 9-11 7-10 7-10 6-27 14-7 3-6 3-4 1-2 2 3 3h4l5 1h7l9 1h9l9 1h10l11 1 10 1 11 2 10 3 10 2 9 4 16 8 6 6 5 6 4 7 3 7 1 7v8l-2 8-2 7-10 14-6 6-12 10-8 4-8 3-8 2-9 2-9 1h-9-9-9l-8-1-9-2-8-2-8-1-6-3-7-2-5-3-11-5-5-2-9-4" style="clip-to-self:true;comp-op:src"/>
</g>
<g stroke="#00c0ff" stroke-width="14.1">
<path transform="scale(.1)" d="m5894.4 9396.6v-7-5l-1-3-1-4-1-2-3-5-4-3-4-1-4 1-3 1-4 3-4 4-5 6-4 7-5 10-5 11-6 12-5 14-5 15-4 16-8 34-4 18-2 19-3 18-2 17-2 16-1 15v13l1 11 2 9 2 7 3 5 3 4 4 2 3 2 10-2 4-3 5-3 5-4 4-6 5-7 4-7 4-8 3-9 2-10 1-10 1-9v-10l-2-17-2-7-2-6-2-5-3-4-8-4h-4l-5 1-6 1-5 3-6 4-5 4-6 6-5 6-5 7-8 14-4 8-3 8-1 7-2 7v6 11 4l3 9" style="clip-to-self:true;comp-op:src"/>
<path transform="scale(.1)" d="m5927.5 9613.4-2 5-4 6-2 5-2 4-3 5-8 12-5 6-16 24-4 5-3 6-4 5-6 10-2 4-4 6-3 3" style="clip-to-self:true;comp-op:src"/>
<path transform="scale(.1)" d="m6093.1 9476.2-2-3 4-1h6l4-1h6l5-2 6-1 7-1 7-2 16-4 7-3 8-2 7-3 8-3 12-4 5-3 3-1 4-1 4-2 1 4-2 3-1 4-3 5-4 6-3 6-5 7-4 8-4 9-5 10-4 10-8 22-8 25-4 12-6 22-2 9-3 8-2 8-2 6-2 7-5 10-2 5-4 6-5 6-3 1-6-4" style="clip-to-self:true;comp-op:src"/>
<path transform="scale(.1)" d="m6042.2 9571.2-2-2-1-4 4-2 3-1h4l4-1 12-2 6-2 8-1 9-3 9-1 20-4 11-3 11-2 10-3 10-2 9-2 9-1 8-1 6-1 5-1h5v5" style="clip-to-self:true;comp-op:src"/>
<path transform="scale(.1)" d="m7092.2 9583.1-4 3-4 4-2 4-2 3-3 3-1-3 1-5 2-3 2-4 7-9 4-6 6-6 5-6 6-6 7-6 7-7 8-6 14-12 14-10 7-3 5-3 5-1 3-1 4 1 2 2 2 3v4 6 8l-1 9-2 10-2 12-3 11-4 26-3 13-3 12-1 11-2 10-1 9v7 6l1 5 2 4h6l3-1 4-2 13-13 10-12 5-7 4-8 5-8 4-9 5-8 3-9 5-10 7-18 5-10 5-9 4-8 6-8 5-7 5-5 6-5 10-8 6-2 4-1h5l8 2 3 3 2 3 4 10 2 6v7l1 8v25l-1 10v10l-1 10-1 9-1 8-1 7v7l1 6v4l2 4 1 3 2 4 3 2 4-1 3-4 5-5" style="clip-to-self:true;comp-op:src"/>
<path transform="scale(.1)" d="m7382.8 9542.8-1-4-3 4-1 3-1 4-2 5-1 6-1 7-2 16v9 18 9l1 8 2 8 2 7 4 6 3 6 4 4 5 3 4 3 6 2 5 1h5l6-1 10-4 4-3 8-8 2-5 3-6 1-6 1-7v-8l-2-16-2-9-1-9-3-9-2-9-3-9-6-16-3-6-4-5-3-4-4-4-4-1-3-1h-5l-3 2-4 2-2 3-4 8-1 4v5 4l1 4 5 9" style="clip-to-self:true;comp-op:src"/>
<path transform="scale(.1)" d="m7522.5 9452.5 2-7 1-7 2-8 1-7 2-8v-3 4 3 4l-1 6v7l-1 8v9l-2 11-1 11-2 12-2 13-2 14-2 15-3 17-2 16-4 34-2 16-2 14-1 13v11 10 8l2 5 1 5 2 3 4 3 6-2 6-6 7-11" style="clip-to-self:true;comp-op:src"/>
<path transform="scale(.1)" d="m7465.6 9578.4-2-6v-4l1-5 2-4 3-5 5-4 5-5 6-5 7-5 16-10 8-4 9-4 9-3 8-3 10-3 17-4 8-2 19-1" style="clip-to-self:true;comp-op:src"/>
<path transform="scale(.1)" d="m7899.1 9569.4-1 4v4l-2 5-3 5-2 3-3 2-3 1-3-3v-5l3-5 4-8 4-4 4-5 5-5 6-5 7-5 7-6 32-20 14-6 7-2 7-1h5l5 1 4 2 4 3 2 5 3 5 1 7v8 10l-1 11-3 11-2 12-2 13-4 11-2 12-4 11-3 10-3 9-2 8-2 7-2 5-2 8 4-3 3-4 2-5 4-6 4-7 3-7 4-8 3-9 4-9 3-9 8-18 4-10 10-20 5-8 6-8 5-7 6-5 4-4 5-2h4l3 1 3 3 2 4 2 5 1 6 2 18v10 10 72 2l1 4 5-2 2-2 2-4 4-4 3-5 4-6 3-6 16-28 5-8 5-9 5-8 5-9 6-8 6-7 5-7 6-5 4-3 5-2 3-1 3 1 4 6 2 12v26l-1 10v10l-2 20v27l1 8v7l4 10 2 2 3 2 12-3" style="clip-to-self:true;comp-op:src"/>
<path transform="scale(.1)" d="m8334.4 9537.8-2-3-4-3h-6l-4 2-4 3-5 3-6 4-5 6-7 6-6 6-6 7-7 9-5 8-6 8-5 9-4 8-4 9-4 16-2 6v6l1 6 2 4 2 3 3 2 8 2 4-1h6l10-4 6-3 10-8 10-10 5-6 4-5 7-14 4-6 3-6 2-5 3-5 2-3 3-3 2 4v4l1 4v5l1 6 1 7v6l2 7 1 7 2 6 3 6 2 7 6 10 8 8 4 3 5 2 5 1h6 6l5-1 5-3 6-3 4-3 12-11" style="clip-to-self:true;comp-op:src"/>
<path transform="scale(.1)" d="m8443.8 9587.5 1-8 2-7 1-8 2-8 1-7 1-4v-3l2 5 1 5v6l1 8v9l1 9 1 10v11l1 10v22 12 12 12l-1 14-1 12-2 28-1 13-2 13-1 13-2 11-1 9-1 7-1 6v4l-1 4v3l-2-4-1-3-1-4v-5l-1-5v-6l-2-14v-8-17-10l2-20 2-11 2-12 3-12 2-13 4-13 4-15 5-14 5-16 6-16 7-16 8-15 8-14 8-11 8-9 7-7 6-4 6-2 5-1 5 1 3 3 4 5 1 5 2 8v9 11l-1 11-2 11-2 12-4 12-3 11-5 12-4 11-6 10-5 9-6 9-5 8-6 7-5 6-5 5-4 3-3 3-5 3 4-5 4-3 5-4 5-6 6-5 18-16" style="clip-to-self:true;comp-op:src"/>
<path transform="scale(.1)" d="m8630.9 9544.4v-3l-1 5 1 5 1 4v5l1 6 1 7 2 18 1 11v11l1 12v12l1 13-1 14v14l-1 13-1 14-1 13-2 15-1 14-2 13-2 12v11l-2 9-1 8-1 7v5l-1 5-1 3-2 2-3-2-2-5-1-4-2-10v-7l-1-7v-8-17l1-10 2-22 4-24 3-12 4-13 8-28 5-15 6-14 5-13 6-14 7-13 6-11 6-10 6-7 6-5 6-3 6-2h4l5 2 4 3 3 4 3 6 2 7 2 8v9 9l-1 10-2 10-6 22-5 10-5 11-12 20-7 9-6 8-15 15-6 7-10 8-4 3-4 2-5 1-1-3 2-6 2-4 10-13" style="clip-to-self:true;comp-op:src"/>
<path transform="scale(.1)" d="m8740 9632.2-3 2-3 3v3l5 2 3-1 4-1 5-1 12-4 7-3 14-7 14-8 7-6 6-6 12-14 5-7 8-16 3-8 2-7 1-5-1-5-1-3-2-2-4-1h-4l-5 1-6 3-7 4-7 6-8 7-8 9-7 9-7 10-12 22-3 10-4 11-2 9v9 9l2 8 2 7 4 6 5 5 5 6 8 3 8 4 9 2 10 2 11 2h11 11l11-1 22-4 26-8" style="clip-to-self:true;comp-op:src"/>
<path transform="scale(.1)" d="m9028.8 9565.9v-4l-1-5-4-3h-4l-5 1-5 3-6 2-7 3-8 4-7 4-7 5-8 4-8 5-14 10-17 17-4 7-4 6-3 7-4 13-1 6v6l1 5 2 5 2 4 3 3 4 3 10 4h6 12 7l7-2 6-2 6-3 7-3 6-5 6-4 10-12 5-7 4-7 4-8 3-9 3-11 3-10 6-39 2-14 1-14 2-30 2-16 4-30 2-13 3-10 1-7 2-5 1-4v6 6l-1 8-1 9-1 10-3 13-2 13-3 14-2 16-3 17-2 18-3 20-2 19-1 20-2 19-1 18v32l1 13 1 11 5 21" style="clip-to-self:true;comp-op:src"/>
<path transform="scale(.1)" d="m5858.4 9880.6v-3l-1-5-2-3-4 3-1 4-2 5-8 24-3 11-4 12-4 14-10 32-5 17-15 57-4 19-4 20-3 19-2 17-2 15v12l1 11 2 8 2 7 4 4 5 3 7 1h7l9-1 9-2 20-8 10-5 10-7 9-6 20-20" style="clip-to-self:true;comp-op:src"/>
<path transform="scale(.1)" d="m5792.2 10079-1-5-1-3v-3l1-4 3-6 10-10 5-3 6-4 7-4 7-3 8-4 8-3 9-4 8-3 10-3 9-3 8-3 9-1 7-1 6-1h6l4 1 4 2 2 2 2 8 1 5v5l-2 12-1 8-2 7-2 9-4 17-4 18-1 9-2 9-1 8v8 14l3 15 3 4 2 3 3 3 4 2 3 2 5 1 4 1h5l15-3 4-2 4-3 3-3 2-4 4-10 1-5v-7-7l-2-16-1-9-2-8-3-9-2-8-11-28-3-8-3-9-6-14-3-6-2-5-2-4-3-3-2 2-1 6v7l3 12" style="clip-to-self:true;comp-op:src"/>
<path transform="scale(.1)" d="m6370.6 10092 2-8 2-11v-11l-1-4-1-5-1-4-1-3-2-4-3-1-3-2h-4l-5 1-6 2-6 3-7 4-7 6-8 8-16 18-7 10-7 11-12 22-4 12-6 22-1 11-1 10v10l1 9 1 7 2 7 3 4 4 3 4 2h5 6l6-1 6-2 14-6 6-5 7-5 6-5 6-6 6-7 5-7 5-8 5-9 12-27 5-8 3-9 8-16 2-3 3 4-1 4v6l-1 7v7 17 8l1 8 2 14 2 8 2 6 3 6 2 6 4 5 3 4 8 4h4l12-3" style="clip-to-self:true;comp-op:src"/>
<path transform="scale(.1)" d="m6499.4 10075-1 5-2 3-1 5-2 6-1 7-1 8-2 8-2 18-1 8-2 9-1 8-1 9-1 8-1 7v8l-1 6v14l1 5h4l6-8 2-4 2-5 3-6 3-7 2-7 4-8 6-18 4-10 8-22 5-11 5-12 6-10 5-10 6-8 5-7 5-4 4-3 3-2 6 2 2 2 2 10v7 16 9l-1 9-1 10v10l-2 20v10 16 7l1 6 1 5 2 3 4 3 5-2 7-8" style="clip-to-self:true;comp-op:src"/>
<path transform="scale(.1)" d="m6650.9 10056-1 4-2 4-1 4-1 6-4 14-1 8-2 8-3 27v8l-1 8v16l3 21 2 5 3 5 3 4 8 4h5l5-1 6-3 5-2 12-8 10-12 10-14 8-16 4-9 6-20 3-9 3-10 4-16 3-7v-4l1-3-3 5-2 6-2 7-2 9-2 10-3 11-3 12-1 14-3 13-2 14-6 41-2 14-2 15-4 32-2 17-1 16-4 32-2 15-3 14-2 13-1 12-2 11-3 9-1 8-2 8-2 6-3 5-3 4-3 3-4 3-5 1h-5-6l-6-1-5-1-6-2-12-6-10-10-4-5-4-6-3-6-3-7-2-14 1-8 1-7 2-7 3-8 4-9 5-8 5-9 6-9 8-8 7-9 8-9 9-9 20-18 11-8 36-27 13-10 14-10 13-12 14-11 34-32" style="clip-to-self:true;comp-op:src"/>
<path transform="scale(.1)" d="m6981.2 9945.6-4-1-5 1-4 4-2 3-3 4-2 5-3 5-3 7-5 16-3 9-3 12-3 11-3 15-4 15-4 16-8 36-6 38-2 16-2 15v13l-1 10 1 8v7 4l1 3v3-3l-2-9" style="clip-to-self:true;comp-op:src"/>
<path transform="scale(.1)" d="m6815.9 10136v-4-4l2-6 5-5 5-3 4-3 6-4 7-5 7-4 16-10 18-10 9-6 10-5 9-6 20-11 9-5 9-6 9-4 8-5 8-4 7-4 5-3 5-2 4-2 3-1 1 5-1 4-2 5-2 6-3 7-3 8-3 10-4 10-4 12-5 13-4 13-8 28-6 26-2 11-2 10-1 10v7 6 5l1 3 3 4 4 1 3-1 3-2 4-2 3-3 5-4 9-9 4-6 5-6 4-7 5-6 5-7 6-7 5-7 6-7 15-15 5-4 3-2 4-1h4l3 5 1 4v11l-2 12-1 7-1 8v7 7 7 6l1 6 2 5 3 4 3 3 4 3 4 1 5 1h6l6-1 7-2 7-3 14-8 7-5 18-18 5-6 4-7 5-7 3-6 5-7 3-6 4-6 3-4 2-4 3-4 1 4-1 4v5l-1 5-2 7-1 8-2 7-2 16v7 7 7l1 6 2 6 2 5 3 3 3 4 3 3 8 2h5l4-1 5-2 4-3 8-8 5-6 9-16" style="clip-to-self:true;comp-op:src"/>
<path transform="scale(.1)" d="m7265 10029-4-1h-6l-3 1-8 4-19 19-3 5-4 5-4 8-1 4v8l1 4 1 3 7 7 4 1 3 1 4-1 5-2 4-2 4-3 5-3 9-12 2-5 3-15v-5-5-6l-3-12-4-6-4-2-4 1-4 4-2 4-2 3-4 10-2 6-1 6-4 19" style="clip-to-self:true;comp-op:src"/>
<path transform="scale(.1)" d="m7274.4 10212 1-5 1-4 2-10 2-5 2-6 2-7 4-7 3-8 4-8 5-8 6-9 6-8 6-9 6-8 7-8 7-7 7-6 6-5 7-3 5-3 5-1h5l3 1 4 2 2 3 2 10 1 7-1 8v9l-2 20-2 10-1 10-2 10-1 9-2 16v7l1 6v5l1 3 3 4 4-1 6-4 4-4 5-4 4-6 11-11 5-7 12-14 19-24 6-8 21-24 6-7 7-6 6-6 5-3 4-3 3-1 4 2v3 4l-2 6-1 6-2 8-3 9-6 27-2 10-2 9v9 9l1 8 2 7 3 6 4 6 4 5 5 3 6 3 7 3h7 7l16-4 23-9" style="clip-to-self:true;comp-op:src"/>
<path transform="scale(.1)" d="m7667.5 10092v-4l-1-5-1-4-3-3-4-2-4-1-6 1-6 3-6 4-7 6-8 6-16 18-7 10-7 11-12 20-4 10-4 11-2 10-2 9v8 8l1 6 3 5 2 4 5 3 5 2h5 7l6-1 7-3 8-3 7-5 8-5 6-6 7-6 12-14 4-7 5-8 3-7 4-8 3-7 3-6 3-7 1-5 1-3-1 5-2 4-2 6-4 16-3 9-2 9-2 10-3 11-3 12-4 24-3 13-3 14-2 14-3 16-2 16-3 18-4 18-6 38-2 19-3 19-2 18-4 32-2 15-3 14-3 12-2 12-4 10-4 9-4 8-4 6-4 5-4 3-6 2-5 1h-5l-5-1-10-4-4-4-5-4-4-6-3-6-3-8-2-8-2-10-1-11 2-24 4-26 3-13 8-26 6-13 14-26 8-14 9-13 22-28 12-13 13-14 13-12 34-30" style="clip-to-self:true;comp-op:src"/>
<path transform="scale(.1)" d="m7872.2 10178v-3-3l-1-4v-3l-4 1-3 3-5 4-4 3-5 2-15 5" style="clip-to-self:true;comp-op:src"/>
<path transform="scale(.1)" d="m6492.2 9499.4v-3-4l-1-3-1-4-3-4-5-1-6 3-4 5-5 4-6 7-6 9-7 10-7 12-8 13-7 15-6 14-7 16-6 15-9 27-3 12-2 11-2 10v14l2 5 1 5 5 5 3 1h4 4l10-4 5-3 5-4 6-5 5-6 6-7 4-7 10-16 12-30 3-11 4-10 2-10 3-9 2-8 1-5 2-5v-3l-1 3v5l-1 5-1 7-2 16v8 17 8l1 8 1 6 1 7 1 6 2 4 2 5 2 3 3 4 3 2 5 3 5-1 5-5" style="clip-to-self:true;comp-op:src"/>
<path transform="scale(.1)" d="m6555 9525 3-3 5-3h6l6 2 6 4 3 3 3 5 8 16 2 8 1 8 2 20v10l1 10v28l-1 9v7l-1 7v6l-1 5-2 4-1 3-3 5-4 2h-4l-5-2-2-2-4-6-2-5-1-4-1-6v-7-7l1-8 2-8 3-11 4-11 5-12 5-13 7-12 7-14 16-24 8-11 9-10 8-8 8-7 7-6 7-5 12-4 5-1 4-1 8 2" style="clip-to-self:true;comp-op:src"/>
<path transform="scale(.1)" d="m6682.5 9582.8 4-3 4-4 4-2 4-3 4-4 5-4 18-15 7-5 6-6 6-5 4-6 5-5 4-6 3-5 4-10 1-5 1-4-1-4-1-3-2-3-3-2-3-1h-4-4l-12 4-7 4-7 6-8 6-8 8-8 10-16 24-7 14-12 28-4 15-4 14-3 12-2 13-2 22 1 9 2 8 2 7 4 6 5 4 5 5 8 2 9 2h11l12-1 14-2 14-3 14-5 35-13" style="clip-to-self:true;comp-op:src"/>
</g>
<g stroke="#f0f" stroke-width="14.1">
<path transform="scale(.1)" d="m6021.2 8877.5 1 3-1 3 3-3 4-5 3-2 7-7 4-5 4-4 8-10 4-6 5-4 9-12 8-10 5-4 4-5 4-3 3-3 3-2 3-1h4l3 3 2 3v4l1 5v6 7 8l-1 8-1 10-2 10v12l-2 11-3 25-1 11-2 11-1 9-1 8v7 13l3-1 4-6 5-11 3-6 8-14 3-8 4-8 8-18 5-9 4-10 4-9 5-7 4-8 5-6 4-5 5-5 5-2 3 2 2 4 1 5v4l1 5v5 6 60l1 4v4 3l1 3 3-2 3-6 1-3 5-10 1-5 3-6 2-6 3-6 6-14 4-7 3-8 8-16 5-6 5-7 4-6 4-4 3-4 3-2 3-1h4l2 3 1 3 1 4 1 6v12l-2 16-1 18-1 9-2 19v10l-2 10v9 14 6l2 4 1 3 3 4 5-1 2-2 2-3 6-11" style="clip-to-self:true;comp-op:src"/>
<path transform="scale(.1)" d="m6344.7 8835.6 1-4v-4l1-3-1 3-1 7-1 5-2 5-1 7-2 7-1 7-2 16v7 14 6l2 10v4l2 3 3 4 4 1 5-2 3-2 8-8 9-12 2-5 3-5 2-5 2-7 2-6 4-13 4-16 3-7 3-6 2-6 2-5 1-3 2-3-1 6v5l-2 5-1 6-3 24-2 15-1 8v7l1 6v7l1 5 2 5 1 4 3 3 3 2 4 1 4-1 5-1 5-3 6-4 6-5 17-16" style="clip-to-self:true;comp-op:src"/>
<path transform="scale(.1)" d="m6526.6 8729.1v-4l1-4v-5-7-3l-4 1-3 6-2 5-1 7-2 8-3 10-2 10-2 11-1 11-2 12-1 12-1 11-2 12v11 11 10 10 10l4 16 2 7 2 6 3 5 3 4 6 6 8 2h4l4-1 3-1 8-6 3-3 3-4 4-4 6-10 3-6 6-14 3-8 3-9 4-10 4-11 4-12 4-14 5-15 4-16 15-54 5-17 4-15 5-14 4-11 4-8 2-6 2-3-1 6-2 6-2 8-2 9-3 11-3 12-3 13-2 14-6 30-1 14-2 14-1 13v13 12l1 11 2 11 2 9 3 8 4 8 4 7 4 6 5 5 10 8 10 5 5 2 4 1 5 2 4 1 3 1h5 4l1-4-3-7" style="clip-to-self:true;comp-op:src"/>
<path transform="scale(.1)" d="m6572.8 8815.9v-3l3-4 2-3 3-2 10-6 6-4 14-7 8-5 9-4 20-10 11-4 20-9 11-3 9-4 10-3 9-2 14-4 12-2 4-1 5-1" style="clip-to-self:true;comp-op:src"/>
<path transform="scale(.1)" d="m6746.9 8751.9-2 4-3 9v5l-1 4-2 12-1 14-2 8-2 16v9l-1 9v17l1 8v8l2 7 1 6 2 6 2 5 1 4 3 2 4 3 5-2 4-6 6-14" style="clip-to-self:true;comp-op:src"/>
<path transform="scale(.1)" d="m6797.8 8707.5 3 1 1 4v7" style="clip-to-self:true;comp-op:src"/>
<path transform="scale(.1)" d="m6838.1 8801.2v4 3l-1 5-2 6-2 7-2 9-3 10-3 12-3 13-4 14-3 16-3 15-3 17-2 16-3 16-2 15-1 15-2 13-1 13v11 22 5l1 2 3-3 2-5 1-5 1-7 2-16v-9l1-10v-11l1-12v-11l3-39 2-14 1-14 4-28 3-14 3-12 3-11 4-9 3-8 4-6 8-8 8-4 4-1h5 4l8 4 3 3 3 5 3 4 2 5 1 6 1 7 1 6-1 8-2 7-2 9-3 7-3 8-8 16-5 6-5 7-5 6-5 5-5 4-8 6-3 1h-5l-3-4-2-8 2-14" style="clip-to-self:true;comp-op:src"/>
<path transform="scale(.1)" d="m6992.8 8661.6-3-3-3 1-5 5-2 4-2 7-3 6-3 10-3 9-3 12-3 14-2 13-2 15-1 16-2 15v15l-1 15v14l1 13 1 12 2 12 2 10 2 9 3 8 4 7 3 5 5 4 5 3 5 2 5 1 6-1 5-1 12-4 6-3 5-5 5-4 6-6 4-5 4-6 3-6 3-7 3-6 2-8 2-7 2-8 1-7 1-8 1-7v-6l-1-5-1-4-2-3-5-2-6 1-8 8-5 4-10 14-5 8-6 9-8 18-6 18v8 8l3 8 4 7 5 5 8 6 9 5 11 4 13 3 13 1h15l16-1 41-8" style="clip-to-self:true;comp-op:src"/>
</g>
</g>
</g>
</svg>
