<?xml version="1.0" encoding="UTF-8"?>
<svg width="1e3pt" height="1e3pt" version="1.2" viewBox="0 0 1e3 1e3" xmlns="http://www.w3.org/2000/svg">
<g id="surface45">
<rect width="1e3" height="1e3" fill="#20282d"/>
<g fill="none" stroke-linecap="round" stroke-linejoin="round" stroke-miterlimit="10" stroke-width="14.1">
<g stroke="#fff">
<path transform="scale(.1)" d="m4503.4 223.12-1-3v4 4l-1 4-2 14-1 8-2 10-1 13-2 13-1 15-1 16-2 17-1 19-2 18-4 38-1 20-1 19-1 17-1 16v27l1 11 1 9 1 7 1 6 1 5 1 3 3 5 4-1 3-6 1-4 1-6 2-16" style="clip-to-self:true;comp-op:src"/>
<path transform="scale(.1)" d="m4448.4 286.88-2-4-1-3-2-4-2-8v-4-4-4l1-4 2-4 3-4 8-8 5-4 14-8 8-4 10-3 11-3 11-2 12-2 12-1 11-1 11 1 11 2 9 2 9 4 8 5 6 6 6 7 4 7 3 9 1 10v10l-1 10-6 22-5 12-12 22-7 10-8 9-9 9-18 14-11 6-10 7-11 4-11 5-10 4-20 6-9 2-7 2-6 1-6-1-3-1-3-2v-4l1-4 7-13" style="clip-to-self:true;comp-op:src"/>
<path transform="scale(.1)" d="m4622.2 363.12-4 2-3 3-4 6-2 4-2 5-1 6-4 14-1 8-2 9-1 9v9l-1 10 1 10v9l1 9 2 9 2 8 2 7 3 6 3 5 3 4 3 3 4 1 3 1h4l4-1 5-2 4-2 5-3 3-5 8-10 2-7 3-7 1-7 2-16v-8l-2-18-1-8-1-9-3-9-4-16-3-8-3-6-2-6-6-8-6-4-5-1-6 1-3 4-3 6-1 3-1 5v4 12" style="clip-to-self:true;comp-op:src"/>
<path transform="scale(.1)" d="m4741.6 404.06-4 3-3 6-1 5-1 4v7 13 8l6 48 2 7 1 5 2 5 2 4 5 5 5 1 5-1 2-2 2-4 2-3 2-5 1-5 1-6 2-14v-7l1-8v-8l1-7v-7l1-7v-5-5l1-3 1-5 3 4 1 3 1 5 2 5 2 6 3 6 5 14 3 7 6 16 4 7 3 7 4 6 3 6 4 5 7 7 5 1 4 2h4l8-2 9-6 3-4 4-5 4-6 2-8 3-7 2-9 1-10v-9-10l-1-10v-10l-1-9-2-17-2-6v-6l-2-8v-3l2 5 2 6 2 3 1 4 5 11" style="clip-to-self:true;comp-op:src"/>
<path transform="scale(.1)" d="m4946.6 465.31 1-3 6-8 3-3 2-3 3-3 9-12 2-4 3-4 2-4 2-3 2-11v-6l-1-4-4-1-5 1-4 1-4 3-3 4-5 5-4 5-4 7-5 9-4 9-3 12-4 12-3 13-2 13-2 14-1 14-1 12v11l1 10 2 9 2 7 4 5 3 3 4 3 5 1h5l6-1 7-2 6-3 7-4 7-7 8-6 7-8 8-10 6-10 7-11 6-12 6-13 10-28 4-13 5-13 4-12 4-10 3-8 2-6 2-5 4-6 2 8 1 5 1 6 2 6 1 8 2 8 1 9 3 10 2 22 2 13 2 24 2 11v11l1 9v8l1 8-1 5v6l-1 4v3l-3 3-4 1-5-5-4-6-2-4-1-5v-6l-1-5 1-7v-7l4-16 3-10 4-10 4-11 5-11 6-11 7-11 7-10 8-10 8-8 8-7 9-7 9-4 7-4 9-2 7-1h6l6 1 4 1 4 2 2 4 4 10" style="clip-to-self:true;comp-op:src"/>
<path transform="scale(.1)" d="m5325.3 416.25v-4-3l-1-5-1-3-4-6-2-2-6-3h-4l-4-1-5 1-6 1-5 1-14 4-7 3-14 8-14 10-6 5-4 6-5 6-2 6-1 6 2 10 3 5 5 4 5 5 7 3 7 4 8 3 7 3 24 9 7 3 6 3 5 4 8 6 2 4 1 4v3l-1 3-2 4-4 3-4 4-5 3-14 6-8 2-8 3-9 2-10 1-9 1-8 1h-9-8l-6-2-5-1-4-3-3-3 1-11" style="clip-to-self:true;comp-op:src"/>
<path transform="scale(.1)" d="m5371.2 486.56-1 3-2 5v4l1 4 3 2 5-1 2-1 4-1 4-3 4-2 4-3 10-8 6-4 5-5 4-5 5-5 3-5 3-6 3-5 2-6 2-10-1-5-1-3-3-4-3-2-4-1-5-1-5 1-6 1-7 2-6 4-7 4-7 5-5 6-6 7-5 8-5 9-4 8-2 9-2 10-2 9v9 9l3 7 2 7 4 5 4 4 6 3 7 2 7 1h8l9-1 10-1 9-3 10-3 11-3 20-8 18-10 8-6 9-6 7-6 7-7 10-14 4-7 4-8 3-8 2-8 2-9 1-9v-9-10l-1-10v-11l-2-11-1-13-1-12-2-27-1-13v-51l-1 5v4l-1 6-1 7-2 18-2 11-2 26-4 32-4 36-4 38-2 20-1 20-1 18v16 15l2 13 2 10 4 9 3 7 4 4 5 3 6 2h6l7-2 7-3 8-4 9-6 18-14 9-9 8-9 7-11 15-29" style="clip-to-self:true;comp-op:src"/>
<path transform="scale(.1)" d="m5504.7 412.5 3-2 8-4 5-2 5-1 8-3 8-2 10-3 11-3 12-3 14-3 15-3 14-3 16-2 14-3 14-2 24-5 9-2 19-4" style="clip-to-self:true;comp-op:src"/>
<path transform="scale(.1)" d="m4455.9 660.31-4 1 4 3h4l4 1h4 4l6 1h6 16l10 1h11l13-1h14 14l16-1h17l18-1 19-1 22-1h22l23-2 24-1 25-1 26-2 26-1 28-2 56-2 29-2 28-1 28-2 29-1 27-1 84-3h27l56-2 29-1h27l54-2 25-1 25-2 24-1 23-1 22-2h21l20-1 19-1 18-1 17-1h16l15-1 14-1 13-1h11l10-1h9l6-1h14-2v-6" style="clip-to-self:true;comp-op:src"/>
<path transform="scale(.1)" d="m947.19 1468.1v-3l-1-3-1-4v-4l-1-3-2-10v-3l-1-3v6 5 6l-1 7-1 10-1 11-1 12-1 15-1 16-2 17-2 19-2 20-1 20-2 20-3 20-2 19-2 18-1 17-2 16-2 15-2 14v11l-1 11-1 8-1 7-1 6v4 4-4-23-8-9l1-10 2-11 2-24 2-13 2-15 1-16 2-17 3-18 6-38 12-60 4-19 5-19 5-18 5-17 4-16 6-15 4-12 5-11 4-8 5-7 4-5 4-4 5-2 4-2h4 4l5 1 4 3 4 4 4 6 3 7 3 9 2 11v12l1 13v14l-1 14-1 13-2 14-3 13-2 13-4 12-4 11-4 10-5 10-5 9-6 8-6 7-12 12-6 4-7 4-12 6-5 2-6 2-10 2-4 1h-4l-3 1h-4l3-4 5-4 4-2 11-7" style="clip-to-self:true;comp-op:src"/>
<path transform="scale(.1)" d="m1204.1 1449.1-1-3v-4-3l-1-3v-5l-3-2-4-1-5 1-3 1-4 2-4 3-4 4-4 3-5 6-5 5-5 7-6 8-6 10-11 22-6 13-5 14-5 15-5 16-6 32-4 32-1 16v13l1 13 1 11 2 10 3 8 3 7 3 6 4 5 5 3 6 3h5 6l6-1 6-3 7-4 19-11" style="clip-to-self:true;comp-op:src"/>
<path transform="scale(.1)" d="m1348.4 1483.4-3-2-4-3h-4l-5 5-2 4-1 4-1 5-2 6-1 6-2 8-1 7-1 9-2 9-1 9-4 40v36l1 6v6l1 4v4l1 4 2-4v-9-5-29l1-9v-9l2-22 1-12 2-13 3-13 3-14 4-14 4-13 4-12 5-10 4-9 4-6 3-6 4-3 3-3 3-2 4 1 8 8 2 6 2 7 3 7 1 9 2 10 1 10 2 11 4 52 1 27 2 26 1 11 1 10 1 9 2 7 1 6 2 5 1 4 2 3 4 4h3l3-4v-5l-1-4-5-8" style="clip-to-self:true;comp-op:src"/>
<path transform="scale(.1)" d="m1307.8 1611.6 3-3 3-2 4-1 5-1 5-2 3-1 4-2 5-2 5-1 5-2 6-1 13-3 6-1 14-4 12-4 15-7" style="clip-to-self:true;comp-op:src"/>
<path transform="scale(.1)" d="m1486.2 1417.8-2-8 2-3h4 5l6 1 3 2 8 4 8 8 8 10 5 7 4 8 5 9 3 9 4 10 3 11 6 24 2 14 2 27v13l-1 13v13l-4 24-2 11-5 19-4 8-3 8-4 7-4 5-5 5-4 5-5 3-4 3-5 1-4 2h-4-4-4l-4-1-9-2" style="clip-to-self:true;comp-op:src"/>
<path transform="scale(.1)" d="m1692.2 1583.8 2-4 3-1 6-1 8-2 5-1 6-2 11-2 6-1 6-2h6l6-1h5l5-1h3" style="clip-to-self:true;comp-op:src"/>
<path transform="scale(.1)" d="m1665.3 1652.8 3 2 4 1 5 2h4 4 25l7-1h7l7-1 16-2 14-2 6-1 5-1 12-4" style="clip-to-self:true;comp-op:src"/>
<path transform="scale(.1)" d="m2319.4 1394.1-3-9-2-4-2-3-1-3-7-7-9-3-5-1h-5l-5 1-12 4-7 3-7 4-8 5-8 6-8 7-9 8-18 17-8 9-7 10-7 9-10 16-3 9-2 7v8 7l2 8 1 7 3 7 8 14 6 6 5 7 7 6 7 5 7 6 14 9 7 4 6 5 10 8 6 10 2 10-1 5-1 4-2 5-4 8-3 4-4 3-4 4-4 3-5 3-4 2-5 2-4 3-4 1-8 4 4 2h12l4 1h4l10 2 8 2 9 6 2 3 1 3v4 4l-1 4-2 5-6 12-4 6-10 14-7 7-6 8-8 8-8 9-27 24-10 7-10 8-9 7-9 6-16 13-7 5-6 4-4 5-3 4-2 4-1 4v4 3l2 3 3 4 3 2 5 3 4 2 6 2 7 2 7 1 9 1 9 2 11 1h10 11 12l24-2 13-1 12-1 12-2 20-2 9-1 8-1h6 9l4 1-2 3-5 3-3 1-4 2h-5l-4 1h-13" style="clip-to-self:true;comp-op:src"/>
<path transform="scale(.1)" d="m2401.2 1559.7-1-4-2-3 1-3 3-1h4l4 1 3 1 5 1 4 1 6 1 6 2 14 4 8 3 8 4 8 3 16 10 9 6 16 12 8 7 8 6 8 7 21 18 5 5 6 5 4 4 5 4 4 4 2 3 8 8v3h-2l-10-8" style="clip-to-self:true;comp-op:src"/>
<path transform="scale(.1)" d="m2604.7 1504.7-3-1-4-1-4 1-5 3-5 5-3 4-4 4-4 6-5 7-6 8-6 9-7 10-8 10-16 24-9 13-10 13-9 12-10 14-30 36-18 20-8 9-7 8-13 13-5 6-3 4-3 3-2 4 3-2 2-3 3-4 4-4 11-12" style="clip-to-self:true;comp-op:src"/>
<path transform="scale(.1)" d="m2768.8 1552.8-1-5-3-4-2-3v3 3l2 4 7 9 3 4 3 3 2 7" style="clip-to-self:true;comp-op:src"/>
<path transform="scale(.1)" d="m2762.5 1756.6 1-4 6-5 3-1 3 1-9 6" style="clip-to-self:true;comp-op:src"/>
<path transform="scale(.1)" d="m3049.7 1538.4-2-3v-3h4l4 3 3 3 6 8 4 5 5 5 4 5 6 7 5 7 21 24 8 9 10 9 9 9 10 9 10 10 11 9 12 10 11 9 24 18 12 8 11 8 10 6 10 7 8 6 6 6 6 5 5 5 4 5 3 4 3 7 2 4-1 4h-4l-5-3-8-4" style="clip-to-self:true;comp-op:src"/>
<path transform="scale(.1)" d="m3248.4 1526.9v-4l-3-3-3-1h-3l-5 3-3 3-3 2-6 8-4 5-5 6-6 7-6 8-6 9-7 10-16 22-9 12-8 11-18 24-9 11-18 23-9 10-16 20-7 8-8 8-7 6-11 12-6 5-4 4-4 3-3 2-5 3 5-4 3-3 10-9" style="clip-to-self:true;comp-op:src"/>
<path transform="scale(.1)" d="m3605.3 1550.6 1-4v-4l-2-4-2-3-3-2-5-2-7-1h-9l-10 2-7 1-6 2-7 2-7 3-9 3-8 4-9 5-17 9-9 6-16 12-14 14-6 7-5 7-3 7-4 14v6 6l4 12 4 5 4 6 6 5 7 5 9 5 9 4 11 4 12 4 12 2 14 2 29 2h31l30-2 14-1 13-1 12-2 11-1 11-2 18-2 7-2 5-1 6-1h3l5-2-4-3-5-2-8-2-5-1-13-1" style="clip-to-self:true;comp-op:src"/>
<path transform="scale(.1)" d="m3939.4 1496.9h-4l-4 1-4 6-3 4-4 5-3 7-5 7-4 9-6 11-12 24-12 28-7 15-12 32-7 14-4 14-6 13-3 11-4 10-2 9-2 6-1 6-1 5v8h3l4-5 3-3 3-5 4-5 3-6 8-14 8-16 3-10 4-10 4-12 5-13 4-15 6-15 5-17 6-17 12-36 6-17 7-15 6-12 5-11 4-8 4-6 2-4 2-3 3-2 4 4 2 3 1 3 2 5 2 4 1 6 3 6 1 6 2 7 4 16 3 8 2 9 6 20 2 12 3 12 6 26 3 14 2 13 3 13 3 12 3 11 4 20 2 9 4 16 1 7 1 6v5l1 5 1 4v3 3 4l-1-3-2-3-1-4-8-9" style="clip-to-self:true;comp-op:src"/>
<path transform="scale(.1)" d="m3873.8 1682.8 3-3 5-2 4-2 5-1 5-2 6-2 8-2 18-4 10-2 44-12 25-7" style="clip-to-self:true;comp-op:src"/>
<path transform="scale(.1)" d="m4089.4 1391.6 3-4 4-2 3-3 5-1 5-3 7-1 7-2 8-2 9-2 8-2 10-3 27-6 9-1 8-2h7 13 5l4 1 3 1 4 3v6 4l-6 12-4 7-5 9-5 8-7 10-7 9-6 10-7 9-13 18-5 7-5 8-5 7-4 7-3 6-4 11v5 4l1 5 2 3 3 4 3 3 4 3 4 4 5 2 5 3 12 4 5 2 12 4 10 4 5 1 5 3 3 3 4 3 2 3 2 8v4l-1 4-1 5-2 4-2 5-3 5-2 5-6 10-10 14-3 4-4 5-3 4-1 4-2 3-1 3-1 4 2 4 4 4 4 1 9 3 4 1 6 1 5 1 6 2 5 1 6 2 5 3 6 3 5 2 4 5 4 4 4 5 2 5 2 6 1 8v7l-1 9-1 10-2 9-3 10-8 20-4 9-15 24-5 7-6 7-11 11-7 6-6 4-11 7-6 2-5 3-6 1-6 2-6 1h-5l-15 3h-4-6-4-10l-11-2" style="clip-to-self:true;comp-op:src"/>
<path transform="scale(.1)" d="m5489.1 1561.9-1-5v-5-4-3-3l2 6v10 7l-1 10-1 11v12l-1 13-1 14-1 13-1 14v13l-1 12 1 12v11l1 10 4 16 2 6 4 4 3 2 4 1 4-1 5-3 4-4 4-5 3-7 7-19" style="clip-to-self:true;comp-op:src"/>
<path transform="scale(.1)" d="m5479.4 1469.7-3-1-5-1-3 1-4 2-2 3v4 4l3 9 3 1 3 3 4 3 4 2 10 2 6 2h7 12 7l7-1 6-1 12-4 4-2 4-3 3-2 2-2 2-3-1-6-2-3-1-4-3-3-6-8-11-11-5-3-4-1-5-2h-10l-4 2-6 1-5 3-6 4-5 4-5 5-10 12-4 6-5 7-6 12-4 16" style="clip-to-self:true;comp-op:src"/>
<path transform="scale(.1)" d="m5600.9 1636.6-4 1-6 1h-5-4l-3-3-1-4 2-6 1-4 2-4 3-5 4-5 10-12 6-7 12-12 7-6 14-10 12-6 5-2h4 5l3 2 3 3 3 4 4 10v7l2 14v18l-1 10-1 9v10 8l-1 8v16l1 2v4l4-2 4-5 4-8 6-15 2-6 3-6 2-6 2-7 4-7 3-7 8-16 10-16 6-7 6-5 5-5 10-6 4-1h3 4l5 5 2 4 2 5 1 5 1 6 2 7v7l2 16v9l1 8v8 8l1 7v7l2 10 1 3 4 4 4 1 3-2 6-8" style="clip-to-self:true;comp-op:src"/>
<path transform="scale(.1)" d="m5921.9 1547.5-4-3h-5l-4 1-3 2-5 1-4 3-5 3-6 4-5 4-7 6-6 6-6 7-7 8-6 9-5 9-5 10-3 10-4 9-2 9-2 18 1 8 1 7 2 6 4 6 4 3 6 4 6 1 7 1h8l8-2 10-2 10-3 9-3 10-4 18-10 9-6 18-14" style="clip-to-self:true;comp-op:src"/>
<path transform="scale(.1)" d="m6017.5 1453.4v-5l-1-5v-5-6-7 6l-1 5v12 8l-1 10-2 22-1 13-2 30-1 16v16 17 17l1 16 1 15 2 14 3 14 2 12 4 10 4 9 4 7 5 6 4 5 6 3 5 2h6 6l6-1 6-2 12-8 6-5 5-5 15-21 4-8 3-9 9-30 2-10 4-18 2-7 1-6 1-3v-4l1 5v15 6l1 8 1 7 1 8 1 7 1 8 1 7 2 8 1 6 4 14 2 5 3 5 6 6 4 2 4 1 8-2 5-1 10-6 4-4 5-4 12-18 4-7 8-16 3-8 4-9 3-8 4-9 3-7 10-20 3-2 1 4v9l-1 6v7 8 31 8l1 7 1 8 1 7 2 5 6 10 3 3 4 2 3 1h5l11-3" style="clip-to-self:true;comp-op:src"/>
<path transform="scale(.1)" d="m6434.1 1604.7 1-5-4-8-3-3-3-2-3-1-4-2h-5-10l-5 1-6 1-5 1-12 6-6 4-6 5-5 5-6 7-10 14-8 16-6 16-1 8-1 7v8 8l2 7 1 5 3 6 6 8 10 4h4 6l5-1 7-2 6-2 12-8 7-4 6-5 6-6 5-6 6-7 5-7 6-8 6-9 5-9 5-10 10-24 4-13 5-14 12-45 3-15 3-12 2-11 2-9v-6-5l-1-3-3-1-4 5-4 10-2 7-1 8-2 8-1 9-2 9-2 10-2 22v12 12 12 12 12l4 22 2 10 6 18 4 7 4 6 10 8 6 1 5 1 6-1 13-4" style="clip-to-self:true;comp-op:src"/>
<path transform="scale(.1)" d="m6533.4 1650.6 1 3 4 2 5 1 6-1h4l4-1 4-2 10-4 5-3 6-4 5-3 6-4 10-8 6-5 5-4 4-5 3-5 4-4 2-5 2-8v-3l-2-4-6-2-3 1-4 1-5 2-4 2-10 8-4 6-5 6-5 7-4 8-4 7-4 9-3 8-2 8-2 16 2 14 2 6 3 6 4 4 10 8 14 4 8 1h10 9l11-1 33-6 11-3 10-3 11-4 10-4 10-5 9-4 9-6 8-5 16-12 7-7 6-7 7-9 6-8 4-8 5-8 4-16 1-6-1-5-2-4-2-3-5-2-4-1-6-1h-5-5l-7 1-6 2-5 2-6 3-8 6-2 3-3 4-1 4-2 4v8l6 15 4 5 4 6 16 16 25 23 5 6 6 6 4 5 4 6 2 6 2 5v5 5l-4 8-3 4-4 3-5 3-12 4-7 1h-7l-9 1-9-1-10-1-10-2-10-3-27-9" style="clip-to-self:true;comp-op:src"/>
<path transform="scale(.1)" d="m7218.8 1581.6 1-3-1-3-2-3-3-1h-4-6l-10 4-16 8-6 4-6 5-7 6-7 7-7 8-6 8-6 9-8 18-3 9-3 8v9 8l2 8 2 7 3 6 10 10 6 4 7 2 9 1h8l10-1 10-2 11-2 12-4 22-10 11-6 10-6 10-7 9-8 8-8 6-8 5-9 4-9 3-10 2-9v-8-9l-1-7-3-7-4-7-4-5-6-4-7-4-8-2-9-2h-9-10-11l-12 1-12 2-33 9-10 3-9 4-7 3-6 3-5 2-6 6 4 3" style="clip-to-self:true;comp-op:src"/>
<path transform="scale(.1)" d="m7259.7 1454.1-5 2-4 4-2 4-3 4-8 14-3 9-4 10-5 11-10 28-6 16-6 17-6 19-6 20-7 20-24 80-5 21-6 20-4 19-4 17-4 16-2 13-2 10-2 9v6 5 3l2-1 2-3 2-5 8-16" style="clip-to-self:true;comp-op:src"/>
<path transform="scale(.1)" d="m7539.1 1598.1-4-3-4-2-5-3-10-4h-5-5-4l-6 2-10 5-18 18-6 8-6 9-12 20-5 10-4 12-4 11-3 10-2 11-2 10v10 8l2 8 3 6 3 4 4 4 10 2h6l6-2 7-2 7-3 14-10 6-7 7-7 6-7 6-8 6-9 5-8 5-9 8-18 4-8 4-7 4-5 3-5 3-4 2-3 4-2 3 2 3 6 1 4 2 5v5l1 6 2 7 1 7v7l2 14v8 7l1 8v6 6l1 6 2 8 1 3 4-1 2-6 2-4 1-4 2-5 3-6 2-6 7-13 4-7 5-7 5-8 18-21 6-6 7-4 6-5 6-2 6-1h5l4 1 4 2 4 3 2 3 3 5 2 5 2 6 1 6 1 7 1 6v21l-1 6-1 7v5l-1 4v4 3l4-4 2-4 3-5 6-12 3-7 3-8 4-7 8-16 5-8 5-9 12-18 7-9 7-8 8-6 7-6 7-4 7-2 6-1 5 1 4 2 4 3 6 10 2 7 1 8v8 9 9l-3 30v10l-1 9v8l1 7 1 6 3 5 2 3 3 2 11-1" style="clip-to-self:true;comp-op:src"/>
<path transform="scale(.1)" d="m8002.2 1632.5-3-2-4-3-6-4-4-1-3-1h-4l-4-1h-8l-4 1h-5l-10 2-6 3-5 2-12 8-12 10-7 6-6 7-5 8-5 7-5 8-4 9-2 8-3 8-1 7v7 7l4 10 3 4 8 6 5 1 6 1 6-1 7-1 8-3 7-3 8-4 7-5 6-6 7-6 6-6 6-7 5-9 4-8 4-10 3-10 4-12 3-12 3-13 4-28 3-15 2-15 1-14 2-13 1-11 1-9v-7-4l-1-4-2-2-3 3-1 3-1 4-2 4v6l-1 7-1 8-2 18v10 10 11l2 24 1 13 1 14 2 13 3 28 4 26 2 12 3 12 6 18 3 7 7 14" style="clip-to-self:true;comp-op:src"/>
<path transform="scale(.1)" d="m8250.3 1543.8-2-5-2-3-4-3-3 2-2 5-2 4-3 5-1 6-3 8-3 9-3 10-4 12-5 13-5 14-5 15-12 30-6 16-10 28-4 12-3 12-3 9-2 8-1 7v4 7l2-3 7-14 2-7 3-7 2-7 3-8 2-9 3-8 6-20 4-11 4-12 4-13 6-14 5-15 7-16 6-16 8-15 7-13 7-11 7-9 5-7 5-5 5-3 3-2 3-1 5 2 5 5 2 4 2 5 3 6 2 8 1 8 1 9 1 10 1 11v12l1 12v14 14 15l2 30v15l2 15 2 28 2 13 2 12 2 11 4 18 4 7 2 6 2 4 6 6 3-2v-3-10" style="clip-to-self:true;comp-op:src"/>
<path transform="scale(.1)" d="m8183.8 1693.4h4l3-1h5l10-2 7-2 7-1 9-2 9-1 20-4 11-2 12-2 11-2 21-6 23-5" style="clip-to-self:true;comp-op:src"/>
<path transform="scale(.1)" d="m1168.1 2443.4-3 2-3 7-3 5-2 5-6 16-4 10-5 10-4 12-6 11-5 12-6 13-6 12-7 13-6 12-7 13-6 12-7 12-6 11-5 10-6 9-10 14-4 6-3 5-3 3-3 4-2 2-3 2 2-5 2-3 2-4 3-4 3-5 8-12 5-7 4-8 5-8 5-9 6-11 5-11 5-12 6-13 7-15 5-15 6-17 12-38 5-18 5-17 5-14 5-12 3-10 2-6 2-5 1-3 2 3 1 3v4 5 6l1 6v8l1 9v10l2 10 1 12 3 12 2 12 9 39 5 13 4 14 4 13 8 27 3 13 4 13 3 13 6 24 3 11 2 10 2 9 2 7 2 8 2 5 1 5 1 4 3 3 4-2 1-6 1-5v-13" style="clip-to-self:true;comp-op:src"/>
<path transform="scale(.1)" d="m1110.3 2615-2-1-6-6-1-3 2-3 4-3 3-1 4-1 5-2 6-2 7-1 8-2 9-2 10-3 11-3 12-2 12-3 13-4 24-6 11-5 11-4 26-10" style="clip-to-self:true;comp-op:src"/>
<path transform="scale(.1)" d="m1317.2 2534.1 4-2h6l8-2 11-3 5-1 7-2 6-2 7-1 7-2h7l7-1 6-2 15-3" style="clip-to-self:true;comp-op:src"/>
<path transform="scale(.1)" d="m1311.6 2618.4 5 1 6-1 7-3 8-2 16-6 27-9 8-3 18-6 9-1 16-6 9-2 7-2 7-3 14-7" style="clip-to-self:true;comp-op:src"/>
<path transform="scale(.1)" d="m1784.7 2389.4v-5-5-7l1-6v-7l-1-5v-6-5l-1-5-1-4-4-6-3-2-3-1h-5-4l-12 4-7 3-7 4-7 5-14 12-7 7-6 7-6 8-6 7-4 9-5 9-2 8-1 9-1 8 1 8 2 7 3 8 5 8 5 6 4 7 6 6 6 7 12 10 5 5 6 5 5 4 8 8 3 4 3 3 2 4 2 3v4 3 3l-2 4-1 3-6 8-7 7-8 6-3 3-3 2-2 2-3 4 2 2 6 1h3 4 4l8 2h5l4 1 5 2 4 1 3 2 3 1 3 3 2 3 2 6-3 12-3 5-3 4-4 5-5 5-5 6-6 5-6 7-7 6-6 6-7 6-19 19-5 6-9 9-2 5-2 3-2 8 3 4 6 4 5 1h6 7l9-1 9-2 10-2 11-2 33-9 10-2 9-2 8-2 7-2 6-1 4-1h5l-11 3" style="clip-to-self:true;comp-op:src"/>
<path transform="scale(.1)" d="m2010 2380-2-3v-4-3l1-3 3-3 3-1 3-2 4-2 5-3 5-2 14-6 16-6 9-4 9-2 9-3 9-2 8-3 16-2h6l6-1 5 1 4 1 3 1 4 4v3l-1 3-2 4-8 10-11 11-14 12-8 7-8 6-7 7-9 7-21 18-16 16-6 8-1 4-1 3 1 3 4 4 3 2 4 2h5l5 1h6 6l7-1h6 7l6-1h6l6 1h5l4 1 4 2 4 4v3 4l-2 4-3 5-4 6-5 5-4 6-19 19-7 6-5 5-12 10-16 16-2 8 3 4 6 3 3 2 10 2 6 1 13 2h6l7 1 6 1 5 2 6 2 8 4 3 3 1 4 1 3-2 8-3 5-4 5-10 10-7 5-6 6-15 9-7 4-16 10-9 4-7 4-8 3-7 4-8 3-6 3-7 2-6 3-5 3-6 1-4 2-6 1h-4l-7 1" style="clip-to-self:true;comp-op:src"/>
<path transform="scale(.1)" d="m949.06 3152.8-2 5v4l-1 6v6 8l-1 10v11l-1 13v12l-1 15-1 14v15l-1 15-2 15v16l-1 14v15l-1 13v13l-1 11v33 4l-3-5v-4l-2-8-1-5-2-12-1-7-1-8-2-8-1-9-1-10-1-11v-12-14-15l1-17 2-18 2-20 3-21 4-20 4-19 5-16 5-15 5-12 6-9 5-7 5-5 10-6h4 4l3 2 4 2 3 4 2 4 1 5 2 6v7 8l-2 9-1 11-2 12-3 12-4 12-4 13-9 24-6 11-5 10-12 18-6 7-5 7-7 5-6 5-6 4-5 4-6 2-4 2-5 2-3 2h-5l-3-5 5-11" style="clip-to-self:true;comp-op:src"/>
<path transform="scale(.1)" d="m1186.9 3122.2-2-4-3-5-3-1-4 1-4 5-2 4-2 6-4 6-3 9-4 10-5 12-5 14-5 16-6 16-4 17-5 18-12 51-2 15-2 16v14 13l2 11 2 10 4 9 4 7 4 6 6 3 5 3 6 2 7 1h7 8l7-2 9-2 8-3 9-3 16-8 19-12" style="clip-to-self:true;comp-op:src"/>
<path transform="scale(.1)" d="m1309.1 3190.3h-3l-4 3-2 6-1 4-1 5-1 6-1 7-1 8-2 8-1 9-2 10-1 11-2 11-1 11-6 33-2 12-1 10-2 10-1 9-1 8-1 6v5l-1 4v4-3l1-6v-4l2-10 1-6 2-7 1-7 1-9 2-8 3-10 2-10 2-11 4-13 3-14 4-15 4-18 5-18 5-19 7-20 6-17 6-14 7-13 10-15 5-4 3-2h5l3 5 2 10v7l1 8v8l1 10v73 12l2 26 2 22 2 11 2 10 1 9 2 8 2 7 1 6 2 5 4 8 1 3 2 5" style="clip-to-self:true;comp-op:src"/>
<path transform="scale(.1)" d="m1289.4 3329.1 3-3 6-4 6-3 3-2 4-2 9-4 5-3 6-2 7-3 6-2 14-6 8-3 7-4 8-5 7-4 17-10" style="clip-to-self:true;comp-op:src"/>
<path transform="scale(.1)" d="m1439.1 3131.6 3-4 4-1h6l5 1 8 2 5 2 5 3 6 3 5 4 12 10 5 8 7 8 5 10 5 12 5 14 4 15 3 16 3 17 2 34v18l-1 16-4 32-4 28-3 12-6 20-2 6-3 7-3 3-2 4-5 2-4-3-1-3-1-12" style="clip-to-self:true;comp-op:src"/>
<path transform="scale(.1)" d="m1650.9 3257.8v-3l1-5 4-3 6-4 4-1 5-1 4-2 5-1h5l5-1h11l5 1 9 1 3 2 3 1 4 3 3 7" style="clip-to-self:true;comp-op:src"/>
<path transform="scale(.1)" d="m1674.1 3319.7 4-1h4l6-1 4-1 5-1 4-1 5-1 12-2 8-1h7l9-1 8-2h8l8-2 7-1 6-1 15-2" style="clip-to-self:true;comp-op:src"/>
<path transform="scale(.1)" d="m2185.9 3053.8 2-4 1-4v-5l-1-4-1-3-3-2-5-2-2-1h-12l-4 1-12 2-7 1-7 2-7 3-16 6-9 4-8 4-7 5-8 4-14 8-5 4-4 4-3 4-2 3v4l5 4 3 2 5 2 5 1 6 1h7l8 1h8l16 1 16 2h7l6 1 6 2 8 4 2 3 2 6v3l-1 4-2 4-3 4-3 5-4 4-4 5-5 5-11 8-4 4-5 4-3 4-4 2-2 3-2 4 3 1h8 5l5-1h6l18-3h11l6 1 4 2 3 1 3 4 4 8v5l-1 6-2 7-3 6-3 7-4 7-5 6-6 7-13 13-7 6-8 6-24 17-25 16-7 5-8 6-12 10-9 9-6 8v4l-1 3 1 4 4 4 6 4 5 2 4 1 6 1 5 1 12 2 14 2 6 1 8 1 7 1h8 7l7 1h23 5 3l4 1 5 2 3 2-1 4-4-1" style="clip-to-self:true;comp-op:src"/>
<path transform="scale(.1)" d="m2476.9 3222.8 1-6v-5-6-7l1-5-1-4v-3l-1-5-4-2h-5l-4 1-10 5-5 4-12 10-6 7-7 7-6 8-6 9-6 8-10 18-4 8-2 8-2 16 1 8 1 7 2 7 3 6 5 5 5 4 7 4 7 2 9 2 9 1h11l11-1 12-2 12-3 12-2 12-5 12-4 12-5 11-6 10-5 20-14 8-7 7-7 5-8 6-8 3-8 2-9 1-9-2-20-2-10-3-10-5-10-4-9-6-7-8-6-7-5-9-4-10-2-11-1h-13-12l-13 2-11 2-12 3-11 3-10 4-8 3-7 4-10 6-3 4 2 4" style="clip-to-self:true;comp-op:src"/>
<path transform="scale(.1)" d="m2559.1 3066.9-3-2h-4l-3 2-2 4-1 3-3 6-2 5-2 4-4 12-3 8-3 9-4 11-9 27-6 17-7 19-7 20-8 21-9 22-8 22-9 21-9 22-7 20-8 19-6 19-6 16-5 16-3 13-4 11-3 9-2 7-2 8 2-3 7-9" style="clip-to-self:true;comp-op:src"/>
<path transform="scale(.1)" d="m2686.2 3081.9-2-2-2-3 1-4 5-3 4-2 4-1 5-2 6-3 7-2 6-2 16-4 7-2 16-2h6l7-1 6 1h5l5 2 3 3 4 6v4 5l-2 6-3 6-4 6-4 7-5 7-6 7-13 13-18 21-10 12-6 10-2 5-2 8v3l2 4 2 3 2 2 4 2 4 3 4 2 5 2 15 9 4 4 4 3 3 3 3 5 3 4 1 5v5 5l-4 12-3 6-4 7-4 6-5 6-4 6-18 18-4 3-3 4-2 2-3 4 3 3 10 2h4l5 1h6l5 1 6 1 5 1 6 2 5 1 4 2 5 2 6 6 3 4 2 10v5l-1 5-2 6-5 11-7 11-5 6-5 5-6 5-6 4-14 8-14 7-14 6-7 2-6 2-7 2-6 1h-7-7l-16 1" style="clip-to-self:true;comp-op:src"/>
<path transform="scale(.1)" d="m3979.4 3216.6-2 3-1 4-1 5-1 7-2 8-1 9-2 10-1 11-2 12-3 12-1 12-2 12-2 11-4 21-2 10-1 8-1 7-1 6v6l-1 3v7-8l1-3v-4-4-4-6-6l-1-6v-39l1-10v-11l1-12 2-11 3-21 3-9 4-13 2-4 2-2 4-2 5 2 4 5 3 4 3 5 3 6 2 7 4 7 3 9 4 8 3 9 4 10 12 36 2 8 6 16 2 7 2 6 3 5 6 12 3 3 4 2 2-2 1-4 1-6 1-4v-4-5l1-6v-5-7-7l1-7v-8-9l1-10 1-11 1-12 1-13 2-12 2-13 3-13 3-11 3-9 2-8 5-10 3-4 3-2 4 2 3 5 2 3 2 4 1 4 1 5 2 13" style="clip-to-self:true;comp-op:src"/>
<path transform="scale(.1)" d="m4233.8 3248.4-1-4v-3l2-6 6-3 3-2 4-2 10-4 5-1 6-1 7-1 6-1h8 8 8l24 3 14 2 4 1 10 7" style="clip-to-self:true;comp-op:src"/>
<path transform="scale(.1)" d="m4240.9 3329.7-4 1 3 1h5l8-2 5-1 6-1 14-2 54-6 8-2 8-1 6-2 14-3" style="clip-to-self:true;comp-op:src"/>
<path transform="scale(.1)" d="m4514.7 3190.9 3-2 2-1 5-3 3-1 3-2 8-4 10-6 4-3 6-3 16-10 5-4 5-3 9-9 4-3 4-5 4-4 3-5 3-3 2-4 2-3 2-5v6l-1 4-1 5-1 6-1 7-2 8-1 8-1 10-2 10-2 11-1 11-1 13-2 12v14l-2 15-1 13-1 14v13 11 21 9l1 7v6l2 5v5l1 3v4" style="clip-to-self:true;comp-op:src"/>
<path transform="scale(.1)" d="m4524.1 3407.5-3-1 4-2 3-1 4-2h5l10-2 5-2 14-2 24-3h8l9-1 16-2 20-5" style="clip-to-self:true;comp-op:src"/>
<path transform="scale(.1)" d="m1279.4 4065-2-3-5 1-6 12-3 5-6 12-4 7-4 9-4 10-6 10-5 11-5 12-6 13-5 12-6 13-6 12-10 22-10 18-4 7-3 7-2 5-3 4-2 4 4-4 2-4 3-4 3-5 3-6 4-6 4-7 5-8 4-8 5-9 5-10 4-11 5-11 15-36 5-13 5-12 5-13 4-11 5-11 4-9 4-8 4-5 4-7 4-1 5 5 1 4 1 5 2 5 1 7 2 7 1 8 2 9 1 9 1 10 3 10 2 10 2 11 3 10 3 11 5 22 3 9 2 10 3 9 3 8 3 7 2 7 3 6 4 10 4 8 2 2 2 4v-4" style="clip-to-self:true;comp-op:src"/>
<path transform="scale(.1)" d="m1186.2 4231.6v-5l1-3 2-5 4-5 3-2 5-3 4-3 5-3 7-3 6-3 16-6 10-3 9-4 11-3 24-6 26-8 12-4 13-4 11-4 12-4 28-10" style="clip-to-self:true;comp-op:src"/>
<path transform="scale(.1)" d="m1482.8 4145.3 4-3 9-3 4-1 5-1 5-2 6-1 5-2 7-1 6-2 5-2 6-3 15-6" style="clip-to-self:true;comp-op:src"/>
<path transform="scale(.1)" d="m1494.4 4206.9v4l1 4 4 4 3 1h3 9 5l6-2 6-1 7-3 24-6 10-3 9-2 10-3 18-5 16-6 7-3 15-8" style="clip-to-self:true;comp-op:src"/>
<path transform="scale(.1)" d="m1935.6 3991.6 1-8 1-7 2-9 1-9 2-16v-7-19l-1-5-1-4-4-6-3-2-4-1h-5l-5 1-6 2-6 4-7 4-8 5-8 6-9 7-20 18-10 11-22 24-10 13-9 12-7 12-6 10-3 10-1 8 1 7 2 7 11 11 7 4 8 4 8 3 9 3 8 3 10 1 8 2 9 2 16 4 7 1 6 2 10 6 3 3 2 4 1 5v5l-2 5-1 6-12 18-11 11-4 5-5 5-4 5-4 4-3 4-2 4-1 3-1 4 2 6 2 4 1 3 2 4 3 4 3 3 2 3 3 3 4 3 2 4 3 3 6 12 1 5v4 5l-1 5-4 10-2 6-3 5-4 6-3 6-4 5-8 11-3 5-3 6-2 5-3 5-1 5-2 5v4 4l1 3 4 6 3 3 3 2 10 4 6 2h6l7 1h8l9-1 8-1 8-2 9-3 8-3 7-3 21-14" style="clip-to-self:true;comp-op:src"/>
<path transform="scale(.1)" d="m2125.6 4080.3v-3l1 3v5l1 4-1 5v6 6l-2 16-1 10v9l-1 10-1 11v21l1 11v9l1 9v8l2 12 1 4 5 6" style="clip-to-self:true;comp-op:src"/>
<path transform="scale(.1)" d="m2223.4 4002.8 1-4 6-6 3-2 4-3 4-4 10-6 6-3 5-3 7-4 12-5 7-2 5-2 6-1 5-1h5 4 4l5 5 1 4-1 4-1 5-3 7-4 6-8 16-5 8-4 9-6 8-6 9-10 16-4 8-4 6-4 7-2 6-2 5-2 10v4l2 8 2 4 6 6 8 6 5 3 4 3 12 6 10 6 5 4 5 3 3 4 7 7 4 8 1 5v5 5l-1 5-2 6-2 5-3 5-1 5-3 4-2 5-2 4-1 4-2 6v4 2l3 6 2 2 3 2 8 4 20 8 6 3 10 7 8 8 4 5 2 5 3 5 1 6 1 7v6l-1 7-2 7-2 6-4 7-8 12-5 6-5 5-6 5-7 5-6 4-6 3-7 3-6 2-7 2-6 1h-7-7l-20-3" style="clip-to-self:true;comp-op:src"/>
<path transform="scale(.1)" d="m853.12 4760.9-1 4v4 6l-1 8-1 9-1 12-1 13-2 14-1 17-2 17-1 18-1 19-2 18-1 18-1 17v16l-1 15v13 12 10l1 9v7l1 5 2 6 2-3v-4l1-5v-6l1-7v-17l-1-9-1-19-4-22-2-12-2-13-2-15-1-15-1-16v-17l1-16 1-15 3-14 4-12 4-10 5-9 6-6 10-8 15-6h6l10 2 5 2 10 6 4 5 4 6 2 6 4 16v9l-1 10-2 11-3 11-3 12-5 12-5 11-12 22-12 18-19 19-6 5-10 6-4 1-3 1-5-2 2-12" style="clip-to-self:true;comp-op:src"/>
<path transform="scale(.1)" d="m1127.8 4769.1-3-1-7-1h-3-4l-4 2-5 3-4 4-6 4-5 5-12 14-6 8-7 10-6 10-5 10-5 11-4 13-4 12-1 15-2 14v14 15l1 14 2 13 3 13 8 22 6 9 6 7 6 6 7 4 7 2h8l8-1 8-2 8-5 21-12" style="clip-to-self:true;comp-op:src"/>
<path transform="scale(.1)" d="m1284.7 4801.6-6 2-3 2-4 2-5 5-3 4-2 4-3 5-2 4-3 7-2 6-6 16-4 10-3 12-2 11-4 13-3 13-2 14-3 12-3 13-2 12-1 11-2 18-1 6-1 5v4 4l2-6 1-4v-5l2-6 1-7 2-7 4-18 1-10 4-22 3-12 2-12 6-28 3-15 4-15 3-15 4-15 5-14 4-12 4-10 2-7 4-4 2-3 3-1 2 4 1 3 1 4 1 5 2 7v6l2 7 1 8 2 8 2 9 1 9 2 9 2 10 2 11 2 10 4 22 3 11 2 11 2 10 2 9 4 14 1 6 4 8" style="clip-to-self:true;comp-op:src"/>
<path transform="scale(.1)" d="m1251.9 4937.5-3-4v-2l13-13 4-3 5-3 12-6 7-4 8-4 7-3 17-9 8-5 8-4 18-12" style="clip-to-self:true;comp-op:src"/>
<path transform="scale(.1)" d="m1420.6 4741.9 4-1 6-1h4 4l4 1 5 1 6 2 5 2 6 3 5 3 6 4 6 5 10 12 4 7 3 8 3 9 2 9 2 11v11l-1 12-2 13-2 14-3 14-5 13-4 13-6 12-5 11-6 10-6 9-6 8-16 16-4 3-3 2 1-5 9-10" style="clip-to-self:true;comp-op:src"/>
<path transform="scale(.1)" d="m1658.1 4824.7 3-2 5-2 4-1 5-1 6-2 6-1 14-4 16-2 9-2h9l18-2 16-2 7-1h5l3-1" style="clip-to-self:true;comp-op:src"/>
<path transform="scale(.1)" d="m1650.3 4883.4 3 2 8-1 4-1 7-2 7-3 8-2 18-6 11-3 22-5 23-6 11-3 20-6 9-3 18-8" style="clip-to-self:true;comp-op:src"/>
<path transform="scale(.1)" d="m2156.9 4643.4 2-4 2-3 3-5 2-5 8-14 2-4 4-9 1-4 1-3v-4l-2-4-3-3h-6l-4 1-5 2-6 2-14 7-8 5-9 6-9 7-11 7-10 9-10 8-10 9-9 10-9 9-8 9-7 9-5 9-3 7-2 7v7l1 6 3 5 4 5 5 4 14 6 18 4 20 4 11 2 10 2 10 1 10 2 9 3 7 3 6 2 5 4 4 4 2 4 1 5v5l-1 6-6 12-4 6-6 7-6 6-6 7-7 6-8 6-7 7-7 6-6 5-7 6-5 5-4 5-3 4-2 4-1 3v4l1 3 4 6 3 3 5 3 4 2 6 2 25 9 6 2 5 3 5 4 4 4 3 4 2 5 1 5v6l-1 5-1 7-6 12-4 6-6 8-6 6-7 8-7 7-8 7-9 8-32 28-14 14-10 14-4 6-3 6-1 5v4l2 6 4 2 5 1 6 2h7 17l10-1 11-1 12-1 12-3 11-2 13-3 11-2 10-4 11-3 9-2 9-3 7-3 5-3 4-2 5-3" style="clip-to-self:true;comp-op:src"/>
<path transform="scale(.1)" d="m2550.9 4794.4-3-3-5-4h-5-4l-4 1-14 7-5 4-6 5-7 5-7 6-7 7-7 8-6 8-6 9-5 8-4 9-3 8-1 8v8 8l6 14 4 7 6 5 5 4 7 3 7 1h8l9-1 9-2 10-3 10-5 11-6 10-6 20-14 18-16 8-8 7-8 5-8 4-8 2-8 1-8-2-14-2-7-4-6-5-5-6-5-6-4-16-4-10-1h-21l-11 1-12 1-11 2-11 1-11 2-9 2-7 2-6 1h-5-4" style="clip-to-self:true;comp-op:src"/>
<path transform="scale(.1)" d="m2567.8 4666.2v-3-3 3l-1 7-1 4-4 14-3 9-2 9-6 22-4 13-4 12-8 28-6 14-15 48-4 17-5 18-4 18-4 17-3 18-3 16-3 15-2 14-3 12-2 11-1 9-2 12v2 6" style="clip-to-self:true;comp-op:src"/>
<path transform="scale(.1)" d="m2721.9 4928.4-3 1-3 4-2 3-2 4-3 4-3 5-4 5-3 6-10 14-5 8-5 7-5 8-5 7-3 8-5 6-3 7-4 5-12 18" style="clip-to-self:true;comp-op:src"/>
<path transform="scale(.1)" d="m3026.6 4822.2-1-5v-4l-1-2v-13-3l-3-1-3 4-2 3-3 4-3 6-5 7-4 9-6 9-6 10-7 12-14 26-7 14-6 14-14 26-5 12-5 10-4 9-4 7-2 6-2 4-2 3 4-3 2-3 3-5 3-4 3-6 4-6 8-14 4-8 3-9 5-9 3-8 8-20 3-10 8-22 9-23 4-10 5-9 4-7 6-10 2-3 3-2 4-2 5 1 6 2 2 2 4 3 3 2 2 4 4 3 2 5 3 5 3 6 2 7 1 7 2 8 1 8 2 9 1 9v9l1 10 3 27 1 8 1 7 2 5 1 6 4 9 6 9 4 2h4l3-2 1-5 1-6" style="clip-to-self:true;comp-op:src"/>
<path transform="scale(.1)" d="m2964.1 4935.3 3-2 4-1 7-1 4-1 5-2 6-1 7-1 6-2 9-2 8-1 8-2 10-2 9-2 8-2 16-6 17-8" style="clip-to-self:true;comp-op:src"/>
<path transform="scale(.1)" d="m3115 4687.8 3-3 5-4 5-1 4-3 6-3 6-2 7-4 8-4 9-3 10-3 10-4 21-7 10-3 11-2 10-3 9-1 16-2h6l6 1 5 1 6 6 2 4v4 6l-1 6-3 7-3 8-5 9-4 9-5 9-6 10-5 11-12 20-6 9-10 16-4 6-3 6-4 10-1 4v4 3l1 4 3 3 2 4 7 6 3 2 5 3 4 2 5 3 14 7 4 3 9 9 2 8v5l-4 10-3 7-3 6-4 6-5 7-4 7-5 6-4 7-8 12-3 6-2 5-1 5-1 4 1 5 1 4 2 4 4 4 5 4 12 8 14 6 8 3 7 3 8 3 7 2 12 6 5 4 4 3 3 4 1 5 1 4-1 5-1 4-4 5-3 5-6 5-6 4-6 5-16 10-9 4-10 5-11 4-12 4-13 4-14 3-34 10" style="clip-to-self:true;comp-op:src"/>
<path transform="scale(.1)" d="m4018.8 4821.9 2 2v7l-1 5v5l-1 7-1 8-2 10-2 11-2 12-3 13-2 14-3 14-3 15-3 16-3 15-2 15-2 13-2 12-1 11v9 16l3-2 1-4 2-4 1-6 2-7 2-16 2-8 1-8v-8l1-8v-8l2-16 1-9 1-10 4-18 2-8 3-8 4-7 2-6 4-5 5-5 3-1h6l3 2 3 1 2 4 8 7 3 5 4 5 3 5 4 7 3 6 8 14 3 7 4 8 8 14 3 7 4 7 3 7 9 15 3 3 3 4 2 3 5 2 4 2h3l3-2 2-2 3-9 1-4v-4l2-10v-5l2-12v-7-7l1-7v-8l1-9 2-19 2-10 2-11 2-10 1-10 3-8 2-8 2-5 2-4 2-3 3-2 3 4 1 6-1 13" style="clip-to-self:true;comp-op:src"/>
<path transform="scale(.1)" d="m4314.1 4925.3 3-1 8-4 3-1 4-1 5-2 5-1 5-2 6-1 5-2 14-2 6-1h6 7 25 3l1 5" style="clip-to-self:true;comp-op:src"/>
<path transform="scale(.1)" d="m4318.1 4995.9 3 1h4 6l3-1 4-1h4l10-2 6-1 12-1 7-1 6-1 7-1 7-2 12-5 14-5" style="clip-to-self:true;comp-op:src"/>
<path transform="scale(.1)" d="m4590 4865-4-6-1-3v-3l1-4 2-5 6-6 4-3 10-6 6-3 7-3 7-2 8-3 7-1 7-2 8-1h7 7l6 1 10 4 4 3 3 3 3 4 1 5v5l-1 7-2 7-8 16-5 9-21 30-9 11-9 10-9 11-9 10-8 10-8 9-8 8-7 8-6 7-5 6-4 6-3 5-3 4-2 5-1 2v3l1 4 6 2 5 1h5l7-1 8-1 9-1 10-1 11-2 12-2 26-2 24-2 11-1h10 17 6l6 2-2 5" style="clip-to-self:true;comp-op:src"/>
</g>
<g stroke="#ff0">
<path transform="scale(.1)" d="m211.25 2628.8-4-1h-4-3l3 1h18 6l7-1h9l9-1 22-2 24-2 13-1 14-1 26-2 11-1h13 21 10l9 1h8l16 2 7 1 6 1 6 2 5 2 5 1 8 2 3 2 4 1 4 3 2 2-2 4-4 1-3 1-5-3" style="clip-to-self:true;comp-op:src"/>
<path transform="scale(.1)" d="m467.19 2571.6-4-6-1-3 3 2 7 7 4 3 3 3 4 2 5 3 4 3 6 2 4 3 10 4 12 7 4 1 3 2 2 1 5 2 3 2 1 3-1 3-4 4-3 2-3 4-4 4-5 4-4 5-6 7-5 7-7 8-6 8-12 18-7 10-12 20-12 22-5 12-6 11-5 11-16 27" style="clip-to-self:true;comp-op:src"/>
<path transform="scale(.1)" d="m256.88 4251.6-5-1h-3l5-1h13 7 9l10 1h12 13 14l14 1h14 15 14l14 1h14 14l13 1h25 11l10 1h10 8 9l7 1 7-1h5l5-1 4-1 3-1h3l3-3 1-4v-5l-3-6-1-3-3-4-2-4-3-4-7-8" style="clip-to-self:true;comp-op:src"/>
<path transform="scale(.1)" d="m514.38 4191.6-3-4-2-3-6-6-3-1-4-3-4-1 4 3 4 2 6 2 4 2 5 1 10 4 6 1 6 2 19 7 6 2 6 3 5 4 5 3 5 4 4 4 3 5 2 5 1 5 1 6v6l-4 14-8 16-6 9-8 9-7 10-9 10-10 11-33 33-23 21-24 20-30 23" style="clip-to-self:true;comp-op:src"/>
<path transform="scale(.1)" d="m213.12 5687.2-3-1-4-1-3 1-4 1-3 2-2 3v3l2 3 5 4 3 3 5 2 6 2 8 3 9 1 10 3 12 2 13 1 15 2 15 1 32 2h33l16-1 30-2h14l26-2 10-1h11l9-1 8-1h6l6-1h4l5-1v-3l-3-4-2-3-3-2-2-3-3-4-6-7-11-13-5-9-3-4-2-4-3-3-2-4-2-2-2-3-4-4-3-4-2-3 3 1 4 2 3 1 4 2 5 1 5 2 12 4 7 2 8 1 8 2 10 2 9 3 18 4 10 2 8 4 14 6 6 4 9 9 4 5 2 6 2 5v6l-1 7-2 6-3 8-4 8-5 7-7 8-7 9-8 9-8 8-20 17-20 16-33 21-11 6-28 12" style="clip-to-self:true;comp-op:src"/>
</g>
<g stroke="#fff">
<path transform="scale(.1)" d="m1276.9 5614.4 1-4v-3l1-5v-4-4l1-3-1-4v-4l-1-4-4-1-3 5-2 4-3 5-4 7-4 8-10 18-6 11-5 12-6 12-5 12-6 12-4 11-5 12-4 10-4 9-3 8-2 6-5 10-1 3-1 4 1-3 4-6 2-5 3-4 2-6 4-6 4-7 18-36 6-10 6-12 5-11 6-13 7-13 7-14 7-15 7-16 16-34 7-17 8-16 6-14 15-30 4-6 2-4 2-2 4 2 1 3 2 8 1 6v7l2 16 1 9 2 20 1 11 2 10 2 12 1 12 3 13 1 13 2 13 3 13 8 52 3 11 2 12 2 10 2 9 3 8 4 12 3 5 2 4 1 4 2 4-5 1" style="clip-to-self:true;comp-op:src"/>
<path transform="scale(.1)" d="m1224.7 5688.1-2-4v-3l2-3 4-2 3-2 4-2 4-1 5-2 6-2 7-3 7-2 8-2 9-1 9-2 30-6 9-2 10-2 9-2 21-3" style="clip-to-self:true;comp-op:src"/>
<path transform="scale(.1)" d="m1490.6 5660.3 2-2 5-4 4-1 4-2 5-1 5-2 6-1 6-2 7-1 6-2 10-2 9-1" style="clip-to-self:true;comp-op:src"/>
<path transform="scale(.1)" d="m1502.5 5713.1-1 3-2 3-1 3 2 2 4 1h4l4-1h5l12-2 9-1 17-2 8-2 9-2 33-11" style="clip-to-self:true;comp-op:src"/>
<path transform="scale(.1)" d="m2005.6 5504.4 4-10 2-7 1-6 3-15v-8l-1-3-2-3-4-4-3-1-4-1h-4l-6 1-5 1-6 3-8 3-7 4-8 4-27 18-9 7-9 8-14 14-4 7-3 6-2 6v5l2 6 3 5 3 4 18 12 7 3 7 2 8 3 24 6 7 3 6 2 6 3 5 2 4 4 3 4 2 4 1 5v5l-1 4-2 6-2 5-3 5-5 6-10 10-10 11-13 13-4 6-1 4 1 4 3 3 6 3 3 1 4 1 5 1 8 3 4 1 3 2 4 2 3 2 2 3 1 3v4 5 5l-1 5-6 12-4 6-5 6-4 7-6 7-5 6-22 22-3 4-4 4-3 4-2 4-2 3v3 5l4 4 3 1 4 2 4 1 5 1h6 13 8l8-1h8l9-1 8-1h8 8 14l6-1h5l5-1 7-1" style="clip-to-self:true;comp-op:src"/>
<path transform="scale(.1)" d="m2242.2 5560.3v-3l1-6v-3-4 4l-2 8-2 12-2 16-2 9v9l-1 10v9 10l1 10 2 9 1 10 2 8 3 8 6 12 4 5 9 7" style="clip-to-self:true;comp-op:src"/>
<path transform="scale(.1)" d="m2336.2 5701.6 4-1 2 3-1 6-1 4-2 6-2 5-2 6-8 28-1 7-2 6-1 6v6 15 3l1 5" style="clip-to-self:true;comp-op:src"/>
<path transform="scale(.1)" d="m2527.5 5584.1-4-3-2-5v-3l2-3 10-5 4-3 6-1 5-3 6-1 7-1 5-1h6 5l5 1h5l3 2 4 1 4 6v4 5l-1 6-3 7-7 14-6 8-6 9-14 16-7 9-14 16-6 8-5 7-5 6-4 6-5 10-1 5v4 4l2 3 3 3 4 3 5 2 6 2 14 2 8 1h17l18-2h8l8-1h7l7-1h5 5 4" style="clip-to-self:true;comp-op:src"/>
<path transform="scale(.1)" d="m2698.1 5442.8-4-3-4-4-2-3 2-5 4-3 3-2 5-2 5-3 5-2 8-3 8-2 7-2 9-1 8-1h9 8l8 1 7 2 6 3 5 4 3 5 4 5v6 8l-1 7-3 9-4 9-12 20-14 22-24 30-14 18-10 14-3 6-3 5-2 5v4l1 4 2 4 2 3 3 3 9 5 6 3 18 6 6 1 12 4 5 2 4 3 6 6 2 8-1 5-1 4-2 5-6 12-4 5-12 18-3 6-4 5-3 6-1 5-2 5-1 4v4 3l6 9 4 2 7 7 5 2 5 3 4 4 5 3 12 9 6 8 4 4 6 8 2 4 2 5 2 4v4 5l-1 4-2 4-3 4-4 4-4 3-6 4-5 3-7 3-16 6-20 6-11 3-11 2-28 4" style="clip-to-self:true;comp-op:src"/>
<path transform="scale(.1)" d="m974.69 6261.2v5 13l1 6v62 11 12l1 12v14 14l1 13v14 13 13l1 11v18l-1 6v10 3 3l-3-4-2-6-1-4v-4l-1-6v-12l1-8v-9l2-10 2-11 2-12 2-13 3-13 4-14 3-14 5-15 4-15 6-14 6-15 5-14 12-26 6-12 6-10 6-9 5-8 6-6 4-5 4-3 4-2 3-1 4 1 3 4 1 3 1 4v11l-1 7-4 14-2 9-3 8-4 9-5 9-5 10-5 9-5 8-12 16-5 8-5 6-4 6-4 5-3 4-5 5-3 4 2-4" style="clip-to-self:true;comp-op:src"/>
<path transform="scale(.1)" d="m1299.4 6219.4-1-3-3-3-6-1-3 1-4 1-5 2-5 3-6 3-6 5-7 6-8 6-7 8-8 9-8 10-16 22-7 11-7 13-6 11-5 12-4 12-2 11-1 11 1 10 2 11 2 10 5 10 5 9 6 9 7 8 8 6 8 4 9 2 24-1" style="clip-to-self:true;comp-op:src"/>
<path transform="scale(.1)" d="m1371.9 6269.1-3 2-3 5-4 12-2 4-2 5-2 11-2 6-2 8-2 16-2 9v9l-1 10-2 9-2 20v9l-1 10v31l1 5v3l2-4 1-5 2-6 1-6 2-7 3-8 3-9 2-10 4-10 4-11 3-11 25-75 10-28 4-11 5-12 4-8 3-7 3-6 5-5 3 5v3l1 5v6l1 6 1 8v9l1 9v9l1 11v10l2 23 1 10 1 12 1 11 2 11 1 11 3 11 1 11 2 11 1 9 4 16 2 10 2 3 2 4 2-2-1-12" style="clip-to-self:true;comp-op:src"/>
<path transform="scale(.1)" d="m1345 6403.4-2-2 2-3 3-3 4-3 4-2 3-2 5-3 6-2 6-3 7-4 8-3 8-5 8-4 7-6 19-12" style="clip-to-self:true;comp-op:src"/>
<path transform="scale(.1)" d="m1515.6 6191.2 4-2 4-1h4 3 5l4 1 10 4 4 5 5 4 4 5 5 6 4 7 3 8 3 9 3 10 2 11 2 12 1 12v26l-1 14-4 28-2 15-2 14-4 14-3 14-4 12-4 11-3 9-4 9-6 12-6 6-4 1-3-3" style="clip-to-self:true;comp-op:src"/>
<path transform="scale(.1)" d="m1714.7 6319.4v-3l3-2 4-1 3-1 4-2 10-2 10-3 6-1 5-1 11-1h13l-1 7" style="clip-to-self:true;comp-op:src"/>
<path transform="scale(.1)" d="m1695.9 6398.4 2 4h4 5l5-2 6-1 8-2 8-3 9-3 10-3 10-2 11-3 20-4 18-4 8-1 6-1h5" style="clip-to-self:true;comp-op:src"/>
<path transform="scale(.1)" d="m2249.4 6221.6 1-5v-5l1-7v-5-6-5-4l-1-3-1-4-4-5-2-2-6-3h-5-4l-6 1-7 2-6 2-7 3-16 8-8 5-9 6-16 12-7 6-7 7-5 7-4 6-3 6-1 5 1 6 2 4 3 5 10 10 14 8 7 3 8 4 7 3 8 3 6 2 7 4 6 3 5 3 3 4 4 4 2 4 2 5v4 6l-2 6-2 5-4 7-3 6-5 7-5 6-18 21-5 6-6 6-5 6-5 5-4 5-4 8-1 4v6l2 5 2 2 9 6 4 2 3 2 5 2 4 1 4 2 5 5 4 6v4 4l-1 5-2 6-3 5-2 6-8 14-6 6-18 21-7 6-6 6-7 6-6 6-5 4-4 4-3 4-2 3-2 6 2 4 3 2 4 1 10 2h7l8-1h8l9-1 20-2 9-1 10-1 8-1h8 7 17l4-1h4" style="clip-to-self:true;comp-op:src"/>
<path transform="scale(.1)" d="m2531.6 6289.4-1-3v-3l-3-3h-4l-4 1-6 2-3 3-4 2-4 4-5 4-12 12-6 8-7 9-12 20-6 11-5 10-5 11-6 22-1 11v10l1 10 3 9 2 9 4 8 4 6 6 6 6 4 7 3 7 2h8l9-1 18-6 10-4 9-6 10-6 9-7 8-8 9-8 21-24 5-9 4-8 4-9 2-8 1-8 1-7-1-8-4-12-3-6-8-8-5-2-5-3-12-2h-6l-14 2-8 3-6 1-7 4-6 3-5 2-4 3-3 3-3 4h5l10-2" style="clip-to-self:true;comp-op:src"/>
<path transform="scale(.1)" d="m2582.5 6213.8-2-2-4-2-4 1-2 3-5 10-2 5-3 7-2 8-4 10-3 11-3 12-4 12-4 14-8 30-4 16-5 16-5 17-4 17-10 36-4 17-4 16-3 16-4 14-2 12-3 11-2 9-2 8-1 6-1 4v3" style="clip-to-self:true;comp-op:src"/>
<path transform="scale(.1)" d="m2717.8 6389.7v3 4l-1 3-2 10-3 6-2 6-2 8-4 9-4 10-4 11-4 12-5 11-5 12-4 12-10 22-4 11-4 10-3 9-4 9-3 7-2 6-4 5-2 3" style="clip-to-self:true;comp-op:src"/>
<path transform="scale(.1)" d="m3012.5 6208.1 2-3v-3l1-4 1-5v-3-9-6l-3-3-4-3-6-1-4 1-5 1-5 2-6 2-13 7-7 4-8 5-17 12-9 7-8 8-8 7-6 7-6 6-5 7-3 5-1 6v5l1 4 3 5 7 7 10 6 6 2 6 3 12 2 5 2 6 1 10 2 6 4 3 4v4l-1 3-1 5-3 4-6 10-4 5-5 6-11 11-5 6-6 5-5 5-5 6-4 4-6 8-2 3-1 5 2 3 5 3 4 1 3 1 5 1 4 1h4l4 1 9 3 4 2 6 4 2 3 1 3v3 5l-1 4-2 4-2 5-3 5-4 5-3 5-5 6-4 5-5 5-4 5-13 13-3 4-2 3-1 3 1 4 3 2 4 1 5 1 7 2h7l9 1h9l10-1h10l11-1 22-4 10-1 10-2 9-2 7-2 6-1 5-2 4-1" style="clip-to-self:true;comp-op:src"/>
<path transform="scale(.1)" d="m3135.6 6244.4-4-6-1 3-1 6v5l-1 6v6l-1 8v17l1 9v9l3 27 4 18 2 7 2 8 2 6 2 5 3 4 2 2 8 4" style="clip-to-self:true;comp-op:src"/>
<path transform="scale(.1)" d="m3223.8 6187.8-3-2-1-4 4-3 3-1 4-3 4-2 5-2 12-6 18-6 7-2 5-1 6-1 4-1 5-1h4l3 1 4 2 2 4v3l-2 8-4 5-2 6-4 6-10 14-5 8-5 7-5 8-10 14-4 7-3 6-4 6-2 4-3 9-1 4 2 7 2 6 2 3 4 2 3 3 4 2 5 3 4 2 5 2 4 3 5 2 4 3 3 2 4 3 5 5 2 4 1 4v3 4l-2 4-1 5-2 4-3 5-3 4-3 5-3 4-4 4-2 4-3 4-1 3-1 5 1 4 4 3 2 1 12 3h5l4 1 6 1 5 1 5 2 8 4 4 3 3 2 2 4 1 3v4 4l-1 5-2 4-3 5-4 4-4 5-5 4-5 5-5 4-7 4-5 3-6 4-6 3-12 7-6 2-5 3-6 2-13 4" style="clip-to-self:true;comp-op:src"/>
<path transform="scale(.1)" d="m3429.4 6504.7 1 3-2 5-2 3-6 8-8 10-6 5-5 5-6 5-5 6-11 9-10 8-13 8" style="clip-to-self:true;comp-op:src"/>
<path transform="scale(.1)" d="m3698.4 6171.6 3-4 4-12-1-4-2-4-4-3-4-1h-4-9-5l-7 2-6 1-7 2-7 3-16 6-8 4-8 5-17 9-8 5-6 5-5 4-4 4-3 4-1 4 1 4 1 3 3 3 3 4 4 2 5 4 4 3 5 2 5 3 6 3 6 2 20 12 4 3 7 7 2 4 2 3 1 4v4 4l-2 4-2 5-7 10-4 5-10 10-5 4-5 5-5 4-14 14-2 3-1 3 3 2h7 4 5l12-2 5-1h6 6 5l4 1 4 2 3 1 2 2 2 6-2 8-2 6-4 5-4 7-5 7-5 6-7 8-6 7-30 30-6 7-7 7-6 7-5 7-8 12-3 4-3 5-1 4v4l1 3 2 3 3 2 4 2 5 2 6 1h7l8 1h18l10-1h10l10-2 9-1 10-2 9-1 8-2 7-1 6-2 5-1 8-3" style="clip-to-self:true;comp-op:src"/>
<path transform="scale(.1)" d="m3784.4 6291.2-1-4-1-3 2-5 6-4 4-3 11-4 12-4 14-4 6-1 7-1 6-1h6 5l4 1 3 2 3 3 2 4 1 5v6l-1 6-3 7-3 8-4 8-5 8-6 9-5 8-6 9-12 16-10 14-3 5-3 6-3 4-2 4v3 5l4 3 3 1 4 1h11l7-1h6l8-1 7-1h8l7-2 7-1 12-4 4-2 5-2 8-4" style="clip-to-self:true;comp-op:src"/>
<path transform="scale(.1)" d="m3915 6180.9-1-4 1-3 3-3 4-3 4-1 3-2 5-2 10-3 6-2 6-1 7-2 6-2 7-2 6-2 7-1 6-2 6-1 5-2 6-1h4 4 3l4 4 1 5-1 5-2 4-2 5-2 7-3 6-3 7-3 8-4 7-8 16-7 16-3 6-2 7-4 12v5 5l1 4 1 3 2 4 2 3 3 2 3 3 3 1 3 2 12 6 3 2 4 2 3 3 4 2 6 6 4 6 1 4 1 3v5 3 5l-1 4-1 5-1 4-2 5-1 5-2 5-1 4-1 5-1 4-1 5-1 3-1 4v3 3l2 3 1 3 3 5 3 3 5 4 3 3 3 2 2 3 3 3 4 8 3 12v5l-1 4-2 5-2 4-4 5-3 4-5 5-5 4-6 4-6 3-7 4-16 6-11 2-11 3-13 2-34 5" style="clip-to-self:true;comp-op:src"/>
<path transform="scale(.1)" d="m4226.6 6455.3v-6l-2 4-1 3-2 4-3 5-2 5-4 6-4 7-5 8-4 9-6 9-5 9-12 18-6 7-5 8-6 6-4 6-8 10-4 3-4 2-3 2-7 2" style="clip-to-self:true;comp-op:src"/>
<path transform="scale(.1)" d="m4444.4 6194.4-2-2-3-1-3 1-4 6-1 4-4 12-3 8-3 9-3 10-7 21-3 12-4 12-3 12-3 11-3 12-3 10-4 18-4 14-1 5-1 4v3l6-6 1-3 2-4 4-10 4-12 2-7 3-7 2-8 2-9 3-9 3-10 6-22 3-13 4-13 4-14 4-15 5-15 4-14 5-15 5-13 4-11 4-10 4-7 2-5 3-3 4-1 4 4 2 5 1 5 2 7 2 18 1 10 1 12v11l2 24 2 26 1 12 3 27 2 13 4 29 1 13 2 13 3 13 1 11 1 10 2 9v8l2 7 1 5 1 4 1 3 1-5-1-3-1-4-2-13" style="clip-to-self:true;comp-op:src"/>
<path transform="scale(.1)" d="m4404.1 6334.7-3-2 3-2h3l3-1 5-1 6-2 5-2 6-2 7-1 7-3 8-2 7-3 9-2 18-5 10-3 10-4 18-8 22-10" style="clip-to-self:true;comp-op:src"/>
<path transform="scale(.1)" d="m4567.8 6153.8v-4-3-3l1-4 7-7 4-3 7-4 6-5 8-5 9-4 9-5 10-5 22-8 12-4 11-3 22-4h9 9l7 2 5 2 4 4 2 4 1 5-1 6-2 7-10 16-7 9-8 9-9 10-20 20-10 11-20 20-9 10-8 9-7 10-6 8-5 8-4 8-3 8-2 6v6 6l2 5 3 4 8 6 6 2 14 4 6 2 7 2 7 1 6 2 5 3 4 3 3 2 2 4 1 4v4l-1 5-2 5-3 5-4 5-13 17-4 5-6 10-3 4-1 3-1 4v2l3 6 2 2 4 2 3 2 5 2 4 2 6 2 6 1 5 2 6 1 18 6 5 3 8 4 4 3 2 4 1 3 1 4-2 4-1 5-3 4-5 5-6 4-6 6-8 5-18 10-10 5-11 5-10 5-10 4-10 3-10 4-10 3-10 2-10 1-9 2h-10l-21-1" style="clip-to-self:true;comp-op:src"/>
<path transform="scale(.1)" d="m5345.9 6237.5-3 4-2 4-2 5-1 7-4 14-2 10-4 18-2 10-3 10-2 10-3 10-2 10-3 9-6 30-1 9-2 9-2 12-1 3v4-4l1-7v-4l1-5 1-6v-5l1-6 2-7 1-7 3-15 2-8 3-9 2-9 4-10 3-9 12-27 5-7 4-6 4-5 8-4h3l4 1 3 1 8 6 5 4 4 5 4 6 4 8 5 8 4 8 8 18 8 20 4 9 3 10 8 18 3 8 6 14 3 6 3 5 3 4 1 3 4 2 4-2 2-6v-4-5l1-6v-7l1-7v-7-8l1-10v-9l1-10 1-11 1-13 2-13 2-14 4-14 3-14 4-13 5-13 3-10 4-8 4-7 3-4 3-3h5l2 3 2 4 1 5 1 6v7l2 19" style="clip-to-self:true;comp-op:src"/>
<path transform="scale(.1)" d="m5605.9 6330.6 4-3 4-2 5-3 14-4 16-4 8-1 18-2 16-2h8 6 7l5 1 3 1 5 9" style="clip-to-self:true;comp-op:src"/>
<path transform="scale(.1)" d="m5608.1 6425.9 4-1 3-1 4-1 5-1h5l7-2 14-2 8-2 8-1 16-4 9-1 9-2 8-3 24-5" style="clip-to-self:true;comp-op:src"/>
<path transform="scale(.1)" d="m5999.7 6234.1 2-3 1-3 1-4 2-6-5 3-3 2-4 3-5 4-6 4-6 5-7 6-38 38-8 9-8 10-7 8-12 16-5 7-3 6-4 10v3l1 3 5 4 3 2 5 1 6 1h6 17 9l10-1 21-1 10-1 22-2h10 9l9-1h41l-4-1" style="clip-to-self:true;comp-op:src"/>
<path transform="scale(.1)" d="m6012.2 6229.7 1 5-1 4v4 5l-1 6v6l-1 7-1 8v8l-1 9v10l-2 12-1 11-2 13-1 12-1 14-2 14-1 15-1 16v16l-1 14v15l-1 13-1 12v10l-1 10-1 20" style="clip-to-self:true;comp-op:src"/>
</g>
<path transform="scale(.1)" d="m258.75 7354.4-3-2-4-2-6-4 3-1 3 1 8 2h7l7 1h9l10 1h25l14-1 15-1 32-2 17-2 16-1 17-2 16-1 16-2 15-1 15-2 14-1 24-2h10l10-1h9 8l6-1h11 4 4l3-1-1-4-4-6-11-11" stroke="#ff0" style="clip-to-self:true;comp-op:src"/>
<path transform="scale(.1)" d="m541.25 7253.8-2-3-4-4-2-4-1-3 4-1 9 3 4 3 4 2 5 2 6 3 5 3 7 4 6 4 7 4 7 5 6 4 14 8 6 5 6 4 5 5 5 3 5 4 4 3 6 8 2 3 1 4v3 4l-2 4-2 5-3 4-10 12-14 12-8 6-27 21-10 8-10 7-9 8-10 8-9 8-10 8-10 7-20 16" stroke="#ff0" style="clip-to-self:true;comp-op:src"/>
<g stroke="#fff">
<path transform="scale(.1)" d="m1266.2 7195.9 1-4v-8l-1-3v-3l-1-4h-3l-4 6-3 5-3 7-4 8-5 9-10 22-5 13-10 28-4 14-5 15-4 15-9 39-3 11-1 10-4 14-1 4-2 6v-4l1-6 1-4 1-5 2-5 1-7 4-14 2-8 3-9 6-20 4-11 5-11 4-13 12-28 12-30 14-30 6-14 6-13 5-11 7-14 3-4 4-2 2 4 1 4 1 5 2 12 4 16 1 9 4 18 4 20 2 11 2 10 4 22 3 11 6 20 3 9 3 8 2 7 3 8 2 6 2 12 1 5v8 5l-1 2-3 4-5 2h-3l-4-1-9-4" style="clip-to-self:true;comp-op:src"/>
<path transform="scale(.1)" d="m1196.2 7303.8 2-3 3-3 5-2 3-2 5-2 4-2 6-2 5-3 8-3 7-3 9-3 10-3 11-2 12-3 25-5 12-3 13-2 12-3 13-3 27-6" style="clip-to-self:true;comp-op:src"/>
<path transform="scale(.1)" d="m1521.9 7255.9 4-3 5-5 4-1 4-2 10-4 6-2 7-1 14-4 7-1 6-1h6l6-1h5 5" style="clip-to-self:true;comp-op:src"/>
<path transform="scale(.1)" d="m1515.9 7309.4-11 11-2 3-1 5 2 3 5 1h8 5l7-2 8-1 8-2 10-2 10-1 12-2 33-6 10-2 9-2 9-3 19-5" style="clip-to-self:true;comp-op:src"/>
<path transform="scale(.1)" d="m2105.9 7066.2 2-3 4-8 4-4 2-5 12-16 4-4 3-4 4-4 2-5 3-3 6-9h-4l-3 1-18 11-9 7-10 7-11 8-12 9-33 30-9 10-8 11-7 9-6 9-4 9-3 8-2 7v6l1 5 2 5 3 5 5 4 12 6 8 3 8 2 10 2 9 1 9 2 10 2 24 6 5 2 6 3 3 3 3 4 1 4-2 10-2 5-4 5-5 6-4 6-12 10-5 5-6 5-10 8-10 10-1 4 3 4 5 3 5 1 5 2 5 1 6 1 5 1 6 1 6 2 5 2 8 5 3 3 2 4 2 3v4l-1 5-2 4-6 10-5 6-11 10-6 6-7 5-14 11-7 6-7 5-6 5-20 20-6 8-2 8v3l1 3 4 6 3 3 5 2 5 3 6 2 7 2 16 2h10 21 10l11-1 20-2 9-1 9-2 7-1 7-2 6-2 4-3 4-2 7-5" style="clip-to-self:true;comp-op:src"/>
<path transform="scale(.1)" d="m2375.3 7146.6v-4l-1-4v4 3 8l-1 5v6 5 41 8 8l1 16 1 8v8l1 8 1 7 1 6v5l4 10" style="clip-to-self:true;comp-op:src"/>
<path transform="scale(.1)" d="m2494.4 7295.6-1 3-4 3-4 6-3 3-2 4-3 4-5 5-3 5-5 6-4 7-4 6-12 21-2 7-3 7-2 8-1 7-2 6-1 6v5 5l2 8" style="clip-to-self:true;comp-op:src"/>
<path transform="scale(.1)" d="m2639.1 7225.9-1-4v-4l-1-5-1-4v-5l1-3 2-4 3-3 3-4 10-8 5-3 12-6 12-4h6 5 5l8 4 3 3 2 4 1 5v5l-3 14-3 7-5 8-5 9-5 8-6 8-12 15-7 7-5 7-6 7-5 6-5 5-4 5-3 4-2 3-2 5 2 4 5 1 4 1h11l7-1 6-1 16-2 7-1 16-2 7-2 6-2 5-1 6-3 11-2" style="clip-to-self:true;comp-op:src"/>
<path transform="scale(.1)" d="m2788.4 7291.2 3 2v4l-2 4-1 3-2 3-2 4-3 4-3 3-3 5-4 4-4 5-4 4-4 6-4 5-3 5-5 10-2 6-6 24" style="clip-to-self:true;comp-op:src"/>
<path transform="scale(.1)" d="m2980.9 7154.7-4-3-3-4-1-4 5-2 3-1 4-2 6-1 6-2 14-4h8l8-2h7l8-1h6 6l6 1 4 2 3 2 2 2 1 4v3l-1 5-3 5-4 6-11 11-7 6-14 11-8 5-14 10-6 3-6 4-4 3-3 2-3 3-1 4 4 3 3 2 4 2 5 1 12 2 7 1 14 4 8 1 12 4 7 3 4 2 5 3 4 3 3 4 2 3v4 4l-1 5-3 4-5 5-5 4-14 8-8 4-18 8-9 3-10 4-20 6-18 4-8 2-8 1-6 1-5 1-5-1-3-1-4-3v-6" style="clip-to-self:true;comp-op:src"/>
<path transform="scale(.1)" d="m3181.6 7066.2v-5l1-7 2-4 3-3 8-6 5-3 18-9 7-2 6-3 14-4 6-1 7-1h7 6l6 1 4 1 5 3 3 3 1 4 1 6-1 6-3 7-3 9-5 9-12 18-8 10-7 10-8 9-7 9-8 9-7 8-12 14-4 6-5 10-1 5v3l2 4 3 3 4 3 6 2 6 3 8 1 7 3 8 1 8 3 8 2 7 2 6 3 6 2 5 3 3 3 3 4 1 3v4l-1 4-2 4-3 4-4 5-5 4-11 10-6 4-12 10-10 8-4 4-3 4-3 3-2 5 2 3 5 3 4 2 5 2 12 2 7 1 28 8 5 3 6 2 8 6 4 8 1 4v3l-1 5-2 4-2 5-8 10-18 15-7 5-8 5-7 4-8 5-8 4-8 5-7 3-9 4-9 3-9 2-22 7" style="clip-to-self:true;comp-op:src"/>
<path transform="scale(.1)" d="m943.75 7947.2-2 3v7 5 6 7l1 8v10 10 11 12 12l-1 13v13 64 10l1 10v10l2 14v5l1 4v3 3l-2-3-2-6-1-4-3-4-1-6-4-12-2-7-2-8-1-8-2-20v-11l1-12 1-13 1-14 3-15 4-15 10-34 7-16 7-17 9-15 9-14 10-13 10-10 10-8 10-6 10-5 9-3 8-1h8l6 1 6 3 4 4 3 5 1 7v8l-1 8-2 10-3 10-10 22-14 22-8 11-9 11-8 10-18 18-9 7-7 6-8 6-7 4-6 3-5 2-4 1h-3l-3-1-2-6v-3l6-12" style="clip-to-self:true;comp-op:src"/>
<path transform="scale(.1)" d="m1238.4 7896.2-1-5-2-3-4-4-3-1-5 3-3 3-2 3-4 5-5 5-4 7-5 7-5 9-5 8-5 10-5 9-5 10-4 10-6 22-4 22v11 11l1 9 6 18 4 7 5 7 6 5 6 6 14 8 8 3 8 2 7 1 8 1 7-1 19-4" style="clip-to-self:true;comp-op:src"/>
<path transform="scale(.1)" d="m1373.4 7921.6-4 6-2 4-2 5-2 6-2 7-3 8-2 8-2 9-3 9-3 10-2 10-3 10-3 11-4 22-2 10-2 11-2 10-1 10-2 16-1 6v6 3l1 5 3-2 5-10 2-5 2-6 2-7 3-7 6-16 6-20 4-12 3-11 8-24 4-13 15-36 6-10 5-8 6-8 9-9 4-3 4-1h3l3 2 5 5 2 5 2 4 2 6 2 14 4 16 1 9 2 9 1 10 1 9 2 10 2 11 2 20 2 10 3 10 2 9 3 8 2 8 3 7 3 6 2 5 7 7 4-6" style="clip-to-self:true;comp-op:src"/>
<path transform="scale(.1)" d="m1355.6 8088.4-1-3 3-3 4-3 3-3 4-2 4-3 6-3 6-4 7-3 18-8 9-5 19-9 10-4 20-11" style="clip-to-self:true;comp-op:src"/>
<path transform="scale(.1)" d="m1513.1 7916.2 1-3 3-3 3-1h4 4 7l7 2 7 1 7 3 8 3 8 5 9 5 7 7 8 7 7 9 6 9 5 10 5 12 3 11 3 13 2 13 1 13v15l-1 13-2 14-3 13-8 22-4 9-5 9-6 8-5 6-6 5-5 4-5 3-6 2-6 1-6-1-12-3" style="clip-to-self:true;comp-op:src"/>
<path transform="scale(.1)" d="m1735 8010 3-4 5-4 4-2 5-2 6-1 6-2 7-1h7l7-1h6l6 1 5 1 8 4 2 3 3 3 2 3v3l-2 9" style="clip-to-self:true;comp-op:src"/>
<path transform="scale(.1)" d="m1730 8061.2-4 3-3 2-3 3-1 3 4 1h7l4-1h6l6-2 8-2 8-1 9-2 9-3 9-2 8-3 8-2 21-7" style="clip-to-self:true;comp-op:src"/>
<path transform="scale(.1)" d="m2228.8 7900.9-3-4-2-3-1-3v-3-3l2-3 3-4 2-4 5-4 5-5 6-4 7-4 8-5 18-8 10-5 11-3 12-3 12-2 24-2 10 1 10 2 10 4 7 6 6 6 3 9 2 10v11l-2 11-3 13-5 14-7 13-7 14-8 15-18 28-10 13-9 14-20 24-9 10-9 9-8 9-6 7-5 7-5 6-2 6-1 5v5 4l2 4 3 4 5 3 10 4 8 2h8l7 1h8l8-1h23" style="clip-to-self:true;comp-op:src"/>
<path transform="scale(.1)" d="m2318.4 8198.4-4 3-6 4-5 5-4 8-2 5-1 6-4 12-1 7-3 20v7 7 7l1 6 2 5 3 5 3 3 4 3 5 2 6 2h6 8l16-4 8-3 9-3 8-4 7-3 8-5 6-4 5-4 4-5 4-4 2-4 2-5 1-5v-4l-1-5-2-5-2-4-12-12-6-2-6-1-7-1h-7l-8 1-18 4-9 4-10 3-8 4-9 5-8 4-8 5-7 4-14 11" style="clip-to-self:true;comp-op:src"/>
<path transform="scale(.1)" d="m5589.7 8022.2-1-5v-5-6l-2-10-1-3-3-5-2-3-3-3h-4l-3 1-5 4-2 3-2 4-4 5-2 6-3 7-3 8-6 18-4 10-4 11-4 12-8 22-8 24-4 11-6 20-3 8-2 7-3 7-1 5-2 4-1 3-2 4-1-5 1-4 2-4 1-5 2-6 2-5 3-7 2-7 9-24 3-9 3-10 16-36 3-8 4-8 4-6 8-10 3-3 4-2 4-1h4l3 1 4 1 4 2 4 3 8 8 5 6 4 5 5 6 10 14 12 16 5 8 7 8 5 9 13 17 6 9 6 8 6 7 5 8 5 6 4 5 11 11 4 3 3 1 1-4 1-3v-61-9l1-11 1-10 3-11 4-24 9-36 3-11 3-9 4-7 5-10 3-2 3-1 5 2 3 3 2 4 3 4 4 12 2 7v7l2 17" style="clip-to-self:true;comp-op:src"/>
<path transform="scale(.1)" d="m5818.1 8067.5 6-6 8-6 6-3 5-2 6-3 7-1 8-3 8-2 8-1 8-2 8-1h8 6 6l6 1 4 1 3 1 3 2-2 7" style="clip-to-self:true;comp-op:src"/>
<path transform="scale(.1)" d="m5802.8 8113.4-4 2-3-1 3-1h3l4-1 10-2 5-2 7-1 21-6 9-2 8-1 18-4 10-1 18-4 8-2 24-9" style="clip-to-self:true;comp-op:src"/>
<path transform="scale(.1)" d="m6056.2 7987.8v-3-11-4l3-6 3-3 4-3 4-4 12-6 7-4 8-3 16-5 17-4 7-1h7l10 2 3 3 2 8-1 7-2 7-4 9-4 10-6 10-7 11-7 12-8 12-15 25-7 11-8 11-5 11-6 10-3 10-4 8-1 8v7 6l1 6 3 4 3 5 3 4 4 4 10 6 6 2 6 1h6 15" style="clip-to-self:true;comp-op:src"/>
<path transform="scale(.1)" d="m6101.6 8250.3-5 4-4 3-3 2-5 7-3 4-3 5-2 6-3 5-3 6-3 7-5 13-2 7-1 7-2 7v6l1 6 1 5 2 5 3 5 4 3 5 4 5 2 6 2 5 1h7l12-2 6-2 10-6 4-3 3-4 4-3 2-5 1-4v-5-6-5l-2-12-1-7-4-12-2-5-2-4-4-3-4-2h-6l-6 1-8 1-21 8" style="clip-to-self:true;comp-op:src"/>
</g>
</g>
</g>
</svg>
