<?xml version="1.0" encoding="UTF-8"?>
<svg width="1e3pt" height="1500pt" version="1.2" viewBox="0 0 1e3 1500" xmlns="http://www.w3.org/2000/svg">
<g id="surface80">
<rect width="1e3" height="1500" fill="#20282d"/>
<g fill="none" stroke-linecap="round" stroke-linejoin="round" stroke-miterlimit="10">
<g stroke="#fff" stroke-width="14.1">
<path transform="scale(.1)" d="m3977.5 343.12-6-3-2-2-3-1-4-1-2-1h-8l-8 2-5 1-5 3-6 3-7 5-7 6-8 8-8 9-10 11-20 26-10 15-11 17-9 17-10 18-8 18-8 19-7 19-6 19-5 18-4 19-3 18-2 18-1 17v17l2 14 2 13 3 12 6 10 5 9 7 6 9 6 9 5 12 3 12 2 13 2h13l27-1 13-2 12-2 11-2 10-3 9-2 8-3 7-3 6-3 5-2 3-3 2-3 2-5-1-3-5-6" style="clip-to-self:true;comp-op:src"/>
<path transform="scale(.1)" d="m4058.1 595.62-2-3-4-1h-4l-4 5-2 4-2 5-2 6-3 7-2 9-2 8-1 9-2 10-2 20v10 9l2 9 2 8 2 7 3 6 10 8 5 3 6 1h5l7-1 14-6 6-4 7-5 12-14 4-8 5-9 6-20 4-22v-11-12l-2-22-4-20-2-8-3-7-4-6-3-4-6-2-4-2-6 1-7 3-6 3-7 5-6 6-6 7-5 9-4 8-3 9-2 9-1 9v9l4 16 3 6 4 5 4 3 14 4" style="clip-to-self:true;comp-op:src"/>
<path transform="scale(.1)" d="m4195.6 564.38-4 1-4 5-2 3-1 5-2 6-2 7-1 7-2 9v10l-2 11-1 11-3 39-1 12v12 11l1 10 1 9 1 8 1 7 2 5 2 4 2 2 4 3 4-1 4-6 5-9 3-7 2-7 2-8 3-10 3-11 2-11 3-13 4-12 4-14 10-24 4-10 5-10 4-7 4-5 3-4 2-2 4-1 2 5 1 5 2 12v8l1 9v9l1 9v10l1 10 2 18 1 8 1 7 2 11 2 4 2 3 3 2 5 1 3-1 3-2 8-8 8-12 4-7 4-9 4-10 3-10 4-11 7-22 4-10 3-8 7-14 2-5 2-3 3 4v6l1 7v31 13l1 27 1 15 1 13 2 14 2 13 3 12 3 11 3 9 5 9 5 6 5 4 6 4 14 2 17-5" style="clip-to-self:true;comp-op:src"/>
<path transform="scale(.1)" d="m4483.8 589.38v-7l2 6 1 4 1 5v7l1 8 1 10 1 11v14l1 14v15 33 17l-1 16v17l-2 16v16l-1 15v15 35 9 6l1 5v4 4l2-6v-23l-1-8-1-9-1-10v-11l-2-12-1-13-1-14-1-17v-18l1-19 1-22 3-21 3-23 4-20 5-19 4-16 5-14 5-10 5-7 4-5 4-3 4-1 4 2 7 7 4 6 4 7 3 7 4 8 3 9 2 10 1 11 1 10-3 36-2 12-3 12-3 11-4 10-3 9-4 8-4 7-3 7-6 8-2 2-5 2-3-1-3-5-1-4-1-5v-16" style="clip-to-self:true;comp-op:src"/>
<path transform="scale(.1)" d="m4672.8 438.12-1-5-3-4-2-2-2 5-2 10-1 8-1 9-1 11-1 13-1 14v16l-2 18-1 19-4 42-2 46v43l1 18 3 16 3 13 3 11 6 8 6 5 7 3 8 1 9-1 11-3 10-5 11-6 10-8 10-9 10-10 10-12 8-13 7-15 12-32 5-16 6-30 2-14 1-11-1-10-1-7-3-6-3-3-6-2h-6l-6 1-8 3-7 4-8 5-7 6-14 16-6 10-5 10-5 12-4 13-3 15-4 28v14l1 12 2 12 3 11 4 9 6 8 7 6 8 6 9 4 18 4 10-1 9-1 21-6" style="clip-to-self:true;comp-op:src"/>
<path transform="scale(.1)" d="m4871.6 570.94v-3l2-7 1-3 2-4 4 2v3l1 4v6 14l-1 10v10l-1 12-2 26v14l-1 13-1 14-1 12v12l-1 10v10l-1 8v7 6l-1 4v4-5l1-4v-4l2-14 1-8 2-9 1-11 2-11 2-13 3-13 3-14 4-15 5-14 4-14 6-12 5-11 6-8 5-6 4-5 4-2h6l4 8 1 7 1 8 1 9v24l-1 13-2 14v15l-2 15-1 14-1 13-1 14-2 22-1 8v12l1 3 2 3 4-3 3-4 3-5 3-8 4-8 4-9 5-11 5-12 4-12 10-27 5-13 5-11 4-10 3-8 3-6 3-4 2-3 1 5 1 4 1 5v6l2 12 2 7 1 8 6 24 3 7 3 9 4 7 6 14 4 6 3 6 3 5 3 3 4 8" style="clip-to-self:true;comp-op:src"/>
<path transform="scale(.1)" d="m5090.6 669.69 3 1 4-1 4-4 3-2 4-4 3-4 3-5 4-5 3-5 4-6 6-12 4-12 2-7 1-6v-6-10-4l-1-4-2-3-4-3-4-1-3 1-3 2-3 3-3 5-4 4-2 7-4 8-3 9-2 11-3 11-2 12-1 13-2 13-1 12v11 11 9l2 8 2 6 4 6 3 4 4 3 10 4h5 6l5-1 5-2 6-2 5-3 10-8 4-5 8-12 2-7 3-8 6-20 2-11 3-12 2-13 3-13 6-24 3-10 3-7 2-7 2-4 1-3 3-3 2 5 1 3 2 10v7 8 10 9l-1 11v11l-1 11v11 11 10l-1 9v16l1 5v5l1 2 3 3 3-1 5-4 2-4 3-4 2-6 4-5 3-7 3-8 4-8 4-9 5-10 4-10 6-10 5-10 6-10 6-9 7-8 5-7 6-5 5-3 4-3 4-1 5 2 2 3 1 4v7l1 6-1 9v9l-1 10v11l-2 25-1 12-1 11v11l1 11 1 9 2 9 3 7 3 6 4 5 4 3 5 1 5-1 5-2 5-4 5-6 12-17" style="clip-to-self:true;comp-op:src"/>
<path transform="scale(.1)" d="m5457.8 420.94-3 2-4 6-2 4-1 6-2 6-1 7-2 16-2 20-1 11-1 12v12 94 19l1 20 1 19v18l1 17 1 16 1 14 1 13 1 10 2 9 1 7 2 5 1 3 4 1 4-10v-6l1-8-1-24" style="clip-to-self:true;comp-op:src"/>
<path transform="scale(.1)" d="m5425.6 552.81 4 1h6 3 4l5-1h6l6-1 7-1 8-2 9-1 10-3 11-2 12-3 12-2 12-3 22-4 9-2 8-1 5-2 4-3" style="clip-to-self:true;comp-op:src"/>
<path transform="scale(.1)" d="m3787.8 894.38 1 4 4 2 3 1 4 1 6 1h6l7 1 9 1h39l16-1h18l18-1h20l22-1 21-1 24-1 50-2 26-1 26-2 54-2h27l27-1h51l23 1h22l19 1 17 2 15 1 14 2 11 2 9 1 8 2 5 1 4 2 4 1 2 3-2 3h-4l-5-4" style="clip-to-self:true;comp-op:src"/>
<path transform="scale(.1)" d="m4574.4 900.94-6-4h4l6 1 4 1 14 2h9l11 1h13l15 1h16 20l21-1h25l26-1 29-2 31-2 32-2 34-2 35-1 35-2 35-1 34-1 33-2 33-1 30-1 31-1 28-1 29-1 81-3h26 24 119 13 12l10 1h8l6 1 5 1 4 1-3-2" style="clip-to-self:true;comp-op:src"/>
<path transform="scale(.1)" d="m4200 1220.6 2-6v-4l2-7 6-16 2-4 1-4 1-3 2-5 2-3-4 4-2 4-2 5-4 8-4 9-5 11-5 12-7 16-7 17-6 19-14 42-14 44-6 21-6 20-5 18-5 16-4 15-4 14-4 12-3 10-4 14-2 8v2l2-5 2-4 4-10 2-7 4-8 3-8 3-10 5-11 4-12 4-14 6-15 4-17 6-19 12-44 7-24 7-22 8-21 7-19 7-17 18-36 5-9 5-6 3-4 2-3 4-3h3l2 4 2 5 2 4 1 5 2 6 1 8 2 9 2 10 2 13 2 14 2 16 2 18 5 58 2 17 3 17 2 15 2 14 2 13 3 11 2 10 3 9 2 8 4 12 1 4 2 3 3 5 3 1 3-1 2-5 1-3v-4-4l-3-13" style="clip-to-self:true;comp-op:src"/>
<path transform="scale(.1)" d="m4137.8 1409.4 3-3 3-2 10-6 7-3 8-3 9-4 10-3 11-3 10-3 11-3 12-2 22-4 10-2 9-1 8-2 13-3" style="clip-to-self:true;comp-op:src"/>
</g>
<g stroke-width="14.1">
<path transform="scale(.1)" d="m4386.2 1057.2v-3l-1-3v-3l3 3 1 7v4 6l1 7v7 8l1 9v9l1 9 1 10 1 9 2 17 1 7 4 14" stroke="#00c0ff" style="clip-to-self:true;comp-op:src"/>
<path transform="scale(.1)" d="m4952.2 1160.3-2-7-2 5v3 5l-1 5-1 7-1 8-3 8-1 10-3 12-3 13-3 14-4 15-4 16-8 34-4 16-5 15-4 14-3 12-3 10-3 9-3 8-2 7-1 6-1 5-1 4v4l-1 3v7l2-5 1-5 1-4 2-10 2-5 2-6 2-7 4-16 3-10 6-24 3-14 7-30 3-17 3-16 4-17 3-16 5-16 4-15 4-13 3-11 4-9 4-8 3-5 2-4 3-3 3-1 4 1 5 4 2 3 2 4 2 5 2 6 2 7 2 8 3 10 2 11 3 12 3 13 3 14 4 15 3 16 3 18 4 18 6 34 3 16 3 15 3 13 3 11 4 11 3 9 4 8 3 7 3 6 3 5 3 4 1 3 2 2 4 3h3l1-3-1-5-1-4-2-4-7-10" stroke="#fff" style="clip-to-self:true;comp-op:src"/>
<path transform="scale(.1)" d="m4927.8 1374.7-3-3-4-3-5-3-3-2 5-2 6-2 10-3 7-2 8-2 9-3 9-2 9-3 20-6 9-3 9-2 12-6 3-2 3-1" stroke="#fff" style="clip-to-self:true;comp-op:src"/>
<path transform="scale(.1)" d="m5242.5 1078.4-6-3-5-5-4-2h-4l-4-1h-11l-6 1-6 2-4 1-3 1-3 2-4 3-3 2-4 3-4 4-8 7-3 5-9 9-5 6-4 5-4 6-4 5-7 12-3 5-2 5-3 5-1 4-2 5v4l-1 3 1 4v3l2 3 3 6 3 2 6 6 4 2 4 3 4 2 10 4 4 1 5 1 5 2h6l6 1h4 6 5 5l10-2 4-1 5-1 4-1 3-1 5-1 4-2 6-2h4l8-2h4l9-3-3 1h-7l-5-1-9-1" stroke="#00c0ff" style="clip-to-self:true;comp-op:src"/>
</g>
<g stroke="#fff">
<g stroke-width="14.1">
<path transform="scale(.1)" d="m1220.6 1917.5-1-4-4-10-3-2-6 6-2 4-4 10-2 7-3 8-3 9-3 10-3 12-4 13-4 15-4 16-5 19-4 18-5 20-6 20-5 19-5 18-4 16-5 15-4 13-4 11-3 9-3 8-3 5-1 5-2 3-2 2v-3l1-3 1-5 1-7 2-7 2-9 2-10 3-11 2-12 6-28 3-17 4-18 4-19 5-21 6-20 12-42 7-20 6-19 7-17 6-16 5-13 9-18 4-5 2-3 4-1 4 6v5l2 6 1 7 1 8 2 18 1 19 1 10 2 11 1 11 2 11 3 11 2 13 3 12 3 14 3 13 3 15 6 28 2 14 2 12 2 13 2 11 4 18 1 7 1 6 2 4 1 3 3 4 3-2 1-6v-5l-1-15" style="clip-to-self:true;comp-op:src"/>
<path transform="scale(.1)" d="m1140.9 2085 1-5 4-5 8-6 5-4 6-3 7-4 8-4 9-4 10-3 11-4 12-4 11-3 12-3 12-2 11-3 11-2 10-3 23-7" style="clip-to-self:true;comp-op:src"/>
<path transform="scale(.1)" d="m1397.8 2015 4-3 3-3 3-1 5-2 10-2 6-1 15-1 8-2 8-1h7l6-1 11-1" style="clip-to-self:true;comp-op:src"/>
<path transform="scale(.1)" d="m1404.7 2083.8h3l6-1 8-2 5-1 12-4 7-1 7-2 8-2 7-2 8-2 7-2 8-3 6-2 14-7" style="clip-to-self:true;comp-op:src"/>
<path transform="scale(.1)" d="m1834.7 1812.8 1-5 1-4v-5-5-4l-2-2-4-5-6-2h-4-5l-5 1-6 1-7 3-6 3-8 3-8 5-8 6-9 6-18 16-8 8-7 8-5 9-4 9-3 8-1 9 1 7 2 8 3 7 5 7 5 6 7 6 6 5 7 6 7 3 7 5 14 6 11 6 5 4 5 3 3 4 2 5 1 5-1 5-1 7-2 6-3 7-4 7-10 14-6 7-7 6-13 13-7 5-7 6-7 5-6 5-12 12-1 3-1 5 4 3 3 2 4 1 5 1 16 4 5 1 6 2 5 2 5 3 4 3 4 2 3 4 3 3 1 5 1 4v7l-1 6-1 7-3 6-2 8-4 7-5 8-4 7-5 8-15 21-4 5-4 6-3 4-2 4v4 3l4 4 4 1h5 7 7l8-2 10-3 10-2 11-3 11-4 11-3 12-4 22-6 10-3 9-1 8-3 7-1 8-2" style="clip-to-self:true;comp-op:src"/>
<path transform="scale(.1)" d="m1975.3 1951.9v-4-6l-2-4-2 2-3 7-2 4-2 6-2 7-4 16-1 10-2 9-1 10v21l1 11 2 18 1 8 2 6 7 15" style="clip-to-self:true;comp-op:src"/>
<path transform="scale(.1)" d="m2088.4 2121.2-1 4-2 6-1 4-2 5-4 14-1 7-2 7-2 8-2 7-4 15-2 6-3 5-6 13" style="clip-to-self:true;comp-op:src"/>
<path transform="scale(.1)" d="m2222.5 1948.1v-5-3l4-5 3-2 4-2 6-2 5-1 6-1 10-2h5l3 1 4 1 6 4 4 8v5 6l-1 7-3 7-3 9-4 10-6 10-14 22-24 33-7 10-7 9-6 9-5 8-4 8-6 14-1 5v6l1 3 2 4 2 3 4 2 5 1 12 2h7l8-1 9-1 24-3 14-2 5-1 4-1h4" style="clip-to-self:true;comp-op:src"/>
<path transform="scale(.1)" d="m2400 2116.2-3 1-4 3-2 3-3 5-3 4-4 6-3 7-5 7-4 8-10 17-5 10-4 9-5 10-3 9-4 9-3 9-3 8-3 7-2 4-2 5-3 5" style="clip-to-self:true;comp-op:src"/>
<path transform="scale(.1)" d="m2584.1 1940.3-4-1-2-2 3-3 4-3 3-2 4-1 10-4 12-4 14-2 6-1h14l5 1 6 1 5 1 4 2 3 2 5 5 1 4v4 3l-4 8-3 5-3 4-5 5-5 4-6 5-7 4-6 4-7 4-7 5-12 6-5 3-5 2-3 3-3 2-2 2 4 3h3l4 1h5 7l6 1h15 7l7 1 7 2 6 2 5 3 4 3 3 4 1 5 1 6-1 6-2 7-3 8-5 9-6 8-6 9-16 18-9 9-10 8-30 21-11 6-11 5-20 8-10 3-9 2-8 2-8 1h-6l-5-2-4-2-3-3-2-5-1-5 2-16" style="clip-to-self:true;comp-op:src"/>
<path transform="scale(.1)" d="m2768.1 1872.8-1-4v-7l1-4 4-8 10-8 6-4 8-4 8-5 10-5 20-8 33-12 22-6 10-1 9-2 9-1 14 2 5 2 4 2 2 4 1 4-1 6-2 6-4 7-5 8-8 8-7 9-27 27-18 17-9 7-7 8-6 7-5 5-4 6-3 5-2 4v5l1 4 2 3 8 6 5 2 12 4 7 2 7 1 7 2 7 1 7 2 10 4 8 6 2 3 1 5-1 4v5l-3 6-4 6-4 7-6 6-6 7-7 8-6 6-8 7-6 8-12 11-5 6-3 5-3 4-1 4-1 3 3 5 2 2 4 1 5 1 5 2h5l13 3 12 4 10 4 4 3 3 3 2 4 1 5v4l-2 6-2 7-4 7-6 6-6 8-7 7-8 7-9 7-9 5-10 6-20 10-11 4-10 3-9 3-9 2-8 2-7 2h-7l-6 1-6-1-10-7" style="clip-to-self:true;comp-op:src"/>
<path transform="scale(.1)" d="m4186.6 1930.9 1-7 1-6 2-9 1-8v-7-6-4l-1-4-4-6-3-2h-4-4l-5 1-5 3-6 3-8 5-15 15-8 9-8 10-8 11-8 12-7 11-6 11-5 10-3 10-2 10v9l1 9 2 7 5 8 6 7 7 6 8 6 9 5 9 6 10 6 8 5 8 6 8 5 12 12 3 6 1 6v6l-1 7-4 7-5 7-7 7-7 6-7 7-9 5-8 5-10 4-8 3-9 2-9 1-8 1-8-1-7-1-7-2-5-2-4-5-2-4-1-7 5-19" style="clip-to-self:true;comp-op:src"/>
<path transform="scale(.1)" d="m4266.2 2015.9 1 3-3 9-4 10-3 5-3 7-2 6-4 6-2 5-3 6-2 12v6l2 10 3 4 4 3 5 3 6 2h6 8l9-2 8-2 9-3 10-4 9-4 8-6 14-10 6-6 8-12 2-12v-7l-4-14-3-7-4-8-5-6-4-6-5-5-12-6-7-2h-6-8l-7 2-6 3-7 3-6 4-4 5-4 4-3 5-1 4 2 9" style="clip-to-self:true;comp-op:src"/>
<path transform="scale(.1)" d="m4490.6 1995.9-6-10-3-4-2-4-3 1-3 12-2 12-1 7-1 8v8 9l-1 9v9 39 8l1 7 1 6 1 5v4l2 4 4 1 2-4 2-3 4-8 4-10 2-7 3-6 6-14 8-16 5-8 12-16 12-12 5-4 5-3 4-1h3l4 4 2 3 1 5v6 6l1 8-1 7v25l1 8v7l1 7 1 6 2 4 2 3 2 2 6 2 4-1 10-6 7-3 6-6 7-5 14-12 20-20 5-7 6-6 4-6 4-5 4-4 2-3 3-3v3l-1 3-1 4-3 4-1 12-1 5v7l2 12 2 6 6 10 5 4 5 3 5 2 7 2h6 7l7-1 8-3 7-2 8-4 14-8 12-10 5-6 4-6 6-14 1-7 2-8v-7l1-8-1-6v-6l-2-5-1-4-5-3-6 1-11 11-4 6-4 7-6 16-3 9-1 9-1 10v9l1 8 2 8 4 8 4 7 6 5 7 4 8 3 8 1h10l10-1 10-3 28-12" style="clip-to-self:true;comp-op:src"/>
<path transform="scale(.1)" d="m5241.6 2002.8 2-4 3-5 2-5 1-4 1-3v-4l-4 1-6 4-3 5-5 4-4 5-8 12-4 7-3 8-2 7-3 7-1 7v6l1 7 2 5 6 8 5 3 5 2h6 7 7l21-6 14-6 6-3 10-6 3-4 3-3 1-4v-3l-1-4-2-3-3-4-8-8-6-5-4-4-12-8-10-6-8-4-3-1h-4l-4 1-2 2 4 3" style="clip-to-self:true;comp-op:src"/>
<path transform="scale(.1)" d="m5433.1 1830.9 1-5v-4l1-5v-3l2 5-1 5v7l-1 7-1 10-1 11-2 12-2 14-1 16-2 16-4 34-1 17-2 16-1 17v15l-1 16v26l1 12v9l1 8 1 5 2 4 3 2 2-4v-3l-2-12" style="clip-to-self:true;comp-op:src"/>
<path transform="scale(.1)" d="m5354.4 1984.1 1-4 8-8 5-3 6-3 7-4 8-4 9-5 9-6 11-7 10-7 11-7 12-8 11-9 25-18 24-18 11-8 11-7 9-7 9-6 7-4 4-3 4-1 3 1v3 5l-2 6-2 8-3 11-4 11-4 14-5 15-4 15-5 16-5 15-4 15-3 14-3 13-3 12-1 11v9 8 7l1 6 2 4 2 3 4 2 6-1 4-1 4-2 4-4 4-3 5-5 4-5 5-5 5-6 5-5 5-6 10-10 4-5 5-4 8-6 2-2 5-1 3 5v8l-1 5-1 13v7l1 6 1 7 1 6 2 5 4 6 3 4 5 4 5 2 6 2 8 1h7l9-2 10-1 10-3 10-4 20-9 10-6 9-6 8-7 14-16 5-10 5-9 4-10 3-10 2-9 2-14-1-5-1-3-6-1-4 1-5 4-5 5-6 7-12 18-6 11-6 10-4 11-5 11-4 10-3 10-2 10v9 8l1 7 2 7 3 4 4 3 5 2 5 1h6l6-1 7-2 8-4 8-3 16-10 7-6 8-7 7-7 8-7 6-7 14-14 5-6 15-15 4-3 4-2 3-1 5 1 5 5 2 3 2 5 1 5 4 12 1 6 2 14 1 8v16l-3 24v7l-2 6-1 6-1 4-2 3-3 3-4-1-1-6 1-5 2-5 2-7 4-7 5-9 5-8 7-9 8-10 9-11 10-11 11-13 12-13 14-14 13-14 29-27 14-12 27-21 11-8 21-14" style="clip-to-self:true;comp-op:src"/>
<path transform="scale(.1)" d="m6490.3 2008.1 2-5 3-5 3-7 2-7 2-6v-7l2-6v-6l-2-10-2-5-2-4-7-7-4-3-5-1-14-2-7 1-9 1-9 2-10 4-10 5-10 6-11 6-20 14-8 7-7 8-5 8-2 7-1 7 1 7 4 7 6 6 8 7 9 6 11 7 11 6 12 7 22 12 10 6 8 7 7 6 5 7 4 6 3 6 1 7-1 6-2 5-4 6-12 10-16 8-9 3-9 2-10 2h-9-9-9l-9-1-8-2-14-8-5-5-7-14" style="clip-to-self:true;comp-op:src"/>
<path transform="scale(.1)" d="m6510.9 2097.2 4 2 3 2 3 1h7l10-2 12-4 7-2 7-3 8-4 7-4 8-5 8-4 7-5 7-6 6-5 5-6 8-10 2-5 2-10-1-5-1-4-2-4-2-3-4-2-4-1h-6l-5 1-12 6-7 4-6 5-5 6-6 6-5 7-8 16-3 8-2 9v8 8l2 6 3 7 4 5 5 4 6 4 6 1 9 1h8 9l10-2 11-3 22-8 11-5 20-13 9-7 10-8 8-8 7-8 6-9 6-10 4-10 3-11 3-12 1-13 1-12v-14l-1-14-2-13-2-11-1-11-2-9-3-6-2-5-2-3-3-1-3 2-2 5-2 6-3 7-2 10-3 10-6 24-2 13-2 14-3 15-2 15-2 16-4 31-1 17-2 31-1 13v12 11l-1 8v7 5 4" style="clip-to-self:true;comp-op:src"/>
<path transform="scale(.1)" d="m6630.3 2040 2-2 4-1 4-2 9-3 8-4 5-1 6-2 6-1 8-2 7-2 9-2 8-2 18-4 24-6" style="clip-to-self:true;comp-op:src"/>
<path transform="scale(.1)" d="m6898.1 1997.2v-4l-3-4-4-2-3-1-4-1h-4-9-5l-6 1-5 2-6 2-5 2-10 6-5 4-3 4-3 5-2 5-1 4 2 10 3 4 3 5 5 5 10 9 7 5 6 5 6 4 7 5 6 4 5 5 5 4 4 5 3 4 2 5v5l-1 5-2 4-4 5-6 4-5 5-8 4-7 4-18 6-8 2-9 1-8 1h-8-8l-7-2-6-2-6-4-3-5-3-4-1-17" style="clip-to-self:true;comp-op:src"/>
<path transform="scale(.1)" d="m7228.8 2165.3 2-3 2-2 4-6 7-7 4-5 5-5 5-6 4-7 5-6 15-24 4-9 8-20 6-22 3-12 4-27 1-14v-15-16-15l-1-14-2-12-2-10-2-7-3-5-4-3-4-1-3 1-5 3-4 4-5 6-3 8-5 10-4 12-4 13-8 30-3 18-4 17-4 18-2 19-2 18-2 19v17 16l2 15 3 12 3 10 4 9 5 7 5 5 6 2 6 1h7l7-1 8-3 7-5 8-5 8-6 7-7 6-7 7-9 10-18 5-10 3-10 4-9 3-10 2-8 1-7 1-6 1-4 1-3-2 3-1 4-1 6v6 8l-1 8v8l1 9v8l1 7 2 8 6 12 4 5 3 4 4 3 4 2h5l4-1 11-7" style="clip-to-self:true;comp-op:src"/>
<path transform="scale(.1)" d="m7428.1 2011.2 3 3 3 2 6 2" style="clip-to-self:true;comp-op:src"/>
<path transform="scale(.1)" d="m7517.8 1861.2v-3l-3 5-2 6-1 8-1 9-2 11-3 13-2 13-2 15-2 14-3 16-2 15-3 16-3 15-2 16-2 15-2 30-1 14v14l1 11 1 10 2 8 2 5 4 3 4 1 11-3" style="clip-to-self:true;comp-op:src"/>
<path transform="scale(.1)" d="m7615.3 1999.4-2-3h-3l-5 4-4 3-3 3-10 8-6 4-6 5-5 5-7 5-15 15-6 8-4 8v4 4l2 6 1 4 3 3 3 4 8 6 10 6 6 3 7 2 8 2 7 2 8 1 18 2h8l27-3 9-2 8-2 9-2 8-3 7-3 6-4 7-4 5-4 5-5 4-6 3-6 1-7 1-6v-7-7l-1-7-2-7-4-5-3-5-5-3-5-2-6-1-6 1-7 2-6 2-6 3-12 10-5 6-4 6-3 8-2 8-1 8v8l2 9 4 9 5 8 7 7 8 6 9 6 20 8 22 2h12l27-3" style="clip-to-self:true;comp-op:src"/>
<path transform="scale(.1)" d="m8086.6 1923.1v-4l1-4v-4-4l1-4v-3l1 5-1 4-1 6v7l-4 20-3 12-2 13-3 14-3 13-3 14-3 15-2 14-3 14-2 13-1 12-1 11v9 8l1 7 2 5 6 4 3-1 4-2 10-9" style="clip-to-self:true;comp-op:src"/>
<path transform="scale(.1)" d="m8075.9 1976.6-3-4-4-5-2-4v-4l3-5 3-4 3-3 5-4 5-3 7-4 8-4 9-4 11-3 11-4 26-4 14-3 14-1h13 13l11 2 10 2 8 4 6 5 3 6 2 6-1 9-3 8-4 9-6 10-8 9-9 9-10 9-11 9-11 8-11 7-11 6-10 6-11 4-9 4-9 3-8 3-6 2-5 1-4 1h4l5-1 7-1 8-1 9-1h10l22-2h12 11l11 1 10 1 9 3 8 3 5 3 5 5 1 4 1 6-1 5-2 6-10 12-7 6-7 5-8 5-9 5-10 3-9 4-9 2-10 3-9 1-20 1-9 1-9-1-16-2-7-1-6-2-5-2-6-6v-3l1-3 3-4 14-11" style="clip-to-self:true;comp-op:src"/>
<path transform="scale(.1)" d="m8328.4 2085.9-1 2-3 5-2 4-1 4-3 4-1 5-3 5-2 5-3 5-1 6-2 6-4 11v6 4 13l5-1" style="clip-to-self:true;comp-op:src"/>
<path transform="scale(.1)" d="m8503.8 1944.1-3-3-4 3-1 3-1 4-2 5-2 14-3 17-1 10-2 10-1 10-2 11-3 31v10 40l-1 4v4l-1 3" style="clip-to-self:true;comp-op:src"/>
<path transform="scale(.1)" d="m8470.6 1978.4 3-4 4-3 4-5 6-5 6-4 7-5 7-4 16-6 18-4 20-2h10l10 1 9 1 9 2 8 3 7 4 5 5 4 7 2 7v9l-1 10-4 10-4 12-6 11-7 12-9 12-24 36-9 10-7 9-7 8-6 7-5 5-5 3-4 2-3 1h-3l-4-1-7-7" style="clip-to-self:true;comp-op:src"/>
<path transform="scale(.1)" d="m8682.2 2076.2v3l-2 6-4 8-8 10-8 12-11 13-10 14-4 6-5 7-4 7-3 6-3 5-2 5-6 9" style="clip-to-self:true;comp-op:src"/>
<path transform="scale(.1)" d="m8837.5 1976.9-1-4-2 3-1 3-1 4-1 5-2 5-1 6-2 7-2 9-2 8-2 9-1 9-2 9-1 10v9 10l2 18 2 9 2 7 8 14 5 4 6 4 7 2 8 1h8 8l9-2 9-3 16-8 8-5 17-16" style="clip-to-self:true;comp-op:src"/>
<path transform="scale(.1)" d="m8855 1966.2v-3l3-2 10-3 4-1 10-2 13-3h7l9-1 8-1h9 10l8-1h8l7-1h6 3" style="clip-to-self:true;comp-op:src"/>
<path transform="scale(.1)" d="m8870 2015.9-2 3h5l3-1 8-2 18-6 7-2 8-2 21-6 18-4" style="clip-to-self:true;comp-op:src"/>
<path transform="scale(.1)" d="m9047.5 2116.6v4 3l-1 4-1 5-2 6-3 7-4 7-4 8-5 8-6 9-7 9-6 9-12 16-5 7-6 6-4 5-4 4-2 3-4-3 1-11" style="clip-to-self:true;comp-op:src"/>
</g>
<path d="m915.56 212.03 0.15625-0.34375" stroke-width="1.41" style="clip-to-self:true;comp-op:src"/>
<g stroke-width="14.1">
<path transform="scale(.1)" d="m9256.2 2134.7v-4-3l2-2" style="clip-to-self:true;comp-op:src"/>
<path transform="scale(.1)" d="m9416.2 2134.7h4 3l1 3-4 3-4 1-4 2-5 1-13 3" style="clip-to-self:true;comp-op:src"/>
<path transform="scale(.1)" d="m3076.2 2699.7 1-3v-4l-1-4-2-3-3 3-2 5-1 4-1 5-1 6-2 16-1 10v12l-1 12v13l1 13 1 14 4 28 2 13 3 12 3 11 4 9 5 9 4 7 5 5 6 4 6 3 6 2h7 6l7-2 6-2 7-2 5-4 7-3 5-4 15-15 5-7 4-6 4-7 4-8 8-18 7-22 3-12 4-13 3-14 4-15 4-16 2-16 4-16 3-15 2-14 3-13 2-10 1-7 1-5v-3l-3 11-2 7-6 27-2 20v10l-1 11v31l1 11v11 10l2 9 1 9 4 16 3 7 2 7 4 7 6 12 4 5 6 8 2 2 2 3" style="clip-to-self:true;comp-op:src"/>
<path transform="scale(.1)" d="m3405.6 2741.6 2-2 5 1h6l4-1h5l5-1h6 6l6-1 7-1h7l12-2h5l3-1h6" style="clip-to-self:true;comp-op:src"/>
<path transform="scale(.1)" d="m3414.4 2805.9 1 3 3 3h5 3l4 1 4-1h5l5-1 14-2 16-2 32-8 15-8" style="clip-to-self:true;comp-op:src"/>
<path transform="scale(.1)" d="m3871.2 2576.2 1-4v-16l-2-8-3-5-5-3-2-1h-4l-4-1-4 1h-6l-5 2-6 2-14 8-8 5-8 6-8 8-7 8-14 18-6 9-4 10-3 9-2 10v8 9l1 8 3 8 8 14 6 7 18 15 7 4 14 6 6 3 7 3 5 2 6 3 4 3 6 6 1 5v4l-2 6-3 5-3 6-18 21-7 6-8 6-7 7-7 6-7 5-6 6-5 4-8 8-3 4-2 2-1 4 2 2 6 2h4l8 2h5l4 1 8 3 3 2 2 3 1 3 1 4-1 5-4 12-3 6-5 7-4 7-6 7-5 7-6 7-5 6-6 7-4 7-5 5-4 6-2 6-2 5-2 4v4l1 4 2 4 3 5 2 3 5 5 4 3 6 4 14 6 7 1 9 2h9 9 9l10-1 9-2 16-2 7-2 6-2 5-2 4-3 9-5" style="clip-to-self:true;comp-op:src"/>
<path transform="scale(.1)" d="m4040.3 2693.8-1-5-1-4-4 3-2 8-1 6-4 12-6 24-2 9-1 9-1 10v10 9l1 10 1 8 2 9 1 7 2 7 2 6 6 14" style="clip-to-self:true;comp-op:src"/>
<path transform="scale(.1)" d="m4142.5 2844.1v4l-2 6-1 5-2 5-2 6-4 14-3 8-2 8-3 8-2 8-4 14-1 5-2 5-1 4-1 3-1 4" style="clip-to-self:true;comp-op:src"/>
<path transform="scale(.1)" d="m4282.2 2729.7-1-4v-4l-1-4-1-5v-7l3-9 3-2 4-6 6-3 3-2 3-1 4-1h4l5 1 8 2 5 2 4 2 3 3 3 4 2 6 1 5v6l-1 8-3 7-3 9-4 8-10 18-7 9-6 9-14 16-6 8-6 7-6 6-5 7-5 5-6 10-4 8v3 3l3 5 3 2 4 2 5 2 5 1 6 1 6-1 5-1 6-1 5-2 5-1 10-5" style="clip-to-self:true;comp-op:src"/>
<path transform="scale(.1)" d="m4399.7 2829.4 1 5-9 12-3 5-4 6-9 14-4 7-5 8-5 9-5 8-8 16-4 7-6 12-5 11" style="clip-to-self:true;comp-op:src"/>
<path transform="scale(.1)" d="m4597.2 2728.1 1-4 2-3 2-5 3-4 8-8 6-3 6-4 6-3 7-2 6-3 6-2 6-1 6-2h5 5 4l6 4 1 3 1 4-1 5-2 6-4 6-5 7-7 8-24 24-19 15-18 14-8 5-7 6-7 4-4 4-4 3-2 4 2 2h4l4 1 6-1h7l7-1h8 9 8 7l8 1 7 1 6 3 5 2 6 8 1 4-1 5-1 4-3 6-4 5-10 12-7 4-15 11-7 4-7 5-21 9-10 4h-4-4l-6-1-2-8" style="clip-to-self:true;comp-op:src"/>
<path transform="scale(.1)" d="m4821.2 2839.4-3 4-3 5-2 4-2 5-3 5-6 14-4 6-9 14-5 7-5 6-4 6-5 6-5 5-6 4-7 4-6 3-18 6" style="clip-to-self:true;comp-op:src"/>
<path transform="scale(.1)" d="m5055 2700.9-3-2h-6l-3 1-3 2-4 2-8 7-12 10-19 19-21 24-6 8-5 8-6 7-3 7-4 6-2 7-1 5-1 4 1 4 3 4 4 3 4 2 7 2 7 1 9 1 10 1h12 23 13l11-1 12-1h11l10-1 9-1 8-1 6-1 5-2 5-1 3-3" style="clip-to-self:true;comp-op:src"/>
<path transform="scale(.1)" d="m5031.9 2732.5v5 5l2 10v5l2 14v8 8l1 9v9 9l1 9 1 10 1 9 2 9 2 18v8 19l3 9" style="clip-to-self:true;comp-op:src"/>
<path transform="scale(.1)" d="m5269.1 2831.9-1 4-1 3-2 3-3 5-3 4-4 6-5 6-5 7-6 7-6 9-5 8-6 8-5 10-5 8-4 8-6 14-3 6-2 6-5 10" style="clip-to-self:true;comp-op:src"/>
<path transform="scale(.1)" d="m5410.6 2703.1-1-8-2-3-3 3-3 4-2 5-8 12-4 7-5 8-4 8-5 9-4 8-4 9-4 7-2 8-2 7v6 6 5l2 5 2 3 5 4 5 2 12 2 8 1h7l8 1h8l8 1 8 2 7 1 6 2 6 3 7 7 2 4v5 5l-2 5-4 4-4 5-5 5-6 5-6 4-6 3-14 6-6 2-5 1-6 1h-6l-5-1-6-3-5-2-6-4-15-12" style="clip-to-self:true;comp-op:src"/>
<path transform="scale(.1)" d="m5441.2 2695 4-1 3-2 6-1 12-4 7-1 8-2 9-1 8-2 9-1 9-2 16-2 16-1" style="clip-to-self:true;comp-op:src"/>
<path transform="scale(.1)" d="m5632.5 2867.8-3 1-3 4-2 4-3 4-3 5-4 6-9 14-6 7-5 7-4 7-4 6-3 6-2 5-3 5-2 4-1 3-2 4" style="clip-to-self:true;comp-op:src"/>
<path transform="scale(.1)" d="m5779.4 2684.7-2-3-4 4-1 3v5l-1 6-2 7-2 8-3 9-2 11-6 23-6 28-2 14-3 15-1 14-1 15-1 13 1 12 2 11 2 9 4 8 4 5 6 4 7 2h7l9-1 8-2 9-3 10-5 8-5 8-6 6-6 7-6 5-6 3-7 2-6v-5-5l-2-5-3-4-4-4-4-3-5-2-7-1h-6-8l-8 2-16 6-9 4-9 5-27 18-8 7-7 5-15 16" style="clip-to-self:true;comp-op:src"/>
<path transform="scale(.1)" d="m5996.2 2835.3-4-1-6 1-4 3-4 4-3 5-4 6-3 7-5 7-4 8-5 7-4 9-5 7-3 8-4 7-3 7-2 5-1 5-1 3v8" style="clip-to-self:true;comp-op:src"/>
<path transform="scale(.1)" d="m6100.9 2673.1 3-3 3-2 4-5 5-4 12-8 7-5 8-4 16-7 9-3 14-4 6-1h6l6 1 4 2 4 4 4 5 3 7 2 8 1 9 1 12-1 12-1 13-2 13-6 28-3 15-4 14-4 28-3 12-2 12-1 10v9 7 5 4l3 2 5-8" style="clip-to-self:true;comp-op:src"/>
<path transform="scale(.1)" d="m6129.7 2783.1 3-2 6-3 5-2 6-2 8-1 18-4 10-2 11-2 11-1 10-2 11-2 12-2 10-2 8-2 18-7" style="clip-to-self:true;comp-op:src"/>
<path transform="scale(.1)" d="m6303.4 2602.2-3-1-4-1-5-2-4-1-3-1-5-2v-4l6-2 10-5 6-2 7-2 8-2 27-6 10-1 9-1 10-1h9l9 1 8 1 12 4 5 4 4 5 2 5 1 6-1 8-2 8-3 9-4 10-5 10-5 11-6 11-7 11-7 12-14 20-6 9-7 9-5 8-4 7-4 6-3 5-1 5-1 4 1 4 1 3 3 3 4 2 5 2 5 1 6 2 7 1 7 2 8 1 14 4 6 1 12 6 4 3 4 5 4 10 1 5-2 12-2 7-3 6-2 7-3 7-2 7-4 12-1 6-1 5v5l1 4 2 4 2 3 4 3 4 2 3 2 5 2 4 2 10 4 4 2 4 1 4 3 6 4 1 3 1 4v3l-1 5-3 3-3 5-10 8-7 4-8 4-7 4-8 4-9 4-8 4-8 3-7 2-12 4h-4-3l-3-2-4-4-4-6-5-7" style="clip-to-self:true;comp-op:src"/>
<path transform="scale(.1)" d="m3590 3399.7 1-5v-4l1-4-1-3v-3l-4 3-1 4-2 4-2 6-3 7-2 8-4 10-4 11-4 12-5 12-5 13-5 14-6 14-5 15-7 16-6 16-7 15-6 14-6 13-11 22-4 9-6 14-2 5-1 3-1 4 1-5 1-4 2-4 2-6 6-12 4-7 8-18 10-22 5-12 5-14 6-15 6-16 5-17 7-18 8-18 14-38 8-17 15-30 6-11 6-9 5-6 4-4 3-2h3l3 6v5l1 6v6 8 16l1 9v9 10 23l1 12v59 15 16l1 15v14l1 14 2 24 1 10 1 9 2 8 1 6 1 5 1 4 2 5 3-1 1-6v-5l-3-12" style="clip-to-self:true;comp-op:src"/>
<path transform="scale(.1)" d="m3511.2 3592.8-1-3 4-1 5-1h4l5-2 6-1 6-2 7-2 7-3 9-2 9-3 11-3 10-4 11-3 12-4 12-3 10-5 10-4 10-5 19-13" style="clip-to-self:true;comp-op:src"/>
<path transform="scale(.1)" d="m3777.2 3286.6-2-4-3-1" style="clip-to-self:true;comp-op:src"/>
<path transform="scale(.1)" d="m3774.7 3274.4 1-3-1-3 2-2 1-4-1 4-2 5v4l-1 5-2 12-1 7-1 8-1 7v9 8 9l-1 9v46" style="clip-to-self:true;comp-op:src"/>
<path transform="scale(.1)" d="m3898.8 3549.1-2-3 4-1 5-1 5-2h4l5-2h7l6-2h8l8-2 27-3 10-1h10l9-1h9 8 8 7l5 1 6 1 3 2 3 1 2 3-6 5" style="clip-to-self:true;comp-op:src"/>
<path transform="scale(.1)" d="m3917.8 3610.9-3 2-1 4 4 1 3 1h3 4l5 1h5l7-1h7 8l9-1 10-1 22-2 11-2 12-1 11-2 12-2 10-1 8-2 17-1" style="clip-to-self:true;comp-op:src"/>
<path transform="scale(.1)" d="m4481.9 3350 1-3 5-11 2-4 2-3 3-9v-5l-1-5-3-3-6-2h-5l-5 1-7 2-16 8-10 6-11 6-11 7-12 9-12 8-11 10-20 18-8 8-6 8-4 6-2 7 1 5 2 5 4 3 7 4 8 2 10 2 11 2h12l24 2 13 1 11 1 11 2 18 6 6 4 5 4 4 6 2 5 1 7-1 8-2 7-8 16-6 8-7 8-15 15-8 7-7 7-8 6-14 10-6 4-5 3-6 6 4 2h4l4-1h5l12-2h6 5 6l8 2 4 2 4 6v5 4l-2 7-7 14-5 8-6 9-6 10-7 11-9 10-7 11-9 12-16 22-14 20-6 9-5 9-4 7-3 7-2 7-1 6v6l1 5 2 5 2 4 5 3 4 3 7 2 6 1 9 1h8 9 10l10-1 11-2 10-1 11-3 9-2 9-1 9-2 7-2h5l8-2-5 1h-4l-15 2" style="clip-to-self:true;comp-op:src"/>
<path transform="scale(.1)" d="m4828.4 3447.5 2-4 3-5 2-5 2-3h-5l-4 4-4 3-10 10-5 6-14 16-8 9-9 9-8 10-8 9-9 10-14 18-6 8-5 8-5 7-3 8-4 12v6 5l4 8 4 3 4 2 6 2 8 2h7 9l20-2 11-2 12-2 11-2 13-3 11-3 11-2 10-3 10-2 8-1 7-2h7l5-1h12l-6-1-6-2" style="clip-to-self:true;comp-op:src"/>
<path transform="scale(.1)" d="m4807.2 3470.9 4-4 2-3 4-3 4-2 4 1 2 4 1 4v4 32 11 12l-1 12v53l1 13v12l2 26 1 11 1 12 2 20 1 8 4 17" style="clip-to-self:true;comp-op:src"/>
<path transform="scale(.1)" d="m5042.5 3595.6-2-3-4-1-4 2-3 7-1 4-2 5-1 7-3 6-4 15-1 9-1 10-1 9-1 10v9l1 9v8l2 6 1 6 2 3 6 1" style="clip-to-self:true;comp-op:src"/>
<path transform="scale(.1)" d="m5184.7 3469.7-3-4-3-2-3 1-4 3-3 2-4 2-8 8-8 10-6 12-3 5-2 10v5l1 4 3 5 3 3 3 4 15 9 6 2 12 8 6 5 6 4 5 6 8 12 2 6 3 6 1 6-2 14-2 6-3 7-4 6-3 6-10 10-10 6-5 2-4 1h-5l-4-1-5-2-5-3-5-5-6-5-12-16" style="clip-to-self:true;comp-op:src"/>
<path transform="scale(.1)" d="m5135.6 3452.2 3-1 10-4 7-3 8-2 8-4 9-3 10-3 11-4 11-3 12-4 13-3 12-3 14-3 13-2 12-2h12 10 9 8l5 1 8 5" style="clip-to-self:true;comp-op:src"/>
<path transform="scale(.1)" d="m5375 3589.4 2 4v6l-1 4-1 6-1 7-4 17-2 9-6 20-6 22-2 12-2 10-2 11-1 9v9 7 5l1 3 8-5" style="clip-to-self:true;comp-op:src"/>
<path transform="scale(.1)" d="m5528.8 3462.8 1-5 1-4 1-6v-7l-1-5-4-1-4 3-2 3-5 10-6 14-3 8-3 9-6 20-2 11-1 11-1 13v12 12l4 24 2 11 4 10 4 9 6 8 6 7 6 6 7 5 8 3 8 1 9 1h8l9-1 8-3 8-2 7-4 6-3 5-5 5-3 4-5 1-4 2-4v-4l-1-3-2-3-2-2-4-2-5-1h-6-6-7l-7 1-9 3-8 2-8 3-16 8-14 10-5 4-8 10-2 4-1 5v3l1 4 1 2 7 5" style="clip-to-self:true;comp-op:src"/>
<path transform="scale(.1)" d="m5691.6 3631.9 1-3-1 3-1 5-3 3-1 5-2 4-3 5-4 12-1 6-2 6-2 12v6 9 4l1 4" style="clip-to-self:true;comp-op:src"/>
<path transform="scale(.1)" d="m5829.7 3443.8-1-3v-7l2-6 2-3 3-3 5-2 10-6 7-4 6-2 8-3 7-3 7-2 15-3h7l7 1 6 1 6 3 5 4 4 5 4 7 3 8 2 9 2 11v12l-1 13-1 15-3 16-3 17-12 51-4 16-2 14-3 13-1 12v10l-1 8v8l1 5v4l4 1" style="clip-to-self:true;comp-op:src"/>
<path transform="scale(.1)" d="m5838.8 3545.6-1-4 3-4 5-2 3-2 5-2h4l12-2 7-1h7 34 10l18 2h8l8-1 14-2 13-3" style="clip-to-self:true;comp-op:src"/>
<path transform="scale(.1)" d="m6087.5 3342.2 1-5 2-4 9-9 4-2 5-3 13-6 7-2 8-3 8-2 7-2 8-1 14-2 7 1h6l5 2 6 2 3 4 2 4 2 6v6l-1 7-2 9-8 20-5 10-6 11-21 33-14 20-12 18-4 8-4 7-3 7-2 5-1 6v4 4l4 8 4 3 3 4 5 2 6 3 5 2 12 4 6 1 6 2 6 1 4 2 5 1 5 5 3 5-2 6-2 4-3 4-4 5-9 9-5 4-6 5-9 9-4 5-3 4-2 8v3l1 4 1 3 3 4 4 3 4 4 11 6 6 2 24 12 6 4 8 8 3 5 2 5v5 6l-2 7-2 6-4 7-5 7-7 7-8 6-8 7-18 12-20 10-11 5-10 5-11 4-20 8-10 3-9 4-16 6-7 2-5 2-5 1h-8" style="clip-to-self:true;comp-op:src"/>
<path transform="scale(.1)" d="m3664.1 2003.4-4-1h-9l-4 1-3 2v3l2 3 6 4 10 4 14 4 10 2 11 2 11 1h13l14 1h45 14 58l13-1h22 9 9 7 6l5-1h4 5l2-2-3-4-10-8" style="clip-to-self:true;comp-op:src"/>
<path transform="scale(.1)" d="m3804.7 1902.8-3-4-1-3-4-8-2-3-1-4-1-5v-3 35 10 24 13l1 15 1 14 1 15 4 30 2 14 5 30 2 14 2 13 4 24 2 9 6 15" style="clip-to-self:true;comp-op:src"/>
<path transform="scale(.1)" d="m4311.9 5235.6v-4-3l1-4-1-3-1-4-3-1-3 3-2 3-6 10-3 8-5 10-5 12-6 15-7 18-8 21-8 22-27 72-9 23-8 22-8 20-7 18-5 16-5 13-3 11-3 8-2 6v4l-1 4 3-4 7-14 2-7 3-8 4-9 3-9 6-20 4-12 4-13 5-15 5-17 6-19 6-21 7-23 7-24 9-23 7-23 8-20 9-18 7-16 7-12 5-11 5-7 4-5 3-3 5-1 4 3 1 3 2 4 2 6 3 5 2 7 1 7 3 8 2 9 3 11 2 11 2 13 3 14 1 16 4 32 3 16 3 31 2 14 4 26 2 12 4 20 2 9 2 7 2 6 4 10 1 2 3 5 3 2-4-7" style="clip-to-self:true;comp-op:src"/>
<path transform="scale(.1)" d="m4208.8 5450.3 4-6 9-3 10-2 6-1 7-1 7-2 9-1 8-2 9-1 20-3 11-1 10-1 18-4 8-3 18-7" style="clip-to-self:true;comp-op:src"/>
<path transform="scale(.1)" d="m4456.9 5145.3 1-3 1-6 1-4 4 1 3 5v3l1 5v6 27 12 55 14l1 14v14l1 12 6 29" style="clip-to-self:true;comp-op:src"/>
<path transform="scale(.1)" d="m4561.6 5417.5-2-3 3-3 5-1 4-1 4-2h5l5-2 5-1 18-3 7-1h7l7-1h20l6 1 5 1h5l6 3 3 4-2 4-11 8" style="clip-to-self:true;comp-op:src"/>
<path transform="scale(.1)" d="m4564.1 5466.9-3 3-2 3-1 3 4 2 4 1h4 3 5l5-1h6l8-1h7l8-1h10 28 10 10l9 1h7l6 1h6 10" style="clip-to-self:true;comp-op:src"/>
<path transform="scale(.1)" d="m4980 5316.6v-14-5l-1-4v-4l-1-3-2-4-2-2-3 4-2 3-1 6-2 7-2 8-3 11-2 12-2 13-4 28-2 15-3 42v13l1 14 1 11 2 12 3 10 3 9 3 8 5 6 5 5 5 4 12 4 7 1h6l7-1 7-2 6-2 7-2 6-3 6-4 6-3 5-5 5-4 5-5 4-6 3-5 3-7 3-6 2-7 4-16 2-9 1-10 2-11 1-12 1-13 1-14 1-15 2-15 1-14 1-12 1-11 1-8v-13l-2 4-1 4v5l-1 7-1 8-2 20v12l-4 50-2 26v13l-1 11 1 13v11l2 11 4 18 6 14 4 4 3 4 3 2 4 1h10" style="clip-to-self:true;comp-op:src"/>
<path transform="scale(.1)" d="m5242.5 5455.3-2-3v-4l3-1 6-1 4-1 5-1 12-2 14-2 18-2 10-1h10 47l8-1h6l5-1 9-1" style="clip-to-self:true;comp-op:src"/>
<path transform="scale(.1)" d="m5615 5454.4-2-2h3l5-1h4l4-1h5l6-1 7-1h7l9-2 30-3h11l11-2 10-1 8-2 19-5" style="clip-to-self:true;comp-op:src"/>
<path transform="scale(.1)" d="m5620 5315.3v-3-3l1-4v-3l3-12 1-3v5l-1 5-2 6-2 9-3 12-3 13-5 15-5 16-6 18-6 17-7 19-14 36-7 17-6 16-5 15-5 12-3 11-3 8-2 7-1 4v3l4 1 3-2 8-8 4-7 6-7 5-9 12-20 10-22 5-12 5-13 5-14 4-16 6-16 5-18 12-38 6-18 6-16 7-14 5-12 9-18 6-10 3-3 2-3 4-4h4l4 3 4 6 3 4 2 5 2 7 4 16 2 10 2 11 3 13 2 12 2 13 3 14 2 14 6 27 3 14 3 13 2 12 3 12 3 11 3 10 3 9 2 8 3 7 3 5 2 5 3 4 2 3 4 3 3 1 2-2-6-9" style="clip-to-self:true;comp-op:src"/>
</g>
</g>
<path transform="scale(.1)" d="m3542.5 5951.2v1417h3401v-1417h-3401" stroke="#7f7f7f" stroke-width="14.1" style="clip-to-self:true;comp-op:src"/>
<path transform="scale(.1)" d="m7091.2 5928.1-3-4-4-3h-4l-4 3-2 3-1 3-4 10-4 14-1 8-1 9-2 20v11l1 11 1 10 2 11 3 11 6 18 4 9 4 7 5 6 6 6 6 3 6 4 7 2h6 8l7-1 8-3 7-4 14-10 7-7 6-7 6-8 5-8 4-10 4-9 3-10 2-10 2-11 2-24 1-11v-12-11l1-9-1-7v-6-4l-1-3-1 3v3l-1 5v6 37 11l1 11 1 22 2 11 1 11 4 20 4 16 2 7 3 6 3 4 3 5 3 3 2 3 7 4" stroke="#7f7f7f" stroke-width="14.1" style="clip-to-self:true;comp-op:src"/>
<g stroke="#fff" stroke-width="14.1">
<path transform="scale(.1)" d="m6321.2 6694.1v13l-1 12-2 12-3 13-3 12-4 12-6 13-5 12-6 12-24 36-20 24-11 12-12 11-12 12-28 22-15 12-32 22-18 11-18 10-19 11-40 20-44 20-24 9-24 10-26 9-26 8-27 9-29 8-60 16-32 7-33 8-34 6-35 6-37 6-37 5-39 5-40 4-40 3-42 3-42 2-42 1h-43-43l-42-1-42-2-82-6-40-4-39-5-37-5-37-6-35-6-34-6-33-8-32-7-60-16-28-8-28-9-26-8-26-9-24-10-23-9-23-10-42-20-20-10-19-11-18-10-34-22-16-11-15-12-14-11-13-11-13-12-12-11-11-12-10-12-18-24-8-12-14-24-5-12-5-13-5-12-3-12-3-13-2-12-1-12v-13-12l1-13 2-12 3-13 3-12 10-24 5-13 14-24 8-12 18-24 10-12 11-12 12-11 13-12 13-11 14-11 15-12 16-11 17-11 17-10 18-11 19-10 20-11 42-20 23-10 23-9 24-9 26-10 26-8 28-9 28-8 60-16 32-8 33-6 34-7 35-6 37-6 37-5 39-5 40-4 82-6 42-2 42-1h43 43l42 1 42 2 42 3 40 3 40 4 39 5 37 5 37 6 35 6 34 7 33 6 32 8 60 16 29 8 27 9 26 8 26 10 48 18 44 20 20 10 20 11 19 10 18 11 18 10 32 22 15 12 28 22 12 12 12 11 11 12 20 24 24 36 6 12 5 13 6 12 4 12 3 12 3 13 2 12 1 13v12" style="clip-to-self:true;comp-op:src"/>
<path transform="scale(.1)" d="m5960.6 6505.6-2-4-3-1-3 3-1 4-2 3-2 5-2 6-3 7-6 18-6 22-8 24-4 13-3 11-4 11-3 11-3 9-2 9-3 6-1 6-2 4v4l-2 4v-5l2-3v-5l1-4 2-5 1-7 2-6 2-8 2-7 4-18 3-11 3-10 2-11 4-11 3-12 4-11 3-11 4-11 4-9 3-9 3-8 3-7 1-5 2-4 3-4 3-1 2 4 4 6 6 15 2 7 3 7 2 8 3 8 6 18 7 20 3 10 4 11 3 10 3 11 5 20 3 9 2 8 2 7 4 10 1 5 2 3 1 4 2-4v-3l-1-4-2-12" style="clip-to-self:true;comp-op:src"/>
<path transform="scale(.1)" d="m5911.2 6630h-4l-5-1-3-1 5 1h4 4l12-2 8-1 27-6 22-6 29-8" style="clip-to-self:true;comp-op:src"/>
</g>
<g stroke="#00c0ff" stroke-width="1.41">
<path d="m354.25 623.47 28.344-28.344" style="clip-to-self:true;comp-op:src"/>
<path d="m357.41 644 53.531-48.875" style="clip-to-self:true;comp-op:src"/>
<path d="m357.03 673.56 82.25-78.438" style="clip-to-self:true;comp-op:src"/>
<path d="m359.09 702.16 108.53-107.03" style="clip-to-self:true;comp-op:src"/>
<path d="m354.25 736.84 66.5-66.531" style="clip-to-self:true;comp-op:src"/>
<path d="m453.44 637.66 42.5-42.531" style="clip-to-self:true;comp-op:src"/>
<path d="m388.91 737 46.062-46.062" style="clip-to-self:true;comp-op:src"/>
<path d="m495.94 623.47 24.312-24.312" style="clip-to-self:true;comp-op:src"/>
<path d="m425.09 736.84 28.344-28.344" style="clip-to-self:true;comp-op:src"/>
<path d="m533.09 622.19 22.406-22.406" style="clip-to-self:true;comp-op:src"/>
<path d="m453.44 736.84 24.031-20.406" style="clip-to-self:true;comp-op:src"/>
<path d="m560.69 626.94 30.812-25.844" style="clip-to-self:true;comp-op:src"/>
<path d="m481.78 736.84 23.375-16.375" style="clip-to-self:true;comp-op:src"/>
<path d="m591.5 630.19 31.969-35.062" style="clip-to-self:true;comp-op:src"/>
<path d="m514.94 738.34 28.438-22.5" style="clip-to-self:true;comp-op:src"/>
<path d="m614.75 641.25 43.188-43.219" style="clip-to-self:true;comp-op:src"/>
<path d="m552.62 736.84 42.5-28.344" style="clip-to-self:true;comp-op:src"/>
<path d="m631.25 663.78 61.5-61.469" style="clip-to-self:true;comp-op:src"/>
<path d="m595.12 736.84 99.219-99.188" style="clip-to-self:true;comp-op:src"/>
<path d="m637.66 736.84 56.688-56.688" style="clip-to-self:true;comp-op:src"/>
<path d="m666 736.84 28.344-28.344" style="clip-to-self:true;comp-op:src"/>
</g>
<g stroke="#fff">
<g stroke-width="14.1">
<path transform="scale(.1)" d="m2753.8 8389.1-2-6v-4l-3-4-2 3v9 5 7l-1 8v9l-1 10v11 39 14l1 16 2 16 1 16 3 15 3 16 4 14 4 13 4 12 5 10 6 9 12 12 7 5 7 2 8 2h8l9-1 9-3 20-8 10-6 11-7 10-7 10-8 19-19 8-10 7-10 8-12 5-12 6-13 4-14 3-14 6-32 2-18 1-20 1-21v-63l-1-18v-15l-1-12-1-8-1-5-3-3-3 3-1 4-2 6-2 20-1 13v14 49 16l1 17 2 17 2 16 1 16 2 15 1 14 3 14 2 13 2 12 3 11 3 9 3 8 4 7 4 5 3 5 3 3 3 2 4 1 3-1 9-6" style="clip-to-self:true;comp-op:src"/>
<path transform="scale(.1)" d="m3077.5 8477.8v-11l2 3 2 6 2 5 1 7 2 7 1 9 2 20 2 23 1 11 2 11 1 10 2 10 1 9 2 7 2 6 1 5 4 6 4-2 4-7 3-10 2-7 1-7 2-8 1-9 8-40 3-12 3-11 4-9 5-9 4-7 4-6 3-4 4-2h3 3l3 2 1 4 3 5 4 14 2 9 2 8 3 10 2 10 2 11 1 11 6 30 2 8 2 7 2 6 3 4 2 4 3 3h3l6-1 4-3 7-7 8-12 9-18" style="clip-to-self:true;comp-op:src"/>
<path transform="scale(.1)" d="m3285.6 8503.4 2 5-1 4v40l1 8v7l1 7 2 7 2 12 4 10 3 4 2 3 3 2 5 2 4-2 2-3 2-4 3-12" style="clip-to-self:true;comp-op:src"/>
<path transform="scale(.1)" d="m3296.2 8381.2-2-2-3-2-1 5 2 6 1 9 2 8 2 5 1 4 6 12 2 3 5 11" style="clip-to-self:true;comp-op:src"/>
<path transform="scale(.1)" d="m3404.7 8467.5h-4l-3 4-1 4-2 5-4 12-2 8-1 8-2 9-2 10-1 10v21l2 10 1 11 2 9 4 9 3 6 4 5 5 4 4 1 6 1h6l5-2 7-2 6-4 13-10 6-6 5-7 4-7 4-8 2-9 2-8 1-9-1-8-1-9-1-8-7-14-5-5-6-5-7-2-7-1h-8l-9 2-9 3-8 4-8 5-7 6-6 6-5 7-4 6-3 6-1 5 3 11" style="clip-to-self:true;comp-op:src"/>
<path transform="scale(.1)" d="m3525.3 8493.8h3l1 4 1 2 1 3 1 4v5l1 5v6l1 7 2 16 2 18 2 20 2 11 1 10 2 10 2 9 1 8 2 6 1 5 1 4 2 4-2-5v-3l-2-4-4-10-4-12-2-14v-8-8l1-9 2-9 3-9 8-20 5-9 7-9 6-8 6-7 7-6 7-3 6-4 5-1h6l5 1 8 6 4 6 3 6 2 7 2 9 2 20 1 12v12 13l-2 26v12 12 10l1 9 1 8 2 6 1 6 2 4 7 4" style="clip-to-self:true;comp-op:src"/>
<path transform="scale(.1)" d="m4201.6 8459.4-4 2-5 3-2 2-4 3-9 9-4 5-6 7-12 18-6 10-7 12-6 12-15 39-4 14-2 13-2 12v13 12l2 10 2 8 3 7 5 5 6 5 12 6 8 2 7 1 8 1 16-2 9-2 7-3 7-2 14-8 5-5 5-4 4-6 4-5 2-7 3-6 2-14v-8l-2-16-2-10-3-9-2-11-4-10-8-24-10-24-4-11-5-10-5-8-5-6-6-4-5-3h-5-5l-6 2-4 3-5 4-4 4-3 5-4 10-1 6 1 5 1 4 9 10" style="clip-to-self:true;comp-op:src"/>
<path transform="scale(.1)" d="m4377.2 8506.6 3-6 2-3 1-5 3-4 4-13 2-7 3-9 2-9 2-10 1-11 2-12v-13l2-14v-45l-2-15v-15l-1-14-2-12-2-10-2-8-3-7-3-4-3-3h-4l-4 1-3 4-4 5-4 7-4 10-3 13-3 15-4 18-3 21-2 24-3 25-3 27-2 28-2 29-1 30-2 61-1 31v62l1 30 1 29 2 28 2 24 2 22 4 18 3 16 3 12 4 11 3 9 3 7 3 6 7 7 3-2 2-3 2-4 1-5 1-6v-8-8-10l-1-10-3-11-9-29" style="clip-to-self:true;comp-op:src"/>
<path transform="scale(.1)" d="m4287.8 8690.9-3-3-3-2-6-12-1-4v-3-4l3-4 2-4 3-4 9-9 6-5 7-5 8-4 8-5 19-10 10-4 22-10 10-5 10-6 22-12" style="clip-to-self:true;comp-op:src"/>
<path transform="scale(.1)" d="m5010.3 8514.7-11-11-5-2-4-2-12-2h-6-8l-8 1-9 2-9 4-11 3-12 6-11 7-12 8-12 9-11 12-20 24-8 14-6 13-5 13-4 13-2 12v12l1 11 2 9 3 8 4 6 6 4 7 3h8 10l10-3 12-5 11-6 13-7 12-9 12-10 13-11 11-12 12-13 11-14 9-15 9-16 8-17 6-17 6-19 5-19 3-19 4-22 4-42 1-21v-17l-1-15-1-11-3-7-3-4-3-1-4 1-3 5-4 6-4 10-4 12-4 14-4 15-3 17-3 18-2 18-1 18-2 18v20l1 19 1 20 2 19 3 18 3 16 4 15 4 12 5 10 10 14 6 4 6 3 6 2h6 6l7-2 6-2 12-8 5-6 10-14 8-20" style="clip-to-self:true;comp-op:src"/>
<path transform="scale(.1)" d="m5117.8 8507.2 2 4v3 4l1 7v6l1 8v8l2 8 1 8v9l3 24 2 8 2 7 2 5 1 5 2 3 3 4 3-3 1-7" style="clip-to-self:true;comp-op:src"/>
<path transform="scale(.1)" d="m5142.2 8490.3v-3l3-2 3 2 6 6" style="clip-to-self:true;comp-op:src"/>
<path transform="scale(.1)" d="m5277.8 8517.2-4-3-3-2-4-1-5-1h-9l-6 1-5 1-7 1-6 3-6 2-14 8-5 5-6 4-5 6-4 5-2 5-2 7-1 5v6l1 7 3 6 2 6 12 15 5 5 5 3 6 4 9 7 5 3 6 6 4 5-1 4-6 6-4 2-6 4-6 3-7 2-8 3-8 2-9 2-8 3-9 1-8 1-7 1-7-1-5-1-4-2-7-5" style="clip-to-self:true;comp-op:src"/>
<path transform="scale(.1)" d="m5356.2 8528.8-1-3-1 5v4l1 4v6l1 7v8l2 18v11 12l1 12v59l-1 17v19l-2 19-2 36-2 16-1 15-2 14-2 13-3 12-2 11-3 9-3 8-4 7-8 10-4 3-5 2-10 2-5-1-6-1-5-3-7-4-5-5-6-7-6-8-5-10-4-11-4-13-4-14-6-41" style="clip-to-self:true;comp-op:src"/>
<path transform="scale(.1)" d="m5357.5 8439.4v-4l-2-4-3 1-3 5-2 3-2 4-6 8-3 6-4 6-4 7-6 14-4 15-1 8 1 8 1 7 2 7 4 7 3 5 12 8 6 1 7 1h8l8-1 8-2 9-4 8-3 8-5 7-5 7-6 5-6 5-7 3-6 3-8v-7-7l-1-7-3-8-3-6-4-7-6-5-5-4-7-3-6-2h-8l-8 2-7 2-7 4-7 5-7 6-5 7-6 7-3 7-4 8-4 19" style="clip-to-self:true;comp-op:src"/>
<path transform="scale(.1)" d="m5484.7 8566.6-3-4-3-2h-4l-2 3-1 5-1 4-1 5-1 6-1 8v7 9 8l2 18 4 18 3 8 4 7 8 10 6 3 5 2 6 1 12-2 6-3 12-8 10-12 4-6 3-7 3-8 2-8v-9-9l-1-9-2-10-3-11-4-10-4-9-6-9-6-8-6-6-7-5-7-3-8-2h-7-8l-6 2-5 3-6 3-3 5-3 4-2 5-1 6-1 5 1 5 5 13" style="clip-to-self:true;comp-op:src"/>
<path transform="scale(.1)" d="m5619.1 8512.8-2-4-2 3-2 10-1 4v6l-1 7-1 8v8l1 9v9l2 9 1 10 4 20 3 9 6 16 4 6 3 5 3 3 3 2 2 1 4-3 2-3 2-12" style="clip-to-self:true;comp-op:src"/>
<path transform="scale(.1)" d="m5615.6 8437.8-4-6-2-4-1-4v-3l2-3 4-3h3l2 4-1 5-1 8" style="clip-to-self:true;comp-op:src"/>
<path transform="scale(.1)" d="m5641.6 8409.7-4 3-3 2-3 4-1 6-2 3v3 20 4l2 3 1 4v4l4 6 5 5 5 2 3 1h7l12-3 8-4 3-3 8-6 2-4 4-4 2-5 3-5 4-10v-6l1-5v-6l-2-12-1-5-2-5-3-5-3-4-4-3-3-1-5-2h-4-6l-5 2-7 2-6 3-7 3-14 10-7 6-6 7-10 14-8 14-3 6-2 13" style="clip-to-self:true;comp-op:src"/>
<path transform="scale(.1)" d="m5735.9 8623.4 4-10 6-14 3-6 5-6 4-7 5-6 5-7 11-12 5-5 4-5 4-3 6-4h6l3 2 2 3 3 4 2 5 2 6 2 8 2 9 1 10 1 11v12l-1 11-2 24-1 11-2 10-1 10-1 8-1 7v5 4 3l3-5 2-5 2-6 2-7 1-9 2-9 6-30 1-11 2-11 3-11 2-11 3-12 5-11 3-10 5-8 4-7 5-5 4-3 4-2h4l3 2 3 3 8 16 4 16 3 9 2 10 3 9 5 20 4 18 3 8 3 7 2 5 3 4 3 3 3 1 7-1 3-2 3-3 3-4 6-10 2-7 4-6 3-8 6-18 6-22 4-26 2-14 2-15 2-16 2-15 5-51 3-16 1-15 2-13 1-10 1-7v-5l1-4 1 3v4l2 14 1 10v11l1 12 1 13 1 14v15l1 14 2 32 2 17 1 18 4 36 2 17 3 17 3 14 4 14 4 12 4 10 4 8 5 7 5 5 5 3 5 1h4l5-1 5-3 8-10 3-7 3-8 4-22" style="clip-to-self:true;comp-op:src"/>
<path transform="scale(.1)" d="m5964.1 8515-4-2-3-1 3-4 3-1 4-2 4-3 28-14 9-4 20-8 24-8 11-5 12-5 12-4 26-12" style="clip-to-self:true;comp-op:src"/>
<path transform="scale(.1)" d="m6509.4 8433.8 4-7 3-5 2-4 2-5 3-6 1-5 2-6 1-5 1-6v-5-6l-1-5-2-6-2-4-3-5-3-4-4-3-5-3-5-1h-6-6l-8 1-7 3-8 3-8 6-9 6-8 7-16 18-6 9-7 9-5 9-3 9-2 9v9l1 9 2 9 4 9 5 9 6 9 7 10 17 21 10 11 9 11 10 11 9 10 8 11 7 11 6 10 4 10 3 10 1 9-1 9-2 8-3 8-4 6-5 5-6 5-6 4-7 3-8 2-9 1-8 1h-10l-9-1-10-2-9-2-9-4-8-4-6-5-6-6-4-7-2-6v-8l1-8 2-8 4-8 5-8 15-18" style="clip-to-self:true;comp-op:src"/>
<path transform="scale(.1)" d="m6615.3 8606.6 3 1 5 1 5-1h4l8-4 5-3 5-4 6-4 12-10 5-6 12-12 8-12 3-6 2-6 1-7 1-6-2-12-2-5-3-4-4-5-10-4-7-1-6 1-8 1-7 3-8 4-8 6-8 8-8 9-7 11-8 11-5 13-6 13-4 15-3 14-1 14-1 15 1 13 2 12 3 10 4 9 6 8 6 6 7 5 9 4 20 2 11-1 12-3 13-3 14-5 13-6 14-7 13-8 12-9 12-10 11-10 18-24 8-14 7-15 7-17 5-17 5-19 6-40 3-23 2-22v-22l1-21-1-19v-14l-2-12-2-7-3-5-3-2-5 1-3 2-2 6-3 5-3 9-1 10-2 11-1 12-2 13-2 28-1 13v46l1 16 2 34 2 17 1 16 1 15 2 13 2 12 2 10 2 8 2 7 2 5 2 4 3 2 2-2 2-10" style="clip-to-self:true;comp-op:src"/>
<path transform="scale(.1)" d="m6738.4 8549.1 2-4 2-3 6-11 8-10 5-5 5-4 6-5 5-4 6-4 6-3 7-4 7-2 8-2 9-3 20-4 10-1 20-4 23-2" style="clip-to-self:true;comp-op:src"/>
<path transform="scale(.1)" d="m6961.9 8519.7v-4-4-3-4-4-4l-2-8-2-4-2-3-3-3-2-3-6-3h-3l-6 1-4 2-3 2-6 6-4 8-2 10v6l1 5 4 12 3 6 8 12 5 6 4 6 6 6 5 6 5 7 9 12 4 6 3 6 2 6 2 5v5l-1 5-3 4-2 5-5 4-5 3-6 3-7 3-8 2-7 3-7 1-8 1-7 1-8 1-7 1-12-2-7-3" style="clip-to-self:true;comp-op:src"/>
</g>
<path d="m276.19 884.47h421.28" stroke-width="1.41" style="clip-to-self:true;comp-op:src"/>
</g>
<path transform="scale(.1)" d="m1416.9 9635.6v2408h4251v-2408h-4251" stroke="#7f7f7f" stroke-width="14.1" style="clip-to-self:true;comp-op:src"/>
<path transform="scale(.1)" d="m5907.5 9689.4-2-4-4-1-3 2-2 4-1 3-1 4-2 5-1 6-1 7-1 9-2 9-1 11-1 12-1 13v28l1 15 1 16 2 14 2 15 2 12 2 11 4 9 3 9 5 6 4 5 10 8 6 2 5 1 12-2 6-2 12-8 6-6 6-5 12-16 10-20 5-12 3-11 4-13 3-13 3-27 1-14 1-13v-23-10l-1-8-1-7-1-5-1-3-3-3-3 3-2 3-1 4-1 5v5l-1 7v7l1 8v8l1 9 2 9 4 20 2 12 2 13 3 13 2 15 6 29 4 14 3 12 4 12 4 9 4 8 8 12 3 4 3 3 3 2 3 1 8-1" stroke="#7f7f7f" stroke-width="14.1" style="clip-to-self:true;comp-op:src"/>
<g stroke="#fff" stroke-width="14.1">
<path transform="scale(.1)" d="m4310.6 10772-1 14-1 13-1 14-3 14-3 13-8 28-5 13-6 14-6 13-7 13-8 14-27 39-22 26-24 26-13 12-14 13-30 24-16 13-17 11-17 12-19 12-19 11-19 12-42 22-22 11-22 10-24 11-24 10-25 10-26 10-54 18-58 18-30 8-32 8-32 7-33 8-34 6-70 12-37 6-37 4-38 5-38 3-39 3-80 4-40 1-41 1-80-2-80-4-78-6-38-5-37-4-72-12-35-6-34-6-33-8-32-7-31-8-30-8-30-9-56-18-27-9-26-10-25-10-24-10-23-11-23-10-22-11-42-22-19-12-19-11-36-24-17-11-16-13-15-12-14-12-14-13-13-12-13-13-12-13-11-13-20-26-18-26-8-14-6-13-7-13-6-14-5-13-8-28-3-13-4-28-1-13v-14-14l1-13 4-28 3-13 4-14 4-13 5-14 6-14 7-13 6-14 8-13 18-26 20-26 11-13 12-13 13-13 13-12 14-13 14-12 15-12 16-12 17-13 18-11 18-12 19-12 19-11 42-22 22-11 23-10 23-11 24-10 25-10 26-10 27-9 56-18 30-9 30-8 31-8 32-7 33-7 34-7 35-6 72-12 37-4 38-5 78-6 80-4 80-2 41 1 40 1 80 4 39 3 38 3 38 5 37 4 37 6 70 12 34 7 33 7 32 7 32 8 30 8 58 18 54 18 26 10 25 10 24 10 24 11 22 10 22 11 42 22 19 11 38 24 17 11 17 13 16 12 30 24 14 13 13 12 24 26 22 26 27 39 8 13 7 14 6 13 6 14 5 14 4 13 4 14 3 13 3 14 1 14 1 13 1 14" style="clip-to-self:true;comp-op:src"/>
<path transform="scale(.1)" d="m5185.6 10733-1 15-1 14-4 28-3 14-5 14-4 14-12 28-7 13-7 14-9 14-9 13-10 14-22 26-12 13-26 26-15 13-15 12-16 13-16 12-36 24-19 12-19 11-21 12-21 11-23 11-23 10-24 11-24 10-26 9-27 10-27 9-28 9-29 8-62 16-32 7-33 7-33 6-35 6-35 5-36 5-37 4-37 3-38 3-39 1-76 2-78-2-38-1-38-3-37-3-37-4-36-5-35-5-35-6-34-6-64-14-32-8-30-8-29-8-56-18-26-10-26-9-24-10-25-11-22-10-44-22-21-12-19-11-38-24-17-12-16-12-16-13-15-12-15-13-26-26-24-26-10-13-10-14-9-13-16-28-7-13-12-28-12-42-4-28-1-14v-15-14l1-14 4-28 12-42 6-13 6-14 7-14 8-14 8-13 9-14 10-14 10-13 24-26 26-26 15-13 15-12 16-13 16-12 17-12 38-24 19-11 21-12 44-22 22-10 25-11 24-10 26-10 26-9 56-18 29-8 30-8 32-8 64-14 34-6 35-6 35-5 36-5 37-3 37-4 76-4 78-2 76 2 39 2 38 2 37 4 37 3 36 5 35 5 35 6 33 6 33 7 32 7 62 16 29 8 28 9 54 18 26 10 24 10 24 11 23 10 23 11 21 11 21 12 19 11 19 12 36 24 16 12 16 13 15 12 15 13 26 26 12 13 22 26 10 14 9 14 9 13 14 28 6 14 6 13 4 14 5 14 3 14 4 28 2 28" style="clip-to-self:true;comp-op:src"/>
<path transform="scale(.1)" d="m2059.4 10082v-4l-1-6-1-3-2-4-3-2-5 2-4 4-2 3-8 16-2 7-3 9-3 10-3 12-3 13-3 14-3 16-5 32-6 30-2 13-2 12v11l-2 9-1 8-1 6v5 4 4l3-2 3-7 2-5 4-14 2-9 2-10 3-12 4-26 2-32 4-34 6-54 3-16 4-15 4-12 3-11 3-8 4-7 2-4 2-2 4-1 4 4 2 3 3 5 2 5 3 7 2 6 6 16 3 9 4 9 2 10 4 9 9 30 2 10 6 18 2 9 4 16 3 7 1 6 2 5 1 4 2 3 1 5 1 4-2 3-3 2h-6l-11-1" style="clip-to-self:true;comp-op:src"/>
<path transform="scale(.1)" d="m2007.5 10207-4-1-6-2-4-2-4-1-2-3 2-3 5-5 4-3 5-4 7-3 8-5 10-4 26-10 14-6 16-7 15-7 16-7 41-18" style="clip-to-self:true;comp-op:src"/>
<path transform="scale(.1)" d="m4941.6 10042-3-2-3-1-1 3-1 6v34l1 7v8l1 7 1 8 1 7 1 8 2 14 1 5 2 6 2 4 1 5 2 6v3l1 4-2 6" style="clip-to-self:true;comp-op:src"/>
<path transform="scale(.1)" d="m4933.4 10062-1-4-2-5-3-4-1-5v-4l3-6 10-10 10-8 7-4 6-4 7-4 16-6 16-4 7-1 8-1 7 1 6 3 6 2 4 5 3 5 3 6 2 8v7 9l-2 10-3 9-3 10-4 10-5 10-6 9-12 16-12 14-7 6-6 5-5 4-10 6-6 5 3-1 3-2 10-4 5-1 6-2 14-4 14-2h7 6l7 1 6 1 5 3 4 3 8 8 2 6 2 5v6 6l-4 14-3 6-4 7-5 6-4 6-18 15-6 4-14 6-14 4-14 2h-7l-7-1-10-4-5-4-4-4-4-5-7-13" style="clip-to-self:true;comp-op:src"/>
</g>
<g stroke="#ff7f00" stroke-width="14.1">
<path transform="scale(.1)" d="m2691.6 10569-1-5-2-5-2-6-2-5-4-3-3-1-4-1h-5-5l-6 1-7 1-8 3-18 5-20 8-11 5-21 11-10 6-18 14-8 7-7 8-7 7-8 14-3 7-1 7v5 7l2 5 3 5 5 6 5 4 6 5 16 8 10 4 9 3 30 9 9 3 8 2 7 4 6 4 5 4 2 4 1 6v5l-2 6-3 7-4 6-6 8-14 14-8 7-9 7-18 12-8 6-8 5-8 4-6 5-6 3-4 3-4 2-4 3 4 2 8-2 6-1 14-6 19-9" style="clip-to-self:true;comp-op:src"/>
<path transform="scale(.1)" d="m2774.1 10736-2-3-4-2h-4l-3 4-2 2-1 3-4 8-3 15-2 11v6l1 7 1 6 1 8 1 7 1 8 2 8 1 8 1 9v9l1 8 1 19" style="clip-to-self:true;comp-op:src"/>
<path transform="scale(.1)" d="m3693.1 10608-1-3-3-7-2-2-3-2-3-1h-3-5l-3 1-15 6-7 3-6 3-6 5-7 5-7 6-8 6-7 7-6 7-7 8-6 8-8 14-3 8-1 7v7l4 12 4 5 5 5 6 4 7 5 8 3 8 4 9 3 10 3 9 2 18 6 8 3 14 6 5 3 7 7 1 3v4l-1 4-11 11-6 3-7 4-8 4-7 3-9 4-8 2-9 3-8 2-7 2-8 1-6 1h-5-5l-3-1-3-5v-3l4-10" style="clip-to-self:true;comp-op:src"/>
<path transform="scale(.1)" d="m3772.5 10743-3-2-2-3-1-3 2-3 6-4 14-7 12-4 7-2 6-2 6-1h6 6l5 1 4 2 4 6 1 5-1 5-2 5-3 7-4 8-5 7-12 16-8 8-7 9-28 32-6 7-4 6-5 6-2 5-3 4-1 4v3l1 3 4 5 4 1 5 1 6 1 7-1h8l9-1 9-2 20-6 10-2 10-3 11-3 10-2 9-3 14-6 5-3 9-4" style="clip-to-self:true;comp-op:src"/>
<path transform="scale(.1)" d="m4566.2 10591 2-10v-6-9l-2-4-3-2-5 1-4 1-4 2-5 3-6 3-6 4-6 6-14 10-6 7-5 5-5 6-4 7-4 6-1 6-2 6v7l1 7 2 6 3 6 4 6 5 6 5 5 6 5 16 8 8 3 9 4 27 8 9 3 8 3 7 3 6 4 4 3 2 4 1 4-1 5-2 4-4 5-5 5-7 5-7 4-16 8-16 7-7 3-7 2-11 3-4 1-4-2v-5l3-4 13-12" style="clip-to-self:true;comp-op:src"/>
<path transform="scale(.1)" d="m4692.5 10739-3-2-4-3-3-3v-3l4-6 3-2 7-7 10-5 5-3 18-6 12-2h4 5l3 1 5 3v5 3l-3 3-3 5-14 14-12 10-7 5-5 5-6 4-4 4-5 4-3 3-2 3-2 4 2 3 6 2 5 1h5l7 1h22 7l8 1 14 2 5 3 5 2 4 3 4 6v4l-1 5-2 4-3 5-4 5-5 4-5 5-6 5-7 4-6 3-12 5-6 2-5 2-6 2-4 1-5 1-4 1-7 1h-9l-12 2" style="clip-to-self:true;comp-op:src"/>
<path transform="scale(.1)" d="m3676.9 11540 1-5v-4l1-6-1-5-1-4-2-3-4-3-3-1-4-1h-4-4-5l-12 2-7 2-6 2-8 3-7 3-9 4-7 6-16 12-7 7-7 8-12 18-4 9-3 9-2 9v8l1 8 3 8 4 7 6 7 8 6 8 5 9 5 10 4 10 3 11 3 12 2h11l20 2 9 1 8 1 7 1 5 2 2 2 2 6-2 4-3 4-4 4-6 4-6 5-7 4-9 5-8 5-36 16-8 4-9 2-6 3-7 3-5 2-4 1-3 3h3l3-1 13-8" style="clip-to-self:true;comp-op:src"/>
<path transform="scale(.1)" d="m3845 11662-6-6-5-1-5 2-7 3-4 3-4 4-5 3-4 4-10 8-10 10-4 6-5 5-12 18-6 12-2 6-2 5-1 5v4l1 4 4 6 3 2 10 4 6 2h7 9 10l11-1 11-2 12-2 13-1 12-3 14-3 12-3 11-3 10-2 9-3 7-1 5-1 8-4v-3l-7-3" style="clip-to-self:true;comp-op:src"/>
<path transform="scale(.1)" d="m3859.4 11687-3 1-2 5-2 8v4l-2 10v6 6 6l1 8 1 7 1 8 2 8 6 16 6 18 5 16 2 8 4 14" style="clip-to-self:true;comp-op:src"/>
<path transform="scale(.1)" d="m6847.8 10092 1-4 2-6 1-4 1-3v-4l-1-3-3-2h-5-3-4l-5 1-4 1-6 2-5 2-7 3-6 3-7 4-16 10-9 6-18 14-27 24-14 16-5 8-6 14v6l1 7 3 5 5 6 5 5 7 4 18 8 11 3 12 2 12 3 26 4 24 4 11 2 10 3 9 4 8 4 6 4 5 6 2 5 1 7-1 7-2 8-5 7-4 8-14 14-8 7-18 12-10 6-9 5-11 5-10 4-11 5-10 3-10 4-10 2-9 3-8 2-6 2h-6-4l-4-3 3-5 7-7 13-11" style="clip-to-self:true;comp-op:src"/>
<path transform="scale(.1)" d="m6967.8 10247-3-1-2 3-1 4-2 6v3l-1 4v5 10 6l2 14v7l1 9v8l2 17 1 9 1 7v6l2 12v4 4l1 4v5l-2 3h-7" style="clip-to-self:true;comp-op:src"/>
<path transform="scale(.1)" d="m7085.3 10192-2-2 4-1h5l4-1 15-3 7-2 7-1 14-4 7-1 14-4 7-1h6l5-1 5 1h4l2 1 3 2-2 4-8 9" style="clip-to-self:true;comp-op:src"/>
<path transform="scale(.1)" d="m7078.1 10278 3 3 3 1 5 1h3l4-1 5-1 6-1 12-4 14-4 16-4 17-5 8-1 9-2 8-1 7-1 6-1h5l3-1h6" style="clip-to-self:true;comp-op:src"/>
<path transform="scale(.1)" d="m7692.5 10023 1-4v-4-3-4l-3-1-4 6-3 4-11 22-5 9-6 10-5 12-12 24-18 42-6 15-6 16-6 15-10 30-5 12-4 12-4 10-3 8-3 7-1 5-2 3v3l4-4 2-3 3-6 3-7 4-8 4-10 4-11 4-12 5-14 10-30 6-16 6-17 7-17 7-18 7-17 7-15 7-14 7-11 6-9 5-7 5-4 3-4 3-1 6 2 4 6 2 6 1 6 2 7 1 8 2 9 2 20 1 11 1 10 1 12 1 13 2 11 2 14 2 12 2 13 2 12 3 10 1 11 2 9 3 7 2 7 2 5 4 6 3 4 3-2v-4l-4-12" style="clip-to-self:true;comp-op:src"/>
<path transform="scale(.1)" d="m7605.6 10212-1-4v-3l3-4 5-3 6-4 4-2 5-3 5-2 5-3 21-6 9-3 18-4 18-7 9-3 23-9" style="clip-to-self:true;comp-op:src"/>
<path transform="scale(.1)" d="m7839.1 10183 3 2 5-1h4 4l10-2h6l7-2h7l7-2 7-1 9-2 8-2 9-1 9-2 10-2 18-4 10-2 16-6 20-7" style="clip-to-self:true;comp-op:src"/>
<path transform="scale(.1)" d="m8150 10038-2-2-2 4-1 4v4 3l-1 4v5 6l-1 6v55l1 10 1 11v12l2 22 1 10 2 10 2 9 2 7 2 6 2 4 3 2 7-6" style="clip-to-self:true;comp-op:src"/>
<path transform="scale(.1)" d="m8161.9 10092-1-4v-3l2-2 4-3 9-5 5-2 6-1 6-2 14-4 24-3 7-1h8 7l6 1 5 2 8 4 2 4 2 5v4l-1 6-3 6-3 7-4 7-5 7-12 14-7 8-15 14-14 12-10 10-3 5-2 3v6l5 3 5 2h5l8 1 7 1h8 9l18 2 10 1 16 2 7 3 6 2 5 3 4 4 2 4 1 4-1 5-2 6-3 5-10 12-14 10-8 5-18 10-19 8-10 4-9 4-10 2-8 3-7 1-7 2-6 1-5 1h-4l-4-2-1-4v-4l3-10" style="clip-to-self:true;comp-op:src"/>
<path transform="scale(.1)" d="m6877.5 10700-2-6-2-4-8-8-6-2-4-2h-4l-4-1-4 1h-5l-5 1-10 4-6 3-5 4-6 4-12 10-13 14-15 24-3 7-2 7-1 7 4 10 3 5 5 4 5 5 12 8 6 3 13 7 6 3 5 4 4 3 4 4 3 5 2 4 1 5v6l-1 6-2 6-3 7-4 7-6 7-5 7-15 15-7 6-9 7-18 10-16 8-9 3-7 1-6 1-5 1-4-1-4-3v-4-4l2-6 3-6 4-6 14-18" style="clip-to-self:true;comp-op:src"/>
<path transform="scale(.1)" d="m6926.6 10870-3-3 1-5 4-2 3-2 4-1 3-2 4-2 10-2h5 4 5l4 2 3 2 4 3 1 4 1 6v6l-1 7-2 8-8 20-6 11-6 12-7 11-8 11-7 11-8 10-8 9-7 9-7 8-12 12-4 5-3 5-3 4-2 3v4l3 3 7 1h4l12-2 6-2 8-1 7-2 8-2 7-2 8-2 7-1 6-1 10-1h4 4" style="clip-to-self:true;comp-op:src"/>
<path transform="scale(.1)" d="m7155.9 10739 4-1h8 4 4l10-2 6-1 5-1 30-5h10l4 1 3 1 4 1-7 9" style="clip-to-self:true;comp-op:src"/>
<path transform="scale(.1)" d="m7167.8 10820 3 2h9l8-2 5-1 6-1 5-1 7-1 7-2 14-2 16-2 8-2 8-1 7-1 7-2 5-1h11" style="clip-to-self:true;comp-op:src"/>
<path transform="scale(.1)" d="m7718.4 10677-3-1-3 3-2 4-1 5-2 6-2 7-3 9-4 11-5 11-5 14-6 14-14 30-7 16-8 16-7 17-7 16-7 17-6 16-5 15-5 14-4 12-3 11-1 9-2 6v4l1 4 8-8 4-5 4-7 5-7 5-8 12-20 6-11 7-12 6-11 7-12 6-13 6-14 7-14 6-15 6-16 14-34 6-17 6-16 7-13 11-22 4-7 3-6 3-3 4-2 2 3 1 4 1 5 1 6v8l1 8 1 9 1 10v11l1 11 2 11 1 12 4 22 2 12 1 10 2 11 3 11 2 9 3 9 3 7 2 8 6 10 2 4 2 3 3 3-2-5-3-8" style="clip-to-self:true;comp-op:src"/>
<path transform="scale(.1)" d="m7671.6 10877v-4l3-4 5-3 3-3 4-2 4-3 4-2 6-4 5-3 6-3 7-3 7-2 7-3 16-6 9-3 14-5 15-5" style="clip-to-self:true;comp-op:src"/>
<path transform="scale(.1)" d="m7940.3 10922-3-1-5-3-3-2-4-4-3-4-1-4-1-3-1-4-2-10v-5-6-6l2-12 4-14 3-7 4-7 3-8 5-8 4-8 12-18 6-10 14-18 8-9 7-8 8-7 8-5 7-4 6-3 7-2h6l5 1 5 2 4 3 4 4 3 4 6 12 2 7 2 16v9 40 11 10l-1 11v20l1 10v8l1 9 2 7 1 7 2 6 4 8 4 3 3-2 6-9" style="clip-to-self:true;comp-op:src"/>
<path transform="scale(.1)" d="m8196.6 10757 1 4 1 3v4l1 5v7l1 7v7 8l1 8v18 10l1 10v11l1 10 1 11 2 20 2 18v12l-1 5v5" style="clip-to-self:true;comp-op:src"/>
<path transform="scale(.1)" d="m8169.1 10773v-2l1-3v-4l4-8 8-6 6-3 6-4 7-4 8-3 9-4 9-3 9-2 11-3 10-2 11-2 20-2h10 9l8 2 7 1 6 3 4 4 3 4 1 6v6l-2 7-4 7-5 9-7 9-8 9-8 10-20 18-11 10-11 9-10 8-9 8-8 6-7 6-4 6-2 4-1 3 5 4 5 1h7l8-1 10-1 11-2 24-4 13-2 14-1 13-1 13-2h25l10 1 8 2 7 2 6 4 4 4 3 5 1 5-1 7-2 6-3 8-5 7-6 7-7 8-8 7-9 7-18 12-10 6-9 4-9 5-27 9-16 4-8 1h-8l-14-2-7-2-14-7" style="clip-to-self:true;comp-op:src"/>
<path transform="scale(.1)" d="m6889.4 11329v-4l-1-3v-4l-2-5-2-2-2-3-3-3-2-1-8-2h-5l-6 1-7 1-8 2-16 6-18 8-8 5-9 6-8 6-16 11-6 7-6 6-5 6-4 6-2 5-1 5 1 5 2 4 3 5 5 4 5 3 7 4 8 3 7 3 18 6 17 6 9 3 14 8 6 4 5 5 4 5 2 5 1 6v6l-3 7-3 6-4 6-6 7-14 12-9 6-8 5-18 10-9 3-16 6-14 4-10 2-5-1 1-4 2-3 5-4 4-5 7-6 18-14" style="clip-to-self:true;comp-op:src"/>
<path transform="scale(.1)" d="m6961.6 11482-3-1-3-2 1-4 4-5 3-2 8-6 6-3 5-3 6-2 7-3 6-1 6-2 5-1 6-1h4l3 1 4 4v3l-1 4-2 5-7 14-5 8-7 8-6 9-7 10-24 27-8 7-7 8-18 18-4 5-3 3-2 4 3 2h7 5l5-1 7-1 6-1h15 7 7l7 1 6 1 5 3 5 2 6 8 1 5v5 5l-2 6-3 6-4 7-4 6-12 12-6 5-8 5-21 12-8 2-7 3-14 2h-6-7l-6-1-10-2-6-6-2-3-2-4v-5l1-5 4-12 9-16" style="clip-to-self:true;comp-op:src"/>
<path transform="scale(.1)" d="m7213.1 11479-1-3 3-4 6-3 5-1 4-1 5-2 6-2 7-2 6-1 8-2 14-2 8-1 14-2h5l5 1 4 1 3 1 3 3-6 6-13 7" style="clip-to-self:true;comp-op:src"/>
<path transform="scale(.1)" d="m7204.4 11533 3 3 5 1h6l4-1 4-2 5-2 6-1 6-3 6-2 7-3 8-2 8-3 24-6 16-2 7-2h6l6-1 4-1h4l4 1" style="clip-to-self:true;comp-op:src"/>
<path transform="scale(.1)" d="m7680.6 11340-4-12v4 4l1 4v6l-1 6v34l1 11v11 13l1 14 2 30 1 16v15l1 16 1 14 2 26 2 12 2 9 2 8 2 7 6 8 5 2 4-5 3-5 2-6 4-21" style="clip-to-self:true;comp-op:src"/>
<path transform="scale(.1)" d="m7686.9 11392-2-2v-4l3-4 6-4 5-3 7-3 6-3 8-3 9-3 30-9 10-2 22-4h10 10l9 1 8 3 6 3 5 4 3 6 1 7v9l-2 8-3 10-11 22-8 11-8 12-9 11-10 11-20 20-10 9-10 7-16 14-7 5-6 5-5 4-4 2-2 3 2 2h3l11-2 7-2 18-4 10-2 10-3 10-2 10-1h10l9-1 9 1h8l7 2 5 3 5 4 3 4 3 6v6 8l-3 8-3 9-5 8-6 10-7 9-9 9-10 9-20 16-11 6-20 12-11 4-10 4-11 2-20 4-11 2h-9-9l-7-2-6-2-5-4-2-4-2-6 1-7 2-9 3-10 13-28" style="clip-to-self:true;comp-op:src"/>
<path transform="scale(.1)" d="m7894.1 11496 1-3 2-3 3-2h6l3-1 5-1h5l6-1 7-2 8-1 8-2 9-2 9-1 10-2 9-2 9-1 16-2h7l5-1h4 8" style="clip-to-self:true;comp-op:src"/>
<path transform="scale(.1)" d="m8143.1 11380-1-4-2-3-2 3-1 3-1 4-1 5-1 6-4 16-1 10-1 11-2 12-4 26-3 14-2 15-3 15-2 15-3 15-2 16-1 15-2 14-1 13v10l-1 8v9l3-1 2-5 2-6 3-8 2-9 8-22 6-24 4-12 3-13 3-15 3-14 2-15 6-32 6-34 4-17 3-17 5-16 9-27 5-11 5-8 3-6 4-3 4-2h3l3 2 4 2 6 10 4 7 3 7 6 18 4 9 6 20 4 11 3 10 8 22 15 45 4 11 3 10 4 9 6 18 3 7 3 6 2 6 2 5 2 3 1 3 3 4 3 2-4-2-3-1-10-3" style="clip-to-self:true;comp-op:src"/>
<path transform="scale(.1)" d="m8137.2 11528 5-4 9-4 5-2 6-2 16-4 8-3 9-2 9-3 9-2 10-2 9-2 10-1 8-2h8l7-1h6 4l5 1" style="clip-to-self:true;comp-op:src"/>
<path transform="scale(.1)" d="m6858.8 12018 2-12 1-8 2-14 1-6 1-5v-4l-1-4-1-3-2-4-2-2-2-3-4-2-3-1-5-1-4 1-6 1-6 2-7 3-8 4-8 5-9 6-9 7-27 24-8 10-7 9-6 9-5 8-3 9-2 7v8l1 6 2 7 4 6 4 5 7 6 8 5 8 4 9 4 10 3 10 4 11 2 10 3 10 2 18 4 8 3 7 3 5 3 4 5 2 4 1 5v6l-2 6-4 6-5 7-14 14-9 7-9 6-10 7-11 6-12 6-11 4-11 5-30 9-7 2-7 1h-5-4l-3-2 2-6 8-8 17-11" style="clip-to-self:true;comp-op:src"/>
<path transform="scale(.1)" d="m6999.1 12108-3-3-4 1-3 2-2 3-3 4-8 10-5 6-5 7-5 6-12 14-5 6-5 7-4 7-4 6-3 6-4 6-2 5-3 6-1 4v4 3l3 5 6 3 4 1 5 1h12l16-2 18-4 10-2 18-4 16-4 7-1 12-2h5 11l-7 1" style="clip-to-self:true;comp-op:src"/>
<path transform="scale(.1)" d="m7010 12089-3 3-2 6-1 4-1 6v6 6l-1 8v8l-1 9v31l1 11v11l1 10 1 11 2 11 2 12 1 10 3 10 2 11 2 9 3 8 2 8 2 5 2 4 2 2 5-2" style="clip-to-self:true;comp-op:src"/>
<path transform="scale(.1)" d="m7183.1 12116 3-4 2-3 9-6 4-2 4-1 11-3 6-1 6-2 7-2 6-1 7-1 6-2 7-1 6-1h5 5 4 5l-4 4" style="clip-to-self:true;comp-op:src"/>
<path transform="scale(.1)" d="m7206.2 12196 4-2 6-2 15-6 6-2 6-3 6-4 7-3 6-3 7-3 6-2 7-1 5-2 5-1h4 3l-1 3" style="clip-to-self:true;comp-op:src"/>
<path transform="scale(.1)" d="m7798.8 12042v-10l-1-5v-5-4l-2-6-3-1-3 4-2 3-2 5-2 6-2 7-3 9-3 10-3 11-3 12-8 28-4 15-4 17-3 16-4 16-3 16-2 14-3 14-2 12-1 9-2 9-1 7v4l-1 4v3l3-2 2-7 2-5 2-6 2-7 6-18 3-11 3-13 3-12 4-14 8-30 5-16 5-17 5-16 12-32 6-14 6-13 5-12 10-18 4-7 7-7 3-1 5 3 3 4 2 5 2 6 4 16 2 10 2 9 2 11 4 20 2 11 3 11 4 22 2 10 3 10 2 9 2 8 3 8 3 7 2 7 2 5 2 6 2 4 2 5 1 4 2 4 1 3 1 5 1 2 1 3v5l-3 2-5 3" style="clip-to-self:true;comp-op:src"/>
<path transform="scale(.1)" d="m7740 12181 1-4 3-5 6-4 4-1 5-2 6-3 6-2 7-3 9-3 8-3 18-7 20-6 10-2 9-3 8-1 6-2 6-1 13-4" style="clip-to-self:true;comp-op:src"/>
<path transform="scale(.1)" d="m8036.9 12024-1-3-1-6-1-3-1-4-1 3-1 4v5 7l-1 8-1 9v33l1 12 1 14 1 13 1 14 2 14 6 26 3 12 3 11 4 10 5 8 5 7 10 10 5 3 6 2 5 2h6 6l5-1 6-2 5-3 6-4 5-5 4-5 8-14 3-8 3-9 2-9 1-10 2-22v-11-12l1-12-1-12v-12-12l-1-10v-8l-1-7-1-6-1-5-1-3-1-4-1 4 1 5 2 8 2 4 1 3v4l6 11" style="clip-to-self:true;comp-op:src"/>
<path transform="scale(.1)" d="m8276.2 12012 1-4v-4l-1 3v19 8l1 8 1 9 2 20 1 11 1 12 3 24 1 13 4 26 2 12 4 22 3 9 2 9 2 7 2 5 2 4 4 4 2-4-1-8" style="clip-to-self:true;comp-op:src"/>
<path transform="scale(.1)" d="m8291.2 12079-3-2-4-4-3-2-2-3 2-3 5-4 4-2 4-3 7-3 7-2 16-6 9-2 10-3 9-2 10-2 10-1 8-1h17l7 1 12 4 4 3 4 4 2 5 1 5v6l-1 7-2 8-8 16-5 9-7 9-6 8-14 16-7 7-7 6-6 6-5 4-8 8-2 3-2 4 1 4 6 1 4 1h12l15-1h8l9-1 8-1h8 9 7l14 3 6 2 6 3 8 8 3 5 1 5v7l-1 6-2 7-8 14-5 7-14 14-16 12-10 6-18 10-9 4-9 3-8 4-9 2-16 3h-8-7l-8-2-7-3-7-2-15-6" style="clip-to-self:true;comp-op:src"/>
<path transform="scale(.1)" d="m7722.8 11919-3-3-3-4-4-1h-3l-8 2-2 2-4 3-3 4-4 4-4 5-4 7-5 7-5 9-5 10-5 11-5 13-12 28-6 15-12 32-6 18-5 18-6 19-8 40-3 21-1 21-2 21v21l1 20 2 20 3 20 5 19 6 18 7 17 9 15 11 13 12 12 14 9 16 8 17 7 17 6 36 6 19 2h18 19l45-5" style="clip-to-self:true;comp-op:src"/>
<path transform="scale(.1)" d="m8493.1 11936 1-6 2-3 3-5 5-2h3 4l3 1 4 1 5 2 5 4 4 3 6 6 7 5 6 8 7 9 7 11 8 13 7 14 7 15 12 32 6 18 4 19 4 20 3 20 4 44 1 23v24l-1 23-2 22-3 21-8 40-5 17-5 15-6 14-7 12-7 11-8 9-7 7-8 7-8 5-8 4-9 2-7 1-17-5" style="clip-to-self:true;comp-op:src"/>
<path transform="scale(.1)" d="m8694.4 11785v-3-4l-2-8v-3-4l-1-3-2-5-1-4v7l1 6v24 11l1 11 1 13 1 12v13l1 13 2 13 2 24 2 12 1 11 1 10 4 21" style="clip-to-self:true;comp-op:src"/>
</g>
<g stroke="#00c0ff" stroke-width="14.1">
<path transform="scale(.1)" d="m1358.4 12468 15-15 4-5 2-5 1-5-2-4-6-4-8-2h-6-6l-16 2-10 2-9 3-11 3-12 4-12 5-12 6-13 6-14 7-28 16-26 18-12 9-11 9-10 8-8 8-12 14-3 6-1 5-1 6 1 4 3 5 8 8 7 3 8 3 8 4 20 4 22 4 24 2 23 2 11 2 18 4 7 3 5 4 4 5 3 5 1 5v6l-2 7-3 7-4 6-5 8-12 14-8 7-8 6-10 6-9 6-21 11-12 4-11 4-12 4-11 3-11 2-11 3-10 2h-9l-8 1h-8l-10-2-3-1-5-3-1-3 2-3 5-3 2-2 4-2 3-2 8-5" style="clip-to-self:true;comp-op:src"/>
<path transform="scale(.1)" d="m1428.1 12666-1 4-4 6-1 4-2 4-2 5-1 6-2 6-2 12-3 21v8l-1 7v7 6 16 4l1 4v3l-1 4" style="clip-to-self:true;comp-op:src"/>
<path transform="scale(.1)" d="m1422.8 12571-2-3v4l2 12 1 5 2 4 2 5 4 3 4 2 5-1h3l5-4 2-2 6-9 1-3 1-4v-4l1-4-1-4v-5l-2-6-4-5-5-3-7-1h-4l-4 1-4 2-5 3-5 4-4 4-5 4-5 6-10 10-12 15" style="clip-to-self:true;comp-op:src"/>
<path transform="scale(.1)" d="m1685.3 12731-3 2h-4l-2-3-2-4-2-8v-4l-1-5v-5-14-8l1-8v-9l4-20 3-12 6-26 5-15 5-16 14-34 8-17 9-16 9-14 9-13 18-18 10-6 8-5 8-3 9-2 7 1 8 2 6 3 6 6 5 7 5 8 4 10 4 11 6 26 1 14 2 14 2 30 1 14v30l-1 14v14l-1 14v12l-1 12v10 9l-1 8v16l1 3 2 3 4-2 3-2 2-4 3-4 6-14" style="clip-to-self:true;comp-op:src"/>
<path transform="scale(.1)" d="m2245.6 12494 1-5 1-4 1-6v-5l-1-5-1-4-2-4-3-3-2-3-3-2-5-1-4-1-6-1-7-1-8 1-9 2-8 2-10 3-9 4-9 6-10 6-10 8-20 18-20 22-9 11-7 11-7 10-4 11-2 9-1 9 2 7 4 8 5 6 7 6 8 4 9 4 10 4 10 3 10 2 20 5 10 1 9 2 8 2 7 1 6 2 4 2 3 2 1 3v3l-3 4-4 5-6 5-7 5-9 5-10 6-22 10-12 4-12 5-13 4-12 3-12 4-12 3-11 2-10 3-9 1-7 2-6 1h-4l-4-1 3-5 12-9" style="clip-to-self:true;comp-op:src"/>
<path transform="scale(.1)" d="m2345.3 12649 3-1 3 2 1 5v9l-1 5-2 7-2 6-2 8-3 9-2 9-2 10-6 20-2 11-3 11-2 11-6 22-2 10-3 10-3 9-3 7-2 7-4 5-2 5-4 4-4 3-8 4-4 1-5 1-10-2-10-6-5-4-5-6-6-6-10-16-12-24" style="clip-to-self:true;comp-op:src"/>
<path transform="scale(.1)" d="m2354.1 12562-4-2-7-2-6 1-5 4-3 5-2 4-1 3v6l2 5 6 6 4 1h4l4 1 5-1h5l5-1 10-4 8-6 6-6 2-4 1-4v-4-5l-2-8-2-4-6-9-4-5-4-3-3-3-5-3-4-1h-4-4l-5 1-4 2-4 3-5 3-4 4-5 4-4 4-8 12" style="clip-to-self:true;comp-op:src"/>
<path transform="scale(.1)" d="m2646.2 12575v-3l3-3 6-1 5-1 12-2 7-1 8-1 7-1 18-2 8-1 9-1h9l10-1h9l9 1 8 1 7 1 7 2 5 2 4 2 2 2 1 5-5 5-12 6" style="clip-to-self:true;comp-op:src"/>
<path transform="scale(.1)" d="m2625.6 12673 3 3h7l5-1 6-1 7-2 7-1 8-2 9-1 8-2 9-3 10-2 9-2 33-6 44-4 9-1h9l7-1h6l6-1" style="clip-to-self:true;comp-op:src"/>
<path transform="scale(.1)" d="m3149.7 12526-1-5-1-4v-5l-2-5-1-3-4-4-5-1-6 2-5 1-5 3-6 4-7 5-7 6-7 8-8 9-7 9-16 22-14 22-6 11-10 22-3 11-1 9v9 8l3 7 4 6 5 5 8 4 9 2 10 1h12l14-1 15-2 15-3 17-4 18-5 16-5 17-5 16-7 15-6 13-7 12-7 10-7 9-8 6-8 5-8 3-9 2-8 1-9-1-8-2-9-4-8-5-8-6-6-8-6-9-5-10-4-11-4-11-2-13-2-12-1h-13l-24 2-10 2-9 2-7 3-6 2-4 3-3 2-2 3 8 3" style="clip-to-self:true;comp-op:src"/>
<path transform="scale(.1)" d="m3221.2 12397-1 4v3l-1 5-1 6-2 7-2 8-3 10-4 12-5 13-4 16-7 18-7 20-8 21-8 23-10 24-8 23-9 23-17 47-7 22-6 22-6 21-6 18-4 16-4 14-3 12-2 10-1 7v6 5l2 3 3 1 3-2 3-3 12-11" style="clip-to-self:true;comp-op:src"/>
<path transform="scale(.1)" d="m3753.1 12531v-3-4-8l-1-4v-4l-1-3v-8l2 6v5 6 16l1 10v9 11 21l1 11v70 6 5 5l-1 3" style="clip-to-self:true;comp-op:src"/>
<path transform="scale(.1)" d="m3748.4 12406-2 5-1 5v5l2 5 3 2 4 2h5l6-2 9-6 4-3 8-10 3-4 2-5 1-3 2-4v-4-4-3l-1-4-1-3-4-6-5-3h-3-3-4l-8 4-5 4-14 14-10 12-13 26" style="clip-to-self:true;comp-op:src"/>
<path transform="scale(.1)" d="m3977.8 12456 2-7 2-6 3-8 3-16 2-7 2-14v-15l-1-7-1-6-2-7-2-5-3-6-3-4-4-4-4-3-3-1-5-1-4 1-5 2-6 4-5 5-5 7-5 8-5 9-4 10-5 12-4 13-4 14-3 16-4 18-2 20-2 21-3 69v24l1 21 1 20 2 19 1 18 3 16 2 15 3 14 3 13 3 12 3 10 2 9 4 8 2 6 3 5 3 3 5 3 4-2 2-3 2-4 1-4v-5l-2-16" style="clip-to-self:true;comp-op:src"/>
<path transform="scale(.1)" d="m3840.6 12616-1-3v-3l2-4 3-4 6-4 8-6 5-3 12-6 16-6 9-2 10-3 11-3 21-6 10-3 25-8" style="clip-to-self:true;comp-op:src"/>
<path transform="scale(.1)" d="m4411.2 12461v-3l-2-6v5 4 6l1 6v27l-1 12v26 14l-1 14v27l1 14v11l1 10 2 10 2 8 1 6 3 6 1 4 3 4 8-9" style="clip-to-self:true;comp-op:src"/>
<path transform="scale(.1)" d="m4411.2 12356-2-2-4-5-3-2h-3l-5-1-4 1-3 3-5 6-1 4-2 4-2 5-1 6v6 6 6l1 6 4 12 2 5 3 5 8 6 4 2 6 2h5 6l5-2 6-1 6-2 5-4 5-3 8-8 2-4 2-6v-5-5l-2-6-1-6-3-6-4-6-3-7-12-18-9-9-5-2-5-1h-4l-5 1-10 8-4 5-4 7-3 7-2 7-2 20" style="clip-to-self:true;comp-op:src"/>
<path transform="scale(.1)" d="m4660.3 12515h-4l-5-1h4 4l12-2 16-2 8-2 11-2 10-1 12-2 12-1 25-3 39-3h24 11 10l9 1 7 1h6l4 2 3 1 3 3-2 3-2 2-8 4-6 1-6 2-6 1-21 5" style="clip-to-self:true;comp-op:src"/>
<path transform="scale(.1)" d="m4636.9 12595-3 3-2 4 6 2h14 6l8-1 9-1 10-1 12-2 12-1 14-2 16-3 15-1 17-3 17-2 16-3 17-2 16-2 30-4 14-1 12-1 11-1h9 8 5l5 1 3 1-4 3h-4l-4 1h-6-13l-7-1-24-2" style="clip-to-self:true;comp-op:src"/>
<path transform="scale(.1)" d="m4785.3 12405 2-3-1 5-5 10-2 5-3 6-2 7-4 8-2 9-4 10-4 12-4 14-5 15-5 17-9 36-5 17-5 18-4 17-5 16-3 16-3 15-2 13-2 12-1 11-1 9v7 9l5-2" style="clip-to-self:true;comp-op:src"/>
<path transform="scale(.1)" d="m5125.9 12442-3-4-2-5v6 4l1 5 1 6 1 7 1 8v10l1 11v42l-1 17v16l-1 17-2 16v15l-2 14-1 14-4 26-2 12-2 10-3 11-3 9-2 9-3 8-3 6-4 6-4 4-3 4-5 3-4 2-6 1h-5-7l-6-1-7-2-8-1-7-4-9-5-8-6-7-6-8-8-8-9-7-10-15-28" style="clip-to-self:true;comp-op:src"/>
<path transform="scale(.1)" d="m5085.6 12323-5 1-4 1-3 2-4 2-3 3-4 3-3 4-2 4-3 5-2 5-1 5v11l1 5 2 5 3 4 4 4 5 3 5 1 6 2h7l7-1 9-1 18-6 9-4 10-5 8-5 14-12 4-6 3-5 2-6v-5l-2-6-3-5-4-4-6-4-7-4-9-1h-10l-12 1-13 3-14 4-15 5-14 6-31 17" style="clip-to-self:true;comp-op:src"/>
<path transform="scale(.1)" d="m2659.7 13124h-5l3 2h4l4 1h4 7 31 10 10l10-1h32l10 1 18 2 8 1 7 2 7 1 10 4 4 1 3 2 4 3-9 8" style="clip-to-self:true;comp-op:src"/>
<path transform="scale(.1)" d="m2698.8 13216h-4 5l6-2 10-2 6-1 8-1 8-2 9-2 11-2 12-3 13-2 15-3 14-4 31-7 15-3 14-4 13-4 30-8" style="clip-to-self:true;comp-op:src"/>
<path transform="scale(.1)" d="m3192.5 13035-1-6-2-5-6-12-3-4-4-3-8-4-4-1h-5l-5 1-6 1-6 2-7 4-6 4-14 10-7 6-7 7-6 7-7 8-12 18-10 18-4 9-3 10-2 8v9l1 8 3 8 3 6 12 14 8 7 8 6 9 6 11 6 18 11 9 7 8 5 7 6 5 6 4 7 2 7v6l-2 7-3 8-4 7-5 7-7 6-8 7-8 6-9 5-10 6-20 8-20 6-9 2-18 2-7 1h-19l-4-1h-2l-2-3 2-5 3-3 12-8" style="clip-to-self:true;comp-op:src"/>
<path transform="scale(.1)" d="m3255.9 13226 1 3v17l-1 5v5l-1 6v6l-1 5-1 7v6l-1 6v6 5 5 6 4l-1 4v3l-1 5-4-1" style="clip-to-self:true;comp-op:src"/>
<path transform="scale(.1)" d="m3288.4 13072h-3l-4 2-5 3-7 7-2 4-2 3-1 3-2 3-1 4v3 3l1 3 4 4 3 2 4 1 5 1h4l6-1 6-2 6-1 10-6 8-6 3-4 1-4 2-4-1-3-1-4-3-3-3-4-4-4-4-2-5-3-6-3-5-2-12-2h-6l-6 1-7 1-7 2-7 3-5 2-10 8" style="clip-to-self:true;comp-op:src"/>
<path transform="scale(.1)" d="m3728.8 13045-3 4-1 4-1 5-2 5v7l-1 8-1 7-2 8-3 27-2 8-1 9v9l-1 8v9 8l1 7v7l2 6 1 5 2 4 1 3" style="clip-to-self:true;comp-op:src"/>
<path transform="scale(.1)" d="m3733.4 12972-2-2-1 4-1 6v3l-1 4v12l3 12 2 4 2 3 3 3 2 3 2 2 4 1 2 1 6-1 4-2 3-4 2-6 1-4v-8-5l-1-4-1-5-2-5-2-6-1-5-2-5-2-6-3-4-2-5-2-3-6-5-2-2h-6l-6 4-2 3-6 8-2 5-3 5-1 5-2 6-2 11v4 5 10" style="clip-to-self:true;comp-op:src"/>
<path transform="scale(.1)" d="m3984.7 13024-1-4-2-4-4-10-6-8-4-4-4-2-3-3-4-1-5-2-4-1h-5l-4 1-5 2-4 2-4 3-4 5-4 4-6 12-2 7-1 8-2 9v10l-1 11v12l1 12v14l1 13v14l1 14v14l1 15v15 14 14l1 15-1 13v12 12l-1 10-2 16-1 6v5l-4 8-3-1-8-4" style="clip-to-self:true;comp-op:src"/>
<path transform="scale(.1)" d="m3813.1 13216 3-5 2-3 2-4 5-5 3-2 4-3 5-2 5-4 14-6 16-6 9-3 10-3 9-2 21-6 10-3 9-2 23-7" style="clip-to-self:true;comp-op:src"/>
<path transform="scale(.1)" d="m4448.8 13071-8-12-5-2-4 1-6 8-2 5-3 4-2 6-4 16-2 9-2 10-2 11-1 11-1 12v11 11l2 22 2 9 3 9 3 7 4 6 6 4 5 3 7 1h6l8-2 7-4 8-5 7-5 14-17" style="clip-to-self:true;comp-op:src"/>
<path transform="scale(.1)" d="m4405.6 12933-4-3-3-2-4 2-3 6-1 3-2 4-4 20v5 4l2 5 1 4 3 4 2 4 5 3 4 2 5 2 5 1h6l12-2 6-2 6-3 10-6 4-4 4-5 2-4 2-5 1-5-1-5-2-12-3-6-2-6-6-10-7-7-4-1h-4l-4 1-5 2-8 8-3 6-4 5-2 6-1 17" style="clip-to-self:true;comp-op:src"/>
<path transform="scale(.1)" d="m4626.2 13145 3-4 5-3 4-2 4-1 12-2 7-1 8-1 27-3 20-2 9-1 10-1h33l5 1h5 3l4 2" style="clip-to-self:true;comp-op:src"/>
<path transform="scale(.1)" d="m4627.2 13233v4l3 2h5 4l12-2 7-1 8-2 18-5 11-2 11-3 12-2 12-3 12-2 24-6 40-12" style="clip-to-self:true;comp-op:src"/>
<path transform="scale(.1)" d="m5009.7 13083-3-3-4-2-3 4-1 3-1 4-2 10-1 7-2 16-1 19-1 11-2 24v13l-1 14v15l-1 16-1 15-1 16-1 15-2 15-1 13-2 14-2 11-2 10-3 9-3 8-4 7-4 5-4 6-10 8-6 3-6 2-7 1-6 1h-8l-7-1-8-2-8-3-9-3-8-5-8-6-7-6-7-9-17-24" style="clip-to-self:true;comp-op:src"/>
<path transform="scale(.1)" d="m4980.9 12958-3-2-4-2-6 1-2 2-3 2-4 3-6 6-6 8-2 5-3 4-1 5v5 5l1 4 2 4 6 8 5 3 6 2 7 1 8 1h8 9l9-1 8-2 9-1 8-3 6-4 7-3 4-3 3-5 2-4 1-5-1-5-2-5-3-6-3-5-5-5-7-5-7-4-8-3-9-2h-11l-12 1-13 2-12 3-13 4-33 11" style="clip-to-self:true;comp-op:src"/>
</g>
<g stroke="#ff7f00" stroke-width="14.1">
<path transform="scale(.1)" d="m6781.6 12986-1-5-3-4h-4l-5 3-4 6-6 8-2 5-3 5-6 12-3 7-3 8-3 10-4 10-3 11-5 12-5 13-5 12-5 14-6 14-6 13-12 24-6 10-4 9-5 8-3 7-4 6-2 6-2 4-4 6v-5l1-4 2-4 2-6 6-16 3-9 9-20 5-11 4-13 6-14 5-15 7-16 6-17 7-17 7-18 16-35 15-30 7-12 6-9 4-7 4-4 2-3 4 3 1 4 2 10v6l1 8 1 7 2 16 2 9 1 10 3 10 2 11 3 12 4 13 6 28 4 15 4 13 3 14 3 12 4 12 2 11 3 11 3 9 2 9 4 14 2 6 4 8 2 2 4 2h3l4-5 2-8v-6l-1-6-5-15" style="clip-to-self:true;comp-op:src"/>
<path transform="scale(.1)" d="m6743.1 13132-4-2-5-2-9-2-2-2 9-6 5-1 5-2 7-3 16-4 9-3 10-3 11-2 12-2 22-6 12-2 11-1 20-4 9-2 20-5" style="clip-to-self:true;comp-op:src"/>
<path transform="scale(.1)" d="m6992.2 13066-1-3h5 5l3 1h4l4 1h26l7-1h13l6 1h5l4 1h4l6 2" style="clip-to-self:true;comp-op:src"/>
<path transform="scale(.1)" d="m6999.1 13148-3 2 2 3 3 2 6-1 4-1 5-1 6-2 8-2 9-2 10-2 12-3 12-2 52-8 12-2 9-1 19-3" style="clip-to-self:true;comp-op:src"/>
<path transform="scale(.1)" d="m7481.9 12970 2-4 1-3 2-4 1-5 1-3v-3-5l-1-3-5-1h-6-4l-4 1-5 2-6 2-7 3-8 3-8 5-8 4-10 6-9 6-11 7-10 6-11 8-10 7-18 14-8 7-6 6-5 6-2 6-1 4 1 6 3 4 5 4 6 4 7 4 10 4 20 6 24 6 13 2 24 6 23 7 10 4 9 3 8 4 7 5 6 4 4 4 4 8v4l-2 4-3 4-4 4-5 4-7 4-8 3-9 3-30 9-11 2-12 2-11 2-12 1-11 2-11 1h-10l-9 1-8 1h-18l-4-2 3-3 3-2 5-3 12-6 20-7" style="clip-to-self:true;comp-op:src"/>
<path transform="scale(.1)" d="m7550 13116 1-3-3 2-2 4-2 6v4l-1 5v10l1 7v7l1 7 3 25 1 8 2 8 1 7 2 7 1 7 2 6 1 5 2 4 2 6-3-5" style="clip-to-self:true;comp-op:src"/>
<path transform="scale(.1)" d="m7662.2 13001-1-5-2-4-2-3h-4l-2 3-3 6-1 4-2 6-1 6-1 7-1 8-1 9-1 10v12 11 12l1 13 1 12 6 22 3 9 4 9 10 12 6 5 6 4 7 2 7 1 8 1 8-1 9-1 8-3 9-3 8-5 8-4 7-6 6-7 6-6 5-8 4-8 3-9 2-10 1-11 1-12v-13l-3-40-2-13-4-20-3-8-4-6-3-4-3-3-4-3-3-1-4 2-4 6-1 5v5 6l1 6 2 7 1 6 2 7 6 10 9 13" style="clip-to-self:true;comp-op:src"/>
<path transform="scale(.1)" d="m8012.8 12980v-4l-1-3v-5l-6-9-3-2-3-1-3-2h-4l-4-1-4 1h-5l-8 4-5 2-5 3-4 4-4 5-5 5-3 6-4 6-3 7-2 6-2 7v7l1 6 4 14 8 12 5 6 5 7 6 5 6 6 7 5 6 5 6 6 6 4 11 10 3 4 4 4 3 4 2 3v4 3 3l-5 5-4 2-4 3-5 2-6 2-5 1-7 1h-6l-6 1h-6l-6 1-6-1h-6l-5-1h-5l-4-1-3-1-5-4 1-6" style="clip-to-self:true;comp-op:src"/>
<path transform="scale(.1)" d="m8124.1 13113-2-4-3-4-1-3 1-4 4-3 3-3 4-2 4-1 5-2 6-2 6-1 5-1 7-1h6l12 2 5 3 4 2 4 3 3 4 1 4 1 5-2 12-3 6-8 14-6 7-7 7-6 7-7 7-8 7-6 6-7 6-12 10-10 8-4 3-3 3-2 3-1 3 3 4h6 5 5l6-1 7-1 16-2 27-3 10-1h9l8-1 7-1h14l-2 4-5 2-17 7" style="clip-to-self:true;comp-op:src"/>
<path transform="scale(.1)" d="m6771.9 13608-3-1v10 4l2 5v5l1 7v7l1 8 1 9v9l1 9 2 20v11l1 11v11l1 11v10 11l1 10v9l1 9v9l1 7v7l2 12 1 3 1 4 2 6 3-4 1-3v-3l-1-11" style="clip-to-self:true;comp-op:src"/>
<path transform="scale(.1)" d="m6781.6 13633-3-4-3-5-1-3 4-4 5-4 10-4 6-2 7-3 7-2 8-2 9-2 8-3 10-2 9-1 10-2 10-1h9l8 1 8 2 7 2 5 4 5 5 2 6 2 8 1 8-2 9-2 10-4 10-5 10-6 11-14 20-9 9-8 9-8 8-8 7-7 6-8 6-6 4-6 5-10 6-5 4 4 1 4-1 5-1 12-2 7-1 7-2 9-1 16-2h8 8 8l7 2 8 2 6 3 5 3 5 4 3 4 3 5 1 5 1 7-1 6-3 7-3 6-10 14-7 7-16 12-8 5-9 6-18 8-10 3-9 3-8 2-10 1-8 1h-16l-6-1-7-1-4-2-4-3-4-8 1-5 1-7 3-7 4-7 4-9 15-21" style="clip-to-self:true;comp-op:src"/>
<path transform="scale(.1)" d="m7052.8 13697-4-1 4-4 5-1 4-1 6-2 7-2 8-2 17-4 27-6 9-1 8-1h8 8 6l5 1h4l3 3-5 6" style="clip-to-self:true;comp-op:src"/>
<path transform="scale(.1)" d="m7050.9 13759-3 2-2 3 3 3h8l4-1 5-1 6-1 14-4 8-2 10-1 10-3 30-6 10-3 9-4 22-8" style="clip-to-self:true;comp-op:src"/>
<path transform="scale(.1)" d="m7531.2 13605 3-7 5-15 2-7 1-7 1-6 1-5v-5l-1-3-2-3-3-3-3-1-10-2-7 1-8 2-8 3-10 3-9 5-11 5-10 7-11 7-11 8-11 9-10 10-18 20-8 11-6 10-5 10-2 10-2 9v8l1 8 6 14 4 7 6 6 6 5 14 10 8 5 8 4 7 4 7 3 7 4 6 3 5 4 4 3 3 3 2 6-2 5-3 3-5 3-4 3-6 3-6 2-6 3-7 2-6 2-7 2-6 2-12 2-5 1h-5l-6-2-1-7" style="clip-to-self:true;comp-op:src"/>
<path transform="scale(.1)" d="m7553.8 13767-3-1-3-2-1-4 2-2 6-4 8-4 6-1 4-1h6 5 5 5l4 2 3 1 4 3 2 3 1 4 1 5v5l-1 5-1 7-3 7-8 14-6 8-5 7-7 8-6 7-45 45-3 2-3 4 4 3h3 4 6 6l21-3 8-1 9-1 8-1 18-4 8-1 7-2 16-4 7-2 6-1 6-3 12-3" style="clip-to-self:true;comp-op:src"/>
<path transform="scale(.1)" d="m7782.8 13640-2-3-3-2 1 5 1 3 1 5 1 4 4 12 4 15 4 16 1 9 2 9 2 10 4 18 3 9 2 8 3 8 2 6 3 6 4 4 3 4 4 2 3 2h4l3-1 4-1 3-3 4-3 8-8 4-5 3-7 3-6 3-7 3-8 1-8 2-9 3-11v-11l1-12 1-13v-14l1-15v-47l-1-7v-4l-1-3-1 6v5l1 5v6l1 6v7 14 6 14" style="clip-to-self:true;comp-op:src"/>
<path transform="scale(.1)" d="m8177.8 13561-2-2-5-4-3-2-8-2h-4l-5 1h-5l-6 1-5 1-14 4-8 2-7 2-8 4-9 3-7 4-8 5-7 6-7 5-7 6-5 7-4 7-3 7-2 6v7l1 7 2 6 4 6 6 5 7 5 8 5 18 8 10 3 11 4 10 4 11 3 9 4 10 3 8 4 16 6 6 4 5 4 4 4 3 4 1 4-1 4-1 5-3 4-4 5-5 4-6 4-7 4-8 5-16 6-9 4-8 2-9 2-16 4-14 2-6 1h-6-4-4l-3-1 1-3 11-8" style="clip-to-self:true;comp-op:src"/>
<path transform="scale(.1)" d="m8247.5 13766-4-3-4-2-2-2 2-4 6-3 3-1 5-2 5-1 5-2 7-1 5-1h6l7-1h18l5 1h5l4 1 4 2 3 1 2 5v4l-2 3-1 4-3 5-4 5-5 4-10 10-6 5-7 5-18 12-6 3-5 4-5 3-3 3-4 2-2 3-1 3 5 1h4 5 11l7 1 6 1 7 1 6 1 7 1 7 2 12 4 5 3 4 2 4 3 4 6v4l-2 3-2 4-4 4-4 3-5 4-7 3-7 5-7 3-9 3-9 4-10 3-9 3-10 3-10 2-9 2-10 2-16 2-12 2h-3l-4-1 2-3 2-2 11-7" style="clip-to-self:true;comp-op:src"/>
</g>
<g stroke="#f0f" stroke-width="14.1">
<path transform="scale(.1)" d="m1044.7 13658-2-5-1-4-1 3v4 6l-1 6v9l-1 10-1 11-1 14-1 16-1 17-1 19-1 21v21 23 23l1 23v23 43l1 19-1 18v16 14l-1 13v12l-1 10-1 9-1 8-1 7-2 10-2 4-2 3h-4l-3-5-2-5-2-12-2-18-2-24-1-14v-15-18-19l1-20 1-22 3-24 2-24 3-25 4-26 4-25 5-24 5-23 6-21 6-19 6-18 6-15 7-13 6-11 6-10 6-9 6-7 5-6 6-5 5-4 4-2 8-2 4 1 6 4 3 4 3 5 2 7 1 8 1 9v11 12l-2 14-4 32-7 36-5 18-4 19-5 18-5 17-5 15-5 14-5 12-5 11-4 9-5 7-5 6-9 9-5 2-3 2-4 1h-5l-4-1-2-3 1-4 2-4 3-3 2-3 3-2 3-1 4-2 3-1 8 2 4 2 5 4 4 4 4 6 5 6 10 16 5 10 6 10 5 11 12 24 6 13 7 12 5 12 12 20 7 9 6 8 7 6 7 5 7 4 7 3 7 2 6 1h6 6l4-2 5-2 3-2 3-3 7-14" style="clip-to-self:true;comp-op:src"/>
<path transform="scale(.1)" d="m1247.2 13998-6 4-2 4 2 2 5 1 5-2 3-3 4-3 4-4 6-5 5-6 7-7 6-7 7-7 5-8 7-7 5-8 4-7 4-6 3-5 2-6 1-4v-4l-1-3-4-4h-3-4l-5 2-6 3-5 4-6 6-5 7-6 7-6 10-5 10-5 11-8 26-3 13-2 14-1 13-1 12 1 11 2 11 2 9 3 7 4 7 4 4 6 4 6 3 6 1h7 9l8-1 9-3 9-4 10-4 10-5 9-7 9-8 8-8 16-21" style="clip-to-self:true;comp-op:src"/>
<path transform="scale(.1)" d="m1397.5 13918v4 4 3 4l-2 10-1 7v7l-1 8v9l-1 10v10 10l-1 9v36l1 7v6l1 3 1 4 1 3 3-3 1-3 1-4 1-5 1-7 4-14 1-9 4-20 4-22 6-22 3-9 3-8 4-7 2-5 3-4 3-2h4l4 4 2 4 2 6 1 7 4 18 1 11 2 10 1 11 1 12 2 10 1 10 2 10 2 16 1 7 2 5 1 4 1 3 3 2 2-2 2-3 3-5 3-6 2-7 3-8 4-10 3-10 3-12 3-13 4-13 3-14 4-13 8-22 4-8 3-7 3-4 3-3h4l2 7 1 6 1 7v9l1 10 1 11v11l2 24 2 12 1 11 2 11 2 10 2 9 6 16 8 10 3 3 5 2h4l4-2 4-3 4-5 3-5 9-18" style="clip-to-self:true;comp-op:src"/>
<path transform="scale(.1)" d="m1605.6 14020v5l1 3 1 5 4 4 4 3 5 1 9-3 3-2 5-4 4-3 5-5 4-5 6-6 5-6 6-7 4-8 5-8 9-16 3-8 3-9 1-8 2-8v-7-6-5l-2-4-3-3-7 2-4 3-10 10-5 9-6 9-6 11-5 13-6 13-5 15-4 14-3 13-3 14-2 24v11l1 10 2 9 3 7 3 6 5 5 5 4 6 2h8l8-1 9-3 11-4 11-6 12-8 13-9 12-10 29-30" style="clip-to-self:true;comp-op:src"/>
<path transform="scale(.1)" d="m1790.9 13944-6 4-1 3v5l2 10 1 4v6l1 6v7l1 8 1 7 1 8v8l1 7v7l1 7 1 6 1 5v4l1 4 2 5 3-2 1-3v-4l2-5 1-5 2-7 1-7 2-8 4-18 2-11 4-10 3-11 5-11 8-18 5-7 5-6 4-5 4-4 4-2 4-1 5 2 3 2 2 4 1 6 2 7 1 7 2 10v10l1 10 1 11v11l1 10 1 9v9 7l2 6v5l2 8 4-8 4-10 6-14 3-8 5-9 4-9 10-20 12-22 7-9 6-9 6-8 5-6 10-10 5 2 1 7v11l-1 8v9l-1 10v10l-2 22v11l2 18v8l2 7 2 6 2 4 2 2 5 1 3-2 3-4 2-4 4-7 9-20" style="clip-to-self:true;comp-op:src"/>
<path transform="scale(.1)" d="m2059.7 13740-3 2-4 5-2 4-2 5-1 6-2 7-1 8-2 18-1 11v12 39l2 30 1 16 6 51 2 16 3 15 2 13 3 10 1 7 3 5 2 3 3 2 4-5 3-4 6-13 4-8 5-9 5-10 5-12 6-11 21-33 8-9 7-8 14-12 6-5 10-5h5 3l3 2 1 3 1 5v6l-1 6-1 8-3 9-3 10-4 10-4 11-5 11-6 12-7 12-7 10-8 10-16 18-9 7-9 6-8 5-8 3-8 2-6 1h-6l-6-1-4-2-4-3-2-5-1-5-1-7 1-8 2-9 11-26" style="clip-to-self:true;comp-op:src"/>
<path transform="scale(.1)" d="m2255 13972 5 2h4 3 4l3-2 4-2 3-2 4-4 3-5 4-5 6-11 3-5 3-6 2-7 2-5 2-12 1-5v-5-5l-1-3-2-3-4-3h-7l-4 2-4 3-5 4-4 5-5 6-4 7-5 8-4 9-4 10-3 10-4 20v10 9l1 9 2 8 3 7 3 5 5 5 4 3 7 3 6 1 16-2 16-6 8-4 16-10 8-7 14-14 8-9 24-32 5-6 4-7 4-6 4-5 2-4 2-3 3-3 2 3v12l-1 6-1 7v38l1 10 1 12 1 10 1 12 1 10 4 18 2 7 1 6 1 5 1 4 1 3v3l-4-4-1-3-4-8-1-6v-7-7-9l1-10 3-11 3-12 4-13 6-14 6-13 14-26 7-12 8-11 9-10 8-10 8-8 6-9 7-7 4-6 9-10" style="clip-to-self:true;comp-op:src"/>
<path transform="scale(.1)" d="m2795.6 13765 2-8v-4-3l2-4 4 2 3 7 1 5v7 7 10l-1 11-1 14-2 14-1 16-2 18-1 18-2 20v21l-1 22v22 21l1 20 1 18 3 16 3 13 3 11 4 8 5 5 5 3 7 1 6-2 7-2 13-13 5-9 11-25" style="clip-to-self:true;comp-op:src"/>
<path transform="scale(.1)" d="m2731.2 13940h-5l-6-1 4-4 5-3 6-3 7-4 8-6 20-12 12-7 12-8 13-7 13-8 13-9 14-9 26-18 12-9 11-8 10-7 9-6 6-7 6-4 4-4 3-2-1 7-2 6-2 7-2 8-3 11-3 12-2 12-2 14-1 15-2 16-1 16v18l-1 17 2 32 1 13 2 12 2 9 2 8 3 5 3 4 3 3h3 4l4-1 4-3 4-4 4-5 5-6 4-7 6-9 4-9 5-10 12-33 5-10 5-9 3-8 5-7 3-6 3-4 2-3 4-2 2 4v3 6l1 6v38 11l1 12 1 11 2 11 2 10 4 16 4 6 4 4 4 3 5 1h6l6-2 12-8 7-6 7-7 5-9 6-9 8-20 3-12 3-10 1-11 2-11 1-10 1-9 1-8 1-5v-5l-2 5-1 5-1 7-1 8-1 10v10 10 11l1 12 1 11 1 10 3 10 2 9 3 7 3 6 3 5 4 2 4 1 3-2 3-3 4-5 6-19" style="clip-to-self:true;comp-op:src"/>
<path transform="scale(.1)" d="m3127.8 13797-2 3-1 4-2 4-2 5-3 6-2 5-2 6-1 6-1 5v5 4l1 4 1 3 3 5 3 1h7l4-1 5-1 10-6 9-7 4-5 3-5 3-6 2-10-1-6-1-5-2-6-2-4-3-5-3-4-4-3-4-2-5-2-3-1h-4l-3 1-3 2-3 3-3 4-2 5-2 12-1 8v7l1 8 2 9 6 25" style="clip-to-self:true;comp-op:src"/>
<path transform="scale(.1)" d="m3313.4 13929 2-5v-6l1-7v-7l-1-6-1-7-2-5-3-5-8-8-5-3-5-2-7-1h-13l-6 1-7 2-12 6-10 10-4 6-3 7-2 7-1 6v8l1 7 2 7 4 8 4 6 5 7 7 6 7 5 16 10 8 4 8 5 8 4 7 5 6 4 5 4 4 5 2 4v5l-1 4-2 5-5 5-5 4-6 5-16 8-8 3-17 4-8 1h-7-6-5l-5-1-3-2-3-4-1-4v-13" style="clip-to-self:true;comp-op:src"/>
<path transform="scale(.1)" d="m3493.4 13665-3 6-1 6-1 7-1 9-2 11-1 12v13l-1 14v31l1 16 1 17 1 15 2 17 2 16 1 15 2 15 1 15 2 14 4 36" style="clip-to-self:true;comp-op:src"/>
<path transform="scale(.1)" d="m3486.2 14054 1 3-1 5v4l-2 10-2 12v7l-2 14v7l1 7 2 12 2 6 3 4 2 5 3 3 4 3 8 2 3-1 5-1 8-6 4-4 3-4 4-6 2-6 3-6 2-14 1-8-1-8-1-7-4-16-3-7-4-7-5-6-5-5-6-4-6-3-7-1-9 1-8 2-18 8-19 17" style="clip-to-self:true;comp-op:src"/>
<path transform="scale(.1)" d="m1445.3 13803 539-483-97 20 97-20-31 94" style="clip-to-self:true;comp-op:src"/>
</g>
<g stroke="#fff" stroke-width="14.1">
<path transform="scale(.1)" d="m2378.9 4429.2 1-4v-3l1-4 1-5 1-4 1-3 1-4v-3l-1 4-1 3-1 4-2 5-2 7-3 9-8 22-5 14-5 15-12 34-6 18-8 18-6 19-14 34-6 16-7 14-5 14-6 12-4 10-4 9-3 7-3 4-2 4-2 2v-6l1-5 2-6 1-7 3-9 3-10 4-10 4-12 5-12 5-13 12-28 7-16 7-17 8-18 9-19 8-19 9-19 9-17 10-17 8-14 8-13 7-11 6-9 5-8 4-6 3-4 2-3 1 3-1 3v4l-1 5-1 6v13l1 7v8l1 9 4 20 2 12 3 13 4 14 8 32 8 34 12 48 4 15 4 14 5 14 4 12 3 11 4 10 3 9 3 7 3 6 2 5 4 8 2-5v-4-6l-5-16" style="clip-to-self:true;comp-op:src"/>
<path transform="scale(.1)" d="m2319 4587v-4l-1-4 1-3h3l6 2h4 5l5 1h7l7-1h8l10-1 9-1 11-2 11-1 21-4 10-1 9-3 8-2 16-8" style="clip-to-self:true;comp-op:src"/>
<path transform="scale(.1)" d="m2568.6 4256.3-1-3-1-4-2-3-1-4-1-3v-3l2 5v3l1 5v6 25 11l-1 13v14 14 42 13 12l1 10 1 19" style="clip-to-self:true;comp-op:src"/>
<path transform="scale(.1)" d="m2736.7 4504.6 4-3 6-3 5-1 5-2 14-4 8-2 9-2 10-2 9-2 11-1 10-2 11-1 21-2h10l10-1h9l8 1h7l6 1 5 1 8 4-5 5" style="clip-to-self:true;comp-op:src"/>
<path transform="scale(.1)" d="m2794.6 4550.8-3 2-3 3-2 3-2 6 2 2h6l4-1 5-1h7l8-1 9-2 9-1 11-1 11-2 11-1 12-1 11-2 12-1 11-1h11l10-1h8 7 6l3 1h5l-4 3" style="clip-to-self:true;comp-op:src"/>
<path transform="scale(.1)" d="m3354.6 4242.1 1-3 2-4 4-10 1-4 2-10 1-3v-4-4l-1-6-1-3-3-5-5-3-3-2-4-1h-4-5-6l-6 1-6 2-16 6-8 4-18 12-18 16-8 9-9 9-7 10-7 11-5 11-4 10-3 11-1 10v10l2 9 2 8 4 8 5 7 6 6 7 6 8 4 8 5 9 4 10 3 10 4 10 3 9 4 9 3 7 4 6 3 4 5 4 4 1 6 1 5-1 6-2 6-4 6-4 7-18 18-14 12-8 5-6 5-7 5-7 4-5 3-6 3-4 3-5 5 4 1h3 5l5-1h6l14-2h8l7-1h8l6 1h7l6 1 5 2 4 3 3 3 2 4 1 4v5l-1 6-2 6-4 6-4 7-5 7-18 21-14 12-6 6-7 6-6 5-14 12-6 5-6 6-5 6-4 5-4 6-3 4-2 5-1 4v3 4l4 8 3 4 4 4 3 5 5 4 4 5 6 4 7 4 7 5 9 4 8 3 10 4 10 2 10 3 20 2 9 1h9l8 1h8l7 1h6 5l4 1h4 5" style="clip-to-self:true;comp-op:src"/>
<path transform="scale(.1)" d="m3624.3 4404.6-3-1-4-1-5-1-8-3-3-3-1-3 2-3 4-3 5-3 4-2 4-1 6-2 5-2 6-1h6l7-1 6 1 7 1 5 2 6 2 8 8 4 5 2 6 2 7 1 7v9l-1 9-2 10-3 10-4 12-4 11-12 24-14 22-8 10-7 10-7 9-22 22-7 6-6 4-5 4-4 3-4 2-3 2h-3l1-3 2-3 8-8 4-5 6-5 7-7 7-6 18-16 22-20 36-33 12-13 23-23 10-11 9-10 7-9 6-7 4-6 3-5 2-4v-3-3l-3-1-4 2-5 6-3 4-2 5-4 6-4 7-3 9-4 9-3 9-4 11-9 33-2 12-2 10-2 11v9 9 7l2 6 2 5 3 5 3 3 5 3 4 1 6 1h6 7l24-6 10-3 9-3 24-9 6-2 10-5 4-1 4-3-2-6" style="clip-to-self:true;comp-op:src"/>
<path transform="scale(.1)" d="m4027.1 4367.1-2-4-2-3-3-2-5-2h-5l-3 2-3 1-4 3v4l2 5 1 3 2 3 2 4 1 4 2 3 2 11" style="clip-to-self:true;comp-op:src"/>
<path transform="scale(.1)" d="m4030 4572.3v-3l-3-9-1-5v-3l3-1 2 2 4 3 3 2" style="clip-to-self:true;comp-op:src"/>
<path transform="scale(.1)" d="m4333.7 4422.7 1-3 2-3 9-9 4-2 3-3 5-3 4-3 5-3 5-2 6-3 12-4 6-1h7l6-1 6 1 5 1 5 2 4 3 6 10 2 6 2 16-1 10-1 11-6 24-3 14-5 13-4 13-6 13-6 12-12 20-6 9-6 7-7 7-5 6-6 4-4 4-5 3-4 2-3 2-4 2-1-3 4-5 2-4 3-4 4-5 10-12 6-7 8-8 7-8 8-9 9-10 9-11 10-11 9-11 9-12 10-11 9-11 8-10 8-9 7-9 5-7 4-7 4-5 2-4 1-3 1-4-4-1-5 3-4 3-3 3-5 4-4 5-5 6-5 7-4 7-5 8-5 9-5 10-8 22-5 11-4 12-2 11-3 11-2 10-1 8v8l1 6 1 4 6 8 3 2 4 3 5 1 6 2h6 8l8-1 9-2 9-1 40-12 16-8 7-4 14-9" style="clip-to-self:true;comp-op:src"/>
</g>
<g stroke="#00c0ff" stroke-width="14.1">
<path transform="scale(.1)" d="m4908.5 4376.2 1-3 2-5v-4l-1-4-3-3-6-3-3-1-4-1h-5l-4-1h-6l-6 1h-7l-6 2-16 4-9 3-18 8-11 5-10 5-22 12-10 7-11 8-10 8-11 8-19 18-9 10-14 20-6 10-8 20-2 10-1 9v9l2 9 2 8 8 14 12 12 8 5 9 4 9 3 11 3 24 4 12 1h13 13l13-1h13l12-1 12-2 10-1 18-2 7-2 5-1h4l3-1 4-2-3-1h-4-5l-4 1h-4-4l-5-4" style="clip-to-self:true;comp-op:src"/>
<path transform="scale(.1)" d="m4722.2 4521.9 4-1h5l5-1 3-1h4l9-2 7-1 6-1 14-2 8-1 27-3 9-2 36-4 7-1 8-1 6-1h6 9l-4 2-6 1-7 1-3 1h-4l-9-3" style="clip-to-self:true;comp-op:src"/>
<path transform="scale(.1)" d="m5091.5 4410.7v-8l1-5v-5-6-4-4-3l-1-4-2-3-4 1-3 4-2 3-2 5-4 12-2 8-2 10-2 9v12l-1 12-1 14v14l1 14 1 15 2 13 3 13 4 10 4 9 5 8 6 7 14 8 7 3 9 1h8 8l18-4 8-3 9-3 8-4 7-5 6-5 10-12 3-7 2-7 2-8v-8-9l-1-9-2-22-2-11-1-11-4-25-2-12-2-20-1-9v-6l-1-5-1-4v9l1 5 1 6v8l1 8 2 18v11 11l1 11v12 11l1 23 2 11 1 10 4 18 3 7 6 10 2 3 3 2 10-1" style="clip-to-self:true;comp-op:src"/>
</g>
<g stroke="#fff" stroke-width="14.1">
<path transform="scale(.1)" d="m5581.5 4432.2 4-6 6-8 6-12 1-5 2-8v-9-4l-2-4-1-4-3-3-2-3-3-2-4-2h-4-5-5l-5 2-6 2-6 3-6 5-7 6-6 7-7 8-7 9-7 11-6 11-7 12-6 14-6 13-5 15-4 15-6 28-1 12v11l1 8 2 8 3 5 4 3 4 2 5 1 7-1 6-2 8-4 7-5 8-6 18-16 9-10 8-10 9-12 8-12 7-12 7-13 12-26 5-12 4-11 3-9 2-7 2-6v-4l-3 1-1 4-2 6-2 7-2 8-1 9-2 20v11 11l3 21 4 18 6 14 3 6 3 5 5 3 5 2h5 6l6-2 6-3 7-5 6-5 6-6 16-19" style="clip-to-self:true;comp-op:src"/>
<path transform="scale(.1)" d="m5777.9 4445.6h-5l-4-2-3-2-1-3v-6l2-3 1-4 3-5 2-5 3-6 4-6 5-6 4-6 5-5 5-6 10-8 4-4 5-2 4-2h3 4l3 1 2 3 4 8 2 6 1 7 1 8v18l-1 11v10l-1 12-1 21v10 16 6 4l2 6 2-5 2-8 2-6 4-14 2-8 2-9 2-8 2-10 4-10 3-10 4-11 5-12 6-11 6-12 7-10 8-10 7-9 8-7 7-6 7-3 6-2 6 1 4 2 4 5 3 7 2 8 2 10 1 11 1 12 2 26 1 14 1 13 1 14 2 26 1 12 2 10 2 9 3 7 3 4 4 3 4 1 5-1 5-3 6-4 15-16" style="clip-to-self:true;comp-op:src"/>
<path transform="scale(.1)" d="m6169.3 4337-5-1h-4l-8 2-5 2-6 2-6 4-6 3-6 5-7 5-7 6-8 7-7 8-8 7-6 9-7 8-6 9-6 8-5 9-4 8-2 8-2 7v7 6l2 5 1 5 4 4 4 3 4 2 6 2h5 6 6l14-4 7-3 8-4 7-5 8-4 7-6 7-5 7-7 6-7 5-8 5-7 5-9 4-9 3-10 2-12 2-11 2-14 1-13v-47l-2-34-1-16v-17-28-11l1-8v-5-3l-1 3v4 7l-1 8v10l-1 12-1 13-1 14v16l-1 16-2 36v19l-1 19v36l1 16 1 15 1 14 3 13 3 11 3 9 3 7 4 6 3 3 10 3" style="clip-to-self:true;comp-op:src"/>
<path transform="scale(.1)" d="m6512.3 4341.7 6-6 3-2 4-2 3-2 4-1 10-4 12-2 7-2h6 7 7l7 2 8 2 7 3 12 10 5 7 4 7 4 9 3 9 2 10 2 11 1 11v11 12l-1 12-1 10-2 11-2 10-6 16-3 6-4 6-5 4-4 4-5 3-4 2-5 2-8 2h-4l-3-1-4-3-1-6v-4l2-3 1-6 3-5 8-14 5-7 6-8 14-18 8-9 8-10 9-11 9-12 10-12 10-13 11-13 20-24 8-11 8-9 6-7 4-6 3-4 2-4-5 2-3 3-4 3-4 4-4 5-4 6-4 7-5 7-5 9-4 10-5 10-8 22-7 25-4 12-3 12-2 12-2 11v11 9l1 9 2 8 3 6 3 4 4 4 4 2 5 2h6 6l8-2 7-2 8-2 9-3 8-4 7-4 8-4 13-9" style="clip-to-self:true;comp-op:src"/>
</g>
<g stroke="#00c0ff" stroke-width="14.1">
<path transform="scale(.1)" d="m7091.9 4296.4-6 1h-4-4l-10 2-10 4-6 2-6 4-6 3-7 4-7 5-8 5-8 6-9 6-8 7-10 7-9 8-11 8-10 9-9 9-10 9-9 9-8 9-7 9-12 18-4 8-3 9-2 8-1 9v8l4 14 3 7 4 7 11 11 7 5 8 5 8 3 10 4 10 2 11 3 12 2 13 1 13 2 13 1h28l30-2 14-1 14-2 12-1 11-2 10-1 10-2 7-1 7-2 10-2 6-2h4l-5-2-11-2" style="clip-to-self:true;comp-op:src"/>
<path transform="scale(.1)" d="m6933.8 4474.9-4 1h-3l3-2 6-1 4-1 5-1h6l6-2 8-1 10-1 10-2 10-1 12-2 13-2 12-2 14-2 39-6 12-2 11-2 9-1 8-1 7-1h4 4 3l-3 2-4 3-9 3h-4-3l-10-1" style="clip-to-self:true;comp-op:src"/>
<path transform="scale(.1)" d="m7090 4192.5 2-3 3-4v6l-1 4-1 5-2 5-2 7-2 9-3 10-4 12-3 14-5 17-5 20-6 22-6 23-7 25-6 25-22 78-7 25-6 25-7 25-6 22-5 22-5 21-5 18-4 17-3 14-2 11-2 9-1 7-1 4 3-5 1-6 8-28" style="clip-to-self:true;comp-op:src"/>
<path transform="scale(.1)" d="m7371.1 4268.8 3-12v-4l1-4-3 1-2 2-2 5-4 5-3 8-5 8-5 11-5 12-12 28-12 30-7 16-6 15-6 16-7 16-5 16-6 16-5 14-4 14-4 12-3 11-2 9-2 7-1 5-1 4 1 4 4-2 2-3 2-4 8-12 4-8 10-18 11-22 5-12 7-13 6-15 7-15 8-17 8-19 8-20 9-20 10-21 9-18 8-17 8-13 6-10 5-7 3-5 3-2 3 1 1 3v4 6l1 8v9l-1 11v13l-1 13v15l-1 16-2 30-1 29v15l1 14v13l1 12 2 12 1 10 2 9 2 8 2 7 2 5 3 4 2 3 4 3h4l2-4-3-8" style="clip-to-self:true;comp-op:src"/>
<path transform="scale(.1)" d="m7304.6 4445.2v-3l1-5 3-2 6-2 8-2 5-1 4-2 6-1 5-2 7-2 6-1 8-1 8-2 18-2 9-2 9-3 20-6" style="clip-to-self:true;comp-op:src"/>
</g>
<path transform="scale(.1)" d="m7560.4 4202 2-4 2-5 7-7 8-2 5-1h6l7-1 8-1 9-1h10 22 11l11 1 22 4 10 2 8 4 8 5 6 5 4 6 3 8 1 9-1 10-2 11-4 13-6 13-6 14-8 14-9 14-10 14-10 13-10 12-10 10-10 11-10 9-23 23-6 7-5 6-4 5-3 5-1 4-1 5v3l2 3 3 2 4 2 4 1 7 1h6l24-3 18-3 10-2 16-2h7l6-1 6 1h3l4 3-1 4-3 3-3 4-5 4-5 5-12 10-7 6-16 16-5 6-6 12-2 5-1 6 1 6 1 5 2 6 3 4 4 5 4 4 18 12 7 3 6 5 7 5 6 6 4 6 5 6 3 6 2 8v8 8l-2 8-2 9-4 8-10 16-7 7-8 7-8 6-9 7-10 6-11 6-10 4-11 5-11 3-10 4-18 4-8 2-7 1-6 1h-6-5-5l-5-1-4-2-10-6" stroke="#fff" stroke-width="14.1" style="clip-to-self:true;comp-op:src"/>
</g>
</g>
</svg>
