<?xml version="1.0" encoding="UTF-8"?>
<svg width="1e3pt" height="500pt" version="1.2" viewBox="0 0 1e3 500" xmlns="http://www.w3.org/2000/svg">
<g id="surface90">
<rect width="1e3" height="500" fill="#20282d"/>
<g fill="none" stroke-linecap="round" stroke-linejoin="round" stroke-miterlimit="10">
<g stroke="#fff">
<g stroke-width="14.1">
<path transform="scale(.1)" d="m3294.7 410.94-1-3-2-4-4-2-3-1h-6l-2 1-4 1-3 2-4 3-9 9-5 6-5 8-5 10-6 11-5 14-6 16-6 18-5 21-6 22-8 48-4 23-3 22-1 21-2 19v17l1 15 2 14 4 11 4 10 5 8 6 5 7 4 8 3 9 1 9-1 10-2 11-3 11-6 11-5 10-8 11-7 9-10 10-9 8-10 14-20 6-11 5-10 4-11 3-10 3-9 2-9 2-8 1-7v-5-3l-1-4-3 2-2 3-5 10-4 12-4 16-1 8v8 7l2 14 3 6 2 6 3 4 5 3 4 3 12 4h6 6l8-1 6-2 7-1 7-3 5-3 6-2 4-4 5-3 3-5 2-4 2-5 1-5 1-6v-6l-1-7-2-8-2-7-3-9-2-8-8-16-4-7-5-7-5-5-5-3-6-2h-6l-12 4-7 5-6 5-7 7-6 8-6 9-4 9-5 9-3 9-3 8v7 6l1 5 6 9" style="clip-to-self:true;comp-op:src"/>
<path transform="scale(.1)" d="m3498.8 565.94v-4-3 3 5l-1 5v6 8 9 10l-1 11v36l1 13v13 12l1 11 1 10 2 9 1 8 4 12 4 6 4 2 3-2 4-6 4-10 2-6 1-8 2-8 1-9 1-10 2-11 2-13 2-12 2-14 3-12 3-13 4-11 3-10 4-7 3-6 3-4 3-2 5 1 2 3 3 4 2 6 2 7 2 8 2 9 3 10 1 10 3 10 4 20 2 9 4 16 1 7 4 12 2 4 4 6 5 2 8-4 2-3 4-4 3-5 6-14 3-8 3-9 6-20 4-12 4-11 4-13 4-11 5-12 5-10 5-8 4-7 4-5 4-2 3-1 3 1 2 2 2 5 2 7 1 8 3 30v11l2 23 2 22 1 10 1 9 2 8 2 7 2 5 3 5 3 3 3 2h4l3-1 4-1 4-3 8-10" style="clip-to-self:true;comp-op:src"/>
<path transform="scale(.1)" d="m3806.9 561.25 1 5v52 10 9l1 10 2 18 2 9 4 15 1 6 3 4 2 5 2 3 4 3h5l4-3 3-4 1-4 4-10 2-6 1-6 2-8 1-8 1-9 1-10 2-11 3-11 3-10 3-11 4-9 4-8 4-6 3-6 8-6 3-2 4 2 3 3 1 3 2 5 2 6 1 7 2 7 1 9 1 8 2 9 1 9 1 8v8l1 7 2 7 1 6 2 6 2 3 2 4 4 4h3 6l3-1 3-2 4-3 3-4 4-4 4-5 6-13 4-7 3-8 4-8 3-9 12-27 8-14 3-5 6-6h4l3 6 1 5 1 6 2 16v9l1 10 1 9 1 10 1 9 2 9 2 8 3 7 3 6 3 5 5 5 4 3 6 2 5 3 5 1h5l5-1 5-3 5-2 9-8" style="clip-to-self:true;comp-op:src"/>
<path transform="scale(.1)" d="m4134.7 555.31-3 5-1 4-2 5-2 11-2 7-1 7-2 8-2 18v9 18l2 18 2 8 3 8 2 7 8 10 5 4 5 3 5 2h6 5l12-4 6-3 5-3 6-5 5-5 5-6 5-7 4-8 3-8 4-9 6-18 3-10 2-9 2-8 2-7 2-5 1-4v-3 9 6l-1 7-1 8v8 28l1 10 1 9 2 9 6 16 4 7 6 7 5 6 6 4 7 4 7 2h8 7l8-1 9-2 16-8 8-5 8-7 7-6 7-9 6-9 5-12 10-35" style="clip-to-self:true;comp-op:src"/>
<path transform="scale(.1)" d="m4408.4 395.31-2-2-4-1-4 4-3 4-2 4-2 5-2 6-1 6-2 7-1 6-1 8v8l-1 9v11l-1 11v13 14 16 71 17l1 17 1 15 1 14 1 13 2 11 3 9 2 8 5 10 3 3 5 2 4-7" style="clip-to-self:true;comp-op:src"/>
<path transform="scale(.1)" d="m4305.3 608.75-6-1h-3l-4-2 2-3 3-1 4-2 6-2 6-3 9-3 9-4 10-3 11-3 13-5 28-8 15-5 16-5 17-5 32-10 16-3 15-4 14-3 12-3 12-2 10-2 8-2h7l6-1h5 4l4 1-1 5-9 12-4 4-4 5-10 14-6 9-7 9-7 11-7 10-6 11-7 11-6 10-10 20-4 10-4 8-2 8-3 8-1 6v9l3 4 4 2 7-1 4-1 4-2 4-3 6-4 5-3 10-10 5-6 5-5 6-7 5-6 5-7 5-6 5-5 4-5 5-4 3-3 3-2 4-1 3 4v3l1 5v11 7l1 7 1 6 2 7 2 6 6 10 5 4 4 4 6 3 6 1 7 2h8l8-1 9-1 9-2 20-8 10-6 9-5 8-7 8-8 7-8 7-10 5-12 6-13 5-16 5-18 4-19 5-21 3-21 5-22 3-22 4-21 3-18 2-16 1-13v-10-7l-2-5-2-3-4-3-4 2-3 2-2 3-3 4-4 12-3 6-2 9-1 8-3 10-2 22-1 12v12 27 15l1 14 1 16 4 31 2 15 2 14 6 22 3 9 3 8 3 7 3 4 2 4 6 6v-6" style="clip-to-self:true;comp-op:src"/>
<path transform="scale(.1)" d="m4673.4 600.62 4-6 8-8 5-4 6-4 15-9 9-4 9-5 10-5 9-6 10-5 11-5 10-6 11-4 11-5 10-3 11-4 9-2 10-2 8-1h15l6 1 5 2 5 3 4 4 3 5 2 6 4 14 2 9 3 30v11l2 21 1 10 2 9 1 8 1 9 2 7 2 6 4 10 2 3 3 3 2 3 4 1 3-3 2-6v-12" style="clip-to-self:true;comp-op:src"/>
<path transform="scale(.1)" d="m4942.5 474.06v-3l1-3 4 1 1 3 2 8 1 8" style="clip-to-self:true;comp-op:src"/>
<path transform="scale(.1)" d="m4986.2 519.69v3l-1 5v5l-1 6-1 7v8l-1 10v10 11l-1 11v12 24 12l2 22 1 9 2 9 3 8 2 6 3 6 6 8 3 2 4 2h3 4l3-1 3-2 4-3 4-4 3-4 3-6 4-6 3-7 4-7 4-8 4-7 4-8 4-7 4-6 6-10 5-5 3 3 1 3v4l1 4v6l1 5 2 12 4 12 4 6 4 4 4 5 5 3 6 4 6 2 7 1 6 1h8l7-1 8-1 8-2 8-4 7-3 16-10 7-6 6-8 7-8 5-10 5-11 5-13 4-13 3-15 4-14 2-13 1-11v-9l-2-7-2-4-4-3-3-1-5 1-5 2-6 4-6 6-5 8-5 9-6 10-4 12-5 12-3 13-3 12-2 13v12l1 12 2 11 4 11 6 10 7 9 9 8 10 7 12 5 14 3 14 2h15l16-1 38-8" style="clip-to-self:true;comp-op:src"/>
<path transform="scale(.1)" d="m5592.5 401.88v-4l-2 5v5l-1 8v8l-1 11-1 12-2 14-1 15-2 17-1 19-4 40-2 21-2 20-1 19-1 18v16 15 13l2 20 6 14 4 4 5 4 6 3 7 3 7 1h9 10l10-1 11-2 12-3 13-2 12-4 13-3 13-4 12-4 13-3 12-5 11-3 10-5 9-4 20-9" style="clip-to-self:true;comp-op:src"/>
<path transform="scale(.1)" d="m5863.1 598.75v-7-4l-1-3-2-4-3-4-6-1-3 1-4 1-5 3-5 4-6 5-6 7-7 7-7 9-6 10-5 10-6 10-4 11-5 10-3 10-2 10-2 9-1 9v7l1 7 2 5 3 4 3 3 5 2 4 1 6-1 6-2 5-2 7-4 6-4 10-12 5-7 4-7 4-9 3-8 3-9 4-9 2-9 3-8 2-7 2-6 1-5 1-2 1 3-1 5v6l-2 16v10l-1 10v31l1 11 1 10 2 10 1 9 3 7 6 12 4 3 4 2 6 1 5-1 6-2 5-3 6-3 5-6 8-14 3-8 5-22" style="clip-to-self:true;comp-op:src"/>
<path transform="scale(.1)" d="m5951.6 585v4 3l2 8v5l2 12v6l2 14v8 15 9l1 9v9l1 8 1 9 1 8 3 8 3 7 3 6 4 6 3 4 4 4 8 4h3l8-2 2-3 4-3 7-14 2-6 2-7 4-16 3-9 4-18 3-9 3-8 3-7 2-6 2-4 2-3 4 1v6 5 7l2 14 1 8 4 15 2 7 3 8 2 7 4 7 4 5 4 6 5 4 6 4 6 2 12 2h8l6-1 7-2 7-3 12-8 5-5 5-6 5-7 3-7 3-8 3-10 1-11 3-12 1-13 1-15 3-48 1-14 1-12v-10l1-8v-6l-1-4v-3l-1 4-2 10-2 7-3 7-9 19" style="clip-to-self:true;comp-op:src"/>
</g>
<path d="m325.91 85.031h283.41" stroke-width="1.41" style="clip-to-self:true;comp-op:src"/>
<g stroke-width="14.1">
<path transform="scale(.1)" d="m3566.6 1361.9 2-8 2-5 1-5 1-6 1-5v-5-11-5l-1-4-1-5-4-8-2-3-3-3-3-1-4-2-4-1-4 1-6 1-5 2-7 3-7 6-8 5-17 17-8 9-9 11-16 22-7 11-6 12-5 11-4 11-3 11-2 10-1 10v10l1 8 1 7 2 6 2 5 3 4 4 4 4 2h4 5 5l7-2 7-3 7-4 8-4 8-6 8-5 8-6 16-14 7-8 12-18 5-9 5-10 4-10 3-11 3-10 2-9 2-8 1-6v-5-4l-3 4-2 4-1 5-2 6-2 7-2 8-1 8v8l-1 9v7l2 16 1 7 3 6 6 10 4 3 5 3 5 2 6 1h6l7-1 7-3 7-2 7-4 16-9" style="clip-to-self:true;comp-op:src"/>
<path transform="scale(.1)" d="m3759.1 1384.4-3-1 3-1 4-1h4 4l5-1 7-1h7l8-1 27-3 10-2 10-1 11-1 10-1h11l18-2 8-1 7-1h6l5-1 4-1 3-2-2-4" style="clip-to-self:true;comp-op:src"/>
<path transform="scale(.1)" d="m3822.8 1303.1-2-3-2-2 1 3 1 5 1 3 1 4 2 10 2 7 1 7v7l1 9v9 10 10 11 11l-1 11v43l1 8v8l2 5 1 5 4 5" style="clip-to-self:true;comp-op:src"/>
<path transform="scale(.1)" d="m3965.9 1234.4v-6l1 4v4l1 4 1 6v7l1 9v10 11l1 12v14l1 14v15 14l1 14v13l1 12 1 11v11l1 9 2 8 1 7 1 5 1 4 1 3 2 3 3-2 2-6 1-4 4-10 3-7 2-6 4-7 8-16 5-8 6-8 5-8 6-7 14-10 5-4 6-3 6-1 4-1 6 1 4 1 4 2 4 3 4 4 3 4 3 5 2 6 1 5 1 7v6 7l-4 14-3 7-8 14-5 7-7 5-6 6-7 6-8 4-7 5-8 4-24 9-7 2-7 1-7 2-5 1h-6l-3-1-5-1-3-5-1-3 2-10" style="clip-to-self:true;comp-op:src"/>
<path transform="scale(.1)" d="m4356.6 1320.3 3-3 4-2 3-2 5-1 4-1 6-1 5-1 35-5h7 7 7l7 1 5 1 6 1 4 1h3l3 8" style="clip-to-self:true;comp-op:src"/>
<path transform="scale(.1)" d="m4357.2 1410.6 4 2 7 1h5 7l7-1h9l9-1 20-2 11-2h11l11-1 60-5 22-2 25-5" style="clip-to-self:true;comp-op:src"/>
<path transform="scale(.1)" d="m4966.6 1158.4v-3l-2 10v7l-1 8-1 10-1 12-2 13-2 15-1 16-2 17-2 18-4 34-1 16-1 15-2 13-1 12v11l-1 9-1 7v7 7 5l-1 4v3 5l4-3 2-3 2-4 8-8 4-6 6-5 5-6 6-7 7-7 7-8 8-8 8-7 7-8 16-14 6-5 6-3 6-2h4 3l3 2 2 3 1 5v5 6l-1 7-3 9-3 8-4 9-10 18-7 9-6 8-8 9-16 16-10 8-9 6-10 6-9 6-9 5-18 8-7 2-8 2-6 1h-6l-5-1-4-1-3-3-2-4-1-4 3-14" style="clip-to-self:true;comp-op:src"/>
<path transform="scale(.1)" d="m5129.7 1386.2-2-2 3-1h6l3-1h5 6l12-2 7-1h8l56-7h7l7-1 6-1 5-1 4-1 4-2 3-4-1-5" style="clip-to-self:true;comp-op:src"/>
<path transform="scale(.1)" d="m5206.2 1310-6-4-3-1-1 4v3 3 20 7l1 6 1 8 1 7 1 8 8 31 4 16 6 21 2 6 5 13" style="clip-to-self:true;comp-op:src"/>
<path transform="scale(.1)" d="m5620.9 1287.8-3-4-2-4-8-8-6-3-5-3-12-2h-7-7l-8 1-16 4-9 4-9 5-9 7-9 8-10 9-8 11-9 11-8 11-7 11-6 11-5 10-4 10-3 8-2 7v7l2 6 2 4 4 3 5 2 7 1h7l18-2 20-6 10-4 11-5 10-4 10-6 9-6 8-6 9-7 14-16 7-7 6-7 4-6 4-5 2-3 3-3-2 6-2 4-4 12-5 16-2 9-1 8-1 9v8l4 16 3 8 5 7 5 6 7 6 8 5 8 4 9 2 11 2h10 11l26-4" style="clip-to-self:true;comp-op:src"/>
<path transform="scale(.1)" d="m7525.9 905-1-5-2-2-1-4-4-6-3-2-3-3-3-2-4-2-9-3-5-1h-6-7l-8 1-8 2-8 3-9 3-20 10-10 7-11 9-11 10-11 11-10 13-11 14-10 14-9 16-9 15-8 15-7 14-5 14-5 13-3 13-2 11-1 9v9l1 7 2 6 3 4 5 3 5 1h6l8-1 8-2 9-4 9-5 10-6 11-7 10-8 10-9 9-10 10-11 9-11 9-12 16-28 8-16 8-15 6-15 12-28 4-10 3-8 2-7 1-4-1-3-3 3-2 3-3 4-3 6-2 8-3 8-2 10-1 9-2 10v11 11l2 20 4 20 2 9 9 24 2 7 3 6 8 10 8 8 5 4 10 6 4 3 5 1 4 2 4 1h4 4l9-6 3-8" style="clip-to-self:true;comp-op:src"/>
<path transform="scale(.1)" d="m7627.8 1023.1h3l4-1h3 4 5l5-1h6l14-2 9-1 8-1 18-2 10-1 9-1h9 9l8-1h8l8-1 10-2 9-1" style="clip-to-self:true;comp-op:src"/>
<path transform="scale(.1)" d="m7725.3 959.69v-5-4l-2 5v3l-1 4v5 4l-1 6v43l1 8v27 9l1 9v9l2 9 1 9 2 8 3 7 1 7 3 5 2 4 2 3 5 5" style="clip-to-self:true;comp-op:src"/>
<path transform="scale(.1)" d="m7931.2 852.81v-7l1 3v3 4 5l1 6v7 9l1 9v61l-1 15v14 13 13l-1 13v71l1-4 1-3 1-4 2-4 2-5 6-12 4-7 4-6 12-16 7-8 9-8 8-7 10-7 9-6 10-5 9-4 9-2 8-2 16 2 7 2 6 3 5 4 4 5 6 12v7 7l-1 8-2 8-8 16-12 16-8 8-8 7-9 6-10 7-10 5-10 4-9 4-18 6-8 2-7 1h-7l-5-1-5-3-4-2-5-4-8-12" style="clip-to-self:true;comp-op:src"/>
</g>
</g>
<g stroke="#00c0ff" stroke-width="14.1">
<path transform="scale(.1)" d="m7809.1 1494.4-2-5-2-3-4-4-4-2-3-1-4-1h-4-5l-5 1-6 1-6 2-6 3-7 4-7 5-6 6-7 8-8 9-7 10-8 12-14 26-6 14-5 15-4 16-4 15-2 15-1 14 1 13 2 12 4 10 4 8 5 6 6 5 7 3 7 1h9l9-2 9-4 9-5 10-6 10-7 9-9 16-20 7-10 6-11 5-11 4-12 2-11 1-12 1-11-1-11-1-10-1-9-3-8-3-7-3-5-4-4-4-2-10-2-5 2-5 1-5 3-4 4-4 5-3 4-2 6-2 5v6 5l4 10 3 4 4 4 10 6" style="clip-to-self:true;comp-op:src"/>
<path transform="scale(.1)" d="m7880.3 1545.9v15l1 6v6l1 8v19 11 119 12l1 10 1 8 1 7 1 5 1 4 1 3 2 2 2-3 1-4v-11l-1-6-1-8-3-22" style="clip-to-self:true;comp-op:src"/>
<path transform="scale(.1)" d="m7880.3 1576.6 1-4 1-7 3-9 3-12 4-10 5-10 5-8 5-7 6-6 7-4 6-4 6-3 7-2h7 5l5 2 4 3 3 4 3 6 1 7v8l-1 9-2 9-2 10-4 10-4 11-5 11-5 10-6 11-12 20-12 16-6 6-4 5-5 4-2 3h-4v-5l1-5 2-6 6-19" style="clip-to-self:true;comp-op:src"/>
<path transform="scale(.1)" d="m8052.5 1574.4 3-1 6-3 3-2 4-3 4-4 4-3 3-5 3-4 4-5 5-9 1-5 2-8v-4l-1-3-2-4h-7l-4 1-4 3-5 4-5 5-6 5-6 7-4 7-5 7-8 16-3 8-2 8-3 8-1 8v7 7 5l3 5 2 3 3 4 8 4 5 1 6 1h6l6-1 6-2 6-1 7-3 24-16 4-5 5-5 3-4 5-5 3-5 3-4 3-5 3-3 3-4 2-3 3-2 5-3 4 1 4 4 2 3 7 14 2 5 1 7 4 14 3 16 1 8 2 14v6l1 6v9l-1 4h-3l-3-3-1-4-2-4-1-5v-6l-1-6 1-7v-8l1-9 2-9 3-9 4-9 6-10 5-11 6-10 7-11 8-10 8-9 16-14 8-5 8-4 7-2 6-1h5l5 1 6 4 4 8" style="clip-to-self:true;comp-op:src"/>
<path transform="scale(.1)" d="m8349.7 1520.6-2-3-4-3-5-1-4 1-3 2-8 6-9 9-10 12-10 14-4 8-4 7-4 8-2 8-3 8-1 8-2 7v6 6 5l2 4 1 3 5 3 6-1 3-2 8-5 4-4 4-5 5-4 7-9 17-17h3l3 3 3 5 4 6 4 8 4 4 3 4 4 2 4 3 10 4 6 1h6 6l7-1 7-3 7-2 6-4 5-4 6-4 5-6 4-5 4-6 4-7 2-7 3-8 2-9 2-10 1-10 2-24 2-26v-13l1-13 1-11v-10l1-8v-13l-1 3v11 7l-1 9v21 12 11l-1 13v13l-1 13v13l-1 13v12 11 10l1 9 1 8 1 6 2 5 1 3 3 1" style="clip-to-self:true;comp-op:src"/>
<path transform="scale(.1)" d="m8435.9 1567.5 2-6 4-7 2-3 3-4 4-3 3-3 12-9 5-3 4-4 5-3 18-9 7-3 6-3 7-2 6-2 14-2h5l6-1 5 1h4l4 2 4 3 3 2 4 5 5 10 4 12 1 7 1 8 2 15 1 7 1 8 2 7 4 12 2 5 3 5 3 3 4 3 8 4 8 2 4-1 10-2 5-2 5-3 5-2 4-4 5-3 5-4 3-4 4-5 3-4 2-6 1-5 2-7v-6-14-7l-2-7-1-6-4-10-2-4-6-4h-4-3l-4 2-4 3-3 2-4 3-3 4-3 3-5 7-1 4-2 3-1 3 1 5 7 1" style="clip-to-self:true;comp-op:src"/>
<path transform="scale(.1)" d="m8741.2 1488.4 10-2 5 2 4 1 4 2 5 2 4 2 5 3 10 10 3 5 4 6 3 7 3 8 2 18 1 8-2 18-6 27-3 8-2 8-3 6-6 8-3 2-3 1-5-1-5-5-1-4-2-6v-6-7-7l1-8 2-9 2-8 3-9 3-10 15-30 14-22 9-11 8-9 9-9 8-7 8-6 7-5 6-4 6-3 10-2" style="clip-to-self:true;comp-op:src"/>
<path transform="scale(.1)" d="m7899.1 315-3-2-4-1-4-2h-6-6l-6 1-7 2-6 3-7 2-14 9-8 5-7 6-7 7-7 8-6 8-10 18-4 10-3 10-2 10-1 9 1 10 2 8 3 8 4 6 6 5 6 4 9 3h9 10l11-1 11-3 12-4 11-5 12-6 10-6 20-14 9-8 8-8 7-8 5-8 4-9 3-9 1-9 1-10-1-10-2-10-2-11-3-11-3-10-4-9-3-7-6-6-5-4-5-2h-6l-8 2-7 3-7 4-7 6-8 7-7 8-6 9-8 20-2 9v9l1 8 2 7 4 6 14 9" style="clip-to-self:true;comp-op:src"/>
<path transform="scale(.1)" d="m8008.4 290v4 13 5 7l1 7 1 8 2 18 1 10v11l1 12 2 26 1 14 3 39 2 22 1 9 2 8 1 5v4l1 4-4-9" style="clip-to-self:true;comp-op:src"/>
<path transform="scale(.1)" d="m8027.2 319.06 9-9 6-5 7-5 14-6 7-2 8-1h7 7l6 1 4 2 4 3 3 4 2 5 1 5v6l-2 7-2 8-3 8-4 8-5 9-12 16-7 9-20 20-6 5-5 3-4 3-4 1-3-3 2-3 2-5 11-15" style="clip-to-self:true;comp-op:src"/>
<path transform="scale(.1)" d="m8179.7 335.31 5-2 4-2 12-9 9-7 4-4 6-8 2-4 2-5 2-4 1-3v-4-3l-3-5-6-2h-4l-5 1-5 2-6 3-7 3-6 5-7 5-6 7-7 7-10 16-4 9-4 10-4 9-3 10-2 10-2 18v9l1 7 2 7 3 6 3 4 4 3 12 4h7l16-4 8-3 9-4 8-6 8-5 7-6 7-7 6-8 5-7 4-9 4-8 6-18 4-16 2-7 3-6 3-9 2-3 3-2 4 2 5 5 2 5 3 4 17 34 3 8 2 8 3 8 2 9 1 9 2 16v15l-1 6-2 8-2 3-4 3h-6l-3-1-6-6-4-10-2-6-1-8v-8l1-8 1-9 3-9 3-10 4-10 12-20 7-10 16-16 9-7 9-6 8-4 9-3 8-2 7-1 6 1h7l5 2 8 6 6 9" style="clip-to-self:true;comp-op:src"/>
<path transform="scale(.1)" d="m8489.7 317.5 3-12v-9l-1-3-3-5-5-3h-6l-5 2-4 2-4 3-5 4-10 12-10 14-4 8-4 7-4 8-6 16-4 14v6 6 6l1 4 2 4 2 3 3 2 3 1h4l5-1 4-1 5-3 4-2 10-8 9-9 3-5 5-5 6-10 4-5 2-4 3-4 4-6 4-3h4l2 4v3l1 4v5l1 4v6l2 12 1 7 2 12 4 12 2 4 2 3 3 4h4l4-2 2-3 3-4 2-4 2-5 6-12 2-7 3-7 4-7 3-8 4-7 10-16 6-8 5-7 7-5 12-8 5-2 6-1h4l5 2 4 3 3 4 6 10 2 6 2 7 1 7 1 8 2 15 1 8v7l1 6v6 9l1 3-1 3v-2-7l1-4 1-5 1-6 2-6 2-7 9-21 8-14 10-14 12-12 7-5 6-4 7-2 6-2h7l5 1 6 2 4 3 4 4 3 5 3 6 1 6 2 7 1 8v8 8 8l-1 8v8 8l-1 6v7l1 13" style="clip-to-self:true;comp-op:src"/>
<path transform="scale(.1)" d="m8910.3 311.88 1-4 1-3v-4-4l-1-4-2-3-3-1-4-2h-3l-5-1-4 1-6 1-5 1-6 2-13 7-6 4-12 12-7 6-12 16-10 17-4 9-4 10-2 9-2 8-1 8 2 14 2 6 3 4 2 4 4 3 5 2 4 1 6-1 5-1 6-2 6-3 6-4 7-5 5-5 5-6 11-15 4-8 5-9 4-10 3-11 4-11 3-12 4-14 2-14 4-16 3-17 3-19 2-19 3-19 4-18 2-14 3-12 1-8 2-6v-3 4l-1 6-1 7-4 20-1 13-2 13-2 14-3 42-1 15v15 29 14l1 13 2 12 2 11 3 10 3 9 4 6 4 5 12 6" style="clip-to-self:true;comp-op:src"/>
<path transform="scale(.1)" d="m9068.8 275v-5l-3-3-3-1-6 1-4 1-5 3-4 2-4 4-5 4-4 4-8 10-3 4-2 6-3 5-1 6-1 5 1 5 1 6 2 5 5 10 6 4 10 10 8 5 7 4 8 5 16 8 7 5 6 4 5 5 3 5 3 4v5l-2 4-2 5-5 4-6 4-8 3-9 3-10 3-10 2-11 1h-11l-31-5" style="clip-to-self:true;comp-op:src"/>
<path transform="scale(.1)" d="m7883.8 476.25-322 294 97-21-97 21 30-94" style="clip-to-self:true;comp-op:src"/>
<path transform="scale(.1)" d="m7894.7 496.88 79 296 26-95-26 95-70-70" style="clip-to-self:true;comp-op:src"/>
<path transform="scale(.1)" d="m7711.2 1463.8 27-257-58 80 58-80 40 90" style="clip-to-self:true;comp-op:src"/>
</g>
<g stroke="#fff" stroke-width="14.1">
<path transform="scale(.1)" d="m3659.1 2141.9-3 5-1 3-2 5-1 6-4 7-2 10-3 10-4 12-4 14-5 15-4 17-6 18-6 19-5 19-6 19-5 19-5 17-5 15-4 15-4 11-2 10-2 8-2 7-2 4v3l1-3 1-5 2-5 2-7 3-8 3-10 4-10 8-24 5-14 4-14 5-15 5-16 6-17 6-19 5-19 6-20 7-19 6-19 7-18 6-17 6-14 5-11 5-9 3-6 4-3 4-2 3 5 2 5 1 5 1 7 1 8 1 9 1 10 2 22 2 24 1 13 2 13 3 26 1 14 1 13 2 13 1 13 1 12 2 12 1 11 2 10 1 9 1 8 1 6 2 6 2 8 2 3v-6l-3-9" style="clip-to-self:true;comp-op:src"/>
<path transform="scale(.1)" d="m3572.2 2343.8 3-5 4-3 6-3 3-2 5-3 6-2 5-3 7-4 7-3 8-4 9-3 18-7 9-3 20-8 23-8" style="clip-to-self:true;comp-op:src"/>
<path transform="scale(.1)" d="m3829.4 2388.1-3-9-3-7-4-14-1-7-1-9-1-8-1-9v-9-11l2-22 1-13 3-13 2-14 8-26 5-12 6-10 5-9 6-7 7-7 6-4 6-3 6-2h6 5l5 1 5 2 8 6 6 10 3 6 4 14 2 9 2 10 1 10v11l1 13v26l-1 13v14l-3 39v45l1 5 1 4 1 3 2 3 3-4v-8" style="clip-to-self:true;comp-op:src"/>
<path transform="scale(.1)" d="m4021.6 2205-2-4-2-3 2 3 2 5 1 3 1 5 1 6 2 7 1 7 2 18 2 20 1 11 5 60 1 11 1 12 1 10 1 9v7l2 6v4l1 4 3-7" style="clip-to-self:true;comp-op:src"/>
<path transform="scale(.1)" d="m4041.2 2205.9v-11l1-5 1-4 2-5 2-4 2-5 3-5 4-5 4-4 5-4 6-5 5-3 6-3 7-3 7-2 6-1h7 7l6 1 12 6 5 4 5 5 3 6 3 7 2 8 1 8-2 20-3 10-8 22-12 22-7 10-7 9-8 9-8 8-7 8-8 6-6 5-5 4-6 3-4 3-3 1h5l4-2 7-2 8-3 9-3 10-4 11-3 23-6 12-2 11-2 12-1 11-1h10l20 2 14 6 4 4 3 5 2 7-1 6-6 16-6 8-14 16-16 16-9 8-10 6-9 6-11 5-10 5-10 4-11 3-10 2-10 3-20 2h-8-8l-7-1-10-4-3-3-2-3v-5-5l1-5 3-7 2-6 11-17" style="clip-to-self:true;comp-op:src"/>
<path transform="scale(.1)" d="m4273.4 2271.9 2-4 3-5 3-2 4-2 3-2 6-2 5-2 6-1 7-2 24-4h6 6 6l4 1 5 1h3l3 2-5 9" style="clip-to-self:true;comp-op:src"/>
<path transform="scale(.1)" d="m4289.4 2319.1 4 2h5l4-1 5-1 6-1 14-4 8-3 18-4 20-6 11-2 11-3 11-4 10-3 8-3 17-7" style="clip-to-self:true;comp-op:src"/>
<path transform="scale(.1)" d="m4786.6 2116.9 1 3v4 10 8 8 10l-1 11-1 12-2 14-2 15-2 16-2 17-1 17-4 36-1 17-1 16v16 26 11l1 9 1 7 2 6 1 4 3 3 3-3 2-3 5-14" style="clip-to-self:true;comp-op:src"/>
<path transform="scale(.1)" d="m4745.3 2227.8-1-4-2-5-1-5v-6-6l1-6 1-7 3-6 8-12 6-4 6-5 14-6 16-4 9-1 8-1h9l10 1 9 1 9 2 9 3 8 4 7 3 7 5 6 5 4 6 6 14v8 8l-2 8-4 9-4 8-5 9-12 16-7 8-8 7-7 6-24 15-9 4-14 6-18 6 8-4 6-2 7-3 16-4 9-2 9-3 20-2h9l10-1 18 2 8 2 6 3 6 4 5 5 3 5 3 7v7 7l-2 9-3 8-4 8-5 9-6 8-14 16-8 7-9 7-8 6-18 10-10 3-9 4-9 2-10 2-9 1h-8-8-7l-6-1-10-6-3-3-2-5v-5-6l1-8 7-20" style="clip-to-self:true;comp-op:src"/>
<path transform="scale(.1)" d="m5052.2 2405.9-8-4-3-2-3-5-1-3-2-8v-4l-1-5v-5l1-7v-5l2-14 2-8 1-8 2-8 1-9 4-20 6-22 3-12 10-24 5-11 7-10 6-9 6-7 6-5 6-4 5-2 5-1h6l4 1 6 2 5 2 5 3 10 10 4 5 8 14 3 8 3 9 2 10 1 10 2 22-3 33-2 12-1 11-4 20-1 10-4 16-1 6-1 5-1 4-1 3v-3l2-3 1-5 2-6 5-16" style="clip-to-self:true;comp-op:src"/>
<path transform="scale(.1)" d="m5325.6 2193.4-2-3-4 3-2 5-2 4-2 5-1 5-2 7-3 7-1 8-5 18-3 10-1 10-3 11-3 20-2 11-1 10-2 18-1 8-1 6v6 4 4l-1 3v-19l1-6 1-7v-9l1-8 1-9 2-11 2-10 2-12 2-14 4-13 3-15 5-16 4-16 6-16 12-30 13-26 6-10 6-8 9-9 4-2 3-1 5 2 5 5 4 10 2 7 2 16v9l2 11v11l1 11v12 12 13l1 14v13l1 14 1 12v13l1 12 1 11 2 11 1 9 2 9 1 7 2 7 1 5 2 5 1 3 2 5 3 1v-4l-2-4-5-5-4-3-15-6" style="clip-to-self:true;comp-op:src"/>
<path transform="scale(.1)" d="m5283.4 2300.6 4-4 8-5 6-1 7-2 18-4 10-1 12-2 11-2 13-2 14-2 13-1 14-2 14-1 13-1 12-1 10-1 8-1 9-1" style="clip-to-self:true;comp-op:src"/>
<path transform="scale(.1)" d="m3646.6 2837.2-2 3-1 3-15 30-5 12-6 13-6 15-6 16-6 17-12 36-4 19-5 18-4 19-4 18-3 17-1 15-2 13-1 11v8l1 7v3l3 4 3-2 5-6 2-5 3-5 2-7 3-8 6-18 2-10 3-10 3-11 4-24 3-14 2-15 3-16 2-16 4-19 3-18 5-19 4-18 6-17 5-14 6-12 5-9 5-8 4-5 3-4 3-1h5l2 2 2 3 3 5 2 5 4 14 3 9 1 9 6 33 6 39 2 15 1 14 2 15 1 14 1 15 2 14 2 28 1 12 2 11 1 10 2 8 2 6 1 5 1 3 4 2 3-1 2-6 1-4v-5l-1-14" style="clip-to-self:true;comp-op:src"/>
<path transform="scale(.1)" d="m3595.6 3047.5v-4l2-3 4-3 20-10 6-2 8-3 7-2 24-6 7-2 8-2 7-3 18-4" style="clip-to-self:true;comp-op:src"/>
<path transform="scale(.1)" d="m3820.3 2885-1-3-2-5-3-4-2 3v7l-1 5v7l-1 8v10 11l-1 13v27l1 15v15l2 16 1 15 3 16 2 13 3 13 3 11 4 10 4 7 6 6 5 3 6 2h7l8-1 7-3 8-4 8-5 7-6 8-7 6-7 10-16 8-18 4-18 1-10v-10-11l-2-22-1-13-1-12-2-11-3-11-2-10-2-9-3-7-3-6-2-5-4-8 1 4 1 3 1 5 2 4 2 6 2 5 3 5 2 4 7 12" style="clip-to-self:true;comp-op:src"/>
<path transform="scale(.1)" d="m4096.2 2881.9-2-4-2 2-1 5v3 5l-1 5v7l-1 8v9l-1 11v12 25 13l1 14 1 12 2 13 1 12 2 12 2 11 2 9 2 8 5 10 2 2 5-1 2-2 4-11" style="clip-to-self:true;comp-op:src"/>
<path transform="scale(.1)" d="m4101.6 2913.1-1-5v-4l1-5 2-5 4-5 2-3 3-2 8-6 10-4 12-4 7-1 6-1h7 7 7l5 2 6 2 4 4 4 3 2 5 2 6 1 7-1 7-4 18-4 10-5 11-12 20-7 9-6 9-14 16-6 5-10 10-5 3-3 3-4 3 6-1 5-2 5-1 7-2 15-4 8-2 8-1 8-2h7 8 7l7 2 6 2 5 3 6 10v6 7l-2 8-3 8-4 9-6 9-6 10-7 9-8 10-8 9-16 16-18 12-8 4-9 3-7 2-8 2h-8-6l-12-4-3-3-3-4-2-6-1-6 1-8 2-8 3-9 4-10 14-24" style="clip-to-self:true;comp-op:src"/>
<path transform="scale(.1)" d="m4431.9 2930.9 2-4 2-3 2-2 4-2 3-2 5-1 5-2 6-2 7-1 6-1h7l6-1 7-1h6 16 3l4 5" style="clip-to-self:true;comp-op:src"/>
<path transform="scale(.1)" d="m4411.9 3005 3-3 3-1 4-2 5-2 5-1 7-3 14-4 8-2 8-1 9-2 8-1 7-1 8-1 14-2 18-2" style="clip-to-self:true;comp-op:src"/>
<path transform="scale(.1)" d="m4823.8 2827.5-3 1v17 6l1 8v10 22 13l-1 14-1 15-1 16-1 17v16l-2 17v16l-1 15v38l1 9v9l1 7 2 8 2-6" style="clip-to-self:true;comp-op:src"/>
<path transform="scale(.1)" d="m4822.5 2900.6v-4l-1-3v-4-5l1-3 1-4 3-4 2-4 4-3 5-5 4-3 6-3 7-3 7-2 6-2 8-1 7-1h8l8 1 6 2 7 2 6 3 5 4 8 10 2 7v7 8l-1 8-2 8-4 9-4 8-5 8-6 9-12 14-7 6-6 5-7 5-5 4-10 6-3 1-6 3 6-1 3-1 6-1 5-1 8-1 7-2 9-1 16-2h9l8 1 8 2 7 2 6 3 6 5 4 4 3 6 2 7v7l-1 9-2 8-4 9-4 8-12 18-7 8-15 15-9 7-8 6-9 5-8 4-10 4-8 2-9 2-9 1h-8l-7-1-7-2-6-2-5-3-4-5-2-4-2-7v-6l2-14 9-17" style="clip-to-self:true;comp-op:src"/>
<path transform="scale(.1)" d="m5064.7 2900-1-3-2-4-1-3 1 3v5 48 11 54 14l1 15 6 42 2 12 3 10 4 10 3 8 4 6 3 4 5 2 5 1 4-1 6-2 5-4 10-10 10-16 4-9 3-9 3-11 3-10 2-11 2-24 1-14v-14l1-15-1-16v-16-16l-2-14v-13l-1-10v-9l-1-6-1-4-1-3-2 4v4l1 5v6l1 6 1 5v6l1 6 2 17" style="clip-to-self:true;comp-op:src"/>
<path transform="scale(.1)" d="m5296.2 2895.3-2 3-1 3v4l-2 10-2 7-1 8-2 9-3 10-1 12-2 12-3 13-4 26-4 28-1 13-1 14-1 13-1 12-1 11v28l1 4 2-6 1-4 1-6 2-7 2-8 2-10 2-9 4-22 1-11 3-13 2-13 4-14 3-15 4-16 10-34 7-17 6-16 13-26 7-9 5-7 6-5 5-4 5-1 4-1 4 1 4 2 4 3 3 5 4 6 3 6 3 8 6 18 4 10 2 11 3 12 3 13 3 14 2 14 3 15 2 16 2 15 2 16 4 31 1 14 2 13 3 11 2 10 3 8 2 5 2 4 2 3 3 1 1-3-3-9" style="clip-to-self:true;comp-op:src"/>
<path transform="scale(.1)" d="m5325.6 3044.4 4 1h10l5-1h6l7-1h9l9-1 11-1 12-2 13-1 16-2 16-3 34-6 18-4 37-11" style="clip-to-self:true;comp-op:src"/>
<path transform="scale(.1)" d="m3757.2 3614.7-1-4-4-1-5 5-6 9-3 6-5 8-5 9-11 22-7 12-7 14-14 30-8 17-7 17-7 18-7 17-13 33-6 15-5 12-4 10-3 9-3 7-1 5-1 3-2 4 5-3 2-3 2-4 8-12 14-28 12-26 6-14 5-14 6-16 10-32 5-18 4-17 10-34 5-15 5-13 4-12 4-9 3-7 2-5 2-3 3-3 3 5 2 3 1 4 2 5 4 12 2 8 5 16 2 9 4 10 3 10 3 12 4 12 3 12 4 14 3 13 8 28 3 13 4 12 3 11 4 11 3 8 4 7 6 12 3 3 2 3 5 3 3-2 3-5v-9" style="clip-to-self:true;comp-op:src"/>
<path transform="scale(.1)" d="m3666.9 3820 2-4 6-6 7-4 5-3 10-5 5-2 7-3 7-2 14-6 8-3 6-3 7-3 18-7" style="clip-to-self:true;comp-op:src"/>
<path transform="scale(.1)" d="m3888.4 3769.7 2-3 3-3h4 4l4-1h6l5-1 13-3 7-2 6-2 7-3 6-2 7-3 14-8" style="clip-to-self:true;comp-op:src"/>
<path transform="scale(.1)" d="m4013.8 3628.4 1 6 1 3 1 4 2 10 2 7 2 16 1 10 2 11 1 13 2 13 2 15 2 16 2 17 2 18 1 18 2 18 2 16 2 15 2 14 2 10 2 9 2 7 3 4 2 3h3l5-8" style="clip-to-self:true;comp-op:src"/>
<path transform="scale(.1)" d="m4050.9 3724.4-3-4-2-6-1-5 1-6 1-3 2-4 3-4 8-8 10-8 12-8 14-6 7-2 14-2h5l6 1 4 1 5 3 3 4 2 5 2 6v6 7l-1 8-1 9-2 9-3 9-12 27-11 17-5 8-5 7-4 7-4 6-4 5-2 4-2 6 2 4 3 1h3 5l12-2 7-1 8-2 7-1h8 7 8 6l7 1 6 2 5 2 5 3 4 3 4 10 1 5 1 6-1 6-2 7-2 5-4 7-4 5-11 11-6 4-7 5-8 4-7 4-16 6-14 4h-7l-7 1h-6-5l-5-1-4-1-3-3-3-2-4-8-1-6 1-13" style="clip-to-self:true;comp-op:src"/>
<path transform="scale(.1)" d="m4349.7 3719.1 6-4 3-1 6-1 14-2 8-2 9-1 9-2 10-2 9-1 30-3 11-1 10-1h20l9 1h9l9 1 8 2 8 1 6 1 7 1 5 2 5 1 4 2 3 2 3 1-3 3-8 3" style="clip-to-self:true;comp-op:src"/>
<path transform="scale(.1)" d="m4346.6 3804.7-4 2 3 2h6 5l6-2 7-1 9-2 10-2 11-3 12-2 13-3 14-3 14-2 30-6 16-2 15-3 32-4 15-1 15-2 26-2h12l10-1h9 8l7-1h5l10-2-9-4" style="clip-to-self:true;comp-op:src"/>
<path transform="scale(.1)" d="m4501.6 3572.2v-5l1-5 2-6 1-4 1-3 2-4 3 3v6l-1 3v5l-1 4-1 6-2 6-1 6-2 9-2 10-3 12-3 15-4 17-4 19-6 22-5 24-7 26-6 27-8 27-7 28-7 27-7 25-6 23-6 20-5 17-4 16-4 13-2 10-2 8-2 7v7l3 2 6-5 3-5 16-24" style="clip-to-self:true;comp-op:src"/>
<path transform="scale(.1)" d="m4898.1 3615v5 8l1 6v8l-1 8v10 10 11l-2 24-4 52v13 24 11l1 9 1 8 2 12v4l2 7" style="clip-to-self:true;comp-op:src"/>
<path transform="scale(.1)" d="m4860.9 3685 1-4 3-4 3-5 5-4 6-4 7-4 8-4 10-3 9-3 11-3 11-2 12-1 11-1h11l11 1 18 6 7 4 6 5 5 6 3 7 2 7v8l-1 8-3 9-4 9-6 9-7 8-8 9-8 8-9 7-10 7-20 12-11 6-9 5-9 4-8 4-7 4-5 2-4 2-4 1 4-1 10-2 7-3 9-3 9-2 22-6 11-2 12-2 11-2 12-2 12-1h11 10l9 2 8 3 7 3 5 5 3 4 2 6 1 7-1 6-2 7-4 8-5 7-6 7-7 7-7 6-9 7-18 10-10 5-10 4-10 3-11 4-10 2-9 2-10 2h-8-6l-6-2-5-3-3-4-3-12" style="clip-to-self:true;comp-op:src"/>
<path transform="scale(.1)" d="m5121.6 3784.1 2-4 6-2 10-2 7-2 7-1 16-4 8-1 24-4 9-2 7-1 6-1 6-2 5-1 4-1 9-3" style="clip-to-self:true;comp-op:src"/>
<path transform="scale(.1)" d="m5378.4 3637.5-3-1-3 2-3 6-1 5-2 5-2 7-2 8-2 9-2 10-3 11-6 24-4 13-3 12-2 14-6 28-2 14-3 13-2 13-1 10-2 8-2 11v4-5l1-4 2-5 1-7 2-7 2-8 2-9 3-9 6-20 2-11 4-12 3-12 4-14 4-15 5-15 5-16 6-17 5-15 6-13 6-12 6-9 5-7 4-6 7-7h5l3 3 1 4 2 4 1 5 2 12 1 7v8l1 8 1 9 2 20 2 22v11l1 13 1 12 3 39 4 24 2 11 1 10 2 9 1 7 3 6 1 4 1 3 2 4 2-4v-3l-2-9" style="clip-to-self:true;comp-op:src"/>
<path transform="scale(.1)" d="m5335.6 3777.2 3-1 10-2 4-1 14-2 8-2 9-2 10-2 11-2 12-3 24-8 13-5 28-11" style="clip-to-self:true;comp-op:src"/>
</g>
</g>
</g>
</svg>
