<?xml version="1.0" encoding="UTF-8"?>
<svg width="1e3pt" height="800pt" version="1.2" viewBox="0 0 1e3 800" xmlns="http://www.w3.org/2000/svg">
<g id="surface110">
<rect width="1e3" height="800" fill="#20282d"/>
<g fill="none" stroke-linecap="round" stroke-linejoin="round" stroke-miterlimit="10">
<g stroke="#fff">
<g stroke-width="14.1">
<path transform="scale(.1)" d="m3582.2 466.25-3-12-4-8-3-3-6-4-4-1-3-1h-5-5-6l-6 1-8 3-7 3-9 4-8 5-10 7-9 8-9 10-10 10-9 12-10 14-8 15-9 16-7 17-7 18-5 18-5 16-3 16-2 15-1 14 1 13 2 11 4 10 5 9 6 9 16 14 11 6 11 4 12 5 14 3 15 3 15 2h15 15 15l14-2 26-4 11-3 9-3 9-4 6-4 13-9" style="clip-to-self:true;comp-op:src"/>
<path transform="scale(.1)" d="m3779.1 588.12v-4l-1-3-1-5-2-3-4-2h-4l-4 3-3 2-3 3-7 11-3 6-5 8-3 9-5 10-3 10-4 10-4 11-4 20-2 18 1 8 4 14 3 5 4 5 4 4 6 3 12 4h7l6 1 8-1 6-1 14-4 6-3 7-4 6-4 11-10 5-6 5-5 3-7 4-7 2-7 2-16v-9-10l-1-10-2-10-2-11-3-12-3-11-4-10-3-10-4-8-4-6-4-4-4-3h-5l-4 1-5 3-5 6-5 7-4 8-8 22-3 12-2 12-1 11v11l1 10 1 9 3 8 3 6 4 5 13 10" style="clip-to-self:true;comp-op:src"/>
<path transform="scale(.1)" d="m3944.4 570.94-6-3-1 5v3l1 4v6 6 31 10 9l-1 9v9l-1 8v7 23 3l2-2 2-6 2-4 1-5 4-10 2-7 3-6 3-8 4-8 3-8 5-9 4-10 5-11 12-20 5-9 6-7 6-6 6-4 4-3h5 4l3 2 6 10 2 8 1 9 2 11v12 12l1 12-1 13v12 12 31l1 8 1 7 1 6 2 4 3 3 5 3 3-1 4-1 3-3 4-3 4-5 3-6 10-17" style="clip-to-self:true;comp-op:src"/>
<path transform="scale(.1)" d="m4127.5 569.06v3l1 7v5l2 12v7l1 8v9l3 27 2 9 2 10 2 9 3 16 2 8 2 6 3 6 2 5 2 3 3 3 2 3 3 1h4l3-4 2-3 2-4 2-6 2-5 2-6 2-8 3-8 4-18 6-24 4-12 3-14 10-26 4-11 5-9 4-7 3-4 4-3 5 1 1 3 2 4 1 6 1 7v8l1 9v9 9 21" style="clip-to-self:true;comp-op:src"/>
<path transform="scale(.1)" d="m4298.1 662.5 3-1 2-3 4-2 8-7 4-4 7-9 8-12 4-5 4-6 3-7 3-6 1-7 2-6 1-7 1-5v-6l-1-3-1-4-5-2-7 1-5 2-4 4-6 5-4 7-5 8-4 8-4 9-4 10-2 10-3 10-2 20v10 9l2 8 1 8 3 7 4 6 9 9 6 3 5 2 6 1 7 1 14-2 8-3 7-4 8-3 7-6 8-5 14-14 6-8 6-9 5-9 5-10 5-11 3-11 4-10 3-10 3-9 2-7 2-5 1-4 1-3 1 3v3 6 6 8 18 10 69 8 7l2 12v4l2 8v-17-6l2-7 1-7 2-8 6-18 3-11 5-11 5-12 12-24 7-12 7-10 7-9 7-8 6-6 12-8 10-2 4 1 8 8" style="clip-to-self:true;comp-op:src"/>
<path transform="scale(.1)" d="m4639.4 594.69 1-6 1-4 1-7v-5-8-3l-3-4h-4-3l-8 4-4 5-6 5-5 5-5 7-6 7-4 7-5 7-4 8-3 8-2 16 1 6 1 7 3 7 4 6 6 6 6 5 7 6 17 8 9 4 16 7 8 4 6 4 5 3 4 4 3 4 1 4v4l-1 4-3 5-5 5-5 4-6 5-8 4-8 5-9 3-10 4-10 3-10 1-9 2h-9l-8-1-6-1-5-2-2-4-1-5v-6l2-7 4-8 6-9 21-26" style="clip-to-self:true;comp-op:src"/>
<path transform="scale(.1)" d="m4722.2 576.25v3l-1 5v24l1 7v23 8l2 16v9l1 8 2 8 1 7 1 8 2 7 1 7 2 7 4 13 2 6 2 4 1 3 1 4-3-4-2-3-7-10" style="clip-to-self:true;comp-op:src"/>
<path transform="scale(.1)" d="m4774.1 482.5-4-1-4-2h-4-3l-3 2-3 4-5 10-1 4-1 5v5l-1 5v5l1 5 1 4 2 4 3 3 2 3 4 2 3 2h3 4l4-1 4-2 8-6 4-4 3-4 3-5 2-4 1-6 1-5 1-6v-5l-1-5-1-6-1-5-2-5-2-4-1-3-3-3-3-1h-7l-4 2-4 4-5 4-5 6-5 7-11 22" style="clip-to-self:true;comp-op:src"/>
<path transform="scale(.1)" d="m4884.7 613.12-5-3-5-4-3-1-4 2-4 5-7 14-2 6-4 14-2 8-1 8v9 8 8l1 8 3 7 2 7 3 6 4 5 4 4 4 3 5 2 5 1h5l6-1 6-2 5-3 6-4 5-4 10-12 3-6 4-7 5-16 1-8 1-10v-10l-1-10v-11l-4-22-2-9-4-8-4-6-5-4-5-2h-5l-6 2-6 3-6 6-5 6-5 8-4 8-6 18-2 9-1 8v7l1 7 3 15" style="clip-to-self:true;comp-op:src"/>
<path transform="scale(.1)" d="m4995.3 591.88 2-5 1-4 2-4 1-3-1 6v5l-1 6-1 8v7l-2 9-1 9-2 20v9l-1 11v10l-1 10v9 19 8l1 8v6 6l1 3v4l1-4 1-3v-5l1-5 1-6 1-7v-7l2-8 1-8 2-8 2-10 6-20 8-24 6-12 6-11 7-12 6-10 13-13 5-4 6-2h5l4 2 3 4 4 5 3 7 2 7 3 9 1 9 4 20v11l1 10v11 40l1 9v9 7 6l1 5v3" style="clip-to-self:true;comp-op:src"/>
<path transform="scale(.1)" d="m5397.8 466.56-4-12-1 5v3 4l-1 4v11 8 9l-1 10-2 11-1 13-1 15-2 14-2 17-2 16-3 17-2 16-3 14-2 14-2 13-2 11-1 10-2 8-1 8-1 6v6 5 4l1 4 3 5 3 2 3 1 4 2 5 1h6 7 8l9-1 30-3 11-1 12-2 22-2 11-2 10-1 10-2 8-1 7-1 6-1h4l4-1-3 2-11 2" style="clip-to-self:true;comp-op:src"/>
<path transform="scale(.1)" d="m5676.6 637.81-2-5-1-4-3-6-3-5-2-5-4-5-8-8-4-3-4-2-8-2-4 1-5 2-4 3-4 4-4 5-5 5-4 7-4 8-5 9-4 9-3 9-4 10-3 9-3 10-1 9-2 9v16l1 7 2 5 1 4 3 4 3 2 3 1h4l4-1 5-2 10-6 5-5 6-5 5-6 10-14 5-9 5-8 4-10 5-10 8-23 3-11 4-11 3-9 1-8 1-6 1-4-3 5-5 15-2 9-3 11-6 24-2 12-2 24-2 12v11l1 11 1 10 2 9 3 7 4 7 3 6 5 4 4 2 6 1 6-1 6-2 7-4 7-5 14-12 7-8 6-8 6-9 5-10 5-11 8-22 4-13 3-12 3-11 2-10 2-8 2-7v-5l1-3-1 4v4 7 6l-1 8v18l1 9v10l1 10 4 18 6 16 5 8 4 7 10 10 6 4 7 2 6 2 6 1h7l7-1 7-2 6-3 7-4 6-4 6-5 5-6 5-7 4-7 4-8 3-8 2-9 3-9 2-10 1-9 2-8 1-7 1-5 1-4v-3 5 4l-1 6v7l-1 8v8l1 9 1 8 1 9 3 9 2 8 8 14 10 10 5 3 12 4h6l6-1 6-2 6-3 6-4 5-5 5-6 6-6 8-16 8-18 8-22 3-12 3-13 6-28 2-13 2-12 1-10 1-8v-5l-1-3h-4l-8 8-5 7-6 9-11 24" style="clip-to-self:true;comp-op:src"/>
</g>
<path d="m343.84 91.625h275.72" stroke-width="1.41" style="clip-to-self:true;comp-op:src"/>
</g>
<g stroke="#f00" stroke-width="14.1">
<path transform="scale(.1)" d="m7336.9 312.81-3-5-2-6-6-10-4-8-2-2-4 3-1 3-1 5-1 6-1 9-3 9-1 11-2 13-2 12-2 15-3 14-5 32-3 17-3 16-3 17-3 16-3 15-2 15-2 14-2 12-1 10-1 9-1 7-1 5v8l1-8 1-6 1-7v-7l1-9 1-10 2-22 2-13 2-12 2-15 4-15 3-16 4-17 4-16 4-17 5-15 5-13 4-13 5-10 3-7 4-5 3-4 3-2 3-1 6 2 4 2 3 4 4 5 8 12 8 16 8 18 8 20 7 21 4 11 8 20 3 9 4 9 3 8 4 8 3 8 3 6 3 5 2 5 6 8 2 3 2 2 2 3 4-2 2-5 1-5 4-10 1-8 3-7 2-9 3-9 5-21 3-13 4-13 3-14 4-14 8-30 4-13 3-13 4-10 3-10 3-7 5-10 2-2h6l4 5 1 4 2 5 1 6 1 17" style="clip-to-self:true;comp-op:src"/>
<path transform="scale(.1)" d="m7584.1 442.19h-3l-9 6-2 4-6 10-3 6-3 5-3 7-4 12-4 14-3 21v6l3 18 2 4 4 6 6 3 7-1 4-1 3-3 5-3 4-5 4-4 3-6 4-6 3-7 2-6 2-8 1-7 1-8 1-9v-8-8l-1-8v-7l-2-6-4-10-3-3-3-2-4-1h-4l-8 2-7 6-4 3-2 4-2 3-2 4v4 3l5 7" style="clip-to-self:true;comp-op:src"/>
<path transform="scale(.1)" d="m7717.5 327.19h-5l-4 1-3 2-4 2-3 4-7 10-2 5-6 14-2 8-3 9-4 20-4 25-3 13-1 14-4 30-1 15-1 16-1 15v15l1 14 2 14 2 12 2 11 3 9 3 8 4 5 4 4 3 2h4l4-2 4-3 10-12" style="clip-to-self:true;comp-op:src"/>
<path transform="scale(.1)" d="m7638.8 477.81 3-3 5-3 3-1 8-4 5-3 5-2 13-7 7-4 7-5 7-4 8-4 8-3 8-4 7-3 7-2 7-4 7-2 6-2 6-3 11-5" style="clip-to-self:true;comp-op:src"/>
<path transform="scale(.1)" d="m8119.7 470-2-12-1-7-2-7-2-6-1-4-2-3-6-4-2-1h-4l-4 1-5 2-5 3-6 5-5 6-6 7-6 8-6 9-5 10-8 20-3 10-2 10-2 9v9 9 8l1 6 2 6 3 4 2 3 3 2h4 4l5-2 6-3 12-8 6-6 13-12 6-8 6-7 5-7 5-8 12-21 3-6 3-5 2-3 3-4 1 4v3 4l-2 12v6l-1 8v7l1 8v7l2 7 1 7 6 12 4 5 5 5 5 3 6 2 6 1h7l6-2 8-3 18-9" style="clip-to-self:true;comp-op:src"/>
<path transform="scale(.1)" d="m8331.6 449.69v-5l2-5 4-2h6 4l5 1 5 3 4 2 5 4 8 10 4 7 6 16 3 9 2 10 2 11v11l3 33v11l1 9v9 7 14l-1 3-2-4-1-3-1-5-2-14-1-8v-8l-1-10 1-9 1-11 2-10 3-11 4-11 5-11 6-11 16-20 8-8 9-7 9-6 7-4 8-4 6-2 7-1h5l4 1 3 1 3 3 1 3 2 10" style="clip-to-self:true;comp-op:src"/>
<path transform="scale(.1)" d="m8499.4 524.06 5-3 4-3 5-2 5-4 6-4 7-4 7-5 12-10 7-5 5-5 5-6 5-5 6-11 4-10v-5-4l-2-2-2-3-3-1h-5l-5 2-7 2-7 4-8 5-8 7-9 7-8 9-8 10-8 11-14 26-6 14-10 30-4 28v13l2 11 3 9 5 9 7 6 8 5 10 3 12 1h13l15-2 16-3 17-5 16-6 16-7 30-16 13-9 13-10 12-9 11-9 23-22" style="clip-to-self:true;comp-op:src"/>
<path transform="scale(.1)" d="m8731.9 517.19 1-5 1-4 1-5v-4l-2-4-2-3-3-3-8-4-5-1h-5-6l-12 2-7 2-7 3-14 8-8 6-7 6-7 7-7 8-6 8-5 9-5 8-3 9-2 9-1 9v9l1 8 4 14 4 5 4 4 5 4 5 2 6 1h6l6-1 7-2 7-3 6-4 7-4 6-6 6-5 5-6 5-7 4-6 4-7 3-6 4-5 1-4 2-3 1-4-3 2-4 6-2 5-1 5-1 6v6 6 7l4 12 6 10 8 8 5 3 5 2 6 1h7 6l6-2 7-2 7-4 12-10 6-6 5-7 10-16 3-9 6-22 3-12 2-13 2-14 2-15 2-17 1-16 2-18 1-18 2-17 1-18 1-16 1-15v-12-10l-1-8-1-5v-3l-4-1-6 10-2 6-3 8-2 9-2 10-3 12-2 13-2 14-2 15-2 16-1 16-2 16v32l1 16 2 16 3 15 3 14 5 13 5 12 5 10 6 8 6 6 6 4 6 2 5 1 17-2" style="clip-to-self:true;comp-op:src"/>
<path transform="scale(.1)" d="m9092.8 512.81-4 1-3 1-4 1h-3-4l-3-3-1-3 2-8 2-3 3-4 3-5 4-5 11-11 6-5 6-6 8-6 16-10 7-5 14-7 6-2 6-1h4l3 2 3 4 1 4 1 6v7l-2 18-2 11-1 12-3 11-4 24-4 22-2 10-1 9-1 6v7l-1 4v3l1 3 4-3 6-8 8-14 5-8 10-18 12-20 6-11 7-11 7-12 8-12 8-11 9-12 16-18 7-7 7-5 5-3 4-2 5 2 1 3v5 7l-1 8-2 8-1 10-2 10-1 11-1 10-1 11v10l1 10 1 9 2 8 2 7 4 7 8 8 5 3 5 1h5l5-1 6-2 4-4 11-10" style="clip-to-self:true;comp-op:src"/>
<path transform="scale(.1)" d="m9421.9 420.31v-6-3l-1-3-4-3h-5l-3 1-4 2-4 3-5 4-6 5-12 16-8 9-14 20-7 12-6 12-5 13-6 13-4 13-5 13-3 12-2 13-1 11-1 9 2 8 1 6 3 4 4 3 4 1 6-1 5-3 7-4 7-5 14-16 7-9 12-20 6-11 8-22 3-11 6-24 3-10 2-9 2-8 2-7 1-5v-4l-2 4-1 5-1 6-1 7-1 8-1 9v9 10l1 10 1 9 1 10 2 9 2 10 2 9 6 16 3 7 4 6 4 5 4 4 4 2 3 1h4l4-1 4-2 3-4 7-11" style="clip-to-self:true;comp-op:src"/>
<path transform="scale(.1)" d="m9535.3 426.88-1-5-1-4-1-3 2 3v3l1 4v12l-1 7v9l-2 20v11l-2 11-1 12-1 11-1 12-1 11-1 10v10l-1 9-1 8v15l1 4 3-5 1-4 2-5 2-6 2-8 2-7 6-27 3-10 3-11 8-22 12-24 6-11 6-10 7-9 6-7 5-5 4-3 4-1 3 2 3 3 1 5 1 6v8 20 11l-1 11v12l-1 11v11 21l1 9 1 8 1 7 2 5 2 4 2 2 3 2 7-2 3-2 4-3 5-5 4-6 5-6 4-7 5-8 4-8 8-17 5-9 3-9 4-8 4-9 3-8 4-6 2-5 6-6 2 6v5 5 6l2 14v8l2 8 2 7 1 7 9 18 8 8 4 3 12 2h6l6-1 7-2 7-4 6-4 7-4 7-6 6-6 4-6 6-7 4-6 4-8 6-16 2-9 3-9 2-20 2-10 1-9v-9-8l-1-6-3-6h-6l-4 2-4 3-8 12-5 8-3 9-5 10-3 11-3 10-3 11-2 10v10 11 9l2 9 3 9 8 16 13 13 7 5 7 4 9 4 16 4h8 8l7-1 15-3" style="clip-to-self:true;comp-op:src"/>
<path transform="scale(.1)" d="m6943.4 566.88-708 141 93 32-93-32 74-65" style="clip-to-self:true;comp-op:src"/>
</g>
<g stroke="#fff" stroke-width="14.1">
<path transform="scale(.1)" d="m3843.4 1273.1-1 5-1 4-1 5-2 6-1 9-4 20-4 26-2 14-4 30-2 16-4 36-2 19-2 20-5 40-2 21-3 19-2 19-2 17-1 16-1 15-1 13-1 12-1 10v25-4-8l-1-6v-8-8l-1-9v-9-11l-2-22v-13l-1-13v-42l1-15 1-14v-15l4-60 1-14 4-26 2-12 4-11 2-10 4-10 4-8 4-9 4-8 5-8 13-16 7-7 9-6 16-12 9-5 9-4 9-3 16-4 7-1 6 1 5 2 4 2 3 5 3 6 1 8 1 9-1 11-1 12-4 25-3 13-4 13-4 11-10 22-6 10-5 9-6 7-5 7-11 11-5 4-5 3-5 2-4 2h-4-4l-5-1-3-1-2-4 1-6 1-8 4-12" style="clip-to-self:true;comp-op:src"/>
<path transform="scale(.1)" d="m4324.4 1293.4 1-4v-3l-1-5-2-5-5-3-3-1-8-2h-6-5l-14 2-9 2-8 2-9 2-10 4-10 3-22 8-11 6-10 5-11 6-10 6-9 6-10 5-8 5-6 6-6 5-4 4-3 5-2 4v4l1 3 3 4 4 3 4 4 14 6 8 3 10 3 10 2 12 3 13 2 13 3 14 2 15 2 28 4 14 1 12 3 12 2 10 2 9 3 7 3 6 4 5 5 3 4 1 6-1 5-1 7-3 5-4 6-12 12-16 10-9 4-10 5-10 3-11 3-12 3-11 2-13 1h-12l-13 1-13-1-12-1-13-1-12-2-11-3-10-3-9-3-9-4-7-4-6-4-5-5-5-4-3-4-2-4-1-4v-4l2-4 4-6 7-7 11-8" style="clip-to-self:true;comp-op:src"/>
<path transform="scale(.1)" d="m4266.2 1161.2v-4-4l2 5v3 3 5l1 6v7l-1 8v10 12l-1 13-2 15-1 17-2 19-2 20-3 21-2 21-3 23-4 42-3 20-2 19-2 18-2 17-1 14v14l-1 12v10l-1 8v14l1 5 1 4v3l2 4h4l2-3 2-10" style="clip-to-self:true;comp-op:src"/>
<path transform="scale(.1)" d="m4594.1 1193.8 1-5v-3-4l3 3v3 5 12 9 10l-1 11-1 13-2 14-2 15-1 16-3 17-1 17-2 16-3 16-1 15-2 14-1 14-2 12-2 20v9 9l-1 7v12 5 4l-1 3v3l-1 4" style="clip-to-self:true;comp-op:src"/>
<path transform="scale(.1)" d="m4693.4 1318.4v-2l-1-4-3-2h-3l-5 2-14 14-10 12-10 14-11 14-16 21-5 6-4 6-5 6-4 4-4 5-3 4-2 2-2 3-1 3 2 4 6 2h4l4 1 5 1 4 1 6 1 5 1 12 2 7 1 5 2 6 1 6 3 6 2 5 2 6 3 5 3 5 2 9 7 7 5 8 8 3 2 4 3" style="clip-to-self:true;comp-op:src"/>
<path transform="scale(.1)" d="m4867.8 1370.3-4-1-4-2 4-1h14 5 7l7-1 8-1h8l19-2h9l9-1h23l6 1h4l3 1-3 5" style="clip-to-self:true;comp-op:src"/>
<path transform="scale(.1)" d="m4864.4 1423.4-1 4 4 1h5 4 5 6l6-1 16-2 9-1 10-1 33-3 12-2 11-2 10-2 23-6" style="clip-to-self:true;comp-op:src"/>
<path transform="scale(.1)" d="m5287.2 1176.9v-13l1-4v-6 4l1 4 1 5 1 4v6l1 8v9l-1 10-1 13-2 14-2 17-3 17-4 20-7 41-4 19-4 20-4 18-2 17-3 16-2 15-2 14-1 11v11 8l1 7 1 5 2 4 2 2h3 3l5-3 5-4 4-5 15-17" style="clip-to-self:true;comp-op:src"/>
<path transform="scale(.1)" d="m5414.4 1267.5-4 1-6 4-29 29-11 10-12 10-5 6-6 6-6 5-6 6-6 5-10 10-4 5-4 4-6 8-1 2-2 3-1 5 1 3 4 3 10 5 5 1 5 2 6 1 6 2 7 2 6 2 8 1 7 2 8 1 8 2 7 2 8 2 7 2 6 2 6 1 5 3 5 2 8 4 3 1 6 6" style="clip-to-self:true;comp-op:src"/>
<path transform="scale(.1)" d="m6871.2 1180.3v-3l-1-5-1 6v9l-1 6v8 10l-1 11-2 13-2 15-2 16-2 18-3 18-3 20-3 18-4 18-3 17-3 16-3 14-3 13-2 11-4 18-1 6v6l-1 4v7l6-6 4-8 6-13 12-28" style="clip-to-self:true;comp-op:src"/>
<path transform="scale(.1)" d="m6911.6 1304.4-5 3-4 3-3 3-3 4-17 17-4 5-5 6-4 6-5 5-4 5-9 11-4 6-3 5-2 5-2 4-1 5v3 4l4 6 6 5 5 3 5 1 6 2h6l14 2h8l14 2h7l7 1 6 1 5 1h5l5 1 4 1 6 2 4 1" style="clip-to-self:true;comp-op:src"/>
<path transform="scale(.1)" d="m7018.8 1332.8-1-4 1 5 3 9 1 4 4 12" style="clip-to-self:true;comp-op:src"/>
<path transform="scale(.1)" d="m7039.4 1475.9-1-3 4 1 3 3" style="clip-to-self:true;comp-op:src"/>
<path transform="scale(.1)" d="m7454.1 1332.8 1-5 1-4 1-6v-5l-1-5v-5l-6-12-8-4-6-2h-7-7l-7 1-9 2-8 2-10 3-9 5-11 4-9 6-20 14-9 6-9 8-15 15-6 7-8 14-2 7-1 6 1 7 1 6 6 12 4 5 5 5 6 5 12 9 6 5 5 4 6 5 4 5 3 5 2 4 2 5v5l-1 4-3 5-2 4-5 5-5 3-5 4-7 3-6 2-12 3-13 2h-15l-3-1-4-2 1-3 2-2 4-3 5-4 6-5 19-13" style="clip-to-self:true;comp-op:src"/>
<path transform="scale(.1)" d="m7491.6 1362.5-5 3-3 5-4 9-2 5-2 6-4 14-6 24-2 10-2 9-1 22-1 12-2 12v12l-4 26-1 13-2 13-1 12-2 12-2 11-3 10-1 8-3 8-2 7-3 6-2 6-4 3-2 3-4 3-3 1-6-2-6-6-5-9-2-7-2-16v-9-11l1-10 2-24 2-13 3-14 2-14 3-14 8-32 5-16 5-15 6-15 7-15 7-13 7-11 8-11 8-8 8-7 8-5 9-5 8-3 16-2 8 1 7 2 5 3 6 5 4 4 2 6 2 7 1 7v7l-1 8-6 18-4 8-5 9-6 9-7 8-9 9-8 7-9 8-9 6-9 5-8 5-7 2-7 3-6 1h-5-4l-4-4v-4l1-5 3-4 4-6 16-17" style="clip-to-self:true;comp-op:src"/>
<path transform="scale(.1)" d="m7582.2 1448.1 4 2 5-2 4-1 4-2 4-3 11-6 12-8 6-5 6-4 7-5 6-6 6-5 5-5 5-6 4-5 3-5 2-4 1-5v-3l-4-4-3-2h-4l-6 2-5 2-7 3-7 4-7 5-8 6-7 6-7 8-8 8-6 8-7 9-4 8-5 9-3 9-2 8-1 7 1 7 2 6 3 5 4 4 5 3 14 4h8l9-1 10-1 10-3 22-8 10-5 24-13" style="clip-to-self:true;comp-op:src"/>
<path transform="scale(.1)" d="m7798.1 1350-3-3-3-1-6 2-4 1-4 2-3 2-5 4-4 3-4 4-4 5-6 6-8 12-4 8-4 7-6 16-2 8-1 7v8l1 8 2 6 3 6 5 5 5 4 7 3 7 2 8 1h9l9-1 10-2 10-3 11-3 11-4 11-5 10-6 10-5 10-7 8-7 8-6 6-8 5-7 4-8 4-16v-6-5l-1-5-2-4-3-3h-6l-2 3-4 3-3 4-8 12-3 8-4 7-9 27-4 18v8 8l1 7 4 12 4 3 3 3 5 2 5 1 6-1 7-3 6-4 5-6 6-6 14-20" style="clip-to-self:true;comp-op:src"/>
<path transform="scale(.1)" d="m7933.1 1229.1 1-3 2-3-2-2-1-3-2-4h-4-4l-3 2-7 7-2 4-3 3-1 4-3 5-2 4-2 5-2 6v5l-1 5v5 5l1 4 4 8 3 3 3 2 4 1h4l5-1 4-1 8-6 9-8 8-11 6-12 2-6 1-6 1-7 1-6v-6l-1-6v-5l-2-6-1-4-4-6-5-1-3 1-4 2-7 7-3 5-6 14-3 8-8 25" style="clip-to-self:true;comp-op:src"/>
<path transform="scale(.1)" d="m8088.1 1387.2 4-4 2-3 3-3 2-5 1-3 2-4v-4l1-3v-3l-2-5-5-2h-3-5l-10 5-7 4-7 5-8 6-8 7-16 17-9 9-7 10-8 10-6 10-7 10-8 18-3 9-1 8-1 7 1 6 2 4 3 4 4 2 4 1 6-1 7-1 7-3 8-3 9-4 9-6 9-5 8-6 8-7 7-7 12-14 5-6 4-6 6-10 1-3 1-4-4 2-2 2-4 8-4 10-1 6v5l-1 6 1 5v6l3 5 2 5 3 4 4 4 4 3 5 3 5 1h7 6l7-1 14-6 14-8 6-6 6-5 12-14 5-7 6-9 4-9 5-10 4-11 4-12 3-14 3-15 2-16 4-36 1-19 1-18 2-16 1-15v-12l1-10v-8-5-3l-3 1-2 4-1 6-2 7-2 9-3 10-2 12-2 13-3 15-4 32-5 35-2 18-3 17-2 17-2 16-2 15-1 15-1 13 1 12v11l2 9 2 8 3 6 3 4 4 3 4 2h5l5-1 6-2 6-4 14-10 6-6 16-19" style="clip-to-self:true;comp-op:src"/>
<path transform="scale(.1)" d="m8611.9 1330.3-4-2h-3l-4 4-1 3-1 4-1 6-1 7-1 6-1 9v8l-1 9v19l1 9 1 10 2 9 1 9 4 16 4 6 3 6 3 5 4 3 8 4 4 1 5-1 4-2 4-3 5-4 4-5 4-6 4-7 7-14 6-27 2-11 1-11 2-24 1-13 2-13 2-12 3-10 3-8 2-6 3-4h5l4 5 6 15" style="clip-to-self:true;comp-op:src"/>
<path transform="scale(.1)" d="m8785 1406.6v-4l-1-4-2-6-2-5-2-6-4-5-2-4-4-4-4-2-4-3-5-1h-6l-5 2-6 2-6 3-5 5-6 5-6 7-5 7-5 8-8 18-9 27-2 18v8l1 7 1 6 2 5 3 4 3 3 8 2 6-2 5-2 5-3 6-4 10-10 5-6 8-14 3-7 3-6 2-6 2-7 2-10 1-4v-4l-2 3-2 10v9l1 5 1 6 1 5 2 5 2 6 4 5 3 5 4 4 5 4 12 6 6 1 7 1 14-2 14-4 8-4 7-5 7-4 12-12 10-14 4-8 4-9 6-20 3-12 2-13 2-14 2-32v-18l1-18v-18-42-10l-1-6-1-5-2-3-5 4-2 5-2 6-3 8-3 10-2 12-3 14-3 15-3 16-3 17-2 18-4 34-1 17-1 15v15l1 14 1 12 2 12 2 9 2 8 4 7 3 5 5 3 4 3 5 1 5-1 6-2 6-3 6-4 7-5 13-13 6-7 6-8 7-9 6-10 5-10 6-11 6-10 5-11 10-18 4-7 3-7 2-4 1-4-2 6-2 5-2 6-4 16-2 9-1 9-2 9-1 10v9 18l1 8 1 7 2 7 3 6 3 4 4 4 5 2 10 2 7-2 6-2 7-3 6-5 7-5 7-6 7-7 6-7 6-8 5-8 5-9 4-10 4-9 3-9 4-16 1-6v-5l-1-4-4 2-3 3-2 4-4 6-6 14-2 8-2 16v8l1 9 4 16 3 7 10 12 6 5 6 3 8 3 8 2h8l9-1 10-2 9-3 9-5 8-5 8-6 17-16" style="clip-to-self:true;comp-op:src"/>
<path transform="scale(.1)" d="m9158.1 1487.8 4-1 3-1 3-2 5-4 2-3 3-2 10-10 4-3 8-10 4-4 4-6 5-4 12-18 3-7 4-7 4-8 9-21 4-14 2-12v-5l-2-8-1-3-4-3h-5l-3 2-4 2-4 3-3 3-8 10-5 6-7 12-12 24-8 18-3 10-4 18-1 10v9l1 9 3 8 4 8 5 7 8 7 9 5 11 5 14 3 14 2 16 1h18l17-1 17-2 17-3 15-5 33-15" style="clip-to-self:true;comp-op:src"/>
<path transform="scale(.1)" d="m3902.5 2254.7v-3l1-3 1 3v5 4 4l-2 12v8l-2 9-1 9-3 12-5 27-6 32-4 18-3 18-4 18-4 19-3 18-3 19-3 17-3 18-3 16-3 15-1 15-2 14-4 24-4 20-1 8-1 7-2 10-1 7v-13-5l1-6 1-7v-7l1-8 2-20 1-11 4-26 6-32 3-17 8-36 5-19 4-19 5-19 10-36 5-16 6-16 5-14 6-12 5-12 6-10 5-9 6-8 5-7 11-13 9-9 6-3 4-3 5-2 4-1 5-1 4 1 3 2 3 3 4 10 1 7v8l-1 9-2 10-4 22-3 12-4 12-5 12-4 12-5 11-6 11-5 9-6 9-5 8-12 12-5 4-6 3-5 3-5 2-10 2h-4-5-4-3l-4-3-2-3v-4l2-5 6-8" style="clip-to-self:true;comp-op:src"/>
<path transform="scale(.1)" d="m4132.8 2282.8-6-6 3 1 51 51 6 7 7 8 7 7 6 8 12 17 6 8 5 8 5 7 4 7 4 6 6 10 2 5 2 3 1 3 1 4-3 2-4-2-3-5-2-3-2-4-1-4-2-6v-7l-1-7-1-9-3-24" style="clip-to-self:true;comp-op:src"/>
<path transform="scale(.1)" d="m4253.4 2275.9-1-4-4-1-3 1-5 1-3 2-3 1-6 4-8 6-5 3-4 5-5 4-10 12-12 14-6 8-5 8-5 9-6 10-15 30-8 20-3 9-3 8-2 7-3 7-2 10v3 4l8-7" style="clip-to-self:true;comp-op:src"/>
<path transform="scale(.1)" d="m4419.1 2273.8-6-1-12 3-5 3-5 4-16 16-6 8-5 8-6 9-6 10-4 11-6 11-4 12-6 24-2 12-2 11v10 10l1 8 2 7 3 6 4 5 8 6 5 1 6 1h6 7l7-1 6-2 8-3 7-4 8-3 7-6 6-5 7-6 6-7 6-8 4-8 8-18 4-20 1-10v-11-11l-1-10-2-11-1-10-3-10-3-9-3-8-4-6-5-6-5-4-5-3-5-2-5-1h-5l-10 2-4 3-7 7-3 4-2 4-1 5-1 12" style="clip-to-self:true;comp-op:src"/>
<path transform="scale(.1)" d="m4740 2324.7 1-4 6-2h4l5-1h6l6-1 14-2 8-2 24-3h9l16-2h15l7 1h5l5 1 4 1 3 1 2 4-1 4-3 2-3 3-11 7" style="clip-to-self:true;comp-op:src"/>
<path transform="scale(.1)" d="m4696.9 2430.9 3 2h6 4 5l5-1 6-1 7-2 7-1 16-4 18-4 20-4 11-1 11-2 21-3 10-2 10-1 8-1 7-1 6-1 14-1" style="clip-to-self:true;comp-op:src"/>
<path transform="scale(.1)" d="m5227.8 2262.5-4-2-5-1-3 1-3 2-4 4-3 4-5 6-4 7-5 8-4 8-5 9-9 20-3 10-3 11-4 22-2 10v11l-1 10 1 9 1 8 2 8 3 6 4 6 4 4 6 4 6 2 8 1 7 1h8l16-2 8-2 7-2 8-3 8-2 7-4 7-3 6-4 18-15 6-7 5-6 5-8 5-7 6-16 2-8 2-16v-8-9l-1-8-2-8-2-9-3-8-2-9-4-9-3-9-3-8-4-8-3-7-4-7-4-6-3-4-3-2-4-2h-4l-4 2-5 4-18 18-7 8-7 9-8 9-18 27" style="clip-to-self:true;comp-op:src"/>
<path transform="scale(.1)" d="m2473.4 3296.6 1-4v-5-2h-3l-2 6-1 5-2 7-2 8-2 11-3 13-4 14-3 16-4 19-5 20-5 21-10 46-12 44-4 21-5 19-5 17-3 15-4 14-3 12-2 9-2 8-1 5v4l-1 3 2-5 2-6 2-7 2-8 3-9 3-11 3-12 4-13 4-14 3-15 4-16 4-18 5-19 3-21 5-22 4-24 10-48 6-21 6-20 5-18 6-14 4-13 5-9 4-8 3-5 2-3 5-1 4 6 3 5 2 6 3 8 3 9 2 11 6 22 6 26 6 28 6 34 4 19 3 19 4 18 2 18 4 16 3 15 2 14 4 12 3 10 3 9 4 7 2 6 4 5 2 4 3 3 5 4h4l2-4 2-5v-4l-3-15-7-13" style="clip-to-self:true;comp-op:src"/>
<path transform="scale(.1)" d="m2441.2 3527.5 4-4 6-3 3-1 4-2 4-1 10-4 7-1 14-4 8-1 8-2 9-1 24-6 8-3 17-7" style="clip-to-self:true;comp-op:src"/>
<path transform="scale(.1)" d="m2743.1 3298.8-3-1-3 1-2 3-2 6-1 4-2 10-2 16-1 9v10l-1 11v13l-1 13v45l1 16 2 30 1 13 3 13 2 11 6 20 8 14 4 6 5 4 4 3 5 3 5 1 4 1 6-1 10-2 6-3 5-3 10-8 4-6 5-5 8-14 6-16 3-9 2-9 2-11 1-11 1-12 1-13 1-14v-14-27l1-13v-24l-1-9v-9-7l-1-6v-4l-1-4v-3 3l1 6v3l3 12v3 4 4 10" style="clip-to-self:true;comp-op:src"/>
<path transform="scale(.1)" d="m3024.1 3351.9-2-3-3-5-2-3-3-2-3-4-3-2-3-1-3 2-3 18-1 8-1 9-1 11-1 12v14l-1 14-1 16v33l1 17 2 30 2 13 3 12 3 11 4 10 4 8 6 7 4 6 6 5 7 3 6 2 7 2h7l7-1 8-2 8-3 7-4 8-4 7-6 16-12 6-7 7-8 7-9 12-18 6-12 5-11 5-13 8-30 8-32 2-16 3-16 2-15 2-14 1-13 1-10v-17l-1-5-1-4-1-3-3 4-1 4-2 6-1 7-2 16-1 10-1 11v12l-1 12v14 45 16l1 15 1 14 2 14 1 12 2 11 2 10 3 9 3 7 2 7 4 5 4 4 8 6 4 1 5 1 10-2 6-3 10-8 15-15" style="clip-to-self:true;comp-op:src"/>
<path transform="scale(.1)" d="m3442.5 3430.9h-4-3l-3 2 1 3 5 1h4 10l7-1 16-2 9-2 9-1 9-2 10-1 18-2 8-1 14-2h6l4-1h7l4 2-1 4-6 4-5 3-18 7" style="clip-to-self:true;comp-op:src"/>
<path transform="scale(.1)" d="m3434.4 3500.9 1 3 4 1h8 4l12-2 7-1 8-1 8-2 9-1 10-1 9-1 10-1h10 9 9 9l8-1 19-2" style="clip-to-self:true;comp-op:src"/>
<path transform="scale(.1)" d="m3820.9 3328.1-8-8-6-4-5-1-3 1-1 4v3l-1 5-1 6-1 8-1 10-1 11-1 13-2 14-2 16-2 18-3 18-1 20-2 20-2 42-1 20 1 18v17l2 15 2 13 2 10 3 9 4 7 4 5 5 4 5 1 6 1 7-2 6-2 8-4 16-12 26-26 16-22 7-12 6-13 7-14 10-32 5-17 4-19 5-19 8-38 3-17 3-16 4-14 2-12 1-11 1-8 1-6v-5-7l-1 4v3 5l-1 5v6l-1 8v8 10l-1 11v13l-1 13v16l-1 17-1 18-1 19-1 18v17 16 16l1 14 2 14 2 12 3 12 4 11 4 9 5 7 5 6 7 3h7l8-1 8-3 9-5 20-15" style="clip-to-self:true;comp-op:src"/>
<path transform="scale(.1)" d="m6073.1 3356.9 2-5 1-4 4-10 1-5 1-4v-3l2-4 1-4v-4l-1 4-2 4-2 8-2 9-4 11-4 13-5 15-5 17-6 18-6 19-7 20-6 21-7 21-6 20-4 19-6 18-4 15-3 14-3 11-1 10-2 8v7 7l3-2 2-4 2-5 5-14 2-10 6-20 6-24 3-14 2-16 4-16 3-19 4-19 8-42 6-20 5-18 6-17 6-14 5-12 5-9 5-7 4-6 4-3 4-2 4-1 4 1 3 2 3 4 4 4 3 7 2 7 3 9 3 10 2 11 2 12 2 14 2 15 1 15 3 51 2 32 2 15 2 13 1 13 2 11 1 10 4 16 1 5 2 5 1 3 3 4 3-2 1-7-1-13" style="clip-to-self:true;comp-op:src"/>
<path transform="scale(.1)" d="m6033.1 3516.9 1-3 3-4 5-4 4-2 10-6 26-13 9-3 8-4 9-2 16-6 9-2 8-4 20-6" style="clip-to-self:true;comp-op:src"/>
<path transform="scale(.1)" d="m6273.1 3597.8-2 2-3 2-4 1-3-2-3-3-3-6-1-3-1-4v-4-10-6l2-14 1-8 2-9 4-20 4-12 2-12 3-13 4-15 3-14 10-30 4-14 6-13 5-11 6-10 6-9 6-8 7-5 5-5 6-3 6-1 5-1 6 1 5 1 6 2 10 8 5 5 4 7 3 7 3 9 2 10 2 11 2 13v14l1 16v32l-1 16v15l-1 15-1 13v13l-2 22v24l1 6 1 5v4l1 3 6-6" style="clip-to-self:true;comp-op:src"/>
<path transform="scale(.1)" d="m6652.5 3379.7-2-2-5-4-4-2-3-1h-3-4l-3 1-4 1-5 2-4 3-5 4-6 5-13 13-7 9-6 11-7 12-5 13-6 14-4 15-4 14-3 15-2 15-2 14v13l1 13 1 12 3 11 4 9 5 9 6 8 7 6 18 8 10 2 11 1 11-1 12-1 26-6 12-5 13-5 12-7 11-7 12-8 10-9 9-9 9-10 7-10 6-12 5-12 6-28 1-15v-15l-1-15-2-14-3-12-4-11-5-9-6-6-7-5-9-4-18-2h-11l-10 2-11 2-11 3-10 5-10 4-8 4-8 5-6 5-5 5-3 5-2 4v4l1 4 3 2 2 2 5 1h13" style="clip-to-self:true;comp-op:src"/>
<path transform="scale(.1)" d="m6731.2 3277.8-2-3-1-3-2-3-4-4-4 1-2 4-2 10-1 7-2 8-2 10-2 12-3 13-3 14-4 16-5 18-6 20-6 21-7 24-8 25-16 52-9 26-9 27-10 25-9 26-9 25-9 23-8 23-7 21-6 19-5 17-5 14-3 12-2 10-2 6v5l2 3 4-6 4-5 12-18" style="clip-to-self:true;comp-op:src"/>
<path transform="scale(.1)" d="m6935.6 3486.2-2-2 3-2h5l4-1h4l10-2 6-1 7-1 8-1 7-2 8-1h7l8-1h7l6 1h6l5 1 4 2 3 1 2 2-4 12" style="clip-to-self:true;comp-op:src"/>
<path transform="scale(.1)" d="m6922.2 3564.7h-4l7-2 3-1 10-2 5-2 6-1 8-1h7l17-2 8-2 9-1 23-6" style="clip-to-self:true;comp-op:src"/>
<path transform="scale(.1)" d="m7296.6 3403.8-2-4-1-3-3-5-2-3-3-2-5-2-6 1-6 4-3 4-4 5-4 7-5 7-4 9-4 10-4 12-3 13-4 13-3 15-3 14-4 28-2 13v13l1 12 2 11 3 10 10 16 6 5 8 5 8 3 9 2 10 1h10l10-1 12-2 11-3 10-4 12-5 10-5 10-6 9-6 9-7 8-8 7-8 6-9 5-10 5-12 4-11 2-13 2-15v-15-14l-1-15-2-13-3-12-4-11-5-9-6-8-16-12-9-4-20-6-22-2h-11l-10 1-11 2-9 3-8 3-6 2-6 4-4 3-3 3-1 4-1 2 7 9" style="clip-to-self:true;comp-op:src"/>
<path transform="scale(.1)" d="m7378.1 3259.1-3-4-2-4-4 3-2 7-1 5-5 15-2 9-3 11-5 13-4 14-5 16-6 18-6 19-7 20-7 23-14 50-7 27-8 26-16 54-9 26-7 26-8 26-7 25-7 24-6 23-6 21-5 20-4 18-3 16-2 13-2 12-1 8v6 4" style="clip-to-self:true;comp-op:src"/>
</g>
</g>
</g>
</svg>
