<?xml version="1.0" encoding="UTF-8"?>
<svg width="1e3pt" height="700pt" version="1.2" viewBox="0 0 1e3 700" xmlns="http://www.w3.org/2000/svg">
<g id="surface50">
<rect width="1e3" height="700" fill="#20282d"/>
<g fill="none" stroke-linecap="round" stroke-linejoin="round" stroke-miterlimit="10">
<g stroke="#fff">
<g stroke-width="14.1">
<path transform="scale(.1)" d="m3463.1 472.5 1-3v-3l5-20 2-7 1-3v-3l2-10v-3l-3-1-3 5-2 5-2 6-2 8-3 10-3 12-3 13-3 15-3 16-2 17-6 36-2 20-2 19-4 40-1 19-2 19v18l-1 16 1 16 1 14 2 12 2 10 3 8 3 7 3 4 5 3 5 1h5l6-3 7-4 7-6 8-8 9-10 9-11 9-12 9-13 9-14 16-30 7-17 7-18 6-20 5-22 6-23 5-25 6-26 5-27 6-27 5-26 4-23 7-35 3-11 1-7v-3l-3 5-3 6-2 7-2 9-2 11-3 12-1 13-2 28-1 15v15 15 15l1 15 1 16 1 17 2 16 1 17 2 15 4 28 4 22 2 10 2 8 3 7 2 7 3 5 2 3 4 3 6-5" style="clip-to-self:true;comp-op:src"/>
<path transform="scale(.1)" d="m3721.9 630.62-4 1-4-1-2-3v-3l2-5 2-3 3-3 3-2 3-4 8-4 5-2 4-1 5-1h4l5 1 3 1 4 3 4 4 6 10 3 7 2 7 2 9 2 18v11 31 10 8l-1 8v6l-1 5v3 4-3-3l1-4 1-6 2-7 3-7 6-16 8-18 10-20 5-11 12-18 6-8 12-12 6-4 4-2 5-1 4 1 3 1 6 8 2 5 2 6 3 7 2 7 2 8 3 9 1 9 4 18 1 9 2 9 1 9 2 16 1 6 1 5 1 4v4l2 3 3-3 2-6 2-11" style="clip-to-self:true;comp-op:src"/>
<path transform="scale(.1)" d="m4004.4 601.25-1 6-2 8-2 5-2 12-2 7-1 7-2 7-2 16-1 9-1 10v9l-1 10v21l1 10v10l1 9 1 7 2 8 2 5 2 4 4 2 5-3 3-4 3-5 8-28" style="clip-to-self:true;comp-op:src"/>
<path transform="scale(.1)" d="m4046.9 515.62-1 4v5l1 5v3l2 7 4 12 3 11" style="clip-to-self:true;comp-op:src"/>
<path transform="scale(.1)" d="m4094.4 618.12 1 5 1 4 2 10 1 6 2 7 1 8 1 9 2 9 1 9 2 20 2 10 2 11 4 20 2 9 4 14 2 5 3 4 2 2h5l5-4 3-4 2-5 6-14 2-8 3-8 3-9 2-9 2-10 3-11 4-22 2-12 3-12 6-20 2-7 5-10 3-3 3 4 1 3 1 4v5l1 5 3 18 1 7 3 19" style="clip-to-self:true;comp-op:src"/>
<path transform="scale(.1)" d="m4280.3 700.31 2-4v-3l2-5 2-10 1-4v-4l1-4-1-4v-3l-1-4-1-3-3-4-3-3h-5l-2 1-9 6-2 4-3 4-6 10-3 6-2 6-5 14-2 8-2 16v8 9l1 8 1 7 2 8 3 7 3 6 3 5 3 4 4 3 4 2 4 1h5l5-1 5-2 5-3 13-13 4-5 4-6 4-7 6-14 4-7 2-8 6-17 3-9 16-32 8-12 3-3 4-3 3-1 5 2 2 2 2 3 2 5 3 5 2 6 1 7 2 7 1 9 2 9 1 9v10l1 11v21l-1 11v9l-1 8v8l-2 10-2 8-3-1-3-4-1-3-2-10-1-6v-6-14-8l1-8 3-18 2-10 3-12 4-12 10-26 6-13 7-12 14-20 13-13 6-4 5-3 4-1h4l6 5" style="clip-to-self:true;comp-op:src"/>
<path transform="scale(.1)" d="m4561.6 631.56 1-7 2-5 2-7 4-12v-5l1-4v-3l-3-4h-5l-4 2-5 2-4 3-6 4-6 5-5 5-6 5-12 12-5 6-9 13-3 6-2 7-2 6v6 6l2 6 2 5 3 6 12 15 5 4 6 4 5 5 7 3 6 4 5 3 7 3 6 3 5 3 5 4 4 3 3 3 3 4 1 3v4 4l-6 8-8 8-6 3-5 2-6 3-7 2-14 2h-8-7-7l-6-2-7-1-6-3-5-3-9-7" style="clip-to-self:true;comp-op:src"/>
<path transform="scale(.1)" d="m4713.1 665.31-2-3-5-5-4-3-3-2h-4-3-4l-5 2-4 2-5 4-6 3-5 5-10 12-5 8-6 8-8 18-4 11-3 10-3 11-2 10-1 10-1 9v8l1 8 1 6 2 4 3 3 3 2h3 5l4-3 6-3 5-4 11-12 7-7 5-7 12-16 4-8 6-8 8-16 6-14 3-6 2-6 1-4 2-6-1 5v3l-1 4v4 24 6l1 6 4 12 3 6 2 6 8 8 4 3 5 2h5 5l5-1 6-3 5-4 6-4 11-11 4-7 5-7 13-21" style="clip-to-self:true;comp-op:src"/>
<path transform="scale(.1)" d="m4871.6 507.81v-4l2-8 4-10 2-12 2-9v-6l-1-4-3-1-5 6-5 10-2 7-3 8-3 9-2 9-3 10-3 11-4 24-2 13-3 14-1 15-2 15-2 32v16 16 15l1 14 2 13 2 11 3 10 2 9 4 6 4 5 5 4 4 2 5 1 6-1 5-3 6-3 5-5 5-6 12-15" style="clip-to-self:true;comp-op:src"/>
<path transform="scale(.1)" d="m5459.7 541.25 1-5 1-4v-3-2l1-4-1-3v-5-4l-4-12-2-3-4-3-6-2h-3-4l-4 1h-5l-6 2-6 1-6 3-14 4-8 3-34 17-8 5-14 10-6 5-5 6-4 5-1 6-2 5v7l2 12 2 7 3 8 4 7 5 7 6 8 6 7 7 7 7 8 24 21 9 7 7 7 8 6 6 6 7 6 6 5 10 10 6 8 2 4 2 6-2 5-5 4-3 2-10 4-7 2-6 1-8 2-17 2-20 2-11 1h-11-11l-11 1h-23l-10-1h-10l-8-1-9-1-6-1-7-2-8-4-3-2-2-3-1-3v-3-3l2-4 1-4 2-3 2-4 8-7" style="clip-to-self:true;comp-op:src"/>
<path transform="scale(.1)" d="m5538.4 705 1 3h4 5l8-2 4-2 5-1 10-5 5-3 11-7 10-8 6-4 4-5 5-5 4-5 6-10 2-5 1-4 1-5-2-8-4-6-4-2-4-1-5-1-5 1-7 1-7 2-7 4-8 4-8 5-8 6-8 7-8 8-14 16-6 9-5 10-4 9-3 8-1 9v9 7l2 8 3 7 4 7 5 6 6 5 6 3 9 2 8 1 20-2 11-2 12-4 11-4 12-5 12-6 12-7 12-6 11-8 10-9 10-8 19-22" style="clip-to-self:true;comp-op:src"/>
<path transform="scale(.1)" d="m5749.1 507.81v-3l-2 6-1 4-2 5-1 5-2 7-3 7-2 9-2 11-3 11-3 12-4 14-3 14-7 30-2 16-3 16-3 14-1 15-2 24 1 10 1 9 2 7 4 6 3 4 5 3h6 5l7-2 7-3 7-4 14-10 13-13 12-17" style="clip-to-self:true;comp-op:src"/>
<path transform="scale(.1)" d="m5695.3 637.19 1-3 2-5 4-4 6-3 4-3 4-2 6-2 12-6 14-4 16-4 8-1 8-2 8-1 12-4 12-3" style="clip-to-self:true;comp-op:src"/>
</g>
<path d="m343.5 93.781h237.03" stroke-width="1.41" style="clip-to-self:true;comp-op:src"/>
</g>
<g stroke="#ff0" stroke-width="14.1">
<path transform="scale(.1)" d="m6935.9 858.12-3 1-5 3-7 7-2 3-3 4-4 9-1 4-2 6-2 10-1 6-1 5v6 5 5l1 4 1 3 2 4 2 3 1 3 3 3 6 4h3 4l3-2 4-2 4-3 9-7" style="clip-to-self:true;comp-op:src"/>
<path transform="scale(.1)" d="m6982.5 850.62h-3l-3 3-4 5-2 3-1 5-1 3-2 5-1 5-3 18v7 7 7 7 6l1 7 2 5 1 5 6 13" style="clip-to-self:true;comp-op:src"/>
<path transform="scale(.1)" d="m7128.4 1034.4v21 7 8 9l-1 10v11l-1 12v11l-1 13-3 36v10l-2 18-1 7-1 6v6 5l-1 4v3 4l-3-2-3-7v-4l-2-10v-6l-1-7v-17l1-10v-10l2-13 1-13 2-14 2-13 4-28 3-13 3-11 2-11 3-9 1-7 2-6 1-4 3-4 4 3 3 6 4 12 3 7 4 16 3 9 3 10 2 10 3 11 2 11 3 11 2 11 3 11 3 10 2 9 3 8 3 7 3 5 2 4 2 2 4 3 4-1 3-6 2-5 4-12 2-8 2-9 4-20 4-22 2-12 3-12 6-26 4-14 4-13 4-12 5-11 3-10 4-7 3-6 3-3 4-2 2 5 1 4 2 12 2 9 1 9 1 10 1 11 2 23 1 12v12l1 14 2 26 2 13 2 22 2 10 2 8 2 6 2 5 2 4 3 2 6-1" style="clip-to-self:true;comp-op:src"/>
<path transform="scale(.1)" d="m7372.8 1085.6-1 4v3l-1 4-2 5-1 5v5l-2 7-2 8-1 7-2 9-2 10-2 9-2 11-1 10-1 9-1 10-1 9v9l2 16 2 7 2 6 3 4 4 5 4 2 4 1 6 1 5-1 6-1 6-2 7-5 6-4 7-5 6-6 6-8 10-16 5-10 3-10 3-11 2-11 2-12 1-12v-10-10l-1-8-1-7-3-5-3-4-3-2-4-1-10 2-6 2-12 8-17 17-4 7-4 6-3 6-2 7-1 5v4 4l4 9" style="clip-to-self:true;comp-op:src"/>
<path transform="scale(.1)" d="m7567.2 1004.7-3 2-1 5v21 7 9l-1 9v11l-1 13v14l-2 16-3 54-1 19v18 48 12l1 10 1 8 1 6 2 6" style="clip-to-self:true;comp-op:src"/>
<path transform="scale(.1)" d="m7502.8 1135.6 3-2 5-1 7-2 4-1 5-1 10-5 6-2 6-4 7-4 6-3 8-5 7-5 8-5 14-12 8-6 6-6 7-4 6-6 5-4 5-5 4-2 2-3 5-2 2 2 1 6v5l-1 6-1 8-1 9-2 10-1 12-2 13-2 14-2 15-2 14-1 14v14l-1 12v11l1 10 1 8 2 7 1 6 2 4 3 4 4 3h6l5-4 3-3 3-4 6-12 2-7 3-7 6-16 2-8 3-9 3-8 2-7 3-7 3-5 1-4 2-4 2-2 2 4 1 3v5l1 4v6l1 5v6l1 5 2 7 1 5 2 6 4 10 4 8 6 6 8 4 8 2 6-1 5-1 5-2 6-2 12-8 5-4 6-5 5-6 6-6 4-7 5-7 8-16 3-9 3-8 4-16v-6-6l-1-5-1-4-2-3-4-2-6 1-8 6-8 10-5 6-4 7-4 8-4 7-3 9-4 8-3 9-2 8-1 9-2 8v7 7 7l1 6 4 10 4 3 3 3 8 4 8 1 5-1h4l4-2 5-2 5-3 4-2 10-8 4-5 5-4 4-5 5-6 4-5 4-7 3-6 8-14 6-14 4-6 6-10 3-4 2-2 5-3 4 2 4 8 3 15 1 7v7l1 6 1 8v15 7 8l1 6v7 5 6l1 4v4l2 3 1 3 1-4 1-3 1-4 2-10 2-6 2-7 4-16 4-8 3-10 4-11 12-24 6-14 7-13 8-12 8-11 9-10 8-9 8-6 8-7 8-4 7-4 6-2 4-1 10 2" style="clip-to-self:true;comp-op:src"/>
<path transform="scale(.1)" d="m8278.8 1134.4-4-2-5-2-6 2-3 3-3 4-4 4-4 6-3 7-4 7-4 8-7 17-3 10-2 9-2 8v8 8l1 7 2 6 4 5 3 4 5 3 5 2 6 2h6l12-2 7-2 6-3 7-4 5-4 6-5 5-5 4-5 4-6 3-6 2-7 2-14-1-8-1-7-1-8-1-7-3-7-3-6-2-6-6-8-4-2-3-2-4-1-3 1-4 1-2 1-3 2-1 3-2 4v5l4 6 6 6" style="clip-to-self:true;comp-op:src"/>
<path transform="scale(.1)" d="m8337.2 1169.4h8l5 1 5-1h5l18-3 7-2 7-3 8-3 8-4 8-5 9-5 16-12 7-6 14-14 12-16 6-9 5-9 4-9 5-11 3-10 3-12 2-11 2-12 1-11v-10-9l-2-6-2-5-3-4-3-1h-4l-4 1-5 2-8 8-4 5-4 8-4 9-4 10-4 11-3 13-4 14-3 15-2 17-2 18-2 20v20l-2 42v21l1 21v22l2 42 1 19 2 18 4 32 2 13 4 11 3 9 7 14 4 5 4 2 4 1h5l3-1 5-2 4-4 5-4 3-6 4-5 4-7 2-7 3-8 2-8 1-9v-9-9l-1-9-2-9-4-9-4-8-5-8-6-8-8-7-8-6-9-6-9-4-8-5-10-4-8-3-9-4-8-3-14-6-6-3-5-2-8-6-2-3-2-5 2-6 3-4 4-4 5-3 12-8 14-6 7-4 8-2 14-6 8-3 12-4 11-3" style="clip-to-self:true;comp-op:src"/>
<path transform="scale(.1)" d="m8959.4 1122.5-3-4-3-6-2-2-3-2-5-4h-3l-3-1h-4l-8 1-4 2-4 3-5 4-5 5-6 5-6 7-5 9-6 9-5 10-6 11-10 22-8 20-3 9-2 9-1 8v14l1 6 4 8 2 3 6 4h4 4 4l5-1 10-4 5-4 5-3 5-4 4-5 5-6 5-5 12-21 3-8 4-9 3-9 3-10 5-20 2-9 2-8 2-7 1-6 1-3 2-4v5 29 8l1 7 1 8 2 7 1 7 4 13 2 6 6 10 3 4 4 4 8 4h5 5l4-1 5-2 4-3 5-4 10-11" style="clip-to-self:true;comp-op:src"/>
<path transform="scale(.1)" d="m9084.1 978.75-3-4-3-1-4 1-2 5-1 3-1 5-1 4-2 14-1 8-1 9-1 10-1 11-1 13v12l-1 15-1 16-2 36-2 38v17 17 14l2 12 1 10 3 8 2 6 4 5 4 4 3 2h5l5-1 4-2 5-4 5-5 5-6 5-7 5-8 8-18 6-22 3-13 2-14 2-15 3-16 1-17 2-19 2-38 1-20 4-40 1-18 2-16 3-14 1-10 2-8 1-6v-3l1 7v53l-1 13v14 15l-1 16-1 17-1 19-2 40-1 21-2 20-1 19v17l-1 15v14l1 12v10l1 8 1 7 2 5 1 4 5 1" style="clip-to-self:true;comp-op:src"/>
<path transform="scale(.1)" d="m7325.3 1521.9 4-8 2-5 2-8v-4l1-4-1-3-2-4-4-4h-4-3l-4 1-5 2-6 2-6 3-12 10-7 7-8 7-7 8-7 9-6 9-7 9-6 9-10 18-7 16-1 8v9 8l1 8 3 7 3 8 6 14 4 7 4 6 10 12 8 10 3 5 6 8 2 3 1 5-2 4-5 4-3 1-5 2-10 2h-6l-6 1-7 1-24 3h-8-8l-7 1h-19l-4-1-3-1-2-5 1-3 4-4 3-4 15-11" style="clip-to-self:true;comp-op:src"/>
<path transform="scale(.1)" d="m7345.9 1703.1 3 3 5-1h3l4-2 10-4 5-3 12-8 12-10 10-10 4-5 4-4 2-5 2-4 1-5v-3l-1-4-4-6-3-1-5-2h-4-6l-7 2-7 1-14 6-7 4-14 10-6 6-10 14-4 7-3 8-1 7-1 8 1 7 3 7 3 6 5 6 6 4 7 4 8 2 9 1h11l10-1 12-2 12-3 12-4 13-5 26-12 12-7 12-8 11-8 25-21" style="clip-to-self:true;comp-op:src"/>
<path transform="scale(.1)" d="m7550.6 1508.4-1-5v-4l-1-5-1-4-1-2-2 4v52 10 11l-1 10v11l-1 12-2 22v11l-1 11v11l-1 10v10l-1 9v8 7l-1 6v4 4l-1 3-1-2v-14" style="clip-to-self:true;comp-op:src"/>
<path transform="scale(.1)" d="m7494.7 1614.4h-10l-3 1h-4l2-3 6-3 5-2 4-2 18-6 8-2 7-2 8-2 7-2 8-3 7-2 8-3 7-3 19-7" style="clip-to-self:true;comp-op:src"/>
<path transform="scale(.1)" d="m7670.6 1545.9 3-6-3-3-5-1-7 1-4 1-5 2-10 5-5 3-6 4-5 5-12 10-5 6-6 6-8 12-2 6-2 5v6 5l1 5 9 12 4 4 10 6 6 3 6 2 7 3 6 1 6 3 5 1 4 2 4 3 2 2 2 5-3 6-7 7-5 4-6 3-7 3-8 4-8 3-9 2-8 3-16 4-9 1-7 1h-6-7l-6-1-4-2-5-1-7-6" style="clip-to-self:true;comp-op:src"/>
<path transform="scale(.1)" d="m8028.1 1582.2v-21 7 4 6 8 9l-1 10v11l-1 11v12 13 25 12l1 13 1 12 1 11 3 9 2 8 6 10 4 2 4 1h5l5-1 5-3 6-4 6-5 6-6 6-8 5-8 6-9 4-9 5-10 4-9 3-10 4-10 4-18 3-8 2-7 1-6 1-4 1-3 4 3 2 8 1 5 1 6 1 5 2 7 2 6 3 6 2 7 7 11 8 10 4 4 5 3 10 5 6 1 5 1h5l10-2 4-2 3-3 4-2 3-4 2-3 2-4 1-5 1-4 1-5v-6-5l-1-7-1-5-1-6v-7l-1-6-1-5v-7l2-8" style="clip-to-self:true;comp-op:src"/>
<path transform="scale(.1)" d="m8310.9 1607.8-1-3v7l1 3v9 5l1 7v6 7l1 8v7l2 16 1 7 1 8 1 7 1 6 2 6 2 5 1 4 2 3 4 2 3-1 5-9" style="clip-to-self:true;comp-op:src"/>
<path transform="scale(.1)" d="m8415.9 1525.3 2 4 1 7v4 5 6 14l-1 9v8 9 9l-1 9v19l1 9v9l1 9 1 8 1 7v6l1 4 1 5" style="clip-to-self:true;comp-op:src"/>
<path transform="scale(.1)" d="m8355.9 1624.1-1-3 1-3 5-3 4-2 10-4 6-2 7-3 8-3 7-3 9-3 8-4 17-7 9-3 8-5 8-4 9-5 7-5 8-5 7-5 6-4 6-3 4-4 4-2 3-1 4-1 2 2v7 5 6l-1 6-1 8-2 8-1 9-2 9-1 10v9l-1 9v9l1 8 1 9 2 7 2 6 2 5 6 8 3 2 3 1h4l3-1 4-1 4-2 5-4 4-4 5-4 5-6 5-5 4-6 5-6 4-7 5-6 8-12 9-10 3-4 3-2 5-2h3l2 4 1 3 1 4 1 6 1 5v7l1 7v7 8l2 16 1 7 2 16 2 7 3 7 2 5 3 5 3 3 3 2 3 1 6-1 4-6 3-5 4-13" style="clip-to-self:true;comp-op:src"/>
<path transform="scale(.1)" d="m8339.7 1515.3-4 4-1 5v3 3 3l1 4 1 3 2 3 3 4 5 4 5 1h6l8-4 3-2 8-6 6-8 2-4 2-5 1-5v-4l-2-10-3-5-2-4-3-4-8-8-4-2-10-4h-6-6l-6 1-6 2-8 4-7 4-16 12-18 19" style="clip-to-self:true;comp-op:src"/>
<path transform="scale(.1)" d="m8717.5 1593.4v-2-3-4 4l1 4v4 4 6l1 6v31l-1 8v9 8 22l-1 7v13l2 3" style="clip-to-self:true;comp-op:src"/>
<path transform="scale(.1)" d="m8698.1 1476.9-4 2-5 4-1 4-2 4-1 5-2 5v5l-1 5v5l2 8 4 6 6 2 5 1 4-1h6l10-4 5-3 5-4 4-3 3-5 4-8 1-5 1-4v-5l-2-10-1-4-2-5-4-8-5-5-4-1h-6l-4 2-2 3-4 5-3 4-3 7-7 21" style="clip-to-self:true;comp-op:src"/>
<path transform="scale(.1)" d="m8791.2 1659.1-1-3 1-4 3-6 3-4 2-4 2-5 4-5 3-6 8-12 15-18 5-5 10-8 4-3 4-2 4-1h3l3 1 4 4 3 4 1 5 2 5 2 14 1 8 2 17v8l1 9 3 21 1 6 1 5 2 4 1 3 3 2 4-1 4-5 4-8 3-5 2-5 2-6 3-6 3-5 2-7 4-6 3-7 3-6 4-7 5-7 9-12 10-10 4-3 4-2h4l6 2 2 3 2 4 2 5 1 6 2 14 1 8 1 9v10 10l1 11 1 10 2 22 3 10 2 8 4 9 3 6 4 5 5 4 4 2 14 3" style="clip-to-self:true;comp-op:src"/>
<path transform="scale(.1)" d="m9266.6 1496.2 1-3v-3l1-4v-4l1 6-1 4-1 5-1 6-1 8-2 9-4 20-4 22-2 12-2 26v13l-1 13v27l1 13v12l1 11 1 10 1 9v6l1 6 2 8" style="clip-to-self:true;comp-op:src"/>
<path transform="scale(.1)" d="m9145.9 1615.6 4-3 4-1 4-2 6-1 7-2 6-2 8-3 8-2 9-3 10-3 9-3 11-4 10-4 10-5 12-4 12-6 11-5 11-6 10-5 10-6 8-6 7-4 5-4 5-3 6-6v6 3l-1 6-1 5-4 14-1 9-2 8-2 10v10l-2 21v30l1 9 2 16 2 8 4 10 3 4 1 4 3 2 4 1 5-1 4-5 2-3 3-3 3-5 3-4 6-12 5-6 4-7 4-5 4-6 10-12 10-8 4-3 4-1 3-1 4 1 4 6v4l1 4 2 12 1 7v7l2 6 1 8 1 7 2 7 1 6 2 5 6 10 3 3 4 3 8 2 4-1 5-1 5-2 5-3 5-4 6-4 5-5 5-7 5-6 4-6 7-15 4-8 2-9 2-8 2-9 2-8 1-7v-6-5-3l-2-4-4 1-4 5-2 4-2 5-3 6-4 14-2 8-1 7v8l2 16 2 8 4 7 4 8 13 13 8 5 18 8 10 2 10 1 11 1 24-2" style="clip-to-self:true;comp-op:src"/>
<path transform="scale(.1)" d="m7278.8 2034.1-8-8-3-1-6-1-4 2-4 1-5 3-4 4-6 5-5 6-6 9-7 9-7 11-6 12-6 13-5 14-5 15-4 14-4 15-2 15-1 15v14l1 12 2 12 4 10 4 9 5 7 6 6 7 4 8 2 9 2 20-2 12-3 11-5 12-6 12-7 12-9 10-10 24-27" style="clip-to-self:true;comp-op:src"/>
<path transform="scale(.1)" d="m7350.9 2097.8-3 2-2 2-8 10-4 6-3 7-6 16-1 8-2 9v8 9 8l2 8 4 14 4 6 3 7 10 8 6 2 14 2 16-2 9-3 8-3 9-4 8-6 14-12 6-7 6-6 6-14 2-7v-7l-1-7-1-6-3-6-4-5-5-4-6-4-6-3-7-2-8-1h-7-9l-8 1h-7l-8 1-12 2-4 2h-4l3-3 5-2 4-3 6-3 14-8 16-10 8-4 9-5 8-5 18-8 8-4 16-4 6-1 7-1 10 2 5 2 3 3 3 4 3 5 1 6 1 8 1 7v9l-1 10v9l-1 9-1 10-2 16v8 10 4l2 4 3 1 4-5 2-3 2-4 9-15 3-6 4-6 3-6 7-13 5-7 5-6 4-8 6-6 5-6 10-11 6-4 5-4 4-3 4-1h4l3 1 2 3 2 4 1 5 1 6v6l1 8v41 9l3 21 2 5 2 4 2 2 3 2 3 1 3-1 6-4 3-4 4-5 3-5 4-6 4-7 3-8 7-23" style="clip-to-self:true;comp-op:src"/>
<path transform="scale(.1)" d="m7696.2 1976.9 4-12 2-7 2-5 1-4 3-4 2-1 4 4 2 5 2 10v7 17 10 11l-1 11-3 39v14l-1 13v37l1 11v10l1 9 2 14 1 4v3l1-5-1-10" style="clip-to-self:true;comp-op:src"/>
<path transform="scale(.1)" d="m7632.5 2091.6 1-4 3-6 2-3 4-3 4-4 5-4 5-5 6-3 6-5 7-3 15-7 8-3 9-4 9-2 18-8 9-2 22-6" style="clip-to-self:true;comp-op:src"/>
<path transform="scale(.1)" d="m7772.2 2153.8-1 4-1 3-1 5-1 2 1 5 5 2h3 3l10-4 6-3 6-4 24-15 8-7 9-6 16-14 8-8 14-18 6-10 5-10 4-10 6-18 1-7v-6l-1-4-5-2-5 2-6 3-6 5-8 7-7 8-16 18-8 11-7 11-12 22-4 11-4 10-2 10-1 10v9l1 9 1 8 3 7 4 6 5 5 5 4 6 3 7 2h7 8l16-4 8-4 9-3 9-5 8-5 17-11 16-12 13-13 6-5 12-12 8-10 6-8 6-6h2l4 1 3 5 1 3 3 3 2 5 3 4 3 6 4 5 4 6 10 12 6 5 7 6 7 5 7 6 14 9 7 4 7 3 6 2h6l5-1 5-2 4-3 10-9" style="clip-to-self:true;comp-op:src"/>
<path transform="scale(.1)" d="m8093.8 2061.2-2 3-3 5-1 3-2 8-2 4-1 5-4 9-2 6-8 16-2 7-4 6-3 7-8 16-3 8-4 8-3 8-6 17-2 7-1 8-1 6v5 5l1 3 4 3 5-3 16-12" style="clip-to-self:true;comp-op:src"/>
<path transform="scale(.1)" d="m8199.1 1978.1 2-4 1-4 4-8 1-4-2 3-1 3-1 4-2 4-1 6-2 6-1 8-4 18-2 11-1 12-2 12-1 13-2 28-1 15v29l1 14 2 14 1 14 3 12 3 10 4 10 3 8 4 7 4 6 4 3 4 4 4 1h4l4-1 3-3 4-2 4-5 8-16 2-16v-22" style="clip-to-self:true;comp-op:src"/>
<path transform="scale(.1)" d="m8181.2 2060-4 1-5 1-3 2 4 2 7-2 4-1h5l7-2 6-1 7-2 9-1 18-4 10-2 20-6 10-5 10-4 26-10" style="clip-to-self:true;comp-op:src"/>
<path transform="scale(.1)" d="m8440.9 1903.8 3 2 3 5 1 4v4l1 4 1 6v12l1 7v46 7l1 6v5 4l4 5" style="clip-to-self:true;comp-op:src"/>
<path transform="scale(.1)" d="m8482.5 1907.5 4 4 1 3 1 5 1 4 1 5 2 11 2 7 1 7 2 7 2 8 9 27 3 10 8 27 8 20" style="clip-to-self:true;comp-op:src"/>
</g>
<g stroke="#fff" stroke-width="14.1">
<path transform="scale(.1)" d="m1037.5 1950.3v-3l1-7v-3l1-4 2-6v3l-1 5-1 4-2 12-3 8-2 9-6 24-3 13-4 14-4 15-3 17-8 32-7 31-3 14-6 24-2 10-2 9-3 7v7l-1 5-1 3v4l3-4 2-3 3-6 2-6 3-8 4-9 3-11 4-11 4-12 3-14 3-15 3-16 4-17 3-18 4-19 4-20 3-18 5-18 4-16 4-14 4-11 3-9 4-10 2-4 4 4 1 3 1 4 1 5 1 6 2 6 1 6 2 8 1 8 2 8 3 9 4 20 3 11 4 10 3 12 4 13 3 12 4 14 3 13 4 13 3 13 3 12 7 22 3 10 4 10 6 18 3 7 2 6 3 6 2 5 4 6 2 4 3 1 3-4 1-6 1-4v-5-11-6l-1-7-2-6-6-16" style="clip-to-self:true;comp-op:src"/>
<path transform="scale(.1)" d="m1027.2 2129.7v-8l2-6 2-5 3-5 5-5 9-6 4-2 5-2 4-2 6-1 5-1 6-1 14-2 6-1 7-2 24-6" style="clip-to-self:true;comp-op:src"/>
<path transform="scale(.1)" d="m1287.5 2039.4 4-1 3-1 7-2h4l3-1h5 5l4-1h9l3 1h6" style="clip-to-self:true;comp-op:src"/>
<path transform="scale(.1)" d="m1266.9 2119.1v4l2 3 4 2 6 1 5-1h4l5-1 5-2 14-4 16-4 27-9 9-4 8-4 19-9" style="clip-to-self:true;comp-op:src"/>
<path transform="scale(.1)" d="m1606.6 1949.4 1-7 1-6 3-8 2-8 1-8 2-6 1-6 1-5v-9l-1-4-3-5-4-1h-3l-4 1-4 2-5 3-6 4-24 24-6 8-7 9-13 18-5 9-5 10-3 9-4 9-2 9-1 9v8l4 14 4 5 4 6 5 5 5 4 6 3 6 4 7 2 6 3 12 4 5 2 5 1 4 1 4 3 4 4 2 6-2 8-2 5-5 10-3 5-12 18-6 5-4 6-4 5-6 10-2 4-1 4-1 3v4l2 5 5 5 5 3 6 2 2 1 4 1 2 1 3 1 4 2 2 5v5 4l-1 3-4 11-3 6-3 5-4 6-3 7-4 5-4 6-3 5-4 6-3 5-3 4-4 8-1 3v3l2 5 5 2 3 1h4l5-1 6-1 7-1 7-2 7-1 8-3 7-2 8-2 7-2 12-4 10-4 10-5" style="clip-to-self:true;comp-op:src"/>
<path transform="scale(.1)" d="m1794.4 2018.1-2-6v23 7 9 9 10l-1 10v11l-2 23v23l1 11 2 18v8l1 7 2 5 1 4 4 8" style="clip-to-self:true;comp-op:src"/>
<path transform="scale(.1)" d="m1907.5 2153.4 3-1 2 3 2 4v6 5 4l-1 6-1 7-1 6-1 8-2 8-4 18-5 18-4 16-7 12-3 6-4 4-8 6" style="clip-to-self:true;comp-op:src"/>
<path transform="scale(.1)" d="m1998.4 2076.9 1-4v-4l2-4 2-5 6-10 5-6 5-5 6-5 6-6 7-4 6-5 7-3 6-4 12-4 12-2h5l5 1h3l4 2 2 3 1 4 1 5-1 6-3 7-3 8-6 8-6 10-7 10-8 11-9 11-9 10-9 11-9 9-16 18-7 8-6 7-5 6-3 5-3 4v4 3l4 5 4 1 5 1 6 1h8 9l9-2 20-2 11-2 10-2 18-4 8-1 7-2 7-1 4-1h5l3-1-3 5" style="clip-to-self:true;comp-op:src"/>
<path transform="scale(.1)" d="m2230.3 2131.9-4 1-4 4-1 2-2 3-3 4-2 4-2 6-3 5-7 12-3 7-4 7-3 7-4 8-3 9-4 9-3 8-3 9-3 8-2 7-4 12-2 4-2 3-2 2-5 4" style="clip-to-self:true;comp-op:src"/>
<path transform="scale(.1)" d="m2312.2 2021.6-4-2-3-2-1-2 3-4 2-2 3-2 4-2 4-3 6-3 6-2 5-4 7-3 14-4 7-3 6-1 7-2 5-1h6l5-1 5 1h4l4 1 2 2 2 6-1 4-2 5-6 12-10 14-6 8-6 7-5 7-12 14-5 7-11 11-4 5-2 5-3 4-2 3v5l4 3h3 11l8-1 7-1 9-1 9-2 27-3h8l8-1 8 1 5 1 5 2 4 2 3 3 1 3v4l-1 4-3 5-4 5-6 6-6 5-8 5-8 6-18 10-10 6-9 4-9 5-16 8-16 6-6 2-5 2-10 2-5-1-3-5v-3l4-8" style="clip-to-self:true;comp-op:src"/>
<path transform="scale(.1)" d="m2511.9 1938.8 1-4 3-5 2-3 3-3 3-2 10-6 12-6 7-2 6-4 8-2 8-3 17-4 8-2 17-2h14l6 1 5 2 4 2 4 3 1 4 1 5-1 6-2 6-3 8-4 7-5 8-6 9-14 16-8 9-16 16-7 9-7 7-6 8-6 6-4 6-3 6-2 5v4 4l2 3 3 3 10 4h7l7 1h51l7 1h7l6 1 6 2 4 3 3 3 2 3v4 5l-2 5-3 7-3 6-5 8-6 7-5 8-7 7-18 21-5 6-4 6-3 6-3 4-1 4 1 3 4 5 4 1 5 1h12 7l7-1h7 7l8-1h14l6 1h5l5 1 2 2 3 2v5l-2 3-3 4-4 5-5 5-7 4-7 5-8 5-9 6-9 4-9 5-11 5-11 4-22 9-33 9-11 2-10 2-22 4" style="clip-to-self:true;comp-op:src"/>
<path transform="scale(.1)" d="m965.94 2681.6-1 4 1 3v5l1 6v7l1 8v10 22l1 13-1 14v32 16 18l-1 17v15l-1 15v13 12 9l1 7 1 6 1 5 1 3 3 2 5-2 1-4 2-5 6-16" style="clip-to-self:true;comp-op:src"/>
<path transform="scale(.1)" d="m966.88 2739.7-1-6v-3-3l2-4 1-3 3-4 2-3 4-4 4-3 5-4 22-11 14-4 8-1 7-1h8 7 7l7 1 6 2 6 3 4 4 4 3 3 6 2 5v6 7l-1 8-4 16-8 16-5 9-5 7-6 8-5 6-7 7-6 7-14 10-6 5-6 4-6 3-5 3-3 2-4 1 6-3 10-6 7-4 8-3 8-4 9-3 9-4 10-4 22-6 11-2 10-2 10-1h10l9 1 7 2 6 3 5 4 4 5 2 5 1 7-1 7-6 16-6 8-6 9-7 9-18 18-20 18-11 8-12 9-11 7-12 7-13 6-11 6-12 4-22 6-10 1-9 1-8-1-7-2-4-2-4-5-2-5v-7l1-8 2-8 11-24" style="clip-to-self:true;comp-op:src"/>
<path transform="scale(.1)" d="m1284.7 2752.2 4-3 3-1 4-1h3l5-2 6-2 6-1 6-2 7-2 6-1 7-2 6-1 10-2h8l3 2-1 3-9 7" style="clip-to-self:true;comp-op:src"/>
<path transform="scale(.1)" d="m1275 2814.7 5-3 12-6 5-2 12-4 7-2 14-6 8-3 18-7" style="clip-to-self:true;comp-op:src"/>
<path transform="scale(.1)" d="m1655.6 2639.4 1-4v-5l1-5v-6l1-6v-11l-1-6v-5l-1-6-2-4-6-8-3-2-4-3h-4l-5-1-4 1-6 1-6 2-6 3-14 8-8 6-7 6-16 14-7 8-7 7-5 8-5 7-3 7-2 7-1 6 2 12 2 5 4 4 4 5 5 3 7 3 12 6 7 2 8 2 6 2 7 2 12 4 10 6 3 3 2 4 2 3 1 5-1 5-2 5-2 6-3 6-4 6-20 24-6 5-11 8-4 5-5 3-3 4-5 5-1 3 3 3h14 5l4-1h5l4 1h5l4 1 3 1 5 5 2 4 1 5v5l-2 14-3 7-2 7-8 14-5 8-4 7-5 7-4 8-5 7-4 6-4 7-2 5-3 5-2 3-1 4v5l3 3 4 1 3 1h5 6l14-2 8-2 18-4 30-9 10-2 30-9 9-2 8-3 8-2 14-3" style="clip-to-self:true;comp-op:src"/>
<path transform="scale(.1)" d="m1868.1 2680.9-3-1-4-1h-5l-3-1v-4l3-3 4-5 3-2 8-6 5-2 12-6 5-3 7-3 7-2 6-2 7-2 6-1 6-2h6 4l5 1 3 2 4 6 1 4-1 5-1 6-2 6-3 6-3 7-4 6-5 6-4 6-17 17-6 5-5 4-6 4-5 3-4 3-3 2-4 4 3-1 3-2 8-4 5-2 6-2 19-7 6-1 14-2 5-1 6 1 5 1 4 1 3 3 3 2 2 4 1 4-2 10-2 6-3 5-3 6-15 18-6 5-6 6-6 5-14 8-8 4-14 6-8 3-6 2-6 1-5 1-4 1h-4l-4-2-1-3 4-8 2-3 8-7" style="clip-to-self:true;comp-op:src"/>
<path transform="scale(.1)" d="m2046.2 2795.3 3 4v3l-1 6-1 2-1 4-4 8-2 5-3 5-5 10-7 12-4 7-3 5-8 10-3 4-3 3-3 4-3 2-4 4-2 1" style="clip-to-self:true;comp-op:src"/>
<path transform="scale(.1)" d="m2273.8 2679.1-2-3-1-4-4 1-9 6-4 3-10 8-12 10-6 7-14 14-6 8-8 8-6 9-7 8-12 16-5 7-4 7-3 7-3 5-2 4-1 4 1 4 3 4 6 3h5 6 6l9-1 8-2 9-2 21-5 32-8 10-3 9-3 9-2 14-4 6-1 5-1h4l4-1-3 1h-4l-6-2-8-3" style="clip-to-self:true;comp-op:src"/>
<path transform="scale(.1)" d="m2270.6 2684.7v3 14 4 4l-2 12v7 8l-1 7v17l1 9v9l2 9 1 10 2 16 1 7 2 7 2 6 1 5 2 4 1 3 3 6" style="clip-to-self:true;comp-op:src"/>
<path transform="scale(.1)" d="m2496.6 2609.1h-5-5l-5-1-2-2 2-3 4-3 3-3 4-3 15-9 7-2 6-3 7-2 6-3 7-1 6-2h6 5 4l4 1 3 2 3 3 2 4 1 4v5 7l-2 6-2 7-3 7-8 16-15 21-12 14-5 6-6 5-5 6-9 9-3 4-2 4-4 6v3l2 6 5 4 4 1 5 2 10 2 6 1 5 1 6 1 15 3 4 1 4 3 3 2 3 3 2 3 1 3 1 4v4l-1 5-2 5-1 5-3 5-4 6-3 6-12 15-4 6-4 5-3 5-4 4-4 8-1 4v3l1 5 4 3 4 2h3l4 2 3 1 5 1h5l4 1 5 1 4 1 5 1 4 2 4 1 3 2 5 4 1 5v3l-1 4-1 3-3 4-4 4-3 4-6 3-5 4-6 3-6 4-7 4-6 3-7 3-8 4-7 3-7 2-7 3-6 3-6 1-6 2-5 2-5 1h-5-4-8" style="clip-to-self:true;comp-op:src"/>
<path transform="scale(.1)" d="m1115.6 3412.5-2-2-3-4-4-3-5-3-5-2h-3l-6-1-4 1h-3l-4 2-3 1-5 2-8 6-13 13-5 6-5 7-4 7-5 8-5 9-5 10-4 9-4 10-7 20-3 10-2 10-1 9v9 8l2 14 3 7 6 10 4 5 5 4 5 3 6 3 6 2 7 2 7 1h8 8 8l18-2 27-6 9-3 7-2 8-3 12-4 5-3 3-2 8-4v-4" style="clip-to-self:true;comp-op:src"/>
<path transform="scale(.1)" d="m1286.6 3468.8 2-3 6-1 3-1 4-1h5l5-1 12-4 7-1 7-2 7-1 7-2 6-1 7-1 6-1h13l5 1-7 7" style="clip-to-self:true;comp-op:src"/>
<path transform="scale(.1)" d="m1283.1 3518.8-1 3v3l3 3h4 4 3l8-2 5-2 5-1 7-1 6-3 6-1 14-4 6-2 10-6 10-5" style="clip-to-self:true;comp-op:src"/>
<path transform="scale(.1)" d="m1742.8 3305.9v-4l-1-4v-5l-1-5-2-5-6-8-2-4-4-3-4-5-5-2-10-6-6-1h-6-6-8l-6 2-8 2-7 3-7 4-16 8-21 18-12 14-5 8-6 14-2 7-1 6 1 7 1 5 2 5 3 5 3 4 15 9 5 2 6 2 5 2 12 4 5 3 4 2 5 3 6 6 3 4 1 4 2 5 1 6v7l-3 15-2 8-6 14-4 7-8 12-4 7-4 5-4 6-4 5-3 5-3 4-2 3-2 5 1 3h4 5l8-2h5l4-1h4 4 4l4 1h3l3 2 4 4 2 7v5 5l-6 18-4 5-3 7-4 6-13 17-8 10-4 4-3 5-3 3-2 4-3 3-2 5v3l3 2h5 4 5l5-1h47 7 12 6l4 1 5 1 3 1 3 2 4 3 3 3-1 3-4 4" style="clip-to-self:true;comp-op:src"/>
<path transform="scale(.1)" d="m2020.9 3380.3-2-3-3-1-3 2-4 2-5 3-6 4-4 2-3 3-5 3-4 3-5 3-5 4-6 5-6 4-5 5-6 5-16 16-4 5-3 5-3 4-2 4-1 4-1 3v4l1 3 1 4 2 3 2 2 4 2 3 3 6 2 6 1h6l8 1h8 9l20-2 11-1 11-3 10-2 11-1 10-2 10-1 8-2 8-1 14-2 5-1h4 13l-4-1-5-2-10-3" style="clip-to-self:true;comp-op:src"/>
<path transform="scale(.1)" d="m2041.6 3407.8-3 2v3l-2 8v4l-1 3-1 5v5l-1 5v5 6l-1 6v53l1 6v6l1 6v4l1 3 1 4 2 5" style="clip-to-self:true;comp-op:src"/>
<path transform="scale(.1)" d="m2193.8 3507.2 1 4-1 5v3l-2 6-2 8-2 5-1 4-1 6-2 4-2 6-2 5-2 6-1 7-2 6-1 6-2 5v5l-2 6-1 5-4 1" style="clip-to-self:true;comp-op:src"/>
<path transform="scale(.1)" d="m2410.3 3322.2-4-2-4 2-5 6-3 4-4 5-3 5-5 6-4 5-3 6-4 6-9 15-2 5-1 5-1 4v5 5l2 5 1 4 3 5 2 4 3 5 4 3 5 4 4 4 5 4 12 8 5 3 13 7 5 3 6 4 6 3 4 3 7 7 3 4 1 4 2 3v4l-1 4-4 8-3 4-5 3-4 4-12 6-6 4-6 2-6 3-7 1-6 2-6 1-7 1-12-2-7-2-6-2-5-3-13-10" style="clip-to-self:true;comp-op:src"/>
<path transform="scale(.1)" d="m2388.4 3397.8 4-3 5-2 3-2 4-2 6-2 5-3 7-2 16-6 9-3 9-4 8-3 9-3 10-3 18-4 16-4 12-2h4l6 2" style="clip-to-self:true;comp-op:src"/>
<path transform="scale(.1)" d="m2601.2 3486.9-3 2-2 6-1 4v5l-1 6-2 7v6l-2 8-1 7-2 9-1 9-2 8-2 18-1 7-2 8-1 6v7l-1 6-1 4v7" style="clip-to-self:true;comp-op:src"/>
<path transform="scale(.1)" d="m2719.4 3395.6v-21l-1 5v4l-1 4-2 12v7l-1 7-2 18v10l-1 11-1 10-1 12v11 22 10l1 10 2 16 3 7 3 6 2 5 8 6 4 2 9 1 11-1 20-8 4-3 11-11 2-5 1-4 2-4v-4-5-4l-1-4-1-3-4-4-4-2-3-1h-4l-4 1-5 1-5 2-6 2-12 6-14 8-15 9-7 4-7 3-7 5-6 3-13 10" style="clip-to-self:true;comp-op:src"/>
<path transform="scale(.1)" d="m2856.6 3334.1-1-4 2-4 6-4 3-3 5-3 4-2 10-6 6-3 13-7 6-2 6-3 6-2 5-2 5-1h6 4l4 1 3 1 2 2 2 4v4 5l-1 6-2 7-3 7-5 8-4 8-18 27-5 9-7 8-5 9-5 7-8 14-4 12-1 5 2 8 2 4 2 3 4 3 4 2 6 2 5 2 6 2 6 1 6 2 12 2 5 1 5 2 8 4 3 2 3 4 2 6-1 5-1 3-1 5-6 10-6 11-8 12-6 12-3 5-2 5-1 5-1 4-1 5 2 7 2 3 3 3 4 2 3 3 5 2 4 2 6 2 5 1 4 3 5 1 5 2 4 2 4 3 5 5 1 4 1 3v5l-1 4-2 5-4 5-4 6-6 6-7 6-7 7-18 12-10 6-9 6-30 15-18 8-9 3-8 2-18 4" style="clip-to-self:true;comp-op:src"/>
<path transform="scale(.1)" d="m4231.9 3121.6-2-5-2-8v3 3l1 4v32l-1 11v12 27 14l1 15 3 32 2 16 2 14 3 13 3 10 5 9 5 8 5 6 5 4 7 3 7 1 8 1 16-4 8-3 10-4 9-5 18-14 16-16 7-9 14-20 5-9 5-11 4-10 4-11 6-22 2-12 3-39v-13l1-12 1-9v-13l-1-3-3 4-1 5-1 7-1 9-1 10-1 12-1 11-1 12v39l1 12 3 39 1 12 1 10 2 10 2 8 3 6 3 5 2 4 3 3 4 2h5l2-2 7-5" style="clip-to-self:true;comp-op:src"/>
<path transform="scale(.1)" d="m4568.1 3222.8 10-5 3-1 10-4 6-1 12-4 7-3 6-2 7-2 6-1 6-2 10-2h4l3-1 5 1-3 5-9 9" style="clip-to-self:true;comp-op:src"/>
<path transform="scale(.1)" d="m4578.8 3292.8 3-1 5-2 6-2 5-2 4-1 4-2 5-2 8-3h4l8-2h4l4-1h3l4-1h8" style="clip-to-self:true;comp-op:src"/>
<path transform="scale(.1)" d="m5022.2 3009.1-6-6-8-2h-4l-5 1h-5l-12 4-7 2-16 6-8 4-18 8-8 6-9 5-9 6-16 12-18 18-3 6-3 5-2 10 1 4 2 5 6 8 4 3 5 4 5 3 6 2 6 3 7 3 7 2 12 7 6 2 6 4 4 5 4 4 2 5 3 6 1 5v6 7l-4 12-2 7-6 11-3 6-4 5-3 5-4 6-4 4-2 4-3 3-2 3-1 4 3 2 5 2h4l5 1h4 6l6 1h6l5 1 6 2 10 4 4 3 4 4 4 8 2 6v6l-1 6-1 7-3 7-6 16-15 21-13 14-7 6-6 7-6 6-7 6-5 6-6 6-5 6-5 5-4 6-2 5-2 6-2 5v4l1 5 1 3 3 4 3 3 4 3 5 3 6 2 7 2 8 2 8 1h9 10l10-2 9-1 10-2 10-3 9-2 8-2 8-1 6-2 5-1 4-1 6-2-4-1" style="clip-to-self:true;comp-op:src"/>
<path transform="scale(.1)" d="m5195 3106.2-2-3-3-3-3-2-1 4v3 3l-1 5v6 24 9l1 11v12l1 11 1 12v11l1 12 1 11 1 12 3 33 1 10 2 18 1 7v7l1 5 2 8 1 6" style="clip-to-self:true;comp-op:src"/>
<path transform="scale(.1)" d="m5326.2 3289.4-2 3-2 4-2 3-1 4-2 5-5 10-2 5-6 12-3 7-6 12-6 18-2 5-1 5-3 12" style="clip-to-self:true;comp-op:src"/>
<path transform="scale(.1)" d="m5468.1 3165-2-3-1-4-3-6v-5l1-4 4-3 3-2 3-1 8-2h5 10l5 1 6 1 5 2 8 6 2 4 2 5 1 5v7l-1 7-2 8-3 8-4 9-5 9-6 8-6 9-14 18-7 7-7 8-6 6-5 6-5 5-3 5-3 3-1 3-1 4 3 3h3l4 1h16l8-1h8l8-2 7-1 9-1 7-1 8-1 6-2 7-1 6-1 8-2 4-2" style="clip-to-self:true;comp-op:src"/>
<path transform="scale(.1)" d="m5628.4 3266.9 4 2-5 15-2 5-2 4-3 5-2 6-9 18-6 14-3 6-2 7-6 10-1 5-4 8-4 6" style="clip-to-self:true;comp-op:src"/>
<path transform="scale(.1)" d="m5813.4 3125-2-1-3-3v-4l4-3 2-2 4-2 4-3 5-2 5-3 18-6 8-3 6-1 7-2 6-1h6 5 4l6 2 3 6v4l-1 4-1 6-3 6-8 14-5 7-6 8-6 7-7 8-7 7-7 6-5 7-12 10-4 4-4 3-3 3-3 6 3 3 3 1h4l5 1h13l7-1h30l7 1 6 1 5 1 5 2 3 2 4 6v4 5l-2 5-3 6-3 7-12 14-7 7-7 8-9 8-8 7-27 18-9 5-8 4-9 3-16 6-16 4-7 1-6 1h-11l-3-1-4-3v-4l8-8 11-6" style="clip-to-self:true;comp-op:src"/>
<path transform="scale(.1)" d="m6021.6 3289.4-4 1-9 3-3 2-10 10-4 3-4 5-5 5-10 12-6 7-6 5-6 7-10 12-4 6-5 5-3 5-4 4-2 4-2 5-2 3-1 3-2 4" style="clip-to-self:true;comp-op:src"/>
<path transform="scale(.1)" d="m6225.6 3115 2-4 3-4 1-4-3-2-4 2-3 2-8 6-5 4-12 10-7 6-7 7-8 7-23 23-7 9-7 8-6 7-5 8-4 6-3 6-2 6-2 4v5l1 3 1 4 5 4 10 2 6 1h8l16-2 9-1 30-3 11-2 10-1 9-1 10-1 16-2 7-1h6l6-1h5l4-1h5l1-3-3-3-9-7" style="clip-to-self:true;comp-op:src"/>
<path transform="scale(.1)" d="m6225.6 3118.1-1 4v20 5l1 6v6l1 7 1 8 2 15 2 18 1 8 2 10 1 9 1 10 1 9 2 9 1 10 1 8 2 8 1 8 2 7 1 6 3 13" style="clip-to-self:true;comp-op:src"/>
<path transform="scale(.1)" d="m6441.2 3265-2-3-2-4-3-3-2-1-4 3-6 10-2 5-8 16-12 30-5 11-8 20-4 9-6 18-6 16-4 12-2 5-2 3-1 5" style="clip-to-self:true;comp-op:src"/>
<path transform="scale(.1)" d="m6600 3125-3-2-4-1-5 2-4 3-3 4-7 9-8 11-5 6-3 7-5 6-3 6-4 6-2 6-2 5-1 5 2 6 2 4 4 2 5 1 6 1 7 1h7 8 9l9-1h18l9-1 8 1h8l7 1 6 2 6 3 4 3 4 4 2 4 2 10-1 6-1 7-1 6-3 6-3 7-7 12-10 12-10 10-12 8-12 6-5 3-12 2h-5l-7-1-6-1-20-8" style="clip-to-self:true;comp-op:src"/>
<path transform="scale(.1)" d="m6579.4 3142.5 4-2 5-3 4-2 3-1 10-2 14-4 8-2 9-3 9-2 20-6 11-3 10-2 11-2 9-1 9-2 8-1 7-1h5l12 1" style="clip-to-self:true;comp-op:src"/>
<path transform="scale(.1)" d="m6815 3269.7-5 1-3 1-3 2-4 4-3 4-4 7-2 7-4 8-3 8-3 9-3 8-4 9-3 8-3 7-3 8-4 14-1 7-2 10v4 3" style="clip-to-self:true;comp-op:src"/>
<path transform="scale(.1)" d="m6985.9 3096.2-2-4-4-6-6-3-5 3-3 2-3 4-4 5-4 6-4 7-10 18-4 11-5 11-4 12-4 13-6 27-1 14-2 12v12l1 12 1 10 2 10 3 8 4 7 4 6 5 5 6 3 6 2 6 1h8l14-4 7-3 8-3 7-5 6-4 11-11 4-5 5-10 1-5v-5l-2-8-2-3-3-2-4-3-5-1h-5-6l-7 1-8 2-7 3-8 3-8 4-8 5-8 6-8 5-7 6-7 5-6 6-4 5-5 5-3 5-4 12" style="clip-to-self:true;comp-op:src"/>
<path transform="scale(.1)" d="m7060.3 3e3v-5l-1-3v-4l2-6 2-3 6-6 5-3 12-8 7-4 17-8 18-8 20-6 8-3 9-1 7-1 12 2 4 2 4 3 2 4 2 6-2 14-2 8-5 9-5 10-7 10-7 11-27 33-20 24-9 11-8 10-12 18-5 8-3 6-2 6-1 5 1 5 1 4 2 3 4 3 4 2 6 2 7 2 7 1 16 2 9 1 8 1 7 1 8 2 6 2 10 6 2 3 3 4 1 3v5l-1 5-4 10-3 6-8 12-5 6-4 6-5 5-3 6-4 6-3 5-1 5-2 5v9l2 3 1 4 2 4 7 5 4 3 10 6 4 2 5 3 5 4 4 3 4 4 4 3 3 4 2 5 2 4 1 4 1 5-3 15-3 6-3 5-4 6-3 5-5 6-5 5-6 5-7 4-6 5-7 4-14 7-7 3-8 3-8 2-7 2-9 1-16 2-20 1" style="clip-to-self:true;comp-op:src"/>
<path transform="scale(.1)" d="m865 4557.5-4-8-1-3v-3l3-2 3 1 6 4 3 4 4 4 5 6 4 8 12 18 6 11 7 11 7 12 8 11 24 36 9 11 8 10 9 10 16 18 16 15 8 8 14 12 10 10 5 3 8 6 3 2 2 2 5 3 3 1 1-3-1-5-1-3-1-5-4-13" style="clip-to-self:true;comp-op:src"/>
<path transform="scale(.1)" d="m1e3 4542.2 2-4 6-4 4-3 4-2 3-2 3-1-1 4-2 3-2 2-4 8-2 7-3 7-4 9-4 10-4 11-10 26-7 14-6 14-7 14-6 14-8 14-14 26-8 13-7 12-14 22-14 18-6 8-5 7-10 10-3 4-3 3-6 4v-4l2-3 2-4 6-10" style="clip-to-self:true;comp-op:src"/>
<path transform="scale(.1)" d="m819.06 4682.8-3 1-4 2-3 1-2 1 3 1 6 1 3-1h5 6l14-2 18-2 11-2 11-1 24-4 14-2 26-4 28-4 13-3 12-2 11-2 20-4 9-1 14-4h5l5-1 4-1 5-1-1 3-2 2-5 1-9 1" style="clip-to-self:true;comp-op:src"/>
<path transform="scale(.1)" d="m1387.8 4603.1-3 3-3 6-1 4-1 5-2 5-1 6-2 7-1 7-2 10v9l-2 11-2 12-1 12-2 12-1 13-2 14-2 13-1 12-1 11-1 10v9 22 3l1 3 2-1 2-5 2-8 1-6 1-5 2-14v-7l1-8 2-9 1-9v-9l2-10 1-11 2-11 2-10 2-11 2-10 3-9 3-8 2-6 3-5 3-4 2-2 3-2 6 1 8 4 4 4 4 5 5 6 5 7 5 8 4 9 5 10 4 10 6 11 4 11 5 12 8 24 4 11 5 11 4 10 4 8 4 9 4 7 3 6 4 5 3 4 5 6 3 1 4 2 5-1 4-4 4-8 2-5 1-6 1-7 1-8 2-9 1-9 2-20 2-24 1-14 1-13 2-15 1-16 3-16 3-15 6-32 3-14 3-13 3-12 3-9 2-7 3-6 1-3 3-2 3 3v4l2 5 1 6 1 7 1 8 1 9 1 8 1 9 3 24" style="clip-to-self:true;comp-op:src"/>
<path transform="scale(.1)" d="m1662.8 4708.8-3-4-2 1-3 4-1 3-1 4-1 5-2 5-1 6-2 14v21l1 8 1 7 2 8 3 6 3 7 6 10 8 8 8 4 5 2h4 5l5-1 12-6 6-6 2-3 2-8v-5l-2-10-2-5-3-6-4-6-4-5-4-6-5-6-4-5-5-5-5-4-4-4-4-2-8-2h-3l-6 2-3 4v4l3 4 5 2h3 3l10-2" style="clip-to-self:true;comp-op:src"/>
<path transform="scale(.1)" d="m1819.4 4603.1 2-6 1-5 1-7 1-5v-4l-1-4-2 2-1 3-2 5-1 7-4 18-1 10-1 11-1 12-2 12v13l-1 13v14 29 15l2 30 1 13 2 13 1 11 2 9 2 8 2 6 6 8 2 3 3 2 3 1h3l3-1 4-1 4-4 4-3 5-5 4-5 5-6 8-14 9-18" style="clip-to-self:true;comp-op:src"/>
<path transform="scale(.1)" d="m1815.3 4755.6-3 1h-4l1-4 3-5 7-6 3-4 6-4 5-4 6-5 6-3 15-9 14-8 17-8" style="clip-to-self:true;comp-op:src"/>
<path transform="scale(.1)" d="m2310.9 4749.7 1-6v-5l1-6v-12-5l-1-5-2-5-1-4-2-4-2-3-3-3-3-1-4-1h-3l-10 2-10 8-11 11-4 7-6 9-4 10-5 10-3 11-3 10-3 11-1 11-1 10v11 9l1 8 2 8 2 6 3 6 3 4 5 3 4 1h5 5l6-2 6-3 7-4 6-5 7-5 7-7 7-6 12-14 5-8 5-7 5-9 4-8 3-9 3-7 3-8 2-6 2-5 1-4 2-5v5l1 4-1 6v8 8l-1 10-1 11v12l-2 13-1 14-2 15-1 16-2 18-3 57-1 17v15 15l1 12 1 11 1 8 2 7 2 4 2 3 3 1 3-1 3-2 4-4 3-5 9-18" style="clip-to-self:true;comp-op:src"/>
<path transform="scale(.1)" d="m2438.4 4746.6 2-5 1-5-1 5v3l-1 4v5l-1 7v7l-2 17-2 18v18l2 16 2 6 2 7 2 5 3 4 8 6h4 5l5-1 5-3 6-3 6-4 18-18 5-7 10-16 4-8 4-9 6-18 3-16 2-7 2-6v-5l2-8-1 5v30l3 24 4 16 6 18 6 8 3 3 4 2 3 1 4 1 10-2 5-3 6-3 6-4 6-5 5-6 6-6 5-7 6-6 4-7 8-16 3-7 3-9 6-15 6-13 2-4 1-3v3l-1 4-2 6-6 21-1 9-2 16v15 6l1 5 2 5 2 4 6 4h4 5l4-1 5-3 4-3 6-4 5-5 5-6 5-7 11-17" style="clip-to-self:true;comp-op:src"/>
<path transform="scale(.1)" d="m2700 4623.4-3 5-2 4-1 3-1 5v3l1 5 3 5 5 5 3 1 4 2 3 2 4 1 5 1h8l12-3 3-2 5-5 3-4v-3l1-4v-4l-2-8-2-4-2-6-2-4-3-5-3-3-3-4-8-4-3-1h-9l-4 1-4 2-3 2-3 3-3 4-2 3-2 4-1 3-1 5 1 10" style="clip-to-self:true;comp-op:src"/>
<path transform="scale(.1)" d="m2822.5 4523.8-3 4-1 4-1 6v7l-2 8-1 9-1 10-1 11-1 12-2 23-1 12-2 25-1 13v13 14l-1 14v27l1 14 1 12 2 22 4 16 2 6 4 8 3 2 2 2h6l6-4 4-3 3-4 3-5 6-13" style="clip-to-self:true;comp-op:src"/>
<path transform="scale(.1)" d="m2772.5 4719.4-3-1-1-3 1-5 3-5 17-17 5-3 6-3 7-3 8-3 16-4 8-3 8-2 7-2 14-3" style="clip-to-self:true;comp-op:src"/>
<path transform="scale(.1)" d="m2884.1 4742.8h4l5-1h3l6-4 5-3 4-3 5-3 4-4 6-3 5-4 4-4 6-4 13-13 4-5 6-8 4-8v-3l-1-4-4-1-6 1-4 2-5 3-5 4-5 5-6 5-6 6-7 8-6 7-6 9-5 10-5 9-5 10-2 10-3 10-2 18 1 7 4 14 3 5 5 4 7 4 6 3 8 2 9 2 10 1h11l11-1 12-1 24-4 11-3 11-4 25-10" style="clip-to-self:true;comp-op:src"/>
<path transform="scale(.1)" d="m3362.5 4699.7h-5-6l-5 2-3 4-2 3-1 3-2 5-1 5-2 6-1 8-2 8-2 9-1 9-2 20v10 10l1 9 2 8 3 8 8 12 12 8 14 2h8l9-1 9-3 20-8 9-6 10-6 9-6 9-7 8-8 7-9 6-8 5-9 4-9 2-9 3-9 2-16 1-7-1-6-1-5-2-4-3-4-5 1-5 6-3 3-2 6-2 5-2 6-2 7-1 8-1 7v8 8l1 8 2 7 2 8 6 12 4 5 4 4 5 3 4 1 5 1 11-2" style="clip-to-self:true;comp-op:src"/>
<path transform="scale(.1)" d="m3533.4 4708.8 1-4 4 3 2 3 2 4 1 3 1 5 2 12v7l1 8v17l-1 8v9l-1 8-1 9-1 8v7l-1 7v6l-1 4v4 3l1-3 2-8 2-5 2-6 2-7 4-16 3-8 3-9 8-18 5-8 5-9 5-8 12-14 6-6 6-5 5-3 5-2h4 4l6 4 6 8 4 12 4 14 2 16 1 9v8l1 8v8l2 6 1 7 1 5 1 4 2 3 5 3 6-2 3-2 8-8 10-12 5-7 4-7 5-9 4-8 3-8 4-9 3-8 2-7 3-7 1-6 2-5 1-4 1-3 2-4 2 3v2l1 4v5 7l1 6v7 8 8l1 8 1 9 4 16 4 14 3 6 3 5 2 4 4 3 3 2 3 1h4l4-1 3-2 6-8 4-5 2-6 3-7 2-7 1-9 2-24" style="clip-to-self:true;comp-op:src"/>
<path transform="scale(.1)" d="m3758.1 4599.4-5-2h-6l-3 2-5 5-3 4-2 4-1 5-1 4-1 5-1 4-1 5-1 4v4l1 5 2 7 1 3 6 4 3 1h4 4l4-1 5-1 4-3 4-2 3-4 4-4 3-4 2-4 2-10 1-6-1-5-2-12-2-7-2-6-3-6-3-5-3-4-3-3-4-3-3-1h-4l-3 1-4 3-3 3-3 5-4 6-2 6-2 7-2 8-1 8-2 22" style="clip-to-self:true;comp-op:src"/>
<path transform="scale(.1)" d="m3844.4 4697.8 2 2 1 3 2 8 2 5 1 6 1 5 6 21 2 8 6 16 5 16 3 7 6 12 3 5 3 4 2 3 3 2 3 1 6-1 3-1 3-3 3-4 2-5 3-5 3-6 1-7 3-8 4-16 2-9 3-9 2-10 9-30 6-16 3-7 2-5 3-4 3-3 5-2 6 2 2 2 2 3 3 3 4 8 2 12" style="clip-to-self:true;comp-op:src"/>
<path transform="scale(.1)" d="m3988.8 4747.2 3 1h5l10-5 5-3 5-2 5-4 4-3 6-4 18-18 4-6 4-5 6-10 2-5 2-4v-4-3l-2-4h-6l-3 1-5 2-5 3-5 4-6 5-4 6-6 6-4 7-5 8-4 8-3 9-2 8-4 18v8 8l2 8 1 5 3 6 3 4 4 3 5 3 5 1 6 1 6-1 7-1 6-2 14-6 13-8 5-5 6-5 5-6 9-12 4-6 3-6 3-7 9-18 3-5 2-5 3-4 4-6 5-3 4 1 7 7 7 21 2 7 1 8 1 7v8 17 8l-1 8-2 14-1 6-2 5-1 4-2 3-1 3-4 1-4-1-3-4-2-8-1-5-1-6v-6l1-7 1-8 2-8 2-9 2-10 4-10 3-10 6-10 4-9 6-9 5-9 12-14 11-11 6-4 5-3 4-3 10-2" style="clip-to-self:true;comp-op:src"/>
<path transform="scale(.1)" d="m4320.6 4738.4 3-5 3-6 5-8 4-7 5-8 4-7 3-7 4-6 2-6 2-5 1-4-1-3-4-3-3-1-8 2-6 2-6 3-7 3-7 5-8 4-8 6-9 5-8 7-7 7-7 6-5 8-4 7-3 7-2 8-1 7 1 7 2 6 3 6 3 5 10 10 6 4 6 5 6 3 12 8 10 8 4 4 6 8 1 4v4 4l-1 4-6 8-4 4-5 3-6 3-7 2-6 3-14 2h-7-6l-7-1-6-2-9-5-9-9" style="clip-to-self:true;comp-op:src"/>
<path transform="scale(.1)" d="m4517.8 4731.6v-9-5l-2-5-2-4-3-3-5-1-6 1-4 2-4 3-5 4-6 5-5 7-7 7-6 8-12 18-5 9-5 10-4 9-4 10-4 16-1 7 1 6 3 5 2 4 3 3 5 2 5 1h5 6l7-2 6-2 21-12 6-5 11-11 4-6 5-6 3-5 3-6 2-6 2-7 2-12 1-5v-5-4l-2-6-3 2v3l-2 8v6 12 7l2 14 2 6 2 7 6 12 8 10 4 4 6 4 5 2 6 3 6 1h6 5 7l6-1 5-2 6-2 5-3 4-4 4-3 6-10 4-13" style="clip-to-self:true;comp-op:src"/>
<path transform="scale(.1)" d="m4623.4 4661.9 1-4 1-8 3-12 6-32 4-15 3-14 3-11 3-10 4-12 2-3 1 3 1 5v6l1 7-1 10v10l-1 12-2 26-4 28-1 14-2 14-1 15-2 16-1 15v16l-1 15 1 15v14l2 13 2 11 3 9 4 8 5 7 4 4 7 4 6 1h8l9-1 9-2 11-4 11-5 12-6 13-7 33-17" style="clip-to-self:true;comp-op:src"/>
<path transform="scale(.1)" d="m4980.6 4687.8-2-4-4-6 8 12 2 2 2 4 5 7" style="clip-to-self:true;comp-op:src"/>
<path transform="scale(.1)" d="m5003.8 4816.2-3-3-3-1-2 2-4 6-3 5-4 5-5 7-6 7-6 8-8 8-7 9-8 10-9 10-27 33-8 11-9 10-8 10-17 17-8 7-18 13" style="clip-to-self:true;comp-op:src"/>
<path transform="scale(.1)" d="m5298.8 4659.7-4-1-3-1-4 1-3 1-8 4-5 2-4 4-5 4-5 5-5 6-5 7-6 8-4 9-6 9-4 10-5 10-6 20-2 11-2 10-1 10v9l1 9 2 7 3 7 4 5 4 4 10 4h6l14-2 7-3 8-3 7-5 8-5 6-6 14-12 4-6 4-7 3-7 1-6 1-7v-7l-1-7-2-8-3-8-3-7-3-9-4-7-4-8-4-6-4-7-8-8-4-2-5-1-5 1-4 2-10 10-5 7-8 16-4 10-3 9-2 9v9 7l6 19" style="clip-to-self:true;comp-op:src"/>
<path transform="scale(.1)" d="m5387.2 4794.7v-3-7l1-9 3-4 5-10 3-4 3-6 18-18 5-4 4-3 5-3 4-2 8-2h3l4 1 3 1 6 4 1 4 2 5 2 7 2 6 1 8 2 18v67 5 3l2 4 4-1 3-5 1-4 3-4 3-10 4-11 3-6 4-14 2-6 2-7 3-8 2-8 4-7 6-14 4-6 3-6 6-6h3l4 4 1 3 1 4 1 5 1 6 3 21 3 24 1 15 2 7 4 12 2 5 1 3 3 3 4 3 6-1 4-4 5-9" style="clip-to-self:true;comp-op:src"/>
<path transform="scale(.1)" d="m5629.1 4607.5 2-8 1-5 1-7v-5-3l-1 3v3l-1 6-2 6-1 8-4 20-4 24-2 13v13l-1 14-1 15v15l1 15 2 32 2 15 2 14 3 13 3 12 4 9 3 9 4 7 8 10 4 2 5 2h4 5l5-2 5-3 4-3 5-5 8-12 4-7 4-8 2-8 3-9 2-9 2-10 6-31 2-10 2-9 2-8 1-6 1-4 2-4 1 4 1 5v32 11 22 11l1 10 2 9 1 8 2 8 2 6 2 5 3 4 3 3 4 2h3l8-4 7-7 5-4 8-12 3-7 5-7 3-8 3-7 3-8 2-8 4-15 2-7 1-7 1-5 2-4 1-4 2 3v3l1 5v7 7 9 22l1 11v13l2 26 1 15 2 15 2 17 1 18 4 36 2 34 2 16v17l1 15v14l-1 14-1 13-6 36-3 11-3 10-4 9-5 8-4 6-5 6-10 8-10 5-6 1h-4l-5-1-4-2-5-3-3-4-4-4-8-12-2-6-3-8-2-7-2-18v-9-10l1-10 2-11 2-12 3-12 3-13 5-14 5-15 5-16 7-17 8-18 19-38 10-19 12-17 12-16 32-33" style="clip-to-self:true;comp-op:src"/>
<path transform="scale(.1)" d="m6151.2 4732.8 2-7 2-5 2-7 2-5 1-5 2-6v5 5l-1 6-1 8-2 9-2 20-1 11-2 12-1 12-1 11v11 11 10l1 9 2 8 2 7 2 6 2 4 3 3 4 2 4 1 4-1 5-1 5-3 5-4 6-5 6-7 6-6 5-8 5-7 5-9 8-18 3-9 4-9 2-9 2-8 2-7 2-5 2-4-1 5v5l-1 6-1 7-1 8v8 10 9l2 18 2 8 3 9 2 7 5 6 4 6 5 4 5 3 6 2 6 1h7l21-6 7-4 14-10 5-6 10-14 3-7 3-8 2-8 1-10v-9-10l-1-10-2-11-4-20-2-9-7-14-3-4-4-3-3-1h-4l-3 2-4 2-4 3-3 4-6 14" style="clip-to-self:true;comp-op:src"/>
<path transform="scale(.1)" d="m6413.4 4747.5-4 3-1 2-6 6-2 4-2 5-2 4-4 12-1 5-1 7-1 6v13 6l1 6 2 6 6 10 2 4 4 3 8 4 4 1 8-2 3-1 4-2 3-3 2-4 3-3 2-4 1-5v-5l1-5v-6l-1-6v-7l-1-7-2-7-1-8-8-32-1-8-2-8-1-6v-6-4-3l3-3 3 2 7 9" style="clip-to-self:true;comp-op:src"/>
<path transform="scale(.1)" d="m6504.1 4766.6-4-1-5-1-3-2v-3l3-2 6-2 12-3 5 1 4 1 5 1 8 6 4 4 3 5 3 6 2 7 1 8 1 9-2 18-4 20-5 18-3 8-3 7-5 10-3 2-6 3-4-3-2-3-2-5-1-6v-7-9l1-9 1-10 2-11 5-20 6-22 3-10 4-12 4-10 4-12 5-11 10-24 6-11 7-11 6-11 6-10 7-9 6-8 5-6 5-5 8-5" style="clip-to-self:true;comp-op:src"/>
<path transform="scale(.1)" d="m6607.2 4640 1-4 1-5 1-3 3-1 1 5 2 8 2 6v8l1 8v10 10l1 11v66 13l1 14 1 12v11l2 10 1 9 2 6 1 5 2 4 5 2 3-1 3-2 4-4 3-6 12-18" style="clip-to-self:true;comp-op:src"/>
<path transform="scale(.1)" d="m6714.4 4712.8 2-4 2-8 1-3-1-4-5 1-5 4-4 3-5 4-4 4-6 5-5 5-12 14-6 8-6 7-6 9-5 8-8 16-3 7-2 8-1 7-1 6 1 6 2 5 2 4 4 3 10 4 7 1h7l7-1 8-2 9-2 18-6 9-4 8-5 21-10" style="clip-to-self:true;comp-op:src"/>
<path transform="scale(.1)" d="m6803.1 4736.2 3-4 2-3 1-3 2-3 2-5 2-4-1-3-4-1-5 1-3 1-3 2-4 2-3 2-4 3-4 2-3 3-6 7-2 4-1 4v3 4 3l4 6 3 3 4 3 4 4 5 3 4 3 5 4 5 3 8 8 4 3 3 4 3 3 1 4 1 5 1 4-1 4-2 4-3 4-4 5-4 3-5 3-6 4-6 1-6 3-18 3-12-2-6-2-5-2-10-7" style="clip-to-self:true;comp-op:src"/>
<path transform="scale(.1)" d="m7092.2 4703.8v-18-4l-1-4-4 3-1 2-1 5-2 5-1 7-2 18-1 10-1 11v12l-1 11 1 13 2 24 2 12 2 10 4 11 4 9 4 7 5 6 6 4 6 3h6l8-1 6-3 7-4 6-6 13-17" style="clip-to-self:true;comp-op:src"/>
<path transform="scale(.1)" d="m7069.1 4611.9-4 2-3 4-2 5-1 4v3l-1 3v4l3 12 2 4 2 3 3 4 4 3 3 3 10 4 6 1h6 7l7-1 7-2 8-2 7-3 7-4 12-8 5-5 3-6 2-5 2-6 1-7-2-14-2-7-3-8-4-7-4-8-5-6-5-4-7-4-7-2h-8l-7 2-16 8-7 7-6 8-7 8-10 20-4 10-2 11-2 10-1 28" style="clip-to-self:true;comp-op:src"/>
<path transform="scale(.1)" d="m7203.4 4810-1-3-1-5v-4-7-5l1-5v-6l2-6 4-14 4-7 3-8 4-8 10-14 6-6 5-4 5-3 5-2 5-1 4 1 3 3 4 3 3 6 2 7 2 8 2 9 1 11v11 24l-2 25-1 12-2 22-2 10v9l-1 7v6l1 3 2 4 3-2 2-4 3-4 3-6 8-14 8-16 4-9 5-10 5-9 4-10 15-27 4-8 4-6 3-5 4-4 2-3 4-2 3 2 2 5 1 4v5l1 7 2 12 1 8 1 7 2 8 3 15 3 7 3 8 7 15 8 12 5 5 5 4 5 3 5 2 16 2" style="clip-to-self:true;comp-op:src"/>
<path transform="scale(.1)" d="m7624.4 4598.4 1-4 1 7v4 7l-1 7v9l-1 9-1 10v11l-1 12v12 13 14 14 15l1 14 2 15 4 28 2 12 3 11 3 10 3 8 2 6 3 6 2 3 1 3 3-3-1-9" style="clip-to-self:true;comp-op:src"/>
<path transform="scale(.1)" d="m7510.3 4795.9-3-3 3-2 2-3 10-4 6-3 14-8 8-4 8-6 18-10 20-12 9-7 10-7 9-6 9-8 9-6 9-8 7-7 8-7 11-11 4-5 4-6-1 6-1 4-1 5-3 7-2 7-3 8-2 9-3 9-3 22-2 11-1 10-1 11v11 20 9l1 7v7l2 6 1 5 1 3 2 5 4 1 5-3 3-2 3-3 3-4 5-5 3-5 5-6 4-6 5-6 5-7 9-13 10-12 9-9 4-3 3-3 3-1 4 1 2 3v4l1 3v5l1 6v6l1 6v6l3 13 2 6 2 5 3 6 3 4 4 5 4 2 5 3 5 1 6 1h7l7-2 8-1 9-3 18-8 9-5 24-18 7-8 6-7 5-8 5-9 4-9 2-9 3-9v-8-7l-1-6-2-5-3-3-5-2-5-1h-6l-14 4-7 4-8 4-14 12-7 7-6 7-6 8-5 9-4 8-3 9-3 10-1 8v9l2 8 2 7 5 8 5 6 6 6 7 6 9 3 8 3 9 2 10 1h9l8-1 20-2" style="clip-to-self:true;comp-op:src"/>
<path transform="scale(.1)" d="m8192.2 4682.8-6-3-7 1-4 2-3 2-4 5-4 4-3 6-3 7-4 8-2 9-4 10-2 9-2 10-2 11-1 10 2 20 2 8 3 9 4 7 5 5 6 5 6 4 7 3 8 2 8 1h9l9-1 9-2 8-3 8-2 7-4 14-10 5-5 8-12 3-7 2-7 2-8 1-7v-8-6-7l-1-5-1-3-2-3-4-2-4 2-3 3-3 4-2 5-3 7-3 6-3 8-2 9-2 8-2 18 1 8 4 16 2 7 12 15 6 3 6 2 7 2h7l8-1 7-1 9-2 7-3 8-4 6-4 7-5 5-6 8-12 2-8 2-16v-9l-1-9-2-9-2-8-3-9-3-7-4-6-5-5-12-6-6-1-7 1-7 2-6 2-6 3-6 4-4 5-5 5-3 5-2 6-1 6v5 6l1 5 2 4 4 5 3 3 4 2 13 5" style="clip-to-self:true;comp-op:src"/>
<path transform="scale(.1)" d="m8378.1 4760-1-4v-5l2-5 4-5 3-3 3-2 4-2 3-1 4-1h4l4-1h4l4 1 5 1 3 3 4 3 3 4 4 10 2 7v8 8 8l-2 18-4 18-4 16-2 7-1 6-2 5v4l-1 4-1 3 2-6v-4l3-5 4-12 4-7 3-7 16-32 5-8 16-24 5-8 6-6 4-6 5-4 5-3 3-1h5l3 4 2 5v5l1 6v7 8 51l1 9 1 7 2 7 2 6 4 5 3 3 4 2 4 1h5l5-1 5-3 6-3 11-11 13-17" style="clip-to-self:true;comp-op:src"/>
<path transform="scale(.1)" d="m8635.6 4619.7v-6l1-4v-5-3 10l-1 6v8l-2 8-1 9-1 10v11l-1 11-2 13v12l-1 13v14 29 14 14l1 14 2 12 1 11 2 10 2 8 2 7 2 6 4 8 4-4 1-3-1-11" style="clip-to-self:true;comp-op:src"/>
<path transform="scale(.1)" d="m8560.3 4742.2 2-5 4-6 3-3 5-3 6-3 6-4 14-7 7-4 8-4 16-6 9-4 16-7 8-3 16-3" style="clip-to-self:true;comp-op:src"/>
<path transform="scale(.1)" d="m8675.6 4748.8-2 6-1 4v3l1 3 2 4 5 3 3 1h3l5-1h4l10-4 12-6 4-3 6-4 11-8 5-5 4-5 4-6 2-6 3-5 2-12v-6l-1-4-2-5-2-3-3-2-4-2-4 1-5 1-5 2-5 3-9 9-10 14-4 7-8 18-3 10-3 9-3 10-2 20v9l1 9 2 7 6 14 9 9 6 3 6 2 6 1h8l8-1 8-2 7-3 16-8 7-5 6-6 7-6 6-7 4-7 5-8 4-8 4-9 10-30" style="clip-to-self:true;comp-op:src"/>
<path transform="scale(.1)" d="m8828.1 4727.5 2-4 2 4v3l1 4 2 5 3 5 2 6 2 5 12 18 4 7 4 6 5 7 5 6 5 7 9 13 5 6 5 5 4 6 8 8 2 3 2 2 3 1 4-5" style="clip-to-self:true;comp-op:src"/>
<path transform="scale(.1)" d="m8949.1 4715.9-3-1-5 1-4 2-3 2-42 42-6 7-6 8-10 16-8 18-3 9-1 10v9 9l2 9 3 8 4 8 4 7 10 12 6 5 6 4 18 6" style="clip-to-self:true;comp-op:src"/>
<path transform="scale(.1)" d="m9003.4 4644.4v-5l1-4v-6l1-5v-5-6-4 4 5 6l-1 8v10l-1 10-1 12-2 26-2 28-1 15v44l1 14 4 26 6 22 4 9 4 8 4 7 6 6 5 3 6 2 6 1 6-1 7-2 6-4 6-6 11-12 11-18" style="clip-to-self:true;comp-op:src"/>
<path transform="scale(.1)" d="m8990.6 4748.8-1-3v-4l1-3 4-3 4-2 3-2 6-3 5-2 7-3 8-2 18-4 11-1 10-1 11-1 12-1 22-2h11l28-3" style="clip-to-self:true;comp-op:src"/>
<path transform="scale(.1)" d="m786.88 5633.1-4-3-6-6-2-3v-3l3-1h4l5 1 8 4 10 8 12 12 6 8 7 8 14 18 8 9 7 9 16 18 9 7 8 8 9 7 18 12 9 5 8 4 7 4 14 4 5 1h6 4 4l3-1 6-1 2-2-3-3-6-5" style="clip-to-self:true;comp-op:src"/>
<path transform="scale(.1)" d="m970.31 5562.8-1-3-3 1-4 2-2 3-3 3-4 3-12 15-5 6-10 14-6 7-12 16-6 9-7 9-6 8-7 9-6 9-7 8-7 10-7 8-22 27-6 9-7 9-12 16-5 8-8 12-3 6-3 4-1 4-2 3" style="clip-to-self:true;comp-op:src"/>
<path transform="scale(.1)" d="m872.19 5539.4 2-3 1 6v3 5l1 6v141 15l1 29 1 14v14l1 12v11l1 11 1 10 1 9v7l2 14" style="clip-to-self:true;comp-op:src"/>
<path transform="scale(.1)" d="m1265.9 5560.6-1-4v-4l-1-5v-5-4l-1-4v-3-4l-1-4v-4-3 2l2 7v5l1 7 1 8v9l1 12v12 15l1 15v17l-1 16v58l1 11v10l1 8 1 7 1 6 1 5v4l4 6 5 3 3 1 4 1h3 5l5-1h6l7-2 7-1 7-2 48-12 14-4 12-4 5-2 4-2 4-3 3-2 2-2 2-8" style="clip-to-self:true;comp-op:src"/>
<path transform="scale(.1)" d="m1225.6 5557.5 1-6 1-4 4-6 6-6 5-2 5-3 6-3 6-2 7-4 7-3 8-3 7-4 9-2 9-3 18-4 10-1 18-2 8 1 7 1 8 1 10 5 4 3 2 3 1 4-2 11" style="clip-to-self:true;comp-op:src"/>
<path transform="scale(.1)" d="m1264.1 5645.3 5-3 3-1 4-1 5-3 18-9 24-9 18-4 9-1 10-1h19l9 1 8 1 9 2 8 2 8 1 6 2 6 1 11 6" style="clip-to-self:true;comp-op:src"/>
<path transform="scale(.1)" d="m1480 5593.8-1 4 1 4 2 3 4 10 2 6 2 7 6 14 3 8 16 32 4 7 5 8 4 7 5 7 8 12 5 5 3 4 4 3 4 2 3 2 4 1 2-2 1-6" style="clip-to-self:true;comp-op:src"/>
<path transform="scale(.1)" d="m1558.8 5601.9-1-3-1-5-1-3-3 3-2 6-3 3-1 4-2 5-3 4-2 6-2 5-3 6-3 7-2 8-3 8-3 9-2 9-3 9-3 10-4 19v9l-1 8v8l1 7 1 5 3 5 2 4 3 2 4 1 3-1 11-5" style="clip-to-self:true;comp-op:src"/>
<path transform="scale(.1)" d="m1654.1 5531.6-3 1-1 4v3 4l-1 4v43l1 11v12 14 13l2 28 2 26 2 12 2 11 4 10 3 8 4 8 4 6 4 5 5 3 4 3h5 4l5-1 4-2 8-6" style="clip-to-self:true;comp-op:src"/>
<path transform="scale(.1)" d="m1616.9 5670.6-5-2-3-1 1-3 5-4 8-6 5-3 5-4 7-3 7-5 14-8 8-5 9-5 22-10" style="clip-to-self:true;comp-op:src"/>
<path transform="scale(.1)" d="m1746.9 5656.9 3-3 5-3 12-4h3 4l4 1 6 6 4 5 3 7 2 8 2 9 2 10 2 21v20l-1 10v9l-1 8-2 7-2 12-1 5-2 4-2 3-3 3-3-2-1-3-1-4v-5-6l1-7 1-9 2-8 2-9 2-10 12-33 4-12 5-12 6-11 5-11 6-8 6-7 5-6 4-3 5-2 7 1" style="clip-to-self:true;comp-op:src"/>
<path transform="scale(.1)" d="m1925.3 5698.8 2-4 1-4 2-6 2-12 1-7 1-6 1-5v-8l-1-4-2-2-4 2-6 8-3 5-4 6-3 7-4 8-3 7-3 8-4 9-2 8-3 8-4 14-1 7-2 10v4l1 5h3l5-3 3-3 6-8 12-15 4-6 4-4 4-6 4-4 4-3 4-4 3-2 4-1h4l5 4 2 3 2 4 2 5 2 6 2 7 5 14 2 7 3 8 6 14 4 6 9 9 4 2 5 1h4l12-6" style="clip-to-self:true;comp-op:src"/>
<path transform="scale(.1)" d="m2499.1 5746.2v3l4 1 5-2h3l3-2 3-1 4-3 4-2 5-2 5-3 5-4 10-9 6-5 10-10 5-6 8-11 3-6 2-6 2-5 1-5 1-4-1-4-1-3-4-5h-3-4l-6 2-5 3-6 4-7 5-7 6-14 16-7 9-12 18-10 20-6 20-2 10-1 9v9l1 8 3 7 2 5 5 5 5 4 14 6 9 1 9 2h10 11l12-2 12-1 13-3 12-3 12-4 12-5 10-5 20-12 20-16" style="clip-to-self:true;comp-op:src"/>
<path transform="scale(.1)" d="m2738.4 5498.4v-3l-1-5-1-4-3 2-2 6-1 6-1 7-1 8-4 22-2 13v14l-2 16v17l-1 19v19 19l1 18 2 18 2 16 3 15 2 13 4 11 4 8 5 8 5 5 6 4 7 2h8 8l9-1 9-3 18-8 9-6 8-6 7-6 6-8 13-19" style="clip-to-self:true;comp-op:src"/>
<path transform="scale(.1)" d="m2873.8 5735v4l4 5 2 2 3 2h4l4 1h4l10-2 5-2 6-2 6-3 6-4 14-10 7-6 14-14 7-8 6-7 5-8 5-7 3-8 3-6 1-7v-7-6l-1-5-2-5-6-4h-4l-4 1-4 3-5 5-6 5-12 16-6 10-5 11-11 23-5 13-4 11-6 24-1 11v10l1 9 2 8 3 7 4 5 6 4 6 2 7 1 8-1 10-1 9-4 10-4 11-6 21-12 10-8 18-16 8-9 7-8 12-21" style="clip-to-self:true;comp-op:src"/>
<path transform="scale(.1)" d="m3061.9 5665-7-7h-4l-4 2-2 3-2 6v3l-1 4v46l1 4v6l1 4v5l1 4v3 4l1 3v-5l1-3 1-4 1-5 2-5 2-6 2-7 4-7 3-8 4-9 5-9 6-10 5-10 7-10 7-8 5-8 7-6 4-4 5-2h4l3 2 3 3 3 4 2 6 2 14 1 9v9l1 9v9 40l1 6 1 4v4l2 4 4 1 3-4 2-4 3-4 3-5 3-7 3-6 3-7 4-7 3-8 4-8 3-9 16-36 8-16 4-4 3-5 4-2h5l4 4 2 4 2 5 2 6 1 7 2 6 1 8 4 15 4 16 4 14 2 6 3 6 3 5 2 4 4 3 4 2 7-2" style="clip-to-self:true;comp-op:src"/>
<path transform="scale(.1)" d="m3299.7 5720v4l2 4 4 1h6l8-2 5-1 4-3 15-9 4-4 5-4 8-10 4-4 3-6 3-5 2-6 2-7 2-6 1-6v-6-6l-1-4-2-4-3-3-7 2-7 7-4 6-3 7-4 7-4 8-4 9-2 9-3 9-2 8-2 9-1 9v8 8l1 8 2 7 3 6 6 10 8 4 6 1 5-1 12-4 6-3 7-5 12-10 6-7 6-6 6-7 6-8 5-7 5-9 5-8 9-16 3-6 3-5 3-4 3-3 1 5v3 4l-1 6-2 10-1 7v5l-1 6v11l1 5 3 12 1 3 4 3 5 1 3-2 3-1 4-2 4-4 4-3 9-9 5-6 5-5 4-6 10-12 4-6 15-21 5-6 4-6 5-4 8-4h4l3 2 3 3 3 4 2 7 2 6 4 18 2 10 1 10 4 20 2 11 3 11 3 10 2 10 6 16 2 5 7 7 3 1h4l3-2 4-3 4-4 4-5 3-6 6-16 2-8 3-10 1-11 5-28" style="clip-to-self:true;comp-op:src"/>
<path transform="scale(.1)" d="m3694.7 5509.1 3-1 2 3v7 4l1 5-1 6v6 7l-1 8v7 38 11l1 12 2 26 2 27 1 13 2 13 1 11 2 12 2 11 2 9 2 8 3 6 3 5 2 5 3 2 4 1 3-3 3-9" style="clip-to-self:true;comp-op:src"/>
<path transform="scale(.1)" d="m3644.4 5681.6 1-4 2-3 1-4 3-5 3-4 10-10 6-4 6-5 8-5 16-8 8-5 9-3 9-4 10-4 24-6" style="clip-to-self:true;comp-op:src"/>
<path transform="scale(.1)" d="m3852.5 5674.7 2-4 1-3 2-4 1-4 2-4 8-20 1-5 2-6 1-4 2-4 1-4v-3l1-5h-4l-5 3-9 5-5 5-5 4-12 12-6 8-5 7-6 8-4 8-3 8-4 7-1 8-2 7-1 6 1 7 1 5 2 5 2 4 8 8 6 4 6 3 7 3 8 3 7 2 9 3 8 3 9 2 8 3 7 3 6 3 5 3 8 8 1 5 1 4-1 5-1 4-3 4-10 8-6 4-7 3-8 2-9 2-24 1" style="clip-to-self:true;comp-op:src"/>
<path transform="scale(.1)" d="m4470.3 5625-5-1h-5l-4 1-5 2-5 3-5 5-6 5-6 8-5 9-6 9-6 10-10 22-8 22-3 11-1 10-1 9 1 8 1 7 2 7 3 5 6 8 5 3 4 1 4 2h5 5l6-2 6-1 11-6 5-3 6-4 5-5 5-4 8-10 6-10 3-6 2-5 3-18 1-5v-6-5-7l1 6 1 4v6 7l1 7v8l2 15 2 8 4 14 3 6 3 5 3 6 4 4 5 3 4 3 5 1h5l4-1 5-3 5-4 4-4 4-5 2-5 4-15" style="clip-to-self:true;comp-op:src"/>
<path transform="scale(.1)" d="m4550.9 5682.2v-3l-2-7-1-3 1-3 4 2 6 4 3 3 3 2 4 4 4 3 5 4 7 8 4 4 6 10 3 6 3 5 2 6 1 5 2 6 1 5v4 7 4l-3 3-3-3-1-6v-5l1-5 1-6 4-14 6-16 12-30 6-11 5-11 6-10 6-8 5-7 6-6 5-3 5-1h4l3 3 2 3 3 5 1 6 2 19" style="clip-to-self:true;comp-op:src"/>
<path transform="scale(.1)" d="m4695 5730.3 3 5 2 2 5 1 6-1 9-5 5-3 6-4 5-5 6-5 12-12 5-6 6-8 5-7 5-8 8-16 3-8 2-8 3-7 1-6v-6-3l-4-5-6 2-5 3-6 5-5 6-7 8-7 9-6 9-6 11-6 10-5 12-5 11-4 12-3 11-2 12-2 10v10 9l2 7 3 8 5 6 5 4 7 4 8 3 9 1 10 1h11l11-1 12-2 12-3 11-4 12-4 29-13" style="clip-to-self:true;comp-op:src"/>
<path transform="scale(.1)" d="m5247.8 5627.8-1-4-2-2-3-4-2-4-2-2-4-1-5 1-4 2-3 4-4 4-4 6-5 6-8 16-3 9-6 20-2 10-2 20v19l1 9 2 8 3 8 3 6 10 10 5 3 7 2 6 1h7l8-1 8-2 7-3 16-8 21-18 6-6 4-6 5-6 4-14 1-8-1-7-1-8-2-8-3-9-4-9-3-10-5-10-5-9-9-18-5-7-5-6-5-5-5-4-4-2-5-2h-4-4l-4 2-4 3-6 8-2 6-2 5-1 6v6l4 12 2 4 3 5 10 10" style="clip-to-self:true;comp-op:src"/>
<path transform="scale(.1)" d="m5415 5597.2v-3l-1-5v-2l4 6v6 7 9l1 11-1 12v13 15l-1 14-3 45-1 14-1 13v13l-1 12v11l1 9 1 8 1 7 2 6 3 5 3 3 3 2 4 1 4-1 5-1 4-3 10-10 5-6 10-19" style="clip-to-self:true;comp-op:src"/>
<path transform="scale(.1)" d="m5553.8 5583.4 2-2 2-4-1 5-4 6-3 3-3 4-5 4-4 5-11 11-5 7-6 7-6 8-6 7-7 8-6 9-7 8-6 8-7 7-6 8-6 7-7 6-15 16-5 4-4 3-3 4-3 2-2 2h5l5-2 4-1 5-1 9-1 6-1h6l5 1 6 1 6 2 5 3 12 8 6 5 5 6 6 7 5 7 5 8 4 7 8 16 5 8 4 7 5 8 4 7 5 6 4 5 5 4 6 2 4 1h6 4l11-5" style="clip-to-self:true;comp-op:src"/>
</g>
</g>
</g>
</svg>
