<?xml version="1.0" encoding="UTF-8"?>
<svg width="1e3pt" height="1e3pt" version="1.2" viewBox="0 0 1e3 1e3" xmlns="http://www.w3.org/2000/svg">
<g id="surface30">
<rect width="1e3" height="1e3" fill="#20282d"/>
<g fill="none" stroke-linecap="round" stroke-linejoin="round" stroke-miterlimit="10">
<g stroke="#fff">
<g stroke-width="14.1">
<path transform="scale(.1)" d="m3077.5 373.75v-8l-1-8-1-9-1-8-1-7-2-6-2-5-2-4-3-4-3-2-4-3-4-2h-5l-5-1-12 2-7 2-7 4-9 5-8 7-10 8-10 11-10 13-11 15-11 18-11 19-22 42-11 23-10 22-9 21-14 42-4 20-4 19-1 18v17l2 15 3 14 5 13 6 11 7 11 9 9 10 8 10 7 11 6 11 4 12 5 24 4h12 12l11-1 11-2 10-2 9-3 8-3 7-3 6-5 4-4 9-11" style="clip-to-self:true;comp-op:src"/>
<path transform="scale(.1)" d="m3154.7 596.56-3-2-4 2-4 5-2 5-2 6-2 7-2 8-4 18-3 18v9 9l1 9 1 8 2 7 6 12 4 4 5 2 5 1h5l6-2 7-2 6-3 12-10 6-6 5-6 5-7 3-6 3-7 2-7 1-7-1-7-2-16-3-8-2-8-4-7-3-8-4-7-5-6-10-8-6-3-6-2-12 2-6 4-5 4-5 6-6 7-4 8-4 9-3 9-2 9-2 18v7l2 7 1 5 3 4 11 5" style="clip-to-self:true;comp-op:src"/>
<path transform="scale(.1)" d="m3334.1 662.19-4 3-9 9-1-3 4-6 2-4 4-4 4-6 6-7 6-6 6-7 7-8 21-21 6-5 5-5 5-4 4-2 4-3 3-1 5 1 4 4 2 3 2 4 2 12v7 9 9 10 10 10l-1 11v10 37 3l2-4 1-3 2-4 4-12 2-7 3-7 6-16 4-8 3-9 4-9 5-9 4-9 5-9 10-16 6-7 10-10 4-3 4-2 3-2 6-1 4 3 3 2 1 4 2 5 1 7 2 7 1 10v11 25 13l-1 13v13l-1 12v29l1 7v6l1 5 1 2 3 3 5-2 3-3 3-5 4-5 8-14 5-8 9-18 4-10 9-20 4-12 5-11 4-10 4-11 5-9 3-8 4-6 3-5 3-4 5-2 3 3 2 4 1 5 2 6 2 8 1 7 1 10 10 45 6 14 3 6 4 6 6 8 4 3 4 2 3 2h3l6-2 8-7" style="clip-to-self:true;comp-op:src"/>
<path transform="scale(.1)" d="m3714.7 665.31-4 3-3 2 1-4 4-6 6-8 3-5 4-5 4-4 4-6 8-8 5-4 7-7 4-2 2-2 3-1h5l4 3 5 10 1 5 2 12 2 16v16 9 39 3 3l3-4 2-6 2-10 2-5 1-5 2-6 2-7 3-7 3-6 3-8 4-7 4-8 5-7 6-7 5-7 12-12 6-5 5-4 4-3 5-1h3l3 1 2 2 2 3 2 4 1 5 2 5v7l1 7v8l1 7v57 7 5l1 4 1 3 2 3 4-1 2-2 4-3 9-9 5-6 5-7 6-6 5-7 12-16 5-8 5-9 15-24 10-14 4-6 5-4 3-4 3-2 4-2 2 4v12 5 23 7l1 5 1 7 1 6 3 15 2 4 1 4 1 3 6 9 5 3 3 1 6 1h9 3l8-2 3-1 4-1 4-3 4-2 3-3 4-3 3-4 3-3 4-5 2-4 3-5 5-14" style="clip-to-self:true;comp-op:src"/>
<path transform="scale(.1)" d="m4153.4 608.75v-3l-1-4-2-3-3-3-3-1h-3l-4 1-5 4-2 3-2 5-3 5-3 7-4 8-6 18-3 10-3 11-4 20v10l-1 10 1 9 1 8 2 7 3 6 3 4 5 3 4 2h6l6-2 7-2 7-4 7-5 7-6 8-7 6-7 10-16 4-9 3-8 2-9 1-9v-10-10l-2-20-3-9-1-8-3-8-4-6-3-6-8-8-5-2-5-1h-5l-4 2-5 2-4 3-5 4-6 10-3 6-1 6v6 6l1 6 4 5 2 4 4 3 5 3 13 3" style="clip-to-self:true;comp-op:src"/>
<path transform="scale(.1)" d="m4231.9 630.31-1-4-1-5 1-3v-3l1-3 1-4 2-5 3-8 2-4 3-5 3-4 2-3 4-3 2-2 4-2h4 3l4 1 3 1 9 9 1 5 3 5 1 7 2 7v9 9 9 10l-1 9-2 20-1 9-1 8-1 6v6 8l2-2 4-8 1-5 6-12 3-7 3-8 4-8 3-8 5-8 10-18 6-9 12-16 6-7 11-11 14-7 6 2 4 6 1 5 1 6 1 7v7l1 8 1 9v9l1 9v9l1 10 1 9 2 10 1 8 3 8 2 6 4 5 4 4 5 2 6 1 6-1 6-2 8-3 8-4 21-12" style="clip-to-self:true;comp-op:src"/>
<path transform="scale(.1)" d="m4771.2 419.06-1-4-3-3-3 1-2 6-1 5-1 6v8l-1 9-1 10v11l-2 13-1 13-2 14-1 14-2 30-1 16v15l-1 15v14 24 9l1 8v6 4l1 7 1-2v-7l-1-3v-11-7l-1-7v-7l-1-8v-17l1-9v-10l1-11 2-13 1-12 2-13 3-14 5-27 3-14 6-22 2-9 3-8 2-5 3-5 3-2 5 1 3 3 3 4 4 7 3 8 4 9 4 11 3 12 13 39 3 14 5 15 3 15 5 14 5 15 4 14 6 14 6 13 6 11 6 10 12 14 6 5 5 4 5 3 4 3 5 1h3 4l4-2 4-5 1-4 1-5v-5l1-7-1-7v-8-9-9l-1-11v-12l-1-11v-27l2-32 1-17 4-40 3-22 3-23 5-21 4-20 5-17 4-15 5-12 4-9 4-6 3-5 4-2 5 3 2 3 2 6 2 7v9l1 10v11l1 31" style="clip-to-self:true;comp-op:src"/>
<path transform="scale(.1)" d="m5064.1 598.12-2-2-2-3-2-2-4-1h-5l-4 4-3 4-1 5-3 6-2 8-2 9-2 10-3 12-1 11-1 12-1 13v12l1 13 1 12 3 11 2 10 3 8 5 6 4 5 5 3 6 1 6-2 7-2 14-10 15-15 14-18 6-10 4-10 5-10 4-9 3-9 3-10 1-7 1-8 1-6v-5-4l-1-4-2 5-1 4-2 5-2 14-1 8v9 18l1 10 1 9 2 10 2 8 6 16 4 6 4 5 4 4 5 2 5 1 5-1 4-2 13-9" style="clip-to-self:true;comp-op:src"/>
<path transform="scale(.1)" d="m5247.5 652.19-3 2-8 6-4 2-3 4-3 2-4 1-2-2 1-5 2-5 3-4 2-4 3-4 8-10 5-5 4-5 5-5 5-4 4-5 5-3 8-6 9-3h6l2 1 3 2 2 3 2 4 2 3 2 5 1 6 2 6v7l1 8v8 8 9l-1 9v9l-1 9-1 8v8l-1 6v6 6l-2 8v2 4-4l3-5 1-3 2-8 2-5 3-5 2-5 3-5 3-6 4-6 3-7 4-7 10-16 4-8 5-9 5-8 5-9 6-7 5-7 5-5 4-5 5-4 4-2 4-1 3-1 4-1 6 2 5 4 1 3 2 4 1 4 1 6 1 7v7 8 8 10 9l-2 9-1 10-1 9-2 16v7l-1 5v5 8l3-4 1-3 3-4 1-5 5-11 2-7 3-6 6-14 6-16 12-27 5-8 4-8 5-7 5-6 4-4 5-3 4-2 3-1 6 1 3 2 1 4 3 4 2 5 1 6 2 8 1 8 1 9 1 10v10 10l1 10v10l1 10v9l1 8 1 7 2 7 2 5 3 4 3 1 4 1 4-1 5-2 6-4 7-5 14-14 18-19" style="clip-to-self:true;comp-op:src"/>
<path transform="scale(.1)" d="m5614.1 478.12v-7l1-6v-7-7-13l2 5v5l1 5 1 7v9l1 10 1 11v12 27 14l-1 15v16l-2 32v15 14l-1 12v35l1 5v3 4l1-5v-20-5l1-6 2-6 1-7 2-7 3-6 3-8 8-14 5-7 5-6 5-5 5-4 6-4 5-2 6-2 5-1h5l6 2 4 1 5 3 6 8 3 5 1 6 1 7v7 8l-2 8-2 9-4 9-3 9-5 9-12 18-6 8-8 8-6 7-8 6-6 5-7 5-6 3-12 4h-5-4l-5-1-3-2-4-3-2-4-1-4-1-6 1-6 1-7 8-18" style="clip-to-self:true;comp-op:src"/>
<path transform="scale(.1)" d="m5752.5 651.25 6 4h4l5-2 7-4 4-2 4-3 8-8 5-4 5-5 6-5 5-6 4-6 4-5 4-6 3-5 3-6 1-5 2-5v-5-5l-1-3-2-3-4-2-6 2-4 2-3 4-4 5-8 14-4 9-3 10-4 11-2 11-3 12-4 22-1 10 1 10 1 9 1 7 3 7 3 6 3 4 4 3 4 2 5 1h5l5-1 6-2 5-4 6-4 5-5 6-5 5-6 4-7 5-8 3-7 4-9 8-16 3-9 4-8 3-8 6-12 3-5 2-3 3-3 5-1 5 3 3 4 5 10 3 7 2 7 1 9 2 8 1 9v10l1 9v9l-1 9-2 17-2 14-1 6-1 5-2 5-1 3-2 3-2-5v-8-5l1-6 1-7 4-16 3-8 4-9 5-10 6-10 7-11 8-11 9-12 10-11 10-10 11-10 12-10 12-8 12-9 13-8 13-7 12-7 11-6 18-10 7-4 7-9" style="clip-to-self:true;comp-op:src"/>
<path transform="scale(.1)" d="m6366.9 575.94 13-13 5-6 5-5 5-6 4-6 5-6 4-6 3-6 4-12 1-7 1-6-1-5-2-12-2-5-8-8-5-4-5-2-6-2-7-1h-7l-16 2-27 9-9 5-10 5-18 12-8 7-7 7-7 8-4 7-4 8-3 7-1 7v7l2 8 2 7 4 7 10 12 7 7 8 7 9 5 8 7 9 7 9 6 9 7 8 7 7 8 7 7 5 8 4 8 3 7 2 16-1 8-2 8-3 8-5 7-10 12-7 5-8 4-8 3-9 3-8 2-10 2h-9-18-8l-9-2-14-4-6-4-4-4-3-5-1-5v-7l2-8 4-9 15-21" style="clip-to-self:true;comp-op:src"/>
<path transform="scale(.1)" d="m6454.1 651.25-5 6-1 3 2 2 3 2 5 1h6 4 4l3-1 15-3 18-6 5-3 12-6 12-8 16-11 5-3 6-8 2-4 2-3v-3l-1-4-5-2-6-1-4 1-4 2-5 2-5 3-5 4-10 10-5 6-4 7-5 8-3 7-4 9-3 8-4 16v9 7l1 8 6 12 5 4 5 3 6 3 7 1 8 1 8-1 18-2 9-2 10-2 10-3 9-4 8-3 8-4 8-5 7-4 7-5 9-9 8-13" style="clip-to-self:true;comp-op:src"/>
<path transform="scale(.1)" d="m6678.8 399.69-1-4-3-4-3 2-2 4v4l-1 4-1 6-1 8-1 9-2 11-1 12-1 14-2 15-2 16-2 17-2 18-2 19-1 19v19l-1 18 1 18 1 16 2 14 2 13 4 11 4 9 5 7 5 6 6 3 7 3 6 1 6-1 7-2 6-2 7-4 5-4 10-9 8-12 3-6 3-8 1-7 2-18" style="clip-to-self:true;comp-op:src"/>
<path transform="scale(.1)" d="m6649.4 575-3-2-4-2 3-4 3-2 4-2 4-3 5-2 6-2 7-4 7-2 9-3 8-3 10-2 11-3 23-4 22-4 11-1h9l9-1 18 1" style="clip-to-self:true;comp-op:src"/>
<path transform="scale(.1)" d="m6855.9 622.81 2-3 1-4 3-4 2-5 4-12 2-5 4-12 2-5 2-10v-5-5l-1-5-1-3-2-3-3-3-6-2h-4l-5 1-4 1-5 2-5 3-6 3-5 4-10 10-4 6-4 5-3 6-2 6-1 7-1 6 2 12 2 6 8 10 5 4 5 5 6 4 7 5 6 5 6 4 6 5 10 10 6 10 2 5v6 5l-1 5-2 5-3 5-3 4-4 4-5 4-6 3-5 3-6 2-13 2-6 1-5-1h-7l-12-4-6-3-5-4-8-11" style="clip-to-self:true;comp-op:src"/>
</g>
<path d="m289.78 90.312h398.5" stroke-width="1.41" style="clip-to-self:true;comp-op:src"/>
<g stroke-width="14.1">
<path transform="scale(.1)" d="m635.94 1577.5v-10-3l-1-3-6-10-5-3-6-1h-3-4l-4 1-10 4-6 2-6 3-6 4-7 4-6 4-7 5-14 12-6 6-7 8-10 14-4 7-3 6-2 8-1 6v6l1 5 2 6 3 5 4 5 4 4 6 5 5 4 6 4 7 4 7 3 7 4 6 4 7 4 5 4 6 5 4 5 3 5 3 6 1 6v6l-1 7-2 7-3 7-8 14-5 7-12 14-13 13-7 6-7 5-7 6-7 5-6 5-12 8-8 6-3 2-4 3 4-1 3-1 3-2 10-5 15-6 6-1 5-1h4l4 1 4 2 2 3 2 4 1 4-1 6-2 14-2 9-12 27-9 17-6 8-10 15-5 7-5 8-5 7-5 6-12 21-3 6-2 7-1 7v6l1 5 3 5 2 4 5 3 4 3 7 3 6 2 8 1h8l9-1 10-2 11-3 12-3 13-5 13-4 14-5 13-5 24-10 11-4 10-4 9-3 8-3 12-4 8-2" style="clip-to-self:true;comp-op:src"/>
<path transform="scale(.1)" d="m823.75 1711.9-2-4-2-2v10 6 8 8 10l-1 10v11l-1 13v13l-1 14-1 29v14l-1 14v39l1 10v9l1 8 1 5 1 4 2 3 5 2 2-1 4-3 2-4 3-5 7-18" style="clip-to-self:true;comp-op:src"/>
<path transform="scale(.1)" d="m951.56 1901.6 1-4 1 4-1 6-1 3-1 4-4 10-2 6-3 6-2 6-6 14-3 6-3 7-6 12-5 11-3 5-2 4-2 3-3 4h-4" style="clip-to-self:true;comp-op:src"/>
<path transform="scale(.1)" d="m1098.4 1795.6-2-3-1-5 3-5 2-3 11-11 15-12 6-4 4-3 6-2 4-3 5-1 5-2h4l5 1 3 1 6 6 1 5 1 6-1 7-2 9-3 9-4 10-12 22-7 11-7 12-8 11-7 11-8 12-7 10-8 9-6 8-5 7-5 5-6 8-1 4 3 2 3 1h5 6l7-1 8-1 9-2 11-2 10-3 11-2 10-3 11-3 10-3 9-3 10-3 7-3 7-2 12-2h3 5v4l-5 4-3 2-3 1-4 1-9 4" style="clip-to-self:true;comp-op:src"/>
<path transform="scale(.1)" d="m1346.9 1880.9-3 1-4 4-2 3-3 4-2 5-14 28-5 9-10 22-6 11-10 26-4 12-5 12-5 11-3 11-4 10-3 8-2 8-2 7-2 5-1 4-2 3-3-5" style="clip-to-self:true;comp-op:src"/>
<path transform="scale(.1)" d="m1442.8 1773.8v-3l1-3 1-5 2-4 3-3 2-4 20-16 6-4 5-4 6-4 12-6 5-3 6-2 5-1 5-2h4 4l3 2 3 5 1 4-1 5-2 6-3 6-3 7-4 7-5 8-5 7-4 7-6 7-4 7-12 18-4 8-1 4v5l3 5 2 2 4 1 5 1 12 2h15l16-2h8 8 7 8l5 1 6 1 4 2 2 3 2 4v4 5l-2 5-3 6-4 6-5 6-6 7-7 7-8 7-8 6-9 6-10 7-10 6-11 6-11 5-10 5-30 12-8 3-7 3-7 2-6 2-4 1-3 1-4 1v-4l1-7" style="clip-to-self:true;comp-op:src"/>
<path transform="scale(.1)" d="m1710.9 1895.9 3-1-5 8-4 8-4 5-4 6-5 6-6 6-5 8-7 8-7 7-7 9-6 9-21 27-12 16-12 12-4 5-5 3-4 3-3 1h-6" style="clip-to-self:true;comp-op:src"/>
<path transform="scale(.1)" d="m1855.3 1926.2 1-3v-3-3" style="clip-to-self:true;comp-op:src"/>
<path transform="scale(.1)" d="m2006.6 1909.7v-4l1-5-1-3" style="clip-to-self:true;comp-op:src"/>
</g>
<path d="m216.91 190.22 0.21875-0.28125" stroke-width="1.41" style="clip-to-self:true;comp-op:src"/>
<g stroke-width="14.1">
<path transform="scale(.1)" d="m2240.3 1615.9 1-4v-4l2-6 6-10 5-6 5-4 7-6 6-4 32-20 8-4 9-4 8-4 9-3 8-3 8-2 8-1h7 7l6 2 5 3 4 4 3 6 1 6 1 9-2 9-2 10-8 22-18 36-8 13-21 36-7 11-7 10-5 10-6 9-4 8-4 7-3 8-2 6-1 5v5 5l2 4 2 3 4 3 4 2 10 2 6 1h7 8l40-5h7l6-1 6 1h4l4 1 2 2 1 6-2 4-3 4-4 5-33 33-8 7-8 9-14 16-7 7-5 7-8 12-2 4-1 4v4l1 3 5 5 4 2 5 2 12 2 7 1h8l21 3 8 1 12 4 10 4 6 8 1 4v4l-4 10-4 5-5 4-6 5-14 10-8 5-9 4-9 5-10 4-10 5-10 4-11 4-12 5-12 3-12 4-13 3-12 3-27 6" style="clip-to-self:true;comp-op:src"/>
<path transform="scale(.1)" d="m3461.2 1681.2-6-2-3 2-2 3-1 4-1 6-1 8-2 10-3 11-2 14-3 15-3 18-3 19-4 21-3 23-3 24-3 23-3 24-2 21-2 20-2 17v15l-1 13 1 10 1 8 1 5 2 5 2 2h4l4-5 3-5 2-7 3-7 2-9 4-22 2-24 2-28v-16-16l1-16v-17-16-16l1-15 1-14 1-12 1-10 2-16v-6l1-4v-4l3-3 3-1 3 2 3 1 17 17 5 7 6 7 12 18 7 11 6 11 7 13 6 13 6 14 12 30 11 29 6 14 5 13 5 10 5 9 3 8 4 6 3 5 3 4 2 3 3 1 2-3 1-4v-4-6-7-7-9l-2-22-1-13v-14l-1-16-1-17v-35l2-38 1-21 3-20 3-19 2-16 4-15 3-11 2-8 3-4 4-2 4 6 2 7 2 8 2 10 2 12 3 13 3 28 2 15 2 14 5 38" style="clip-to-self:true;comp-op:src"/>
<path transform="scale(.1)" d="m3811.2 1852.5-1-3-2-3-2-4-6-6-3-2-4-1-3-1h-4l-4 2-5 2-5 4-11 11-5 7-5 9-4 9-5 11-8 20-2 10-1 9-1 8v7 7l2 4 1 5 6 4 3 1h4 3l8-4 4-3 5-3 4-4 9-7 8-8 4-2 3-3 4-1h4l4 2 2 6 2 5 1 4 1 6 2 5 3 6 2 5 3 6 3 5 3 4 5 4 5 1 6 2h6l8-1 7-2 8-3 9-4 9-5 9-6 8-7 9-8 8-9 8-10 6-12 6-13 12-36" style="clip-to-self:true;comp-op:src"/>
<path transform="scale(.1)" d="m3987.8 1651.9v-3l-1-4-4 2-1 4-4 12-1 9-3 10-2 12-1 12-3 14-2 14-4 30-1 15-2 17v16 18 18l2 19 1 18 2 16 3 15 3 14 4 11 5 10 5 8 5 6 6 5 5 4 7 3 12 2h6l6-1 5-2 5-3 12-10" style="clip-to-self:true;comp-op:src"/>
<path transform="scale(.1)" d="m3925.9 1883.1-1-3v-3l-1-5v-3l1-3 3-5 11-11 6-5 6-4 7-5 8-4 9-5 10-5 11-5 12-5 13-5 13-4 13-5 12-4 40-10" style="clip-to-self:true;comp-op:src"/>
<path transform="scale(.1)" d="m4156.9 1822.2-5 2-1 3-2 3-4 12-3 8-2 9-2 11-3 12-2 13-2 14-2 13-1 13v13 11 11l2 10 2 8 3 8 8 10 4 3 5 1h6l5-1 14-7 7-6 8-6 7-8 8-9 8-10 7-11 8-11 7-12 6-12 10-22 4-10 3-7 2-7 2-4 1-4 1-2-1 5v5l-1 5v7 17 9l1 10 3 27 2 9 4 16 6 12 3 5 7 7 5 2 4 1 5 1 5-1 5-2 6-4 16-16" style="clip-to-self:true;comp-op:src"/>
<path transform="scale(.1)" d="m4348.8 1858.4-1-4v-4l2-4 4-1 6-1h3l8 2 4 2 5 2 4 3 5 5 4 5 5 7 3 8 3 9 3 10 1 10 2 11v10 11l-1 10-2 10-1 9-3 8-2 7-4 10-6 8-4-1-3-5-1-4v-6l1-7 1-9 2-9 2-10 6-22 4-13 5-14 5-13 6-15 7-12 6-12 8-10 7-7 7-6 6-5 6-3 6-1h5l5 1 5 2 5 4 4 4 10 12 3 6 11 19" style="clip-to-self:true;comp-op:src"/>
<path transform="scale(.1)" d="m4607.5 1900v-4l1-5v-7l-1-13-3-6-2-5-3-6-8-9-5-3-5-2-7-1h-6l-7 1-8 3-8 4-8 5-7 7-8 9-7 9-7 11-7 10-5 10-5 11-4 10-3 10-2 10-1 8v8l4 12 3 4 4 3 5 2 6 1 7-1 8-2 9-3 9-4 30-18 11-7 9-8 9-7 8-7 7-6 5-6 5-4 3-4 4-4-3 12-2 5-1 6v6l-1 6v6l1 6 2 6 6 10 4 4 6 3 6 2 14 2 8-2 8-1 9-3 9-4 9-5 9-6 18-14 8-8 8-10 7-11 6-11 6-13 4-14 4-16 3-15 4-34 1-16v-17l-1-17-1-15-1-14-2-11-2-9-2-8-2-4-3-4h-5l-4 2-6 8-3 7-4 9-3 10-4 11-3 13-3 14-3 16-2 16-2 18-2 19v20 19l2 19 3 18 4 16 6 15 6 12 8 11 8 8 9 6 9 5 10 3h10l11-1 10-2 25-9" style="clip-to-self:true;comp-op:src"/>
<path transform="scale(.1)" d="m5169.7 1715.3-2-4-2-5-3 2-1 3v4l-1 7-1 8-1 10-1 12-2 13-2 15-2 17-3 17-2 19-6 39-3 20-2 19-2 18-2 15-1 13-1 11v18l1 4 2-10v-5l1-7v-9-19-12l-1-12-1-14-1-15v-16l-1-32v-16l2-30 2-13 2-11 2-10 2-7 4-8 4-2 3 2 3 4 4 4 4 6 4 7 5 8 5 10 12 22 7 13 6 13 15 29 7 15 8 15 7 15 9 14 8 13 16 22 16 18 14 12 7 4 6 4 4 2 5 1 3 1 6-1 2-5v-4-5-6l-1-7-1-9-3-9-1-11-3-12-2-15-3-15-2-17-1-18-2-38 1-20 2-38 3-18 3-15 3-14 3-11 2-7 3-5 3-4h3l4 5 2 5 2 8 2 9 1 11v12l1 34" style="clip-to-self:true;comp-op:src"/>
<path transform="scale(.1)" d="m5431.9 1879.1-3-12-2-3-3-3h-4l-3 3-2 4-2 5-1 6-1 8-2 8-2 20v20l2 20 1 9 3 9 3 8 4 7 4 6 5 5 5 3 12 2 7-1 7-3 7-4 7-5 8-7 7-8 8-8 6-10 6-11 10-24 4-13 3-13 3-12 2-11 1-10 1-7v-10l-3-2-1 3-1 4-2 7-1 8-2 20-1 11v11 12 11l1 11 2 11 2 10 3 9 4 9 5 7 5 6 6 6 6 3 7 3 6 1h7l7-1 7-3 6-3 6-5 6-6 12-16" style="clip-to-self:true;comp-op:src"/>
<path transform="scale(.1)" d="m5628.4 1863.1v-4-3l1 4 2 6 1 5v4 6l1 6v6 8 24l1 9v9 8l1 9 1 8 2 14 1 6 1 5 1 4 1 3 2 3 4-3 2-6 2-5 4-12 3-7 3-8 6-18 9-20 15-30 6-8 5-8 6-7 10-8 4-2 4-1 6 4 3 4 2 5 2 7 2 8 1 9 1 8 3 27v8 8l1 7v18 4l1 4 4-3 2-2 4-5 3-6 4-6 10-16 5-9 6-9 6-10 5-10 6-11 6-10 12-18 5-7 4-5 4-4 4-2 3-1 4 4 1 5v6 8l-2 20-1 12-3 24-1 12-2 22v10 9l1 9 1 7 2 6 2 5 3 3 2 1 4-1 4-3 9-12" style="clip-to-self:true;comp-op:src"/>
<path transform="scale(.1)" d="m5937.2 1762.5 3-12 1-5v10 5 7l1 8v8 10 11l2 24v14l1 15v15l1 16v15l1 15v15l1 14v12l1 12v11l1 10v8 7 5 4l-1 4-2-3v-4-3l2-12 4-14 4-8 3-10 10-18 6-10 7-11 7-10 8-11 9-9 9-8 10-6 9-4 8-2 9-1 7 1 7 3 6 4 8 14 2 9 2 10v10l-2 11-2 10-8 20-6 10-6 9-8 9-7 8-9 7-8 7-10 4-8 5-9 2-16 2-7-1-7-2-6-3-5-5-3-5-2-7-1-7 1-8 3-9 4-10 6-11 7-11 21-29" style="clip-to-self:true;comp-op:src"/>
<path transform="scale(.1)" d="m6104.4 1910.6-2 8-2 10v4 5l2 3 4 4 6 1 3-1 4-1 10-6 6-3 6-4 6-6 6-5 7-6 12-14 5-8 5-9 8-18 4-16v-7-5l-1-4-2-3-3-1-4 1-3 2-5 3-4 4-10 12-4 8-12 27-3 10-3 9-2 9v9l-1 8 1 7 1 6 2 5 6 8 4 2 10 2h6l6-1 14-4 7-4 7-3 14-10 7-6 7-5 7-6 6-7 7-8 6-7 14-14 13-14 7-6 7-5 6-6 7-3 5-4 6-1 5-1 8 2 3 4 2 5 2 6 2 8v10 10 11l-1 11-2 12-1 12-2 11-3 11-2 10-4 18-2 7-4 10-1 4-3 3-4-3v-3-5-6l2-7 1-8 2-9 3-10 2-10 3-12 3-14 4-15 5-15 5-16 6-16 7-16 6-14 8-13 8-10 7-8 6-7 6-4 5-3 5-1h4l6 4 5 11" style="clip-to-self:true;comp-op:src"/>
<path transform="scale(.1)" d="m6520 1841.9-1-5v-4l-1-6-2-10-3-5-2-5-6-8-4-3-5-3-5-2-5-1h-10l-5 1-4 2-5 3-3 4-6 10-1 7-1 6-1 8 1 8 4 19 3 10 4 10 10 20 12 19 7 9 14 16 12 14 10 12 4 6 2 5 1 5v4l-1 4-2 4-4 4-4 2-12 4-7 2h-8-15-9l-9-1-10-2-11-2-10-4-24-13" style="clip-to-self:true;comp-op:src"/>
<path transform="scale(.1)" d="m7943.8 1670-1-3-1-5-2-3-1-3-1 4v4 6l-1 8-1 9-1 10-1 13-2 14-1 15-3 18-2 18-2 19-4 42-3 21-2 19-1 18-2 15v14l-1 11v10 15 4 4l1 4 2-3 1-7v-4-6-6-7l-3-19" style="clip-to-self:true;comp-op:src"/>
<path transform="scale(.1)" d="m7924.4 1675.6v-4l1-2 3-2 3 2 4 1 3 1 3 2 5 3 4 3 6 3 6 4 6 5 8 7 7 8 8 9 7 10 9 11 8 12 9 11 9 12 9 13 10 13 9 12 20 25 11 11 9 11 19 19 10 7 9 8 8 6 16 10 14 8 6 2 5 3 5 2 4 2 3 2 5 4 2 2-2 2-4-1-3-1-4-3-4-8-2-5v-3-4-12-6-7l2-18" style="clip-to-self:true;comp-op:src"/>
<path transform="scale(.1)" d="m8254.1 1650.9 2-4 2-3 2-5 2-4 3-3 1-4 2-2 1-4 2-4v4l-1 6-1 5-1 6-1 7-2 9-1 10-2 13-2 12-4 30-2 16-6 34-2 18-3 17-4 32-2 15-2 14-1 12-1 11-1 10v9 7l-1 6v5 4l-1 4-4-9" style="clip-to-self:true;comp-op:src"/>
</g>
</g>
<g stroke="#ff0" stroke-width="14.1">
<path transform="scale(.1)" d="m3520.9 2427.8-2-8-2-4-1-3-5-5-2-3-2 5-2 3-1 5-2 7-1 8-3 10-2 12-2 13-2 14-6 34-2 18-2 19-1 20-2 20v19 18l1 16 1 13 2 11 4 8 4 6 4 5 6 2 6 1 7-1 7-2 8-5 9-5 9-7 8-9 9-10 8-11 8-13 8-14 7-15 7-16 10-34 5-16 8-36 3-18 2-19 3-19 2-17 3-15 1-13 2-9 1-7v-3l-2 3-2 13-1 9-1 12-1 13v15l-1 16v16l1 17v18l1 18 1 20 1 19 1 18 2 18 1 16 3 13 2 13 2 10 6 16 3 5 3 4 3 2 3 1 5-2 7-8" style="clip-to-self:true;comp-op:src"/>
<path transform="scale(.1)" d="m3792.5 2507.2-2-4-4-2h-4-5l-4 1-3 1-4 1-5 1-4 2-4 1-12 9-8 8-3 6-3 5-2 7-1 6-1 7v7l2 14 3 6 3 7 4 7 5 7 10 12 6 6 5 7 6 6 5 7 5 6 4 6 3 6 2 5 2 6v6l-1 5-4 10-3 4-5 4-4 4-5 4-6 3-5 2-7 3-6 1-7 1h-6-6-5l-5-1-4-2-2-3-1-3-1-5 1-5 1-7 9-17" style="clip-to-self:true;comp-op:src"/>
<path transform="scale(.1)" d="m3849.7 2629.4 1 5v3 3l1 6 2 3 4 1 4-2 4-1 4-2 4-4 5-4 17-17 5-7 6-8 15-24 4-8 6-14 2-7 1-5 1-6v-4l-1-3-4-3h-3l-4 1-5 2-5 4-12 12-5 8-6 9-7 11-6 11-7 13-5 12-6 13-5 12-4 12-3 10-2 10-1 9 1 7 1 6 2 6 3 4 5 4 5 2 6 3 14 2h9l8-1 9-1 10-2 9-3 10-3 9-3 9-4 9-5 20-13" style="clip-to-self:true;comp-op:src"/>
<path transform="scale(.1)" d="m4146.9 2552.5-1-4-4-4-6-3-8-2-6-1h-5-7-7-7l-8 2-7 1-8 3-7 3-8 4-8 6-7 6-8 8-6 8-7 10-6 10-6 11-5 11-7 21-3 10-1 10v9l1 7 2 7 2 5 3 5 5 4 5 2 5 1h5 7l14-4 8-4 7-4 9-6 7-6 16-16 6-8 7-10 6-10 6-12 5-11 5-13 4-14 5-14 8-31 3-16 4-17 3-17 2-17 3-19 2-18 2-17 3-16 1-15 2-12 1-9 1-7v-4l-3 6-1 6-1 8-2 8-1 10-2 11-4 26-3 15-1 15-3 15-2 16-2 17-1 17-1 16v18 18 18l1 18 3 17 3 16 3 15 3 13 4 11 3 9 5 7 3 5 9 6" style="clip-to-self:true;comp-op:src"/>
<path transform="scale(.1)" d="m4692.2 2392.5v-4l2-7 1-12 2-14 1-14v-27l-1-12-2-11-2-10-2-8-4-6-4-5-5-4-6-2h-6l-8 2-7 2-7 4-8 6-7 7-7 8-8 10-6 11-7 13-6 15-6 16-5 17-5 19-8 44-4 24-4 25-2 26-2 27-2 29-2 60v31 29l-1 27v27 25l-1 22v21l-1 18-1 16-1 15-2 12-1 10-2 9-1 7-4 8-3 1-4-4-3-4-2-6-6-19" style="clip-to-self:true;comp-op:src"/>
<path transform="scale(.1)" d="m4452.5 2700.3 2-3 1-4 3-5 2-5 4-5 4-6 5-5 6-7 7-8 7-9 8-9 8-11 9-10 10-11 20-20 10-9 11-7 10-7 11-6 10-4 9-3 8-2 7-1 7 1 4 2 4 4 3 4 2 6 1 8 1 9v10l-2 24-2 13-1 13-2 14-6 36-1 10-1 9v8l1 6v5l4 6 6 1 4-1 4-3 14-14 4-7 10-16 8-20 4-11 2-13 2-14 1-14v-15-15l-1-13-1-12-1-11-3-8-3-6-4-5-4-2-5-1-5 1-10 5-4 4-4 5-4 6-3 6-4 14v6 7l1 14" style="clip-to-self:true;comp-op:src"/>
<path transform="scale(.1)" d="m4759.7 2545-3-9-1-4 2-4 2-5 5-4 3-1 6-4 8-2h10l4 1 6 2 4 3 5 4 5 5 4 6 4 8 3 9 4 22 2 13v12 25l-1 11-2 20-2 8-2 7-2 6-3 5-3 4-2 3-3 2-3 1-6 1-6-2-3-2-3-3-1-3-3-4-1-5v-6-7l2-16 3-10 3-12 5-12 5-14 6-14 7-14 7-15 8-13 9-13 9-11 24-24 7-4 7-3 6-1 4 1 3 2 3 3 1 4v6 7l-2 7-2 8-5 23" style="clip-to-self:true;comp-op:src"/>
<path transform="scale(.1)" d="m5551.2 2426.9-2-5-3-4-4-3-5-3-3-1h-4l-4-1h-4l-4 1-6 1-5 2-12 8-14 12-7 8-8 10-14 22-8 14-7 13-12 30-4 15-3 16-2 15-1 15 1 14 3 12 3 11 6 10 6 9 7 6 8 5 9 3 9 2 11 1 10-1h11l11-1 11-2 20-4 16-6 16-9" style="clip-to-self:true;comp-op:src"/>
<path transform="scale(.1)" d="m5580.6 2556.6-2-5-1 6v4l-1 6v7 8 9l-1 10v11l-1 11v11l-1 11v11l1 11 2 20 2 10 3 8 3 6 4 5 5 4 5 1 6 1 6-1 7-2 6-4 7-5 7-6 12-14 10-17 4-9 3-10 1-9 1-11v-11l-1-12-6-24-3-13-3-12-4-11-4-9-5-8-5-6-6-4-5-3-6-1h-6l-6 1-6 2-5 4-6 4-5 6-4 6-4 8-3 8-3 9-2 18v9l1 9 1 8 2 7 3 6 4 5 3 4 13 7" style="clip-to-self:true;comp-op:src"/>
<path transform="scale(.1)" d="m5730.9 2548.8-4 1-5 4-2 3-2 4-3 5-2 5-2 6-6 21-1 8-1 9v8l-1 9v8l1 8 3 15 4 12 3 6 3 4 4 4 4 3 5 1 4 1h5l5-1 10-4 5-3 4-4 5-4 5-5 6-12 4-14 2-16 1-9v-9-9l1-8v-20l-1 4v37l1 9v9l1 9 1 8 2 9 3 7 2 6 3 6 3 4 4 4 8 4h4l5-1 9-6" style="clip-to-self:true;comp-op:src"/>
<path transform="scale(.1)" d="m5861.9 2566.9v-3 8l1 4v6 6 6l1 7v7 7l1 7v8l1 7v7 7l1 7v6l1 6v5 5l1 3 2 7 1-3 1-4 1-3v-4l1-5 2-12 2-7 1-7 2-8 2-9 8-18 4-10 5-10 12-18 6-8 13-13 7-4 6-4 6-1h5l4 1 4 3 3 4 2 7 2 6 2 18v10 10l-3 30v9l-1 8v7l1 6v4l1 4 4 2 5-5 3-4 9-14" style="clip-to-self:true;comp-op:src"/>
<path transform="scale(.1)" d="m6082.2 2408.8 2-4-2 4-1 5-1 6-1 7-1 8-2 9-2 10-1 10-2 24-2 26-1 14v15 16 16l2 30 2 15 6 24 4 9 5 9 5 6 5 4 5 3 6 2h5l6-2 5-3 5-4 5-5 9-17" style="clip-to-self:true;comp-op:src"/>
<path transform="scale(.1)" d="m6035.9 2553.1 4-3 3-2 5-2 4-3 6-2 5-3 6-3 7-3 6-2 7-3 6-3 7-2 6-3 7-2 7-1 7-2 6-1h7 6l4 2 5 2 3 3 3 5 3 6 1 8 1 9 1 12v12 15l2 15 2 30 2 14 2 13 4 12 3 10 4 9 4 8 4 5 5 4 5 1h5l5-1 5-3 5-4 11-13" style="clip-to-self:true;comp-op:src"/>
<path transform="scale(.1)" d="m6190.6 2459.7-3-4-3-1-3 4-2 3-2 2-2 4-4 10-1 4-2 6v5 6 5l3 8 3 4 6 4h3 5l4-1 5-2 4-3 5-4 4-4 4-5 3-5 3-6 2-5 1-6v-6-5l-2-6-1-6-3-5-2-6-3-5-3-3-2-3-4-2h-3l-3 1-4 2-2 4-3 4-4 12-2 16v22" style="clip-to-self:true;comp-op:src"/>
<path transform="scale(.1)" d="m6254.4 2632.5v-3-10l2-8 2-6 1-6 3-6 2-7 3-7 12-21 5-6 4-5 5-5 5-3 4-2 4-1 4 1 3 1 6 6 3 6 3 7 2 8 1 9 1 11v10 12 11l-1 11v11 10l-1 9v8 16 3l1 3 3-4 2-3 3-5 2-5 3-8 3-7 4-8 4-9 4-10 10-22 5-12 6-12 5-12 12-20 5-8 5-6 3-4 3-2 4 1 1 4 1 5v7l1 9v22 13l1 13 1 12 2 13 2 11 3 11 3 10 4 9 5 7 6 6 6 4 7 2 7 1h9l18-4 10-5 11-5 10-6 11-8 10-9 10-10 10-11 9-11 8-12 8-14 14-39" style="clip-to-self:true;comp-op:src"/>
<path transform="scale(.1)" d="m6602.8 2493.1-3-5-3-4-5-3-6-1h-6l-7 2-7 5-8 5-16 16-8 10-8 11-8 12-16 28-7 13-5 14-6 12-3 12-3 10-1 9v9l2 12 3 4 3 3 4 2h4 5l6-2 5-3 7-3 6-4 6-5 14-10 6-6 6-7 6-5 11-11 5-4 4-3 4-2 4-1 5 3 2 3 1 5 2 6 2 16 1 10v10l1 12v12 13 14l1 16v16 18l1 17v18l-1 18v17 16l-1 15v15l-2 26-1 10-1 11-2 8-3 8-3 7-4 5-12 8-6 2-7 1h-8l-7-1-8-2-16-6-7-4-7-5-7-6-6-7-8-14-3-9-1-8-1-10 1-10 2-11 4-11 3-12 6-13 6-14 7-15 8-16 9-17 10-17 11-17 11-18 11-17 12-18 11-18 10-18 10-17 21-39" style="clip-to-self:true;comp-op:src"/>
</g>
<path transform="scale(.1)" d="m7976.9 1666.9-3-2-2-3-1-4-2-3-1-3-2-4-2-3-2-4-1-3v-4l3 1 4 3 2 2 2 3 4 5 3 5 8 12 2 4 2 3 2 4 2 3 3 3 15 20 3 3 3 5 3 4 2 4 6 9 3 3 3 5 3 4 8 13 4 5 2 4 3 4 4 3 2 4 4 4 3 4 3 3 3 4 3 3 9 12 9 9 4 3 6 6 7 6 3 2 4 3 7 4 6 4 4 2 2 2 4 2 3 1 5 4 5 2 4 3 3 3 5 4 3 3 2 3 6 4 3 3 2 3 2 2 2 3 2 4 3 5 2 3 2 4 1 3 2 2 2 3 3 3 4 6 3 2 2-3-7-7" stroke="#fff" stroke-width="14.1" style="clip-to-self:true;comp-op:src"/>
<g stroke="#f0f" stroke-width="14.1">
<path transform="scale(.1)" d="m8033.8 981.25-2-3-2-2-2 4v5l1 3v5l2 5 2 16 1 10 2 11 1 13 2 15 2 17 1 20 2 22 1 24 2 24 1 24 1 23 1 22 1 20 1 18v18l2 32 2 14 2 13 1 11 1 10 1 9 1 8 1 7 1 5v4 4l1 3-4-3-4-6-3-4-8-13" style="clip-to-self:true;comp-op:src"/>
<path transform="scale(.1)" d="m7944.7 1320.3-1-3v-5-3l2-3 3-1h4l6 6 2 4 3 4 3 5 2 5 7 13 4 7 3 6 4 7 5 6 4 6 14 14 15 6h6l10-2 4-3 13-9" style="clip-to-self:true;comp-op:src"/>
<path transform="scale(.1)" d="m8115.9 1275.9-3 3-2 5-2 6-1 4-3 15-3 11-1 7-2 6-2 8-2 7-2 8-2 16-2 8-1 7-2 7-2 6-4 6-10 12" style="clip-to-self:true;comp-op:src"/>
<path transform="scale(.1)" d="m7765.6 355.62-3-4-4-2-3 2-2 5-1 4-1 5v6l-1 8-1 9-1 10-2 11-1 12-2 25v12l-1 13-1 12v45l1 9v9l1 7v6l1 5 1 3 1 4 4-9" style="clip-to-self:true;comp-op:src"/>
<path transform="scale(.1)" d="m7733.4 371.88-1-3v-3-5-4l1-5 2-4 6-10 4-5 6-5 5-5 8-4 7-5 18-8 11-4 10-2 11-2 10-2h10 10l9 2 7 3 6 5 5 5 4 8 3 9 2 11v13l-2 13-3 16-4 16-10 34-6 16-16 30-8 13-10 12-10 10-10 9-10 8-10 7-10 6-9 5-9 4-16 6-11 2h-4l-3-1 1-4 2-3 4-4 5-4 6-5 16-10 9-5 22-8 12-3 11-2h12 12l10 1 10 3 16 8 6 6 5 6 4 7 2 7 1 8v7l-1 9-2 8-3 9-4 7-5 8-12 14-7 5-18 10-10 4-10 3-22 6-12 2-33 3h-21l-9-1-8-1-7-1-7-3-5-3-4-4-2-6v-6l4-18" style="clip-to-self:true;comp-op:src"/>
<path transform="scale(.1)" d="m7973.4 500.62-2 3-3 4-5 5-5 6-10 14-6 7-15 21-9 12-4 6-2 6-4 5-1 6-1 3-1 4 1 3 2 3 6 1 4-2 4-1 5-2 5-3 6-4 4-5 6-4 4-6 4-5 4-6 3-5 2-6 2-7 1-6v-7-7l-2-6-1-6-2-5-3-5-3-2-3-3-8-2h-5l-5 1-4 2-5 2-4 2-3 2-3 3-4 2 8-2" style="clip-to-self:true;comp-op:src"/>
<path transform="scale(.1)" d="m8060.3 315.94-2 4v4 5l-2 14-1 9v10l-1 11-2 26v16l-2 16-1 18-1 17-1 19-1 18-1 19-2 36-1 17-1 16-1 15v15l-1 12v19l1 7 1 5 2 4 4-3 6-9" style="clip-to-self:true;comp-op:src"/>
<path transform="scale(.1)" d="m8218.8 530.31-3-4-2-3-2-2-6-4-8-2h-4-4l-5 1-6 1-6 2-6 3-7 3-6 5-7 5-13 13-12 16-6 9-4 9-4 8-3 9-3 8v8l-1 7v6l1 5 2 5 2 3 4 3 3 1h5 4l6-2 12-6 7-4 7-5 7-7 6-7 6-8 7-8 6-9 6-10 5-10 4-11 4-12 3-13 4-14 2-16 2-15 2-18 2-19v-19l1-20v-20-19l1-16v-14-11-8-9 8 6 9l-1 10-1 12-1 14-1 16-1 17-1 18v18l-1 19v19l1 18v18l2 17 1 16 4 30 3 13 3 12 3 11 4 10 4 8 4 7 4 6 2 4 4 6" style="clip-to-self:true;comp-op:src"/>
<path transform="scale(.1)" d="m8616.6 357.5v-5l-1-5v-5l-1-5-2-4-2-3-5-5-4-2-3-2h-5-10l-12 1-7 2-8 2-8 3-18 10-10 7-10 8-11 11-10 12-10 14-10 16-18 34-8 18-6 18-6 17-4 16-2 15-1 13v12l2 11 3 9 5 8 6 6 7 5 10 4 10 2h11 12l14-3 15-3 16-4 17-5 16-5 16-6 15-7 35-18" style="clip-to-self:true;comp-op:src"/>
<path transform="scale(.1)" d="m8705.9 434.06-3-3-8-3-4-1h-6l-6 1-6 3-5 3-7 5-6 5-6 7-12 16-6 9-6 10-5 9-8 20-3 9-2 16v7l1 6 1 5 3 4 4 3 4 2 5 1h6l6-1 6-2 8-3 7-3 8-4 7-4 8-6 7-5 8-5 7-7 6-5 17-17 3-5 3-4 6-6v3l-2 8-3 18-1 7-1 8-1 7v6l1 7v6l2 5 2 4 3 4 3 3 4 1 5 1 5-1 7-2 12-8 19-14" style="clip-to-self:true;comp-op:src"/>
<path transform="scale(.1)" d="m8859.4 461.25-1 5-2 5-3 7-3 8-2 10-3 10-3 11-2 11-2 12-1 12-3 33v11 24 12l1 12 1 11v9l2 9 2 14 2 6 2 5 1 4 3 6 2-5-1-3-1-4-3-13" style="clip-to-self:true;comp-op:src"/>
<path transform="scale(.1)" d="m8817.8 542.81 4-11 2-8 8-16 10-16 14-16 7-7 8-7 7-6 8-6 8-4 9-4 8-3 8-1h7 6l6 2 5 2 6 10 1 6v7l-2 8-3 9-5 10-6 10-7 10-9 10-10 10-10 9-11 8-10 8-11 6-9 6-10 4-9 4-8 3-14 2h-5l-4-1-3-2-2-3v-5l7-13" style="clip-to-self:true;comp-op:src"/>
<path transform="scale(.1)" d="m9097.5 465.94v-3l1-6v-5l-1-4v-4l-6-12-3-2-2-3-3-3-16-4h-5l-4 1-10 2-10 6-4 3-8 10-3 5-4 10v4 5l2 5 2 4 2 5 3 5 7 9 12 15 19 19 5 4 3 4 3 5 2 4 2 8-1 5-2 3-6 8-4 3-5 3-6 3-6 2-7 2-8 1-8 2h-9l-8 1h-18l-16-2-9-2-7-3-9-4-16-12" style="clip-to-self:true;comp-op:src"/>
<path transform="scale(.1)" d="m8585.3 925 1-5v-3l-4-2-4 2-3 2-3 4-4 4-4 6-10 16-6 10-14 22-14 24-15 25-7 12-6 12-6 11-5 11-14 28-3 8-3 7-4 8h-3l1-5 1-3 1-6 2-5 2-7 4-16 3-9 4-10 3-10 4-11 5-12 4-13 5-14 5-15 6-15 7-16 6-15 7-14 7-12 7-10 6-8 6-7 5-4 4-2 5-1h4l4 2 4 3 3 3 3 5 3 6 3 7 2 7 2 8 2 9 2 8 2 10 1 9 1 10 2 10 1 10 2 11 1 10 3 27v9l1 8 1 7v6 9l1 4-1 3-3-2-2-3-8-8" style="clip-to-self:true;comp-op:src"/>
<path transform="scale(.1)" d="m8477.8 1047.8 2-3 6-2 4-1 5-2 6-2 7-4 8-3 8-4 9-5 10-4 10-6 22-12 24-14 12-8 14-9 13-10 27-21 13-11 24-20 10-9 8-9 8-7 14-14-1 4-2 4-1 5-2 5-3 6-2 6-3 8-3 7-3 9-3 8-3 9-2 9-2 10-2 9-1 10-2 10-1 10v9l-1 9v9l1 9v7l2 7 4 10 2 4 2 2 6 2 5-3 7-7" style="clip-to-self:true;comp-op:src"/>
<path transform="scale(.1)" d="m8827.8 945.94-4-1-5 1-6 2-12 6-10 7-5 2-6 4-10 8-4 5-4 4-3 4-2 8v4l1 4 4 8 4 3 3 5 3 4 4 4 8 10 4 4 3 5 3 4 4 10v5l1 5-1 5v6l-2 5-3 5-6 8-4 4-8 6-4 1-5 1-4 1h-3l-4-1-4-3-1-3 2-10 2-5 8-14 6-9 17-20" style="clip-to-self:true;comp-op:src"/>
<path transform="scale(.1)" d="m8891.6 998.44 1 4v3 3 4l-2 9v4l-3 15-1 4v5 3 5l1 3 4 5 6 3h4 5l5-2 6-2 6-3 7-3 12-8 7-6 5-4 5-6 4-5 4-6 6-18v-6l1-6-1-5-2-6-2-5-3-4-5-2-4-3h-6-8l-8 2-9 2-9 3-20 8-10 5-9 4-8 5-7 5-6 4-5 4-3 4-2 9" style="clip-to-self:true;comp-op:src"/>
<path transform="scale(.1)" d="m9235.3 834.06-4-6-4-4-8-5-4-2-8-2-3 1h-4l-4 3-2 3-1 3-2 10-1 7-2 8-1 9-4 22-4 24-5 27-2 13-5 28-2 15-1 14-2 14-1 13-1 12-1 9v8 10 3l3-3 1-4 2-5 1-5 1-7 1-19" style="clip-to-self:true;comp-op:src"/>
<path transform="scale(.1)" d="m9168.4 860.31 3-3 3-4 6-4 8-6 5-2 5-3 7-3 6-2 7-3 9-3 8-3 18-6 9-2 10-2 9-2 8-1 8-2h6l6-1h3l4 2-2 7" style="clip-to-self:true;comp-op:src"/>
<path transform="scale(.1)" d="m9162.8 1000.6h4l3-1 4-2 6-1 6-3 7-4 8-3 8-5 9-4 9-5 10-5 23-13" style="clip-to-self:true;comp-op:src"/>
<path transform="scale(.1)" d="m9341.2 946.88-2 2-1 4-3 4-2 5-6 10-3 7-4 14-2 8-3 7-2 8-2 7-2 8-1 7-2 12-1 5v9l1 3 3 4h3l6-5 2-4 3-4 3-6 7-16" style="clip-to-self:true;comp-op:src"/>
<path transform="scale(.1)" d="m9361.6 904.38-3 3v3 4l2 4 1 4 2 4 2 3 3 3 2 3" style="clip-to-self:true;comp-op:src"/>
<path transform="scale(.1)" d="m9403.1 934.06-2 4-2 6-1 4-2 10-1 6-1 7-2 7-2 14-2 8v7l-2 14-1 6v6 9 4l1 3 2 3h4l5-4 2-3 4-4 4-5 4-6 5-6 5-7 6-7 5-8 6-7 5-7 10-16 5-5 3-5 6-8 4-3 3 1 1 6 1 3v10 5l1 6v6l2 12 4 12 6 10 3 4 9 6 5 1h5 6 6l14-4 7-4 8-3 7-5 8-5 7-6 6-6 7-6 6-7 5-8 4-8 6-18 2-10 1-8 1-9-2-14-1-4-2-4-3-3-3-1h-3l-4 1-3 2-5 2-4 4-8 10-4 6-6 14-3 9-3 8-2 16 1 9 2 8 3 8 5 7 7 7 8 6 10 5 11 4 12 3 15 3 15 1h16l15-1 30-4 32-7" style="clip-to-self:true;comp-op:src"/>
</g>
<g stroke="#fff" stroke-width="14.1">
<path transform="scale(.1)" d="m815 3257.2-6-9-1-4v-3l-2-5-2-6-2-5-4-3-5-3h-7l-4 1-5 1-10 6-7 4-6 5-7 6-8 6-8 7-17 15-8 9-18 18-9 10-7 9-8 9-6 8-5 9-4 7-2 7-1 6 2 10 4 4 5 4 6 3 7 3 8 3 18 4 18 2 10 1 9 2 16 2 8 2 6 2 10 6 4 3 3 5 2 4v5 5 6l-2 6-6 14-5 7-4 7-6 8-5 7-34 34-8 5-7 6-8 5-7 5-12 8-5 2-3 4-2 2v3l6 1h4 5l5-1 12-2h6l6-1h6 6 6l4 1h5l4 2 4 1 4 6 1 3 1 4v3l-1 5-2 5-5 10-3 5-4 7-10 12-5 7-6 7-5 8-7 8-7 7-12 16-7 7-5 8-4 7-4 6-3 6-2 12v5l1 6 3 4 3 5 5 3 6 4 8 3 8 2 9 2 10 1 11-1 12-1 12-2 13-2 13-3 13-4 14-4 13-4 13-3 24-8 10-2 10-3 9-2 7-2h6 5 4 5l3 3 1 3v3-5" style="clip-to-self:true;comp-op:src"/>
<path transform="scale(.1)" d="m992.19 3425.6v-5l-1-4-2-4-3 2-4 4-1 4-3 5-3 6-3 7-3 8-4 10-3 11-2 11-3 12-3 13-2 12-1 12-1 11 2 20 2 8 3 7 3 6 4 5 5 4 5 3 7 1 6 1h7l6-1 8-2 7-3 7-4 6-4 7-5 6-6 6-7 9-14 4-8 4-9 3-9 2-9 2-10 1-10 1-12v-11-11l-2-22-2-10-1-9-3-8-3-6-3-5-3-3-4-3-4-1-4 1-6 1-6 3-5 3-6 5-7 5-7 7-7 8-6 9-6 8-6 10-6 9-8 20-4 18v8l5 16" style="clip-to-self:true;comp-op:src"/>
<path transform="scale(.1)" d="m1165 3588.4 1-3-2 4-2 3-1 4-3 5-18 36-5 9-4 10-5 10-5 11-5 10-4 10-4 9-7 14-3 5-6 6-10-2" style="clip-to-self:true;comp-op:src"/>
<path transform="scale(.1)" d="m1300.3 3381.6-3-5-3-4-3-3-2 5-1 5-1 6-1 8-1 10-2 12-1 12-4 28-2 15-1 15-2 14-1 15-1 14-2 26v13l-1 11 1 11v10l1 8 1 7 1 4 6 3" style="clip-to-self:true;comp-op:src"/>
<path transform="scale(.1)" d="m1386.9 3554.7-2-4 3 1 1 5v9l-1 6-1 8-2 9-3 11-4 12-5 13-6 14-7 15-7 16-9 16-16 30-8 14-14 21-6 8-3 5-3 4h-3l1-7" style="clip-to-self:true;comp-op:src"/>
<path transform="scale(.1)" d="m1519.4 3445.9v-5l3-9 3-4 3-2 3-3 4-3 11-5 6-3 12-4 7-1 12-2 6 1 5 1 5 2 4 3 4 5 1 5 2 7-2 16-3 10-4 10-5 11-7 11-8 10-8 11-9 10-28 28-8 7-9 8-7 6-5 6-4 5-3 4-1 2 2 4 2 1h5 6l8-1 8-2 10-3 12-3 11-3 12-4 13-4 11-3 13-4 11-4 22-6 9-2 8-1 6-1h5l4-1h3l-3 2-10 4" style="clip-to-self:true;comp-op:src"/>
<path transform="scale(.1)" d="m1815 3529.4-6 4-2 4-3 3-3 4-4 5-5 5-4 5-5 7-12 16-6 9-13 19-12 22-6 10-6 11-6 10-5 9-6 8-5 8-10 9-9 7" style="clip-to-self:true;comp-op:src"/>
<path transform="scale(.1)" d="m1991.2 3511.9-3-1 3 2 4 1h6 4 3l4-1 5-1 13-3" style="clip-to-self:true;comp-op:src"/>
<path transform="scale(.1)" d="m2148.4 3522.2h4l3-1 4-2 3-1 3-2 4-1 4-3 5-3 7-3" style="clip-to-self:true;comp-op:src"/>
<path transform="scale(.1)" d="m2340.6 3520.6 5-5 1-3" style="clip-to-self:true;comp-op:src"/>
<path transform="scale(.1)" d="m2517.8 3260.6-1-4v-3l2-8 2-4 3-4 5-3 5-4 6-4 14-8 8-2 9-4 8-2 9-2 10-2 8-2h9 8l9 1 7 2 6 3 6 4 4 5 4 6 2 7 1 9v9l-2 9-2 11-5 11-4 12-6 12-14 24-14 22-8 10-14 20-6 8-5 8-4 6-3 7-3 6v5 6l1 4 2 4 4 4 5 4 6 2 8 3 8 2 9 2 9 1 40 8 8 2 8 3 7 4 6 3 8 8 1 5v5 6l-2 6-3 6-5 7-5 6-6 6-6 7-6 6-7 6-6 6-13 12-5 6-5 5-4 5-2 5-2 4-1 4 1 4 2 3 8 6 5 2 7 3 6 2 8 3 8 1 8 2 8 3 8 2 7 2 12 6 4 3 6 8v5 5l-6 12-5 5-6 8-8 6-8 7-10 6-10 7-22 11-12 5-24 8-13 3-12 3-11 3-12 2-11 1h-10l-10-1-21-5" style="clip-to-self:true;comp-op:src"/>
<path transform="scale(.1)" d="m3381.6 3389.4v-3-3l2 5v3 17 9l-1 10-1 11-2 28-4 32-1 18-1 17-1 18-1 17v31l1 13 1 11 1 9 3 6 1 6 3 3 3 2h5l3-2 4-3 3-5 4-5 4-7 12-24 3-9 4-10 3-9 3-8 2-8 3-8 2-7 2-6 2-4 2-3 2-2 2 3 2 4 1 4 1 6 2 6 4 14 3 7 3 8 3 7 4 7 5 6 4 7 6 4 6 6 7 3 21 6h8l16-2 14-6 8-3 6-4 5-4 6-5 8-11 4-7 2-6 2-7 1-6v-8-8l-2-19-1-10-2-11-2-12-1-12-2-27v-13l-1-13v-11l1-10v-9-6l1-4v-3l3 1 3 6 1 4v5l1 5v14" style="clip-to-self:true;comp-op:src"/>
<path transform="scale(.1)" d="m3711.6 3366.9-4-8-3 1-1 6-1 4v6l-2 7-2 18-1 11-1 12-2 28-2 32-2 34v50l1 16v13l2 11 1 9 1 7 2 4 1 4 4 3 5-3 2-3 3-3 3-6 8-12 4-9 4-8 4-9 4-10 5-10 4-11 4-10 5-10 8-18 4-7 3-6 3-4 3-2 1 5v12 7l-1 10v9l-1 11v20l1 11 1 10 1 9 2 9 3 7 4 5 3 5 6 3 6 1h6l7-1 7-3 7-4 8-5 14-12 7-8 7-7 5-7 5-8 4-7 3-7 2-6 1-5 1-4v-3l-1-3-3 1-4 6-2 4-1 5-1 6-2 7-1 8v7l-1 8 1 8 1 9 2 7 3 8 3 7 5 7 4 6 5 6 6 4 6 3 7 2 6 1h7 8l6-2 7-2 7-4 5-4 6-4 4-5 6-10 2-6 1-6v-6l-1-7-1-6-6-14-4-8-8-14-5-7-5-5-5-6-6-3-5-3-6-1-5-1-6 1-5 1-5 2-5 3-3 3-6 8-2 8v5 4l4 10" style="clip-to-self:true;comp-op:src"/>
<path transform="scale(.1)" d="m4085.9 3439.4v-6l-1-6v-15-6-5l-1-5v-3l-2-5-3 3-1 4-1 6-1 7-1 8v10l-1 11-1 12v14l-1 14v29l1 16 2 30 2 14 6 28 4 12 5 12 4 9 5 8 5 6 5 4 6 3 6 1 5 1 6-2 6-1 6-3 6-4 7-5 6-5 6-6 5-6 5-7 4-7 3-7 4-8 4-16 1-10 1-9v-20l-1-9v-7l-2-7-2-5-2-4-3-2h-3l-4 1-4 3-5 4-4 6-4 7-5 9-5 10-4 11-5 11-4 13-8 24-1 12-1 11v10l2 9 3 8 5 7 6 6 8 4 10 3h12l15-3 16-4 36-16 46-24" style="clip-to-self:true;comp-op:src"/>
<path transform="scale(.1)" d="m4655 3408.1-2-3-3 6-1 5-1 6v7l-1 9-4 22-2 13-2 14-3 14-6 30-3 17-3 14-3 16-3 15-2 15-3 14-1 14-3 11-1 9-1 7v6l-1 3v-4l1-5 1-6v-8l2-8 2-20 4-22 4-24 2-14 6-28 4-15 4-13 4-12 4-11 4-8 2-6 3-5 3-3 4-1 5 5 6 10 2 7 3 8 3 9 6 20 4 10 8 22 9 21 4 10 6 10 5 9 6 9 5 9 13 13 7 6 12 8 12 4 5 1h5 5l3-1 4-1 5-4 2-2 2-7v-10l-1-5-2-13-1-7-1-8-1-10-2-10-1-11v-26l1-15 4-32 3-17 3-16 4-15 5-14 3-12 4-10 7-14 4-4 4-1 3 5 1 5v6l-1 18" style="clip-to-self:true;comp-op:src"/>
<path transform="scale(.1)" d="m4918.8 3534.1v-3-7-3l-4 2-3 6-1 5-3 6-1 7-3 8-2 8-2 10-1 9-1 11-1 10 1 10v11l2 10 2 9 4 9 3 7 4 6 6 5 5 3 6 1 7 1 14-4 7-4 8-5 7-6 8-8 6-8 12-18 5-10 4-10 9-30 1-10 1-9 1-7 1-6v-8l-3 3v4l-2 12-1 8v7l-1 9v8 9l2 18 1 8 2 7 3 7 4 6 3 5 5 3 5 2 6 1 6-1 12-6 6-6 7-6 14-19" style="clip-to-self:true;comp-op:src"/>
<path transform="scale(.1)" d="m5110.3 3516.6-1-5-1-4-2 4-1 3-2 9-1 5-2 7-2 6-2 8-4 17-4 36v9 8 8l1 6 2 6 2 4 2 3 4 4 4-2 3-2 3-3 3-4 4-5 8-12 3-7 4-7 4-8 3-7 9-16 4-7 4-8 4-6 3-7 4-5 3-4 4-6 2 5v8 6 6l-1 8v7 8l-1 8v15l1 6 1 7 1 5 4 8 2 2 6 1 6-3 4-4 8-10 5-7 4-7 5-8 4-8 9-17 12-27 3-9 4-8 3-8 6-13 3-4 2-2h3l5 10 1 6 1 7 2 16 2 9 2 18 4 20 2 9 2 10 3 9 3 8 3 9 3 7 9 9 4 3 4 1 4-1 4-2 4-4 8-14" style="clip-to-self:true;comp-op:src"/>
<path transform="scale(.1)" d="m5433.1 3411.2-1-3v-3l2 3v4l-2 8-1 5-1 7-2 7-1 9-2 10-1 12-2 12-2 13-1 14-1 15-2 29v15 14l2 26 1 12 2 10 1 8 2 6 1 4 2 4 2 2 4-2 2-3 3-4 2-5 3-7 3-6 3-8 7-16 8-18 5-10 10-18 12-18 6-8 11-11 6-3 5-2 5-1h4l4 1 4 3 3 4 2 4 2 5 2 6v7 7l-1 8-2 9-4 16-5 9-4 8-10 16-6 7-5 6-6 6-6 4-5 3-5 2-5 1h-4l-4-1-3-3-2-3-3-4-1-5v-6-6l1-8 2-7 7-19" style="clip-to-self:true;comp-op:src"/>
<path transform="scale(.1)" d="m5618.1 3580.9 3-2 3-1 5-3 6-2 6-3 16-6 9-4 10-3 9-5 10-4 9-5 9-4 8-5 14-10 6-4 5-4 6-8 2-4 1-5 1-3-2-8-2-4-6-6-4-2-5-2-6-1h-7-6l-8 2-15 5-8 4-7 5-7 6-6 7-7 9-6 10-5 10-5 11-8 24-4 13-2 13-1 11-1 12 2 12 2 10 4 9 6 8 6 6 8 5 9 3 10 2 11-1 11-2 11-5 12-5 12-7 12-8 11-9 10-9 9-9 8-9 6-9 5-10 4-9 4-21" style="clip-to-self:true;comp-op:src"/>
<path transform="scale(.1)" d="m5819.1 3485.3 4-2 3-1 3-2h4 4 4l5 1 4 1 6 3 4 4 5 4 4 5 4 8 3 7 4 18 1 9v11 10l-3 33-3 19-2 9-2 14-4 8-3 4h-4l-3-5-2-4-1-4-1-6-2-14v-8l2-18 1-10 3-9 3-11 5-10 5-12 14-24 18-24 10-11 10-9 10-8 10-7 10-5 8-3 8-1h7l6 2 5 3 5 4 2 4 2 5 3 17" style="clip-to-self:true;comp-op:src"/>
<path transform="scale(.1)" d="m6040.3 3527.2 7-9 5-6 4-6 10-14 5-8 4-8 5-8 4-8 4-7 4-12 1-5v-4l-2-5-6-1-4 1-6 1-5 3-14 8-14 12-6 7-7 7-5 7-5 8-4 7-3 6-2 7-1 7v6l2 7 2 5 10 12 7 4 7 5 8 5 9 4 17 9 16 8 7 5 10 10 4 6 2 5 1 5-1 6-2 6-3 5-4 6-5 5-6 5-14 8-16 6-8 2-8 1h-8l-7-1-6-2-5-4-4-5-2-5-5-18" style="clip-to-self:true;comp-op:src"/>
<path transform="scale(.1)" d="m7847.5 3334.1v-3-3l1-4h4l3 2 7 7 3 4 4 4 3 5 4 4 10 12 4 6 6 7 5 8 6 8 7 8 7 9 7 8 8 10 8 9 8 10 8 9 8 10 9 10 8 9 9 9 8 9 21 21 17 16 11 11 6 4 3 3 2 3-6 2-3-1 2-3 5-6 6-8" style="clip-to-self:true;comp-op:src"/>
<path transform="scale(.1)" d="m8176.2 3339.7 2-6v-3l1-3 1-4 1-3 1-5v-4-4l-3 2-3 6-2 5-2 6-2 7-3 8-3 9-8 22-4 12-15 39-5 14-6 14-5 14-6 14-6 13-5 13-10 22-5 9-3 8-3 7-3 5-2 5-2 6 2-3 2-5 4-8 3-5 6-13" style="clip-to-self:true;comp-op:src"/>
<path transform="scale(.1)" d="m8180.6 3335.3-1-4-1-3-1 4 1 4 1 3 2 3 2 4 2 5 3 5 3 6 4 6 4 7 5 8 4 8 6 9 5 8 5 10 6 9 11 20 12 20 10 20 4 9 9 16 4 8 3 7 3 6 3 5 3 4 2 4 4 6 3 3 4 2h3l-1-3v-4l-1-6" style="clip-to-self:true;comp-op:src"/>
<path transform="scale(.1)" d="m8472.2 3284.7-1-5-1-4-2-4-2-2h-4l-2 3-2 6-1 4-2 10-2 7-1 8-3 9-3 10-3 11-3 13-9 27-5 14-6 15-21 45-7 14-7 13-6 13-6 11-5 11-6 9-4 8-8 12-3 5-8 8-4-2-5-6-6-7" style="clip-to-self:true;comp-op:src"/>
<path transform="scale(.1)" d="m7940.3 3361.6-2-4-4-3-4-4-4-3-5-7-5-5-2-3 3 1 4 4 4 5 3 4 3 3 3 4 12 15 4 6 5 6 4 7 5 6 4 7 5 7 5 8 4 7 13 24 4 7 4 8 5 7 3 8 9 14 8 12 5 6 4 5 8 8 5 2 3 3 5 1h3 4l10-2" style="clip-to-self:true;comp-op:src"/>
<path transform="scale(.1)" d="m8236.2 3334.7-2-3-3-2-3-3-1-3v-3l4 2 2 5 4 6 2 4 3 5 2 5 4 5 2 6 4 7 8 12 10 14 4 7 5 7 4 6 5 7 4 8 10 14 4 7 4 8 8 14 4 8 4 7 3 7 2 7 3 6 2 6 5 13" style="clip-to-self:true;comp-op:src"/>
<path transform="scale(.1)" d="m814.06 4305.9 1-5v-4l-1-3-1-5-2-5-4-3-3-2-6-2-4-1h-4-5l-5 1-7 1-5 2-7 3-7 4-6 4-7 5-15 12-7 8-14 17-7 9-6 8-4 9-4 7-3 7-1 7v6l1 6 2 5 4 5 3 3 10 8 12 6 7 2 7 3 6 3 14 4 5 2 10 5 4 3 6 6 2 4v4 3l-1 5-6 10-4 5-4 6-10 12-6 5-7 6-6 5-14 12-14 10-6 5-5 4-5 5-4 3-3 3-2 3-1 3 3 3 5 2h4 8 5l5-1h10l4 1 3 1 4 2 2 2 4 6v4 5l-4 12-2 7-4 6-3 7-8 12-5 6-8 12-4 5-4 6-3 5-2 5-3 4v3 4l1 4 2 3 3 4 3 2 5 3 6 2 6 1 8 1 16-1 10-2 9-2 20-5 18-6 9-2 14-6 6-2 10-5 3-2 2-3" style="clip-to-self:true;comp-op:src"/>
<path transform="scale(.1)" d="m981.25 4554.4v-3l-3-2-3-1-8 2 4-2 3-2 6-3 1 3-2 5-9 9-8 2-3-1-3-3v-3l2-4 2-3v3" style="clip-to-self:true;comp-op:src"/>
<path transform="scale(.1)" d="m1164.7 4552.2-4 2-3 2-3 1-1-4 4-2 7-5 3-1 4-1 3 3v4l-1 3-3 4-2 3-3 2-2 3-4 1-2-2 1-4 1-6" style="clip-to-self:true;comp-op:src"/>
<path transform="scale(.1)" d="m1303.8 4560.3-3 1 3-3 6-3 3-1 4-1 5-1 16-4h3l5-1 3 1v4l-3 2-5 3-6 2-5 2-6 1h-3l2-3 4-2 3-3 2-5" style="clip-to-self:true;comp-op:src"/>
<path transform="scale(.1)" d="m1507.2 4573.4 6-2h3l1 3-1 4-4 6-2 4-3 5-4 5-5 6-10 14-7 7-6 7-7 8-6 8-15 15-8 7-20 17" style="clip-to-self:true;comp-op:src"/>
<path transform="scale(.1)" d="m1640.3 4436.9-2-3-3-2 9-1 8-2 5-1 6-2 16-4 9-2 10-3 11-3 21-6 11-3 9-3 9-4 20-10" style="clip-to-self:true;comp-op:src"/>
<path transform="scale(.1)" d="m1904.7 4404.4-1-3v-6l1-4 2-3 1-3 4-3 2-4 8-6 4-4 5-3 4-3 10-4 4-1h5 4l4 2 3 3 2 5 1 7v8l-1 9-1 10-3 11-3 12-4 12-4 11-5 11-5 12-6 10-5 10-12 18-6 10-6 8-6 7-5 8-6 6-4 5-4 6-3 4-2 4-3 4v3l4 3 6 1 4-1 5-1 6-2 7-3 7-2 8-2 8-3 9-3 8-2 7-3 7-2 6-2 6-1 3-1h4 3l1 3-2 3-4 5-10 6-6 2" style="clip-to-self:true;comp-op:src"/>
<path transform="scale(.1)" d="m2067.8 4573.4v-3 4l-2 5-2 3-2 4-6 9-4 4-4 5-15 18-5 7-6 6-5 6-5 5-4 5-12 12-6 4-3 1" style="clip-to-self:true;comp-op:src"/>
<path transform="scale(.1)" d="m2159.7 4487.5h-4l3 1 4-1h3l8-2 5-2 6-2 7-1 6-2 14-4 18-6 10-2 5-2 3-1 3-2 7-5" style="clip-to-self:true;comp-op:src"/>
<path transform="scale(.1)" d="m2358.8 4331.6-5-5-2 5v6 5 7l-1 8-1 9-1 11-1 12-2 26-1 14-1 13v14 12 12l2 22 1 9 2 9 2 7 1 6 4 8 5 6" style="clip-to-self:true;comp-op:src"/>
<path transform="scale(.1)" d="m2473.4 4532.2 2 3-1 4-1 3-1 4-2 4-3 4-3 5-3 6-3 7-3 6-3 7-4 7-3 7-3 6-4 12-4 8-3 4-8 6" style="clip-to-self:true;comp-op:src"/>
<path transform="scale(.1)" d="m2603.1 4445-1-3h-4l-2 5-1 4-2 5-1 6-2 6-2 8-2 7-2 9-3 18v9 9l1 8 1 7 2 8 3 6 8 8 6 2 5 1 6-1 7-1 14-6 7-4 8-5 7-5 7-6 6-7 7-7 5-7 4-7 3-9 3-8 1-8v-9-10l-1-10-3-11-2-11-4-12-4-11-4-9-5-10-6-6-5-6-7-4-7-2h-6l-14 4-6 5-5 5-5 7-5 8-9 24-1 8v21" style="clip-to-self:true;comp-op:src"/>
<path transform="scale(.1)" d="m2815.6 4522.5v4l-3 6-1 4-6 10-4 6-4 7-3 7-5 8-3 8-5 9-8 18-4 8-5 7-5 6-6 6-14 12" style="clip-to-self:true;comp-op:src"/>
<path transform="scale(.1)" d="m2968.4 4352.2v-4l-3-12-2-6-2 8-1 5v7l-2 16v10 22 11l1 12v11l2 23 1 11 2 10 1 10 1 9 3 23" style="clip-to-self:true;comp-op:src"/>
<path transform="scale(.1)" d="m3114.4 4506.6v-4l-3 4-3 6-3 4-3 5-10 20-7 16-3 7-3 8-2 8-3 7-2 7-1 7-1 5-1 4v3" style="clip-to-self:true;comp-op:src"/>
<path transform="scale(.1)" d="m3220 4361.2 2-6 2-4 3-3 2-4 3-3 4-3 9-5 4-3 5-2 4-2 10-2h4l5-1 8 2 6 4 2 4 1 4 1 6-1 7-2 8-4 9-4 11-5 11-5 12-7 12-6 11-7 12-12 20-6 9-4 8-5 8-3 7-3 5-1 6-1 4v4l1 2 2 3 3 2 4 2 5 1h14l8-1 9-1 9-2 10-2 10-3 18-4 8-3 7-2 6-2 5-2 6-6" style="clip-to-self:true;comp-op:src"/>
<path transform="scale(.1)" d="m3447.8 4497.8 1 3-4 6-3 4-3 5-5 6-4 7-12 16-12 18-7 9-6 10-7 9-14 16-8 6-7 7-19 15" style="clip-to-self:true;comp-op:src"/>
<path transform="scale(.1)" d="m3598.8 4510.6v-3-4l-3-1 3 3 4-1" style="clip-to-self:true;comp-op:src"/>
<path transform="scale(.1)" d="m3826.6 4508.4h-4-3l-12 4h5 5l3-1 2-3" style="clip-to-self:true;comp-op:src"/>
<path transform="scale(.1)" d="m3985 4509.4v-2-5-6" style="clip-to-self:true;comp-op:src"/>
<path transform="scale(.1)" d="m4036.9 4198.4 2-4 2-3 8-8 5-3 6-2 7-3 7-2 8-2 8-3 8-1 14-4 6-1h7 6l10 1 3 3 4 2 2 4 2 5v5 7l-2 8-3 9-4 10-5 10-6 11-6 10-7 10-6 10-7 10-6 9-10 18-4 8-3 7-1 7-2 6v6l2 10 2 4 4 6 4 4 4 5 5 5 12 10 6 4 7 4 6 4 6 3 6 4 10 6 11 11 2 6v4 4l-2 4-3 4-2 5-3 4-4 4-3 5-4 4-6 8-2 4-3 4-2 6v4 2l1 3 1 4 3 2 2 3 6 6 4 2 4 4 4 3 10 8 9 9 3 4 4 5 3 5 5 8v5l1 5-2 10-2 5-3 5-9 9-6 5-7 4-7 5-8 4-8 5-9 3-9 4-10 4-9 3-11 3-9 3-11 2-10 2-24 4-30 3" style="clip-to-self:true;comp-op:src"/>
<path transform="scale(.1)" d="m4812.5 4233.8v-5l-1-2 1 3v6l1 5v7l1 7v10 11 13 15 18l-1 19-1 21-1 23-2 24-2 23-1 24-2 22-1 20-1 19v17l-1 16v13l1 13v10l1 8 1 7v5l1 4 2 4 2-6v-8l-1-13" style="clip-to-self:true;comp-op:src"/>
<path transform="scale(.1)" d="m4907.5 4464.4-2-2 1 2 2 7 2 4 1 6v7l1 7 1 8v9 9 10 10 28 8l1 7 1 6 1 5v4l1 5 3-2 1-4 1-3 1-5 4-12 3-6 2-8 3-7 4-9 5-8 4-8 6-9 6-7 7-6 6-5 6-4 6-3 6-2 5-1 5 1 4 2 4 3 4 4 4 5 2 6 3 7 3 8 5 16 2 9 1 9 2 8 1 8 4 14 1 5 2 5 2 4 4 3 5-1 3-2 1-3 2-4 4-14" style="clip-to-self:true;comp-op:src"/>
<path transform="scale(.1)" d="m5140.9 4300 1-3-1 6-1 5-1 6-1 7v8l-1 9-1 10-2 11-1 12-1 13-1 14-3 45v16l-1 15v16l-1 15 2 28 1 12 3 10 2 9 3 8 2 5 3 4 3 3 3 2 6-1 4-3 4-4 6-12 6-19" style="clip-to-self:true;comp-op:src"/>
<path transform="scale(.1)" d="m5077.5 4445.6 3-3 6-4 4-2 4-1 5-3 5-2 6-2 21-9 8-2 18-6 10-3 10-2 27-9 19-4" style="clip-to-self:true;comp-op:src"/>
<path transform="scale(.1)" d="m5262.8 4523.1 3 1 6-1 3-1 10-6 6-3 5-4 6-5 7-5 12-12 11-12 8-12 3-6 2-6 2-12-2-10-2-4-3-3-4-2-5-1-6 1-6 2-7 3-14 12-8 9-7 9-6 10-6 11-10 24-3 12-6 26-1 12v12l1 11 2 10 3 9 5 7 6 5 8 5 9 2 10 2 12-1 13-2 13-3 14-5 15-5 14-6 15-7 13-8 14-8 31-24" style="clip-to-self:true;comp-op:src"/>
<path transform="scale(.1)" d="m5525 4419.1h-4l-4 1h-5l-6 2-7 4-6 4-12 12-7 6-7 8-6 8-8 8-6 8-7 8-6 8-5 7-4 7-3 7-2 6-1 5v5l1 3 2 3 3 3h3l5 1 10-2 12-6 7-3 7-4 6-5 7-4 6-4 6-3 5-4 5-2 8-4h5l3 3 1 3v4l1 6v7l1 8v10l1 12v43l-1 15v16l-1 16v15l-1 15-2 15-1 14-1 13-2 13-2 12-1 10-3 9-6 16-3 6-4 5-4 4-5 3-5 2-5 1h-5-6l-5-2-6-2-4-4-5-4-4-4-3-6-2-6-1-8 2-16 2-10 5-11 11-22 8-12 9-13 9-14 11-13 12-14 12-15 12-14 39-42 12-14 11-12 27-29" style="clip-to-self:true;comp-op:src"/>
<path transform="scale(.1)" d="m5656.9 4482.5-7 7-2 3-2 5-1 3 3 3 5-1 4-1 5-2 5-3 12-6 6-5 7-4 11-11 5-6 5-5 5-6 3-6 3-5 2-6 1-6v-6-5l-1-4-2-4-3-2-3-1h-4l-4 1-4 3-5 4-6 5-6 7-5 7-6 9-4 9-5 10-4 10-4 9-2 11-2 10-1 9v10 8l2 8 6 12 8 8 6 2 5 1 6 1 6-1 7-2 7-3 14-8 7-6 8-6 13-13 6-7 5-8 5-7 9-16 4-7 3-7 4-7 2-6 3-4 6-6 3-2 4 1 3 5 1 4 2 5 2 12v8l1 7 1 8v8 9 8 9 8l-1 7v7l-1 6-1 5v5l-1 3-2 4-3 1-3-4-3-6-2-10v-7-7l1-8 2-8 3-9 4-10 4-9 10-22 7-11 7-10 8-10 8-9 16-16 9-6 8-5 7-4 8-2 7-1h6l6 2 5 2 4 3 9 11" style="clip-to-self:true;comp-op:src"/>
<path transform="scale(.1)" d="m5985.3 4475 4-2 4-1 13-13 4-5 3-6 5-5 3-6 3-5 4-12 1-5v-5-4-4l-1-3-3-4h-6l-4 2-3 2-5 3-9 9-4 5-4 6-3 7-3 6-3 7-1 7v6 7l1 7 6 12 4 7 11 11 7 6 16 11 7 6 7 5 8 5 11 11 4 5 3 5 1 5 1 4-1 5-3 4-3 5-5 3-7 3-7 4-8 2-9 2-11 2-10 1h-10-9l-10-1-9-1-9-2-8-3-18-9" style="clip-to-self:true;comp-op:src"/>
<path transform="scale(.1)" d="m8029.4 4267.2-2-1-3-1-4-1-6-2h-6-5-3l2 4 3 1 4 1 5 1h7l8 1h10l11-1h12l14-1 14-2 32-4 17-2 18-2 36-6 18-2 17-3 16-2 15-2 14-1 12-2 20-2h7l6 1 4 1 3 2 2 3-3 6-11 11-5 4-6 4-12 10-7 5-7 6-8 6-9 6-9 7-9 8-22 16-11 9-12 10-13 10-39 33-14 11-14 10-14 11-14 10-13 10-14 10-14 9-26 16-12 8-11 8-11 6-9 7-9 6-8 5-7 5-6 4-4 4-5 3-7 7-1 3 3 2 4-1h4l4 1 2 2 1 3 5 1 6-1 5-1 6-1 8-1 9-1 12-2 14-2 15-2 18-2 19-2 21-3 22-2 23-3 25-2 24-3 25-2 24-2 23-2 22-1 21-2 19-1h18 30 13l11 2 9 1 8 1 6 1 8 2 3 2-4 2-3 1-6 1-4 1h-7-4-4-3l-4-1h-3l-4-2-3-2-10-5" style="clip-to-self:true;comp-op:src"/>
<path transform="scale(.1)" d="m8355.9 4298.1 2-4 4-3 2-3 2-2v-4h-3l-3 1-4 3-5 4-3 2-8 6-5 4-6 4-6 5-6 6-8 7-57 57-12 11-13 12-14 11-15 10-14 11-15 9-15 10-15 9-14 9-14 8-14 9-14 8-14 7-13 7-24 12-11 6-19 10-8 4-6 5-6 3-4 3-2 3-3 4 3 2 4-2 5-3" style="clip-to-self:true;comp-op:src"/>
<path transform="scale(.1)" d="m879.06 6276.2v-8l-1-3-3-3h-4-5l-6 1-2 1-4 1-6 4-4 3-3 3-4 3-4 4-8 10-8 12-9 14-4 8-6 14-4 7-4 14-1 7-1 6v6 6l2 10 2 6 2 4 6 8 8 8 3 4 5 3 10 8 5 3 13 13 6 10 4 12 2 10v6l-1 6-1 5-1 7-4 12-3 5-3 6-3 5-11 11-8 6-3 2-4 2-6 2-5 1h-4v-3l2-3 10-6 3-2 4-1 4-2 12-3 5-1 4-1h4 4 3l4 1 4 3 4 5 1 4 1 3v5 5l-1 6-1 7-4 13-4 16-2 9-3 9-3 10-3 9-4 10-6 20-4 9-4 10-3 9-8 16-3 8-3 7-6 21-2 6-2 5v11l2 4 1 5 2 4 4 6 4 2 3 1 4 2 5 1 10 1h6 7l14-2 8-1 21-3 7-2 6-1h6 8 4l4 2 1 3" style="clip-to-self:true;comp-op:src"/>
<path transform="scale(.1)" d="m1123.1 6412.8-3 1-2 8v3l-2 10v6l-1 8v8l-2 18v11l-1 12-1 11v11l-2 22v10 9l-1 8v7 6 6 5l-1 4-1 3-1 5-3 3-2-2-2-4-2-3-1-3-1-4v-5l-1-6v-7l1-7v-9l1-9 2-9 4-22 4-12 3-13 4-13 5-14 5-15 6-14 7-15 14-26 8-11 7-9 7-8 7-6 14-8 6-1h5l6 1 4 2 4 3 3 4 3 5 2 6 1 6 1 7-1 8-1 7-3 9-2 8-8 16-5 8-5 7-6 8-7 7-14 12-16 10-24 9-7 2-8 1-7 1h-5l-6-1-4-1-5-1-2-1-3-4v-4l3-4 2-2 8-7" style="clip-to-self:true;comp-op:src"/>
<path transform="scale(.1)" d="m1348.4 6309.4 1-3 2-8v-3-7l-2-3-3 3-4 5-1 5-3 6-3 7-3 9-4 10-4 13-5 13-6 16-5 16-7 19-6 20-7 21-7 22-8 22-28 92-6 22-6 21-5 18-5 17-4 14-4 12-3 10-2 8-3 6-1 6-1 3-1 4 3-5 3-4 3-6 5-7 4-9 6-10 17-28" style="clip-to-self:true;comp-op:src"/>
<path transform="scale(.1)" d="m1492.5 6512.2 6-8 3-5 1-6 2-4v-5-4-4l-2-4-1-3-3-3-4-2-3-2-10-2-12 2-7 2-7 4-6 4-16 12-7 9-8 9-7 10-14 22-12 22-4 11-3 10-3 9-1 9-1 7v6l2 6 2 4 6 4h4 5l10-6 7-4 7-5 20-20 14-16 6-8 6-9 10-16 7-14 3-5 2-4 2-3-2 10-2 6-1 7-3 9-1 10-3 12-2 12-5 27-2 14-2 15-1 15-2 16v16l-1 15v14l1 12v11l1 9 2 12 2 4 1 3 3 3h4l3-1 3-3 4-3 4-5 5-5 6-7 5-8 7-8 6-9 8-11 7-11 8-11 8-13 17-25 9-12 9-11 10-11 9-10 10-9 8-8 7-6 6-5 5-4 5-3" style="clip-to-self:true;comp-op:src"/>
<path transform="scale(.1)" d="m1812.2 6374.4-1-4-1-5-1-4 2-2 3-1 6 6 2 4 2 3 2 4 4 10 2 6 2 7 1 7 1 19" style="clip-to-self:true;comp-op:src"/>
<path transform="scale(.1)" d="m1859.7 6585.9-1-4 2-3 2-2 9-6" style="clip-to-self:true;comp-op:src"/>
<path transform="scale(.1)" d="m2118.4 6394.7v28 11 13l-1 14-1 16-1 17-2 19-1 19-4 40-3 22-2 21-1 23-2 24-2 44-1 19-1 16-1 14v41-5-32-11-11l1-14v-14-15l1-16v-17-17l1-17v-17l1-18 3-48 2-16 3-15 6-28 5-12 4-11 4-10 5-9 5-6 4-6 5-5 10-6 5-1 4-1h5l8 4 3 3 2 5 3 6 1 6 1 8v8l-2 19-2 10-2 9-3 10-3 9-4 9-4 8-4 7-5 7-4 6-9 9-5 4-3 3-4 2-4 1-3 1-6-1-4-5-4-8" style="clip-to-self:true;comp-op:src"/>
<path transform="scale(.1)" d="m2491.2 6268.4-2-6-1-4-1-3-2-3 1 4 1 3 1 5v7l1 8 1 11 2 12 1 14 1 16v17l1 18-1 18v19l-1 19-1 18-1 19-1 18-2 34v14l-1 13v12 9 7l-1 5v4 3-5l1-4 1-7v-6l2-9 3-9 3-10 8-22 5-13 6-12 14-24 16-20 16-14 7-4 8-3 7-1h7l6 1 5 3 6 3 3 6 4 6 4 14v9 8l-1 10-2 10-4 10-4 11-5 10-6 11-7 10-7 9-9 8-8 8-8 7-9 6-9 4-8 4-8 3-7 1h-7-6l-5-2-4-3-3-4-1-5v-6l1-7 3-8 10-23" style="clip-to-self:true;comp-op:src"/>
<path transform="scale(.1)" d="m2690.6 6539.7 3 2 3 1 5 1 6-2 4-1 3-3 10-6 5-4 6-5 5-4 6-6 6-5 6-7 5-6 6-6 4-7 4-5 2-6 2-10-1-4-2-3-2-2-3-2h-4-5l-5 2-12 6-14 10-21 21-6 8-7 9-5 9-6 10-3 9-3 10-2 9-1 8 1 8 1 7 3 5 4 6 5 3 7 3 7 1 8 1 20-4 12-3 24-10 28-14" style="clip-to-self:true;comp-op:src"/>
<path transform="scale(.1)" d="m2848.4 6592.2 4-3 5-4 2-4 4-3 8-10 4-6 8-14 5-9 4-9 5-9 4-11 5-10 8-24 3-12 3-13 3-14 4-30 2-34 2-35v-44l-2-9-1-7-1-4-2-3-5 1-2 3-3 7-4 8-4 11-5 14-4 16-6 19-10 40-5 22-5 20-4 22-2 21-2 19-1 19 1 17 2 15 3 13 4 11 5 9 6 7 7 6 8 3 8 2h10l10-1 11-4 12-4 12-7 14-7 24-18 12-11 20-22 9-12 7-10 6-11 5-9 3-8 2-7 2-5v-4l-4-4-4 1-10 5-6 4-6 6-8 7-14 18-12 22-5 11-5 10-3 10-1 9v9 8l4 12 8 8 5 2 6 2h6l6-2 7-2 7-3 7-5 8-5 12-12 7-8 5-7 5-10 4-9 3-10 2-11 2-22-1-12-1-11-1-10-2-9-3-8-4-7-4-4-5-4-6-2-6-1h-6l-7 1-7 3-6 2-14 8-12 10-5 6-8 10-2 6-3 4-1 11" style="clip-to-self:true;comp-op:src"/>
<path transform="scale(.1)" d="m3136.2 6469.7-2-5 1-5 3-5 14-14 5-3 5-4 5-2 6-3 6-2 5-1 6-1h5l5 2 5 1 4 4 5 4 3 6 2 6 2 9 2 8 1 10v20l-2 21-1 10-2 9-2 16-1 5-2 5v3l-1 3 2-10 3-5 2-8 6-16 3-10 8-20 4-11 5-12 5-11 5-12 12-22 5-10 5-9 6-7 4-6 4-3 3-1 3 1 4 6 1 5 2 7 1 8 2 10 1 9 2 11 2 24 2 12 3 12 1 12 3 12 3 11 3 10 5 8 5 7 5 6 5 4 7 2 8 1 8-1 9-2 9-3 9-4 10-5 11-7 10-7 11-8 10-9 18-20 8-10 8-12 7-11 7-12 10-24 4-12 2-11 2-10-1-8-2-7-3-4-5-3-7-1-7 1-9 2-20 8-10 7-22 16-10 10-11 10-9 11-16 20-12 20-4 9-3 8-1 7-1 6 1 5 2 4 3 2 4 1 5 1h6l6-2 8-2 18-8 18-10 10-6 10-7 18-12 8-6 8-5 6-4 15-5 4 1 4 5 1 4v6l1 7v18l-1 12v12 14l-1 14-1 16v17 19l-1 19v20l-1 20v20 19l-1 18v18l-1 16-1 15-1 13-2 12-1 10-2 9-3 8-3 7-4 6-4 4-5 4-10 4h-6l-12-2-5-3-6-4-5-4-5-5-5-7-4-6-3-7-3-8-1-9-1-8v-10l1-10 1-11 3-12 8-24 6-14 7-14 8-14 9-15 10-14 11-15 12-14 26-30 42-45 14-16 14-15 14-14 13-14 13-12 11-10 9-9 8-7 10-10 2-3v-3h-5l-5 1-5 2-6 2-7 3-24 12-8 5-7 5-6 4-10 10-2 4-2 5v5 4l4 10 3 5 5 6 5 5 5 6 18 18 10 12 4 6 3 6 2 5 1 6-2 10-3 5-3 4-5 5-5 3-6 3-12 4-16 2h-8l-23-2" style="clip-to-self:true;comp-op:src"/>
<path transform="scale(.1)" d="m3928.8 6269.4 3-15 2-4h3l1 3 1 5 1 6v9 11 14l-2 15-1 17-4 36-2 17-3 19-2 17-4 36-1 17-1 18-1 17 1 16v15l2 14 2 12 3 11 3 9 3 7 5 5 4 3 5 2 5 1 6-1 5-2 5-3 9-9 9-13" style="clip-to-self:true;comp-op:src"/>
<path transform="scale(.1)" d="m3897.8 6487.5v-4l2-6 2-2 4-2 5-3 6-3 7-3 8-5 9-3 8-5 10-4 9-4 10-3 9-3 20-6 10-1 9-1h8l7 1 7 2 5 4 4 4 3 6 2 6 1 8 1 9v10l-1 10-3 34-1 11-1 10 1 9v8l2 7 2 5 4 4 3 2 4 2h5l5-2 7-2 5-4 6-4 12-12 10-16 4-9 3-9 2-11 1-10 1-11-1-10-2-22-6-20-4-8-5-7-7-5-6-4-8-2-9-1-9 1-10 2-11 4-11 5-11 6-12 7-11 8-10 7-19 19" style="clip-to-self:true;comp-op:src"/>
<path transform="scale(.1)" d="m4449.1 6309.4-3-1h-4l2 1 4 1h10l6-1h8l8-1 22-2 12-1 14-1 13-1 15-1 14-1 15-1h13 12l11 1 10 1 8 1 6 3 5 3 3 3 2 5 1 5-2 14-4 9-4 8-6 10-7 10-18 20-10 11-11 10-12 11-12 10-12 11-13 11-13 10-12 10-13 11-13 10-13 9-24 18-12 8-11 8-10 8-10 7-9 7-7 7-8 6-6 5-4 5-4 4-2 4-2 3v3l3 5 4 1 4 2h6l8 1h9l11-1h12l14-2 16-2 17-2 18-3 19-3 42-6 21-2 42-6 20-3 18-1 16-2 15-2 13-1 10-1 9-1h8 10 5l-5 1-6 1h-12-5l-9-1-6-1-5-2-6-1-15-6" style="clip-to-self:true;comp-op:src"/>
<path transform="scale(.1)" d="m4659.1 6327.8-2-3h-4l-4 1-5 1-3 1-3 3-5 2-4 3-10 10-7 6-8 7-9 7-10 8-22 18-12 10-25 20-39 30-14 11-13 11-14 10-13 11-12 11-12 10-11 10-10 9-10 8-9 7-7 7-7 5-6 5-5 3-4 3-9 6" style="clip-to-self:true;comp-op:src"/>
<path transform="scale(.1)" d="m5018.4 6460 3-4 2-4 3-5 2-5 1-4 2-4v-4l-2-8-1-3-6-6-3-1-4-2-5-1-12 2-7 2-8 3-9 4-18 12-9 8-9 9-16 18-6 10-5 10-4 10-4 9-2 9-2 16 1 6 2 5 2 3 4 3 4 1h5l6-1 7-1 7-3 8-4 8-5 9-5 8-6 9-6 8-7 7-8 8-7 7-8 6-8 6-7 5-7 4-7 4-6 3-5 3-3 2-3 1 5-1 4v6l-1 7-1 8-2 9-1 10v10l-1 9v18l1 9v8l2 7 1 5 4 8 2 2 6 1 3-1 8-6 4-4 4-5 5-6 4-6 8-14 12-24 3-8 4-7 4-8 3-7 4-5 3-5 3-4 4-1 2 3v8 7l-1 7v7l-1 9v15l1 8 1 7v7l2 10 2 3 1 4 3 2 5-2 5-4 4-4 3-5 4-5 4-6 5-7 4-7 6-6 4-8 12-14 5-7 6-6 6-7 5-5 6-4 5-4 5-2 4-1h4l6 4 3 4 2 5 2 6 3 7 1 8 2 9 4 19 6 30 3 9 4 8 4 7 4 6 6 5 7 3 7 2h8l21-4" style="clip-to-self:true;comp-op:src"/>
<path transform="scale(.1)" d="m5484.1 6408.1-8-2-5-1h-7l-7 1-8 1-7 2-16 6-16 9-8 6-9 6-7 6-8 8-7 8-6 8-6 9-4 9-6 18-1 9v8l2 7 2 6 2 5 4 5 4 3 6 2 6 1h6 7l7-2 7-3 8-4 7-4 7-6 7-5 7-7 6-7 10-16 5-9 3-9 3-10 3-11 3-12 1-12 2-13 1-14 3-48 2-34 2-30v-11l1-9v-7l1-4-1 8-1 9-1 11-2 13-2 16-3 17-9 57-3 20-6 38-2 20-1 18v19l1 17 2 17 3 14 4 13 6 10 7 8 8 5 9 3h11l29-4" style="clip-to-self:true;comp-op:src"/>
<path transform="scale(.1)" d="m5943.4 6464.1 2-4 1-3 1-5 2-9v-7-4l-2-8-2-3-6-6-4-1-4-2h-5l-6 1-7 1-6 2-8 3-8 4-16 10-8 7-8 8-8 9-7 8-7 9-6 9-5 8-3 9-2 7-1 7v5l2 6 2 3 4 3 4 1 6 1 5-1 14-4 7-3 8-5 8-4 8-6 9-7 9-6 8-7 8-8 8-7 7-7 12-16 4-6 4-7 3-7 3-4 4-8v3l-2 10-1 7-4 18-2 11-3 12-2 13-4 28-2 15-1 15-2 15v16l-1 16 1 16v16l1 15 2 14 2 12 2 11 2 9 3 7 4 5 3 4 4 3 8 2h4l5-1 5-2 6-3 7-5 8-4 8-7 9-7 9-8 20-18 10-8 10-9 11-8 11-10 10-8 20-18 10-8 9-8 20-16" style="clip-to-self:true;comp-op:src"/>
<path transform="scale(.1)" d="m6372.5 6281.9v-3l1-6 1-7 1-9 1-7 1-5 1-4v-3l1 3v4l1 5v28l-1 13v15l-1 16v18l-2 18-2 36-2 18-1 17-2 18-4 32-1 15-1 14-1 11v11l-1 8v16l1 4 2-3 1-3 3-4 2-6 4-6 4-7 5-7 6-7 22-22 8-6 8-5 8-6 9-4 8-3 8-2 8-1h6l6 2 5 2 5 4 3 4 4 10 1 7-1 7-2 7-2 8-3 7-10 16-6 8-7 6-8 7-7 6-9 5-8 4-8 3-8 2-8 1h-7l-7-1-6-2-5-2-5-4-3-4-3-6-1-7v-7l2-8 12-23" style="clip-to-self:true;comp-op:src"/>
<path transform="scale(.1)" d="m6552.2 6506.6v3l1 3 5 1 6-2 4-2 5-3 4-4 5-4 6-5 16-16 10-12 5-7 8-10 2-5 1-4v-4l-4-1-4 1-5 2-6 4-14 10-8 6-8 8-7 9-8 9-14 20-7 11-5 11-5 10-3 10-3 9v8l4 12 5 4 5 3 7 2 8 2h10l10-2 12-2 12-3 11-4 13-5 29-13" style="clip-to-self:true;comp-op:src"/>
<path transform="scale(.1)" d="m6708.4 6574.7 4-5 2-2 6-8 4-5 24-24 7-8 7-7 6-8 7-9 6-9 5-10 6-10 5-10 10-22 4-12 5-13 3-14 4-15 3-15 2-17 3-16 1-16v-14-12l-1-10-2-6-2-5-4-2-4 1-4 3-5 5-5 8-6 10-7 12-6 15-12 34-6 18-7 17-10 36-6 34-1 16v14l2 14 2 11 4 10 5 8 6 7 8 5 7 3 9 2 10 1 10-1 10-2 11-3 10-4 11-5 10-6 9-6 8-7 8-8 7-8 5-7 4-7 3-7 3-6 1-4v-4l-4-3-6 1-4 4-5 3-4 5-5 6-4 6-4 7-3 8-2 7-4 16v8l4 14 2 6 4 5 6 5 6 2 7 2 8 2h8 8l10-2 9-2 9-3 9-4 8-5 7-5 6-7 5-6 4-7 3-7 2-7 1-7-1-6-2-5-4-5-10-6-8-2h-7l-9-1-9 1h-8l-9 2-8 1h-6l-6 2h-5l-3 1 2-3 4-3 5-3 14-7 7-4 9-5 8-4 10-4 18-9 9-3 9-4 8-3 16-4h7 5l5 1 4 2 3 3 3 4 1 4 1 6v8l-1 7v9l-2 8-1 9-4 18-2 18-2 7v8l-1 6v9l1 3 4 1 9-9 5-6 4-6 10-16 6-10 6-9 14-20 7-9 8-11 16-20 7-10 15-15 6-5 6-4 5-3h4l4 3 1 3 1 6-1 6-1 8-2 10-1 10-4 22v13 12 12l1 12 3 12 3 10 4 10 5 7 6 7 7 5 7 3 8 1h8l8-1 9-3 9-5 10-5 24-16" style="clip-to-self:true;comp-op:src"/>
<path transform="scale(.1)" d="m7345.6 6396.9-2-5-6-6-6-2h-6l-7 1-8 2-8 4-9 5-10 6-9 8-10 8-10 9-18 20-8 10-7 9-4 10-5 10-2 9-1 8v8l1 6 2 5 3 4 4 2 5 2 5-1 6-1 6-2 7-3 8-4 7-3 8-4 7-4 7-3 6-3 6-1 5-1 4-1 3 1 2 2 2 3 1 4 1 5 1 6v7 8 10l-1 10v52l1 16v18l1 18v19l1 19v16l1 16v28l-1 13-1 11-1 10-2 9-2 7-3 6-3 4-5 4-5 2-6 1-7 1-6-1-8-1-8-2-8-3-7-4-14-10-5-6-6-7-4-7-3-8-1-8v-9l1-10 3-11 4-10 5-12 6-13 7-14 9-14 22-32 12-15 13-17 14-17 15-17 15-18 32-37 16-17 15-17 15-16 15-14 14-13 13-12 11-10 10-8 7-7 6-5 4-4 2-3h-5l-4 1-6 3-7 3-7 5-8 4-8 5-8 6-7 6-8 6-12 12-5 6-4 6-3 7-1 6-1 5 1 6 1 5 2 5 6 9 4 5 4 4 8 9 4 5 3 4 3 5 2 5 1 5v5l-4 10-9 9-5 4-14 6-8 1h-8-9l-21-2" style="clip-to-self:true;comp-op:src"/>
<path transform="scale(.1)" d="m7736.2 6283.1 1-3v-6l1 3v11l-1 7v10l-1 12-1 13-1 14-2 16-1 17-3 17-1 18-2 17-1 18-1 19v18l2 18 4 34 4 15 5 13 5 12 7 10 6 8 8 6 8 4 8 2h8 9l9-2 7-3 8-5 7-4 15-14" style="clip-to-self:true;comp-op:src"/>
<path transform="scale(.1)" d="m7904.4 6443.1-2-2h-4l-4 2-4 5-2 3-6 8-3 6-4 6-3 7-4 8-4 9-3 9-4 11-3 10-4 20-1 9 1 8 2 8 2 6 3 5 4 5 4 4 5 2 5 3 6 1h6 5 6l6-1 5-2 6-2 5-2 5-3 8-8 9-15 3-6 1-6 2-14v-7l-2-16-4-16-12-32-3-7-4-6-4-5-4-4-4-2-5-1-6 1-6 2-6 3-6 5-14 12-7 8-20 18" style="clip-to-self:true;comp-op:src"/>
<path transform="scale(.1)" d="m7633.4 6473.1-1 3 2 2h4l8-2 5-2 6-2 6-3 16-6 9-3 20-8 11-4 12-4 11-4 10-3 9-3 8-3 7-3 5-3 10-7" style="clip-to-self:true;comp-op:src"/>
<path transform="scale(.1)" d="m8203.1 6269.4 1 5 1 4v6l1 7v8 10 11 25l-1 13v13 14 77 12l1 11v9l1 9 1 8v6l1 6 3 12v-3-4-3-5l-2-12-1-7-3-24-1-9-1-10-1-11v-11l-1-12v-23l1-12 2-22 1-10 2-9 1-6 3-7 2-4 2-3 4-3 3-1 4-1 5 1 6 2 6 3 6 5 8 5 7 7 7 8 8 9 8 10 8 11 9 12 26 39 8 14 9 14 9 15 27 42 8 13 10 13 8 12 8 10 9 10 14 14 7 5 5 4 6 4 4 2 4 1 3 1h5l2-4v-6l-1-4-1-6-2-5-1-6-2-8-2-7-4-18-4-20-2-12-2-11-2-13-1-13-4-28-2-30-1-17-2-36-1-19v-39l1-19 1-16v-15l1-11 1-9 1-7v-5-4l1-3 3 3 1 3 2 4 1 5 2 6 1 6 3 21v8l1 21" style="clip-to-self:true;comp-op:src"/>
<path transform="scale(.1)" d="m8278.1 6302.5v-2l-2-4 1 3 5 10 3 4 4 6 4 7 5 8 4 9 6 9 6 11 7 10 7 11 14 24 8 11 8 12 7 12 8 13 7 12 8 11 7 12 7 10 7 11 6 9 7 8 6 8 6 5 15 10" style="clip-to-self:true;comp-op:src"/>
<path transform="scale(.1)" d="m8635.6 6276.6-4-3-1-4 2-3 4-4 3-2 4-3 4-2 12-4 8-2 7-1 17-2 10-1 9-1h9l8 1h9l8 2 7 1 6 3 5 4 4 5 3 6 1 7v8l-2 10-4 11-4 12-7 13-7 14-9 13-20 26-11 12-10 11-11 11-20 18-18 16-8 8-7 6-10 12-4 5-2 5-2 4v3l2 3 1 3 4 3 4 2 5 3 6 2 6 1 7 1 32 4 9 1 7 1 6 1 6 2 5 1 4 2 2 3 1 5-1 4-3 4-4 4-4 5-6 5-6 6-7 6-14 14-7 8-12 14-6 6-4 6-3 6-2 5-1 5v5l2 4 3 4 4 4 5 4 12 8 8 5 7 4 8 6 7 5 8 6 6 5 7 6 5 6 8 12 2 6 1 6-1 5-1 6-3 6-3 5-5 5-21 15-9 4-10 3-10 4-10 3-10 2-10 3-22 4-10 2-22 2-12 1h-11l-27-2" style="clip-to-self:true;comp-op:src"/>
<path transform="scale(.1)" d="m991.25 5504.1v-21l4 4 1 5 1 6 1 8v11l1 13v32l-1 18v18l-1 19-1 20v19l-1 20v78l1 10v9l1 8v6l1 5v4 4l-2-3-2-4-1-3-1-5-2-5-2-7-1-6-2-7-2-8-3-30v-25l2-30 2-16 3-17 2-18 4-19 5-19 4-19 5-20 5-18 6-18 6-15 7-14 7-11 6-10 7-7 7-6 7-5 7-3 7-2 6-1h7l6 1 6 2 5 3 6 4 4 5 5 7 4 8 3 10 2 12 1 13 1 15-1 16-2 17-2 18-4 17-5 17-5 16-7 16-7 15-16 26-9 12-9 10-8 10-9 9-18 14-8 6-8 4-9 4-7 2-6 3-5 1-4 1h-4l-4-1 1-3 5-4 4-3 4-2 6-2 12-5 7-2 7-1h14l14 2 6 2 14 6 6 4 7 4 13 11 6 5 12 11 5 6 5 5 6 5 9 9 4 3 13 13 3 2 7 7" style="clip-to-self:true;comp-op:src"/>
<path transform="scale(.1)" d="m1335.3 5661.6-2-3-6-3-4-1-5-1h-5-5l-6 2-6 1-6 2-5 3-7 4-6 4-12 12-6 7-6 9-9 18-8 20-3 10-1 9-2 9-1 9v8l1 6 1 5 2 4 3 3 3 1 4 1 4-1 5-2 5-3 6-4 6-5 6-7 5-7 6-7 6-8 4-8 5-8 4-8 6-14 2-6 4-8 1 7v21l1 10v10l1 10 2 10 2 11 2 10 3 11 8 18 6 7 4 5 6 4 7 2h7l7-2 8-3 7-5 8-7 9-7 16-18 7-9 7-11 6-11 10-26 7-37" style="clip-to-self:true;comp-op:src"/>
<path transform="scale(.1)" d="m1455.3 5511.2v-4l-1-4v-5l-2-3-2 3-1 4-2 10-1 8-2 18-1 10-2 22-2 24-1 13v13l-1 14-2 30v16 16 17l1 16 2 17 2 14 2 13 7 21 4 8 5 6 5 4 5 3 6 1h6l6-2 6-4 7-5 6-6 7-8 6-8 4-9 5-10 8-26" style="clip-to-self:true;comp-op:src"/>
<path transform="scale(.1)" d="m1453.4 5686.9h-3l-5 1-3-1 3-3 3-2 8-6 12-8 7-4 8-5 9-5 20-10 10-4 10-5 10-3 9-4 9-2 7-2h7 6l6 1 4 3 3 4 3 6 2 6v8l1 9-1 9v12l-2 11-1 12-2 13-4 24-2 10-1 10-1 8v7 5l1 5 1 3 3 4 4-1 3-2 2-3 6-10 3-6 6-20" style="clip-to-self:true;comp-op:src"/>
<path transform="scale(.1)" d="m1625.9 5495.3-3-2-4-1-3 2-7 7-3 4-6 10-4 7-3 7-4 7-3 7-2 8-3 7-2 14v6 6l2 5 2 4 3 4 3 3 12 6h5 6l5-1 5-2 6-3 5-3 6-4 5-4 4-5 5-5 4-6 2-5 2-7 1-6v-7-6l-1-7-2-7-2-6-3-6-2-5-3-5-6-6-3-2h-3l-6 1-4 3-3 3-3 5-3 6-3 8-3 9-4 22-1 13-1 12v13l1 13 1 12 3 11 2 12 9 27" style="clip-to-self:true;comp-op:src"/>
<path transform="scale(.1)" d="m1850.6 5647.5-2-4-3-5-4-3-4-2-3-2h-5l-5-1-5 1h-5l-12 4-5 3-6 4-5 6-6 6-5 7-8 16-4 10-6 20v10l-1 11v9l1 10 3 8 3 7 3 5 4 5 5 4 5 2 6 1h6l7-1 6-2 7-4 7-5 8-5 7-7 12-14 5-7 4-8 4-9 2-8 1-9v-9-10l-1-9-1-8-3-8-2-7-4-7-3-5-4-4-5-2-5-1-5 1-6 2-6 3-6 4-6 6-5 6-6 7-4 7-4 8-3 8-2 9-1 7 1 7 2 6 4 6 3 4 11 10" style="clip-to-self:true;comp-op:src"/>
<path transform="scale(.1)" d="m1927.8 5721.2h-7l-3-1v-4l1-6 1-3 4-8 6-10 4-5 4-6 10-10 10-8 5-3 5-4 4-2 5-1 4-1h3 4l3 1 2 2 3 4 2 4 1 5 2 6v7l1 9v21l-1 10-1 11-1 10-1 9-1 10-2 8-1 7-2 12v4 3 5l1-4 1-3 1-4 3-5 2-5 2-6 3-7 3-8 4-8 5-9 4-9 5-11 6-10 6-12 8-12 7-12 18-20 8-9 8-6 7-5 6-4 4-1h4l4 5v4l1 6v7l-1 8-2 18-2 10-1 10-2 21-1 10-2 18v15l1 7 1 5 2 4 2 3 4 3 6-1 4-2 4-3 12-13" style="clip-to-self:true;comp-op:src"/>
<path transform="scale(.1)" d="m2261.2 5655.9 1-4v-3-3l-3-5-2-3-3-1-4-2h-8l-4 1-5 2-5 3-6 3-5 4-5 6-6 6-7 8-5 8-12 18-4 10-6 10-3 10-4 10-4 18-1 8v6l1 6 2 5 2 3 3 2 4 1h3l5-1 5-2 5-3 6-4 16-16 9-14 4-7 4-8 9-24 3-7 1-7 2-5 1-4 1-3v5l-1 5v20l1 8 2 7 1 8 3 7 3 8 3 6 4 7 4 6 5 5 4 5 6 4 5 3 10 2h6l6-1 5-2 6-3 5-4 6-4 5-6 6-6 4-7 11-21" style="clip-to-self:true;comp-op:src"/>
<path transform="scale(.1)" d="m2402.5 5518.8 1-5 2-9 2-12 2-15 2-12 1-9v-7-4l-1-3-3 3-4 8-2 7-4 9-3 10-7 27-3 15-4 16-6 34-2 18-3 17-4 34-2 34v17l1 17 1 16 2 14 2 13 3 12 4 9 4 7 6 6 5 4 6 2 7 1 7-1 7-2 8-3 7-5 7-6 16-15" style="clip-to-self:true;comp-op:src"/>
<path transform="scale(.1)" d="m2707.8 5545.6-2-4-1-3v4l1 3 1 4 1 5 2 12 2 8 1 9 1 10 2 10 2 12 1 12 1 13 1 14 1 15v16l2 32v15l1 15v13l1 12v11l1 9v8l1 6v9 3l-3-3-1-4-2-5-1-6-2-7-1-8-1-9-2-10-1-11v-12l-1-13v-29-15l4-30 2-14 3-13 4-12 4-11 8-16 4-6 5-4 4-3h5 5l4 1 6 3 5 5 6 5 12 16 5 8 6 10 5 10 10 22 10 24 8 26 4 12 4 13 3 13 3 11 4 10 2 9 4 8 2 6 5 10 3 3 2 3 5 1 3-2 4-6 4-10 2-7 1-8 2-8 3-9 1-10 2-12 6-27 3-15 3-16 5-17 4-19 5-19 5-20 6-21 12-38 5-15 5-14 4-10 4-7 2-5 2-3 2 4v5l-1 8-1 9-4 22-1 12-5 33" style="clip-to-self:true;comp-op:src"/>
<path transform="scale(.1)" d="m3011.6 5688.4v-4-4l-2-2-7 7-2 4-3 5-6 14-4 8-2 9-3 8-3 9-2 10-1 10-2 18v8l1 8 1 7 1 5 3 5 3 4 4 2 4 1h5l5-1 6-2 6-4 7-4 7-5 8-7 7-7 6-8 7-9 6-9 6-10 5-11 5-10 4-10 3-9 3-8 1-7 1-5v-4l-1-5-4 2-2 3-4 8-1 6-1 7-1 8-1 9v8 9l1 8 1 9 2 9 6 16 4 6 4 7 5 5 7 4 6 3 7 1h7l7-1 8-2 7-3 7-5 6-4 7-6 5-6 4-8 7-20" style="clip-to-self:true;comp-op:src"/>
<path transform="scale(.1)" d="m3191.6 5680.6h-4l-2 5v4l-1 4-1 6v6l-1 6-1 8v8l-1 9-4 32v8l-1 7v20l1 5v4 3l1 4 3-2 2-6 2-4 2-5 2-6 3-6 2-7 4-7 8-16 4-9 5-10 12-18 5-9 7-7 5-6 6-6 5-3 5-2 3-1 5 3v3l1 6v6 6 8l-1 8v8l-3 24-2 14-1 6v14l2 3h4l5-5 3-4 3-5 4-6 8-14 5-8 4-9 5-10 5-9 15-30 5-9 5-8 4-7 3-6 3-4 2-4 3-2 1 4-2 5-1 5-1 7-4 16-3 10-2 10-2 11-4 20-3 27 2 14 1 5 2 4 2 2 3 2 6-3 3-3 3-4 3-6 4-7 3-7 8-23" style="clip-to-self:true;comp-op:src"/>
<path transform="scale(.1)" d="m3417.8 5534.7-1-3-1 4 1 4v6l-1 6v8l-1 9v10l-1 11v12 26 13l1 14 3 45 4 30 2 14 2 13 2 12 3 11 2 9 2 8 3 6 1 5 1 4 2 4v-4l1-4v-34l1-10v-9l2-11 1-12 3-11 3-13 4-12 5-11 6-11 5-9 7-7 6-7 6-4 7-3 6-1h6l6 1 5 3 6 4 4 5 5 6 4 6 4 7 3 8 2 8 2 9 1 9-2 20-2 11-4 11-5 11-6 11-6 9-7 10-8 9-7 7-8 7-8 5-8 4-14 4h-5l-5-1-5-3-4-4-2-5-1-6v-7l3-21" style="clip-to-self:true;comp-op:src"/>
<path transform="scale(.1)" d="m3628.4 5739.4 3 2 6 1h7l10-1 6-2 5-2 13-5 6-3 7-4 6-5 6-4 6-5 11-11 4-6 3-5 2-6 2-5v-5-5l-2-4-2-5-2-3-3-4-3-2-4-1h-4l-4 1-6 2-6 3-6 5-7 6-6 6-5 9-6 9-10 20-3 11-4 11-2 22v11l1 10 1 9 4 9 3 7 4 7 5 5 6 3 7 2 7 1h7l8-1 8-2 8-3 24-15 7-7 6-7 5-7 4-8 9-21" style="clip-to-self:true;comp-op:src"/>
<path transform="scale(.1)" d="m3773.8 5633.8 4 4 2 3 2 2 3 4 4 3 3 5 4 4 8 10 4 7 4 6 3 6 3 8 4 8 4 20 2 11v11 11l-1 12-4 22-6 20-6 17-3 7-3 6-3 4-3 3-5 2-4-1-4-6-2-4-1-5-1-6v-8-8-8l1-9 1-10 2-10 6-22 4-12 5-13 6-14 6-13 6-14 8-13 9-12 9-11 9-9 10-8 9-7 9-6 10-4 7-3 8-1 6-1 7 1 6 1 4 2 5 3 4 3 4 5 5 10 3 5 1 6 2 6v5 16" style="clip-to-self:true;comp-op:src"/>
<path transform="scale(.1)" d="m4022.5 5729.1 4-9 3-5 2-7 4-12 2-7 1-6 1-5 1-6v-5l-2-10-2-4-5-5-8-2-4 1-5 1-5 2-4 4-6 4-5 5-5 6-4 7-5 6-8 16-3 8-2 8-1 8-1 7 1 8 1 7 3 7 2 6 5 5 4 6 6 5 5 5 6 4 7 6 7 4 12 10 11 11 4 6 3 6 3 5 1 6v5l-1 6-2 5-3 6-8 8-5 3-12 6-6 2-12 2-7-1h-6l-6-2-7-3-6-3-7-4-6-5-7-5-15-13" style="clip-to-self:true;comp-op:src"/>
<path transform="scale(.1)" d="m4979.1 5465.6-3-2-6-2h-3l-5 1-4 1-12 6-6 4-8 5-7 6-8 8-8 9-8 10-8 11-8 13-9 13-7 13-8 15-7 14-6 15-7 15-10 30-3 16-4 16-2 15-1 16v15l1 15 3 14 4 12 4 11 6 9 6 8 7 7 9 5 9 4 20 4h11l13-1 12-2 13-3 14-4 13-4 13-6 13-7 14-9 24-18 12-11 10-11 11-12 10-12 9-15 7-13 8-15 10-32 3-16 2-18 1-17v-19l-2-36-3-17-3-15-4-14-6-12-6-11-7-8-7-7-8-4-9-4-9-2h-10l-11 1-10 2-11 4-13 4-12 6-13 7-12 7-13 8-12 10-11 9-10 9-9 10-8 9-6 9-6 8-4 7-3 7-2 6-1 5 1 4 2 3 3 2 10 3" style="clip-to-self:true;comp-op:src"/>
<path transform="scale(.1)" d="m4975.6 5636.2v-3-3l3-2h5l3 1 6 4 5 3 3 5 4 6 4 7 5 9 4 10 4 12 5 13 4 13 4 14 5 14 4 14 5 15 11 26 6 13 5 12 12 22 5 8 6 8 5 5 5 4 5 3h4 3l3-2 5-9" style="clip-to-self:true;comp-op:src"/>
<path transform="scale(.1)" d="m4889.4 5555.3v-6l1 4v6 4l-1 6-1 7v8l-2 9-2 11-3 11-6 26-3 15-3 14-3 15-3 16-2 15-3 15-2 15-2 13-1 13-1 10v24" style="clip-to-self:true;comp-op:src"/>
<path transform="scale(.1)" d="m5072.8 5471.2v-3l1-6 1-4v-3l-2-3-2 4-1 5v4 4l-1 7v6 9 10l-1 11v52l1 15v14l3 42 1 15 1 14 2 14 1 14 1 23 4 25" style="clip-to-self:true;comp-op:src"/>
<path transform="scale(.1)" d="m464.38 5560.3 1-3 3-12v-3l1-4v-4l-1-3-2-2-4 1-4 6-3 5-4 6-3 7-6 9-4 10-7 11-16 24-10 14-11 14-12 14-12 15-13 15-14 15-15 16-32 32-18 16-38 30-21 14-20 13-18 12-18 11-16 10-15 9-11 8-11 6-8 5-7 4-5 2-2 1-2-2 1-4 1-6 10-17" style="clip-to-self:true;comp-op:src"/>
<path transform="scale(.1)" d="m168.12 5635.3-4-1h-5v4l6 4 3 3 6 3 6 4 7 5 8 5 10 6 9 7 10 7 9 8 20 16 9 8 11 8 10 8 22 16 13 7 11 6 12 6 12 5 12 4 11 4 11 3 9 3 9 2 7 2h7 5 5l3-1 5-2" style="clip-to-self:true;comp-op:src"/>
<path transform="scale(.1)" d="m275 5611.2-2-5-2-4-1-3-2-2-3-5-3-3-1-3-3-2v33 9l1 11v12l2 13 1 14v15 69l2 36 2 32 2 30 4 24 3 10 2 9 3 7 2 5 7 7" style="clip-to-self:true;comp-op:src"/>
<path transform="scale(.1)" d="m486.88 7440.9 1-5 1-3 1-4 1-3 1-4 1-3 2-4 1-3 2-4 3-9 1-5v-4l-1-3-11 11-4 5-5 7-6 7-14 18-8 10-9 11-20 24-11 13-12 13-26 28-12 14-26 26-12 13-13 12-22 22-11 10-20 18-8 8-9 7-6 7-7 7-4 5-5 6-2 4-2 3-1 3 5 2 12-3 3-2 10-7" style="clip-to-self:true;comp-op:src"/>
<path transform="scale(.1)" d="m208.44 7472.2-4-2-3-2h-3l-5-1 5 1 3 1 10 4 5 3 6 3 7 4 16 12 18 14 20 16 11 9 12 8 13 10 28 18 15 8 14 9 15 8 28 16 26 14 22 13 10 6 8 6 8 5 7 6 6 4 5 4 4 3 3 4 3 3" style="clip-to-self:true;comp-op:src"/>
<path transform="scale(.1)" d="m184.06 7610-6-1h-6l-7-1h-6l-5-1h-12l-4 1-4-1 4-2 4-1h5l5-2h8l9-1 24-4 14-2 15-2 16-2 17-3 19-3 18-3 20-3 21-4 21-3 21-4 40-6 18-4 17-3 16-3 15-3 12-2 12-3 22-4" style="clip-to-self:true;comp-op:src"/>
<path transform="scale(.1)" d="m979.38 7359.4-3 3-1 6v5l-1 6-1 7-1 9v9 11l-1 13v13 14 131 15l1 13v12 10 9 7 6 8l-1 5-2 2-4-2-4-4-2-4-3-4-6-10-3-6-3-7-2-8-3-8-2-10-3-11-1-12-2-14v-15-16-17l1-18 2-19 2-18 2-19 3-18 10-34 5-15 6-15 13-27 8-11 8-10 8-9 9-7 9-6 8-4 8-3 7-2 8-1 6 1 5 2 6 3 3 4 4 6 3 8 1 9 1 11-1 14-2 15-2 16-10 34-5 19-7 17-8 18-16 34-9 15-9 14-10 12-10 11-10 10-10 9-10 7-10 6-8 5-7 4-15 5-4-3v-4l2-3 2-4 8-8 5-4 6-4 6-2 7-4 7-1 8-2 7-1h8l8 1 8 2 7 2 9 3 7 4 14 10 8 6 7 6 6 7 6 6 18 21 10 12 4 6 9 9 4 5 12 9 3 1 5 2 7-4" style="clip-to-self:true;comp-op:src"/>
<path transform="scale(.1)" d="m1157.8 7605.6-2 4v3l2 5 4 4 9 3h4l4-1 10-2 7-2 6-2 7-3 8-4 16-10 16-12 16-14 13-13 5-7 4-7 3-7 1-6 1-7-1-5-2-5-3-5-4-3-4-2-5-2-6 1-5 1-7 4-6 3-7 6-6 7-7 7-7 9-7 10-6 10-6 12-10 24-3 11-2 12v12 10l3 10 3 9 5 8 6 7 7 5 7 4 9 1h9l10-1 11-3 12-5 13-6 36-20" style="clip-to-self:true;comp-op:src"/>
<path transform="scale(.1)" d="m1448.8 7505.9-3 1-4 1-5 3-6 3-8 5-8 6-8 7-18 16-18 18-19 18-8 10-8 9-6 9-6 10-3 9-3 8-1 9v7l4 14 3 5 5 5 4 3 6 2 6 1 6-1 7-1 7-3 8-3 7-5 8-5 14-14 6-7 7-8 10-14 4-6 3-7 3-5 1-4 1-3 1-4-3 2-2 5-1 6-1 4v6 6 6l1 6 4 12 4 4 3 5 4 3 5 3 5 1h5l6-1 6-2 7-3 7-5 13-13 7-8 5-8 6-10 5-10 4-11 3-11 4-26 1-14 1-16 1-17v-17l2-38 4-84 2-18 2-16v-13l1-9v-6-4l-4 3-2 5-5 18-2 12-3 15-2 16-2 17-2 18-2 20-1 20-3 41v22l-1 21v20 20l1 19 1 17 2 15 3 14 3 12 4 11 5 8 5 7 5 4 7 2h6l7-1 7-4 9-5 21-17" style="clip-to-self:true;comp-op:src"/>
<path transform="scale(.1)" d="m2000.3 7451.9v-4-6l-1-4-1 4v5l-1 5-1 6-2 18v11l-1 12-1 13-1 14-1 15-2 32-2 34-2 17-1 17-1 16-1 15-2 15-1 12v12l-1 10-1 9v18l1-5 1-4 1-6 1-7 1-8v-9l1-9 1-10v-10l1-10v-11-12l1-11v-14l1-13 1-14v-15l1-15 1-16 3-30 2-14 3-12 2-11 5-15 2-5 1-4 2-3 3 3 2 5 2 3 2 4 3 10 6 12 6 14 4 7 5 9 4 9 6 10 6 11 5 12 13 26 6 14 6 13 5 13 6 13 5 12 6 10 4 10 5 8 3 8 5 7 2 4 3 4 2 3 3 3 3-2 1-7v-10-6-8-8l-1-9v-10l-2-24v-15-31-18l1-18 1-19 1-20 3-19 2-18 3-16 3-14 3-11 2-9 3-7 2-5 2-3 4-3h4l3 5 4 8 1 5 2 12v6 21" style="clip-to-self:true;comp-op:src"/>
<path transform="scale(.1)" d="m2291.2 7587.5v-16-5-8l-1-3v-4l-4 2-4 6-1 5-2 6-2 7-2 8-4 18-2 10-2 22v10 11 10l1 10 1 9 2 8 2 7 3 6 6 6 3 2h4l4-1 5-2 4-3 5-3 5-5 6-5 15-18 4-8 5-7 3-8 4-9 3-9 2-9 3-10 4-22 2-10 2-11 2-9 1-8 1-5 1-4v5l-1 6v7l-1 8v9 10l-2 20v11l-1 10v10l3 27 4 14 2 5 3 5 6 6 6 2 4 1h6l3-1 4-2 3-1 3-2 3-3 6-8" style="clip-to-self:true;comp-op:src"/>
<path transform="scale(.1)" d="m2465.9 7592.8 2-3 3 3-1 6v4 5l-1 5-1 7-2 16-2 17-2 19v9l-1 8v9 14 6 5l1 4v4l3-3 1-3 1-4 3-10 4-13 2-7 3-8 2-8 9-27 3-10 4-9 3-10 4-8 4-7 4-6 3-3 4-2h5l2 3 3 8 3 21v8l2 16v8l1 8v7l1 7v22-4l2-3v-4l6-18 3-7 2-8 8-16 4-9 4-8 10-17 5-9 4-7 5-7 4-6 5-3 4-3h5l2 3 2 4 1 6 2 7v8l1 9v11 11l-1 12v12l-2 25-1 12v13l-1 12 1 12v11l1 9 1 7 2 4 3 3 5-5 3-6 3-8 10-25" style="clip-to-self:true;comp-op:src"/>
<path transform="scale(.1)" d="m2714.1 7444.1-2 5v3l-1 4v5l-1 6v6l-1 7-1 8-2 8-2 18v10l-1 10v33l2 24v12l2 22 1 10 1 9 2 8 1 7 1 6 1 5 1 4 3 4 3-3 1-3 3-4 2-5 3-6 4-6 8-14 6-7 6-8 7-8 7-6 8-7 8-6 8-4 14-6 7-1h6l10 4 7 7 2 6 2 7 2 14-1 8-4 18-4 8-4 9-6 9-7 9-7 8-8 8-8 7-9 6-18 10-8 3-9 2-8 1h-7l-6-1-6-2-4-4-3-5-1-6v-7l2-7 3-8 5-10 5-9 7-11 22-28" style="clip-to-self:true;comp-op:src"/>
<path transform="scale(.1)" d="m2890.3 7598.4 2 8v5 5l1 5v5l1 5v5l2 8v3l3 5 3 3 5 2 6-1 3-1 4-1 4-2 5-3 4-3 9-9 4-6 4-5 6-12 2-6 2-7 1-6v-7l-2-14-2-6-5-10-3-4-3-2h-4-3l-4 3-3 4-4 5-4 7-4 8-3 10-3 11-2 11-4 24v12 12 12 11l4 20 3 9 3 7 2 7 4 4 4 3h4 5l10-6 12-12 6-7 6-9 7-9 6-10 7-10 5-11 6-10 6-11 5-12 12-24 12-23 6-11 5-9 6-7 9-9 4-2 4-1 2 2 5 6 1 5 1 7 1 8v9l1 10v11 11 11 12 11 11l-1 11v10l-1 10v8 7l-1 5v4l-1 4-3-2-1-3-1-5v-6l-1-7v-16l1-10v-10l2-10 1-11 3-12 2-12 3-14 4-13 8-28 5-11 6-11 5-9 6-7 5-5 6-2 5-1h5l5 2 4 3 5 4 4 4 10 15" style="clip-to-self:true;comp-op:src"/>
<path transform="scale(.1)" d="m3272.2 7585 3-3 3-4 3-5 4-11 2-6 1-5v-6-6l-2-11-2-5-2-4-6-6-3-1-4-1h-4l-4 1-5 2-5 3-6 4-6 5-6 6-6 8-7 8-10 18-3 9-2 9-1 9 1 9 2 7 3 8 4 7 5 6 6 6 7 6 7 4 9 5 9 4 10 3 9 3 20 6 9 3 9 2 8 3 12 6 3 3 2 4 1 3-1 4-2 4-5 3-5 5-7 3-8 4-8 3-9 3-8 2-9 2-8 1-8-1-8-2-6-2-6-4-5-4-8-15" style="clip-to-self:true;comp-op:src"/>
<path transform="scale(.1)" d="m4475.9 7362.2-1-4v-4l-1-4v-3l1 4v5 6 8 10l-1 12-1 14-1 15-2 16-2 17-1 18-2 18-3 19-1 20-4 41-2 19-1 19-2 18v15l-1 14v13 66l-1 5-1 3-2-3v-5-3l-1-4 1-11" style="clip-to-self:true;comp-op:src"/>
<path transform="scale(.1)" d="m4535 7377.2v-12 4 7 5l-1 7v9l-1 11-1 12-1 14-3 30-2 16-2 17-2 16-1 16-2 17-1 16-3 16-2 14-1 15-2 13-1 12-2 20-1 9v19l1 5v4 3l1 4v-4l-1-5v-4l-2-9" style="clip-to-self:true;comp-op:src"/>
<path transform="scale(.1)" d="m4444.4 7455.9-3-1-3-2-3-1-4-3-3-2-6-9v-4-5l1-4 2-5 3-6 4-6 10-14 7-8 8-7 9-7 9-6 9-7 11-6 11-5 12-4 11-4 12-3 13-2 12-2h13 12l11 2 10 3 9 4 8 6 5 8 5 9 3 10 3 11v12 13l-3 12-3 13-5 12-6 12-7 12-8 10-10 11-10 10-11 9-12 9-12 8-12 7-13 7-12 6-24 10-11 3-11 4-9 3-9 1-7 2h-6-4l-4-1-4-2v-3l3-4 3-1 3-2 4-1 9-3 6-1h6 6l12 2 12 4 6 4 5 3 5 5 6 4 6 6 5 6 26 26 8 7 8 8 8 7 9 7 8 7 9 7 8 6 9 7 8 6 9 5 16 11 8 5 8 4 7 4 18 9 6 2 4 2h4l4 2" style="clip-to-self:true;comp-op:src"/>
<path transform="scale(.1)" d="m1036.9 8331.9 85 50-85-50 85-49-85 49 6898 28-85-49 85 49-86 49" style="clip-to-self:true;comp-op:src"/>
<path transform="scale(.1)" d="m4533.8 8284.4v-2l2 5-1 4v5l-1 6-1 7-2 9-2 10-1 10-2 10-4 22-1 20-1 11v18l1 8 1 5 1 6 6 7" style="clip-to-self:true;comp-op:src"/>
<path transform="scale(.1)" d="m4521.2 8602.8v-4l-2-4-2-3-6-2h-4l-5 3-3 3-3 2-3 4-4 4-14 28-4 9-4 10-3 11-4 11-2 11-3 11-1 11v10 10l2 16 2 8 3 6 3 5 4 4 4 3 6 3 5 2 6 2h6 7l6-1 12-4 6-3 5-3 5-4 4-4 5-4 3-6 4-6 3-6 2-6 2-14v-8l-1-9-2-8-2-9-2-10-4-10-3-10-4-11-3-10-5-9-4-8-4-7-5-6-5-4-4-3-4-1-5-1-4 2-6 2-5 4-7 5-7 7-8 7-22 21" style="clip-to-self:true;comp-op:src"/>
<path transform="scale(.1)" d="m5591.2 8324.7v-5l1-3-1-5v-3l-1-3v12l-1 7-1 8-1 9-2 11-1 13-2 13v14l-2 30-1 17v16 16l-1 15v36l2 20" style="clip-to-self:true;comp-op:src"/>
<path transform="scale(.1)" d="m5635.6 8694.1-1-3v-6l-1-4-2 4-1 3-2 4-1 5v5l-2 14-1 8v31 7 8l-1 8-1 18" style="clip-to-self:true;comp-op:src"/>
<path transform="scale(.1)" d="m6502.5 8296.9 2-6-1-3-2 8-1 5-1 6-1 7-2 9-2 10-1 11-2 24-1 14v14l-1 15v15 15l-1 15-1 14-4 32" style="clip-to-self:true;comp-op:src"/>
<path transform="scale(.1)" d="m6489.7 8721.6-2-5v-3l4-4 3-2 12-6 10-4 5-3 20-4h4 4l3 1 3 3 1 5-1 3-4 8-3 5-8 10-10 12-5 5-5 6-5 5-12 15-7 9-3 3-2 4-1 3v4 3l3 5 3 1 4 1 6 1h14l8-1h9l40-4h9l9-2h8l7-1 6-1 8 1" style="clip-to-self:true;comp-op:src"/>
<path transform="scale(.1)" d="m3573.1 8331.2v-3l-1-3-1-4h4l6 6 5 10 1 4 2 12 1 9v36l-1 17-1 18-1 20-2 19-2 20-5 45" style="clip-to-self:true;comp-op:src"/>
<path transform="scale(.1)" d="m3341.9 8750.6h-4-4l3 3h4 4 4l5-1 6-1h7l7-1 8-1 18-3 10-2 10-1 27-6 7-2 18-3" style="clip-to-self:true;comp-op:src"/>
<path transform="scale(.1)" d="m3582.8 8723.8 2-7v-4-3l2 2 1 7v6l-1 7-1 9-1 11-2 11-2 14-1 15-2 31v15 14 13l1 12 2 10 3 9 3 6 4 6 12 2" style="clip-to-self:true;comp-op:src"/>
<path transform="scale(.1)" d="m2417.8 8246.6-2-4-1-4-1-3 1 3v3 10 7l-1 8-2 20v11 11l-1 11v13l2 25 2 13 3 13 2 13 4 13 3 13 4 13 3 13 3 12 4 25" style="clip-to-self:true;comp-op:src"/>
<path transform="scale(.1)" d="m2212.8 8766.9-4-1 3 2h10l4-1 5-1 6-1 6-2 7-1 17-3 8-1 18-5 9-2 10-3 24-7" style="clip-to-self:true;comp-op:src"/>
<path transform="scale(.1)" d="m2365.6 8814.1-4-1 4-3 5-4 10-4 6-3 8-3 18-6 22-6 20-4 10-1 9-1h8l8 1 6 1 5 2 5 4 3 4 3 5 2 5 1 6v7l-1 8-1 7-2 9-4 8-4 9-5 9-7 9-6 8-16 18-8 8-9 7-8 8-9 7-8 8-9 7-8 6-8 7-7 6-6 5-5 5-4 5-2 3-2 4-1 3 1 4 4 1h4 5l6-2 7-2 8-3 9-3 20-6 22-8 21-7 20-6 9-3 8-1 6-1h6 4l-7 8" style="clip-to-self:true;comp-op:src"/>
<path transform="scale(.1)" d="m5781.2 7349.7 3-4 2-3 4-8 1-3v-3-4l-2-5-4-4-6-4-8-3-6-1h-12l-7 1-8 1-8 2-8 3-10 3-10 4-20 10-18 12-9 7-6 7-6 6-4 6-3 6-2 6v6l1 6 3 6 3 5 5 5 6 4 6 5 9 3 9 4 9 3 22 6 11 2 10 3 10 2 9 3 8 3 6 4 5 4 4 5 2 5v6l-1 5-3 6-4 7-4 6-12 12-8 7-7 6-8 5-9 6-16 10-8 4-7 5-6 3-5 4-4 3-2 2-1 5 5 3 4 1 6 1h6 7l8 1 18 2h8l9 1 8 1 7 2 6 3 4 3 3 4 2 5v5l-1 5-2 6-3 7-10 14-6 7-15 13-8 8-9 7-8 7-9 7-9 6-8 5-7 6-7 4-5 6-5 4-3 4-2 4-1 3v4 3l4 6 4 2 3 3 6 2 5 1 7 2 7 1 16 2h9 17 9l8-1h9l8-2 14-2 12-2 4-2 3-2 3-4" style="clip-to-self:true;comp-op:src"/>
<path transform="scale(.1)" d="m5934.7 7521.9-1-4v-6l1-4 2-4 6-6 10-6 7-2 7-3 14-4 7-1 8-1h7l7 1 6 1 6 3 5 3 4 3 3 5 1 5 1 7-1 7-4 16-3 9-15 27-6 9-5 8-6 7-5 6-6 5-5 5-8 6-3 3-5 2 2-4 2-3 4-4 5-4 11-11 7-6 8-7 18-16 20-17 11-9 21-18 9-9 10-9 8-8 7-6 6-7 8-8 1-3-2-1-8 4-4 4-6 4-6 6-7 5-7 7-8 6-7 7-12 16-12 24-2 8-1 8 1 8 1 7 6 12 4 5 5 5 6 3 8 3 7 2 10 1 9 1 9-1 20-2 10-2 9-2 8-4 7-3 6-4 15-12" style="clip-to-self:true;comp-op:src"/>
<path transform="scale(.1)" d="m6356.2 7389.1v-4l1-4 1-5 2-6 3-5 4-5 5-5 6-5 21-15 9-4 8-4 9-4 8-3 9-3 9-2 8-2 8-1h7l12 2 4 2 3 3 2 4v5l-1 6-2 8-5 8-5 10-6 9-8 10-7 10-8 10-9 10-9 9-8 9-8 8-8 7-7 7-5 6-4 5-2 5-1 4v3l1 3 3 3 4 2 5 2 6 1 6 2 7 1 8 1 7 1 8 1 7 1 7 2 7 1 6 2 6 3 3 2 4 3 2 4v2 4l-2 4-6 8-4 4-15 12-5 3-5 5-4 3-4 5-3 4-2 3-1 4v3 3l3 5 3 2 3 3 4 2 5 2 10 5 6 2 6 3 5 2 6 3 5 2 5 3 5 4 4 4 4 8 1 5v5l-1 5-3 7-2 5-5 6-4 6-6 6-5 6-7 6-14 10-8 5-16 8-9 3-8 4-9 3-9 2-10 3-9 2-10 2-20 2h-10-23" style="clip-to-self:true;comp-op:src"/>
</g>
<path transform="scale(.1)" d="m6060 7717.2v-4l1-5v-4l1-3 2 2 1 4v8l-1 6v6l-1 7-1 8-1 9-2 8-4 17-4 16-3 8-2 8-3 7-8 14-10 12-11 11-6 4-7 5-7 4-8 3-8 4-18 6-10 4-22 6-12 3-14 3-13 3-14 2-15 3-15 2-16 3-17 2-34 3-19 3-19 1-19 2-40 4-20 1-19 1-20 1-57 3h-19l-18 1h-19-52-17-16l-16-1h-15-15l-28-2-12-1-12-2-12-1-10-1-11-1-9-1h-8l-8-1h-7l-12-2-5-1h-5-5-4l-4 1h-4l-3 1-4 1-3 3-4 2-3 3-4 5-3 4-4 5-4 6-3 6-5 7-4 7-4 8-3 9-4 9-4 10-3 9-6 20-2 11-3 10-3 33v12l-1 10v11l1 10v10l1 10v9l1 8v7 21 6l-1 6v5l-2 10-1 4v4l-2 6-2 8h-3l2-3 4-5" stroke="#ff0" stroke-width="14.1" style="clip-to-self:true;comp-op:src"/>
<path transform="scale(.1)" d="m5080 8204.4-2-2-2-4-2-3-1-3 3-2 4 2 6 2 2 1 4 3 3 2 8 6 4 4 4 3 3 5 8 8 5 4 3 5 4 4 6 10 3 4 3 5 2 4 4 6 1 3 2 5 2 4v3l-2-4v-5l1-2v-4l2-6 2-4 2-5 2-4 4-5 3-5 3-6 5-5 4-7 10-12 6-6 5-6 12-11 14-11" stroke="#ff0" stroke-width="14.1" style="clip-to-self:true;comp-op:src"/>
</g>
</g>
</svg>
