<?xml version="1.0" encoding="UTF-8"?>
<svg width="1e3pt" height="800pt" version="1.2" viewBox="0 0 1e3 800" xmlns="http://www.w3.org/2000/svg">
<g id="surface105">
<rect width="1e3" height="800" fill="#20282d"/>
<g fill="none" stroke-linecap="round" stroke-linejoin="round" stroke-miterlimit="10">
<g stroke="#fff">
<g stroke-width="14.1">
<path transform="scale(.1)" d="m3858.4 402.81v-5-5l-2-8-2-6-2 4v4l-1 5-1 7-1 9-1 11-2 13-2 14-2 16-1 17-4 38-1 20-2 20-2 40-1 19v17 31 14l1 11v11l2 9 1 8 2 7 2 6 2 4 1 4 4 3 3-4v-3l1-11" style="clip-to-self:true;comp-op:src"/>
<path transform="scale(.1)" d="m4038.8 654.69-1-4-3-3-4-2-6-1h-3-3l-8 2-5 2-4 3-12 8-6 5-6 7-6 6-18 24-5 9-5 8-5 9-3 9-3 8-2 7-1 8v6l1 6 2 5 3 4 2 3 4 3 10 2h5l6-1h6l7-2 12-4 7-4 7-3 6-4 5-4 7-6 5-5 6-5 5-6 5-7 5-6 10-16 4-8 4-9 5-9 4-10 4-11 4-12 3-13 8-28 3-16 5-33 3-16 3-17 2-16 3-15 3-14 3-12 2-10 3-7 1-5 3-4 1 3v9l-1 8-1 9-1 10-1 13-1 14-1 15-2 17-2 18-1 19-3 36-1 18v17 15 14l1 13 1 10 3 10 2 8 4 6 4 5 4 4 5 1 6 2 12-2 6-2 7-3 5-4 13-11" style="clip-to-self:true;comp-op:src"/>
<path transform="scale(.1)" d="m4194.4 702.19 1 5v2l2 3 4 2h5l8-2 4-2 6-2 5-2 5-3 6-3 6-4 10-8 5-5 8-10 3-5 4-6 2-5 1-6 1-5v-5l-1-5-1-4-2-4-3-3-3-2-4-1h-4l-5 2-6 3-6 4-6 5-5 6-6 7-6 8-6 9-5 9-5 10-8 20-3 10-3 9-1 10-1 9v8l2 7 2 6 4 5 5 3 6 4 6 1h7 8l8-1 9-2 9-4 9-3 10-6 9-5 9-6 9-7 9-8 7-7 14-18 12-20 5-10 5-12 4-11 4-10 3-10 3-7 2-7 1-4-2 8-1 5-4 16-2 18-2 10-2 9v9l-1 10-2 17-1 8v8 14 5l1 5 1 3 2 4h4l5-4 6-6 6-10 3-6 6-14 3-8 4-8 3-9 4-8 4-9 4-8 5-8 4-7 4-5 5-5 6-4 6 2 2 3 2 4 1 5 2 14 1 8v8l1 9v8l1 9 2 17 2 7 1 8 2 7 4 10 2 4 5 2 5-2 6-4 8-10 5-6 4-6 5-7 4-7 5-8 11-18 6-10 5-11 6-10 7-11 6-9 6-8 6-6 5-4 4-3 5-1 2 1 3 3 2 4 1 6v8l1 8v20 10l3 30 2 9 3 10 2 8 3 8 3 7 4 7 5 5 5 4 5 3 5 1 5-1 14-4" style="clip-to-self:true;comp-op:src"/>
<path transform="scale(.1)" d="m4749.7 626.56v10 5 95l1 14v28l-1 15v15 14l-1 14v13l-1 12v12l-2 18v8l-1 5-2 8-3 3h-4l-4-4-3-4-6-10-4-7-6-16-8-24" style="clip-to-self:true;comp-op:src"/>
<path transform="scale(.1)" d="m4701.2 714.69 1-3 3-6 4-9 5-11 6-12 6-10 6-9 7-8 7-7 8-6 7-4 8-4 9-4 8-2 16-2 16 2 7 2 6 3 6 4 4 5 3 6 1 8v8l-1 9-3 9-4 11-7 11-6 10-8 11-9 10-9 11-9 9-10 9-8 8-8 6-6 6-6 3-5 3-3 1 2-4 8-8 16-15" style="clip-to-self:true;comp-op:src"/>
<path transform="scale(.1)" d="m4903.4 686.56-2 4-6 8-4 4-12 15-3 6-4 6-3 5-2 7-3 5-2 5-1 6v4 5l1 4 1 3 2 3 8 2h5 7l7-1 7-2 9-4 8-3 8-4 8-5 7-5 7-6 12-12 4-8 4-7 3-7 2-8 1-8v-7l-1-8-4-12-8-8-10-6-5-1-6-1h-5l-5 1h-4l-3 1-4 3 3 2h8" style="clip-to-self:true;comp-op:src"/>
<path transform="scale(.1)" d="m5074.7 505.62v-5l-1-5-2-3-1 4v5l-1 5v5 6l-1 9v9 12l-1 12v15l-1 15-1 16v16l-1 17-2 16-1 17-1 16-2 28v13 13 10l2 16 2 5 1 4 2 3h4l9-11" style="clip-to-self:true;comp-op:src"/>
<path transform="scale(.1)" d="m5007.2 642.19-4-1v-4l5-4 4-3 6-2 14-7 18-6 11-3 11-2 36-9 20-6 22-3" style="clip-to-self:true;comp-op:src"/>
<path transform="scale(.1)" d="m5161.6 738.75 2-1 4-1 4-2 10-4 6-3 6-4 14-8 6-4 14-10 5-5 5-6 4-5 4-6 2-5 2-10v-4l-4-6-3-1h-4l-4 1-6 1-6 3-5 4-12 10-5 6-10 14-4 8-3 7-6 16-1 8-1 7v7l1 6 1 7 3 5 3 4 4 3 5 2 5 1h6l6-1 7-1 6-3 7-3 7-4 7-5 14-12 7-7 7-6 7-8 6-8 12-14 5-7 4-5 3-5 2-3 3-3v4 4l-1 4-1 5-1 6-2 6-1 8-1 6-3 21v7l1 7v5l2 5 1 4 6 4 3 1 4-1 4-2 5-2 5-3 6-4 5-4 12-12 6-7 5-7 7-7 6-8 7-8 12-17 7-7 5-7 5-5 5-4 5-3 3-1 5 1 5 10v5l1 7v7 7 8l2 18 1 8 2 10 3 8 3 9 3 8 5 7 4 7 5 5 6 4 5 2h6l13-3" style="clip-to-self:true;comp-op:src"/>
<path transform="scale(.1)" d="m5590.6 477.5 1-6 2-4 1-6 1-3-4 9-1 5-2 6-1 8-3 8-2 9-1 9-2 11-1 12-2 12-2 13-2 28-1 15v15l-1 15v14l1 15 1 14 1 12 3 12 3 10 3 9 5 8 4 6 6 5 5 4 6 2 7 1h6 6l12-4 10-8 4-5 6-14" style="clip-to-self:true;comp-op:src"/>
<path transform="scale(.1)" d="m5511.6 639.06-3 1-5 1 3-3 4-1 5-3 6-2 8-4 9-3 10-4 11-3 12-4 12-3 14-4 13-5 26-8 11-5 22-11" style="clip-to-self:true;comp-op:src"/>
<path transform="scale(.1)" d="m5950.3 512.19 1-5 1-4v-5l2-8 1-3-1 3v4l-2 5-1 6-1 7-2 9-2 11-1 11-2 13-1 14-1 15-1 17-1 16-1 18v34l1 16v16l2 15 1 13 2 12 2 10 3 9 4 8 4 6 4 3 5 4 12 2h6l16-2 9-2 9-3 10-2 20-6 10-1 9-3 18-4 8-1 8-2 7-1 12-4 10-2" style="clip-to-self:true;comp-op:src"/>
<path transform="scale(.1)" d="m6281.6 635-2-3-1-4-4-8-3-3-3-4-2-2-4-2-9-3h-5l-12 2-7 3-7 4-8 5-7 6-9 7-8 9-8 10-7 10-7 11-6 11-5 11-4 10-4 11-2 9v9 9l1 8 2 7 4 6 4 5 5 3 6 3 7 1h7l8-1 9-2 9-3 8-3 9-5 8-5 7-6 7-7 6-7 5-7 5-8 3-8 2-8 4-18 1-9v-15l-1-5-1-4-2-2h-4l-2 2-6 10-2 8-3 8-3 9-2 11-2 10-1 11-1 10v10l1 10 1 9 2 9 2 7 4 7 3 5 5 5 5 3 6 2 6 1 14-2 14-8 7-5 16-16" style="clip-to-self:true;comp-op:src"/>
<path transform="scale(.1)" d="m6385.6 659.38 2-4 1-3-1 3-2 4-2 5-2 6-3 7-2 7-9 24-3 9-2 9-3 24v8l1 6 1 5 4 8 3 2 3 1h4l8-2 4-2 4-4 5-4 8-10 4-6 3-6 8-14 5-14 6-14 2-5 3-6 2-3 1-3 3-2 2 10-1 5v31l3 24 2 8 2 7 3 7 4 5 5 5 5 4 5 2 7 2h7l8-1 7-2 8-4 9-3 7-5 8-6 7-6 6-7 12-16 3-8 3-9 3-10 1-11 2-11 1-13v-25l-1-13-1-12-1-10-2-8-3-7-3-5-3-3-3-2h-4l-3 1-4 3-3 5-3 6-3 7-2 9-2 8-2 9-1 9-1 19" style="clip-to-self:true;comp-op:src"/>
</g>
<path d="m382.97 92.969 77.094-3.6562" stroke-width="1.41" style="clip-to-self:true;comp-op:src"/>
<path d="m479.44 90.562h180.19" stroke-width="1.41" style="clip-to-self:true;comp-op:src"/>
<g stroke-width="14.1">
<path transform="scale(.1)" d="m4491.9 1319.1v-4-5l-1-4 1-5 2-4 1-4 2 5-1 4-1 7-2 8-1 10-3 11-3 14-3 16-4 19-5 22-5 24-4 26-10 52-4 25-3 24-4 23-2 22-2 20-2 18-2 17-1 15-1 14v12l-1 11v31 5 7l-1 3-4-1-3-5-1-3-2-8-1-6-2-6-1-7v-7-8-9-10l1-10 2-12 1-14 2-14 2-15 2-17 6-36 3-20 8-42 5-23 6-23 6-22 7-22 7-20 7-18 8-15 13-26 8-11 7-9 8-7 7-7 16-10 8-4 8-3 8-1 7-1h8l7 2 6 2 6 3 9 9 3 7 2 7 1 8v9l-1 10-2 11-3 11-8 22-6 12-10 22-6 10-6 9-6 8-13 13-12 8-6 3-6 2h-5l-5 1h-5l-5-1-4-1-5-1-4-3-3-3-2-3-3-4-1-5-2-15" style="clip-to-self:true;comp-op:src"/>
<path transform="scale(.1)" d="m5026.2 1307.8 3-1 4-2 4-3 2-2v-3l-4-2-8-2h-19l-6 1h-6l-7 1h-8l-8 1-7 1-24 3-7 1-16 2-28 8-6 2-6 3-5 2-4 3-4 2-3 2-2 4 1 5 4 4 8 4 5 2 7 2 6 2 7 2 9 2 8 1 9 2 20 4 9 2 10 1 10 3 9 2 9 3 8 3 7 4 6 3 5 3 6 8 1 3 1 4v3l-2 6-2 3-3 2-3 3-8 4-5 2-5 1-18 3h-6-7l-7 1-7-1h-8-7l-9-1h-8l-9-1h-8-9-9l-8-1h-9l-8-1h-8-7l-7-1h-5l-6-1h-11 3l7-1 4-1 14-5" style="clip-to-self:true;comp-op:src"/>
<path transform="scale(.1)" d="m4928.8 1216.6v-18-3l1-4v4 4 4 5l-1 6v7 8l-1 10v11l-1 13-2 13-1 14-2 15-1 16-2 17-2 18-3 19-2 20-3 20-2 21-6 38-3 18-3 17-3 16-4 26-1 10-2 8-1 8-1 5v4l-1 3v4l4-4 2-3 4-10 5-19" style="clip-to-self:true;comp-op:src"/>
<path transform="scale(.1)" d="m5266.9 1307.8-2-3-3 3v3 4 11 7l-1 8-1 10-2 11-1 12-2 14-3 16-4 17-3 18-4 20-3 20-4 21-4 20-3 20-3 18-3 19-2 16-2 15-2 14-2 11-1 9-1 8v6l-1 5v3-4l1-3v-5-6l1-6v-8l2-18 1-10 2-24 2-13 2-14 1-15 3-16 6-34 6-35 8-32 4-14 4-12 4-11 4-10 3-8 4-8 4-6 10-10 4-3 6-3 10-2h6l6 1 5 1 6 2 11 7 5 5 3 5 4 6 2 6 1 7v8 8l-2 8-2 10-4 9-3 9-5 9-5 8-6 9-6 7-6 8-6 6-7 6-6 5-7 3-12 4h-6-6-5l-10-2-4-1-4-3-3-3-2-3-3-4-1-4-2-12" style="clip-to-self:true;comp-op:src"/>
<path transform="scale(.1)" d="m5508.1 1367.5-5-1 4-1h3l4-1 10-2 14-2h8l8-2 27-3 8-1h24l7 1 6 1 5 1 4 1 3 2-4 5" style="clip-to-self:true;comp-op:src"/>
<path transform="scale(.1)" d="m5473.1 1424.1 4-1h5 4l4-1 12-2 8-2 8-1 9-1 10-2h11l12-1 13-1h12l13-1h12l12-1 10-1 18-4" style="clip-to-self:true;comp-op:src"/>
<path transform="scale(.1)" d="m5955 1275.3-6-4-3 1v5l-1 4v4 6l-1 7v7l-1 9-2 22-3 14-3 16-3 17-5 20-5 21-4 22-6 23-4 24-5 23-4 23-4 22-4 21-3 20-3 18-3 17-2 14-2 12-1 11-1 9-1 8-1 6-1 5-2 8-2-5v-7l1-5v-5l2-14v-8l1-8 1-10 2-10 1-11 1-12 2-12 1-13 2-12 2-14 2-13 4-28 3-14 2-14 6-30 3-13 4-14 4-13 4-12 5-11 4-10 5-8 6-8 5-8 6-6 14-10 7-4 9-2 8-2h8 8l9 2 7 2 8 3 6 4 5 4 5 5 3 6 2 7 1 6v8l-4 16-3 9-5 10-6 9-6 10-7 9-17 17-9 7-10 7-9 6-9 4-8 4-14 4-6 1h-6-5l-6-1-4-1-5-2-3-2-3-4-3-3-2-12" style="clip-to-self:true;comp-op:src"/>
</g>
</g>
<g stroke="#ff0" stroke-width="14.1">
<path transform="scale(.1)" d="m7271.6 1316.6-1-4-1-3v-3l-1-4-1-5v-3l1 4v4l1 7v18l-2 26-4 32-3 18-6 38-3 21-4 21-3 21-3 20-4 19-2 19-3 18-3 16-2 14-1 13-2 11-2 9-1 7-1 6-1 4-2 4v-3-4l-1-5v-35l1-9v-10l1-11 1-10 1-12 2-13 4-28 6-32 4-16 4-17 5-16 5-17 5-16 12-34 6-16 6-15 7-14 6-14 7-11 7-10 7-9 7-6 8-6 8-4 7-4 7-2 7-1h7l7 2 4 3 4 5 2 7 2 8v10l-1 11-1 13-8 28-5 13-6 14-12 26-7 12-6 11-7 10-7 9-6 9-17 17-5 3-5 2-4 2-4 1-6-2-4-3-2-5-1-3v-5-10-6l4-13" style="clip-to-self:true;comp-op:src"/>
<path transform="scale(.1)" d="m7508.8 1325.9-3-9-1-5 2 5 3 5 2 4 3 3 2 4 1 3 1 5 1 12" style="clip-to-self:true;comp-op:src"/>
<path transform="scale(.1)" d="m7515 1462.8-3-2v-3h5l3 1 4-1" style="clip-to-self:true;comp-op:src"/>
<path transform="scale(.1)" d="m7848.8 1394.7 8-7 9-9 9-15 1-5 1-6v-5l-1-5-2-5-6-10-8-10-6-3-5-3-6-2-7-2h-7-7l-8 1-8 2-9 3-8 5-9 6-10 8-18 18-16 20-6 10-5 9-4 10-3 8-2 8v7l1 7 1 4 4 4 4 3 12 2 7-1 9-1 16-6 9-5 8-5 8-6 7-7 12-14 4-6 4-8 4-7 4-12 2-4 1-3 1 4v5l-1 5-1 7-2 9-1 10-2 10-6 36-2 13-1 13-2 13-2 27v14l-1 15-1 14v15 14l-1 16-1 14-4 26-1 11-2 11-2 9-5 15-3 6-3 5-3 3-4 3-4 1-3 1h-4l-4-1-5-2-4-3-9-9-4-6-4-7-4-8-4-9-3-9-3-11-3-10-3-12v-11l-1-11 1-12 1-11 4-11 5-12 6-13 8-12 9-13 9-12 26-31" style="clip-to-self:true;comp-op:src"/>
<path transform="scale(.1)" d="m7893.1 1417.8 4 2h4l3-1 4-1 5-1 5-2 6-2 6-3 7-3 12-8 7-3 6-5 10-10 8-10 2-6 3-5 1-7 1-5-1-5-2-8-2-3-12-3-12 4-6 3-7 5-7 6-7 7-7 8-6 9-12 20-5 11-8 20-2 10-1 9v9l1 8 2 7 8 10 5 4 7 3 7 1 8 1h8l9-2 18-6 10-4 18-10 9-6 16-14 6-7 7-8 10-16 4-9 5-9 6-16 2-8 2-7 2-10v-3-3 4 3l-1 4v5 6l-1 6v8l-2 16-1 10-2 9-2 18-2 9v8l-1 6v6l-1 5v10l2-4 2-3 1-5 4-5 2-6 3-7 4-7 4-8 10-16 5-9 7-10 6-9 7-10 8-10 17-17 9-7 8-6 7-4 7-3 6-1h6l4 2 4 3 6 10 2 6 1 7v8l1 8-1 8v8l-2 16-1 7-2 7-1 7-1 5-2 5v4l-1 3 1 3 3-3 5-7" style="clip-to-self:true;comp-op:src"/>
<path transform="scale(.1)" d="m8266.2 1440 4-2 3-2 4-2 3-2 8-6 10-6 6-5 5-3 12-10 6-4 5-6 4-4 5-6 3-5 2-6 3-5 1-6 1-7 1-5-1-6-1-4-4-8-3-2-2-1-4-1-5 1-4 2-5 3-5 4-6 6-5 6-6 7-4 8-5 9-8 18-3 9-4 18-1 9v15l1 6 4 12 3 5 10 8 5 3 6 2 14 2 8 1 24-3 7-2 8-3 6-3 7-4 6-4 5-5 9-13" style="clip-to-self:true;comp-op:src"/>
<path transform="scale(.1)" d="m8412.2 1333.8 2-3v9 6l-1 6-1 7v8l-2 16v9l-1 9v56l1 7v6l2 10v4l1 3 2 3 4-1 2-4 2-3 1-4 2-4 2-5 1-6 4-12 2-8 2-7 2-8 6-20 5-10 4-12 18-33 7-9 7-8 7-7 6-5 7-5 6-2 5-1h5l5 1 4 3 3 3 4 5 2 4 4 10 1 6 1 4v5l-2 11" style="clip-to-self:true;comp-op:src"/>
<path transform="scale(.1)" d="m8612.8 1352.8-1-4-1 4-1 3-1 4-1 5-2 14-2 8-1 9-2 8-2 18v9l-1 9v16l2 14 1 6 2 5 4 8 2 2 3 1 6-2 4-3 2-4 7-12" style="clip-to-self:true;comp-op:src"/>
<path transform="scale(.1)" d="m8633.4 1252.5-4 3-5 3-3 5-2 5-1 4v5 3l1 3 2 3 1 3 8 8 3 2 3 1 4 2h4 4l5-1 10-4 15-9 4-5 2-3 2-5 2-4v-5-5l-1-5-5-11-3-6-3-4-9-9-5-4-5-2-6-2h-5-6l-6 3-5 3-10 12-3 6-3 8-2 8v9l3 22" style="clip-to-self:true;comp-op:src"/>
<path transform="scale(.1)" d="m8774.1 1350.9-3-3-4-3-5-2h-5l-6 1-4 2-8 6-8 10-5 6-5 7-4 8-10 18-8 20-3 10-3 11-2 20 1 10 1 9 2 7 4 7 5 5 7 5 7 3 9 2 9 1 10-1 11-1 12-3 12-4 12-5 10-6 24-15" style="clip-to-self:true;comp-op:src"/>
<path transform="scale(.1)" d="m8982.8 1363.1-2-2-3-5-3-2-3 4v3 4l-1 5v6 7 16 9l2 20 6 42 3 10 4 18 3 7 3 6 2 5 3 4 2 4 3 2 4 2 4-3 2-3 3-5 4-10 4-14 1-6 2-8 1-8 2-18 2-9 4-19 2-11 3-10 3-11 5-11 4-10 5-9 6-7 5-5 5-3 5-2 8 3" style="clip-to-self:true;comp-op:src"/>
<path transform="scale(.1)" d="m9168.8 1438.8v-3l1-6v-2l1-4v-3l1-3v-4-3-4l1-3v-8l-1-3v-4l-2-3-4-4-4-2-4-1h-5-6l-14 2-8 2-16 8-10 6-9 7-8 7-9 7-8 9-12 16-4 9-4 7-2 8-2 7v6 5l1 5 1 3 3 4 4 1 4 2h5l6-2 7-1 8-4 9-3 9-4 8-5 9-5 7-6 8-5 7-7 5-6 6-5 4-7 4-6 3-4 3-5 1-4 2-5-3 4-1 4-4 11-1 6-3 14v14l2 7 1 6 2 6 4 5 3 5 5 4 4 3 6 2 7 1 6-1 7-1 7-2 14-6 7-5 15-15" style="clip-to-self:true;comp-op:src"/>
<path transform="scale(.1)" d="m9320.9 1282.8v-3-5l-2 3-1 4-1 6-2 6-1 8-2 9-2 10-1 10-1 11-2 11-1 10v11l-1 10v11l-1 10v9 10 19 9l1 9 1 7 4 12 6 8 3 2 8 2 10-2 6-3 5-3 5-4 5-5 5-3 4-5 9-9 6-10 4-10 2-6 1-5 1-11 1-6 1-5v-5-4l1-3v-7l-1 6-1 3-2 10v7l-1 6-1 8-1 7v7l1 8v7l2 14 2 7 2 6 3 6 3 4 4 4 4 3 5 2 4 1 6 1h5l6-1 6-2 7-2 6-4 7-3 6-5 7-5 11-11 4-5 4-7 4-6 4-7 3-7 2-8 3-15" style="clip-to-self:true;comp-op:src"/>
<path transform="scale(.1)" d="m9518.4 1418.4-4-6-2-4v-3l-2 4-2 5-1 4-6 15-3 7-2 7-2 6-2 8-2 14v8l-1 8v7l2 14 6 12 3 4 5 5 5 3 6 2 7 2 8 2h8 9l10-1 10-2 18-4 9-3 7-4 8-4 7-5 5-5 6-5 8-12 4-7 9-24 2-9 1-8 2-9 1-9 1-8 1-7-1-6-1-5-1-4-2-3-3-2-3-1h-3l-4 1-3 2-4 3-4 4-3 4-4 6-3 6-3 7-3 6-3 7-1 8-3 7-1 8v8 7 7l2 7 4 12 8 8 6 4 6 3 7 2 8 2h9 10l9-1 10-1 8-3 8-2 18-6" style="clip-to-self:true;comp-op:src"/>
<path transform="scale(.1)" d="m7342.8 1988.8-4-3-3-2-8-4-5-2-5-1-6-1h-7-16l-9 1-10 1-12 1-11 2-24 6-11 2-10 3-10 4-8 3-6 4-5 4-4 3-2 3v6l2 3 5 4 7 3 8 3 9 4 10 3 11 3 12 3 12 4 12 3 13 4 11 3 12 4 11 4 11 5 10 4 11 4 8 4 8 5 6 4 5 5 3 5 2 5v5l-1 6-3 5-4 4-6 4-7 4-8 3-9 3-10 3-11 3-12 2-11 2-24 4-12 1-23 1h-11-11l-10-1-9-1-16-2-5-2-4-1-3-2v-5l2-3 4-4 5-4 6-4 16-10 8-7 9-5 9-7 21-16" style="clip-to-self:true;comp-op:src"/>
<path transform="scale(.1)" d="m7293.1 1914.4 1-4 2-4 2-10 1-4 2-5 1-3 1 5v8l-1 5v8l-1 9-1 10-1 12-1 13-2 32-1 17-2 19-1 18-1 19-2 19-1 19-1 18v17 29l1 11 2 9 2 7 3 6 3 4 4 3 3 2h3l3-1 2-2 6-9" style="clip-to-self:true;comp-op:src"/>
<path transform="scale(.1)" d="m7546.9 1959.4v-4-3l-1 3-1 4v4l2 5 3 6 2 3 6 5 3 2 2 2 3 11" style="clip-to-self:true;comp-op:src"/>
<path transform="scale(.1)" d="m7543.4 2137.2 1-4v-3l3-2h3l-5-5" style="clip-to-self:true;comp-op:src"/>
<path transform="scale(.1)" d="m7840.9 2047.8 4-13 2-9 2-8 1-7v-8l-2-12-2-4-3-5-4-3-4-2-5-2h-5-6l-7 1-7 2-6 3-7 5-8 5-6 7-7 9-7 10-12 24-10 26-3 13-2 12-1 11v10l2 9 3 8 3 6 5 5 7 4 14 2 9-1 10-3 10-4 10-5 11-6 20-16 9-10 9-9 7-11 7-10 6-11 4-11 4-10 2-9 1-8 1-6v-5l-3-4-5 4-4 4-3 7-4 8-3 9-4 9-6 22-2 11-1 10v10 10l1 10 2 8 3 7 3 6 4 5 6 3 6 1h8l8-2 24-9" style="clip-to-self:true;comp-op:src"/>
<path transform="scale(.1)" d="m8214.4 2011.6 1-5v-10l-2-5-1-4-6-6-4-3-10-4-6-2h-6l-8 1-7 1-9 3-18 9-9 7-9 8-18 20-7 11-7 12-6 11-4 11-3 10-1 10v8l1 7 3 6 4 4 4 3 12 2 7-1 24-9 16-12 14-14 12-16 5-9 8-18 3-9 3-7 2-7 2-5 1-3v5 5 7l-1 9-1 11-1 13-1 12-2 28-1 13-1 15-2 14v14l-2 30v15 16l-1 15v15 14l-1 13-1 11-2 20-4 16-6 12-8 10-10 8-14 6-7 1-8 1h-8l-16-2-8-2-16-6-7-4-6-4-5-5-4-6-2-6-1-7v-7l2-9 4-8 5-9 6-11 8-10 10-12 11-12 27-27 15-14 16-16 17-16 46-41" style="clip-to-self:true;comp-op:src"/>
<path transform="scale(.1)" d="m8304.7 2087.8-6 4h4l3-1 3-3 4-3 10-8 19-19 6-7 7-8 6-8 5-8 4-9 4-7 3-7 1-7v-5l-1-4-2-4-3-2h-4-5l-6 3-7 4-8 6-9 7-9 9-9 11-9 12-8 13-9 13-7 14-6 13-5 13-4 12-3 12-1 10v9l1 8 2 7 4 5 4 3 5 3 6 1h8l9-1 9-3 11-4 10-5 20-12 11-8 18-18 8-9 8-10 6-12 7-11 6-11 5-12 8-20 4-8 2-7 1-5 1-4-2-2-6 4-3 4-4 6-4 7-8 18-3 10-3 9-2 9-3 9-2 18-1 7v7l2 12 2 8 1 3 2 3 3 2h4l6-6 4-7 2-4 4-10 2-6 6-12 4-7 8-15 10-18 6-10 7-9 8-9 14-14 7-5 6-5 6-3 5-2h5 4l4 2 3 2 3 5 1 5 1 6 1 8v8l-2 18-1 10-4 18-1 10-4 17-2 8-1 6-2 6-1 6v4l-1 4 1 4 2-2 3-8" style="clip-to-self:true;comp-op:src"/>
<path transform="scale(.1)" d="m8615.3 2065 4 1 6-1 3-2 4-1 5-3 6-2 6-3 6-4 7-3 6-5 7-4 7-5 6-4 4-5 5-4 6-8 1-3v-3l-2-4-3-2h-4l-5 1-7 1-7 3-8 5-10 6-9 7-10 9-10 10-10 11-9 11-8 12-7 12-7 11-5 11-4 10-2 10-1 8 1 8 2 6 3 5 4 4 6 2 7 2 8 1h8l10-2 9-1 11-3 10-4 10-5 9-5 9-6 20-15" style="clip-to-self:true;comp-op:src"/>
<path transform="scale(.1)" d="m8739.4 2048.8 3-4 2-5 3-3 4-2 5-2h4 8 4l5 1 6 2 5 2 7 3 6 4 5 5 5 6 6 14 3 8 2 18-3 27-2 9-2 8-3 8-2 6-3 6-3 5-3 4-3 3-4 2-3 1h-6l-3-2-2-2-2-3-2-5-2-10-1-7 1-7 1-8 4-16 3-9 10-20 6-10 6-11 16-20 8-9 8-7 7-6 7-4 6-3 6-1h6l4 1 5 2 4 3 7 7 3 4 4 11" style="clip-to-self:true;comp-op:src"/>
<path transform="scale(.1)" d="m8907.2 2039.1 1-4 2-4v5 4 5l-1 6-1 7v8l-2 16-2 18-1 8-1 10-3 24v7l-1 7v15l1 3 1 4 2-4 1-3 5-25" style="clip-to-self:true;comp-op:src"/>
<path transform="scale(.1)" d="m8934.1 1946.2-2-6-1 3v5 6 4l1 3v4l1 3 1 4 2 6 3 8" style="clip-to-self:true;comp-op:src"/>
<path transform="scale(.1)" d="m9047.8 2009.7-4-2h-3l-10-2-4 1-5 1-5 2-10 8-5 6-6 6-5 8-5 9-4 9-5 10-4 11-3 11-3 10-3 11-2 11-1 10v10l1 10 3 9 3 8 4 7 6 6 7 6 7 4 9 3 9 2 20 2 11-1 10-1 30-9 25-10" style="clip-to-self:true;comp-op:src"/>
<path transform="scale(.1)" d="m8022.5 2507.8-4-3-5-3-3-2-6-2-3-2-6-2h-8l-5 1-10 4-6 3-6 4-12 12-6 8-6 9-6 10-5 11-4 12-3 12-3 11-1 11v11l1 10 3 8 3 7 4 4 6 3 7 2h8l8-1 10-4 10-3 11-6 12-6 22-16 12-9 11-10 10-10 10-11 8-11 6-11 5-11 3-11 1-9 1-10-4-16-4-6-4-5-5-3-6-3-6-1-7-1-7 2-8 1-7 3-7 5-7 4-12 12-4 7-4 6-2 7-1 7v6l1 6 3 6 3 4 5 4 6 3 19 2" style="clip-to-self:true;comp-op:src"/>
<path transform="scale(.1)" d="m8191.9 2506.6-4 2-3 5-1 4-2 4-2 5-1 5-1 6-4 16-1 8-2 20v11 11 12l1 12v12l2 12v13l2 24v28l-1 6v6l-1 4-2 3-3 4h-5l-5-2-3-1-2-3-3-3-2-4-3-5-2-5-2-6-2-14-1-8 1-8 1-10 1-11 3-11 4-12 5-14 6-15 7-16 8-15 9-16 10-16 11-14 10-13 22-20 18-12 7-3 8-1h6l5 2 4 3 3 4 3 6 1 6v8l-1 9-2 9-3 10-8 20-5 10-6 9-6 10-7 9-6 8-7 7-7 6-6 6-12 8-4 2-4 1h-6l-1-4 1-4 1-5 4-5 4-6 6-8 18-19" style="clip-to-self:true;comp-op:src"/>
<path transform="scale(.1)" d="m8344.4 2561.6-2 3-1 4v3l3 2 6-1 4-1 4-2 5-3 5-4 7-5 6-4 11-11 4-5 4-6 3-5 2-5 1-5v-5l-1-4-2-4-2-2-8-2-5 1-6 1-5 3-7 4-6 5-6 6-12 16-5 8-5 9-4 10-3 9-4 18v9l1 9 1 7 2 7 3 5 4 4 5 3 10 2 7-1 7-2 6-3 7-4 8-5 6-6 7-6 6-7 6-8 5-7 4-9 4-8 9-24 3-7 3-6 3-4 2-4 2-3 4-2 4 2 2 4 2 3 2 5 2 6 3 6 3 7 2 8 3 7 3 8 8 32 1 7 2 12v5 7l-1 3-3-1-4-7-1-3-1-6-1-5v-7l-1-7 1-8 2-18 2-10 8-20 6-11 6-9 7-9 8-8 8-6 8-5 8-4 9-2 7-2h7l7 1 6 3 5 3 8 7 7 11" style="clip-to-self:true;comp-op:src"/>
<path transform="scale(.1)" d="m8679.4 2514.4 2-4-2-4-3-1-5 1-3 2-4 2-5 3-4 4-6 4-16 16-5 6-15 21-8 14-3 6-4 12v5l-1 4 1 3 2 3h6l3-2 4-2 5-3 12-8 5-4 12-10 5-4 6-5 4-4 8-6 3-2 5-3 3 2 2 8v4 6l1 4v7l1 6 4 12 2 5 6 10 8 6 10 2h6l12-4 7-3 7-5 7-4 8-6 14-14 14-16 6-10 7-10 6-10 5-11 6-12 4-14 5-14 5-15 8-32 4-15 3-13 2-11 2-9 1-5v-4l-5 2-2 3-6 12-3 8-2 10-3 10-2 10-2 11-1 11-1 12-1 11v11 23 10l2 10v10l2 9 1 8 2 7 2 6 2 5 1 4 2 2 2 4-5-7" style="clip-to-self:true;comp-op:src"/>
<path transform="scale(.1)" d="m8723.8 2521.6 3-3 6-3 10-4 7-1 7-3 9-2 9-3 20-6 11-3 12-4 25-7 13-4 14-3 14-4 14-2 14-3 13-1 11-1 10-1 8 1 6 1 4 2 3 2 1 3-1 3-1 4-6 8-4 5-5 5-10 12-5 5-10 12-4 6-5 6-4 6-4 5-4 12-2 11v5l1 5 2 5 4 8 4 3 4 4 5 3 5 2 5 1 7 1 6 1 14-2 14-4 7-3 5-3 6-4 5-4 4-4 3-6 3-5 2-5 1-7v-6-7l-1-6-1-7-2-7-5-13-4-5-4-4-5-3-5-2-5-1h-5-5l-6 2-5 3-6 3-5 4-4 4-3 4-3 5-1 3v3l5 6" style="clip-to-self:true;comp-op:src"/>
<path transform="scale(.1)" d="m9057.8 2511.2-2-3-1-4 5-1h5 4l9 2 5 1 15 6 6 4 5 4 4 4 8 10 6 18 1 7-1 6-4 14-6 12-4 6-3 5-8 8-8 4-3 1h-4l-3-1-6-4-2-3-1-5v-5l1-6 2-7 2-8 4-8 5-9 6-10 7-10 8-10 18-22 11-12 11-11 12-11 11-10 12-8 11-6 10-4 9-3h7l5 1 4 2 1 4v4l-2 6-12 17" style="clip-to-self:true;comp-op:src"/>
</g>
<g stroke="#fff" stroke-width="14.1">
<path transform="scale(.1)" d="m2797.2 3169.4-2-3-3-3-3-1h-4l-4 1-3 4-2 2-3 4-4 8-4 13-3 7-1 8-2 9-3 11-4 24-6 28-3 15-4 16-3 15-8 30-3 14-6 26-3 11-2 11-2 10-2 8-2 7-2 6-2 8-2 2v-4l1-4 1-5 1-6 1-7 2-9 1-9 2-9 2-11 6-24 3-13 4-13 5-15 5-16 12-34 6-19 24-54 9-18 9-16 9-15 8-14 9-12 7-10 7-8 6-6 6-5 8-4 6 1 4 3 3 7 2 5 2 12 1 8 2 9 1 9 4 22 2 12 6 26 3 14 8 30 4 14 4 15 4 14 5 14 4 13 9 23 4 11 4 10 4 9 8 16 4 6 4 5 3 5 8 8 4 1 4-1 2-3 2-6 1-4v-4-9-4-4l-2-5-5-10" style="clip-to-self:true;comp-op:src"/>
<path transform="scale(.1)" d="m2747.2 3373.1-9-9 1-3 5-3 4-1 5-2 6-2 7-3 9-2 9-3 9-4 11-3 11-4 13-4 12-3 26-8 24-6 11-3 10-2 7-2 6-2 4-1 4-2" style="clip-to-self:true;comp-op:src"/>
<path transform="scale(.1)" d="m3124.4 3416.2h-4l-3-1-3-2-2-3-3-4-2-3-4-8-1-4-3-5-1-5-4-13-2-7-2-16-2-18v-22-12l1-13 2-13 9-39 5-13 5-12 6-11 6-10 7-9 7-7 8-6 7-4 7-3 8-2h7l8 1 7 2 14 8 13 13 10 16 5 10 3 10 4 11 2 12 4 26 1 14 1 15v15l1 15v83 8l1 6 1 5v4l1 3 3 3 6-1 5-5 3-5 7-12" style="clip-to-self:true;comp-op:src"/>
<path transform="scale(.1)" d="m3450.9 3182.2-3-10-1-3-1-4-2 4-1 3-1 4-1 5-2 14-1 8-1 10-1 11-2 11-2 13-1 12-2 14-1 13v14l-2 13v13l-1 12-1 11v10l-1 8v22 4l-2-5v-3l-1-5v-5-32-10l1-11 1-12 1-14 6-30 5-17 5-18 6-17 7-17 7-16 8-14 8-13 7-9 8-8 7-6 6-3 5-2 5-1 5 1 4 2 3 3 6 10 2 6 3 7 1 8 4 18 1 10v10l1 11 2 26v14 15l1 14v28 13l1 12 1 11 1 10 1 9 1 8 1 6 2 6 1 5 2 3 1 3 4 3 3-1 2-4v-3-3l-1-4-4-12" style="clip-to-self:true;comp-op:src"/>
<path transform="scale(.1)" d="m3449.1 3314.1v-3l4-3 5-4 4-1 4-3 5-2 12-6 8-3 7-3 9-3 8-3 9-2 18-2 9-2 8-2 9-2 8-2 16-6" style="clip-to-self:true;comp-op:src"/>
<path transform="scale(.1)" d="m3700.6 3259.1 1-3 3-4 6-2h4l5-1h6l6-1h8l7-1h8l8-1 8 1h7 7 7 6l6-1h4l9-1" style="clip-to-self:true;comp-op:src"/>
<path transform="scale(.1)" d="m3718.8 3313.4v5l2 2 3 2 4 1 3 1h10l21-3 9-1 9-2 9-1 10-2 18-4 8-1 7-3 16-8" style="clip-to-self:true;comp-op:src"/>
<path transform="scale(.1)" d="m4211.2 3142.5v-4l-1-2-2 4-1 5-2 5-2 7-1 9-3 9-3 12-4 12-5 14-5 15-5 16-6 17-5 17-5 18-10 34-5 15-4 14-2 12-3 11-2 9-1 7-1 5v4 3l1-3 1-4 2-4 2-7 2-6 2-8 3-8 2-9 3-10 2-11 3-11 3-13 3-14 4-15 3-17 10-36 7-19 6-19 8-19 8-18 8-17 8-13 7-11 6-9 5-5 5-4 4-2h4l3 1 4 3 3 3 3 5 6 12 3 7 2 9 3 9 3 10 2 11 4 26 1 14 2 16 1 16 2 16 1 16 3 16 1 16 2 15 4 28 2 13 2 12 4 20 3 8 1 7 2 6 1 5 2 4 3 4h3l1-4v-4-5l-2-13" style="clip-to-self:true;comp-op:src"/>
<path transform="scale(.1)" d="m4145.3 3347.8-2-6 2-3 6-2 5-1 5-2 14-4 9-3 9-2 10-3 24-4 13-1 28-4 15-2 15-1 14-2 34-8" style="clip-to-self:true;comp-op:src"/>
<path transform="scale(.1)" d="m6006.9 3176.6-1-4-1-2-1-3-3 2-3 4-2 4-3 5-2 7-4 7-4 9-4 8-3 10-5 10-4 11-5 11-8 22-5 12-8 22-4 10-4 9-2 9-6 14-2 6-1 4-2 5-1 3-1 4 3-3 1-3 2-3 3-5 2-5 3-5 8-14 5-8 4-8 6-9 4-10 6-10 4-11 6-11 4-12 6-12 16-38 5-11 5-13 6-12 4-11 5-11 4-9 3-6 3-5 1-3 4-1 2 6 1 4 1 5 1 6 2 14 1 9 2 8 1 10 1 9 1 10 4 20 4 21 1 11 1 10 4 22 1 10 1 9 1 8 1 7 2 6 1 5 2 5 2 6 3 4 3 2-4-3-3-2-10-5" style="clip-to-self:true;comp-op:src"/>
<path transform="scale(.1)" d="m5942.2 3312.8v-3l2-4 4-3 3-1 4-3 3-1 15-6 6-2 7-2 6-2 8-2 14-2 8-1 7-1h7l6-1 7-1 6-1 16-5" style="clip-to-self:true;comp-op:src"/>
<path transform="scale(.1)" d="m6220.9 3185.3-2-4-2-5-4-1-2 3-4 5-4 10-2 6-2 8-2 9-1 9-2 10v10l-1 12 1 10v11l2 22 2 11 2 9 3 9 3 8 4 7 4 6 4 5 5 4 6 3 5 1h6l6-1 7-1 6-3 7-4 6-4 6-5 10-12 4-6 4-8 6-16 1-9 2-20 1-11v-21l-1-11v-10l-1-9-1-8-1-6v-6l-1-3-2-4-2 3v3l-1 4v5 17 6l2 14" style="clip-to-self:true;comp-op:src"/>
<path transform="scale(.1)" d="m6449.4 3205.6-1-4-2 5-3 5-1 4-3 4-1 6-3 7-3 8-2 8-2 10-2 9-6 30-1 10-2 10-1 9v9 8 7l1 7 2 12 1 5 1 3 1 4 1-4 1-3v-3l1-5v-5l1-5v-6l2-14v-7l1-9 1-8 1-10 2-10 2-11 3-10 6-24 9-23 5-12 5-11 6-10 5-8 5-6 4-5 4-3 3-2 3-1 5 2 5 4 2 3 2 4 2 10 2 13 1 7 2 16 2 8 1 9 4 18 4 20 2 9 3 10 2 9 6 18 2 9 3 7 3 8 2 7 3 6 5 11 2 5 4 8 6 6-2-6" style="clip-to-self:true;comp-op:src"/>
<path transform="scale(.1)" d="m6400.9 3330.9 1-3 2-3 5-2 3-1 12-3 5-1 12-2 7-1 9-1h8l9-1h20l9-1 16-2 6-1 12-3" style="clip-to-self:true;comp-op:src"/>
<path transform="scale(.1)" d="m6649.1 3272.8 2-4 4-2 7-1 4-1h5 6l5-1h37l5 1h6l5 2 8 2 3 2 4 1 1 4" style="clip-to-self:true;comp-op:src"/>
<path transform="scale(.1)" d="m6661.6 3317.5-4 3-2 4-1 4 4 3h5 4l5-1 6-1 7-1 17-2 9-2 10-2 10-1 11-1 20-4 9-2 10-2 21-5" style="clip-to-self:true;comp-op:src"/>
<path transform="scale(.1)" d="m7029.7 3186.2-4-4-4-2-3 2-5 10-2 6-1 6-3 8-2 8-6 20-3 12-8 24-8 26-7 27-4 14-4 13-3 13-5 21-2 8-1 7-2 8v3l1-3 1-6 2-5 4-12 2-8 6-18 3-10 5-11 3-11 5-12 10-26 6-15 5-15 6-15 14-32 7-15 7-14 6-13 11-20 5-6 3-4 3-2 4 1 2 2 2 4 2 5 1 6 1 7 2 9v8l2 20 2 10 2 11 1 11 2 11 6 24 2 12 3 13 3 12 4 13 8 24 4 11 3 11 4 10 4 9 4 8 3 7 6 10 3 4 4 6-3-3-3-2-3-3-11-8" style="clip-to-self:true;comp-op:src"/>
<path transform="scale(.1)" d="m6963.1 3339.4-1-2 1-6 1-3 5-3 3-2 4-1 4-2 12-2 6-2 9-2 10-1 12-1 13-1h15 16 18l18-1h18 18l16-1 15-1 26-3" style="clip-to-self:true;comp-op:src"/>
</g>
</g>
</g>
</svg>
