<?xml version="1.0" encoding="UTF-8"?>
<svg width="1e3pt" height="500pt" version="1.2" viewBox="0 0 1e3 500" xmlns="http://www.w3.org/2000/svg">
<g id="surface95">
<rect width="1e3" height="500" fill="#20282d"/>
<g fill="none" stroke="#fff" stroke-linecap="round" stroke-linejoin="round" stroke-miterlimit="10">
<g stroke-width="14.1">
<path transform="scale(.1)" d="m3819.4 480v-3-4l-2-3-3 1-4 2-3 6-3 4-3 6-4 6-4 8-4 9-6 11-5 12-6 14-7 15-7 16-7 18-8 18-7 19-8 18-7 18-8 17-12 30-10 24-3 9-3 8-3 6-1 4-1 5 3-5 5-10 3-7 4-8 4-10 5-10 5-12 5-13 5-14 5-16 5-17 6-20 5-20 12-44 6-21 7-20 6-18 6-16 5-13 4-10 6-12 3-3 2-3 3 4 1 4 2 4 2 5 1 7 2 7 2 9 2 11 4 26 2 15 6 32 3 17 4 16 3 16 4 16 4 14 3 14 4 12 3 12 4 10 2 9 4 9 2 7 3 7 2 6 4 8 2 3 3 4 4-1v-7l-1-5-4-12" style="clip-to-self:true;comp-op:src"/>
<path transform="scale(.1)" d="m3661.6 725.31 3-3 3-1 4-2 10-4 7-3 8-4 9-3 11-4 11-3 13-5 13-3 14-4 13-4 13-3 12-3 11-3 9-4 8-3 14-7" style="clip-to-self:true;comp-op:src"/>
<path transform="scale(.1)" d="m4069.7 571.25-2-4-4-5-3-1-4-1-6-1-5-1-7 1h-7l-7 1-7 2-8 2-8 3-8 4-9 5-9 6-10 6-16 14-8 8-6 7-5 7-3 7-1 6v6 6l2 5 3 5 4 5 10 8 6 2 6 4 14 4 8 2 14 4 6 1 5 2 5 1 2 3 2 5-1 3-2 4-9 9-6 4-7 5-7 3-8 4-16 7-9 3-8 2-8 3-8 1-7 2-6 1h-5-4l-2-1 3-3 5-3 6-3 7-4 9-5 9-6 26-15" style="clip-to-self:true;comp-op:src"/>
<path transform="scale(.1)" d="m4182.5 586.25-3-3h-6l-5 1-6 2-5 2-14 6-8 4-7 4-9 4-7 5-8 5-6 4-7 6-5 5-4 5-3 5-2 5-1 5v4l1 5 2 5 2 4 3 5 4 4 10 6 6 4 5 3 6 2 6 4 4 2 5 2 2 3 3 3v2 3l-3 4-3 3-5 4-6 4-8 4-7 3-18 8-18 5-9 2-16 2-7 1h-6-5-4l-3-1v-5l2-3 4-5 6-5 19-16" style="clip-to-self:true;comp-op:src"/>
<path transform="scale(.1)" d="m4260.3 605 2-3-4 1-3 2-3 3-4 3-9 9-4 5-10 12-10 14-4 7-4 8-3 8-4 16-1 8v8l1 7 4 14 8 10 5 4 6 2 6 1h8l9-1 9-2 10-3 22-8 10-5 10-6 16-12 7-6 6-7 4-6 3-7 1-8v-8l-1-7-3-8-4-8-5-7-14-12-9-4-10-3-10-2-10-1h-12l-12 2-12 3-11 3-11 4-11 5-9 4-8 5-6 5-5 5-3 5-2 4v4l1 4 8 6" style="clip-to-self:true;comp-op:src"/>
<path transform="scale(.1)" d="m4475.6 585-6-1h-4l-4 1-5 2-6 3-6 4-13 9-18 18-12 14-5 7-5 8-4 8-6 16-1 8v8 8l1 7 2 7 4 7 3 6 5 4 6 4 6 2h8 8l9-2 10-2 11-4 22-10 10-7 10-6 10-7 9-8 7-8 6-9 7-9 4-9 8-20 3-9 2-8 1-7 1-6 1-3-1-4-2 5-2 4-2 5-1 6-2 7-4 16-2 9-1 9v10 9 9l2 9 3 8 3 9 4 7 4 6 5 4 6 3h6l7-1 6-4 6-5 16-16" style="clip-to-self:true;comp-op:src"/>
<path transform="scale(.1)" d="m4604.4 489.06-2 4v3l-1 3-2 8 3 15 1 3 4 8 4 6 7 7" style="clip-to-self:true;comp-op:src"/>
<path transform="scale(.1)" d="m4751.2 600.31-2-6-1-4-3-4-2-3-2-2-3-2-4-1h-3-4l-5 1-10 6-6 4-6 5-5 7-6 7-6 9-4 9-5 9-6 18-2 9-1 8v8 8l2 7 2 6 3 7 3 4 5 4 4 3 5 1 6 1h6 6l6-1 12-4 6-3 10-6 10-8 4-5 3-4 4-5 3-5 3-6 2-7 3-7 2-6 3-6 1-6 3-5v-4l1 6-1 5v6l-1 7-2 9-1 8v9 8l2 16 2 7 6 12 4 6 6 4 6 3 8 1h10l10-3 12-4 12-6 32-20" style="clip-to-self:true;comp-op:src"/>
<path transform="scale(.1)" d="m4927.5 476.56v-5-5-3l-3 3-2 3-1 5-2 6-3 7-3 10-2 9-6 24-3 13-1 14-2 14-1 14-1 15 1 13v13l2 12 2 11 3 9 4 9 8 14 10 10 6 4 5 4 5 3 4 3 5 2 5 1 4 1 3 1 4 1h5l4-1 3-3 1-4v-6" style="clip-to-self:true;comp-op:src"/>
<path transform="scale(.1)" d="m4850.9 619.69-3-2 3-4 3-1 4-2 5-3 13-6 7-4 18-9 10-4 10-6 22-9 12-5 11-4 10-3 10-4 9-2 8-1 7-1 6-1h3l5 4" style="clip-to-self:true;comp-op:src"/>
<path transform="scale(.1)" d="m5021.9 589.69 3 1 4 2 7 14 1 4 1 6 2 5v6l1 5v7l1 6v52 4 5l2 8v3l1 3-1-4" style="clip-to-self:true;comp-op:src"/>
<path transform="scale(.1)" d="m5056.9 523.12-2-7 1 3 2 5 1 3v4l1 3 1 4 2 11" style="clip-to-self:true;comp-op:src"/>
<path transform="scale(.1)" d="m5112.2 593.12-3 1v7 3l2 10 2 12 2 6 3 7 2 8 3 8 3 7 2 9 4 8 4 9 3 8 8 14 4 6 3 5 7 7 3 2 3 1h4l5-3 2-3 1-3 4-10 1-5 2-14v-7-8l1-8v-28l1-11v-11l2-11 3-10 2-9 3-7 3-6 2-3 3-3 6-1 4 4 3 4 2 5 1 6 2 6 2 7 2 12 1 16" style="clip-to-self:true;comp-op:src"/>
<path transform="scale(.1)" d="m5250.3 640.62 8 4 4 1h4 3 9l5-2 5-1 7-2 6-3 7-3 7-4 7-3 12-9 6-5 4-4 4-5 3-4 3-5 1-4v-4l-1-3-2-3-3-2-4-2h-4l-5 2-6 2-14 10-8 7-17 17-8 10-9 11-8 10-7 11-6 12-5 11-4 11-2 11-2 10 1 10 2 9 3 7 5 6 6 5 7 2 8 3 10 1h10l12-1 12-2 13-2 13-4 13-5 12-5 29-15" style="clip-to-self:true;comp-op:src"/>
<path transform="scale(.1)" d="m5650.6 464.06-2-3-1-4-2-4-4-6-2-4-3 4v19l1 7v8l1 9v10l1 12v12 14l1 15v17l-1 17v18l-2 36-1 17-1 16-1 14-2 24-1 10v8 12 5l1 4 1 2 4 4 6 2 5 1 6-1h6l7-1 8-1 18-4 33-6 11-3 12-2 22-4 20-4 9-1 8-1 7-2 10-2 3-1 3-2-1-5" style="clip-to-self:true;comp-op:src"/>
<path transform="scale(.1)" d="m6018.4 654.06 3-7 1-4 1-5v-4l-1-4-1-5-1-3-4-6-3-3-3-2-5-1-4-1h-6l-6 1-8 1-8 3-9 4-10 4-10 5-11 6-10 7-11 8-20 18-8 9-7 9-6 9-5 9-4 8-3 8-1 7v7 6l1 5 3 4 3 3 8 4 6 2h5 6 7l6-2 7-2 7-1 6-3 7-2 5-3 6-3 10-7 5-5 4-3 4-5 7-8 6-10 6-12 1-4 2-4 2-6 2-3 2 3 1 3v3 4l1 5v6 5l1 6v6l4 24 2 6 1 5 2 5 5 9 3 4 3 3 3 2 3 1h6l3-1 5-5 2-3 5-8" style="clip-to-self:true;comp-op:src"/>
<path transform="scale(.1)" d="m6114.4 628.75-2-3-2-4-3-1-4 1-2 3-3 5-1 3-2 10-2 7-1 7-1 8-1 9-2 20v10 11 10l1 11 2 10 2 9 6 16 4 6 4 4 4 3 4 2 5 1h5l5-1 4-2 5-3 8-8 3-5 6-12 2-6 4-14v-8l1-7 2-7 2-12v-4l2-8 3 2 3 6 1 4 2 5 2 4 4 11 2 6 4 14 2 6 3 7 3 5 3 6 3 4 7 7 8 4 4 1h5l4-1 5-1 8-4 5-3 8-8 6-10 3-6 2-6 4-14 1-8 1-9v-10-10l1-9v-22-10l1-9v-9-6-5-4l-1-5-1 5-1 4-2 5-3 5-2 6-8 15" style="clip-to-self:true;comp-op:src"/>
</g>
<path d="m363.91 88.219h260.41" stroke-width="1.41" style="clip-to-self:true;comp-op:src"/>
<g stroke-width="14.1">
<path transform="scale(.1)" d="m3355 1253.4-2-3-4-3h-5l-6 1-4 2-8 6-5 5-5 6-5 7-5 8-5 9-6 9-6 11-5 11-6 13-5 13-6 13-5 14-5 13-5 14-3 15-4 13-2 14-1 13v12l1 12 6 20 4 8 5 7 12 10 7 4 7 2 8 2 8 1h8 8 8 8l7-2 6-1 6-2 11-5" style="clip-to-self:true;comp-op:src"/>
<path transform="scale(.1)" d="m3545 1340.9-3-5-8-8-3-1-4-1-5-1h-4-5l-6 1-6 2-6 3-7 4-7 5-7 6-7 7-8 9-21 30-12 22-4 10-4 11-3 10-2 10-1 9v8l1 7 6 12 4 3 5 3 6 1 5 1 14-2 7-3 8-3 7-4 7-5 8-5 7-6 5-7 6-7 8-16 6-18 1-9 4-20 2-16 1-7 1-4v-4l-1 6-1 4-1 6v7 16 8l4 36 4 16 3 7 2 7 3 6 4 6 3 4 4 4 10 4h5 6l6-2 14-7" style="clip-to-self:true;comp-op:src"/>
<path transform="scale(.1)" d="m3656.2 1425.6 5 2 4 1 3 1 4 1h5l5 1h13 7l8-1 9-1h9l18-2h9l24-3 6-2 6-1 6-2 8-4 2-3 1-7" style="clip-to-self:true;comp-op:src"/>
<path transform="scale(.1)" d="m3752.8 1351.6-6-9-2-2-3-4-1 4v3l2 8v5l2 12 2 14 1 8 1 7 1 9v8l1 9 1 8 2 9 1 8 2 9 1 7 3 8 2 6 3 6 2 6 3 4 1 3 5 2 7-4" style="clip-to-self:true;comp-op:src"/>
<path transform="scale(.1)" d="m3910.6 1252.8v9l-1 5v6 7l-1 8v10l-1 10v11 47 12l3 36 2 11 2 10 2 9 2 8 3 8 6 10 1 4 6 4 3-4 3-6 2-10 2-6 2-14 4-16 3-9 4-9 4-10 7-10 7-9 8-9 9-8 9-6 9-5 9-4 8-1h7l7 1 6 2 6 4 5 4 5 6 8 14 2 9 2 16v9l-6 24-4 8-4 7-12 12-14 10-8 4-7 3-8 3-8 2-7 2h-8-7-6l-7-2-6-2-4-2-5-4-3-4-3-5-1-14" style="clip-to-self:true;comp-op:src"/>
<path transform="scale(.1)" d="m4149.4 1220.9 5-3 3-1 4-1h5l5 1 6 1 6 3 7 2 14 10 7 6 7 9 6 10 6 11 10 26 4 14 4 15 2 14 2 15v15 14l-1 14-6 26-3 12-5 11-5 10-5 9-5 8-5 6-6 6-6 4-5 3-5 2-10 2-8-2-8-4-3-3-2-4-4-11" style="clip-to-self:true;comp-op:src"/>
<path transform="scale(.1)" d="m4346.6 1400.3-4-2-3-2-2-3 3-3 3-1 4-1 3-1 6-1 5-1 7-1h8l7-1h39l10 1 11 1h11l10 1h10l10 1 9 1h17l7 1h16l8-2-1-3-6-5" style="clip-to-self:true;comp-op:src"/>
<path transform="scale(.1)" d="m4415.6 1289.7 1-5 1-4 3-3 3 4 1 6 1 4 2 12 2 16 1 9v10l1 11v11l2 22 1 13 2 24 4 24 2 11 6 18 3 7 3 5 6 8" style="clip-to-self:true;comp-op:src"/>
<path transform="scale(.1)" d="m4749.4 1333.8 2-6 1-2v-4l-1-3-2-4-3-3-5-3-4-1h-4-5-7l-7 1-8 2-10 2-10 4-11 4-22 10-11 6-10 6-10 8-9 7-14 16-5 8-5 9-2 8-1 9v7l4 14 5 5 12 8 8 2 9 1h10l11-1 11-2 12-2 11-4 11-5 10-5 8-6 9-7 6-7 6-8 5-8 4-10 3-10 2-11 1-11 1-13 1-15v-15l-1-17-2-33-1-16-1-14-2-11-2-10-2-8-2-5-1-4-2-2-4-1-3 4-1 5-1 6-2 8-1 9-1 11v11 27 13l2 30 2 14 1 13 2 14 5 27 2 12 6 22 3 10 2 8 3 8 2 6 3 12" style="clip-to-self:true;comp-op:src"/>
<path transform="scale(.1)" d="m5014.7 1360 4 1h6 5l4 1h21l7-1 27-3 19-3 10-1 9-1 8-1h8 14 5 4" style="clip-to-self:true;comp-op:src"/>
<path transform="scale(.1)" d="m5023.8 1415.3 4 2 5 1h3 5 4l6-1h7l7-2 16-2 10-2 9-2 22-2 20-2h10 8 7l11-2" style="clip-to-self:true;comp-op:src"/>
<path transform="scale(.1)" d="m5581.6 1317.2-2-4-1-4-3-6-3-5-2-4-3-3-4-3-3-2-5-1h-6l-6 1-6 2-8 4-16 10-9 7-10 8-9 10-10 10-10 11-9 11-8 11-8 12-12 22-3 10-2 10v8l1 7 3 6 4 4 6 3 6 2h8l8-1 20-6 10-6 11-6 11-7 10-8 9-8 9-9 8-10 8-9 7-10 6-10 5-10 4-9 4-7 4-12 2-3v-3l-3 5-1 4-2 6-1 7-2 8-2 9-1 9v10 10 10l2 10 2 11 2 9 4 10 10 16 7 6 7 5 8 3 9 2 9-1 10-2 26-9" style="clip-to-self:true;comp-op:src"/>
<path transform="scale(.1)" d="m5785.6 1393.4-3 1-3 2 4 2 8 2h16l14-1 17-2 18-2 10-2 9-1 10-1 10-2 9-1h8l7-1h6 6 5l3-1 4-1-2-8" style="clip-to-self:true;comp-op:src"/>
<path transform="scale(.1)" d="m5874.4 1322.2 1-3 3-3 4-1h4l4 2 3 4 4 6 2 10 2 6v6l1 8v9 9l-1 11v10l-1 12v10 12 10l1 9 2 9 2 8 2 7 2 6 3 4 3 2h3l4-1 11-6" style="clip-to-self:true;comp-op:src"/>
<path transform="scale(.1)" d="m6109.1 1211.6-1-5-1-3-2-4-2 4v21l1 8 1 10 1 12 2 12 2 13 3 28 2 15 3 14 2 15 2 14 1 14 2 13 2 12 1 10 2 9 2 14 3 12v-3-3-14-6l1-6 2-8 2-7 6-16 5-8 5-7 6-7 7-6 6-6 7-4 8-4 8-2 8-1 7-1 8 1 7 1 7 2 6 3 8 10 2 6 1 7v7l-2 8-2 7-4 8-4 7-6 8-6 7-7 6-8 6-9 5-8 5-18 8-9 3-8 3-8 2-14 2h-5-4l-3-1-3-4v-3l2-4 8-11" style="clip-to-self:true;comp-op:src"/>
<path transform="scale(.1)" d="m6366.9 1383.8-4-1h-5-5l5 2h4 13 7l9-1 10-1 11-1h11l24-2h12l11-1h10 9l8-1 6-1 5-1 3-2 2-2 1-3-3-9" style="clip-to-self:true;comp-op:src"/>
<path transform="scale(.1)" d="m6438.8 1303.1-6-6 3 4 2 2 1 4 2 3 2 5 1 5 2 6 2 12v7 23 8 25 7l1 7 1 6 2 5 2 4 7 8" style="clip-to-self:true;comp-op:src"/>
<path transform="scale(.1)" d="m6723.1 1327.2-3-2-3-1-4-2-10-2h-6l-5 1-6 1-7 1-6 3-7 2-7 4-21 15-6 6-6 8-6 7-4 7-4 8-3 7-1 8v7 7l1 6 3 6 4 5 4 3 6 3 7 2 8 1 7-1 8-2 9-2 8-3 9-4 7-5 8-4 7-6 6-6 5-7 4-6 3-8 2-8 4-18v-11l1-11v-26l-1-13v-14-15l-1-13-1-12v-11l-1-9-1-7v-6l-1-3-4 2-2 4-1 7-2 8-2 9-2 11-1 13-1 14-2 32-1 15v33l1 17 1 16 2 17 2 16 3 15 3 14 3 13 3 11 3 10 4 7 2 6 4 3 8-2" style="clip-to-self:true;comp-op:src"/>
<path transform="scale(.1)" d="m6055.3 1150.9-4 2-4 5-6 4-6 8-5 8-6 10-5 12-5 13-6 15-5 15-4 17-5 18-4 18-3 19-2 19-1 20 1 20 3 19 4 20 6 18 7 18 10 16 11 16 13 14 15 13 16 11 18 10 18 9 18 8 46 15" style="clip-to-self:true;comp-op:src"/>
<path transform="scale(.1)" d="m6736.9 1180.6 3-2 5-1 3 1 5 1 5 2 14 6 9 3 10 3 11 4 11 5 13 5 26 14 13 9 11 10 11 11 9 14 7 15 6 16 5 16 2 17 1 18v18l-3 17-3 18-5 17-6 16-7 15-8 14-8 13-9 12-10 11-9 10-11 8-11 7-11 6-11 5-11 3-28 4" style="clip-to-self:true;comp-op:src"/>
<path transform="scale(.1)" d="m3590.6 2195.9-3-3h-3l-3 3-4 5-6 10-3 6-4 7-4 9-5 10-6 11-5 12-12 28-5 16-6 17-5 15-5 16-4 15-3 13-3 11-2 9-1 6-1 5v4l5-3 2-5 3-5 2-8 4-8 3-10 4-11 3-11 4-12 4-13 7-27 10-28 5-15 6-16 14-32 16-30 7-14 7-11 7-9 6-8 4-5 4-4 3-2 2-1 5 1 5 4 2 4 3 3 6 10 5 13 3 8 2 8 2 9 3 9 2 10 6 21 6 22 2 11 12 44 3 10 2 10 3 10 2 9 3 9 4 14 3 10 1 5 3 4 3 1-1-4-7-12" style="clip-to-self:true;comp-op:src"/>
<path transform="scale(.1)" d="m3512.8 2370.9-2-4v-5l2-4 2-3 7-7 5-4 12-8 8-5 9-5 18-8 11-5 10-3 10-4 10-3 9-2 9-3 8-3 7-2 6-2 14-4" style="clip-to-self:true;comp-op:src"/>
<path transform="scale(.1)" d="m3879.1 2371.9h-3-4l-3-2-2-3-2-5-1-4-1-3-2-8-1-5v-5l-1-6v-6-6l-1-7v-32l1-9 1-11 1-10 2-11 2-12 2-11 3-12 5-11 4-10 6-8 7-8 7-6 7-5 8-4 7-4 8-2 8-1 14 2 7 3 6 3 6 4 5 5 4 7 5 7 4 8 2 9 3 10 2 10 2 11 2 24 2 11v75 7 7l1 6v4 4l2 5 3 2 3-4v-3l1-4v-13" style="clip-to-self:true;comp-op:src"/>
<path transform="scale(.1)" d="m4108.1 2166.6v-4-3h4 3l4 2 3 6 2 3 2 4 2 6 1 6 2 16 2 19 1 11 3 31 3 30 1 9 1 8v8l2 7 1 6 3 4 1 4 3 3 3-3 1-3v-4-12" style="clip-to-self:true;comp-op:src"/>
<path transform="scale(.1)" d="m4143.4 2179.1 1-3v-3l5-3 3-1 4-1 4-2 5-2 6-1 7-1 7-2 8-2 9-1 8-1 9-1 8-1 16 2 7 1 5 2 5 3 3 4 4 8-2 12-3 6-4 6-5 8-12 14-8 7-7 6-16 12-14 10-12 8-5 4-2 3-2 2v4l6 3 5 1 6 1h8l8 1h10 9 10l11 1 10 1 11 1 10 3 9 2 9 3 8 4 6 4 4 5 3 5 1 7v6l-2 7-3 6-4 7-5 6-7 6-6 5-7 5-8 4-8 3-9 4-8 3-24 6-8 1-7 1h-7l-6 1h-5l-5-1h-5l-3-2-4-2-6-6-5-10" style="clip-to-self:true;comp-op:src"/>
<path transform="scale(.1)" d="m3562.8 2067.8-4-1h-4l-6-1-12 2-5 2-7 3-6 3-12 9-14 12-14 16-8 10-9 12-9 13-10 16-10 17-10 19-10 21-9 21-8 23-7 24-5 25-4 25-2 26 1 24 4 23 5 21 8 19 11 16 13 15 16 12 18 11 20 8 23 6 24 5 26 3 27 1h28l27-2 26-3 26-4 62-12" style="clip-to-self:true;comp-op:src"/>
<path transform="scale(.1)" d="m4378.1 2075.9 5-2 5-1h4 6l6 2 7 1 16 6 9 3 9 4 10 5 10 6 10 7 9 8 9 9 8 10 7 11 6 13 4 14 4 15 2 15 1 17v16l-1 17-3 16-6 34-5 16-6 14-5 14-7 13-6 12-14 18-7 8-14 12-7 5-6 3-5 3-10 4h-4l-3 1h-4l-5-2-3-5" style="clip-to-self:true;comp-op:src"/>
<path transform="scale(.1)" d="m4644.1 2358.4-4 1h-5l-9-3-5-3-2-3-2-2-3-4-2-3-1-5-2-4-1-5-2-12v-6l1-7 1-8 1-7 3-9 2-9 4-9 4-10 5-12 5-11 7-12 14-26 18-23 9-11 9-10 9-8 9-6 8-5 8-4 8-3 6-1h6l6 1 4 3 5 4 3 4 3 6 2 7 2 8v9l1 10v11l-1 12-2 26-2 14-2 13-1 13-2 13-1 12v11l-1 11v10l1 9v8l1 7 1 5 2 5 2 4 2 3 3 2 4-1 4-5 4-16" style="clip-to-self:true;comp-op:src"/>
<path transform="scale(.1)" d="m4878.4 2117.8h4l4 6 2 4 2 6 3 6 3 7 2 7 4 9 2 9 6 22 2 11 4 11 6 24 2 11 4 11 4 20 3 9 3 7 2 7 1 5 4 8" style="clip-to-self:true;comp-op:src"/>
<path transform="scale(.1)" d="m4921.6 2135v-9-4l2-4 4-4 6-2 4-2h6l5-1 7-1h8l8 1 20 2 11 2 11 3 10 3 10 4 10 5 8 6 8 7 6 8 4 9 3 9 2 10v10l-1 11-2 12-3 12-4 11-5 11-12 20-7 8-15 15-14 10-7 3-12 4-5 1h-5-4l-3-1-3-2-4-4 1-12" style="clip-to-self:true;comp-op:src"/>
<path transform="scale(.1)" d="m5212.5 2160.9-2-4-3-3-2-4 4-2 6-1 4-1h5l7-1h7 8 8l9-1h9 26 6l6 1h5l3 1" style="clip-to-self:true;comp-op:src"/>
<path transform="scale(.1)" d="m5193.1 2225v3l3 3 5 1h3l4 1 4-1h6l6-1 16-2 9-1 10-2 22-4 11-1 11-2 10-1h9l9-1 6-1 5-1h3" style="clip-to-self:true;comp-op:src"/>
<path transform="scale(.1)" d="m5753.4 2102.2h-3l-8 4-4 3-6 4-5 6-6 6-5 7-5 8-6 9-5 10-6 10-5 10-15 33-5 10-4 9-5 9-6 16-3 6-2 5-1 5-2 6 1-4 2-6 1-4 4-10 2-6 2-7 4-8 3-9 4-9 10-22 6-12 6-13 7-14 8-15 10-14 18-30 9-14 9-13 7-10 11-16 7-6h4l4 5 2 4 2 5 2 7 3 7 2 9 3 9 3 10 2 10 3 11 3 12 2 12 3 13 3 14 3 15 2 14 3 15 2 15 2 14 2 13 3 12 1 11 2 10 1 9 2 7 1 6 2 5 1 3 3 4-4-11" style="clip-to-self:true;comp-op:src"/>
<path transform="scale(.1)" d="m5637.8 2273.8-2-3-1-3 1-3 5-4 3-3 4-3 12-8 16-8 9-4 10-3 11-4 11-2 11-3 12-3 11-2 11-3 10-3 22-6" style="clip-to-self:true;comp-op:src"/>
<path transform="scale(.1)" d="m5959.4 2322.2-3 2-5 1h-6-5l-5-2-3-2-4-3-4-6-2-6-1-5v-4l-2-10v-6l1-6 1-7 1-8 1-7 2-8 2-9 3-9 3-10 9-21 18-33 16-20 8-9 18-14 8-5 8-3 8-2h7 6l5 3 5 4 4 5 4 6 2 6 3 8 1 9 2 9 1 10 2 10v11 23 11l-2 22v10 17 7l2 7v5l2 5 4 6 4 4h3l7-7 1-3 3-11" style="clip-to-self:true;comp-op:src"/>
<path transform="scale(.1)" d="m6250.6 2094.1-5 2-3 2-7 5-4 5-5 4-5 6-4 6-5 8-5 7-5 9-4 9-4 10-3 11-2 10-1 10v12l2 11 1 10 4 11 4 10 5 9 6 9 6 8 21 24 7 7 7 8 6 6 6 5 5 5 5 4 4 3 4 2 8 2" style="clip-to-self:true;comp-op:src"/>
<path transform="scale(.1)" d="m6343.8 2125.9v5 3l1 4v5l1 5v6 8l1 8v42 11l1 12v12l2 22v10l1 9 1 8v7l1 5 1 4" style="clip-to-self:true;comp-op:src"/>
<path transform="scale(.1)" d="m6325 2138.1-1-3 2-5 2-2 4-2 10-4 7-2 8-2 8-1 10-2 20-2h20l10 1 10 2 16 4 6 3 5 4 4 5 2 4v6l-1 6-2 6-4 8-5 7-6 7-7 7-7 8-8 7-9 6-8 7-16 10-7 5-6 4-10 6-6 4 2 4 6 2h4 7 14l8 1h8l9 1 16 2 8 2 7 3 6 3 5 3 4 4 2 5 1 5v6l-2 6-3 6-5 6-6 7-6 6-7 6-6 5-8 5-14 8-6 4-7 3-6 2-10 2-4 1h-3l-4-2-2-4 1-6 2-3 1-5 6-10" style="clip-to-self:true;comp-op:src"/>
<path transform="scale(.1)" d="m6570 2310.3v4l-2 3h-4l-4-1-5-3-4-3-3-3-4-6-2-4-2-5-3-4-2-6-2-5-1-6-2-14v-8-9l4-18 4-10 11-22 7-10 7-12 8-11 8-10 10-9 9-9 10-6 9-5 9-4 9-2 9-1h9l9 1 8 2 8 4 7 3 12 10 5 6 4 8 4 7 2 9 1 9 1 10v10l-4 22-3 11-8 22-3 10-4 9-3 8-3 7-2 7-2 5-1 4v3 3l5-2 2-3 3-4 7-12" style="clip-to-self:true;comp-op:src"/>
<path transform="scale(.1)" d="m6814.4 2135.9v-4l-1-3 1 3-1 4v3l-1 6-1 7-1 10-1 9-4 48v23l2 22 2 18 4 14 2 6 2 5 4 6 3 4h4l1-5v-3l-2-9" style="clip-to-self:true;comp-op:src"/>
<path transform="scale(.1)" d="m6812.2 2160.9 1-4 3-5 4-4 3-1 8-4 5-1 6-2 14-2 16-2 27-3h18l8 1 8 2 7 2 6 3 5 4 4 4 3 6 2 7 1 6v8l-1 8-2 9-6 20-10 20-6 10-6 9-7 10-7 8-15 15-9 7-8 6-8 5-8 6-8 5-8 4-7 4-6 4-14 7-4 3 3-2 8-7" style="clip-to-self:true;comp-op:src"/>
<path transform="scale(.1)" d="m7001.9 2106.6 3-2 3-1h3 4 6l6 2 7 1 8 2 9 3 8 3 10 4 9 5 8 5 9 7 8 7 14 18 5 10 5 11 3 11 2 12v13 13l-2 12-3 14-4 12-5 13-6 12-5 11-7 11-7 10-14 16-7 7-8 6-7 6-7 5-8 4-14 8-8 4-14 6-15 6-3 1" style="clip-to-self:true;comp-op:src"/>
<path transform="scale(.1)" d="m3609.7 2933.8v-3-3h-3l-4 7-1 3-2 5-2 6-3 7-3 8-3 9-4 11-3 12-5 13-4 13-5 15-4 14-5 16-8 28-3 13-4 11-2 10-2 9-2 7-1 6v4l-1 3v4l3-10 1-4 1-6 2-5 2-8 3-9 2-9 6-24 8-28 5-16 5-15 7-17 12-34 8-17 7-16 8-15 7-14 7-12 7-10 6-8 5-6 4-3 2-2 5 2 3 7 1 5 1 6 1 8 1 9 2 9v9l6 33 4 24 1 13 3 13 2 15 3 14 4 30 3 15 2 14 2 13 3 11 2 11 2 9 2 8 2 6 1 5 2 5v3l1 3-3-2-2-3-4-3-11-8" style="clip-to-self:true;comp-op:src"/>
<path transform="scale(.1)" d="m3535 3090.6 1-4 2-3 3-3 2-3 5-2 4-4 6-3 8-3 7-4 9-4 18-10 40-16 10-3 20-4 9-1 9-2 8-1 7-1 6-1 11-1" style="clip-to-self:true;comp-op:src"/>
<path transform="scale(.1)" d="m3820 2958.4-1-3-2-5-4-4h-3l-3 2-2 4-1 4-1 5-1 6v6l-1 8v9 9 11l1 11 1 13 4 26 2 14 8 28 4 13 5 12 5 10 5 9 6 8 6 6 7 5 6 3 7 3 6 1h7 7l6-2 12-6 6-4 6-5 8-12 4-14 2-18-1-9-3-33-1-12-2-13-2-12-1-13-2-22-1-8-1-7v-5l-1-3 1 6v4 5 14" style="clip-to-self:true;comp-op:src"/>
<path transform="scale(.1)" d="m4043.1 2947.5 1-4 1 3 1 4v4l1 6v7l1 8v8l2 20 1 12 1 11 1 13v12l1 14 1 12 1 13 1 12 1 10 2 10 2 8 2 6 2 5 3 4 3-7" style="clip-to-self:true;comp-op:src"/>
<path transform="scale(.1)" d="m4064.4 2960.9 2-4 3-4 3-2 2-3 8-4 6-2 5-2 6-2 14-4 8-2h7l8-1h7l8 1 7 1 7 2 5 3 5 4 6 10 1 7v7l-1 8-3 8-4 8-4 9-6 9-6 8-6 9-8 8-7 8-7 7-8 6-12 10-6 4-4 3-4 2-4 3 5 2h5l6-1 7-1 8-1 10-2 10-1h11l11-1 10-1h11l20 2 10 2 8 2 7 3 7 4 4 5 3 6 2 7-1 7-2 7-3 7-5 7-6 8-6 6-16 12-18 10-9 4-10 4-18 5-9 2-8 2h-8l-7 1h-7-5l-5-1h-3l-3-1-4-3-3-6-2-8" style="clip-to-self:true;comp-op:src"/>
<path transform="scale(.1)" d="m3556.6 2835.6h-9-6l-12 2-12 4-13 7-6 5-7 5-14 14-7 9-8 11-7 13-8 14-7 15-8 17-8 18-7 19-6 21-6 22-8 46-1 23v21l1 20 4 19 6 17 7 14 8 13 12 11 12 9 15 8 15 6 19 4 19 2 21 1 22-2 56-5" style="clip-to-self:true;comp-op:src"/>
<path transform="scale(.1)" d="m4243.4 2877.8 2-3 4-3 3-1h4 6 6l7 1h8l9 2 10 1 11 2 10 3 12 4 11 5 10 6 11 7 9 9 9 10 7 11 7 14 5 15 3 17 2 18v19 19l-1 20-2 19-3 19-4 16-3 14-5 14-5 11-5 10-12 16-14 10-7 4-6 3-7 1-6 1-7 1h-5l-5-1-6-1-5-1-10-6-9-11" style="clip-to-self:true;comp-op:src"/>
<path transform="scale(.1)" d="m4516.6 2896.2-1-3-2 3v19l1 7v9l1 9 1 11 1 10 2 11 3 11 3 12 3 11 4 12 5 10 4 11 6 9 5 8 7 6 6 6 6 4 7 3 14 2 6-1 7-1 12-6 10-8 4-5 4-6 4-12v-7-8l-2-16-4-18-3-9-3-10-2-9-3-9-4-16-4-12-2-4-1-3v-5l2-2 5 1 3 1 6 3 3 1 4 2 9 4" style="clip-to-self:true;comp-op:src"/>
<path transform="scale(.1)" d="m4784.7 2899.4-1-5-1-4 2 8v4l1 5v6l2 16 1 9 2 20 2 11 2 12 4 22 2 12 2 11 3 12 2 10 3 10 2 8 3 7 2 6 2 5 3 2 4 1 2-3 1-4 2-12" style="clip-to-self:true;comp-op:src"/>
<path transform="scale(.1)" d="m4782.5 2909.7 3-6 5-6 3-4 4-3 5-3 10-4 14-4 7-1 16-2h9 10l9 1 11 2 10 3 20 8 9 6 8 6 7 8 5 9 3 10 2 12v11l-2 12-3 13-4 12-5 12-6 13-14 22-6 10-8 8-7 8-7 7-7 6-6 5-7 4-6 3-6 1h-6l-5-1-4-2-5-3-7-11" style="clip-to-self:true;comp-op:src"/>
<path transform="scale(.1)" d="m5282.5 2931.2-6 2 4 1 5 1h5l5-1h6l14-2h8l9-1h9l9-1 10-1h9 10 9 16l6-1h5 4" style="clip-to-self:true;comp-op:src"/>
<path transform="scale(.1)" d="m5250.3 3022.8-2 2-5 4-3 2-2 3 1 4h6 4l5-1 6-1 7-2 9-2 9-3 10-2 23-5 13-4 12-2 14-4 12-3 13-3 11-3 10-2 21-5" style="clip-to-self:true;comp-op:src"/>
<path transform="scale(.1)" d="m5740.9 2872.5 1-2 1-3 2-9 1-4 2-7 1-3 2-3 7-14 2-2v3l-2 4-2 6-1 4-2 5-2 6-3 6-2 7-6 16-6 20-7 21-5 12-4 12-4 11-3 11-8 22-3 9-4 10-3 9-6 16-2 7-3 6-2 6-2 5-1 4-1 3-2 4 2-4 1-4 2-4 2-5 2-4 2-6 3-6 9-21 4-8 8-18 3-10 9-21 5-11 4-11 10-24 5-11 4-13 5-12 4-11 4-12 5-10 5-9 3-8 5-7 3-6 4-5 3-4 3-3 6-4 5-2 6 2 5 3 3 3 2 4 2 5 1 7 1 8 1 9 1 11v11l1 12v12l1 13v12l2 24 2 11v11l2 11 2 9 2 10 1 9 2 9 3 7 2 8 2 6 3 6 3 5 2 4 2 5 3 3 4 6 3 2 4-1v-4l-1-3-6-9" style="clip-to-self:true;comp-op:src"/>
<path transform="scale(.1)" d="m5735 2999.7 4-1 3-1 4-1 3-1 5-2 5-1 6-1 14-4 8-3 14-4 7-3 14-4 6-2 5-1 5-2 9-2 3-2 6-5" style="clip-to-self:true;comp-op:src"/>
<path transform="scale(.1)" d="m6019.4 2838.4v4 2l-1 5v3 24 6l1 7 2 16 1 7 1 8 4 16 1 8 6 16 2 7 3 7 3 8 6 12 4 6 4 5 4 4 5 4 5 3 10 4 6 2 5 2 6 1 10 2h5l5 1h4 4 4l8-2h4l9-6 2-3 3-3 5-6 4-10 3-5 1-5 4-14 1-7 2-9 2-18 1-11 1-12 2-12 1-25 2-24 1-11 1-10 2-16 1-6v-5l1-5v-7l-1-5v-3l-3-1-2 4-1 5v5l-1 6v5l1 8" style="clip-to-self:true;comp-op:src"/>
<path transform="scale(.1)" d="m6358.1 2850-2-3-2-8 2-2 4 1 2 2 1 6 1 5 2 12v9l1 8v10l1 11 1 10v11l3 30v9l2 16 1 7v6l1 6 2 8v3l2 4 2-2 2-12" style="clip-to-self:true;comp-op:src"/>
<path transform="scale(.1)" d="m6354.4 2874.7v-3-7l2-7 1-3 3-3 2-4 8-6 5-3 6-4 7-3 6-3 7-3 7-4 8-3 8-2 16-5 8-1 8-2 8-1h8 13l6 1 5 1 5 3 7 7 4 12 1 6 1 7-1 7-1 8-4 16-2 7-4 8-3 7-4 7-5 6-5 5-5 6-6 5-6 4-5 5-12 6-6 4-5 3-5 2-4 2-4 1-6 2 2-4 3-1 3-2 9-5 4-2 6-2 13-5 7-2 21-3h7l8 1 6 1 7 1 10 4 5 3 4 3 3 4 2 3 2 5 1 4v4 5l-2 10-2 6-6 10-8 10-5 5-6 4-6 5-6 4-7 3-6 3-8 3-7 3-7 2-8 2-14 2-16 2h-8-7-7l-7-1h-7l-12-2-4-1-5-2-2-1-3-5v-3-3l1-3 2-4 4-9" style="clip-to-self:true;comp-op:src"/>
<path transform="scale(.1)" d="m6641.9 2837.2-1-4-2-5-1-6-2-8-1-3-2-3-3 1-1 5-1 4v4 6l-2 14v16l1 10v10l1 10 2 10 2 11 3 9 3 10 3 8 5 8 4 7 5 7 11 11 6 4 7 4 7 3 7 2 8 1 7 1h9l7-1 16-2 8-2 7-3 6-2 7-3 5-3 6-4 4-5 5-5 4-6 2-6 3-7 2-16v-9-10l-1-10-3-10-2-10-2-9-3-9-4-8-3-7-4-5-3-5-7-7-4-2-3-1-2-1h-4l-4 2v3l1 5 1 2 2 6 2 2 3 5 3 7" style="clip-to-self:true;comp-op:src"/>
<path transform="scale(.1)" d="m6948.1 2786.6-1-8-1-5v-3l1 5v4 5 53 10l1 12v11l2 11 2 20 4 17 2 7 4 13 2 5 4 8 5 5 3 1 5-2 3-2 4-9" style="clip-to-self:true;comp-op:src"/>
<path transform="scale(.1)" d="m6941.9 2765v-3l2-6 2-4 5-5 8-4 5-2 7-3 7-2 16-6 9-2 10-4 11-3 11-2 13-3 11-2 12-2 12-1h12 13l11 1 12 2 10 4 11 5 9 5 16 14 7 9 10 18 4 10 3 11 1 10 1 12-1 12-1 11-2 13-8 22-6 10-7 10-16 16-9 7-10 7-9 5-11 5-10 5-11 5-20 7-10 2-18 2h-9l-20-4" style="clip-to-self:true;comp-op:src"/>
<path transform="scale(.1)" d="m6352.8 2775.3v-3-4-4-3l-3-3-4-1-3 1-5 3-5 4-3 3-2 3-4 4-3 5-3 6-5 6-3 8-8 18-3 11-4 12-3 12-4 12-2 14-6 26-4 27-1 14-2 26v14l1 14 1 13 3 14 2 14 3 13 4 13 5 12 6 12 6 11 14 20 9 9 8 7 9 7 9 6 10 5 10 4 11 3 11 2 11 1h12l22-4 10-4 23-7" style="clip-to-self:true;comp-op:src"/>
<path transform="scale(.1)" d="m7147.8 2627.5 2-4 4-2 3-1 4-1h4 19 8l18 2 10 1 20 4 11 2 10 3 20 10 9 6 9 8 9 9 9 10 7 12 8 14 7 15 7 16 6 18 5 18 4 20 5 19 6 40 1 20 1 19 1 17-1 16-2 28-6 22-3 9-4 9-5 8-5 7-6 6-7 6-6 5-16 8-9 3-9 2-10 2-10 1-25-1" style="clip-to-self:true;comp-op:src"/>
</g>
</g>
</g>
</svg>
