<?xml version="1.0" encoding="UTF-8"?>
<svg width="1e3pt" height="1200pt" version="1.2" viewBox="0 0 1e3 1200" xmlns="http://www.w3.org/2000/svg">
<g id="surface20">
<rect width="1e3" height="1200" fill="#20282d"/>
<g fill="none" stroke-linecap="round" stroke-linejoin="round" stroke-miterlimit="10">
<g stroke="#fff">
<g stroke-width="14.1">
<path transform="scale(.1)" d="m4213.1 421.88 2-6 3-6 2-8 2-9 2-8 2-16v-9l1-8-1-8v-8l-1-9-1-8-2-8-1-9-6-14-3-8-5-7-4-6-5-6-6-5-7-4-8-4-9-1-10-1-11 1-12 1-13 4-14 4-15 5-14 6-15 7-30 16-28 18-13 9-13 10-11 10-9 9-8 10-6 9-4 8-1 9 1 8 3 8 4 7 7 7 7 8 18 14 11 7 24 16 14 8 28 20 15 11 15 12 14 13 13 14 12 15 10 16 7 16 6 17 4 17 2 16v17l-2 16-3 16-5 15-14 28-10 14-10 12-11 11-12 9-11 9-12 7-12 6-12 5-13 3-12 2h-12l-11-2-12-3-10-5-10-8-9-9-7-11-6-12-4-14-3-14-2-15v-14l5-33" style="clip-to-self:true;comp-op:src"/>
<path transform="scale(.1)" d="m4275.3 524.06-5-10-2-3-3-4-3 2-1 6v4l-1 5v5 6l-1 7v16l1 10v11l2 23 1 12 1 13 2 12 4 22 3 10 5 8 4 8 5 6 6 5 6 3 14 4h8l7-2 8-2 9-4 8-4 9-6 8-7 7-7 7-8 15-23" style="clip-to-self:true;comp-op:src"/>
<path transform="scale(.1)" d="m4264.1 514.69-1-5-1-2 2-6 2-3 3-4 4-3 5-4 6-5 6-4 7-5 6-5 7-4 7-5 6-4 7-3 5-3 5-2h4 4l3 5v4l-1 5-7 19" style="clip-to-self:true;comp-op:src"/>
<path transform="scale(.1)" d="m4250 598.44-1 4 3 2 8-4 4-3 10-8 6-4 7-5 6-5 7-5 7-6 12-12 15-14" style="clip-to-self:true;comp-op:src"/>
<path transform="scale(.1)" d="m4553.8 505.31-2-4-2-6-2 3v3l-1 5v6l-1 7-1 9-1 10-2 10-3 36-1 14v13 13 14 11l1 12 1 10 1 8 1 7 2 10 1 3 2 3-4-9" style="clip-to-self:true;comp-op:src"/>
<path transform="scale(.1)" d="m4459.7 524.69-4-12v-5l2-6 4-5 2-4 11-11 5-4 6-4 14-8 8-4 10-4 9-5 9-4 10-3 20-7 9-3 9-2 8-2 6-2 21-3" style="clip-to-self:true;comp-op:src"/>
<path transform="scale(.1)" d="m5151.6 451.25v-3l3-7 4-10 4-13 3-14 4-13 2-14 2-13 2-12 2-13v-12-11-12l-3-11-2-11-4-10-5-9-5-8-7-7-7-6-9-3-10-2-11-1-12 1-12 2-13 3-14 5-15 6-14 7-14 9-13 10-12 11-10 12-9 13-8 13-5 15-4 15-2 16v16l2 17 3 17 5 16 6 16 8 15 10 14 10 13 13 13 13 11 14 11 28 20 15 9 14 10 13 10 12 10 11 10 9 10 8 9 5 10 4 11 2 10v10l-2 12-4 10-5 11-8 11-9 11-21 21-12 9-14 10-14 9-30 16-16 6-15 7-28 8-12 2h-11l-9-1-7-3-7-5-6-8-8-21" style="clip-to-self:true;comp-op:src"/>
<path transform="scale(.1)" d="m5236.9 549.38 4 1 5 3 2 4 1 4 1 5 1 6v7 17l-2 18-1 11-4 20-2 11-2 9-2 10-3 10-3 18-2 8-2 7-1 6-2 8-1 3 1-11" style="clip-to-self:true;comp-op:src"/>
<path transform="scale(.1)" d="m5330 591.56-1-4v-3-4-4l1-3 2-4 2-2 3-4 3-3 4-3 5-4 5-3 6-4 7-3 12-6 6-2 7-1 6-1 5-1 5 1 8 4 3 4 2 6 1 5-1 8-1 9-4 9-4 11-5 12-6 12-7 11-6 12-6 11-6 10-6 9-5 9-5 8-4 8-3 7-2 6-1 5-1 4 1 4 1 3 2 3 5 2 4 1 5 1h6 7l8-1 7-1 7-2 16-4 12-4 6-3 10-4 6-4 2-4-1-4" style="clip-to-self:true;comp-op:src"/>
<path transform="scale(.1)" d="m5548.8 546.25-3-2h-4l-4 2-3 2-4 6-4 8-3 5-2 5-4 14-2 8-1 9-2 10-1 10v12 11 11 11l2 11 3 10 4 10 5 9 6 8 7 7 9 6 8 5 10 4 9 2 11 1h10l11-1 11-2 20-6 8-5 16-12 15-18" style="clip-to-self:true;comp-op:src"/>
<path transform="scale(.1)" d="m5560 528.12v-3-3l1-4 2-4 3-3 2-3 4-2 10-6 5-2 5-3 12-6 5-2 7-3 18-3 5-1h4 4l5 5" style="clip-to-self:true;comp-op:src"/>
<path transform="scale(.1)" d="m5545.9 644.38 5-3 10-4 7-4 9-4 8-6 10-6 11-7 28-20" style="clip-to-self:true;comp-op:src"/>
<path transform="scale(.1)" d="m5835.3 475-6-2-4-1h-4-4l-5 1-4 2-10 8-6 5-6 4-7 6-6 6-7 6-6 7-6 6-5 6-4 7-3 6-1 6 1 5 2 6 3 5 5 4 6 5 7 4 8 5 18 8 10 5 11 4 10 4 9 5 9 4 8 6 6 4 5 6 4 5 3 7 1 6-1 6-2 7-3 8-5 7-6 8-6 7-24 18-18 8-9 2-11 1h-10l-11-1-30-7" style="clip-to-self:true;comp-op:src"/>
<path transform="scale(.1)" d="m3797.5 975.31h-5l-4-1 4 3h3l4 1h4 12 6 8l9 1h10l12 1 13 1 14 1h16l18 1 19 1 22 1h50l29-1 32-2 35-2 37-2 40-4 41-4 43-4 45-5 46-5 49-4 49-5 50-5 100-8 102-8 53-3 52-3 54-3 53-2 108-4 54-1 54-2 55-1 108-4 54-1 54-2 52-2 53-3 51-3 51-2 50-3 48-3 47-2 46-3 45-3 42-2 41-2 39-2 36-2 33-1h30 28 26l23 1 21 1 20 1 16 2 15 2 13 2 11 2 9 3 8 2 10 5 3 2 2 3-7-2" style="clip-to-self:true;comp-op:src"/>
<path transform="scale(.1)" d="m494.38 4909.1-2-3-4-3-6-3-4 2-2 4-1 3v6l-1 7v10 13 15l-1 17-1 19v21l-1 22-1 23-2 50-2 52-1 24-2 24-2 20-2 19-1 16-2 13-2 11-2 8-1 6-2 3-3 1-4-6-2-5-2-7-1-9-2-10-2-12-2-14-1-16-2-17-1-19-1-22v-22-25-25l2-26 4-54 4-28 5-26 6-26 6-23 7-21 7-18 7-16 7-12 5-10 6-7 5-4 4-2h4l3 3 3 5 3 6 2 7 2 9v10l2 10v11l1 12 2 13 1 13 2 15 4 28 3 15 4 14 5 14 4 15 6 14 5 14 5 16 12 30 5 16 6 15 5 16 10 28 4 13 4 12 3 11 3 9 2 8 2 7 2 6 3 12-3-1-4-7-3-5-3-7-10-22" style="clip-to-self:true;comp-op:src"/>
<path transform="scale(.1)" d="m470 5180.3 4-8 3-4 4-3 7-4 4-3 5-3 5-4 6-3 7-5 6-4 7-6 8-5 7-5 16-11 8-5 9-5 8-4 8-5 8-4 7-5 6-4 15-12" style="clip-to-self:true;comp-op:src"/>
<path transform="scale(.1)" d="m662.81 4918.1 1 5 1 4 1 5 1 6 1 7 1 8 1 10 1 11 1 12 2 13 1 14 3 14 1 15 1 14 2 15 2 14 1 14 2 14 2 24 2 11 1 8 1 7 2 5 1 4 2 4 2-2 2-6 1-5 1-6 1-7 2-8 1-9 3-10 1-11 3-13 2-14 3-16 2-17 5-48" style="clip-to-self:true;comp-op:src"/>
<path transform="scale(.1)" d="m757.5 4803.1v-5-3l1-3-2 6-2 5-2 8-2 9-2 11-1 11-6 36v12 13 14l1 14 2 15 2 16 2 17 8 38 4 20 8 44 5 22 4 22 4 21 4 20 5 18 3 16 4 12 4 11 3 8 3 6 3 4 5 1 3-5 4-18" style="clip-to-self:true;comp-op:src"/>
<path transform="scale(.1)" d="m991.88 5066.6-1 17-2 18-2 17-5 18-5 17-14 34-9 16-10 16-11 16-13 15-13 14-15 14-15 13-16 13-18 12-18 11-19 10-20 10-21 8-44 14-23 5-23 4-23 3-24 2-24 1-23-1-24-2-23-3-23-4-23-5-44-14-21-8-20-10-19-10-18-11-18-12-32-26-28-28-12-15-11-16-10-16-9-16-8-17-6-17-5-17-5-18-3-17-1-18-1-17 2-36 3-18 10-34 6-17 8-17 9-16 10-16 11-15 12-16 28-28 16-14 16-12 18-12 18-11 19-11 20-9 21-8 22-8 22-6 23-5 23-4 23-3 24-2 23-1 24 1 24 2 23 3 23 4 23 5 22 6 22 8 21 8 20 9 19 11 18 11 18 12 16 12 30 28 13 14 13 16 11 15 10 16 9 16 14 34 10 34 4 36 1 18" style="clip-to-self:true;comp-op:src"/>
<path transform="scale(.1)" d="m2797.5 2406.2h-4-4-3l-4 1-3 1-4 1h-4l-10 4-3 1-10 2-3 1 4-1 3-1 4-2 5-2 6-3 7-3 7-4 9-3 8-4 9-3 10-3 9-4 10-2 27-6h8 7 6l6 2 4 2 4 3 2 4 1 5v6l-1 7-2 8-4 9-4 10-12 20-16 22-9 10-10 11-32 32-48 44-21 21-9 10-8 10-7 9-5 7-4 7-2 6v5 4l5 5 4 1 5 1h6l7-1 8-1 9-3 10-2 12-3 24-8 14-4 13-3 26-8 24-4 10-2 9-1 8-1h6l6 1 4 1 3 1 3 4-1 4" style="clip-to-self:true;comp-op:src"/>
<path transform="scale(.1)" d="m2998.1 2590 4-1 5-1 14-7 6-4 12-10 7-5 15-13 21-21 6-8 6-7 5-7 5-8 7-14 2-7 1-6 1-5-1-5-1-3-2-3-4-1h-4l-5 2-6 4-7 6-7 7-8 9-8 12-9 12-8 14-9 15-8 15-8 16-7 15-6 16-5 15-3 16-4 28v11l2 9 3 7 4 5 6 3 8 1 9-1 10-4 11-5 11-8 12-9 22-22 26-32" style="clip-to-self:true;comp-op:src"/>
<path transform="scale(.1)" d="m3170 2491.6 8 2 4 2 5 2 3 2 2 3 3 4 3 5 2 12 1 7v8 9l-1 9-4 18-3 8-2 8-3 8-3 6-6 10-2 3-3 3-3 2-3-1-2-6v-4-6l1-6 2-7 6-16 5-9 4-10 18-33 14-22 7-9 6-9 7-9 6-7 7-6 5-5 6-5 6-3 4-3 10-5" style="clip-to-self:true;comp-op:src"/>
<path transform="scale(.1)" d="m3308.8 2457.8v3l-1 5-1 3-1 5-2 5-2 6-2 7-2 8-3 7-2 8-2 7-3 8-1 8-2 7-2 14v7 7 6l2 6 2 5 2 4 3 4 8 4h5 6l12-4 14-8 12-10 6-7 6-6 4-7 3-8 4-16v-8l-1-8-2-8-3-8-3-6-3-7-5-6-5-5-12-8-14-2h-7l-8 2-16 6-8 5-7 5-7 6-5 6-5 4-3 6-3 10" style="clip-to-self:true;comp-op:src"/>
<path transform="scale(.1)" d="m3812.2 2369.7-4-4-4-2h-4-6-6l-6 2-8 2-7 3-9 4-8 5-9 6-9 7-10 8-10 10-10 12-10 13-10 14-9 16-8 15-8 16-12 30-5 14-2 13-2 12v12l2 10 2 8 5 6 6 5 7 2 9 1 10-1 12-2 14-3 15-5 16-6 17-6 17-8 36-18 17-9 17-10 15-11 15-10 14-11 13-11 12-11 10-10 9-11 7-9 6-10 4-9 2-8 1-7v-7l-2-6-3-6-4-6-6-4-6-5-7-4-8-4-8-3-10-3-9-2-11-1-10-1h-11l-11 1-12 2-10 2-11 2-11 3-10 2-18 5-9 3-8 2-17 5" style="clip-to-self:true;comp-op:src"/>
<path transform="scale(.1)" d="m3820.3 2271.9v-4l-2-5-1-3h-4l-1 3-2 5-2 10-1 6-2 8-1 7-2 9-2 10-2 11-3 13-2 13-3 16-4 18-4 19-4 22-6 23-6 25-6 24-6 25-7 25-6 25-7 25-7 23-6 23-7 20-6 19-6 16-4 14-5 12-4 9-2 8-3 6-2 3" style="clip-to-self:true;comp-op:src"/>
<path transform="scale(.1)" d="m4250.9 2508.1v14l-2 14-1 14-3 14-8 28-12 28-7 14-7 13-9 14-9 13-10 14-11 13-24 26-14 13-14 12-15 13-16 12-17 12-36 24-19 11-21 12-21 11-22 10-23 11-24 10-25 10-52 18-28 9-29 8-30 8-30 7-32 7-66 12-35 5-35 4-72 6-37 2-74 2-74-2-37-2-72-6-35-4-35-5-66-12-62-14-30-8-29-8-28-9-52-18-25-10-24-10-23-11-22-10-21-11-20-12-20-11-36-24-17-12-16-12-15-13-14-12-26-26-12-13-11-13-10-14-9-13-8-14-8-13-7-14-6-14-10-28-6-28-2-14-2-28 2-28 2-14 6-28 10-28 6-14 7-14 8-13 8-14 9-13 10-14 11-13 12-13 26-26 14-12 15-13 16-12 17-12 36-24 40-22 21-11 22-11 23-11 24-10 25-9 26-10 26-9 28-8 29-9 30-7 31-8 31-6 33-7 33-5 35-5 35-4 36-4 36-3 37-2 74-2 74 2 37 2 36 3 36 4 35 4 35 5 33 5 33 7 32 6 30 8 30 7 29 9 28 8 26 9 26 10 25 9 24 10 23 11 22 11 42 22 19 11 36 24 17 12 16 12 15 13 14 12 14 13 24 26 11 13 10 14 9 13 9 14 7 13 7 14 12 28 8 28 3 14 1 14 2 14v14" style="clip-to-self:true;comp-op:src"/>
<path transform="scale(.1)" d="m2658.4 4881.9-1-6-1-5-1-6-2-10-1-4v-3-3l-1-5-2 6-1 5-1 7-2 9-2 11-2 14-2 16-3 18-3 21-2 21-5 47-4 46-2 21-1 20-1 18-1 16v14 23 8l1 7 2 8 4 3 5-2 3-3 5-10 3-7 2-9 5-27" style="clip-to-self:true;comp-op:src"/>
<path transform="scale(.1)" d="m2637.8 4855-2-4-2-5 1-4 4-4 3-2 5-2 6-3 7-3 8-3 9-3 9-4 11-5 11-3 12-5 39-12 25-7 22-4h9l8 1 6 2 5 3 2 5 2 6-2 7-3 8-5 8-7 10-23 26" style="clip-to-self:true;comp-op:src"/>
<path transform="scale(.1)" d="m2614.7 5008.4-3 3-4 6v4l2 4 3 1 4 1h4 5l6-2 7-2 7-3 8-4 9-4 20-10 11-6 23-11 24-12 11-6 11-7 10-6 24-12" style="clip-to-self:true;comp-op:src"/>
<path transform="scale(.1)" d="m2852.8 5012.5-4 4-3 6-2 10-2 7-1 6-2 15-1 8-1 7-2 8-1 8v8l-1 8v7 6l1 6 1 4 1 3 2 4 6-9" style="clip-to-self:true;comp-op:src"/>
<path transform="scale(.1)" d="m2874.7 4942.2-4-6-3-4-2-3-4-3-3 2-1 6-1 4-1 5v5l-1 6v13l1 7v7l2 12 4 14" style="clip-to-self:true;comp-op:src"/>
<path transform="scale(.1)" d="m2913.8 5013.4-3 4v71l2 12v6l1 5 1 4 1 3 2 4 3 2 3-4 2-5 1-3 1-4 1-5 3-4 1-5 3-5 2-6 4-6 3-7 5-7 4-8 7-9 6-8 7-9 14-16 8-6 7-5 8-4 6-2 5-1 5 1 7 7 2 7 2 8v8l1 9v10l1 10v11 10l1 10v9l1 9 1 8 4 12 2 3 4 1h4l5-2 6-4 13-13 7-8 7-9 14-20 12-22 5-11 6-10 4-9 4-8 4-6 2-4 2-2 3 1 1 4 1 5v8 9 30l1 11v12l1 11 2 12 1 12 3 11 2 10 3 9 3 6 4 5 3 2h4l4-3 3-4 4-6 9-20" style="clip-to-self:true;comp-op:src"/>
<path transform="scale(.1)" d="m3190.6 4948.1-4-2-4-1-2 2 3-1 3-6" style="clip-to-self:true;comp-op:src"/>
<path transform="scale(.1)" d="m3247.2 4856.2 2-6 1-4v-3l2-4 3-2 3 1 4 4 2 3 1 5 2 7 1 9 1 10 1 13 1 15v17 19 62l1 20v19l2 16 2 14 2 12 3 10 4 9 4 6 5 6 5 4 5 3 5 2 5 1h6l6-2 5-1 6-3 5-4 6-4 8-10 7-13" style="clip-to-self:true;comp-op:src"/>
<path transform="scale(.1)" d="m3264.7 5032.5-2-7v-5l2-6 4-5 6-7 8-8 11-7 6-4 7-4 7-3 40-20 19-9" style="clip-to-self:true;comp-op:src"/>
<path transform="scale(.1)" d="m3392.2 5022.5 1 5 1 4 3 3 4 1h6l4-2 9-4 4-3 6-4 5-3 6-5 6-6 5-6 6-6 4-7 5-7 3-7 2-8 4-14v-6-6l-1-6-2-5-1-4-4-3-2-2-3-2h-4l-3 1-4 2-4 3-3 4-4 5-4 7-4 8-4 9-4 10-9 30-2 10-2 9v9 7l1 8 2 6 8 10 5 4 7 2 9 2h9l11-1 12-2 12-4 13-5 33-15" style="clip-to-self:true;comp-op:src"/>
<path transform="scale(.1)" d="m3825.9 4959.4v14l-2 15-2 14-3 14-8 28-6 14-7 13-7 14-8 13-9 14-10 13-11 13-11 14-13 13-13 12-14 13-15 12-51 36-19 11-40 22-22 11-46 20-25 9-52 18-56 16-29 7-62 12-66 10-33 4-34 3-35 2-70 2-36-1-35-1-34-2-35-3-33-4-66-10-31-6-30-6-30-7-29-8-27-8-27-9-50-18-46-20-42-22-20-11-18-11-18-12-17-12-16-12-15-12-15-13-13-12-13-13-11-14-11-13-10-13-9-14-8-13-7-14-7-13-6-14-8-28-3-14-2-14-1-15-1-14 2-28 2-14 3-14 8-28 6-13 14-28 8-14 9-13 10-13 11-14 11-12 13-14 13-12 15-13 15-12 16-12 17-12 18-12 18-11 20-11 42-22 46-20 50-18 27-9 27-8 29-8 30-7 30-6 31-6 33-6 66-8 35-3 34-2 35-1 36-1 70 2 35 2 34 3 66 8 33 6 62 12 29 7 56 16 52 18 25 9 46 20 22 11 40 22 19 11 51 36 15 12 14 13 13 12 13 14 11 12 11 14 10 13 9 13 8 14 14 28 6 13 8 28 3 14 4 28v14" style="clip-to-self:true;comp-op:src"/>
<path transform="scale(.1)" d="m2698.1 7038.1 1-3v3l-1 4v5l-1 7-1 9-1 11-1 14-1 15-1 19v19l-1 21v44l1 22v23l1 22 2 23 2 21 2 20 2 18 2 16 2 14 3 13 3 10 3 9 4 7 2 6 3 4 4 4 2 1 3 1 3-1 4-5 3-10" style="clip-to-self:true;comp-op:src"/>
<path transform="scale(.1)" d="m2812.5 7294.4 2-8 4 2 3 5 1 4 1 6 1 7v8 10 65l1 9 1 8v6l1 5 1 4 2 4 3-1 2-4 3-4 4-12 4-8 2-8 3-9 3-10 4-11 2-11 4-11 4-12 4-10 4-11 5-8 4-7 4-3 3-2 6 2 1 3 2 7 1 9 2 10 1 12 1 13 2 29v14l4 28 3 13 3 12 4 11 5 9 5 6 7 3h6l8-3 9-5 9-8 10-9 27-29" style="clip-to-self:true;comp-op:src"/>
<path transform="scale(.1)" d="m3140.3 7085.6-2-6-2-5-4-7-4-5-5-5-4-3-5-3-6-2-4-2h-6-4l-10 4-5 3-5 5-7 14-4 10-2 13-2 14-2 16-1 17v19 20l1 21 2 44 3 72v24l2 24 2 22 1 22 4 40 1 17 2 17 2 15 2 13 1 12 1 9 1 8 1 6 1 5 1 3-8-8" style="clip-to-self:true;comp-op:src"/>
<path transform="scale(.1)" d="m3007.8 7407.2v-6l1-6 4-16 4-8 5-8 6-7 6-8 8-8 8-9 9-8 9-7 10-7 9-6 9-5 9-4 9-3 8-2 9-1h7l8 2 7 2 12 10 5 7 5 9 4 10 3 10 2 12 2 13 1 15 1 14 1 15v15 14l2 24 1 10 1 8 1 4 2 5 3 1 3-7 2-7 6-20" style="clip-to-self:true;comp-op:src"/>
<path transform="scale(.1)" d="m3254.4 7266.6-4-9-2-3-3 3v16l2 8 2 10" style="clip-to-self:true;comp-op:src"/>
<path transform="scale(.1)" d="m3341.2 7389.4-3 1-5 1-4 1-3 1-1-3 1-5 1-3 1-4 6-11 3-5 4-6 5-7 5-6 11-13 5-6 6-6 5-4 6-3 4-3 4-1h4l2 1 5 5 1 5 1 7v8 9 10 11l-1 12v24l1 12v11l1 10 2 8 1 8 4 10 2 3 4 1 4-3 3-3 3-4 3-5 4-5 3-6 3-7 4-8 3-7 4-8 4-9 3-9 4-9 4-10 5-10 6-10 5-9 6-9 5-8 15-15 4-3 3-1 2 1 1 5v29l1 5v6l1 7 2 5 4 12 2 5 2 6 3 5 3 4 4 5 7 9 12 9 4 2 3 1 4 1 6-2 2-4 3-7" style="clip-to-self:true;comp-op:src"/>
<path transform="scale(.1)" d="m3613.4 7311.2v5l-1 3-2 12-2 5-2 7-1 6-2 7v7l-1 6v7 11 5 5l1 4 6 12 3 3 4 2 5 1h6l12-2 7-3 7-4 8-5 7-5 6-6 12-14 8-16 6-21" style="clip-to-self:true;comp-op:src"/>
<path transform="scale(.1)" d="m3653.8 7199.7-2-3-4-2-3-1h-3l-4 2-3 2-3 3-3 4-1 5v2 4 4l1 3 2 4 2 3 2 4 3 3 4 2 7 3h5 4 5l9-3 3-2 4-4 2-3 2-4 2-5v-5-5l-1-5-2-6-2-5-3-6-3-4-3-5-4-4-4-3-3-2-4-2h-4-4l-4 2-3 3-6 8-3 5-1 5-1 4 4 10" style="clip-to-self:true;comp-op:src"/>
<path transform="scale(.1)" d="m3845.9 7130v-62-4-2l-1 3-1 4-1 7-1 10-2 13-3 15-3 17-2 19-3 19-6 42-2 21-3 23-2 44v20l1 20 1 18 3 15 4 12 5 10 6 8 6 6 7 3h8l8-1 9-3 8-5 10-6 16-16 8-10 15-25" style="clip-to-self:true;comp-op:src"/>
<path transform="scale(.1)" d="m3803.1 7284.1-4-2-5-3-1-3 2-3 7-6 5-3 4-4 7-4 6-4 16-8 8-5 10-4 9-5 8-4 9-5 19-9" style="clip-to-self:true;comp-op:src"/>
<path transform="scale(.1)" d="m3961.9 7295.3 1 4 3 3 6-1 4-1 15-9 5-4 17-17 6-7 15-21 4-7 4-6 3-7 2-5 1-5v-3l-4-5-3-1h-5l-5 2-6 3-7 4-6 5-8 6-6 8-7 8-7 10-6 10-6 11-10 22-3 12-2 10-1 10 1 8 2 8 4 6 7 5 9 5 10 2 13 2h14 16l17-2 18-3 18-5 43-14" style="clip-to-self:true;comp-op:src"/>
<path transform="scale(.1)" d="m4250.9 7297.5v15l-2 15-1 15-3 15-8 30-5 15-6 15-7 15-8 15-8 14-9 15-10 14-11 14-24 28-13 14-14 13-15 14-32 26-17 12-19 13-38 24-21 12-44 22-23 10-24 11-25 9-26 10-27 9-27 8-28 8-30 8-30 6-30 7-96 15-33 3-34 3-34 2-34 1h-34-34l-35-1-33-2-34-3-33-3-33-5-32-5-31-5-31-7-30-6-29-8-56-16-27-9-25-10-25-9-24-11-23-10-23-11-21-11-21-12-20-12-19-12-18-13-17-12-17-13-15-13-15-14-14-13-14-14-12-14-22-28-10-14-9-15-9-14-14-30-6-15-5-15-8-30-3-15-2-15-1-15v-15-16l1-15 2-15 3-15 8-30 5-15 6-15 7-15 7-14 18-30 10-14 22-28 12-14 14-14 14-13 15-14 15-13 34-26 18-12 19-12 20-12 21-12 21-11 23-11 23-10 24-10 50-20 27-9 56-16 29-8 30-7 31-6 31-5 32-5 66-8 34-3 33-2 35-1h34 34l34 1 34 2 34 3 33 4 32 4 64 10 30 6 30 7 30 8 28 8 27 8 27 9 26 10 25 10 24 10 23 10 44 22 21 12 57 36 17 13 32 26 15 14 14 13 13 14 24 28 11 14 10 14 9 15 8 15 8 14 7 15 6 15 5 15 8 30 3 15 1 15 2 15v16" style="clip-to-self:true;comp-op:src"/>
<path transform="scale(.1)" d="m7101.6 6132.2-3-1-7-5-3-3-3-2-3-3-1-4-2-4v-4l2-10 3-7 4-7 5-7 6-8 6-9 7-8 8-8 10-9 9-8 10-8 11-7 11-6 10-5 11-4 10-2 9-1 9 1 7 3 7 5 4 7 3 10 1 13-1 15-3 17-4 19-6 20-7 20-8 22-9 22-20 46-11 24-12 22-10 21-10 20-10 19-8 16-7 15-6 14-4 12-3 10-2 9v8l2 6 2 4 3 4 5 2 5 1 6 1h7l9-1 18-4 20-6 9-4 10-4 8-3 18-7" style="clip-to-self:true;comp-op:src"/>
<path transform="scale(.1)" d="m7190.6 6537.8-4 2-12 12-15 18-8 14-4 8-3 7-2 7-2 12v4l1 4 1 2 3 3 4 1h4 6 7l7-2 16-4 8-3 8-4 7-4 8-4 6-4 9-9 4-10v-4l-1-4-2-5-7-7-4-3-6-3-6-2-6-1-7-1-7 1-8 1-8 2-7 4-9 6-8 5-9 7-8 6-8 7-17 15" style="clip-to-self:true;comp-op:src"/>
<path transform="scale(.1)" d="m7077.2 8267.5 4-10 3-5 3-6 8-12 5-5 5-6 5-5 12-10 6-4 12-6 5-1h6 4l5 3 3 4 3 5 2 7 1 7 1 9-1 11-1 12-2 12-4 14-4 15-12 30-5 16-6 15-6 14-4 14-4 12-3 12-2 9-1 9v7l2 6 2 5 4 5 5 4 6 3 6 4 7 2 8 2 18 2h10l20-2 9-1 10-1 8-2h7l5-1 4-1 3-1" style="clip-to-self:true;comp-op:src"/>
<path transform="scale(.1)" d="m7257.8 8607.5-3 2-3 3-3 4-4 4-12 15-4 6-3 6-4 6-7 12-3 7-2 7-3 8-2 6-1 8-1 7v8l2 14 2 6 2 5 3 4 2 4 6 3h4l4-1 3-1 6-6 3-4 3-5 2-6 2-7 1-6 1-8v-7l-1-7-1-6-3-7-2-5-4-5-6-8-4-2-3-2-4-2h-4l-4 2-5 2-5 4-6 4-7 5-8 5-9 7-28 16" style="clip-to-self:true;comp-op:src"/>
<path transform="scale(.1)" d="m7506.2 6279.7v29l-2 29-2 28-3 28-4 28-5 28-6 27-7 26-7 25-8 25-9 24-10 24-20 44-11 21-12 20-12 19-13 18-13 17-14 16-13 16-14 14-15 14-30 24-15 11-15 10-16 9-16 8-16 7-16 6-16 5-17 4-16 4-17 2-16 1-17 1-16-1-17-1-17-2-32-8-17-5-16-6-16-7-16-8-15-9-16-10-15-11-30-24-28-28-28-32-13-17-13-18-12-19-11-20-12-21-20-44-10-24-9-24-8-25-7-25-7-26-5-27-5-28-8-56-2-28-2-29v-29-29l2-29 2-28 4-29 4-27 5-28 5-27 14-52 8-24 9-25 10-23 20-44 12-21 11-20 12-19 13-18 13-17 14-17 28-30 14-13 15-13 30-22 16-10 15-9 16-8 16-7 16-6 17-5 32-8 34-4h16 17l16 2 17 2 16 4 17 4 16 5 16 6 16 7 16 8 16 9 15 10 30 22 30 26 14 15 13 15 14 17 13 17 13 18 12 19 12 20 11 21 20 44 10 23 9 25 8 24 14 52 6 27 5 28 4 27 3 29 2 28 2 29v29" style="clip-to-self:true;comp-op:src"/>
<path transform="scale(.1)" d="m7510 8464.4v32l-4 62-8 60-5 30-6 28-7 27-8 27-8 26-9 25-9 23-10 23-10 21-11 21-12 20-11 18-12 18-26 32-12 14-14 14-13 12-14 12-14 10-14 9-15 9-14 7-15 7-15 5-14 5-30 6-30 2-30-2-30-6-30-10-14-7-15-7-28-18-14-10-14-12-13-12-14-14-13-14-13-16-12-16-24-36-11-20-22-42-10-23-9-23-9-25-8-26-14-54-6-28-5-30-8-60-4-62-1-32 1-31 4-62 8-60 5-29 6-29 14-54 8-26 9-25 9-23 10-23 11-22 22-40 24-36 12-16 13-16 13-14 14-14 13-12 14-12 28-20 14-8 15-7 14-7 15-6 15-4 30-6 30-2 30 2 30 6 14 4 15 6 15 7 14 7 15 8 28 20 14 12 13 12 14 14 12 14 26 32 12 18 11 18 12 20 11 20 10 22 10 23 9 23 9 25 8 26 8 27 7 27 6 29 5 29 8 60 4 62v31" style="clip-to-self:true;comp-op:src"/>
<path transform="scale(.1)" d="m850.31 4817.8 1933-1933-95 26 95-26-26 96" style="clip-to-self:true;comp-op:src"/>
</g>
<path d="m99.188 510.12" stroke-width="1.41" style="clip-to-self:true;comp-op:src"/>
<g stroke-width="14.1">
<path transform="scale(.1)" d="m991.88 5101.2h1275l-85-49 85 49-85 50" style="clip-to-self:true;comp-op:src"/>
<path transform="scale(.1)" d="m708.44 5384.7 1843 1842-26-96 26 96-96-26" style="clip-to-self:true;comp-op:src"/>
<path transform="scale(.1)" d="m4250.9 7226.6 2409-992-98-13 98 13-60 78" style="clip-to-self:true;comp-op:src"/>
<path transform="scale(.1)" d="m4250.9 7368.4 2551 1276-55-83 55 83-99 6" style="clip-to-self:true;comp-op:src"/>
<path transform="scale(.1)" d="m8108.1 7111.6-2-4-1-3-3-4-5-1-4 3-2 5-4 7-3 10-4 11-4 12-4 14-5 17-6 18-6 20-7 22-7 24-8 27-7 27-8 28-14 54-6 24-6 21-4 19-4 15-2 11-1 9-1 4v4l3-8 2-8 3-10 4-13 4-15 5-16 6-18 5-19 10-42 6-23 5-24 6-25 7-25 6-26 16-52 9-23 9-21 8-19 8-14 6-11 5-7 4-4 3-1 2 2 3 6 1 7 2 11 1 13 2 15 1 17 2 18 4 40 6 42 3 23 8 44 5 21 5 20 6 18 5 16 6 15 6 13 6 12 6 10 5 9 7 14 3 5 2 4 1 3-1 3h-5l-5-1-14-1" style="clip-to-self:true;comp-op:src"/>
<path transform="scale(.1)" d="m7993.1 7450.3v-5l1-5 2-14 3-6 3-4 4-4 4-3 6-2 12-6 8-3 8-4 9-2 20-6 11-2 36-6 12-1 13-2 12-1 11-2 29-1" style="clip-to-self:true;comp-op:src"/>
<path transform="scale(.1)" d="m8345.3 7331.6-3-3-3-2-4-2-6-2-6-1h-6l-6 1-14 2-7 3-7 2-7 3-7 5-6 5-6 7-6 8-6 10-5 10-4 12-3 13-1 12v13 13l2 11 4 12 3 10 12 16 6 5 9 3 8 1 10-1 10-5 11-6 11-8 23-23 10-13 10-14 9-16 7-16 6-18 5-18 3-20 2-19 1-21v-21l-1-22-2-42-3-21-2-19-2-17-2-14-3-11-2-8-2-5-3-3-4 2-3 5-2 8-2 10-1 13-1 14v16 17l2 19 1 19 6 40 3 21 3 22 8 42 4 19 3 19 5 18 4 16 5 14 5 12 14 23" style="clip-to-self:true;comp-op:src"/>
<path transform="scale(.1)" d="m8449.4 7345.6-1-5-2-3-2 6-1 6v7l1 7v8l1 9 2 10 1 9 6 30 6 22 3 10 4 10 5 9 4 7 5 5 5 4 5 2h5l5-2 6-4 5-5 4-7 4-8 4-10 3-11 2-11 2-13 2-28 1-15v-16-28l1-11v-29-3l3 2 1 3 2 5 1 6 4 14 2 8 3 23" style="clip-to-self:true;comp-op:src"/>
<path transform="scale(.1)" d="m8655.9 7361.2v-4-5-4l-2-5-1-4-2-3-6-4-3-1h-3l-10 2-10 5-11 11-10 14-4 9-3 9-6 20-2 20-1 11 2 18 2 8 2 7 4 6 3 3 5 3h5l5-2 7-3 7-4 7-6 7-7 7-8 7-9 7-8 7-9 5-8 4-8 3-7 2-6 1-6v-5-3-3l-2-3-2 3-1 3-1 4v5l-1 6v7 7 6l1 8 1 7 1 6 2 7 6 10 3 3 4 2 3 1 4-1 4-2 8-8 8-14 3-7 4-8 2-8 3-8 4-14 2-6 2-9 2-3 1-2 4 2 1 3 1 4 1 6 2 6 3 24 2 9 1 8 4 16 4 12 2 4 3 2 5 1 3-2 3-3 3-5 3-6 3-7 2-8 3-8 3-9 3-10 6-19 4-10 3-9 5-9 6-9 6-8 6-7 7-6 6-4 6-3 5-1 5 1 4 3 3 4 3 6 3 8 2 9 1 10 2 24 1 14v13l1 15 1 13 1 14 1 11 1 10 2 7 3 5 4 2 3-1 5-4 4-6 12-21" style="clip-to-self:true;comp-op:src"/>
<path transform="scale(.1)" d="m9019.4 7337.5v-5l1-4v-5-5l-2-8-4-6-4-4-3-2h-6l-4 1-8 6-3 5-4 7-4 8-2 9-6 24-2 13-1 13-2 13v13l1 13 2 13 2 11 5 9 5 8 7 7 8 4 8 3 10 1 11-1 11-2 12-4 12-5 11-6 24-14 11-8 10-8 10-9 9-8 8-9 7-9 6-10 10-20 6-20 2-10 1-9v-9-7l-2-6-1-4-4-3-4-2-4-1-4 1-5 1-5 3-6 3-5 4-20 20-3 6-4 6-4 5-4 12-1 5-1 6 1 5 1 6 2 6 3 6 4 7 5 6 12 14 16 14 8 6 9 8 10 6 9 6 10 6 9 5 10 3 9 3 8 1 9-1 21-7" style="clip-to-self:true;comp-op:src"/>
<path transform="scale(.1)" d="m9421.9 7330.3v-5l1-4v-6l-1-5v-4l-5-5-4-2-4-1h-4-5-5l-7 1-7 3-8 3-8 4-9 6-9 7-9 8-9 9-8 9-8 11-6 10-6 11-5 10-4 10-4 16v6l1 5 2 3 6 2h4l5-3 6-3 7-5 7-6 7-7 8-9 7-9 7-10 7-11 6-11 10-26 4-15 5-15 3-16 4-17 3-18 3-19 2-19 3-17 2-17 1-13 1-12v-9l-1-6v-4l-3-2-4 6-2 6-1 8-2 10-3 12-2 12-2 15-2 14-2 16-3 17-1 19-2 18-1 20-2 20-1 20v20l-1 20 1 19v19 18l1 17 3 40" style="clip-to-self:true;comp-op:src"/>
<path transform="scale(.1)" d="m8226.9 7875.6-2-6-1-5-1-7-1-6-2-5-1-4-1-3 2 6 1 5 1 6v8l2 10 1 12 1 14 1 16v18 20 21l-1 23-3 72-1 22-1 20-1 19v14 28" style="clip-to-self:true;comp-op:src"/>
<path transform="scale(.1)" d="m8040.6 7954.7 3-6 5-6 6-9 7-7 8-7 9-7 11-6 26-13 15-7 34-18 38-20 20-9 19-9 20-7 18-5 18-3 15-2 13 1 10 3 8 4 7 7 10 23" style="clip-to-self:true;comp-op:src"/>
<path transform="scale(.1)" d="m8393.4 8004.4-2-1h-6l-5 2-9 9-4 7-5 7-10 17-4 9-4 10-3 9-3 10-2 9-1 10v10l1 9 2 8 3 8 4 6 5 5 6 3 8 2h9l9-2 10-3 11-5 22-12 11-8 9-7 8-8 7-8 4-7 3-6v-7l-1-6-3-6-5-5-6-5-9-4-8-3-10-4-10-3-10-2-20-2h-9l-9 2-8 1-7 3-7 2-7 7-2 3v4l2 3 4 3 5 2 6 2h23" style="clip-to-self:true;comp-op:src"/>
<path transform="scale(.1)" d="m8537.5 8005.9-5 2-1 4v5l-1 6-1 8v8l-1 11-1 12v13 15 15l1 17 1 20 1 19 2 20 1 21 3 19 2 19 3 17 3 15 3 14 3 12 3 9 3 6 2 5 2 3 1-3-5-12" style="clip-to-self:true;comp-op:src"/>
<path transform="scale(.1)" d="m8517.8 8163.4v-17-12l1-13 2-12 2-10 8-20 5-9 14-18 16-16 8-7 8-6 9-4 16-6 7-1h7l6 1 6 2 4 3 4 4 2 12-1 7-2 8-4 9-5 10-6 10-7 10-7 11-7 9-8 9-7 8-17 17-5 3-3 3-3-2 2-3 3-5 4-5 5-6 7-8 18-19" style="clip-to-self:true;comp-op:src"/>
<path transform="scale(.1)" d="m8727.5 7990.3-1 5-1 3-1 5-2 5-2 14-2 8-1 10v10l-2 11v11l-1 11 1 11v11l2 11 1 10 6 16 4 6 4 3 5 2h5l5-2 6-4 14-17" style="clip-to-self:true;comp-op:src"/>
<path transform="scale(.1)" d="m8782.5 7919.7-3-3-4-3-3 4 1 4v4l2 8 1 5 2 4 1 5 3 5 2 5 2 4 2 6 9 15" style="clip-to-self:true;comp-op:src"/>
<path transform="scale(.1)" d="m8941.9 7981.6-3-4-4-2-4-3-6-3-5-1-6-1h-6-5l-5 2-6 2-6 3-5 4-6 5-6 7-5 7-6 10-4 10-4 12-2 12-2 14-1 14 1 13 2 13 4 13 12 20 9 9 9 6 11 4 13 1 13-1 15-3 15-5 16-7 16-9 18-10 42-26" style="clip-to-self:true;comp-op:src"/>
<path transform="scale(.1)" d="m9145.6 8003.8 3-5 3-4 4-6 3-6 4-5 3-4 2-5 4-8v-4l-1-4-2-3-1-3-3-3-4-2-3-1-5-1h-5l-6 1-4 2-7 2-18 9-6 5-6 4-5 5-8 10-1 6-1 5 1 5 2 6 4 4 5 6 7 5 8 5 9 4 11 5 12 4 12 5 11 5 12 5 11 6 16 12 5 6 4 7 2 6v6l-2 7-4 5-6 6-7 5-8 4-19 8-10 2-11 2-11 1h-11l-11-1-11-2-28-10" style="clip-to-self:true;comp-op:src"/>
</g>
</g>
<g stroke="#ff0" stroke-width="14.1">
<path transform="scale(.1)" d="m5410.6 9583.1-8-16-1-3-3-3-2 5v4 6 8l-1 9v12l-2 13-1 16-2 17-3 20-2 21-3 23-3 25-6 52-4 26-3 26-4 23-3 21-3 19-3 15-2 12-1 9-2 6-1 4v-6l1-6 1-9 1-10 1-13 2-13 2-16 2-17 3-16 1-18 3-18 3-19 3-20 8-40 5-19 5-17 5-16 5-13 4-12 4-9 7-14 4-4 2-3 4-1 4 4 2 4 3 5 2 6 2 8 2 9 3 10 3 11 3 12 3 13 3 15 12 45 5 15 4 15 10 28 4 14 5 12 5 11 4 11 5 9 8 14 3 4 3 3 3 2 3 1 4-3 3-4 1-4 2-6 2-16v-10l1-11v-12-13-14l1-16v-17l1-18 2-19 4-42 3-21 8-40 5-18 4-16 4-14 4-11 3-8 2-6 1-4h3l3 6v6l2 18v24l-2 28-1 15-2 16-4 40" style="clip-to-self:true;comp-op:src"/>
<path transform="scale(.1)" d="m5651.6 9810.9-2-3-4-4-4-2-3 1-4 5-2 3-1 5-3 6-1 6-2 7-3 27v9 9l2 8 2 9 2 7 4 6 4 5 5 3 6 2h6l8-2 7-3 7-5 8-5 14-14 6-9 6-8 8-18 2-18v-9l-1-8-2-7-4-7-3-7-10-10-5-4-6-3-12-4h-7-6l-12 4-4 2-5 3-2 3-2 2-1 5 4 1h3l10-5" style="clip-to-self:true;comp-op:src"/>
<path transform="scale(.1)" d="m5752.8 9660.3 6-12 1-5 1-3v-4l1 5v11 8 9l-1 11v13l-1 14v15l-1 17v17l-1 17v54l1 18v18l1 17 1 15 1 13 2 10 3 8 3 6 3 4 3 2h4l5-1 5-3 5-4 11-11 6-7 6-10 10-20 12-28" style="clip-to-self:true;comp-op:src"/>
<path transform="scale(.1)" d="m5812.8 9800.3-6 1h-4l-3-1h-5l-4-1 2-5 4-5 3-4 4-3 5-4 6-4 14-10 9-6 9-5 10-5 11-6 11-5 11-7 11-5 10-6 25-11" style="clip-to-self:true;comp-op:src"/>
<path transform="scale(.1)" d="m6316.2 9804.4-2-10-2-6-3-6-6-8-8-4-3-1-5-1h-4l-5 1-5 2-5 3-6 4-7 5-6 8-7 9-7 12-7 14-6 15-6 16-5 17-8 36-2 17-1 14v12l1 10 3 7 3 4 5 3h6l6-3 8-5 9-6 19-19 10-12 10-13 9-14 9-15 7-14 7-15 6-14 4-14 5-12 4-10 3-9 4-11v-3 3l-1 4-1 6-2 8-1 9-2 20-1 12 1 12v13l2 12 2 13 3 12 4 10 5 9 5 7 7 4 7 3h8l8-3 10-3 20-14 10-8 9-10 10-11 9-11 8-13 8-12 6-13 6-14 5-15 9-43" style="clip-to-self:true;comp-op:src"/>
<path transform="scale(.1)" d="m6498.8 9561.6v-5-9l1-10v-14l-1-10-1-7-2-4-5-1-3 3-3 7-3 10-4 12-5 14-4 17-4 18-5 19-3 20-4 20-4 21-2 23-4 44-1 22v21l1 20 2 19 3 17 3 15 4 12 5 11 6 8 6 6 5 4 6 2h6l6-2 5-4 6-5 10-16 4-10 5-12 4-12 4-14 3-15 3-16 3-19 3-20 2-21 3-22 2-24 3-24 3-26 2-27 6-56 3-24 3-22 5-30 1-8v-5l-2 3-1 7-3 11-3 14-2 17-3 20-3 21-6 46-3 24-4 48-2 25-1 24v24 22l2 22 3 19 3 18 5 16 4 15 6 12 7 10 21 14" style="clip-to-self:true;comp-op:src"/>
<path transform="scale(.1)" d="m7098.8 9780.9-2-5-2-4-3-4-3 1-2 5v5l-1 5-1 8-2 9-1 10-2 12-2 13-2 14-2 15-2 16-1 16-2 16v15 14l1 12 2 10 2 7 2 4 4 3 3-1 4-3 4-5 4-7 11-25" style="clip-to-self:true;comp-op:src"/>
<path transform="scale(.1)" d="m7118.1 9705.9-5 3-3 2-6 6-3 4-2 5-1 5v6l1 5 1 4 2 4 4 3 2 3 4 2 4 3 3 2 9 4 10 6" style="clip-to-self:true;comp-op:src"/>
<path transform="scale(.1)" d="m7177.5 9784.4-3 5-1 3-2 12v7l-1 8-1 9-2 20-2 22-1 10-1 11v10l-1 9v8l1 7v6l2 3 3 3 6-5 3-5 5-7 4-9 5-11 5-12 5-13 6-14 12-26 7-13 6-11 6-10 6-8 8-10 4-2 4 1 1 6 1 5v7 7l1 9v9l1 9 2 22 2 12 2 11 2 12 3 11 3 10 4 9 5 7 6 4 6 2 7 1 8-2 9-3 10-6 12-7 12-9 12-10 13-12 13-13 32-34" style="clip-to-self:true;comp-op:src"/>
<path transform="scale(.1)" d="m7538.1 9581.9-2-8-2-7-3-9-4-6-5-6-6-4-6-2-6-1-6 2-6 3-7 5-6 6-5 8-5 9-4 11-5 13-4 13-6 32-3 18-2 19-3 21-2 22-2 23-1 25-2 26-2 28-1 29-3 29-1 29-2 27-2 25-2 22-2 19-1 16-1 14v10l-1 9v5l-1 4h-4l-2-4-5-16" style="clip-to-self:true;comp-op:src"/>
<path transform="scale(.1)" d="m7357.2 9898.4-4-4-7-11-1-5 1-5 2-3 6-8 4-5 4-6 18-18 16-14 10-7 9-6 11-7 12-8 11-6 13-7 12-6 12-5 11-4 11-3 10-2 8-1h8l6 2 5 3 4 4 3 6 2 6 1 7 1 9v10 10l-2 11-1 11-1 12-3 11-1 11-2 10-2 9-1 8-1 6v4l4-2 2-5 3-7 2-8 6-25" style="clip-to-self:true;comp-op:src"/>
<path transform="scale(.1)" d="m7595.9 9738.8v-5l1 5v4l-1 4v2l-1 3v6l1 6 1 4 2 6" style="clip-to-self:true;comp-op:src"/>
<path transform="scale(.1)" d="m7653.8 9736.9-1-4v-4l-1-3 4 4 2 6v5 24 10l-1 12-2 13-2 15-2 16-3 17-2 16-3 17-2 16-1 14-1 11v9 7 4l3 2 4-5 2-6 3-8 4-9 4-11 10-24 24-52 6-11 7-11 6-10 7-8 6-7 5-5 4-3 4-2 5 1 2 3 2 5v6l1 7v8 41l1 11v12l2 22 1 9 2 8 2 7 3 6 2 3 3 2 4 1 3-1 4-2 4-3 6-6 6-7 5-8 12-20 6-11 12-23 4-11 17-34 3-5 2-2 3-2 2 5v12l-1 7v9l-1 10v10l-1 11 1 11v11l2 22 2 10 4 16 3 5 3 3 3 1 3-2 4-4 9-16" style="clip-to-self:true;comp-op:src"/>
<path transform="scale(.1)" d="m7889.7 9707.5-3-4-5-5-5-3-4-1h-4l-4 1-3 5-4 6-1 5-2 4-1 5-1 7v5 6l1 6 2 10 3 3 3 4 3 1 4 2h4l5-1 4-2 5-3 5-4 4-4 4-6 3-6 3-7 2-8v-8l1-8-1-10v-8l-4-16-6-12-3-4-4-3-4-2-5-1-4 1-4 2-3 3-4 3-2 5-2 4v5 5l3 12" style="clip-to-self:true;comp-op:src"/>
<path transform="scale(.1)" d="m8021.9 9611.6v-4l1-4v-4l1-3-1-5-3 3-3 6-1 5-2 5-1 5-2 7v8l-1 8v10 67 17 18l1 19v19l1 19v19l1 20 2 18 1 18 2 16 3 14 3 12 4 9 4 7 4 5 5 2h4l4-2 10-10" style="clip-to-self:true;comp-op:src"/>
<path transform="scale(.1)" d="m8007.8 9817.8-1-5-1-4 3-4 4-3 10-6 6-4 15-7 9-4 9-3 10-4 10-3 10-4 11-3 10-2 11-3 9-1 8-1 7-1 7 1 5 2 4 3 3 3 2 4 1 5 1 7v6 8l-1 7-2 10-1 9-2 9-2 10-2 9-2 18v6 6l1 5 2 3 6-10" style="clip-to-self:true;comp-op:src"/>
<path transform="scale(.1)" d="m8217.8 9671.2-2-3v3l3 2 3 3 5 2 5 5" style="clip-to-self:true;comp-op:src"/>
<path transform="scale(.1)" d="m8185.9 9685.6-1-4-3-3-1-4-2-3-4-2-3-1-3 1-3 5-1 3-2 8-1 5v5l-1 6 1 4v5l1 4 2 4 2 3 2 2 3 2 3 1 4 1h3l5-1 4-2 5-3 8-6 4-4 3-4 2-4 2-6 2-4v-6-4-5l-1-4-1-3-2-4-5-5-6-2-4-1-4 1-5 1-4 1-10 6-4 3-6 5-4 3-5 4-7 8" style="clip-to-self:true;comp-op:src"/>
<path transform="scale(.1)" d="m8263.1 9855 6 6 5 1h6 4l4-1 5-3 12-6 6-4 14-10 23-23 8-12 3-6 2-6 1-5v-6-5-5l-2-4-2-3-3-3-3-1h-4l-6 1-5 3-7 4-15 15-8 9-8 10-8 12-8 13-12 28-5 15-4 14-2 14-1 12 1 11 2 9 4 6 5 5 6 2h7 8l10-3 12-4 12-6 12-7 14-9 49-35" style="clip-to-self:true;comp-op:src"/>
<path transform="scale(.1)" d="m8531.2 9734.7-1-4-1-3-2-4-6-6-3-1-4-1h-5l-10 2-6 3-6 2-8 5-7 4-16 12-16 14-6 7-5 8-3 7-2 7v7l2 7 3 7 11 11 8 6 8 5 9 6 9 5 10 5 9 5 16 8 8 5 6 4 4 4 3 4 1 4v3l-2 4-4 3-5 3-14 6-8 2-9 2-9 1h-9-9l-9-1-8-2-8-3-7-3-10-12-2-7v-8l7-20" style="clip-to-self:true;comp-op:src"/>
<path transform="scale(.1)" d="m8959.7 9810 1-6v-6l1-8-1-8v-8l-2-7-1-5-3-5-3-4-4-2-6-1-5 1-7 2-7 4-8 6-9 8-10 9-9 11-18 26-8 15-8 14-6 15-5 15-4 14-2 13-1 11 1 9 2 8 3 5 5 3 5 1h7l8-3 16-10 9-8 9-9 16-20 14-22 6-10 6-11 5-11 8-18 3-6 3-5 1-4v5l-1 4-2 7-1 8-2 8-1 9v19l2 10 2 9 3 10 4 8 4 7 12 10 7 2 9 1h8l10-2 11-4 10-4 11-6 11-7 11-8 11-9 19-19 16-22 7-11 7-12 5-11 4-11 3-9 2-7v-6l-2-5-2-2-5-2-5 1-7 1-7 3-14 8-6 6-7 5-5 5-5 6-4 5-3 5-1 5-2 4v4 3l3 5 2 3 3 2 3 3 3 2 4 4 3 4 3 5 2 7 2 8 1 9 1 10 1 11v11 12l1 10 1 11 1 10 4 16 3 5 4 4 4 3h6l6-1 7-3 8-4 7-6 9-8 8-9 9-10 8-12 7-12 8-13 7-14 12-28 10-28 5-13 4-13 3-11 2-9 1-7 1-6-1-5-1-3-4-2-6 1-4 2-4 3-4 4-8 12-5 8-4 8-3 9-4 9-2 10-2 11-1 11v11l1 12 2 12 3 11 5 10 6 10 8 8 9 6 12 6 13 3 16 1h16l17-2 17-3 18-5 41-14" style="clip-to-self:true;comp-op:src"/>
<path transform="scale(.1)" d="m5588.8 10388-4-3-5 1-3 2-2 5-3 7-2 8-2 9-2 10-1 11-2 12-1 13-2 12-1 13-1 14v12 38 11l1 12 2 10 2 9 2 8 2 7 2 10 2 4 1 3-1 5-10 5" style="clip-to-self:true;comp-op:src"/>
<path transform="scale(.1)" d="m5435 10576 2-12 2-8 2-7 4-7 4-5 5-6 14-10 8-6 44-22 13-6 14-6 15-7 16-7 15-6 16-7 30-12 13-6 24-9 10-4 8-4 7-2 5-2 8-2-2 6-1 5-2 6-3 8-3 9-3 11-4 12-4 13-4 14-3 15-4 14-3 14-4 28-1 12v11 9l1 8 2 10 2 2h4l3-2 3-3 4-5 3-7 4-7 3-8 3-9 6-20 2-11 3-10 4-12 4-11 10-18 5-8 9-9 5-2h4l3 2 2 2 4 12 1 8 1 10v10 11l1 12v25l1 12 1 11 1 9 2 9 4 6 3 4 5 2h6l7-3 8-4 9-6 10-8 10-9 12-11 11-10 11-12 11-11 11-12 9-13 9-12 8-12 6-11 5-11 4-10 2-8 2-6-1-5-4-3-4 1-5 2-5 4-6 5-6 7-7 8-7 10-7 12-6 11-6 13-5 12-5 13-4 13-1 11-1 10 1 10 2 8 4 7 4 6 14 8 18 4 9 1h9 10l10-1 24-5" style="clip-to-self:true;comp-op:src"/>
<path transform="scale(.1)" d="m6447.5 10509 4-20-1-5-2-8-4-8-4-3-3-2-4-2-8-2h-4-5l-4 1-2 1-3 2-3 4v5l1 3 2 3 3 4 2 4 4 4 5 4 4 4 9 11 5 5 5 7 3 7 4 6 2 8 2 7 1 8-1 7-1 8-2 7-8 14-12 12-14 10-7 4-8 3-7 3-8 1-7 1h-6l-6-1-5-1-5-3-4-2-2-2-2-7v-3l1-4 7-8" style="clip-to-self:true;comp-op:src"/>
<path transform="scale(.1)" d="m6646.6 10511 1-6v-3l-2-4-3-2-4-4-5-3-5-2-6-4-6-2-7-2-8-2-8-1-9-1-9 1-18 4-9 3-9 5-8 6-8 7-7 9-7 10-6 11-10 26-3 14-4 14-2 14-1 13 1 13 1 11 3 9 3 7 4 5 5 3h7l7-2 8-3 9-5 20-16 12-11 11-11 22-26 10-13 11-14 9-12 8-14 7-11 6-11 4-9 3-7 1-6 1-4-2-3-3 4-4 4-3 7-3 8-4 9-2 10-3 11-3 12-2 12-3 39 1 11 1 10 2 9 3 8 4 5 4 3 4 2h5l5-1 6-3 5-4 10-12 6-8 5-9 8-20 4-11 5-12 4-12 10-24 5-10 4-9 5-8 4-6 4-4 3-2h5l4 5 1 5 1 6 1 8v18l-1 11-1 12-2 22-1 12v10 9 8l1 5v5l2 3 3 2 4-5 3-5 4-7 3-7 5-10 5-9 5-11 6-10 6-11 7-10 7-11 7-9 6-9 6-8 6-7 6-5 3-3 4-2 4 3 1 4 1 6v27l-1 11v12 25l1 12 2 22 2 9 1 8 5 10 3 3 3 1 4-1 4-2 4-5 5-5 5-7 5-9 6-9 5-11 12-22 6-12 5-11 7-11 5-10 5-9 5-8 5-6 3-4 3-3h3l1 6v5l-1 6-1 8v9l-1 9 2 20 2 10 2 9 3 10 5 9 5 8 5 7 7 5 6 5 7 2 8 2h8l8-2 8-3 8-4 9-6 8-6 7-8 16-19" style="clip-to-self:true;comp-op:src"/>
<path transform="scale(.1)" d="m7117.2 10580-3 1 4-3 3-2 8-6 4-4 6-4 5-5 6-5 24-24 5-6 5-7 4-6 4-7 2-6 2-7 1-6v-5l-1-5-3-3-2-3-5-2-5-1-6 1-7 2-8 2-18 9-9 7-9 8-10 9-18 20-8 11-6 11-6 12-8 22v11 10l3 10 5 9 6 7 8 7 10 4 11 4 12 2h14l15-2 30-8 15-6 14-7 12-8 24-19" style="clip-to-self:true;comp-op:src"/>
</g>
</g>
<path transform="scale(.1)" d="m4782.5 10548-2-3-2-2-8-6-4-4-4-3-4-4-9-10-8-14-5-7-4-8-4-9-8-20-4-11-4-13-6-26-3-15-2-15-6-34-6-36-3-21-6-44-6-46-4-23-2-23-4-24-3-23-2-23-6-46-2-23-1-24-1-25v-24l1-25 2-25 3-25 4-25 6-24 7-23 8-23 9-22 20-42 11-20 11-18 11-17 11-16 11-14 20-24 10-11 8-9 9-8 8-8 7-6 14-10 12-6 6-1 5-1h5l5 1 5 2 4 3 5 3 5 4 3 5 5 6 7 15 3 8 3 9 2 9 2 10 1 11v12 26 14l-1 14-1 16-1 15-1 17-3 16-2 18-3 18-4 19-3 20-3 19-4 20-3 21-3 19-4 38-2 20-4 38-2 20-2 42-2 20-2 22-1 21-2 21-2 22-3 22-4 44-3 20-2 20-3 18-3 17-3 16-2 15-3 15-3 13-3 14-3 13-3 14-3 12-8 26-3 13-12 36-8 20-7 17-8 14-4 5-2 6-4 4-2 4-2 2-3 2-3 3-2-3 1-2 2-3 3-4 2-2 3-1 3-2 2-3 4-10 1-3-1-9" fill="#ff0" fill-opacity=".50196" stroke="#ff0" stroke-linecap="round" stroke-linejoin="round" stroke-miterlimit="10" stroke-width="14.1" style="clip-to-self:true;comp-op:src"/>
<path transform="scale(.1)" d="m4785.6 10697-5-1-6 1-3 1-4 2-3 2-8 8-5 3-4 5-9 9-4 5-3 6-4 6-6 14-1 6-2 7v8l1 7 2 6 3 7 4 7 10 12 7 6 15 10 16 8 8 3 16 4h8 14 7l6-1 12-4 4-3 4-2 4-4 3-4 2-4 2-5 1-6v-6-7l-4-16-6-18-4-10-5-10-5-11-6-10-6-9-7-9-7-7-7-6-8-5-8-3-9-1h-10l-18 4-9 5-8 5-16 12-8 7-7 7-17 18" fill="#ff0" fill-opacity=".50196" stroke="#ff0" stroke-linecap="round" stroke-linejoin="round" stroke-miterlimit="10" stroke-width="14.1" style="clip-to-self:true;comp-op:src"/>
</g>
</svg>
