<?xml version="1.0" encoding="UTF-8"?>
<svg width="1e3pt" height="600pt" version="1.2" viewBox="0 0 1e3 600" xmlns="http://www.w3.org/2000/svg">
<g id="surface21">
<rect width="1e3" height="600" fill="#2e3436"/>
<g fill="none" stroke="#fff" stroke-linecap="round" stroke-linejoin="round" stroke-miterlimit="10">
<g stroke-width="14.1">
<path transform="scale(.1)" d="m4206.9 529.88-6-1h-4-3l-8 4-4 3-4 4-5 4-4 6-4 7-5 8-4 9-5 10-4 11-5 12-3 12-4 12-3 12-2 12-1 12-1 11v10l1 10 1 9 2 8 3 7 8 12 4 5 6 3 5 3 6 2 7 1h7 9l8-1 27-6 9-3 10-3 27-12 9-5 16-10 7-6 6-5 6-6 5-7 5-6 6-14 4-16 1-9v-9l-2-20-4-22-4-10-3-12-5-10-5-11-5-10-7-10-6-10-12-16-6-7-7-5-6-4-6-2h-6l-6 1-7 2-6 4-7 5-7 6-7 7-6 7-6 9-7 9-5 9-5 10-4 10-3 11-3 10-2 10v9 9l3 16" style="clip-to-self:true;comp-op:src"/>
<path transform="scale(.1)" d="m4377.3 488.59-1-3-1-6-2-5v4 4 5 7 8 10l-1 12v13 15 181 6l1 4v3l1 3 2-3v-3l2-4 1-5 2-14 2-8 2-9 1-10 2-9 2-11 3-10 3-11 3-10 4-10 5-9 5-7 5-6 6-4 5-3 6-1 10 2 5 2 5 4 8 8 4 6 3 6 4 14 1 7 1 8-1 7-1 8-2 7-2 8-3 8-3 7-4 6-5 7-4 6-5 5-5 4-6 5-5 3-6 3-5 2-12 4-10 2h-5-4-4-3l-4-3-1-4 4-6 7-9" style="clip-to-self:true;comp-op:src"/>
<path transform="scale(.1)" d="m4544.9 626.68-4-1h-5-4-3l-3 3v3l1 6 1 4v5l1 6 2 14 3 27v9l1 10 1 11v11l1 11v23 10l-1 10-2 18-2 14-2 6-3 5-2 5-3 5-7 7-4 3-8 4-5 2-5 1h-5l-5 1-6-1-10-2-6-2-6-3-5-3-6-4-5-5-4-6-4-7-8-22" style="clip-to-self:true;comp-op:src"/>
<path transform="scale(.1)" d="m4527.1 543.28-4 1-3 3-2 4v4l1 4 2 2 3 2 6 5" style="clip-to-self:true;comp-op:src"/>
<path transform="scale(.1)" d="m4586.5 668.52-2 1-4 1-2 2-2 3 1 3 4 2h4l6-1 3-1 16-8 5-3 8-6 5-3 3-4 7-7 3-4 4-8 1-3v-4-5l-3-3-5-1h-3l-3 1-4 1-4 2-4 3-9 9-4 5-5 6-4 6-3 8-4 8-3 7-4 16-2 9v7 8 7l2 6 6 12 5 5 5 4 7 4 7 2 8 2h9 9l20-4 24-6" style="clip-to-self:true;comp-op:src"/>
<path transform="scale(.1)" d="m4791.5 631.41-5-2h-3-4-4l-8 4-5 2-4 3-5 3-14 14-5 6-4 6-5 7-4 8-3 7-6 16-2 8-1 8v8 8l2 14 3 6 3 5 4 5 4 4 5 3 6 2 6 1h7l7-1 8-2 16-6 18-10 8-6 9-6 8-7 16-16 6-9 7-9 5-11 5-10 5-12 6-26 3-15 4-32 2-32 2-30v-13l1-11v-9l1-7v-5-3l-1 4v4l-1 5v34 12 13 15 15l-1 15v16 45 14l1 12v11l1 11v8l2 8v6l1 5 1 4 1 3-2-3" style="clip-to-self:true;comp-op:src"/>
<path transform="scale(.1)" d="m4808.8 673.52 1-4 2-3 3-4 4-2 3-2 10-4 7-3 6-2 7-3 16-6 9-3 8-3 10-3 9-3 30-6 20-2h9 8l8 1 7 3 6 3 6 5 4 5 6 14 2 7 2 16 1 16v8l-1 7v7 6 5l1 5 1 4 1 3 3 4 5 1 3-1 4-6 2-4 6-11" style="clip-to-self:true;comp-op:src"/>
<path transform="scale(.1)" d="m5061.5 538.52-1 2v3l1 4 1 5 1 6 3 9 1 10" style="clip-to-self:true;comp-op:src"/>
<path transform="scale(.1)" d="m5101.6 591.52-3 3-2 5v4l-1 5-1 6-2 14-1 8v9l-1 9v8 9 9l1 8v8l2 7 1 8 2 7 2 6 4 10 3 4 2 2 4 3h4l4-2 5-5 2-4 3-4 2-5 3-5 3-6 4-6 8-13 4-7 4-6 4-7 4-6 4-5 3-4 3-3 4-3h3l3 3 1 3 2 3 1 3 1 5 4 8 1 5 2 4 3 4 4 8 4 3 3 3 4 2 5 2 10 2h6l5-1 6-1 12-4 12-6 10-8 5-5 4-5 4-6 3-6 2-8 2-7 2-18v-10-11l-2-20-2-8-3-7-3-5-3-3-4-2-3-1-4 1-4 2-3 4-4 5-6 14-3 9-3 10-2 10-2 11-1 11v11l1 10 1 11 3 9 4 10 5 9 5 8 7 7 8 7 8 5 8 4 10 3 9 1 25-1" style="clip-to-self:true;comp-op:src"/>
</g>
<path d="m410.98 92.289 127.53-6.5156" stroke-width="1.41" style="clip-to-self:true;comp-op:src"/>
</g>
<path transform="scale(.1)" d="m833.75 4237.9h-4l-4-1-3-1-3-3-4-5-2-3-1-4-2-5-2-6-4-14-2-9-4-20-2-11-2-12-3-12-2-13-3-14-3-16-3-17-4-19-3-20-2-22-3-23-3-25-4-50-2-26-1-26-1-27v-27l1-27 1-28 2-28 2-29 4-28 4-29 5-28 5-26 7-24 7-23 9-20 9-19 9-17 11-16 11-15 12-14 26-24 12-10 12-9 24-14 10-5 18-6 8-2h7l6 2 5 2 5 4 4 5 3 7 3 8 2 9 1 10 1 11 1 12 1 13v28 15l-1 15-1 16-1 17-1 18v19l-1 20-2 21-2 22-1 21-3 21-3 20-6 41-12 57-4 18-5 18-4 17-10 34-12 34-6 18-7 17-7 18-6 17-14 34-7 15-6 16-7 13-6 14-6 12-5 11-9 18-3 8-2 7-2 6-2 5v4l-1 5v4l3 2 2 2v4l-2 6-2 2-2 3-1 3-1 4-1 5-2 5-1 4-2 6v3l-2 3-1 5-2 5v3l-1 4-1 3-1 4-1 5-3 12-2 10-1 4-1 5-3 12-1 3-1 5v3l3-1 2-6 1-4 1-5 1-7 3-18" fill="#f00" fill-opacity=".50196" stroke="#f00" stroke-linecap="round" stroke-linejoin="round" stroke-miterlimit="10" stroke-width="14.1" style="clip-to-self:true;comp-op:src"/>
<path transform="scale(.1)" d="m845.2 4387.5-2-1-6-4-4-2-3-2-3-1h-4l-3-1h-4-3-4l-3 1-4 1-8 4-3 4-5 3-4 5-4 7-5 7-4 8-5 9-8 22-8 24-9 39-1 12-2 22 1 9 1 8 3 8 2 6 3 5 4 3 5 2 5 1h5l6-2 6-3 7-4 7-5 14-14 21-27 14-22 12-22 8-22 2-10 1-9v-9l-1-8-3-7-8-14-6-6-6-5-7-4-14-6h-7-8l-7 2-9 4-7 5-8 7-8 8-16 18-6 10-13 25" fill="#f00" fill-opacity=".50196" stroke="#f00" stroke-linecap="round" stroke-linejoin="round" stroke-miterlimit="10" stroke-width="14.1" style="clip-to-self:true;comp-op:src"/>
<g fill="none" stroke-linecap="round" stroke-linejoin="round" stroke-miterlimit="10" stroke-width="14.1">
<g stroke="#f00">
<path transform="scale(.1)" d="m1265 3892.7-1-6-2-4-2-12-1-4v-4l-1-3 1-3 4 3 1 3 3 4 2 6 2 7 6 20 3 13 3 15 8 34 4 19 4 18 5 19 4 17 5 16 4 14 4 12 5 11 4 9 4 7 4 5 3 4 4 2h4l3-2 3-4 4-5 3-7 3-9 3-10 3-12 2-12 4-28 2-16 1-17 1-19 1-21 2-46 2-24 1-22 2-22 3-19 2-17 2-13 2-9 1-7 3 5v7l1 9v11l1 12 1 13 1 14 1 15 3 42" style="clip-to-self:true;comp-op:src"/>
<path transform="scale(.1)" d="m1459.3 4022.3 4-3 3-4 3-3 2-4 3-4 4-4 3-5 4-5 4-6 3-6 4-6 3-7 3-6 3-7 4-12 1-6 1-5v-5-3l-1-5h-4l-3 2-4 4-4 5-4 8-5 9-6 11-5 11-6 13-5 13-5 14-8 26-3 13-1 11-2 11v9l1 8 2 7 2 6 2 4 3 4 4 1 3 1 5-1 5-2 5-4 6-4 6-6 12-14 6-9 10-18 4-9 4-10 3-10 3-9 3-10 2-9 3-8 2-7 2-5 1-5 2-2 3-2 4 4 1 4 5 10 4 14 6 16 6 18 2 10 3 9 2 10 3 9 2 9 2 8 2 7 1 7 2 5 1 4v3 5l-4-2-1-3-4-10-1-7-2-7-2-18v-9-10l2-20 2-10 3-9 3-10 8-18 5-8 5-7 5-6 5-5 12-8 5-3 5-2 4-1 10 2" style="clip-to-self:true;comp-op:src"/>
<path transform="scale(.1)" d="m1669.9 3971.3-1 4-2 6-2 10-2 12-1 7-1 6-1 7-1 6v7 6l3 18 2 5 3 4 2 4 6 4 3 1h3l3-2 4-2 4-3 3-4 8-10 4-7 3-6 3-8 3-7 3-8 2-7 2-8 4-14 1-6 2-5 1-4 1-2 2 6v5l1 6v9l1 9 1 10 1 12 1 13v13l1 15 2 15 1 16 4 36 2 19 1 19 2 19 1 19 1 20 1 19v18 17 15 13l-1 12-1 10-2 8-2 7-3 6-4 4-5 4-5 3-6 3-6 2-8 1h-8-8l-10-1-9-1-10-2-9-3-9-4-8-4-6-5-5-7-4-8-2-9v-10l1-12 3-14 4-14 6-16 7-16 9-16 20-34 24-34 13-17 14-17 15-15 14-16 15-14 14-14 14-13 35-28" style="clip-to-self:true;comp-op:src"/>
<path transform="scale(.1)" d="m2137.3 3947.6 1-4v-3-5-4-3-5-4l-1 4v3l-1 5v6l-1 8-2 10-1 10-2 24-2 26-1 12v13l1 12v11l2 11 2 10 2 9 4 7 4 6 5 4 5 2h7l6-1 8-3 7-5 16-14 7-9 7-11 13-29" style="clip-to-self:true;comp-op:src"/>
<path transform="scale(.1)" d="m2181.7 3861.7-5-1h-5l-2 3v3l4 8 3 4 2 3 2 2 6 9 4 10" style="clip-to-self:true;comp-op:src"/>
<path transform="scale(.1)" d="m2255 3968.2 1 4v4 5 6 7l-1 9-1 8-1 9-3 30-1 11-1 10v10 10 9 7l1 6v4l2 5 2-2 2-3 1-5 2-5 2-6 1-7 4-16 1-9 2-9 1-9 2-10 1-9 2-9 3-9 2-8 3-7 2-6 3-4 2-3 3-2h4l4 4 2 4 2 5 2 6 2 7 1 7 2 8 2 7 1 8 2 8 1 8 2 6 1 7 1 5 2 5 1 4 2 2 2 3 5-1 2-3 1-3 2-4 4-10 3-6 4-13 3-7 4-12 3-6 2-5 2-4 2-3 4-4h3l3 4 1 3 2 4 1 5 2 6 1 6 2 14 2 7 1 7 4 14 2 6 3 5 2 5 3 3 3 2 2 2h4 3l6-2 3-3 2-4 3-5 3-6 4-14 7-19" style="clip-to-self:true;comp-op:src"/>
<path transform="scale(.1)" d="m2459.2 3961.8 2-5 2 4v5 7 8l1 8-1 10v12 11 13l-2 26v14 15 15l1 15 2 16 1 16 2 16 1 15 2 15 1 12 2 12 1 10 1 9 1 6 1 5 1 4 1-5v-6l-3-16" style="clip-to-self:true;comp-op:src"/>
<path transform="scale(.1)" d="m2468.4 4046.9 4-14 3-10 6-16 4-7 5-6 4-5 5-4 10-6h5l4-1 3 1 4 2 3 3 2 3 3 5 1 5 2 14v8l-1 9-1 10-3 10-2 11-8 24-12 33-8 18-2 7-2 5-2 3 4-5 3-5 3-6 4-7 4-9 5-8 14-24" style="clip-to-self:true;comp-op:src"/>
<path transform="scale(.1)" d="m2582.8 4005.6 3-4v6l-4 10-1 6-2 7-4 16-1 8-2 9-1 9v8 9 8l2 9 2 7 2 6 4 5 4 4 4 3 5 1h6l5-1 12-6 6-5 5-6 6-6 4-7 8-16 2-10 2-9 2-20v-10l-1-10-1-9-2-8-2-7-4-6-4-5-10-4-6-1-12 4-5 3-6 4-5 4-5 6-6 12-1 7-1 5v6 6l3 11" style="clip-to-self:true;comp-op:src"/>
<path transform="scale(.1)" d="m2654.7 4026.5 1-3 2-2 2-4 5-5 3-1 4 2 4 5 4 8 4 10 2 7 2 6 2 7 1 7 2 8 2 16 1 7 1 8v6 14 5l-4 1-4-4-2-3-2-4-2-5-1-6-2-7-1-7-1-8 1-8 2-18 3-9 6-20 4-10 10-24 6-13 6-14 16-37" style="clip-to-self:true;comp-op:src"/>
<path transform="scale(.1)" d="m2805.9 3811.8-3 3-2 4-1 5-2 6-1 7-2 8-4 20-2 11-2 13-1 13-2 15v14l-1 15v15 15 15l1 15v14l1 14 1 13 2 13 1 11 2 11 2 9 2 7 4 12" style="clip-to-self:true;comp-op:src"/>
<path transform="scale(.1)" d="m2743.1 4029.6v-4-4l3-4 4-2 3-1 10-4 6-2 6-1 6-2 6-1 14-2 8-2 8-1 8-2 9-1 18-4 9-3 8-3 8-2 8-4 14-6 6-3 5-2 4-3 2-1 3-2-3-1-5 2-3 1-6 6-4 3-4 6-4 5-4 7-5 8-8 16-8 18-4 10-5 19-4 18v8l-1 8 1 6v6l2 4 2 3 3 2 3 1 3-1 4-2 5-3 5-4 5-5 6-7 5-6 5-8 10-18 4-9 5-9 3-9 4-9 3-8 2-7 4-10 1-3 3 2v14l-1 6v7l-1 8v8l-1 16v8 8l2 14v6l1 6 2 5 2 6 2 2 3-2 4-5 5-10 2-6 3-6 4-7 4-8 12-21 5-7 4-6 8-8 4-3 3-2h5l4 3 2 3 1 4 3 15 4 24 2 6 1 5 2 5 4 6 3 2 5 2 5-3 4-2 3-4 4-4 8-12 5-6 4-7 5-8 5-7 10-16 10-14 5-6 9-9 4-3 4-1h3l6 3 2 2 3 4 2 5 1 6 2 6 3 13 1 7 4 14 2 6 2 7 2 6 5 10 3 4 3 3 6 2 3-1 3-2 3-3 3-5 3-6 8-17" style="clip-to-self:true;comp-op:src"/>
<path transform="scale(.1)" d="m3230.7 3886.2v-3-7-8-12l-1-9-1-7-1-5-2-7v4 31 10l1 12v13l1 14v14l1 16 1 15 1 16 2 15 3 15 2 15 4 14 3 14 4 13 4 12 4 10 3 8 4 6 4 3 3 2 4 1 4-1 4-3 3-5 3-6 7-18" style="clip-to-self:true;comp-op:src"/>
<path transform="scale(.1)" d="m3169.8 3958.2-4-1-3-2 1-2 5-4 4-3 5-3 6-3 7-4 8-4 9-5 10-5 12-5 12-6 12-5 24-12 12-5 28-14" style="clip-to-self:true;comp-op:src"/>
<path transform="scale(.1)" d="m3631.4 3950.9 2-4v-3l1-3 3 1 2 10 2 16 1 10 1 11v12l1 14v14l-1 15v16l-1 16-2 36-2 38v20 19 19 18 15l1 13 1 10 1 8 1 6 1 5 2 3 1-3 1-4 1-5v-7l1-8 1-9-1-11-2-29" style="clip-to-self:true;comp-op:src"/>
<path transform="scale(.1)" d="m3619.5 4042.4 1-7v-7-8l2-18 4-16 4-8 4-7 6-8 13-13 7-5 8-4 8-3 8-1h7l8 2 7 3 7 5 6 6 5 8 3 9 3 11 1 11 1 13-1 13-1 12-2 13-3 13-4 12-3 12-5 10-4 10-4 8-4 6-4 5-3 3-3 1-5-1-2-3-1-4-1-6v-8l1-9 3-26" style="clip-to-self:true;comp-op:src"/>
<path transform="scale(.1)" d="m3793.8 3964.6 3 2 4 3 5 3 6 4 6 6 3 4 2 5 3 5 2 6 2 7 4 16 2 18 1 8 1 9v9 17 7l-1 6-1 5v5l-2 4-4-2-1-3-1-4-2-5v-6l-1-7v-16l1-8 1-9 2-10 3-10 4-12 5-12 6-12 6-13 8-13 8-12 19-26" style="clip-to-self:true;comp-op:src"/>
<path transform="scale(.1)" d="m3934.9 3995.3-1 6-2 14-1 8-2 8-2 16-1 7v7l-1 7 2 10v4l2 3 4 4 6 1 4-1 10-4 5-4 6-4 10-10 5-6 4-7 6-14 4-16v-8-9l-2-9-1-8-3-9-3-7-4-7-4-5-5-4-5-3-5-2h-6l-6 1-12 6-5 4-4 5-4 6-3 6-2 5-1 6v5 4l2 4 6 9" style="clip-to-self:true;comp-op:src"/>
<path transform="scale(.1)" d="m4049.8 3973.8 2-3 1-3-4 2-2 2-2 4-2 5-3 5-2 6-9 21-2 8-2 7-2 16-1 7v8l1 6 4 12 6 8 5 3 5 1h5l6-1 7-2 7-3 14-10 6-6 12-14 5-8 4-9 3-9 2-9 1-10v-9l-1-9-1-8-2-8-3-7-8-10-5-3-6-2-5-1-7 1-6 1-6 3-5 4-5 3-8 10-2 5-2 10 2 10 1 3 2 4 7 8" style="clip-to-self:true;comp-op:src"/>
<path transform="scale(.1)" d="m4158.8 4004.2-4 6-2 6 1 4 3 2 6 1 8-2 5-3 6-2 12-8 7-4 7-6 6-5 7-6 6-7 6-6 6-8 10-16 4-9 3-10 4-10 1-10 2-11v-12-12l-2-24-2-11-6-22-4-10-3-8-5-7-4-5-5-3-4-2-4-1-3 1-3 2-3 3-2 5-2 6-2 7-2 9-2 10-1 11-2 12-1 14-1 15v17l-1 19-1 20v20 22 22l-1 23v24 25 26l-2 54-2 50-2 24-1 22-2 22-2 19-1 17-1 14v11 14 4l1-4" style="clip-to-self:true;comp-op:src"/>
<path transform="scale(.1)" d="m4173.9 4131.7-13-13-3-4-2-6v-3l1-4 2-4 2-3 3-4 8-8 6-3 5-4 7-4 24-12 18-6 8-3 7-4 7-2 5-4 10-9" style="clip-to-self:true;comp-op:src"/>
<path transform="scale(.1)" d="m4525.3 4050.5-1-4 2-3h5l4-1h5 6l7-1h8l20-2 12-1h11l12-1 11 1h11 10 9 9l19-1" style="clip-to-self:true;comp-op:src"/>
<path transform="scale(.1)" d="m5085.4 3983 5-7 7-14 4-14v-5-5l-1-4-6-6-3-2-5-2-5-1h-6l-6 1-14 4-8 3-7 5-8 5-14 12-6 7-6 8-5 7-4 8-3 7-2 8-1 7v8l1 7 2 7 6 14 5 7 10 12 6 6 7 6 6 6 6 7 6 6 5 6 4 6 3 6 2 7 1 6v7l-1 6-3 6-3 5-5 6-5 5-7 5-14 8-16 6-8 1-8 2h-7-6l-6-2-5-2-4-3-3-5-2-5-1-6v-8l2-10 10-28" style="clip-to-self:true;comp-op:src"/>
<path transform="scale(.1)" d="m5174.1 3759.3 1-4-2 5-1 5v5l-2 6v8l-2 8-1 10-1 11-1 12-1 15-1 16v18l-1 19-1 21-2 44-1 23-1 21v20l-1 19v18 30 12l1 11 1 8v7 4l-1 3-6-1" style="clip-to-self:true;comp-op:src"/>
<path transform="scale(.1)" d="m5095.1 4043.6 4-4 4-3 8-2 5-1 6-2 7-2 7-1 14-4 8-2 8-1 8-2 9-2 18-2 9-2 27-3 16-2 7-1 7-2 13-3" style="clip-to-self:true;comp-op:src"/>
<path transform="scale(.1)" d="m5288.7 3981.9-8-8-3-2-6-2h-3-4l-3 1-4 2-4 3-4 4-5 4-5 6-4 6-4 7-5 8-8 16-6 18-2 8-1 9-1 8v7 7l1 5 2 5 2 3 3 3 3 1h4 3l5-2 4-2 4-4 5-4 5-5 10-12 4-6 5-7 5-6 8-12 4-5 3-4 3-3 4-3 2 4v3l-1 4v6l-1 6v6l-1 7v7 7 7l1 6v6l2 6 1 5 4 6 4 1h3l3-1 3-2 6-8 7-15" style="clip-to-self:true;comp-op:src"/>
<path transform="scale(.1)" d="m5349.5 4020.7 2-3 2-6 3-4 4 1 3 1 3 2 4 3 8 8 8 10 12 18 4 7 3 6 4 16 1 7 1 8-1 8v7l-1 7-4 10-3 3-2 3-3 1-4 1-3-1-4-1-4-3-3-3-3-5-4-12-1-7v-8l2-18 2-10 3-10 8-20 12-22 8-12 7-12 18-24 10-12 9-11 27-27 7-6 14-10" style="clip-to-self:true;comp-op:src"/>
<path transform="scale(.1)" d="m5505.9 3863.1v-5l1-5v-6l1-6v-4l1-3 1-4 1 6v11l-1 8v9 12 13 47 16 17l2 34 2 32 2 14 1 14 2 13 2 11 2 10 2 9 2 7 1 6 2 6" style="clip-to-self:true;comp-op:src"/>
<path transform="scale(.1)" d="m5485.9 4069.2-1-3 1-5 7-7 3-2 5-3 4-3 18-9 7-3 7-2 8-3 7-2 8-2 8-3 16-4 16-2h7 6l6 2 5 2 4 3 3 4 2 6 1 6v8l-1 8-2 20-2 11-2 10-2 11-1 9v9l-1 7 1 6 1 5 2 3 3 2h3l4-2 4-3 4-4 4-7 11-19" style="clip-to-self:true;comp-op:src"/>
<path transform="scale(.1)" d="m5634.5 3944-4 4-1 2-2 3-1 3-2 3-1 4v3 3 4 3l3 5 4 4 3 1 8 2h5l5-1 10-4 5-3 4-3 4-4 4-5 3-5 2-5 1-6v-6-6l-1-6-4-12-6-8-3-2-4-1h-4l-5 1-5 3-4 3-4 4-5 6-3 5-3 6-5 16" style="clip-to-self:true;comp-op:src"/>
<path transform="scale(.1)" d="m5695.6 4071.4 2-4 3-5 2-3 4-8 2-5 2-4 9-15 4-4 3-5 8-8 5-4 4-3 3-2 4-1 3-1 6 2 3 2 2 3 2 4 1 4 2 5v6l1 6v15l-1 8v9 8l-1 9v8l1 8v6 6l1 4 1 3 3 3 3-2 4-5 2-4 3-5 6-12 3-7 4-7 3-7 4-8 3-7 4-7 7-14 4-6 3-5 3-4 3-3 4-1 3 5v4l1 5v7 7l1 15v9l1 8 4 16 2 7 3 7 8 12 4 4 5 3 5 1h5 5l5-2 5-3 6-4 5-5 6-5 5-6 6-7 5-7 4-9 5-8 3-9 4-9 3-10 3-9 1-10 2-9v-8-7l-1-6-2-4-3-2h-4l-4 1-4 3-5 4-6 6-12 16-6 10-5 10-10 22-4 11-6 20-2 10-2 16v7l2 6 1 4 2 3 3 2h4l3-1 5-2 4-2 15-12 4-5 5-4 4-4 8-6 3-2 3-1 6 2 2 2 3 4 2 4 2 6 2 7 2 8 4 18 3 10 2 12 3 12 3 13 2 14 3 16 4 38 2 20 2 38v19 17l-1 17-2 15-2 14-2 13-3 11-4 10-4 8-5 7-6 5-6 4-7 2-7 1h-7l-14-4-7-4-14-10-12-14-10-16-4-8-3-10-2-10-1-10v-11l2-12 2-13 3-14 5-16 5-17 7-17 7-19 9-19 11-18 31-42" style="clip-to-self:true;comp-op:src"/>
<path transform="scale(.1)" d="m6294.1 3993.3v6 4 7 7 9 10 10 12l-1 13-2 13-1 15-2 15-1 16-2 15-3 16-2 15-1 14-2 14-1 13-1 12-2 11v9l-1 7-1 5-1 4-2 4-2-3-1-4-1-5-1-6-2-19" style="clip-to-self:true;comp-op:src"/>
<path transform="scale(.1)" d="m6249.2 4033.5 3-8 2-5 3-5 3-4 4-4 5-4 6-3 14-6 8-3 9-1 8-1h8l8 1 7 2 8 3 6 4 10 12 4 16v9l-2 10-2 11-4 10-5 12-6 11-14 22-7 10-12 16-11 11v-3l3-4 3-6 4-7 14-23" style="clip-to-self:true;comp-op:src"/>
<path transform="scale(.1)" d="m6417.7 4002.5 4-2 2 2v5l-2 10-2 6-1 7-2 7-2 8-1 8-2 8-2 16v8 7l1 6 2 6 2 5 3 5 3 3 4 3 4 1h5 4l5-1 5-3 4-3 4-5 4-4 3-5 3-6 2-6 1-7v-7-7l-1-7-4-14-3-7-3-5-8-10-4-3-5-2-4-1-5-1h-3l-3 1-4 4-1 3 3 2 3 1 12 1" style="clip-to-self:true;comp-op:src"/>
<path transform="scale(.1)" d="m6498.3 4011.5 4-1h3l5-2h3 4l5 1 3 2 5 5 1 4 2 4 2 5 1 5 2 6 1 6v7l1 8v24 8l-1 9v7l-1 7v6 5l-1 7v-3-34" style="clip-to-self:true;comp-op:src"/>
<path transform="scale(.1)" d="m6540.4 3950.4-1-2v3l1 6 2 3 2 8 3 8 4 8 1 3 5 7" style="clip-to-self:true;comp-op:src"/>
<path transform="scale(.1)" d="m6593.1 4012.3 1 5 1 4v3l2 8v5l1 6v6l1 6v21l-1 7v7l-2 14v6l-1 6-3 12-3-2-1-6v-4l2-10 2-6 2-7 3-6 3-7 8-14 15-18 5-5 5-4 5-3 5-2h5 4l4 1 4 2 3 3 3 4 6 15 4 13 2 7 2 6 1 7 2 6 1 6 2 6 1 4 2 4 2 3 4 2 6-1 6-6 4-5 5-5 5-6 5-7 5-8 6-8 5-9 10-20 4-11 4-12 3-12 3-14 2-14 4-32 1-16 1-17v-15l1-14-1-11v-9l-1-7-1-4-4-2-4 3-2 5-3 6-2 7-2 9-2 11-1 11v13l-1 13v14l1 14v15 14l1 15 2 14 1 14 4 26 2 12 3 11 3 10 3 9 2 8 3 6 2 5 2 3 3 3 1-3-2-8" style="clip-to-self:true;comp-op:src"/>
<path transform="scale(.1)" d="m6706.6 4031-1-6 1-3v-4l4-8 12-12 6-5 6-4 6-5 21-12 8-3 7-4 6-3 7-3 5-2 13-4" style="clip-to-self:true;comp-op:src"/>
<path transform="scale(.1)" d="m7239.9 4011.8-5 2-3 1-4 3-3 3-4 3-8 8-8 10-4 7-3 6-4 7-6 14-2 7-2 8v7 8l1 7 1 6 3 7 3 5 3 4 4 4 5 3 5 2 6 2h6 6 6l6-2 5-2 6-3 5-3 5-4 4-4 4-5 3-5 2-5 2-6 1-5-1-7-2-12-3-7-2-7-4-6-4-7-4-5-4-6-8-10-4-3-3-4-3-2-5-2-3 1v3l6 9 8 6 4 4 5 3 5 2 16 8 6 1 5 1 5 2h5 5 4l15-3 4-2 5-2 10-6 5-5 6-4 5-6 6-6 5-7 12-16 6-9 5-10 10-22 5-13 4-13 5-14 3-15 4-15 6-30 2-14 2-26v-12l-2-10-2-8-2-7-3-5-4-2-4-1-4 2-4 3-4 5-5 8-4 9-4 11-3 13-4 15-3 17-2 19-2 21-1 23-1 24v26 27l1 27 3 84 1 27 2 26 1 26 2 48 1 22 1 20 1 17 2 15 1 11 2 9 1 6 2 4 4 1 4-5 2-5 3-7 2-8 2-10 2-11 1-11 1-12v-12-12-12l-4-22-3-11-3-10-5-9-4-9-12-16-14-14-16-12-7-4-8-5-7-4-7-3-6-3-5-3-5-2-6-4-2-3 1-3 4-4 4-3 5-3 6-4 7-4 16-8 9-5 9-4 20-10 10-6 10-5 23-12" style="clip-to-self:true;comp-op:src"/>
<path transform="scale(.1)" d="m7817 3991.1v-5l-1-5-1-7-3-5-4-3-5-2-5-1h-6l-14 4-7 4-8 5-8 6-8 7-8 9-8 8-7 10-12 20-8 20-2 10-2 9v8 8l1 7 2 5 2 4 4 2 4 1h5l5-1 6-2 7-3 6-5 16-10 7-7 7-6 14-14 5-6 6-6 8-10 3-3 2-3 4-1 3 3 2 8 2 5 2 7 1 6 2 8 3 8 2 8 4 8 3 8 10 16 6 6 7 6 8 4 8 3 9 1 20-4 29-13" style="clip-to-self:true;comp-op:src"/>
<path transform="scale(.1)" d="m1604.9 4922.1-1 3-1 4v3l3 1 3-4 3-3 2-3 4-5 4-6 5-6 5-8 6-8 6-9 7-10 6-11 7-11 6-12 7-12 5-13 6-12 4-13 5-13 4-13 4-14 6-30 2-15 2-16 2-32 1-14v-12-16-4l-4 1-3 5-2 6-3 10-3 11-4 13-3 15-4 16-3 17-3 18-2 18-1 17-1 18 1 17 1 18 6 34 4 15 4 14 5 11 5 8 5 7 6 4 7 3h7l7-1 7-2 8-4 7-5 8-6 8-7 7-8 7-9 6-8 6-9 5-10 4-9 3-8 2-9 2-14 1-6-1-5v-4l-3-3-3 2-2 3-2 5-3 6-2 7-1 8-2 8-1 9v10l1 9 1 8 2 8 2 7 3 7 4 4 5 4 4 3 5 1h6 5l5-2 5-3 5-4 5-5 4-5 6-12 2-7 1-6 1-7-1-7-1-5-3-6-6-10-4-4-10-6-6-2-12-2-7 1-6 1-5 1-5 3-5 2-3 3-2 3-1 3v3l1 3 3 3 3 1 4 1 5 1 12-2 7-2 7-3 8-3 7-4 8-4 7-4 7-5 14-12 12-14 5-7 5-8 5-9 4-9 3-9 3-10 3-12 1-11 2-13v-13l1-14v-40-11l-1-9v-8l-1-5-1-4-2 5v5 7l1 9 1 10 1 13 1 14 2 15 1 17 2 17 6 54 2 19 2 18 2 38 1 17v17l1 15v12l1 10 1 8 1 6 1 3 3 2 4-4 3-4 3-5 5-7 4-8 5-9 5-11 13-28" style="clip-to-self:true;comp-op:src"/>
<path transform="scale(.1)" d="m1948.5 4801.9-2-3 2-5 4-6 4-3 8-8 6-5 6-4 7-5 7-4 24-12 7-4 7-3 15-8" style="clip-to-self:true;comp-op:src"/>
<path transform="scale(.1)" d="m2357.7 4773.5-2-2-2-3-3-3-4-2-3-1h-3l-4 1-3 1-3 2-3 4-4 4-4 5-4 6-5 7-4 7-3 9-3 8-3 9-1 8-1 9 2 16 4 12 4 4 4 3 4 1h5l5-1 12-6 12-10 12-14 5-7 8-14 2-8 2-7 1-7v-6l-1-6-4-10-2-4-3-3-4-1-3-1h-4-4l-3 1-6 4-4 4v5l2 5 2 3 4 2 4 1 5 1h6l7-1 18-2 9-3 10-3 10-4 30-15 9-6 9-7 8-7 8-8 7-8 14-18 6-10 6-12 5-12 5-13 4-14 6-28 2-15 2-14v-14l1-13-1-12-1-11-2-10-2-7-2-5-2-4-3-2h-5l-3 5-2 5-2 14v9l1 10 1 11 2 13 1 13 3 15 2 17 2 19 3 19 2 20 2 21 3 21 2 22 2 23 1 24 2 50-1 27-1 25-2 26-2 24-3 24-3 23-3 21-3 19-3 16-3 13-3 10-2 8-1 6-1 4-1 3 3-5 2-5 3-6 4-7 10-18 11-22 12-22 10-22 5-10 4-9 3-9 2-8 2-7v-7-6l-1-5-3-4-4-4-5-4-6-3-7-2-8-2-10-2-9-2-11-2-11-1-22-4-12-2-11-2-12-3-10-2-10-3-9-3-8-3-6-3-5-3-3-4-2-4v-4l2-5 3-6 5-6 6-7 8-6 8-7 10-7 10-6 12-6 11-6 12-6 13-6 12-5 13-6 24-10 22-8 9-3 8-3 8-2 5-2 5-1h3l-6 5" style="clip-to-self:true;comp-op:src"/>
<path transform="scale(.1)" d="m2957.3 4904.3v-3l1-6 2-4 2-5 6-12 4-7 4-8 5-9 5-8 5-10 6-10 11-21 6-11 6-12 5-11 5-12 5-13 5-12 3-13 3-12 3-11 1-10 1-9 1-6-1-5-1-4-3-2-5 4-4 4-4 5-10 14-5 8-10 18-4 8-4 9-3 8-2 7-1 6v6l1 5 2 5 2 3 3 4 4 2 4 3 5 1 5 2 6 3 6 2 5 2 6 3 10 8 4 4 4 5 6 10 4 10 1 6 1 5v4l2 8 2 4 3 1 5-3 4-3 8-9 5-5 6-7 5-7 12-16 5-9 8-18 4-10 2-9 3-10 1-9 2-9v-9-7-6l-1-5-2-3-5-1-4 2-4 3-4 5-5 6-5 7-5 8-8 18-6 20-1 11-1 10v11l2 10 1 10 3 9 4 7 4 6 6 5 6 2 7 2h8l18-4 9-4 10-6 9-6 9-7 9-8 16-18 6-9 14-23" style="clip-to-self:true;comp-op:src"/>
<path transform="scale(.1)" d="m3305.1 4733.3 2-4 1-5 3-18v-5-5l-1-5-1-3-2-4-2-3-2-2-6-4h-4-4l-8 2-5 2-5 4-8 8-4 6-3 5-3 6-1 7-1 6v6l1 6 3 6 3 5 5 5 5 6 6 5 6 6 7 6 7 5 7 6 7 5 7 6 7 5 5 6 6 6 4 6 3 5 2 6 1 5v5l-1 5-2 6-6 8-5 4-5 3-6 3-6 1-6 2-6 1h-6l-6-1-5-1-5-2-6-3-4-3-4-4-3-4-2-5-1-5 2-12 3-7 4-7 5-8 15-17" style="clip-to-self:true;comp-op:src"/>
<path transform="scale(.1)" d="m3421.1 4727.7-3 3-2 3-3 3-4 8-2 5-1 6-2 5v7l-1 6v7 7l1 8v8l2 8 2 7 2 8 3 7 4 7 3 5 4 5 4 4 8 4h4 5l8-4 4-3 3-4 4-5 3-5 3-6 2-6 4-14 3-21v-6l1-6v-5-4l1-4 1 4 2 10 1 6 1 7 4 14 9 21 4 7 4 6 10 10 5 4 6 2 6 1h6l12-4 6-4 6-5 12-12 6-8 10-16 4-9 4-10 3-9 4-20 1-11v-12-12-12l-1-14v-14l-1-15-2-28v-12-29 3 6l-1 7v10l-1 12v14 14 15 48 16l1 16 1 15 1 16 2 14 3 14 3 12 3 10 4 7 4 5 4 3 4 1h5l10-6 6-5 5-7 6-7 12-18 5-10 6-11 4-12 5-12 3-12 4-14 3-14 4-32 4-36 2-38 1-17 1-16v-13l1-11v-7-4l-2 2-2 5-1 7-1 8-1 10-1 11v12 13 15 14l1 15v14l1 14 2 14 1 13 2 13 2 12 3 11 2 10 3 9 3 8 3 7 3 6 3 5 2 4 2 3 3 3 2-3-4-9" style="clip-to-self:true;comp-op:src"/>
<path transform="scale(.1)" d="m3680.2 4775.7 6-8 4-6 4-5 10-10 6-4 5-5 7-4 6-5 21-12 8-3 8-4 9-3 9-2 9-3 9-2h9l9-1 16 2 6 1 7 2 5 2 11 6" style="clip-to-self:true;comp-op:src"/>
<path transform="scale(.1)" d="m3883 4713.5-1-4-2-4-1-3-4-6-1-2-4-6-3-2-4-3-5-1-5 1-3 2-3 3-3 4-4 4-3 5-4 5-3 6-6 18v6 6l1 6 1 5 3 6 3 5 8 10 10 8 6 4 6 3 5 4 5 2 10 6 3 2 3 3 3 2 2 5-1 6-2 3-3 3-4 3-5 4-12 6-8 3-7 2-8 3-8 1-14 2h-6-6l-5-1-4-2-3-3-3-4-1-4 2-13" style="clip-to-self:true;comp-op:src"/>
</g>
<g stroke="#fff">
<path transform="scale(.1)" d="m1707.1 1524.3-1-5-1-3-1-5-2-3-1 3-3 12-1 5-2 14-1 9-2 20-2 12-4 26-3 28-4 28-2 12-1 11-1 10-1 9-2 14v7l-1 5v5l-1 4-1 3v3l1-3 3-10" style="clip-to-self:true;comp-op:src"/>
<path transform="scale(.1)" d="m1670.3 1540.7-1-4 1-5 2-4 4-6 3-4 4-4 5-3 5-5 14-8 18-9 22-8 12-4 25-7 13-3 11-3 11-2 10-2h9 7 7l4 1 3 2v6l-9 10" style="clip-to-self:true;comp-op:src"/>
<path transform="scale(.1)" d="m1618.9 1656.4h3l3-1 3-2 4-1 5-2 7-2 7-3 8-3 20-8 24-10 13-4 14-5 13-5 14-4 13-3 24-6 10-2 8-1 8-2 6-1 5-2 6-2" style="clip-to-self:true;comp-op:src"/>
<path transform="scale(.1)" d="m1835.1 1606 3 1 3 3 2 5 1 4 1 5v6 6 7l-2 16-2 18-1 10-2 18-1 8-1 7v7l-1 6 1 5v4l1 4 1-7" style="clip-to-self:true;comp-op:src"/>
<path transform="scale(.1)" d="m1866.4 1574.7 1-4v-4l4 1 2 4 1 6v3 14 6l-1 5v5l-3 12" style="clip-to-self:true;comp-op:src"/>
<path transform="scale(.1)" d="m1913.8 1625.8-1 3v5 4 5l-1 5v5 6 6l-1 5v19l1 12v5l2 8 1 2 2 3h3l5-2 2-3 3-3 3-4 6-10 3-6 4-7 3-6 4-7 3-7 4-7 4-6 3-6 4-5 3-4 4-4 3-2 3-1 5 1 5 5 2 4 1 5 2 6 2 14 1 8 2 7 1 8 1 7 2 7 3 7 2 5 3 5 4 3 4 2 5 1 5-1 16-5" style="clip-to-self:true;comp-op:src"/>
<path transform="scale(.1)" d="m2179 1614.3-3 2-4 1-12 4-8 2-7 4-8 4-14 10-6 5-7 5-5 5-5 6-5 5-4 6-6 10-1 6-1 5v4l1 5 2 4 3 4 4 3 5 4 5 2 14 4 8 1 7 1h9l8-1 7-1 8-1 14-4 7-3 6-3 6-4 5-4 4-4 4-5 3-6 3-5 3-21v-9l-1-10v-10l-2-26-1-14-1-16-1-15v-16l-1-16v-15-14l1-13 1-11 1-9 1-8 1-5 1-3h3l1 3 1 4 1 6 2 7v8l1 9v11l-1 12v14l-1 14-1 15-2 17-1 17-1 18-1 17v17l-1 16v26l1 11v9l3 17" style="clip-to-self:true;comp-op:src"/>
<path transform="scale(.1)" d="m2645 1482.7-1-4-2-3-4-1-4 4-2 4-2 5-3 7-4 8-4 10-4 12-5 12-12 42-3 15-3 14-2 13-1 12v11 10l1 8 2 6 3 5 2 4 4 2 3 2h5 4l6-1 5-2 12-6 5-4 6-5 5-5 10-12 4-7 6-14 3-8 3-7 2-7 1-6 2-6 1-4 1-5v6 3 5l1 4 1 5 1 6 4 10 2 4 3 4 7 7 4 3 5 1 4 2h5 5 5l5-1 8-4 4-3 6-8 2-4v-5l1-5-1-5-1-6-2-6-3-7-3-6-3-7-4-7-5-6-4-6-5-6-10-8-6-2-10-2-12 4-5 3-5 4-4 5-8 12-2 8-2 7v8 7l1 7 2 6 2 5 3 5 4 3 11 6" style="clip-to-self:true;comp-op:src"/>
<path transform="scale(.1)" d="m2872.1 1524.5-2-5-2-2-3-2-4-2h-3-5-4l-8 2-3 2-4 2-6 6-4 8-2 10 1 6 4 12 3 7 8 14 20 28 5 6 4 6 3 6 6 10 2 10-1 4-1 3-3 4-3 2-4 3-6 2-6 1-7 2-7 1-8 1h-8l-8 1h-9l-9-1-8-1-9-2-14-6-14-10" style="clip-to-self:true;comp-op:src"/>
<path transform="scale(.1)" d="m3113.9 1485.8-2-3-5-5-3-2-4-1h-4-5-4l-15 6-5 4-6 5-7 7-7 8-7 9-8 12-8 13-8 14-7 15-7 16-12 32-4 16-3 16-2 15-1 15 1 14 2 12 3 11 5 9 6 7 9 5 9 3 12 1 12-1 14-2 14-4 39-13" style="clip-to-self:true;comp-op:src"/>
<path transform="scale(.1)" d="m3188.4 1587.9 6-12 3-3 3-2 3-3 3-2 4-2 6-2h6l5 1 3 3 2 6 1 4-2 10-6 21-3 7-4 6-3 7-2 6-3 5-2 5-2 4-2 3-1 4 2-4 2-3 3-4 3-5 4-5 3-6 4-6 5-7 8-14 5-7 4-8 3-8 4-7 10-20 2-5 1-4 2-3 1-2-2 5-1 3-1 5-2 5-1 7-2 7-1 7-1 8v8 8 8l1 8 2 7 3 7 3 6 8 10 6 3 6 2 6 1 18-2" style="clip-to-self:true;comp-op:src"/>
<path transform="scale(.1)" d="m3344 1598.7-2 2 5 3 3 1 5 1h5 20l8-1h8l9-1 10-1 27-3 9-2 7-1 8-2 12-4 5-3 8-6" style="clip-to-self:true;comp-op:src"/>
<path transform="scale(.1)" d="m3428.2 1536.8-3-5-2-2-2-3-2-4v4 4l1 5v6 8l1 9v10 11l1 11v12l2 22 1 10 2 10 2 8 3 7 3 6 5 4 5 2h17" style="clip-to-self:true;comp-op:src"/>
<path transform="scale(.1)" d="m3598.9 1530.9-3 2-3 3-4 6-4 10-1 5-2 6-1 6v6 7 6l4 14 3 6 4 6 4 5 5 5 6 4 6 3 7 2 8 1h7l8-1 9-2 8-2 8-4 16-10 8-6 7-7 6-7 6-8 5-9 5-8 3-9 4-16 1-6v-6l-1-4-1-3-3-3-3 2-2 2-2 4-2 5-2 6-1 7-2 7-1 9-2 9v10l-2 22v11 12 11l1 12 1 11v11 11 20 10l-1 10-1 9-2 9-1 8-6 12-8 10-4 3-10 6-12 4-7 1h-7-8l-8-1h-8l-8-2-9-1-8-3-7-3-7-4-6-5-5-5-9-13" style="clip-to-self:true;comp-op:src"/>
<path transform="scale(.1)" d="m3829.3 1477.1 2-3 1-3 4-6 2-2 5-3h3 4 4l5 1 5 2 12 6 7 4 6 5 7 6 6 7 7 8 5 9 5 11 3 11 2 13v14l-1 15-3 15-3 16-5 16-6 15-7 15-8 14-7 13-8 11-9 11-8 9-16 14-8 6-8 4-7 3-8 3h-7-7l-17-6" style="clip-to-self:true;comp-op:src"/>
<path transform="scale(.1)" d="m4545.8 1536.2-2-3-3-1-2 4-1 4-1 5-2 7-1 8-2 9-2 11-3 10-1 12-2 10-1 11-1 9v10l1 8v8l1 7 1 6 2 5 1 4 3 3 4-3" style="clip-to-self:true;comp-op:src"/>
<path transform="scale(.1)" d="m4562.5 1448.7-1-5-1-3-3-3-3 1-1 5 1 5 1 3 1 4 5 10 6 9 6 8" style="clip-to-self:true;comp-op:src"/>
<path transform="scale(.1)" d="m4617.2 1570v4l-2 5-1 3-1 4-2 5-1 4-1 5v5l-1 4v3 8l2-2 3-6 1-4 2-5 3-6 2-6 3-7 4-6 4-8 5-8 6-7 7-8 6-7 8-7 7-5 8-4 7-4 6-2 6-1h6l4 1 5 2 3 4 2 4 2 5 2 6 1 8v7 9l-1 9-1 10-2 10-1 10-2 9-1 9-2 14v8h6" style="clip-to-self:true;comp-op:src"/>
<path transform="scale(.1)" d="m5211.2 1401.5v-5-4l-1-4v-4l-1-4 2 6 1 5 1 6 1 7 1 9 1 10v10l1 12v38l-1 14v15l-2 32-2 34v16l-2 15-1 14-1 12v10l-1 8v6 4" style="clip-to-self:true;comp-op:src"/>
<path transform="scale(.1)" d="m5093 1578.9-1-5v-3-3l3-4 3-2 4-3 6-2 6-3 14-6 8-3 7-3 32-12 19-6" style="clip-to-self:true;comp-op:src"/>
<path transform="scale(.1)" d="m5274.6 1578.6 1 3 4-2 5-4 3-4 4-3 3-5 12-15 4-6 3-5 3-6 3-5 4-10 1-4v-4-4l-3-4-3-1h-3l-5 1-6 2-7 4-6 4-7 5-7 6-7 8-6 8-10 18-4 11-3 10-3 11-2 11-1 9-1 10 1 8 1 7 2 5 4 5 3 3 6 2 5 1h7l7-2 8-2 8-3 8-4 9-6 8-5 9-7 16-16 7-8 7-9 7-8 7-9 5-9 6-7 5-8 5-6 4-5 6-6 3-2 5 1 4 4 3 4 2 5 3 6 2 7 3 8 2 8 4 18 2 10 2 20 1 9v9 22 5l-1 4-1 5-3-1-1-6-1-4-1-6v-6-7-8l1-8 1-9 2-10 1-11 3-11 4-12 4-11 4-10 6-10 5-9 7-8 7-7 21-15 7-4 6-3 6-2 13-2" style="clip-to-self:true;comp-op:src"/>
<path transform="scale(.1)" d="m5572.1 1517.9v-3 3l-1 6-1 5v5l-1 6-2 7-1 8-2 8-1 9-4 19-1 10-4 18-1 9-1 8-2 12v3l-1 3 3-3 2-4 3-5 3-6 3-7 4-9 4-8 4-9 5-10 4-10 5-9 6-10 5-10 6-10 5-8 5-7 5-6 7-7 3-2h4l2 5 1 4 1 5v7l1 7v9 9 29 10l2 18v7l2 12 2 3 1 3 4 3 4-2 2-2 3-4 3-5 3-6 3-7 6-16 3-9 4-10 8-18 5-10 5-9 6-9 6-7 7-6 6-6 6-3 5-3 5-1h4l4 1 4 3 3 3 2 5 2 6 2 8 1 8 1 10 1 9v11 10 11 11l1 11 1 9 1 8 2 7 2 5 2 4 8 4" style="clip-to-self:true;comp-op:src"/>
<path transform="scale(.1)" d="m5904.3 1520.6 6-12 2-6 2-5v-4l-1-4-4-1-6 2-5 2-4 3-10 8-5 5-5 6-4 6-4 7-3 7-1 7-1 8v7l1 8 2 8 3 8 4 8 5 7 5 8 6 7 7 8 6 7 7 6 6 7 6 6 8 12 2 5 1 5v4l-1 4-3 4-4 3-6 3-7 2-8 2h-9-10l-11-1-28-6" style="clip-to-self:true;comp-op:src"/>
<path transform="scale(.1)" d="m6370.6 1547.1-6-1-3-1-4 1-3 2-3 3-3 4-3 5-2 6-3 6-3 8-2 8-2 9-2 18v9 8l4 16 6 12 4 4 5 4 6 2 6 1h6l6-1 12-4 5-4 6-5 8-12 3-7 2-7 1-8v-9l-2-18-3-9-2-9-8-18-5-8-5-6-6-6-6-4-5-4-6-2-5-1h-5l-4 1-3 2-3 3-2 3-1 4v5l1 4 4 8 10 10" style="clip-to-self:true;comp-op:src"/>
<path transform="scale(.1)" d="m6529.6 1530.1 5-6 4-6 6-8 5-10 4-10 4-11 4-12 3-12 8-26 6-26 4-24 2-10v-9-8l-1-5-2-5-2-2h-5l-3 2-3 3-4 6-3 7-4 8-3 9-3 11-3 12-3 13-3 15-2 16-3 17-3 20-2 22-3 25-2 27-3 29-2 30-2 31-2 30-1 29v29 28l1 26 2 25 2 22 3 21 3 19 4 16 3 14 3 12 3 10 3 8 2 5 3 4h4l3-2 2-4 2-6 1-7 2-18v-26" style="clip-to-self:true;comp-op:src"/>
<path transform="scale(.1)" d="m6518.8 1750.2-2-3-2-5-5-8-5-10-6-9-10-16-5-7-4-5-3-6-3-5-1-4-1-5v-4l2-5 3-4 4-4 5-4 7-4 8-3 9-4 10-3 12-4 28-8 16-3 16-4 34-8 16-3 16-4 14-3 12-2 10-2 7-2 4-2v-3l-5-1-25-1" style="clip-to-self:true;comp-op:src"/>
<path transform="scale(.1)" d="m5097.7 2225.2-4 1-3 1-4 3-3 4-5 5-4 7-5 9-5 10-5 11-5 14-4 14-5 14-3 15-3 14-2 13-1 14v12l1 11 3 10 4 9 4 8 6 5 6 4 7 2 8 1 9-1 9-3 10-3 11-6 10-6 11-8 11-9 10-9 9-10 16-22 6-11 5-12 4-11 4-9 2-9 2-7 1-5v-3h-4l-2 3-2 4-3 5-3 7-2 8-3 9-1 9-2 9v8 9l1 8 1 7 2 6 3 6 8 8 5 2 5 1h6l7-1 7-2 8-3 7-3 7-4 8-6 6-5 6-6 5-7 4-6 2-8 2-7v-7l-1-8-1-7-6-14-4-5-10-8-6-2-6-1h-7l-16 4-8 4-8 5-16 12-7 7-6 8-4 7-3 7-1 7v7l4 10 4 4 6 3 6 1 7 1 20-1" style="clip-to-self:true;comp-op:src"/>
<path transform="scale(.1)" d="m5411.2 2266.2 1-3-1-6-3-2-4-1h-5l-6 1-14 4-9 4-8 3-18 10-16 12-12 14-5 8-3 7-2 7-1 6 1 6 2 5 3 5 5 5 5 4 6 4 7 3 8 3 9 3 8 3 9 2 8 3 7 4 6 3 8 8 1 4 1 5-1 4-3 4-4 4-5 4-6 4-16 6-10 3-30 6h-10l-9 1-9-1h-8l-7-2-6-2-5-3-5-4-3-4-1-6 3-17" style="clip-to-self:true;comp-op:src"/>
<path transform="scale(.1)" d="m5490.7 2351.8-3-2-3-3v-3l2-6 2-4 3-3 3-4 9-9 18-12 14-6 6-2 7-2h6 5l4 1 6 4 2 8-1 6-2 7-3 7-4 8-5 8-5 9-5 8-6 8-5 7-6 7-4 6-4 5-4 4-4 6 4-2 7-7 4-5 20-20 7-8 8-9 7-8 14-18 12-18 10-16 6-14 2-4 1-4-3-2-2 2-4 3-4 4-4 6-10 14-8 18-3 9-4 20-1 9v10l1 9 3 9 3 8 4 7 6 7 7 5 8 4 8 2 10 1h11l28-3" style="clip-to-self:true;comp-op:src"/>
<path transform="scale(.1)" d="m5743.4 2352.1-2-3 5 1 4 1 3 2 5 1 5 2 10 6 4 4 5 4 5 5 4 6 6 12 2 6 2 7v6l-1 7-1 6-6 12-4 5-6 5-5 4-7 4-6 3-7 3-16 2-9-1-8-1-22-7" style="clip-to-self:true;comp-op:src"/>
<path transform="scale(.1)" d="m6101.5 2270.9-5-5-3-2-4-3-5-1-8-2-10 2-6 1-5 3-6 4-6 5-5 7-6 7-10 18-5 11-4 10-3 11-2 11-1 10-1 9 1 9 1 8 2 8 3 6 4 6 4 4 6 3 6 2 7 2h9l8-1 9-2 10-3 9-3 18-8 8-5 8-6 7-6 6-7 5-7 8-16 3-8 2-7 1-6 1-5-1-4-2-3-5 3-3 2-2 5-3 5-3 6-3 7-2 7-1 7-1 8v7l1 7 2 6 3 6 3 4 4 5 5 3 6 2 12 2h7l14-4 7-3 14-8 11-11 4-5 3-7 4-14 1-8-1-8v-9l-2-9-1-10-3-9-6-16-4-6-4-5-5-4-5-2-6-1-5 1-6 2-6 3-10 10-4 6-3 7-3 8-2 8-1 8 2 14 6 15" style="clip-to-self:true;comp-op:src"/>
<path transform="scale(.1)" d="m6327.4 2284.8-2-4-5-3-4-1-10 2-12 4-5 3-6 4-5 4-5 5-4 5-2 5-2 7-1 5v7l2 6 2 5 3 6 4 5 5 4 5 5 6 5 6 4 5 4 14 14 4 10v4l-1 5-2 5-8 8-5 3-6 3-7 3-7 2-14 2h-7l-7-1-6-1-5-2-4-2-4-3-2-4-1-4v-5l2-6 4-7 5-8 6-8 20-22" style="clip-to-self:true;comp-op:src"/>
<path transform="scale(.1)" d="m6399.6 2303.8-2 3-1 3-2 4-2 5-3 18v6 6 5 5l1 5 1 4 2 5 1 4 3 3 8 6 5 2 6 1h7l7-1 8-1 8-2 8-3 9-3 16-8 14-10 12-12 4-7 5-7 3-8 2-7 4-12v-5-3l-1-4-3 1-2 3-1 4-2 5-1 6-2 7-2 18-2 10v10l-1 11v10 12l1 12 1 13 1 14v15l1 16v15 16l-1 17v15l-4 32-1 14-3 14-3 13-6 22-4 9-5 9-5 7-6 6-7 4-7 3-8 2h-8l-8-1-9-2-8-3-8-4-7-5-7-6-6-7-5-7-5-8-8-18-2-9-1-9v-9l1-9 3-10 3-9 6-11 6-9 7-10 9-10 10-9 24-18 14-9 14-8 14-7 15-8 14-6 34-14" style="clip-to-self:true;comp-op:src"/>
<path transform="scale(.1)" d="m6654.3 2417.9h-9l-6 1-3 5-2 3-1 3-1 4-1 5-2 5-1 5-1 7-2 12-1 7-1 5-1 6-4 10-6 10" style="clip-to-self:true;comp-op:src"/>
<path transform="scale(.1)" d="m6942.1 2257.5-1-6-1-4-6-12-4-4-4-3-5-3-5-1-7-1h-7l-7 1-16 4-9 4-10 4-9 5-18 12-9 7-8 8-8 7-6 8-4 8-3 8-1 7 1 7 3 6 5 6 6 6 8 6 8 5 9 4 9 5 8 4 9 5 8 4 14 10 5 5 3 6 3 5 1 6-1 5-2 6-3 5-4 5-6 5-7 5-8 4-8 3-9 3-10 3-10 1-9 2h-9l-8-1-7-1-5-2-3-3-1-4 1-5 9-16" style="clip-to-self:true;comp-op:src"/>
<path transform="scale(.1)" d="m6958.6 2325.3v4 4l-2 8v5l-1 6-1 7-1 6-1 7-1 6-2 7-1 6-2 7-1 5-1 6-1 5-2 8" style="clip-to-self:true;comp-op:src"/>
<path transform="scale(.1)" d="m6994.8 2287.1-3-2-4-2-4 1-3 5-1 3v3 5 4 5l1 4 1 5 9 18" style="clip-to-self:true;comp-op:src"/>
<path transform="scale(.1)" d="m7030.2 2352.3-2 4-1 4-2 6v4l-1 4v4l-1 4v5l-1 4-1 9v4l-1 3v3l-1 5-3 1-1-3v-6l1-4 1-5v-5l6-18 3-7 8-16 5-8 6-9 6-8 16-16 16-10 9-4 9-2 8-1h9l8 1 7 2 8 3 7 4 6 5 5 6 5 7 6 14 1 8 1 9-1 8-2 8-6 16-4 8-5 6-4 6-5 5-5 4-5 3-4 1h-10" style="clip-to-self:true;comp-op:src"/>
<path transform="scale(.1)" d="m7235 2341.8-3-2v-4l2-4 2-2 2-3 3-3 3-4 5-4 4-4 12-6 6-4 21-6 7-1h7l5 1 10 4 2 4 2 5v5l-2 14-12 24-12 16-12 14-6 6-6 5-5 5-4 3-3 2-3 1v-4l3-3 3-4 4-5 5-7 5-6 14-16 8-8 7-8 9-9 32-36 7-8 6-7 5-6 4-4 3-4 3-3-7 7-4 5-4 6-5 6-4 8-6 9-12 27-3 10-3 9-2 8v8 7l2 12 6 8 4 2 4 1 13 1" style="clip-to-self:true;comp-op:src"/>
<path transform="scale(.1)" d="m7457.8 2328.1 3 2 4 5 3 4 2 4 4 6 3 6 4 6 4 7 3 7 4 7 3 8 4 16v9 8l-2 8-3 8-6 7-6 6-24 12" style="clip-to-self:true;comp-op:src"/>
<path transform="scale(.1)" d="m7750.7 2256.1 6-14 3-8 2-9 2-8 2-16v-7l-2-12-2-6-2-4-3-4-8-4-5-1h-6l-6 1-7 1-14 6-8 4-8 5-7 6-7 5-6 7-6 6-5 7-3 7-2 7-2 14 1 7 2 8 3 7 4 7 5 7 5 8 13 13 13 14 7 6 6 7 5 7 6 14 2 6v6l-1 6-3 5-4 5-5 5-6 5-7 4-8 4-8 3-18 6-8 1-9 1-7 1-7-1-6-1-5-1-3-3-1-3-1-4 2-5 3-5 12-16" style="clip-to-self:true;comp-op:src"/>
<path transform="scale(.1)" d="m7780.5 2301.9v5 3l1 4v21l-1 7v6l-2 14-2 12-2 10v5 7l4-4" style="clip-to-self:true;comp-op:src"/>
<path transform="scale(.1)" d="m7824 2255-1-3v6l2 6 1 4 1 5 2 8 2 4 3 11" style="clip-to-self:true;comp-op:src"/>
<path transform="scale(.1)" d="m7880.6 2307.2-3 3-1 3v4 5l-1 6v7l-3 21-2 8-2 7-1 6-4 14-4 10-2 4-1 3-3 2-3-2-1-5 1-4 1-5 2-6 3-6 4-6 5-8 6-8 7-8 17-17 10-9 10-8 11-8 11-6 10-5 9-4 9-1 8-1h6l6 2 5 2 3 4 3 5 2 6v7 7l-1 8-4 16-6 16-4 7-3 6-4 6-3 4-2 4-4 3" style="clip-to-self:true;comp-op:src"/>
<path transform="scale(.1)" d="m8074.7 2265.1h-4l-5 3-2 2-3 4-1 5-2 5-2 12-1 7v7l2 14 2 8 6 14 8 12 6 5 5 4 7 3 7 2 14 2 8-1 7-2 8-2 21-12 6-6 5-6 4-7 6-16 1-7 2-16v-7-5-5l-1-4-2-4-3 2-1 3-2 10-1 8v8l-1 10v11 24 13l1 14v13l2 28v15l1 15 1 16v16l1 16v17l-2 34-2 32-2 14-3 14-3 13-4 14-5 12-6 12-7 11-7 9-8 8-8 6-9 5-9 3-10 2-10 1-9-1-9-2-8-3-8-4-7-5-6-6-4-7-3-8-3-9-1-9v-11l1-11 3-11 3-12 4-12 6-11 6-12 16-24 9-12 10-12 10-11 22-20 24-20 12-9 13-8 13-9 32-19" style="clip-to-self:true;comp-op:src"/>
</g>
</g>
</g>
</svg>
