<?xml version="1.0" encoding="UTF-8"?>
<svg width="1e3pt" height="600pt" version="1.2" viewBox="0 0 1e3 600" xmlns="http://www.w3.org/2000/svg">
<g id="surface16">
<rect width="1e3" height="600" fill="#2e3436"/>
<g fill="none" stroke="#fff" stroke-linecap="round" stroke-linejoin="round" stroke-miterlimit="10">
<g stroke-width="14.1">
<path transform="scale(.1)" d="m3530.4 486.64-2-5-3-5-2-2-4-3-3-2-4-1-3 1-2 4-1 3-2 8-1 6-1 7-2 9-1 9-1 11-2 11-1 12-1 13v14l-1 14v15 14 14l1 13 2 12 2 11 3 10 3 8 10 12 6 4 7 4 7 2 8 1h9 9l9-2 10-2 9-3 18-8 16-8 7-4 6-5 5-6 11-12" style="clip-to-self:true;comp-op:src"/>
<path transform="scale(.1)" d="m3462.9 496.95v-4l1-3 1-4 2-4 2-3 3-3 4-3 5-3 6-3 8-3 8-4 10-3 11-4 12-4 12-3 13-4 12-3 13-3 12-4 11-2 10-2 9-1 8-1 7-1h6 5l4 1-1 6" style="clip-to-self:true;comp-op:src"/>
<path transform="scale(.1)" d="m3517 565.27h5l5-1 5-2 5-3 7-2 7-3 8-3 9-3 8-4 10-3 9-3 10-3 10-2 10-3 9-3 7-2 8-3 14-4" style="clip-to-self:true;comp-op:src"/>
<path transform="scale(.1)" d="m3678.8 547.42-1 4-1 5-1 3v4l-1 5v6 7 7 7l3 24 2 9 2 7 2 8 2 7 3 6 2 5 3 4 4 3 3 2 3 1h4l3-1 3-2 4-2 4-3 3-5 8-10 4-7 3-7 4-7 3-8 4-8 3-8 3-9 3-8 2-9 3-8 2-8 4-14 2-5 1-3 2-5v4 4 5 6l-1 6v34l1 10v9l2 10 1 10 2 9 5 15 4 5 3 2 4 1 12-3" style="clip-to-self:true;comp-op:src"/>
<path transform="scale(.1)" d="m3915.6 520.94h-5l-5 1-4 2-5 3-6 4-10 10-10 12-4 7-12 24-3 9-3 10-4 20v11 10l1 9 2 9 3 7 4 6 5 5 6 4 7 2 7 1h9l10-1 10-2 10-4 11-4 22-12 11-7 10-8 9-8 21-22" style="clip-to-self:true;comp-op:src"/>
<path transform="scale(.1)" d="m4057.3 395.43 1-3 1-4-2 5-2 4-1 5-2 6-2 7-2 8-2 9-4 20-2 12-1 12-2 14-1 14-2 15-1 15-2 32v15l1 15v14l2 14 2 12 2 11 4 9 3 8 4 5 5 4 5 3 5 1 5-1 6-2 6-3 6-5 12-12 10-16 5-9 4-10 3-9 3-10 2-11 4-20 1-10 1-8v-7l1-6v-5l-2-3-2 3-1 3-2 5-1 5-3 21v8 8 9l1 8 1 9 2 9 4 16 3 7 3 6 4 5 4 4 4 3 5 1 4 1 5-1 10-6 4-5 3-6 8-17" style="clip-to-self:true;comp-op:src"/>
<path transform="scale(.1)" d="m4173.3 487.19-2 3-2 4-2 6v3 4l1 4 1 3 1 4 2 6 2 3 5 7" style="clip-to-self:true;comp-op:src"/>
<path transform="scale(.1)" d="m4299.9 525.94-5-1-4-1h-4l-5 1-8 4-4 4-5 4-4 5-4 6-8 14-4 8-6 18-2 9-1 9v10l1 9 2 9 6 16 4 5 6 5 6 3 7 2h7l8-1 8-2 8-3 8-4 8-5 8-6 14-14 7-8 6-7 6-9 5-8 5-9 8-18 6-20 2-11 2-12 1-11 1-12v-13-13-13-13l-1-14v-13-43l-1-3-1 4v4l-1 7-1 9-2 10-2 12-1 14-4 34-1 19-2 20v19l-1 20v18 18l1 17 1 15 2 13 7 21 4 7 5 5 4 2 6 1 5-1 6-3 12-10 7-8 6-8 12-20 15-33 4-12 4-10 3-11 6-18 2-7 2-6 3-7-2 5-3 15-1 7-1 6-1 7-1 6v7 7 7l1 7 1 6 1 7 1 5 2 5 3 4 2 3 3 1h5l2-2 7-8" style="clip-to-self:true;comp-op:src"/>
<path transform="scale(.1)" d="m4535.6 495.55-1-4v5l-1 6v4 7l1 10" style="clip-to-self:true;comp-op:src"/>
<path transform="scale(.1)" d="m4663.3 519.8-5-2-4-2-4-1h-5-6-5l-6 1-15 6-5 3-9 9-8 10-9 21-4 18-1 8v10 9l1 10 4 18 3 7 4 6 5 5 5 3 6 2h6l7-1 7-2 8-3 7-5 8-6 7-6 7-7 6-7 10-16 4-8 6-16 2-8 1-8 2-7 1-7v-6l1-5v-8l-3 5-1 4-1 5v6l-2 14v7 8 8l1 8 1 9 4 16 4 14 4 6 3 5 3 3 4 3h3 4l4-1 4-3 5-4 4-4 5-6 4-6 4-7 8-16 6-17 3-9 9-24 3-7 2-6 3-5 2-4 2-3 4-2 2 3 1 3v4l1 5 1 6v7l2 16v9l1 8 2 9 1 9 1 8 2 9 2 7 2 8 4 12 2 5 2 3 4 2 4-2 3-3 4-10 3-6 2-7 2-8 3-8 4-16 12-36 4-9 5-9 5-8 6-8 6-7 6-6 6-4 6-2 4-1h5l4 2 3 3 3 5 3 6 6 16 2 10 4 24 2 14 3 14 1 13 3 14 2 14 2 12 6 28" style="clip-to-self:true;comp-op:src"/>
<path transform="scale(.1)" d="m5259.1 420.51-3 1-1 6v4 6l-1 7-1 8v9l-1 12-1 13-1 14-2 17-1 17-2 19-4 42-4 44-2 21-1 20-1 17-1 15v12l1 10v7l4 8 5-9" style="clip-to-self:true;comp-op:src"/>
<path transform="scale(.1)" d="m5254.6 466.84v-4l2-5 4-6 12-9 6-3 14-6 8-3 20-4 11-2 12-1h12 12l12 2 10 2 10 3 9 5 7 6 6 8 4 10 3 12 1 13v15l-2 17-2 19-4 20-5 22-6 22-7 22-7 21-8 19-8 17-8 15-9 13-9 10-9 8-9 7-9 5-9 3-8 3-8 1-7 1h-7l-6-1-10-4-3-3-3-4-2-5v-7l3-19" style="clip-to-self:true;comp-op:src"/>
<path transform="scale(.1)" d="m5446.2 568.36 2 4 1 3 1 6v6 15 9 10l-2 20v10l-1 11-1 10v10l-1 9v9 9 8 7l1 5 1 3 2 3 6-9" style="clip-to-self:true;comp-op:src"/>
<path transform="scale(.1)" d="m5582.6 555.51 6-12 1-5-2-3h-4l-5 3-4 2-3 3-4 3-4 5-5 4-4 6-3 5-6 12-4 12v6l-1 6 1 5v5l2 5 6 8 3 3 8 6 5 3 12 9 3 3 3 5 2 4 1 4v5l-1 5-1 4-6 10-3 4-4 4-5 4-10 6-6 3-5 2-6 1-5 1h-5-5l-4-1-3-2-3-3-2-3-2-4v-12" style="clip-to-self:true;comp-op:src"/>
<path transform="scale(.1)" d="m5725.4 438.67-3 2-1 5v5l-1 5v7 7 29 12l1 12v14l1 14 2 30 3 31 1 15 2 15 1 14 1 13v11l1 9v7l-1 5-1 3-2 3" style="clip-to-self:true;comp-op:src"/>
<path transform="scale(.1)" d="m5650.4 627.77 5-5 3-2 8-6 5-3 5-2 6-3 6-2 35-15 19-7" style="clip-to-self:true;comp-op:src"/>
<path transform="scale(.1)" d="m5866.2 547.7-1-3-4-3-9-3h-4-4l-3 1-4 1-8 4-3 4-4 3-8 12-4 7-4 9-3 10-4 10-6 22-2 12-1 12-1 10v10l1 9 2 14 2 4 5 5 3 1h4l3-1 8-6 4-4 3-5 8-12 4-7 3-8 9-27 2-9 3-10 2-8 2-9 3-7 2-7 4-8 2-3 3 3 2 7 1 5v5l2 12v7l1 8v7 8 7 7 7 25-9-4l2-12 1-7 1-8 2-8 2-9 3-9 4-9 4-10 4-8 5-9 6-8 5-7 6-6 6-4 5-3 4-2h4 4l2 3 3 3 2 4 2 12 2 7v7l2 16v8l1 8v8 8l1 6v7l1 5v4l1 5 1-4 1-3 2-5 1-5 4-14 3-7 2-8 3-7 12-24 10-14 5-6 4-5 5-4 5-3 4-2 4-1 6 2 3 3 2 4 2 5 1 5 2 14 1 8 1 9 1 8 3 27 1 8 2 7 1 7v7l2 14" style="clip-to-self:true;comp-op:src"/>
<path transform="scale(.1)" d="m6227.7 534.34-1-3-2-3-3-3-5-1-4-1-6 1-6 2-8 4-4 3-8 9-8 10-3 6-4 6-6 12-1 7-2 7-1 7v7 8l1 7 2 7 3 7 3 6 5 7 10 10 7 4 6 3 7 2h8 7l7-1 6-2 17-7" style="clip-to-self:true;comp-op:src"/>
<path transform="scale(.1)" d="m6286 587.89 1 4 2 3 3 3 5 3 6 2h3 5l4-1 5-1 10-4 6-2 5-3 12-7 11-8 10-8 4-5 4-4 6-10 1-5 2-5v-5-5-5l-1-5-1-4-2-4-3-4-3-2-4-1-5-1-5 1-6 1-6 2-6 3-6 4-6 5-6 6-5 7-10 16-12 30-4 22-1 11v11 11l2 10 3 9 4 9 5 7 6 6 7 4 9 3 10 2 24-2 14-3 15-4 16-6 15-7 16-8 36-21" style="clip-to-self:true;comp-op:src"/>
<path transform="scale(.1)" d="m3427.9 1417v2267h2834" style="clip-to-self:true;comp-op:src"/>
</g>
<path d="m409.4 308.56 174.28-138.52" stroke-width="1.41" style="clip-to-self:true;comp-op:src"/>
<g stroke-width="14.1">
<path transform="scale(.1)" d="m4113.8 3272.2 1-4 2-10v-6-12-3l-2-6-4-4-4-2h-6l-3 1h-4l-8 4-4 3-4 4-6 5-5 6-5 7-6 7-5 8-5 9-4 9-5 10-6 20-2 9-1 10-1 9v8l2 14 2 5 2 4 3 4 3 2 4 1 3-1 4-1 10-6 6-4 6-5 6-6 12-14 5-7 6-8 5-7 4-8 4-7 4-8 3-8 4-14 4-12 1-4 1-3v-4 6 21 7l3 21 1 8 10 35 3 5 2 5 2 3 2 2 5 2 4-3 5-6" style="clip-to-self:true;comp-op:src"/>
<path transform="scale(.1)" d="m4227.3 3301.2-1 3v5 3 3l-1 4v5 5 5l-1 5v7 6l-3 21-1 9-1 8-2 8-1 8-2 8-2 7-2 6-3 5-2 5-6 6-7 3" style="clip-to-self:true;comp-op:src"/>
<path transform="scale(.1)" d="m4323.5 3158.7-2-4-2-2-3-1-3 3-4 5-4 8-3 5-4 12-2 7-1 8-3 27v10l1 19v10l1 8 1 9v7l2 12 1 3 2 5 4-1 5-4 2-3 3-5 2-5 3-7 4-6 3-8 8-16 4-9 4-8 5-9 5-8 5-7 5-6 5-5 5-4 5-3 5-2 4-1h5l3 1 8 4 4 3 3 4 4 10 2 6 1 7v7 7l-1 8-1 7-4 14-3 7-4 7-4 6-5 5-4 5-6 4-5 4-10 6-5 2-5 1h-4-5l-5-1-10-4-15-4" style="clip-to-self:true;comp-op:src"/>
<path transform="scale(.1)" d="m4015.9 3161.5-6-1h-4l-4 1-10 2-5 3-5 2-5 4-5 3-9 9-8 12-4 8-3 8-4 10-4 22-2 13v13 13l1 14 2 14 3 15 4 13 5 14 6 14 7 12 8 12 9 12 9 10 11 9 12 8 12 6 13 5 13 4 35 4" style="clip-to-self:true;comp-op:src"/>
<path transform="scale(.1)" d="m4490.9 3074.8 3-3h4 3l8 2 5 2 5 3 5 2 5 4 6 4 5 5 6 5 5 6 6 7 6 9 5 9 5 10 3 11 4 12 2 12 1 13 1 14-1 14-2 14-3 14-4 13-6 14-6 12-8 12-8 10-24 24" style="clip-to-self:true;comp-op:src"/>
<path transform="scale(.1)" d="m3942.8 2807.5v-4l-1-4v-4l-1-3-2-5-1-3-4-1-1 3-2 5-2 10v6l-1 7v8 9l-1 9v32l1 12 1 11v12l2 10 1 10 1 9 1 8 2 12 2 8 1 3h4l1-4 1-3 1-4 1-5 1-6 2-14 1-8 1-9 2-20 2-24v-13l1-13v-15l-1-15v-16l-1-16v-17l-1-16 1-16v-13l1-12 1-9 1-7 1-6 1-3 3-3 3 1 3 5 3 4 2 5 2 6 3 8 3 7 6 18 8 20 4 11 5 11 4 12 5 11 10 24 5 11 4 12 4 11 4 10 6 18 3 8 2 7 3 6 2 5 1 4 1 3 2 4-3-3-7-6" style="clip-to-self:true;comp-op:src"/>
<path transform="scale(.1)" d="m3953.9 2870.6v-3l3-3 5-4 8-6 5-3 6-4 7-4 24-15 9-6 9-5 8-7 21-16" style="clip-to-self:true;comp-op:src"/>
<path transform="scale(.1)" d="m5728.4 1402.7v-3-3-4-3-4l1-3 3-1 3 2 3 5 1 4 2 4 4 12 2 8 1 8 2 8 2 9 2 8 2 9 2 8 4 14 3 6 2 5 4 8 4 5" style="clip-to-self:true;comp-op:src"/>
<path transform="scale(.1)" d="m5767.1 1397.3v-3-5l2-5 2-6 2-3 3-3 3-4 3-3 6-8 16-12 4-2 5-2 3-1 4-1 3 1 5 2 2 3 1 3 1 5v5l-2 12-2 7-2 8-3 7-2 7-3 6-3 7-6 10-2 4-2 2-2 3-1 3h4l5-2 8-4 10-4 6-2 5-1 5-2 6-1h5 5l5 1h5l4 2 6 4 2 3 2 4v4l-1 4-1 5-3 5-8 10-5 5-12 10-6 4-7 3-7 4-7 3-7 2-7 3-6 1-7 1-5 1h-5-4-4l-4-4-1-3-1-4 3-11" style="clip-to-self:true;comp-op:src"/>
<path transform="scale(.1)" d="m5964.8 1721.7-4-2-4-1h-4l-5 2-6 4-10 10-4 5-4 6-4 7-4 9-5 9-4 10-4 12-3 11-3 12-4 24v12 12 11l2 11 6 22 4 10 4 9 10 16 6 6 6 5 7 5 7 3 7 2 8 2h7 7l8-2 6-2 7-3 6-4 12-11" style="clip-to-self:true;comp-op:src"/>
<path transform="scale(.1)" d="m6054.6 1776.1h-3l-4 1-3 3-2 8-1 3-1 5v6l-1 7v7l-1 9-1 8v9 10l-1 10 1 21 2 20 1 9 1 8 1 6 1 5 1 4 2 3 2 4 3-2 2-5v-3l1-3v-4-4-3l-1-5v-4l-2-4-2-9" style="clip-to-self:true;comp-op:src"/>
<path transform="scale(.1)" d="m6038.2 1840v-3l-3-12v-4-5l-1-5-1-3v-4l-1-3v-3-9-4l3-15 2-5 2-6 3-5 3-4 4-5 3-4 4-4 5-3 4-3 4-2 8-2 3-1h4l6 2 3 2 4 4 2 3 1 4v4 5l-1 5-1 6-6 18-3 6-3 5-3 6-3 4-4 5-3 4-3 3-4 3-12 12-3 2-2 3-7 7 4 1" style="clip-to-self:true;comp-op:src"/>
<path transform="scale(.1)" d="m6153.7 1816-1 4-1 3v6 3l-1 3v4l-1 5v4l-1 5v5l-1 4v5 5 8 4 4 4l-2 4" style="clip-to-self:true;comp-op:src"/>
<path transform="scale(.1)" d="m6334.7 1725.4-4-3-3-3-9-12-4-4-5-3-5-2h-5l-4 1-3 1-3 2-4 3-3 4-4 5-8 12-4 8-3 8-4 8-3 9-3 8-4 16-1 7v6 6l1 5 1 3 3 3 5 3 3-1h3l4-2 4-3 5-4 4-5 5-5 10-12 4-6 12-21 3-7 6-12 2-5 1-5 2-6v5 5l-1 6-1 8-1 9-2 9-2 22-1 12-1 23v12 23 10l1 9v8l1 6 1 5 2 4 2 3 4 2 7-2 4-3 9-9 5-6 12-14 5-8 12-18 10-18 4-9 10-20" style="clip-to-self:true;comp-op:src"/>
<path transform="scale(.1)" d="m6441.2 1681.8 3-3 4-3 6-1 4-1h4 5l10 2 5 2 10 6 10 10 4 7 4 8 4 9 2 10 2 11v13 14l-4 30-3 16-4 17-4 16-5 17-6 16-7 15-7 14-8 13-8 12-10 11-10 10-11 9-11 7-28 15" style="clip-to-self:true;comp-op:src"/>
<path transform="scale(.1)" d="m1777 4532.8v-3l-1-4v3 4l1 5v25l-1 11v12l-2 28-1 17v17l-1 18-1 19v19l-1 18v18 16 40 9l1 8v6l1 5 1 3 2 4 4-2 2-3 2-5 3-6 3-7 3-9 6-25" style="clip-to-self:true;comp-op:src"/>
<path transform="scale(.1)" d="m1776.7 4559.3-5-3-3-2-2-2-3-4-1-4 2-3 5-4 4-2 5-2 6-2 7-2 9-2 9-1 11-2 11-1 12-1 13-1h13 13 12l12 2 11 2 11 3 9 4 9 6 7 6 7 8 5 8 4 10 2 10 2 11v12 12l-2 13-3 12-4 13-4 12-6 12-14 22-8 11-18 18-20 14-10 6-11 5-12 5-11 4-12 3-11 4-9 3-9 2-8 1-6 1h-5-3l-3-4 1-3 2-4 2-5 10-15" style="clip-to-self:true;comp-op:src"/>
<path transform="scale(.1)" d="m2125.6 4554.5v-3l1-3 1-4v-3-4h-4l-11 11-4 5-4 6-8 14-5 9-4 9-5 9-4 11-3 10-6 22-2 11-1 11v10 10l2 10 3 8 3 7 4 6 5 5 6 4 7 4 7 2 7 1h8l7-1 16-4 7-3 17-9" style="clip-to-self:true;comp-op:src"/>
<path transform="scale(.1)" d="m2317.3 4541.7-3-1h-5l-3 1-3 2-4 4-3 4-8 12-4 8-5 8-5 9-10 20-15 33-3 12-4 11-3 10-2 10-1 10-1 9-1 8v7l1 6 1 4v3l3 2 6-4 3-3 3-4 8-12 4-7 3-8 8-18 3-10 4-11 3-11 4-12 7-26 8-28 5-14 4-14 4-12 5-10 3-8 3-5 3-4 3-2 3 3 2 8 2 14 1 8 1 9v10l1 10v11l1 10 1 11v11 12l2 22v11l1 10v9l1 8v7l1 7 1 5 1 4v4l2 5-4-9" style="clip-to-self:true;comp-op:src"/>
<path transform="scale(.1)" d="m2291 4652.7v-4l3-2 3-3 3-2 14-7 10-4 6-1 12-4 12-2 6-2 5-1 11-2" style="clip-to-self:true;comp-op:src"/>
<path transform="scale(.1)" d="m2463.9 4681.1 2 3v6 16 5l-1 6-2 14-2 9-2 8-2 9-3 9-6 20-3 9-4 10-4 8-3 8-4 6-3 6-3 4-4 3-3 2-9-2" style="clip-to-self:true;comp-op:src"/>
<path transform="scale(.1)" d="m2534.5 4610.6-4-6v9l1 4-1 5v45l1 9v9l1 9v9l2 16 1 7 1 6 1 5 2 4 2 3 5-4" style="clip-to-self:true;comp-op:src"/>
<path transform="scale(.1)" d="m2553.5 4592.5 1-5 1-4 1-3 3-3 2-4 4-2 4-3 10-6 5-2 18-6 6-1h5 5l5 1 4 2 3 3 2 3 2 4v5 6l-4 14-3 7-5 8-4 8-6 7-5 8-6 8-6 7-5 6-6 7-4 6-8 10-3 4-1 4-1 3v4l5 3 3 1 5 1 12 2 7 1h8l24 3 7 1 7 2 12 6 4 3 4 4 2 4 2 5v4 5l-1 5-2 5-3 6-4 5-11 11-6 5-7 5-7 4-8 5-8 3-8 4-16 6-21 6-5 1h-5-4l-4-2-3-3-1-3v-4l4-12" style="clip-to-self:true;comp-op:src"/>
<path transform="scale(.1)" d="m2730.3 4546.1 1-3 4-1 7 7 4 3 4 4 8 10 5 6 10 14 5 8 5 9 8 20 4 12 3 11 2 24v13l-4 26-3 13-4 13-5 13-5 12-7 11-6 9-7 9-7 8-14 14-6 5-6 4-5 3-4 2-4 1-5-6" style="clip-to-self:true;comp-op:src"/>
<path transform="scale(.1)" d="m2952.3 4656.9-2-3h4 3 4 5 6l6-1 7-1h7l16-2h8l8-1 6-1h6l5-1 4 1" style="clip-to-self:true;comp-op:src"/>
<path transform="scale(.1)" d="m2953.2 4740.3 3 2 7-1 5-1 6-2 6-1 7-2 9-2 8-2 9-3 9-2 10-3 10-2 9-3 8-3 8-2 6-3 10-7" style="clip-to-self:true;comp-op:src"/>
<path transform="scale(.1)" d="m3381.8 4642.4-4 8-3 7-4 10-10 20-4 11-5 9-4 10-3 9-3 8-1 7-2 6-1 5-1 4v3 4l4-2 3-5 2-3 2-4 3-5 2-5 3-5 3-6 4-6 3-6 5-8 4-8 5-8 6-9 18-30 7-11 6-11 6-13 7-13 14-28 7-15 7-14 6-13 6-11 6-9 4-7 4-5 3-3h4l2 5 1 4 1 6 1 7v9l1 11v11l1 13v13 13l1 12 1 13v12l1 12 4 22 1 10 2 9 3 8 2 8 2 7 2 5 3 5 1 5 2 4 1 3 1 5-2 2-6 4" style="clip-to-self:true;comp-op:src"/>
<path transform="scale(.1)" d="m3392.1 4711.2h6l3-1 10-2 6-1 7-2 18-4 10-2 11-3 11-2 11-3 11-4 11-3 22-10" style="clip-to-self:true;comp-op:src"/>
<path transform="scale(.1)" d="m3625.3 4587.7v-4-4l1 4v4l1 5v6 15l-1 10v10l-1 10v11l-1 11v12 11 11 11 11l2 20 1 8 1 7 3 9 5 3" style="clip-to-self:true;comp-op:src"/>
<path transform="scale(.1)" d="m3644.5 4620.4-2-4v-4l3-4 6-4 5-2 5-1 5-2 7-2 7-1 7-2 8-1 7-1h8 7l14 2 6 2 5 2 4 3 4 4 2 4 1 5v6l-1 7-2 7-3 7-4 8-5 7-5 8-6 7-7 7-6 7-7 6-6 6-5 6-5 4-4 5-4 6 2 3 3 1 4 1 6 1h7 7l9-1h9l10-1h10l10-1h10l9 1 8 1 8 2 6 2 6 4 4 4 3 4 1 5v5l-1 5-2 6-8 10-6 6-14 10-9 5-8 5-10 4-9 4-20 6-11 3-11 2-10 2-11 1-10 1-18 2-8-1h-7l-6-2-5-2-4-2-2-4-1-4 4-12" style="clip-to-self:true;comp-op:src"/>
<path transform="scale(.1)" d="m3943.8 4646 4 1 5 1h4 5 12 7l7-1h8 8l8-1h7l15-1h8 6 6 6l3-1h5" style="clip-to-self:true;comp-op:src"/>
<path transform="scale(.1)" d="m3987 4718.2 3 2h4 5l4-1h5l5-1 6-1 7-1 16-2 9-1 11-1 20-2h10l9-1 8-1 7-1 7-2 14-3" style="clip-to-self:true;comp-op:src"/>
<path transform="scale(.1)" d="m4694.3 4376.8-8-4-3-1 2-1 7-1h5 5l7-1 16-2h10l11-2 24-2 13-2 12-1 13-1 11-1h11l10-1h9l9-1h20l4 1-3 2-3 1-4 1-13 1" style="clip-to-self:true;comp-op:src"/>
<path transform="scale(.1)" d="m4763.2 4371.2-7 1h-6l-9 1h-7l-8 1h-6l-6 1h-5-5-4-3l-5-1-3-1 4 2 3 6 1 5 1 3 2 8v5l2 12 1 7 1 8 1 9 1 11v13l1 14 1 16 1 17 1 19 1 20 1 21 2 21 1 21 1 20 1 21 1 20 1 21 2 19 1 19 1 18 1 16 2 30v13l1 12v31l-1 8v8 6l-1 5-1 4v4l-1 3" style="clip-to-self:true;comp-op:src"/>
<path transform="scale(.1)" d="m4712.2 4943-3 1 4 1 5 1 3 1h5l6 1h7 9 33 13 14l13-1h14 13l14-1h13l12 1h11l10 1 18 2 7 1 6 2 4 1 4 2 3 1 3 2-3-1" style="clip-to-self:true;comp-op:src"/>
<path transform="scale(.1)" d="m5079.5 4485.1-3-3-6-4-3-1-4-1h-3-4l-8 2-5 2-10 6-6 4-6 5-6 7-6 8-6 9-7 10-7 12-13 26-6 13-5 14-5 13-4 14-4 13-2 12-1 13v11l1 11 2 10 3 9 4 8 5 7 6 7 7 5 16 8 10 2 9 2 9 1 10 1 10-1 9-1 9-2 23-7" style="clip-to-self:true;comp-op:src"/>
<path transform="scale(.1)" d="m5233.5 4601.4v-5-4l-1-7-1-5-3-5-2-3-3-4-6-4-4-2-4-1h-5l-4-1-6 1-5 2-6 2-6 3-6 4-6 5-12 12-5 7-6 7-8 16-3 7-2 7-1 7v7l1 5 2 5 2 4 3 4 8 4 4 1 5 1h5l6-1 18-6 6-3 6-4 10-8 9-9 3-5 2-5 2-6 2-5 1-5 1-6v-4-4-3-3l-2 4v4 4l-1 5v12l1 6v7l1 6 1 7 2 7 2 6 2 7 6 10 4 4 4 3 5 2 5 1h5l5-1 14-6" style="clip-to-self:true;comp-op:src"/>
<path transform="scale(.1)" d="m5342 4626.8 4 2 3 1 6 1 3 1h15l5-1h7l7-1 32-4h8l7-1h7 6 5l5-1 4-1" style="clip-to-self:true;comp-op:src"/>
<path transform="scale(.1)" d="m5564.5 4537.2-1-3v-4-4l-1-3v-5l2 6 1 5 2 14v9l2 20 1 12 1 11 1 12v12l2 24 1 13v12l1 24 1 11v11 10 8 8l1 8-1 6v6 5l-1 4v3l-2 4-4-1-2-5-2-6v-5l-1-5v-6-6-7-7-8l2-18v-9l2-10 1-11 1-10 4-22 3-11 3-10 3-11 3-10 4-10 4-9 4-8 5-8 5-7 5-5 6-5 6-4 12-6 12-2h6l5 1 5 2 4 3 3 3 3 5 2 4 2 12-1 7-1 8-3 8-3 9-4 8-5 9-6 9-6 8-14 16-14 12-6 5-7 4-5 3-6 3-5 1-4 1-3 1-3-1-5-2v-4-4l1-4 2-5 6-14" style="clip-to-self:true;comp-op:src"/>
<path transform="scale(.1)" d="m5743.9 4477 2-3 3-1 6 1 4 2 4 3 5 3 5 4 6 5 6 6 6 7 6 8 6 9 6 10 6 11 5 13 4 13 5 14 3 14 2 14 1 15 1 14-1 15-1 14-2 14-3 13-3 12-4 12-4 10-10 18-5 7-6 6-5 4-6 4-12 4-6 1h-7l-5-1-6-2-6-3-5-5-9-16" style="clip-to-self:true;comp-op:src"/>
<path transform="scale(.1)" d="m5874.9 4366.5 1-5 2-4 6-3h4l4-1 6-1 5-1h6 6 6l5 1 6 2 4 2 4 4 6 8 1 5 1 6-1 7-1 6-3 8-8 14-5 7-6 7-6 6-7 6-6 6-6 4-5 4-5 3-4 2-3 2 6-1 5-1 14-4 8-2 18-4 10-2 9-2 9-1 8-1 7-2 7-1 6-1h11" style="clip-to-self:true;comp-op:src"/>
<path transform="scale(.1)" d="m5971.4 4681.4 3-2 3-1 4-1 5-1 6-1 7-1 8-1 18-2 30-3h9l9-1h9 7l7-1 6-1 5-1 10-3" style="clip-to-self:true;comp-op:src"/>
<path transform="scale(.1)" d="m6053.2 4617.3v-3l2 2 2 5 1 6 2 8v5 6 6 6 7l2 14 2 16 2 7 1 8 2 7 1 7 2 7 4 15" style="clip-to-self:true;comp-op:src"/>
<path transform="scale(.1)" d="m6365.8 4476.4-4-4-3-2-2-2-3-2h-3l-4-1-3 1-4 1-8 4-5 3-5 5-5 7-6 8-6 10-7 13-6 14-14 32-6 17-5 17-5 16-4 15-2 15-1 14v13l1 12 3 11 10 20 7 8 9 7 9 6 12 4 12 2 13 1h14l30-4 37-9" style="clip-to-self:true;comp-op:src"/>
<path transform="scale(.1)" d="m6493.8 4432.9-1-4-2 5v4l-1 5v6l-1 7v8l-1 10v10 11 13l1 13 4 56 4 26 1 12 4 22 4 16 2 7 2 5 2 4 2 3 3 4 3 1 3-4 2-2 6-12 3-5 2-6 3-6 4-7 8-12 5-6 5-5 6-5 6-4 7-3 6-2 6-1h6 5l5 2 4 2 3 2 3 4 2 3 2 4v4 5 5l-2 5-1 5-4 5-3 5-5 5-6 5-7 5-6 5-24 12-7 3-8 3-7 2-8 2-7 2-7 1-12 2h-6-7-4l6-9" style="clip-to-self:true;comp-op:src"/>
<path transform="scale(.1)" d="m6678.2 4624.5 3-2 4-1 6-1h4l5-1 12-2 7-1 24-3h8l7-1 8-1h7l6-1 10-2 3-1 7-3" style="clip-to-self:true;comp-op:src"/>
<path transform="scale(.1)" d="m7014.3 4488.7v-4l-2-6-2-3-3-3-3-2-8-2h-5l-5 1-7 1-7 2-7 3-16 8-16 12-7 7-7 9-5 8-5 9-8 18-4 16-1 7v6l1 5 1 4 2 4 2 2 3 1 4 1 5-1h5l12-4 12-6 7-4 6-4 6-5 5-4 13-13 3-4 5-5 2 4v8 6l-1 7-1 8-1 9-3 30-1 11-1 10-1 11-1 10v10 9 9l1 9 1 7 1 6 4 10 2 3 2 2 3 2h5l4-1 3-1 5-3 4-3 5-4 9-9 10-12 5-7 4-7 5-8 8-16 8-18 8-21" style="clip-to-self:true;comp-op:src"/>
<path transform="scale(.1)" d="m7098.2 4405.9 3-1 4 2 3 2 4 2 4 4 3 2 8 6 9 9 4 6 5 7 10 18 5 11 5 12 4 13 8 28 3 15 6 28 2 28v14l-1 13-2 14-3 13-3 12-5 12-5 11-6 10-7 9-7 7-8 7-9 5-25 7" style="clip-to-self:true;comp-op:src"/>
<path transform="scale(.1)" d="m7202.8 4288.1-8-2 4 1 6 1h4l10 2h6l18 3 6 2 5 2 8 6 3 4 3 3 1 4v5 4l-1 5-2 5-3 5-3 4-4 5-21 21 1 3 5 1h4l5-1 6-1h7l16-2 10-1 9-2 11-2 9-2 9-3 9-2 17-6" style="clip-to-self:true;comp-op:src"/>
<path transform="scale(.1)" d="m7375.2 4272.5 4-1 3-1 6-1 5-2 6-1 7-2 6-2 7-1 14-4 8-1 8-2 7-1 6-2h7l5-1h4l4-1 4 1 3 4-1 6-1 4-1 5-1 6-1 7v7l-1 8-1 10v10 11 25 13l1 15v16l1 16 1 18 1 19 1 21 2 22 2 48 2 25 1 24 1 25 1 23 1 24v23l1 23v22 63 19l-1 18v16 15 24 8l1 6v5 3 3l-4-2-6-6-4-2-4-3-5-2-12-4-7-3-16-4-9-2-10-2-9-2-11-2-10-2-33-6-12-2-11-2-11-1-10-2-20-2-16-2-6-1-6-2-4-1-3-1" style="clip-to-self:true;comp-op:src"/>
<path transform="scale(.1)" d="m7603.9 4091.8-1-5-2-5-2 3v3 4 5l-1 6v7l-1 9v9 11 11 61 11 44 6 3l1 3" style="clip-to-self:true;comp-op:src"/>
<path transform="scale(.1)" d="m7713.5 4067.2 4-1 2 4-1 3-1 4-1 5-2 5-2 6-2 7-6 16-6 20-4 12-3 13-4 13-8 30-3 15-8 30-4 14-3 14-2 14-3 12-2 12-1 11-1 8v8 5 4l1 4" style="clip-to-self:true;comp-op:src"/>
<path transform="scale(.1)" d="m7748.6 4258.6 2-3 5-5 4-3 3-2 8-2 5-1h5 5l4 1 5 1 4 1 3 2 4 3 2 3 2 4 1 4 1 5v5l-1 7-1 6-2 8-3 7-6 16-4 8-5 7-4 8-4 7-5 7-9 15-2 4-1 4-1 3 1 3 3 5 3 2 5 2h6l7 1h8l9-1h10l11-1 12-2 13-1 39-6 12-2 11-3 21-6" style="clip-to-self:true;comp-op:src"/>
</g>
<path d="m354.25 85.02h297.57" stroke-width="1.41" style="clip-to-self:true;comp-op:src"/>
</g>
</g>
</svg>
