<?xml version="1.0" encoding="UTF-8"?>
<svg width="1e3pt" height="600pt" version="1.2" viewBox="0 0 1e3 600" xmlns="http://www.w3.org/2000/svg">
<g id="surface5">
<rect width="1e3" height="600" fill="#2e3436"/>
<g fill="none" stroke-linecap="round" stroke-linejoin="round" stroke-miterlimit="10">
<g stroke="#fff">
<g stroke-width="14.1">
<path transform="scale(.1)" d="m3404.5 536.02v-4l-1-5-2-5-2-3-3-1-4 2-3 7-1 5-4 14-1 10-2 11v12l-2 14-1 15-2 15-6 48-2 15-4 32-3 14-2 14-1 12-2 11-1 9-1 8-1 6v6l1 4v3l3 3 5 1 3-1h5l4-2 6-2 6-3 6-2 8-3 7-3 8-3 8-2 16-6 9-2 8-3 24-6 8-3 16-3 13-4 6-1 5-1 4-1h3l6-2-1-3" style="clip-to-self:true;comp-op:src"/>
<path transform="scale(.1)" d="m3352.8 514.45-1-3 1-6 2-5 3-2 2-2 10-4 12-4 8-2 8-3 8-2 19-4 8-2 9-2h8l8-1h7 6l6 1 4 1 3 2 1 6" style="clip-to-self:true;comp-op:src"/>
<path transform="scale(.1)" d="m3353.2 654.14 5-2 3-3 6-4 4-2 5-3 5-2 5-3 18-9 7-3 6-3 7-2 6-1 6-2 5-1h6 4l4-1 8 1" style="clip-to-self:true;comp-op:src"/>
<path transform="scale(.1)" d="m3538.6 628.24 2 3 2 5v3l1 5 1 6 2 14 1 8 2 8 1 9 2 8 2 9 2 8 2 9 4 14 2 6 3 6 3 4 2 3 3 2 5 2 5-2 2-2 3-4 2-4 2-6 3-7 4-16 2-10 1-9 2-10 1-10 1-11 2-20 2-10 2-8 2-7 1-6 2-4 2-3 3-2 3 2 2 4 1 3v16" style="clip-to-self:true;comp-op:src"/>
<path transform="scale(.1)" d="m3679.5 720.51 3-2 5-3 2-2 3-2 3-3 4-2 4-3 4-4 7-8 4-3 6-8 1-3 2-4v-3l1-6-1-3-2-4-2-3-6-1h-5l-4 1-5 2-5 3-6 3-5 5-6 4-4 6-5 8-4 8-3 8-3 10-1 11-2 10v11 11 9l1 10 4 14 3 6 4 4 5 4 5 2 7 1 6-1 7-1 16-6 9-5 9-6 9-7 9-8 8-9 9-9 16-20 7-12 7-11 6-11 10-22 4-11 4-9 3-8 2-7 4-12-3 9-1 5-1 6-1 7-2 16-1 9-1 10-1 9-1 10v11l-1 10v10l-1 8v12l1 5 1 3 1 4 3-1 3-5 2-5 3-5 6-12 4-7 12-24 11-16 12-16 6-7 7-6 6-5 5-4 5-2 4-1h4 3l6 6 2 3 4 10 2 6 2 7 2 8 2 7 1 9 6 24 3 8 3 7 2 6 2 5 2 4 6 4" style="clip-to-self:true;comp-op:src"/>
<path transform="scale(.1)" d="m4413.8 491.6-1-4-2-3-4-1-3 1-4 2-3 4-9 9-5 7-6 7-6 9-14 22-7 13-8 14-8 15-17 34-9 17-9 18-10 18-11 18-10 16-11 16-11 15-10 14-10 11-10 10-8 9-7 6-7 5-6 4-5 2-4 1h-4l-3-2-2-2-1-3-1-4 1-6 1-7 2-7 3-9 3-10 4-12 10-24 7-14 6-14 7-15 6-15 6-17 6-16 6-18 5-18 4-18 4-17 2-16 2-15 1-13-1-11-1-9-2-8-3-5-4-5-5-3-5-2-7-1h-6l-7 1-8 2-8 3-7 4-8 4-8 5-14 12-12 14-4 7-3 7-2 8-1 8 1 8 2 9 3 9 5 9 7 10 8 10 9 11 10 11 24 22 26 22 14 11 13 12 24 24 11 12 10 11 9 12 9 11 7 10 6 11 6 9 8 18 2 7 1 7 1 6v5l-1 4-1 3-3 3h-5l-3-1-4-1-5-2-14-8" style="clip-to-self:true;comp-op:src"/>
<path transform="scale(.1)" d="m4645.1 572.23-3-4-6-4-5-1-6-1-7 1-7 2-8 3-7 4-8 4-9 5-7 6-15 15-6 9-5 10-6 10-4 12-6 28-2 15-1 15-1 16 2 30 2 14 8 22 5 8 7 6 8 5 10 3 10 1h11l11-1 12-3 13-3 12-5 11-5 12-7 11-8 11-9 11-10 10-10 18-24 7-12 6-14 5-14 2-14 2-15 1-16-1-15-3-16-2-14-5-14-5-12-7-10-8-7-9-6-10-3-12-1-13 1-13 3-15 4-15 6-15 7-15 8-14 8-12 10-9 10-8 9-6 10-2 10-2 9v8l2 8 8 18" style="clip-to-self:true;comp-op:src"/>
<path transform="scale(.1)" d="m4886.6 689.92 2-4 2-5 1-4v-6l-3-9-3-5-5-3-8-2h-5-5-6l-6 2-8 2-7 3-8 4-16 10-8 7-7 7-7 8-6 8-5 9-3 9-2 10-2 9v10 8l4 16 3 6 10 8 7 3 6 1 8 1 9-1 18-4 10-4 9-5 9-6 10-6 9-7 16-16 8-9 12-20 5-10 5-12 3-12 3-13 2-13 2-15v-15-17-16l-1-17-1-15-1-13-2-11-1-8-3-6-3-4-2-3-3-1-3 1-2 3-2 4-2 6-1 8-1 9-1 11 1 13v13l2 14 4 30 3 15 2 14 3 15 3 14 3 13 3 14 3 12 6 22 6 16 6 10 4 3 8 3" style="clip-to-self:true;comp-op:src"/>
<path transform="scale(.1)" d="m5120.8 692.93-1-5-1-4-2-3-3-3-4-3-4-2-5-2-6-2-5-1-7-1h-6l-6 1-7 1-6 2-7 2-6 3-12 8-6 5-6 6-5 7-5 8-4 8-5 9-3 10-2 10-2 11-1 10 1 9 1 8 2 7 3 7 3 4 4 3 5 2 5 1 5-1 6-2 7-3 6-4 7-6 8-7 14-18 8-10 6-11 7-11 5-13 5-12 4-14 6-28 2-15 2-34 1-19v-20-39l1-15v-14l-1-10v-7l-2-8-2 3-1 4-1 7-2 9-1 12-1 13-1 16v16l-1 18-1 17v18l2 34 2 16 6 30 3 14 5 13 4 13 5 12 4 11 4 9 5 7 11 14" style="clip-to-self:true;comp-op:src"/>
<path transform="scale(.1)" d="m5441.7 601.95 3-3 2-3 1-3 3-3 3-4 7-7 4-5 5-6 6-6 5-6 7-7 5-7 6-7 5-8 5-7 4-6 6-14 2-6 2-12v-7l-1-5-1-6-2-6-2-5-3-5-12-9h-6-5l-7 1-6 3-7 3-6 5-7 6-6 8-6 9-6 10-5 12-5 14-5 15-3 17-4 17-3 18-3 19-2 19-2 20-1 19-2 18v18 18l1 18 1 16 1 17v15l1 15 1 14v26l-1 11-2 20-2 8-1 6-2 6-1 4-1 3-2 3-3-3-1-4-3-13" style="clip-to-self:true;comp-op:src"/>
<path transform="scale(.1)" d="m5288.4 740.35 2-4 2-2 2-3 4-3 3-3 5-3 14-8 9-4 9-5 32-16 11-5 13-5 12-5 12-4 22-8 10-2 8-3 9-2 6-2 14-2" style="clip-to-self:true;comp-op:src"/>
<path transform="scale(.1)" d="m5511.2 668.36 2-4v-3h-4l-3 4-2 3-1 5-2 4-2 6-1 7-2 8-1 8v8l-1 9 1 9 2 16 3 8 2 6 3 6 4 5 5 3 4 3 5 1 4 1 5-1h6l15-9 6-5 4-5 5-5 4-7 4-6 4-7 4-14 1-7 1-8 2-14v-6-5-5-3-3l-2 2-1 3-1 4v6l-1 6-2 14v15l3 24 2 7 2 6 3 6 3 5 3 4 5 2 4 2h5l10-4 13-9" style="clip-to-self:true;comp-op:src"/>
<path transform="scale(.1)" d="m5699.9 650.66-1 4-2 6-1 4-2 5-1 6-6 18-1 7-4 14-1 8-3 21v7 10 5l2 6 1 4 4-2 2-5 1-4 4-10 1-6 4-12 4-14 3-8 4-7 3-8 10-14 10-12 6-4 5-3 5-2 5-1h4 5l4 2 3 3 6 8 2 6 1 6 1 7v7 8 8l-2 16-2 9-2 14-1 6-1 5v4l-1 4" style="clip-to-self:true;comp-op:src"/>
<path transform="scale(.1)" d="m5892 668.36 1-4v-3l-3-1-6 1-3 1-12 9-5 4-5 5-10 12-5 7-4 6-4 8-6 16-2 8-1 8v7l1 8 6 14 4 5 6 5 5 4 8 3 7 2 8 1 9-1 8-2 10-3 9-4 9-5 10-6 10-7 18-16 7-9 17-26" style="clip-to-self:true;comp-op:src"/>
<path transform="scale(.1)" d="m5993.6 599.38-1-4v-10l-1-14-1-18-1-16-2-14-1-12-1-9-1-7v-4l-2-4v5 4l-1 7-1 9v11l-2 12-1 14-1 15-1 16-2 16v17l-1 17-1 16v16l-3 45-1 14-1 13v12l-2 20v7l-1 7v4l-1 4-1-5" style="clip-to-self:true;comp-op:src"/>
<path transform="scale(.1)" d="m5909.7 692.93-3-2 2-4 8-6 4-2 5-3 6-2 6-3 14-6 16-4 9-3 9-2 9-1 9-2 10-1 9-1h8l8 1h7l6 3 5 2 5 3 3 4 2 5 2 6 1 7v7 8l-1 8-1 9-1 8-1 9-2 16-1 7-1 6-1 5v5 3 4l1-9" style="clip-to-self:true;comp-op:src"/>
<path transform="scale(.1)" d="m6096.5 604.96-3-2-3-1-4 1-2 1-3 3v3l3 3 2 1 3 1-3 2-2 3-4 5-5 10-2 8-1 5v9l2 8 9 9 4 1 4 2h5 5 5l4-1 10-4 3-2 4-3 3-4 2-4 2-8v-5l-2-10-2-6-2-5-3-6-12-15-4-4-4-3-5-2-4-1h-4-5l-8 4-5 3-3 4-3 3-3 5-3 4-3 13" style="clip-to-self:true;comp-op:src"/>
<path transform="scale(.1)" d="m6207.7 691.21 1-5v-3-4l-1-4-3-1-6 3-3 3-4 3-3 4-3 5-8 12-3 6-3 7-2 7-3 8-1 7-1 8-1 7v7l1 6 1 5 2 4 3 4 4 2 3 2 6 1h5l6-1 6-2 7-2 7-3 7-4 7-5 6-4 11-11 5-6 3-6 3-7 1-6 1-7v-7l-2-14-2-7-8-12-4-5-6-5-6-3-7-3-7-1-16-2-14 2-7 2-7 3-6 3-4 3-4 4-4 10-1 4 2 10 5 10" style="clip-to-self:true;comp-op:src"/>
<path transform="scale(.1)" d="m6310.7 675.66-2 3v6 25 7 7l1 6v7l1 7v7l1 7v6l1 6v12l-2-5-1-4v-5-12-7l1-7 1-9 1-8 2-8 6-18 4-10 10-18 12-18 7-7 7-6 8-5 7-4 14-2 6 1 10 6 4 5 4 6 2 7 1 7 1 8v18l-1 10v9l-2 10-1 10-2 9-1 8v8l-1 7 1 5 1 4 1 3 4 3 11-6" style="clip-to-self:true;comp-op:src"/>
<path transform="scale(.1)" d="m6555.9 653.67v-4l1-3v-4l-1-4-4-6-3-3-3-1-4-2-4-1h-5-5l-5 1-12 4-6 3-7 4-12 8-4 6-5 5-4 5-3 5-2 6-1 5v6l2 10 6 10 15 15 6 5 5 5 12 10 10 10 5 4 4 5 3 4 3 5 1 4 1 5-2 8-6 8-4 3-10 6-12 4-7 1h-6-6-6l-6-1-6-2-7-2-6-3-16-9" style="clip-to-self:true;comp-op:src"/>
</g>
<path d="m335.56 89.898h320.01" stroke-width="1.41" style="clip-to-self:true;comp-op:src"/>
</g>
<g stroke="#ff0" stroke-width="14.1">
<path transform="scale(.1)" d="m1305 1947.5-2-8-1-6-2-10-1-4-1-3v-4 5l-1 4v6 8l-1 9-1 10-2 24-1 13-6 42-2 15-2 14-1 13-2 12-1 10-1 9v7l1 6 1 5 4 6 8 4 4 1h5 13 7l9-1 20-2 11-1 23-2h12l11-1 10-1h26l6 1h10l4-1 6-1" style="clip-to-self:true;comp-op:src"/>
<path transform="scale(.1)" d="m1286.8 1943.1 1-3 4-6 3-4 4-4 5-4 8-3 8-5 9-4 10-5 12-5 11-5 12-4 22-6 10-1 8-1h6l5 1 3 2v8" style="clip-to-self:true;comp-op:src"/>
<path transform="scale(.1)" d="m1262.9 2060.4 9-9 10-6 7-4 8-3 9-3 10-4 10-5 11-4 33-9 11-2 10-2 9-1 8-1 7-1 15-1" style="clip-to-self:true;comp-op:src"/>
<path transform="scale(.1)" d="m1470.2 2014.3v4l1 3 2 8 2 12 1 7 2 8 2 9 3 9 2 9 6 20 4 9 3 9 3 8 4 6 3 6 2 5 3 5 3 3 4 3 3-1 2-6 1-4 1-5 1-6 3-24 2-20 2-9 6-22 3-10 5-9 4-9 5-8 5-6 5-5 4-3 4-1 3-1 3 2 2 2 2 4 1 3 1 5 2 12" style="clip-to-self:true;comp-op:src"/>
<path transform="scale(.1)" d="m1641.2 2106.1 1-4v-3l2-5 1-3 2-3 1-3 3-4 2-5 3-4 6-15 2-6 4-10 1-5 1-4v-5l1-5v-4l-1-4-1-3-3-4h-6l-3 2-7 7-4 5-4 6-8 16-4 9-9 30-4 20-1 9v8 8l4 12 3 5 4 3 5 3 4 1h7 6l7-2 14-6 9-5 16-12 8-7 9-8 8-7 8-9 8-8 7-9 7-10 7-9 5-10 6-9 13-26 3-7 3-5 4-6 2 3v8l-1 6-1 8v9l-1 9-1 10-1 11-1 22v11 10l2 9 1 8 2 6 3 6 4 6 3 2 6-1 3-2 3-4 3-5 3-6 3-7 3-8 3-9 4-10 3-9 4-11 3-11 3-10 4-11 3-11 8-18 3-7 3-6 4-5 3-3 2-1 5 1 2 3 2 4 2 6v8l1 9 2 22 2 26 2 14 2 13 3 14 3 13 4 12 3 11 5 9 5 7 5 6 7 5 6 2 7 1 7-1 20-8" style="clip-to-self:true;comp-op:src"/>
<path transform="scale(.1)" d="m1057.3 2622.6 8-10 5-7 6-8 12-18 8-9 7-10 8-10 8-11 15-23 8-13 6-12 7-12 5-12 5-13 8-26 3-13 2-14 2-13 1-12v-11-9l-2-8-2-6-3-4-4-1-5 1-5 3-6 5-7 7-7 9-7 11-7 13-7 15-6 16-4 17-4 18-3 19-2 20-1 22-1 23-1 24v52l2 50 1 23 1 22 2 21 2 19 1 20 4 36 1 18v16 30 13l-1 13-2 11-1 9-2 8-4 10-3 2-11-3" style="clip-to-self:true;comp-op:src"/>
<path transform="scale(.1)" d="m979.73 2797.6 1-5 3-4 2-3 4-2 5-2 6-3 7-3 20-8 24-10 13-6 28-12 45-18 16-5 14-6 28-10 12-5 11-5 23-14" style="clip-to-self:true;comp-op:src"/>
<path transform="scale(.1)" d="m1276.7 2570.4v-7l-1-5-4-2-4 1-5 3-3 3-2 4-4 5-4 6-3 8-4 9-3 9-4 11-2 11-2 13-2 12-1 11v12l1 12 2 11 6 20 5 9 6 9 6 7 7 8 8 6 14 10 7 3 7 2h6l14-1" style="clip-to-self:true;comp-op:src"/>
<path transform="scale(.1)" d="m1358.6 2671.3 4-2 4-1 6-1 5-2 7-1 8-3 8-2 18-4 9-3 20-4 19-6 9-2 9-3 7-3 6-3 12-5" style="clip-to-self:true;comp-op:src"/>
<path transform="scale(.1)" d="m1537.8 2587.7v-4l3-9 4-5 12-6 10-4 5-1 6-2h5 6 5l5 1 8 6 3 4 2 5 2 7v8 9l-4 22-3 11-4 12-5 13-6 12-5 12-12 20-5 9-4 7-4 5-3 5-2 3-2 2 2-5 2-4 3-4 4-6 4-7 5-7 4-7 6-8 10-18 6-9 4-10 10-21 5-10 4-11 4-10 4-9 3-8 2-8 3-5 1-5 1-4-3 2-2 3-3 5-2 5-7 14-6 18-3 10-3 9-3 10-4 20-2 9-2 16 2 14 1 6 3 5 6 8 10 4 7 1h7l7-1 14-4 7-4 7-5 19-13" style="clip-to-self:true;comp-op:src"/>
<path transform="scale(.1)" d="m1710.7 2537.7v-4l2-5 3-3 5-1h4 4l5 1 6 1 6 2 14 6 7 5 8 5 7 7 7 8 7 10 5 11 4 13 3 14 2 15 1 16-2 34-2 16-3 16-10 30-6 13-5 12-7 10-6 8-7 6-7 5-7 4-6 2-6 1h-6l-6-1-5-3-8-13" style="clip-to-self:true;comp-op:src"/>
<path transform="scale(.1)" d="m1902.3 2651.9 3-2 5-3 12-6 6-2 5-2 7-2 6-2 7-2 6-2 7-2 6-1 5-2 4-1h4l4-1" style="clip-to-self:true;comp-op:src"/>
<path transform="scale(.1)" d="m1906.1 2704.9-1 3 2 3h5l7-1 5-1 6-1 7-1 7-2 9-1 8-3 7-2 8-2 8-3 16-8" style="clip-to-self:true;comp-op:src"/>
<path transform="scale(.1)" d="m2297.5 2573.9-2-8 2-5 5-5 4-3 5-5 5-4 6-5 6-6 5-6 6-6 5-7 4-6 5-6 3-7 3-6 3-8 2-7 1-7v-9-8l-1-9-2-9-3-10-2-9-4-10-3-9-5-9-4-7-4-6-6-4-5-3-5-2h-6l-5 2-5 3-5 4-4 6-3 8-4 9-2 10-2 13-2 14-2 17-2 18-1 21-2 22-2 25-1 26-4 116v27l1 26 1 24 1 22 2 21 2 19 3 17 3 15 3 12 2 11 2 9 2 7 1 5 2 8-6-9" style="clip-to-self:true;comp-op:src"/>
<path transform="scale(.1)" d="m2132.7 2780.8-1-4-1-3v-5l-1-5v-3l4-8 8-8 6-4 7-5 7-6 9-5 9-6 20-12 24-12 28-12 28-10 15-5 14-5 13-4 12-5 11-4 10-4 21-10" style="clip-to-self:true;comp-op:src"/>
<path transform="scale(.1)" d="m2426.4 2578.2-8-2h-4l-8 2-4 2-3 2-4 3-4 4-3 5-4 5-3 7-4 7-3 8-3 9-4 18v10 10l4 18 4 9 5 8 7 7 7 6 9 5 9 4 24 4h13l13-2 12-2 29-9" style="clip-to-self:true;comp-op:src"/>
<path transform="scale(.1)" d="m2530.3 2630.8-2-3 1-3 3-3 5-3 3-1 8-2h4l4-1h5l10 1 4 1 10 4 5 3 4 3 4 5 4 4 4 12 1 6 1 7-3 21-2 7-2 6-3 4-2 5-2 2-2 3-3-1v-6-4l2-5 2-6 2-7 3-8 4-8 8-18 4-10 4-9 5-10 4-9 3-9 6-14 2-6 1-4 2-4-1 5v4l-1 6-2 6-2 16-2 18-1 10v9 9 9l4 16 2 7 3 6 4 5 5 4 5 3 7 2h6l6-1 8-2 16-9" style="clip-to-self:true;comp-op:src"/>
<path transform="scale(.1)" d="m2710.4 2542 4-3 3-1 5 1h3l4 2 4 1 10 4 12 6 7 3 6 5 8 5 7 6 8 7 8 8 7 9 7 11 6 11 5 11 6 26v14 14l-3 13-3 15-4 13-5 14-6 13-7 12-8 10-8 9-9 8-8 6-24 8" style="clip-to-self:true;comp-op:src"/>
</g>
<g stroke="#fff" stroke-width="14.1">
<path transform="scale(.1)" d="m815.43 3421.8 4-3 3-2 3-3 8-6 5-5 6-5 5-6 7-6 6-6 6-7 6-6 6-8 6-7 5-7 4-7 5-8 3-9 3-8 3-10 2-10 1-10 1-11 1-10-1-10-1-9-1-8-3-7-2-5-3-4-4-3-4-2h-4-5l-4 2-5 3-5 4-4 5-4 7-5 8-3 9-6 24-2 13-1 14-2 16v17 18 21l1 23v24 52l-1 27v26l-1 27-1 25-1 24-1 23v19l-1 17-1 15-1 14v11l-1 11v9l-1 8-1 7-2 8-3 3-3-2-3-6-1-4-4-12-1-8-6-23" style="clip-to-self:true;comp-op:src"/>
<path transform="scale(.1)" d="m719.14 3554.1-1-3 3-1 5-2 3-1 5-2 4-2 12-4 7-3 18-6 9-4 10-4 11-4 24-8 13-3 24-8 12-3 11-4 9-4 20-8" style="clip-to-self:true;comp-op:src"/>
<path transform="scale(.1)" d="m1049.7 3370.5-3-1h-5-6l-3 1-3 2-8 4-3 4-5 5-5 6-4 7-6 8-4 10-5 11-5 12-4 13-6 28-2 14-1 14v14 13l4 26 4 12 5 11 5 9 6 8 8 6 7 5 8 4 8 1h9l8-1 8-3 20-9" style="clip-to-self:true;comp-op:src"/>
<path transform="scale(.1)" d="m1110 3451.1 3-1 4 1 4 2 2 2 3 6 2 3 2 5 1 5v7 14l-1 8v8l-3 21-2 10v3 4l3-3 2-4 3-4 2-5 8-12 3-8 4-7 5-8 3-8 4-8 3-8 3-9 6-16 3-7 2-7 2-5 1-4 2-4 1 5v3l-1 5-1 6v7l-1 7-2 7-1 8v8l-1 8v7 8l1 7 2 12 3 5 2 5 3 3 3 2 4 1 8-3" style="clip-to-self:true;comp-op:src"/>
<path transform="scale(.1)" d="m1245.6 3345.9 3 2 5 4 3 2 14 14 4 5 5 4 12 18 4 7 4 6 6 16 2 9 2 10 2 11v10l-1 11-1 12-6 24-3 13-8 24-5 11-5 10-5 9-5 8-4 7-4 5-4 4-3 2-3 1h-4v-6l4-12 11-19" style="clip-to-self:true;comp-op:src"/>
<path transform="scale(.1)" d="m1407.5 3467.1 3-3 9-3 4-2 5-1 5-3 6-1 5-2 7-2 12-2 7-2h6l6-1h10l5 1h3l3 2 2 4v3l-1 3-6 10" style="clip-to-self:true;comp-op:src"/>
<path transform="scale(.1)" d="m1445.4 3505.4-3 3-2 3-4 3-9 9v3l3 1h5l8-2 6-1 6-2 16-4 8-3 18-6 8-3 20-5" style="clip-to-self:true;comp-op:src"/>
<path transform="scale(.1)" d="m1701.1 3432.1v-4-5l3-5 3-4 11-11 6-4 5-3 6-4 5-3 12-4 7-1h5 6l5 2 5 1 4 3 3 4 2 5 2 7 1 8-1 9-1 10-1 12-3 12-3 13-4 12-8 26-10 22-4 11-8 16-2 6-3 5-1 3-2 3 1-4 2-4 2-5 3-7 3-8 4-9 5-9 5-10 5-12 6-11 6-12 12-26 6-14 6-13 6-12 6-11 5-10 5-8 3-7 3-5 2-3-1 3-2 4-2 6-3 7-2 9-3 9-4 11-2 11-3 11-3 12-3 11-2 12-1 11-2 11v10 9l1 8 2 7 2 5 6 10 4 3 5 2 5 1 6-1 7-1 7-3 7-4 8-5 8-6 26-26" style="clip-to-self:true;comp-op:src"/>
<path transform="scale(.1)" d="m1874.5 3249.4-3-4-1-3v-3-6l4-5 2-3 3-2 5-3 4-3 10-4 6-2 5-1 6-1h5l6 1 4 1 8 6 3 4 2 6v6 7 9l-2 9-3 10-4 10-3 10-5 10-5 9-4 9-5 8-8 14-3 5-5 10-1 4-1 3 1 4 4 4 4 1 5 1h7 7l9-1 11-1 24-4 13-3 12-2 13-3 22-6 9-3 8-3 11-5" style="clip-to-self:true;comp-op:src"/>
<path transform="scale(.1)" d="m863.32 4121.5 4-5 2-4 3-5 8-12 4-7 5-6 5-8 4-6 8-16 3-7 3-8 4-16 1-8v-7-8-7l-1-6-4-10-6-4h-3l-4 1-5 2-9 9-5 6-5 8-5 10-5 11-4 13-4 14-3 16-4 17-2 18-3 20-3 21-3 22-8 88-2 42v21 88l-1 13-1 10-1 8-1 7-2 10-1 3-4 2-4-2-3-2-9-9" style="clip-to-self:true;comp-op:src"/>
<path transform="scale(.1)" d="m707.19 4384.9-3-1-1-3 4-3 3-3 8-6 5-3 6-5 14-10 8-6 8-7 9-7 11-7 10-8 11-9 12-9 36-30 12-12 12-11 27-31" style="clip-to-self:true;comp-op:src"/>
<path transform="scale(.1)" d="m994.1 4084.8-1-4-3-3-4-1h-3l-4 3-3 2-6 6-3 5-4 5-4 6-4 7-4 8-4 9-5 11-3 12-5 13-4 14-3 13-3 14-3 13-1 14-2 14v13l1 13 1 12 3 11 3 10 4 9 5 8 5 6 7 4 7 2 8 1 9-1 8-3 9-5 21-16" style="clip-to-self:true;comp-op:src"/>
<path transform="scale(.1)" d="m1017.1 4190-2-2 4-1 6 1h4 16 7l7-1h8 15 21 6 5l4 1h4l5 1v-5" style="clip-to-self:true;comp-op:src"/>
<path transform="scale(.1)" d="m1148.8 4145.6-1-4 3-5 5-3 12-6 8-3h3l4-1 4 1h4l3 1 6 4 4 8 2 12-1 8-1 9-2 9-3 10-12 30-5 10-4 9-4 8-4 7-2 5-3 4-4 6 5-5 2-4 4-6 5-6 6-8 6-9 7-9 7-10 28-44 12-24 6-11 5-10 4-10 7-14 2-5 1-3-4 1-2 3-3 5-4 7-5 7-4 8-4 9-5 9-6 18-2 9-2 8-1 9 2 14 2 6 3 5 8 8 6 2 5 3 6 1h7 6l8-1 7-1 7-2 12-6 11-8" style="clip-to-self:true;comp-op:src"/>
<path transform="scale(.1)" d="m1325.1 4019.8 5 1 3 1 8 4 4 3 5 3 5 4 10 10 5 6 4 7 3 9 4 9 2 10 2 11 2 26v14l-1 15-4 30-3 16-4 16-4 15-5 15-5 14-6 14-5 14-6 13-5 12-5 10-5 8-4 6-5 5-3 2-5 1-2-5-1-5 2-15" style="clip-to-self:true;comp-op:src"/>
<path transform="scale(.1)" d="m1511.4 4143.5 4-3 6-1 5-2 5-1 18-3 7-1 6-1h6l6-1 6 1h5l4 2 2 2 3 5-4 9" style="clip-to-self:true;comp-op:src"/>
<path transform="scale(.1)" d="m1505.2 4207.3v4l3 1 5-2 3-1 5-1 4-2 6-1 6-2 7-2 16-4 8-3 8-2 14-4 5-1 11-5" style="clip-to-self:true;comp-op:src"/>
<path transform="scale(.1)" d="m1864.5 4140.5 3-2 5-1 3-1 8-2 5-1 6-2 6-1 6-2 14-2 6-1 7-1h7l6-1h10 4l6-1 4-2" style="clip-to-self:true;comp-op:src"/>
<path transform="scale(.1)" d="m2041.7 4089.2 3-4 7-7 6-4 8-2 5-1h4 5 4l4 2 4 1 4 3 6 8 2 5 2 6 1 7v8l-1 8-1 9-2 9-3 8-3 9-4 8-4 7-4 6-5 6-4 4-5 3-8 4-3 1-5-1-3-3-1-6 1-4 2-5 2-6 3-7 5-7 5-8 5-7 6-9 7-9 6-9 8-10 14-20 12-20 6-8 5-8 4-7 3-5 4-8-3 3-6 8-4 6-10 14-10 18-10 20-8 22-3 11-3 12-2 24-1 11v10l1 10 1 8 2 7 2 6 4 6 4 4 4 3 5 2 5 1h6l5-2 6-2 5-3 4-5 8-12" style="clip-to-self:true;comp-op:src"/>
<path transform="scale(.1)" d="m1824.7 3984.4-4 2-4 1-6 3-5 5-7 6-7 8-7 9-6 11-7 12-7 13-6 13-6 14-4 15-5 16-4 15-4 32-1 15v15l4 28 4 13 6 12 7 11 8 9 11 9 11 6 13 5 15 4 15 1h17l17-1 36-8 19-6 19-7 44-18" style="clip-to-self:true;comp-op:src"/>
<path transform="scale(.1)" d="m2129.8 3931.4 4-4 6-4 4-1h5 5l14 2 7 3 8 3 8 4 8 5 15 15 7 10 7 12 6 14 5 15 5 16 4 18 3 17 2 18 1 19v19 19l-2 19-2 18-6 36-4 17-5 15-5 13-4 11-6 9-4 7-9 9-4 2-4 1h-3l-3-2-3-3-3-5-2-6-2-9-1-10-2-13-2-36" style="clip-to-self:true;comp-op:src"/>
<path transform="scale(.1)" d="m2269.2 3841.7-3-3 1-3 4-2 3-2 3-1 10-4 12-2 14-2h7l12 2 6 2 4 2 3 4 3 3 1 5v5 6l-2 7-3 7-4 8-5 7-5 9-7 8-6 8-7 7-6 8-5 7-8 10-3 4-2 4v3 4l5 2h5 6 7l9-2 9-1 21-4 11-3 20-6 22-5" style="clip-to-self:true;comp-op:src"/>
<path transform="scale(.1)" d="m2366 4090 5-3 3-2 4-1 4-2 11-4 5-2 6-2 15-3h4 4l5 2 1 4-2 4-2 3-10 8" style="clip-to-self:true;comp-op:src"/>
<path transform="scale(.1)" d="m2348.8 4143.9-1 3 3 1 8-2 5-2 5-1 6-3 6-2 7-2 6-2 21-9 6-4 6-3 17-11" style="clip-to-self:true;comp-op:src"/>
<path transform="scale(.1)" d="m2590.7 4083.6 1-3 2-3 2-4 3-4 4-3 4-4 18-9 6-2 7-2 12-2h6l5 1 5 2 4 2 4 4 2 4 3 5 1 6v7 8l-4 18-3 9-4 9-8 20-10 18-4 8-4 7-4 5-3 5-2 3-3 2v-4l2-4 2-5 4-7 3-7 5-8 4-9 7-10 6-10 8-12 7-11 8-11 8-12 8-13 16-28 7-13 6-13 6-12 5-9 4-7 2-4-3 5-3 7-4 8-5 9-6 10-5 11-12 24-5 12-5 11-4 12-3 11-4 22v9l1 9 1 8 6 12 5 4 5 3 7 3 7 1h8l8-2 9-2 9-4 9-5 8-5 8-7 7-8 17-20" style="clip-to-self:true;comp-op:src"/>
<path transform="scale(.1)" d="m2778.9 3834.4-3-4-2-3-3-5v-4l3-4 5-5 8-4 5-2 5-1 12-2 7-1h6l6 1 5 2 4 2 4 3 3 4 2 5v6 7l-1 7-2 8-3 8-4 9-4 8-5 9-5 8-10 14-4 6-4 5-3 4-2 4-2 2v3l4 2 10-2 6-1 8-2 9-2 10-2 10-3 10-2 11-3 10-2 9-2 8-2 21-3" style="clip-to-self:true;comp-op:src"/>
<path transform="scale(.1)" d="m2892.9 4065.9 1 3h4l3-1 4-1 10-2 7-2 13-4 7-1 7-2 21-3h5l6-1h9l4 1" style="clip-to-self:true;comp-op:src"/>
<path transform="scale(.1)" d="m2897.2 4110.3-3 4-3 3 3 3h6 4l5-1 6-1 7-2 16-4 8-3 9-2 16-6 9-4 19-8" style="clip-to-self:true;comp-op:src"/>
<path transform="scale(.1)" d="m3294.3 3968.4 2-4 1-5 3-7 1-6 1-7 2-7v-7l1-7v-14l-2-16-5-15-4-8-3-9-12-18-6-8-7-8-8-7-9-6-10-5-10-3-12-2h-12l-13 1-12 2-12 4-11 6-10 6-9 8-8 10-7 12-6 13-5 15-5 17-4 19-4 21-3 22-2 22-3 63v21l1 20 1 22 2 21 4 46 3 22 2 21 2 20 2 17 1 16 2 15 1 12 2 22v8 8 6l-1 5-2 3-3 1-10-10" style="clip-to-self:true;comp-op:src"/>
<path transform="scale(.1)" d="m3053.9 4186.6v-4l1-6 1-3 2-3 6-8 10-10 6-5 6-6 8-6 7-7 9-6 18-14 11-6 11-8 12-8 12-7 13-7 24-14 12-6 26-11" style="clip-to-self:true;comp-op:src"/>
<path transform="scale(.1)" d="m3328.8 4027.9-2-3-3-4-4-2-4-1h-3l-5 2-6 4-2 3-3 4-4 5-2 5-3 7-4 8-3 8-3 9-3 10-2 10-4 22-1 11v11 10l2 10 3 9 3 8 4 6 5 5 6 4 7 3 8 1 8-1 18-6 9-5 24-14" style="clip-to-self:true;comp-op:src"/>
<path transform="scale(.1)" d="m3374.8 4093-5-1-1-3 2-3 5-4 6-4 3-1 4-2 4-1 10-2h5 5 5l10 2 4 3 3 2 3 4 1 4 1 5v6l-2 12-9 21-4 6-3 6-4 4-3 4-3 3-3 2-3 1-2-5 1-3 2-5 2-6 4-6 3-7 4-7 10-16 24-32 6-7 5-6 12-12 5-1 2 3v8 5l-1 7-3 24-2 18-1 17v8l1 8 1 7 2 6 3 5 2 4 4 3 4 1h4l4-2 5-2 10-11" style="clip-to-self:true;comp-op:src"/>
<path transform="scale(.1)" d="m3540.5 3973.2 4 1 28 14 14 8 8 6 8 5 8 6 8 7 15 15 7 8 5 9 5 10 4 10 2 10v11 13l-2 12-4 13-5 14-14 28-10 13-10 11-11 11-12 9-12 8-32 15" style="clip-to-self:true;comp-op:src"/>
</g>
<g stroke="#ff0" stroke-width="14.1">
<path transform="scale(.1)" d="m1196.2 5030.7 1-5v-4l1-5v-4l-1-5-1-4-2-3-2-2-3-4-5-1-4 1-4 2-9 9-6 7-7 8-7 10-7 12-7 13-8 14-8 15-7 16-7 15-12 32-5 16-4 15-3 14-2 14v13l1 11 2 10 2 9 4 7 3 5 5 4 5 3 5 2h6 7l6-2 8-3 8-4 8-5 9-5 8-7 8-6 9-8 8-8 14-16 7-9 5-9 10-16 3-8 2-7 4-10v-3-3l-4 5-2 4-2 5-2 6-2 7-1 8-2 8v16l2 7 2 6 3 6 4 4 10 6 6 1 7 1 7-1 16-4 18-8 18-12 8-6 8-7 8-8 12-16 5-8 3-8 2-9 1-8v-8l-1-9-6-16-4-7-10-12-6-4-6-3-7-2h-6-8l-8 3-7 3-8 5-8 6-7 7-8 7-18 27-8 18-2 8-1 8 1 8 1 5 3 5 11 7" style="clip-to-self:true;comp-op:src"/>
<path transform="scale(.1)" d="m1486.5 5103.1 4-5 5-5 4-6 3-5 2-5 1-4v-3l-4-4h-3-3-5l-5 2-7 2-6 4-16 10-8 6-9 7-16 14-7 8-6 7-5 7-3 8-3 7-1 6 1 7 1 6 8 12 7 4 7 5 7 4 10 3 9 3 20 6 10 2 9 2 10 2 8 1 8 2 6 1 5 2 5 1 2 3 1 4-4 5-5 3-5 4-7 3-7 4-8 3-9 3-10 3-9 2-9 3-10 1-8 2h-9-15-7l-5-1-5-2-4-2-2-6 5-10" style="clip-to-self:true;comp-op:src"/>
<path transform="scale(.1)" d="m1678.1 5063.9 2-4 1-4 1-6 2-6v-5l1-5v-11l-1-5-3-1-4 2-7 7-3 6-5 7-10 18-5 12-6 11-10 26-6 14-4 14-6 14-4 15-4 16-6 30-2 28 1 13 1 11 2 11 4 9 5 7 5 6 6 4 7 2h7l9-1 8-2 10-3 10-5 11-6 11-7 29-19" style="clip-to-self:true;comp-op:src"/>
<path transform="scale(.1)" d="m1764.4 5147.5v3l2 3 4 1 3 1h3 5l10-1 6-1 7-1 6-1 7-1 7-2 7-1 6-1 7-2 6-1 5-2 12-4" style="clip-to-self:true;comp-op:src"/>
<path transform="scale(.1)" d="m1930.6 5110.9 1-3 4-5 7-5 4-2 5-3 4-2 11-3 5-2h5l5-1 5 1 4 1 4 2 3 2 3 3 4 10v6 6l-1 7-2 9-2 8-3 8-8 18-5 8-4 8-5 8-4 7-4 6-3 4-4 8 4-4 3-4 4-4 5-6 13-13 6-8 15-15 6-8 8-8 6-7 12-16 10-14 4-7 3-5 2-5 2-3v-4l-6 1-3 3-4 3-4 4-12 15-4 7-9 21-2 8-1 7-1 8v8l1 7 2 7 2 6 3 6 4 4 5 4 5 3 6 2 6 1h7 7l7-2 14-6 7-4 16-12" style="clip-to-self:true;comp-op:src"/>
<path transform="scale(.1)" d="m2114 4997.1 2-2 6-3h4l4-1h6l6 1 14 2 7 2 16 6 7 4 8 5 8 7 15 15 12 20 6 12 4 12 3 13 2 14v15 16l-2 16-3 17-4 17-6 18-5 17-7 18-15 30-8 12-7 11-7 9-7 7-7 6-5 5-6 2-4 2h-4l-3-2-2-3v-12" style="clip-to-self:true;comp-op:src"/>
<path transform="scale(.1)" d="m2325.7 5156.2 2-2 5-4 4-2 5-2 6-2 7-3 16-4 17-5 9-2 18-3 8-1 9-1h6 7 4l8 2" style="clip-to-self:true;comp-op:src"/>
<path transform="scale(.1)" d="m2350.7 5230.7-1 3 2 2h7l10-2 21-6 8-2 8-3 8-4 8-3 28-14" style="clip-to-self:true;comp-op:src"/>
<path transform="scale(.1)" d="m2769.3 4989.3-1-4-1-3-2-3-4 3-3 5-3 7-3 9-5 11-5 13-6 14-6 16-7 17-6 17-6 16-6 17-4 17-4 16-2 30 1 14 1 13 4 11 4 9 5 8 6 7 7 5 8 3 16 2 9-2 10-1 9-3 18-8 8-6 9-6 14-14 12-16 8-18 3-10 3-8 2-9 1-8 1-6v-6-3l-1-4-3 2-2 3-2 5-2 6-4 14-2 8v8 8l1 8 2 8 6 14 4 6 4 5 4 4 6 3 10 4h5l12-2 5-3 6-3 5-5 5-4 3-6 4-6 2-7 1-6 1-7-1-7-2-8-3-7-3-9-4-7-5-8-4-7-5-7-6-6-10-8-5-1h-6l-5 1-6 2-6 4-7 4-5 5-5 6-4 6-3 7-2 12 2 4 3 5 13 7" style="clip-to-self:true;comp-op:src"/>
<path transform="scale(.1)" d="m3109.4 5046.2 2-4v-4l-1-5-2-3-3-2-5-1-5 1-6 1-6 3-6 4-14 10-7 6-7 7-8 7-6 7-7 8-5 7-5 8-3 8-2 7-1 8 1 8 4 14 4 8 10 14 6 7 6 6 6 7 5 6 6 7 10 12 4 6 2 5 2 10-1 5-2 5-3 5-10 8-6 4-6 3-8 3-14 4-8 1h-7l-7-1-5-2-6-2-5-3-4-4-6-12" style="clip-to-self:true;comp-op:src"/>
<path transform="scale(.1)" d="m3351.3 4997.1-4 1h-5l-10 6-7 4-7 7-8 7-8 9-10 10-9 11-18 24-18 26-7 13-8 13-6 13-5 12-4 13-1 13-1 11 2 12 3 10 5 10 6 8 8 7 9 6 11 4 12 3 14 1h14l15-1 16-2 16-3 30-8 14-5 30-14" style="clip-to-self:true;comp-op:src"/>
<path transform="scale(.1)" d="m3443.8 5101 4-6 2-2 4-3 3-2 4-3 4-1 5-2 4-1 5-2h4 4l8 2 2 2 3 2 2 3 2 4 1 5v5l-1 6-2 6-2 7-3 6-2 7-4 7-6 12-3 4-2 5-2 3-3 5 3-5 2-3 3-4 3-5 5-5 5-7 5-6 7-6 5-7 6-7 6-8 12-14 10-14 5-6 6-8 2-3-3 4-3 3-4 5-4 6-8 14-4 8-6 16-2 8-1 7v8l1 7 2 6 3 6 5 6 5 4 7 4 7 2 9 2 10 1 9-1 10-2 10-3 24-12" style="clip-to-self:true;comp-op:src"/>
<path transform="scale(.1)" d="m3659.8 4975.9 6 1h4l10 2 6 3 6 2 8 3 7 4 8 4 16 10 7 6 8 6 7 8 6 8 7 9 6 9 5 11 8 22 2 11 2 12-1 12-2 12-3 13-5 13-6 13-16 26-10 12-10 11-24 20-33 22" style="clip-to-self:true;comp-op:src"/>
</g>
<g stroke="#00c0ff" stroke-width="14.1">
<path transform="scale(.1)" d="m7270.1 1975.5-4-3-5-2-6-1h-4-4l-4 2-5 1-5 3-6 3-6 5-6 6-6 7-6 8-7 10-6 11-7 13-12 28-5 16-4 16-4 15-2 16-2 15v15l1 14 2 13 3 12 4 10 5 10 6 8 7 8 8 6 8 4 9 4 9 2 11 1h10l11-3 12-3 12-5 13-6 13-7 13-8 26-18 12-11 11-11 20-24 8-13 8-14 7-15 5-16 5-15 3-17 2-16 1-15v-15l-3-15-3-13-5-11-6-9-8-8-9-5-10-4-12-2-12-1h-14l-15 2-15 3-14 4-15 4-15 6-14 6-26 14-11 7-10 9-9 8-7 8-5 10-4 9-1 9 1 9 2 8 3 8 5 7 14 17" style="clip-to-self:true;comp-op:src"/>
<path transform="scale(.1)" d="m7596.3 2071.2-2-6-2-4-4-3-4-2-5-2h-5l-6-1-16 2-8 2-10 2-20 8-10 5-10 6-8 7-8 6-7 7-5 8-8 16-2 8-1 8v7l2 14 3 6 3 5 4 4 5 4 6 3 6 2 7 2h8 8l8-1 9-2 18-6 8-4 8-5 8-6 6-6 7-6 10-14 3-8 6-18 2-9 2-11 1-10v-12-12-12l-2-12-3-25-4-24-4-20-1-7-2-6v-4l-1-3v6l1 5v7l1 9v22l-1 14-1 15-1 16-1 17-2 18-2 36-2 18v16 17 15l1 15 2 15 3 13 4 12 4 10 5 7 5 5 14 3" style="clip-to-self:true;comp-op:src"/>
<path transform="scale(.1)" d="m7822 2052.2-6-1h-6l-5 1h-7l-7 2-7 1-8 2-9 3-16 6-9 3-9 4-8 5-8 4-8 5-7 6-7 5-5 6-4 7-3 6-3 7-4 14v7 7l2 7 2 5 3 6 3 4 5 4 5 3 6 2 6 1h7l7-1 8-2 8-3 8-4 7-4 8-5 8-6 6-6 7-8 5-7 6-9 5-10 4-10 5-12 3-12 6-26 2-15 2-16 1-16 2-34v-18-18l1-17v-58l-1-5-1 7-1 8-1 10-1 11-1 14-2 15-2 16-6 51-1 18-2 17-1 18v18l-1 17 1 18 1 17 1 16 2 15 2 14 3 12 3 11 11 18" style="clip-to-self:true;comp-op:src"/>
<path transform="scale(.1)" d="m6734.1 2720.4 1-3 5-10 10-10 4-5 11-11 5-6 6-7 5-7 6-8 10-16 6-9 4-9 5-8 4-10 4-9 4-8 4-9 6-27 2-7 1-8v-7-7-5l-1-5-1-4-4-5-3-2-4 1-3 3-2 4-2 5-2 6-2 9-3 10-2 12-2 15-2 16-2 19-2 21-1 22-2 23-1 24-1 47v110l1 19-1 18v17 15l-1 15v13l-1 13-4 22-1 8-3 8-2 6-2 4-3 3-3 2-3 1-2-1-3-2-3-3-3-4-2-7-8-19" style="clip-to-self:true;comp-op:src"/>
<path transform="scale(.1)" d="m6645 2839.4 2-4 1-3 2-3 6-6 4-3 5-3 6-3 7-4 8-5 9-5 10-5 11-6 12-7 13-6 15-7 15-6 15-7 16-7 15-6 30-10 26-8 12-3 11-2 10-3 9-3 7-2 15-4" style="clip-to-self:true;comp-op:src"/>
<path transform="scale(.1)" d="m6986.1 2632.5 2-3v-4l2-4 1-4v-8l-2-3-5 1-6 4-3 4-5 6-6 7-6 8-6 11-7 11-7 12-7 13-6 13-6 14-6 13-5 14-3 14-4 13-2 13-2 12v12l1 12 6 20 4 7 6 7 7 4 8 4 9 2 9 1h10l11-2 10-2 10-4 11-5 24-13" style="clip-to-self:true;comp-op:src"/>
<path transform="scale(.1)" d="m7104.4 2714h-3l-10-2h-12l5 2h4 5 6l7-1 9-1 10-1 10-2 11-1 21-4 10-1 10-2 16-2 7-1h6l4-1h4l4 1-3 3-5 2-3 1-2 1h-7l-7-1" style="clip-to-self:true;comp-op:src"/>
<path transform="scale(.1)" d="m7273 2683.8-3-2-1-3 2-3 5-3 3-3 4-2 4-3 5-2 5-3 10-4 6-2 5-1h5 5l4 1 4 3 3 3 2 5 2 6 1 8-1 9-1 10-2 10-3 11-4 12-3 11-4 11-3 11-4 10-6 18-3 7-2 6-1 5-2 3-1 3 3-5 2-5 3-5 3-7 4-8 4-9 5-9 4-9 4-10 5-10 4-10 5-11 4-11 5-12 8-24 5-11 3-11 3-9 3-8 2-6 1-4 1-3-7 14-3 8-3 9-4 9-4 11-3 11-4 11-3 12-6 22-2 11-3 10-1 10-1 8v14 6l2 5 2 4 3 3 6 4 10 2h4l6-1 11-2 5-2 6-3 10-6 4-5 11-11" style="clip-to-self:true;comp-op:src"/>
<path transform="scale(.1)" d="m7438.2 2603.2 2-4 3-1h5 4l8 2 5 2 5 3 6 3 6 4 14 12 7 8 7 9 6 10 6 11 4 11 4 12 3 13 2 13 1 13-1 13-2 14-6 26-4 13-10 26-5 12-6 11-12 18-5 6-6 6-6 4-10 6-4 2-8 2-6-1-3-4v-4l2-10" style="clip-to-self:true;comp-op:src"/>
<path transform="scale(.1)" d="m7706 2692.9h-3-4l3 1 6 1h5 6 6l7-1 8-1h8l17-2h9 15 7l6 1 5 1 3 1 3 2-7 8" style="clip-to-self:true;comp-op:src"/>
<path transform="scale(.1)" d="m7683 2743.3-3 2-7 1-4 1 5 1h4 5l12-2 8-1 9-2 9-1 10-1 10-2 12-2 11-1 68-17" style="clip-to-self:true;comp-op:src"/>
<path transform="scale(.1)" d="m8081.6 2679.9-4-2-4-1-4-2-5-2-4-1-2-1h-4l4 1h3l4 1 5-1h6 7l8-1 9-1h9l9-2 10-1 11-1 10-2h9l9-2 9-1 8-1 7-1 6-1 6-2 4-1 5-2" style="clip-to-self:true;comp-op:src"/>
<path transform="scale(.1)" d="m8371.8 2630.3 6-1 3-1 10-4 7-3 6-4 8-4 16-10 9-6 8-6 9-6 8-7 9-7 8-7 7-7 14-16 5-8 6-8 4-9 3-9 3-8 1-9 1-8v-9l-2-14-4-10-3-4-4-3-4-1h-4-5l-4 2-5 3-6 5-5 6-6 9-6 10-6 12-7 13-7 16-7 17-7 18-6 21-7 21-6 23-7 24-4 25-5 25-3 24-2 24-1 25v22 22 19l1 18 1 15 2 13 2 12 2 10 2 8 1 7 1 5 1 4 1 3 1-3v-4l-2-4-4-14" style="clip-to-self:true;comp-op:src"/>
<path transform="scale(.1)" d="m8276.5 2784.3-1-5v-3l2-6 3-3 4-2 4-3 5-2 12-6 7-4 7-3 8-4 9-4 9-5 11-5 11-4 12-5 13-5 14-5 13-5 14-4 13-5 12-5 11-4 11-5 9-4 8-4 21-12" style="clip-to-self:true;comp-op:src"/>
<path transform="scale(.1)" d="m8557.7 2619.6-3-3-4-1-5-1-6 2-2 2-4 2-4 3-4 4-5 4-5 7-6 7-5 8-6 10-5 10-5 12-5 11-4 12-3 12-4 24v11l1 10 3 10 3 8 4 8 6 6 7 5 8 4 9 3 10 1 11 1 22-2 12-2 11-4 27-9" style="clip-to-self:true;comp-op:src"/>
<path transform="scale(.1)" d="m8608 2707.5-4-4-3-2-3-4-2-3 1-3 2-3 4-3 3-1 5-2 4-1h4 3l4 1 4 2 3 1 4 2 3 2 3 3 2 4 1 4 1 6v5 7l-4 14-2 8-4 8-3 8-4 8-3 7-4 6-3 4-2 4-2 3-3 3-3-3 1-3v-4l4-12 3-6 3-9 3-8 4-9 3-9 12-30 4-9 5-9 3-8 5-7 6-10 3-4 4-3 3 1 2 5v5 10 6l-1 7-1 8v7l-2 16-1 7-1 8-1 7v7 6 6l1 6 1 4 3 6 5 2 7-5" style="clip-to-self:true;comp-op:src"/>
<path transform="scale(.1)" d="m8749.3 2601.9 5 1 10 5 5 3 6 2 12 6 14 8 6 5 7 5 8 7 7 7 7 8 6 8 12 20 5 11 4 22 1 13-2 12-3 13-4 14-12 26-8 13-9 13-9 12-9 11-9 10-9 9-9 7-8 7-8 6-8 4-8 3-8 2-8 1-25 1" style="clip-to-self:true;comp-op:src"/>
</g>
<g stroke="#ff7f00" stroke-width="14.1">
<path transform="scale(.1)" d="m4053.6 1378.4 4-10 2-7 4-12 1-4 1-5v-4l1-4v-8l-1-3v-4l-4-6-4-4-3-1h-3-4l-4 2-5 2-11 11-7 8-9 11-8 12-8 13-9 15-9 16-8 16-7 16-6 17-5 17-3 16-2 16v16l2 16 3 14 4 14 7 11 7 10 8 7 9 5 11 2h11l12-2 12-4 13-6 13-8 14-10 14-12 14-13 12-15 13-14 12-15 11-16 10-16 9-16 8-16 6-16 5-16 4-16 2-16 1-14v-14l-1-12-2-11-4-10-5-7-6-6-7-4-9-1h-9l-10 2-11 4-11 6-12 7-12 9-11 10-11 11-10 12-9 13-9 14-12 28-4 13-3 13-2 13v12l1 10 2 9 3 8 12 11" style="clip-to-self:true;comp-op:src"/>
<path transform="scale(.1)" d="m4116.8 1416.3-6-8-2-4 3 3 3 5 2 4 2 5 3 6 2 7 3 7 6 18 2 10 3 11 2 10 3 11 4 22 2 10 2 9 2 8 2 7 1 5 1 3h5" style="clip-to-self:true;comp-op:src"/>
<path transform="scale(.1)" d="m4241.8 1417.6 3-5 3-3 2-4 3-4 2-3v5l-1 4-2 4-4 12-2 7-6 16-2 9-3 10-2 10-1 11-2 10v10 9 9l2 9 1 6 5 10 4 3 4 1 4-1 5-2 6-4 7-6 6-7 7-8 7-9 6-11 7-11 12-22 10-22 8-20 3-8 3-7 3-6 1-4 3-5 2 6v5l1 6v36 10l2 22 2 11 1 10 3 10 2 9 7 14 4 5 4 4 5 1h4l5-1 4-3 8-12" style="clip-to-self:true;comp-op:src"/>
<path transform="scale(.1)" d="m4419.5 1424.1-2 4-1 5-1 3-1 4v7l1 3v3l1 3 3 6 4 3 6 2h3 5l5-1 5-2 6-2 5-3 6-3 5-5 6-5 4-4 4-5 4-6 2-6 2-5 2-6 1-6v-6-6-4l-1-5-2-3-2-2-5-2-3 1-4 2-8 8-8 14-8 18-3 9-2 11-2 10-1 10v21l2 9 1 10 3 8 3 7 4 5 5 4 6 3 7 1h6l16-6 9-5 9-6 9-8 9-7 18-18 9-10 9-11 8-10 14-22 6-10 5-9 4-9 3-8 2-6v-5-3l-3-3-7 3-4 2-4 4-4 5-5 5-8 12-3 7-3 6-2 6-2 7v5 11 5l4 8 3 4 3 3 2 4 4 3 7 7 2 4 3 4 2 5 3 15-1 5-1 6-1 5-4 10-3 4-2 4-2 3-3 3v-3-3l4-10 3-8 5-8 5-9 14-22 8-12 7-12 8-12 8-13 7-12 7-14 6-13 12-28 6-13 5-13 4-12 4-11 3-9 2-7 1-6 1-4-1-3-5 3-2 3-3 5-3 6-4 7-3 7-9 27-2 11-2 22-1 12 1 23 1 12 4 24 6 22 3 10 3 8 7 14 4 6 4 4 3 4 3 2 4 1 3 1 6-2 3-3 2-3 2-4v-4l1-14" style="clip-to-self:true;comp-op:src"/>
<path transform="scale(.1)" d="m4683 1435.3 3-4 2-3 2-2 4-2 3-3 5-2 5-3 6-2 5-3 7-4 6-3 7-2 6-3 7-3 8-2 8-1 7-2 7-1h7l6 1 5 1 5 2 4 3 2 3 4 10 1 5v7l-1 6v8l-1 7v8l-1 8v6l1 7v6l2 4 1 4 2 3 3 3 4-1 6-13" style="clip-to-self:true;comp-op:src"/>
<path transform="scale(.1)" d="m4867.9 1321.5-4-1h-3l-1 4v10 3l2 4 2 7" style="clip-to-self:true;comp-op:src"/>
<path transform="scale(.1)" d="m4956.5 1362.4-4 2-4 1-3 1-5 2-4 2-3 4-8 8-3 5-4 6-6 12-2 7-2 6-3 21v7l2 12 2 5 4 8 4 2 3 1 4 1 4-1 5-1 3-2 8-6 2-4 3-5 1-4 2-6 1-5v-5-23-6-16-4l2-5 2-4 3-4 4-4 4-3 5-4 6-2 6-3 14-4h6 7 5l6 2 4 2 5 3 7 7 3 5 2 5 1 5 1 6v6l-2 14-4 14-3 6-2 6-3 5-3 4-2 4-2 2-2 3-1-3 1-4 2-4 3-5 4-5 4-7 12-14 7-8 6-7 8-9 7-7 7-8 8-7 7-6 7-5 6-4 5-3 5-1h4 3l4 6 1 4v5 13l-1 9v8l-3 27v9l2 18 1 8 3 7 3 6 4 5 4 3 5 2 16-2" style="clip-to-self:true;comp-op:src"/>
<path transform="scale(.1)" d="m5273.1 1357.7v-4-3l-1-3-2-3-6-4h-3l-5 1-5 2-6 3-7 4-7 5-14 12-7 7-7 8-7 7-5 9-5 8-4 8-3 8-2 8-1 7v7 6l2 5 2 4 4 4 3 2 4 1h5l5-1 6-2 5-3 7-3 5-5 12-10 5-6 6-6 5-6 4-6 6-10 2-3 2-4 2-3 1 3-1 3v4l-1 4v5l1 6 1 5 1 6 2 5 6 10 4 5 4 4 5 3 5 2 6 1h6 7l14-6 7-4 19-15" style="clip-to-self:true;comp-op:src"/>
<path transform="scale(.1)" d="m5387.6 1257.2-2-14-1-8-1-5-2-5-2-4-3 4-2 4-1 5-1 7-2 8-2 9-1 10-1 11-2 24v26 13l2 26 1 11 2 11 2 10 2 9 2 8 2 6 2 5 2 4 3 4 3-2 2-3 4-10 3-6 4-7 3-7 4-8 4-7 4-8 6-7 4-7 6-7 5-6 6-5 5-5 5-3 5-2 5-1h5l4 2 4 1 3 3 2 4 2 5 1 5 1 7-1 6-2 16-2 8-12 24-5 9-5 7-6 8-12 12-6 5-6 4-5 3-5 1-4 1-3-1-4-2-2-2-2-5v-5-7l2-7 2-9 9-25" style="clip-to-self:true;comp-op:src"/>
<path transform="scale(.1)" d="m5539 1226.2-5 1-3 1-10 10-3 4-3 6-3 5-2 6-3 7-2 8-1 9v9l-1 10v11l1 11 1 12 1 13 3 12 2 13 7 24 4 11 5 10 6 9 5 8 7 6 14 8 7 2 7 1 8-1 7-1 8-3 7-3 14-10 6-6 6-7 5-7 6-9 4-10 4-9 6-22 4-24 1-11 1-10v-8l-1-7-1-5-2-4h-5l-3 1-4 3-3 5-3 6-4 7-6 16-4 10-6 20-4 20-1 9-1 10 1 8 2 7 3 7 5 6 6 5 7 4 9 2 11 1h13l14-1 16-2 17-4 41-13" style="clip-to-self:true;comp-op:src"/>
<path transform="scale(.1)" d="m5964.3 1166.3v-3l1-3v-4l1-4v-7-3-8 3l-1 5-1 6-2 8-1 11-3 13-3 14-2 16-3 16-2 17-3 17-1 17-2 16-1 17-2 15-1 15v13l-1 13v12l1 12v10l1 10 2 16 1 7 1 6 2 5 1 5 1 4 2 6 3 5 2 3" style="clip-to-self:true;comp-op:src"/>
<path transform="scale(.1)" d="m5981.6 1515.9-1 3-3 4-2 5-1 3-2 4-1 5-3 6-6 14-6 18-3 8-3 9-2 8-3 8-1 8-1 6v16l1 3 3 5 3 2 6-2 3-2 8-6 8-10 4-6 3-6 3-7 3-6 4-14 1-8 1-7v-16l-2-14-1-5-2-5-3-3-3-2-6-2-8 2-4 3-4 4-8 10-5 7-4 6-4 7-5 16" style="clip-to-self:true;comp-op:src"/>
</g>
<g stroke="#fff" stroke-width="14.1">
<path transform="scale(.1)" d="m6934.8 3411.1 2 3 4 3 4-1 6-2 3-3 5-3 5-4 11-11 7-6 7-8 8-8 7-10 18-22 8-10 8-12 9-11 8-11 7-12 7-11 7-12 10-22 4-11 2-9 1-7-1-7-1-4-3-3-4-1h-5l-5 2-6 4-7 6-7 8-8 10-7 13-8 15-7 17-7 20-6 23-6 25-4 27-4 28-3 27-2 28-1 27-1 26v25l2 50 4 44 2 21 1 20 2 36 1 16v26 11l-1 9-1 7-1 5-2 4-4 5-5-2-2-3-3-4-7-17" style="clip-to-self:true;comp-op:src"/>
<path transform="scale(.1)" d="m6906.6 3651.6 2-10 4-4 6-4 4-3 4-4 4-3 5-4 6-4 12-10 8-5 7-6 9-7 10-6 11-7 11-8 12-7 11-9 12-8 31-21" style="clip-to-self:true;comp-op:src"/>
<path transform="scale(.1)" d="m7191.6 3411.1-2-3-1-4-4-10-4-8-2-2-3-4-4-1-5 1-3 1-12 12-4 7-5 9-6 10-5 11-6 12-6 13-5 13-5 14-8 28-1 14-2 13v12l2 11 1 11 4 10 4 8 5 7 7 6 7 4 7 3 8 3 7 1h7l7-1 16-5" style="clip-to-self:true;comp-op:src"/>
<path transform="scale(.1)" d="m7257.7 3517.1-2-4-2-8 1-5 1-3 2-3 2-4 10-10 4-3 5-2 5-3 4-2 5-2 5-1h5l5-1 8 2 3 2 6 6 1 4 1 5v6l-2 14-2 7-3 8-3 7-3 8-4 7-3 6-4 6-3 5-3 4-3 3-2 3-4 3-1-4 2-3 3-4 3-5 4-5 5-7 12-14 6-8 7-7 6-9 7-8 12-18 15-27 4-8 3-8 3-7 5-10 2-6-3 6-1 5-3 7-2 8-3 10-4 12-3 12-3 13-2 13-3 14-3 39 1 12 1 11 2 9 3 9 3 7 4 6 6 5 5 2 6 1h8l8-2 8-4 9-4 9-7 23-20" style="clip-to-self:true;comp-op:src"/>
<path transform="scale(.1)" d="m7484.2 3395.1v-3l4-1 5-1h9l10 2 6 1 6 3 5 3 6 4 5 5 6 7 4 7 4 9 3 10 1 11 1 13v13l-1 15-2 15-3 16-4 16-4 15-5 15-8 26-4 10-3 9-3 8-2 6-2 4-1 3 1-5 2-5 4-15" style="clip-to-self:true;comp-op:src"/>
<path transform="scale(.1)" d="m7662.4 3496.9 4 1h10 4l8-2 11-1 6-1 7-1h6 33 4l9 3" style="clip-to-self:true;comp-op:src"/>
<path transform="scale(.1)" d="m7706 3556.8 3 2h9 4l10-2 7-1 6-1 7-1 8-2 17-2 9-1 19-4 10-2 27-8" style="clip-to-self:true;comp-op:src"/>
<path transform="scale(.1)" d="m8097.9 3459.8-2-4v-3l6-6 3-1 7-5 4-1 8-3 5-1 8-1 4 1 5 1 3 2 3 3 2 4 2 6 1 6-2 16-1 9-3 10-2 9-12 30-5 9-4 9-10 14-8 10-4 4-6 4-5 1-3-2-1-4 1-4 2-4 2-5 3-6 4-7 5-8 7-8 6-9 8-10 18-22 10-11 11-13 10-13 22-26 10-12 9-11 7-9 6-7 4-6 3-3v3l-3 4-4 6-4 8-5 9-6 10-6 11-6 12-7 12-6 12-6 13-10 26-4 12-6 22-2 10-1 9 1 8 1 6 3 6 4 4 5 3 6 2 7 1h8l18-2 9-3 9-4 8-4 19-12" style="clip-to-self:true;comp-op:src"/>
<path transform="scale(.1)" d="m8316.3 3228.3-2-4-2-3v-4l1-3 4-3 5-3 4-2 5-1 5-2 12-4 7-1 7-2 7-1 8-1 6-1h7 6l5 1 8 2 2 3 2 5-1 4-3 4-3 5-4 6-11 11-6 7-6 6-7 6-12 10-6 4-5 3-4 3-4 2-3 2-4 1 3 1 7-1h4l5-1h5 7 13 6 7l6 1 10 4 4 3 3 3 3 4 2 4v4 5l-4 10-6 10-5 4-4 4-5 4-6 4-6 3-5 3-7 2-6 2-6 1-7 1-6 1-22 1h-19-5-20" style="clip-to-self:true;comp-op:src"/>
<path transform="scale(.1)" d="m6343.2 4081.4 3-4 3-3 2-3 4-3 8-8 5-4 4-5 6-5 5-5 10-12 4-5 5-7 8-12 3-7 3-6 2-7 2-6 1-6v-6-6l-1-5-1-6-2-6-1-6-3-5-2-5-3-4-2-4-3-3-3-2-3-1h-6l-3 2-2 3-3 4-2 6-2 8-2 10-2 12-2 14-1 17-1 19-1 20-1 23v47l1 23v23 22l1 22v59l-1 18-1 17-1 15-1 13-2 12-2 11-2 9-2 7-3 7-3 6-6 6-9 3" style="clip-to-self:true;comp-op:src"/>
<path transform="scale(.1)" d="m6244.6 4292.7 1-4 1-3 4-10 3-4 4-4 4-5 5-5 6-5 14-12 7-7 8-6 9-7 9-6 10-7 11-6 11-7 24-12 13-5 12-6 12-5 22-10 22-13" style="clip-to-self:true;comp-op:src"/>
<path transform="scale(.1)" d="m6554.5 3997.8-3-4h-4l-5 3-2 3-3 3-10 20-10 22-5 14-5 15-6 16-15 48-6 30-2 14v14 13l1 13 2 12 3 11 4 10 10 16 12 10 7 3 7 1 7-1 7-2 18-8" style="clip-to-self:true;comp-op:src"/>
<path transform="scale(.1)" d="m6565.5 4178h5l8-2 12-2 16-4 8-1 8-3 9-2 7-3 28-14" style="clip-to-self:true;comp-op:src"/>
<path transform="scale(.1)" d="m6705.4 4100.4v-3l1-3 3-3 5-4 2-2 4-1 8-4 5-1 4-1 15-3h5l4 1 5 1 6 4 3 4 1 4 1 5 1 6-1 7-2 9-3 8-3 9-13 26-5 8-3 7-4 6-4 5-3 3-1 3-3 3 1-3 4-8 8-10 4-6 5-6 5-7 6-7 5-7 10-16 4-8 5-8 3-8 3-9 3-8 2-8 2-7 1-7v-5l1-4-1-3-4 3-2 4-2 5-2 6-3 7-3 8-3 9-2 9-2 10-1 10-2 10-1 19v8l1 9 1 7 2 7 2 6 3 6 11 11 5 1 4 1 5-1 4-1 10-9" style="clip-to-self:true;comp-op:src"/>
<path transform="scale(.1)" d="m6835.2 3973.7 4-2 5-2 4-1 4 1h4l5 2 5 1 12 6 6 4 5 5 6 7 5 8 5 9 3 11 4 14 2 14 1 17 1 16-1 18-1 17-2 17-3 16-3 15-4 14-5 13-4 11-4 10-4 8-4 7-4 6-3 4-3 3-3 2h-4l-3-4-1-4v-5l1-16" style="clip-to-self:true;comp-op:src"/>
<path transform="scale(.1)" d="m7012.4 4069.4 4-2 4-4 6-4 3-1 4-2 5-2 6-2 5-2 7-3 6-2 14-4h7l7-1h6l7 1h6 5l5 1 5 5" style="clip-to-self:true;comp-op:src"/>
<path transform="scale(.1)" d="m7046.9 4153 2 3 4-1 7-2 12-3 5-1 5-2h6l6-1 14-2 14-4 15-6" style="clip-to-self:true;comp-op:src"/>
<path transform="scale(.1)" d="m7385.1 4065.5-3-1-6-4 4-3 5-4 4-3 5-3 5-4 6-3 6-4 7-3 6-3 7-2 6-2 6-1h5 5l6 4 2 3 1 4 1 6-1 7-2 7-2 8-3 9-3 10-4 9-4 10-5 9-8 16-4 6-3 6-3 4-2 3-3 3-3 2 1-5 2-3 2-5 3-5 5-7 4-7 5-8 12-18 7-9 6-10 7-10 5-10 6-9 5-8 5-7 4-6 3-4 3-3 2-3-4 6-2 4-3 5-3 6-4 7-4 8-3 8-4 10-4 9-2 9-3 9-2 8-2 16 1 7 1 6 2 5 3 5 4 4 5 3 6 2 7 2h7l16-2 9-2 18-8" style="clip-to-self:true;comp-op:src"/>
<path transform="scale(.1)" d="m7266.8 4132.3h4l6-1 4-1 15-3 12-2h6l11-1 5-1 4-1h4l3-1 2-2" style="clip-to-self:true;comp-op:src"/>
<path transform="scale(.1)" d="m7267.7 3969.8-4-1h-8l-5 1-10 4-5 3-5 4-10 12-5 7-5 8-5 10-5 11-5 13-5 15-5 16-5 17-4 16-4 18-3 16-4 32v15 14l3 14 3 13 5 13 6 12 9 11 8 9 10 8 12 6 12 3 14 2h13l15-2 15-3 36-12" style="clip-to-self:true;comp-op:src"/>
<path transform="scale(.1)" d="m7567.1 3899.1 3-2 4-1 5 2 6 4 8 8 4 5 5 6 3 7 4 9 4 10 3 10 3 12 2 13 2 15 1 16 2 34-1 19-1 18-4 34-3 15-2 14-4 13-4 11-3 10-4 8-4 7-4 5-4 4-3 2-4 2-6-1-3-2-3-3-4-5-9-17" style="clip-to-self:true;comp-op:src"/>
<path transform="scale(.1)" d="m7627 3802.5-3-4-4-5-1-3 2-4 6-4 16-8 7-3 9-3 8-3 8-1 9-2 7-1h7 6l5 1 4 2 3 2 2 3v4 4l-2 5-4 5-4 6-5 6-6 6-14 12-14 10-7 4-6 4-5 4-4 3-4 2-3 2-4 6 2 3 6 1 5 2h5l21 3 8 1 6 2 7 2 6 2 5 2 5 4 3 3 2 3 1 4-1 5-2 4-3 4-4 5-5 4-12 8-14 6-21 6-6 1h-5l-5 1h-4-4-3l8-4" style="clip-to-self:true;comp-op:src"/>
<path transform="scale(.1)" d="m7682.1 4103.4-3-1 3-3 4-1 5-1 5-2 14-4 8-1 14-3 13-1h5l4-1h5" style="clip-to-self:true;comp-op:src"/>
<path transform="scale(.1)" d="m7676.3 4138.8h4l6-1h4l10-4 6-1 7-2 6-3 14-6 19-9" style="clip-to-self:true;comp-op:src"/>
<path transform="scale(.1)" d="m7981.4 4040.5-2-6 5-2 7-3 4-1 10-4 7-2 6-2 7-2 7-1 6-2h8l6-2 12-2 6-2 5-2 13-5" style="clip-to-self:true;comp-op:src"/>
<path transform="scale(.1)" d="m8164.4 4016.8-1-5 1-6 2-3 3-3 5-2 4-3 12-6 6-2 7-2 7-1 6-1 7 1h6l6 2 5 2 4 3 4 5 3 5 2 7 1 8-1 9-2 11-4 11-4 12-10 26-6 12-14 24-6 10-6 9-5 7-5 6-4 5-2 3-2 2 3-6 3-4 4-6 5-7 7-9 6-9 16-22 8-12 7-13 16-26 7-13 7-14 6-13 7-13 5-12 5-10 5-9 3-7 2-5 1-4-4 3-2 4-4 6-3 7-5 7-4 9-8 20-4 11-4 12-3 11-3 12-2 11-1 12-1 10 1 10 1 8 2 7 4 6 4 4 5 3 5 2 6 1h7l7-2 7-3 7-4 17-14" style="clip-to-self:true;comp-op:src"/>
<path transform="scale(.1)" d="m8299 3818.9-1-4-2-3-1-3v-3l1-6 5-4 10-4 6-3 14-4 7-1 7-2h7l7-1 12 2 5 1 3 2 3 3 2 8-1 5-3 6-2 6-5 6-5 7-5 6-6 6-18 15-10 8-5 3-2 3-3 3-2 3 4 3 3 1h12l16-2 9-1h9 18l8 1 6 1 5 2 4 2 3 3v4 4l-1 4-3 5-4 5-5 4-6 5-7 4-7 5-8 4-9 3-8 4-8 3-8 2-7 3-7 1h-6-5-4l-3-1-3-4 1-7" style="clip-to-self:true;comp-op:src"/>
<path transform="scale(.1)" d="m8433.2 4061.6 3-2 5-2 4-2h4l5-2 6-1 6-2 6-1 7-1 5-1 6-1h5 4l6-1" style="clip-to-self:true;comp-op:src"/>
<path transform="scale(.1)" d="m8415.9 4109 3 1 6-1 4-2 6-2 5-2 21-6 16-4 8-3 9-2 9-4 8-3 20-8" style="clip-to-self:true;comp-op:src"/>
<path transform="scale(.1)" d="m8596.5 4077.1 1-3 3-2 6-1 4-2 4-1 5-2 5-1 6-3 6-1 14-4 7-1 8-2 7-1 6-2 7-2 6-3 12-5" style="clip-to-self:true;comp-op:src"/>
<path transform="scale(.1)" d="m8807.7 3968.9 4-8 3-5 4-5 5-5 5-6 6-5 5-6 5-7 4-7 4-6 4-8 4-16 2-9 1-9v-9-10-9l-1-9-2-9-2-7-3-6-4-5-4-4-4-3-6-2h-5-6l-5 2-5 3-5 4-4 5-5 7-3 8-4 10-3 11-2 12-2 13-4 30-2 32-1 17-1 18v19 20l1 22 1 23 4 50 4 48 1 22 1 20 1 18 1 16v16l1 13-1 13v11 9l-1 8-1 6v5l-1 3-3 1-1-13" style="clip-to-self:true;comp-op:src"/>
<path transform="scale(.1)" d="m8702.9 4124.6 2-4 4-6 8-6 5-3 7-3 7-4 8-5 8-4 9-4 9-5 10-5 22-10 12-5 28-12 15-7 30-16 15-9 35-23" style="clip-to-self:true;comp-op:src"/>
<path transform="scale(.1)" d="m8998.9 3935.7-3-2-3-1-6 2-3 2-2 3-3 4-4 4-3 5-4 6-4 7-4 9-6 8-5 10-10 22-4 12-4 13-3 13-2 13-1 13 1 13 1 12 3 11 4 9 5 8 7 6 8 4 8 2 10 1 24-7" style="clip-to-self:true;comp-op:src"/>
<path transform="scale(.1)" d="m9065.9 4044.4-2-3v-3l2-4 2-2 3-2 5-3 22-11 7-1 6-2 6-1h5 6l10 2 4 2 3 3 2 3 2 4 1 5v6l-2 6-2 7-2 6-3 7-4 8-12 21-4 6-2 5-3 4-2 3-3 2-1-3 3-7 2-5 4-5 3-7 12-21 10-15 5-8 4-7 5-7 8-14 3-6 4-4 2-4 2-3-3 7-1 4-2 5-3 7-1 6-4 14-1 8-1 7v7l1 15 1 6 3 6 2 6 4 4 4 3 5 2h5 6l15-5" style="clip-to-self:true;comp-op:src"/>
<path transform="scale(.1)" d="m9223 3941.8 4 3 3 2 5 2 6 3 6 2 8 3 8 4 18 8 22 10 11 6 12 6 12 8 11 7 11 9 10 9 9 10 7 10 6 11 4 11 3 13 2 13v13l-2 14-3 14-5 14-6 14-8 14-10 13-11 12-13 12-14 10-14 9-15 9-38 15" style="clip-to-self:true;comp-op:src"/>
</g>
<g stroke="#00c0ff" stroke-width="14.1">
<path transform="scale(.1)" d="m6824.6 4805.7 3-7 2-6 4-9 3-8 2-10 3-8 1-7 2-8v-6-7l-1-5-2-5-4-8-4-3-4-2-5-2h-7l-7 1-8 3-9 4-11 5-12 7-24 20-13 12-12 14-11 14-10 14-9 14-8 13-6 12-4 12-3 11v10l1 9 4 9 5 8 8 7 8 6 11 7 12 5 14 4 14 5 15 4 16 3 15 4 13 3 13 4 12 4 10 4 9 4 6 5 5 5 3 5 2 6v5l-1 6-2 5-3 6-11 11-7 5-7 4-16 8-9 3-27 6-16 2h-8-18-4l-3-1-3-2 1-3 3-2 4-3 16-9" style="clip-to-self:true;comp-op:src"/>
<path transform="scale(.1)" d="m6939.1 4917.4v4l-2 6v4 4l-1 5v11 6 7l-1 6v51 4 6l-2-5" style="clip-to-self:true;comp-op:src"/>
<path transform="scale(.1)" d="m6938.6 4852.7v3l1 3 3 12 1 5 4 8 1 4 2 4 5 7" style="clip-to-self:true;comp-op:src"/>
<path transform="scale(.1)" d="m7062.7 4907.9-1 4-1 3-1 4-2 6-2 7-3 7-3 9-2 9-3 8-2 9-6 18-2 8-2 7-1 8-1 6-2 10v7l2-4 1-3 2-5 2-6 2-7 6-16 2-9 4-10 6-21 5-10 4-11 4-9 5-9 5-8 4-6 7-7 3-2h4l5 3 2 4 2 5 2 6 1 8 1 10v21l-1 12v12l-1 12v23l1 10 1 9 1 8 2 7 2 5 3 4 6 2 4-2 10-10" style="clip-to-self:true;comp-op:src"/>
<path transform="scale(.1)" d="m7298.4 4813.5-3-1-5 3-4 3-3 4-4 4-5 6-4 6-10 16-5 9-8 20-6 22-2 12v11 12l2 11 3 12 10 20 6 9 7 8 8 6 9 5 10 3 10 2 25 1" style="clip-to-self:true;comp-op:src"/>
<path transform="scale(.1)" d="m7399.9 4919.1 4 1h5l7 1h11l6-1h7l16-4 9-2 8-3 20-9" style="clip-to-self:true;comp-op:src"/>
<path transform="scale(.1)" d="m7542.7 4853.6 2-4 2-2 4-2h6 5l5 2 2 3 2 2 2 4 1 4 1 5v7l-1 6v7l-4 14-1 7-2 6-2 7-4 10-2 4-2 5-2 2v-4l1-6 2-4 2-5 4-5 3-7 8-12 10-14 4-7 5-7 9-16 3-7 4-6 3-6 2-5 4-7-1 4-1 3-2 5-1 5-3 5-2 7-2 6-3 8-1 7-2 7-2 8-2 7v8l-1 7 1 7 2 12 3 4 3 5 3 3 5 2 5 1h5l6-1 6-3 15-11" style="clip-to-self:true;comp-op:src"/>
<path transform="scale(.1)" d="m7661 4738.5-2-2-1-3h4l10 5 3 3 5 4 5 5 5 6 6 6 6 8 6 9 7 9 6 10 6 11 5 11 5 12 4 13 2 12 2 13 1 13 1 14-1 13-4 24-3 11-8 20-4 8-5 6-4 6-4 4-8 6h-3l-4 1-6-2-2-2-1-4-1-5 1-6 6-17" style="clip-to-self:true;comp-op:src"/>
<path transform="scale(.1)" d="m7858.8 4863.5 4-1 3-1 3-2 4-2 5-3 7-2 7-3 9-3 9-2 18-6 8-2 9-1h8 7 7l6 1 5 1 3 2v9" style="clip-to-self:true;comp-op:src"/>
<path transform="scale(.1)" d="m7855 4926-3 2 3 1h4l8-2 12-2 6-2 8-1 16-4 18-2 9-2 10-2 9-2 19-7" style="clip-to-self:true;comp-op:src"/>
<path transform="scale(.1)" d="m8108.9 4877.3h12 3 9l5-1h6l6-1h5l7-1h5l12-2 6-2 5-3 14-7" style="clip-to-self:true;comp-op:src"/>
<path transform="scale(.1)" d="m8474.3 4755.7 5-8 4-9 7-11 5-12 10-22 7-19 3-9 2-9 1-8v-7l-1-6-4-5-4-4-6-3-8-2h-8-10l-10 2-11 3-12 4-12 6-13 6-12 8-13 9-12 9-11 11-10 12-8 12-7 13-5 12-4 13-2 14 2 24 4 11 5 11 7 10 8 9 9 8 10 8 22 14 12 6 11 6 10 7 10 5 8 6 12 12 4 5 2 6v6l-2 7-3 5-5 6-7 6-8 6-9 5-10 6-11 5-10 4-11 5-20 6-9 2-8 2-7 1-5 1h-4l-3-1-1-3 2-3 5-3 5-4 7-6 23-16" style="clip-to-self:true;comp-op:src"/>
<path transform="scale(.1)" d="m8566.3 4868.7-2 4-1 3-1 6v4 4l2 4 1 4 2 5 2 4 3 4 2 4 1 5 6 12 1 4 2 4 2 7 2 5" style="clip-to-self:true;comp-op:src"/>
<path transform="scale(.1)" d="m8584.5 4800.1-2-2 2 4 3 2 9 9" style="clip-to-self:true;comp-op:src"/>
<path transform="scale(.1)" d="m8634.8 4875.5v12 4l1 4 4 20v5l1 5 1 4 1 5v4l3 9-1-6v-3l-1-5v-10l1-7 1-6 1-7 4-14 3-8 3-7 5-7 4-7 5-6 10-10 5-3 4-2 5-1 4 1 3 1 4 3 3 3 3 4 3 5 2 5 2 6 2 14v8 8l-1 9-1 8-1 9-4 16-1 8-1 6v5 3l6 1" style="clip-to-self:true;comp-op:src"/>
<path transform="scale(.1)" d="m8842.7 4735.9-1-6-1-4v-4l-1-4-2-6-2-5-2-4-3-3-4-1-4 1-3 1-7 7-4 5-4 7-10 18-6 10-10 24-6 12-4 12-8 26-3 12-2 12-1 11v11l1 11 1 9 3 10 8 16 5 7 6 6 7 5 6 5 8 3 7 4 14 4 6 2 6 1h5l12-3" style="clip-to-self:true;comp-op:src"/>
<path transform="scale(.1)" d="m8918.4 4833.8v-4l1-4 3-3 5-4 3-1 4-2 9-2 9-1h5 5l4 2 4 1 4 3 3 4 2 4 2 5v6 7l-1 6-1 7-2 8-3 7-2 7-3 8-4 6-3 6-3 5-4 4-4 3-3 3-3 2h-3-5l-4-3-2-5 1-3 2-8 6-10 3-6 8-12 5-7 5-6 4-7 5-7 4-8 5-7 5-8 12-21 3-5 2-4 3-4 1 5-2 10-1 6-2 6-2 7-2 8-1 7-2 7-2 8-2 7-1 6v7l-1 6v5l2 10 1 3 2 4 2 2 5 4h3l6 1 4-3 3-2 4-9" style="clip-to-self:true;comp-op:src"/>
<path transform="scale(.1)" d="m9107.6 4690.2 4-1 5 1 4 1 3 2 5 2 5 3 6 3 12 8 7 4 7 5 7 6 6 6 7 8 6 8 6 9 5 10 5 11 4 11 2 12 2 11 1 12-2 24-3 11-3 12-4 11-5 11-5 10-5 9-6 9-6 8-5 7-5 6-5 5-5 3-4 3-4 2h-4l-3-1-4-2-7-8" style="clip-to-self:true;comp-op:src"/>
</g>
</g>
</g>
</svg>
