<?xml version="1.0" encoding="UTF-8"?>
<svg width="1e3pt" height="700pt" version="1.2" viewBox="0 0 1e3 700" xmlns="http://www.w3.org/2000/svg">
<g id="surface30">
<rect width="1e3" height="700" fill="#2e3436"/>
<g fill="none" stroke-linecap="round" stroke-linejoin="round" stroke-miterlimit="10">
<g stroke="#fff">
<g stroke-width="14.1">
<path transform="scale(.1)" d="m4283.8 459.92-1-3v-3l-1-4-1-3v-3l-1-4v7 6l-1 7-1 10-1 11-1 14-2 15-1 17-2 17-1 19-2 20-3 39-1 20-2 19-1 17-1 16v15l-1 12 1 10v7l2 6 1 4 4 3 2-4 4-12" style="clip-to-self:true;comp-op:src"/>
<path transform="scale(.1)" d="m4124.3 639.69 1-4 3-5 3-3 4-3 6-3 7-3 8-3 10-4 11-4 12-5 14-4 14-5 30-10 16-5 17-5 16-5 17-5 16-5 28-6 12-2 10-1 8-1h7l6 1h4l5 6" style="clip-to-self:true;comp-op:src"/>
<path transform="scale(.1)" d="m4510.9 619.84 2-4 2-3 1-4v-4l-2-4-2-2-4-2-5-2-6-1h-6l-7 1-9 2-8 3-9 4-10 5-9 6-9 7-9 9-8 9-14 20-6 11-4 11-4 10-3 10-2 10-1 9v9l1 7 1 6 2 4 4 3 5 1h5l7-1 7-3 8-5 18-12 20-16 10-9 9-10 10-10 9-10 8-9 6-10 7-9 5-8 4-7 3-7 3-5 1-4 2-4v4l-1 3v5l-1 5v7l-1 8v15l2 16 1 7 2 8 2 7 2 6 3 6 8 10 3 3 5 2h4l4-1 9-7" style="clip-to-self:true;comp-op:src"/>
<path transform="scale(.1)" d="m4601.4 612.97 1 3 1 6v4l1 5v6 6l1 6v36 7l2 14 3 18 1 5 2 3 2 5h4l2-5 2-8 1-5 2-6 1-6 2-7 4-16 6-18 3-10 4-10 4-11 5-10 4-11 6-9 10-14 4-4 5-3 4-2 5 1 3 2 4 8 1 6 4 14 1 9 2 8 2 18 2 9v9l2 8 1 8 2 8 2 7 2 6 1 6 2 4 1 3 2 4" style="clip-to-self:true;comp-op:src"/>
<path transform="scale(.1)" d="m4952.5 500.43v-12-7l-1-7-1-5-2-4-5-3-6 2-4 3-11 11-6 9-7 10-8 12-9 14-9 15-10 16-9 16-8 18-7 16-6 17-5 17-2 16-2 15v14l2 12 3 12 4 9 6 7 7 6 8 4 9 3 10 1 11-1 11-2 12-4 12-5 28-15" style="clip-to-self:true;comp-op:src"/>
<path transform="scale(.1)" d="m5023.4 594.41-1-3 3-3 4-2 3-1 2-1h4l4-1h7l5 1h4l4 1 4 2 6 6 3 4 2 4 1 5 1 6-1 6v7l-2 7-2 8-3 7-4 8-3 7-4 7-6 10-2 4-3 3-2 4v-4l2-3 3-5 3-4 4-6 5-8 5-7 12-18 7-9 6-10 7-10 12-20 7-11 12-18 5-8 4-6 4-5 2-3 3-2v3l-1 3-1 5-2 6-2 7-2 8-3 9-3 10-6 21-3 11-2 11-2 10-1 10v9 9l2 7 1 7 4 6 8 8 6 3 5 2h7 6l7-1 21-8" style="clip-to-self:true;comp-op:src"/>
<path transform="scale(.1)" d="m5321.3 632.34-3-1-2-1-4-1-3-2-4-3-2-2 3-3 12-3 5-1 6-1h7l7-1h35l8 1h9l14 2h7 6l10 2h3l5 1" style="clip-to-self:true;comp-op:src"/>
<path transform="scale(.1)" d="m5366.4 572.42-6-6-2-3 3 4 2 5v3l1 4 1 5 2 12 1 7 4 36 1 10 1 9v9l1 8v8 7l1 6v4l2 9" style="clip-to-self:true;comp-op:src"/>
<path transform="scale(.1)" d="m5524.5 559.92-2 2-1 3v4l-1 4v6l-1 5v7l-1 7v7 8 8l1 7 1 8 2 7 6 12 3 5 4 5 5 3 6 3 5 1h6 6l14-4 6-4 7-4 6-5 12-12 6-7 4-7 5-7 3-8 3-7 2-7 1-6 1-5v-5l-1-4v-3l-2-3-3 3-2 7-1 4-1 6-2 7-1 8-2 9-1 9-2 22v11 25l-1 13v15 15l-1 15-1 16-2 16-2 14-3 14-2 12-3 11-3 9-6 14-3 5-4 4-4 3-10 2h-5l-6-2-10-5-10-8-5-6-5-7-4-7-4-8-3-8-2-8-1-9-1-8 1-8 1-7 2-8 4-7 4-8 6-7 7-7 8-7 9-7 20-14 11-7 25-16" style="clip-to-self:true;comp-op:src"/>
<path transform="scale(.1)" d="m5740 474.57v-17-6l2-10 1-3 3-5 4-1 6 1 4 3 9 9 5 6 6 7 6 9 6 10 6 11 7 13 6 13 6 14 5 15 5 16 4 17 3 17 2 18 1 17v18l-1 17-2 17-3 16-4 15-6 15-6 14-8 13-18 24-22 22-11 9-12 8-13 6-31 13" style="clip-to-self:true;comp-op:src"/>
</g>
<path d="m428.14 92.379h149.98" stroke-width="1.41" style="clip-to-self:true;comp-op:src"/>
<g stroke-width="14.1">
<path transform="scale(.1)" d="m949.06 1653.4 2-8 2 4 1 4v6 13l1 8-1 11v11 12l-1 13-1 15-1 16v16l-1 18-1 17-1 16-2 16-1 15-2 14-1 13-1 12-1 11-1 9v8l-1 8-1 5-1 4v4l-1 3-3-10" style="clip-to-self:true;comp-op:src"/>
<path transform="scale(.1)" d="m816.72 1827.9 2-4 1-4 12-15 5-5 6-5 7-5 8-4 18-10 11-6 10-5 12-5 11-5 12-4 11-4 12-4 11-3 22-2 9-1h9l8 1 6 2 5 2 4 4 5 10" style="clip-to-self:true;comp-op:src"/>
<path transform="scale(.1)" d="m1102.5 1814 2-5 3-5 3-6 2-6 2-10v-4l-2-5-2-2-6-1h-3-4l-4 2-5 3-5 4-5 6-7 7-6 8-5 10-6 10-5 10-5 11-4 10-3 10-2 10-2 8v8 8l1 7 1 6 6 8 3 2 5 2h5l5-1 6-2 6-3 7-4 7-5 14-12 6-7 7-7 6-8 15-24 3-8 4-8 2-7 3-7 1-6 2-8v-3l-2 6-2 4-1 5-1 7-1 6-2 16-1 9v17 8l3 15 2 7 3 6 3 5 7 7 5 1h4l5-1 12-7" style="clip-to-self:true;comp-op:src"/>
<path transform="scale(.1)" d="m1230.7 1807.6-4-1-4 6-3 12-1 5v6l-1 5v12l3 18 3 11 2 5 1 5 2 4 8 8h4l3-3 3-5 1-4 1-5 2-5 1-6 2-5 2-7 1-7 6-24 9-24 8-12 3-5 4-4 4-3 3-2h6l3 1 2 3 3 3 3 4 1 5 4 14 2 8v9l2 8 1 10v9l3 27 2 7 1 7 2 6 3 5 2 3 3 3" style="clip-to-self:true;comp-op:src"/>
<path transform="scale(.1)" d="m1620.7 1680.1-2-3-3-5-3-2-6-2h-3l-4 1-4 3-5 3-6 5-14 14-7 8-9 11-8 13-10 13-9 15-8 16-9 17-8 18-14 38-5 20-5 19-4 20-3 20-1 20v19l1 17 2 15 2 12 4 10 4 7 5 6 6 4 7 1 8 1 9-2 10-3 11-4 12-6 12-8 12-9 29-26" style="clip-to-self:true;comp-op:src"/>
<path transform="scale(.1)" d="m1659.2 1797.9-2-3-1-5v-5l3-4 5-5 4-3 3-2 5-2 4-2 15-3h6l10 2 6 2 5 2 4 3 5 4 3 5 2 7 2 8 1 9v10 10l-1 12-2 11-6 23-3 11-3 10-6 16-3 7-3 5-3 4-2 3-4 3-2-3 1-7 2-5 2-6 11-22 6-9 5-8 6-10 7-11 7-10 7-11 23-34 7-11 7-9 6-9 5-6 8-8 4-1v3l-2 4-2 5-3 6-2 6-4 7-9 24-2 8-3 8-2 14v6l1 6 1 5 3 5 2 4 3 3 4 3 4 2 4 1h6l10-2 6-3 16-7" style="clip-to-self:true;comp-op:src"/>
<path transform="scale(.1)" d="m1871.4 1834.7 4 1 6-1h4l7-1 6-1 8-1 8-2 9-1 10-1 10-2 11-2 10-2 11-1 10-2 11-1 9-2 9-1 8-1 7-1 6-1 5-1 4-1 3-2 3-6" style="clip-to-self:true;comp-op:src"/>
<path transform="scale(.1)" d="m1986.9 1752.3-3-4-4-5-3-2-2 2v80l1 10 1 9v9l1 9 4 16 2 7 3 6 3 5 4 3 4 2h4l11-4" style="clip-to-self:true;comp-op:src"/>
<path transform="scale(.1)" d="m2173.7 1728.6-3 1-3 4-3 9-1 5-1 4-1 5v5 12 6l2 7 2 6 2 7 7 13 4 5 10 10 6 3 6 2 7 2h7 8l7-2 8-1 16-6 7-4 8-5 7-5 6-5 6-6 10-12 6-14 4-14 1-7 1-6v-13l-1-3-3 3-2 3-2 5-1 5-2 7-4 16-1 10-2 10-1 11v12l-1 11-1 13-1 12v12l-5 60-2 12-2 11-2 12-2 11-3 10-8 16-4 6-5 5-5 4-5 3-6 3-6 1-5 1-6 1-7-1-6-1-7-2-6-3-5-4-12-14" style="clip-to-self:true;comp-op:src"/>
<path transform="scale(.1)" d="m2412.6 1701.6v-4l3-3h5l3 1 8 2 10 4 5 4 6 4 12 12 6 8 10 18 3 11 4 12 2 12 2 26-1 14-1 13-3 14-4 13-10 26-6 12-7 12-7 11-7 10-14 18-19 19-6 3-4 3-4 2h-4l-3-4-1-4 3-16" style="clip-to-self:true;comp-op:src"/>
<path transform="scale(.1)" d="m2609.3 1800.9-2 2 6 2h8l6-1 14-2 9-2 9-1 9-2 10-2 10-1 18-2h9 8 7l6 1 5 1 3 1 2 6" style="clip-to-self:true;comp-op:src"/>
<path transform="scale(.1)" d="m2620.5 1891.7 4 1h4l6-1 7-1 7-2 9-2 9-3 9-2 11-3 10-2 21-4 10-2 11-2 18-4 19-5" style="clip-to-self:true;comp-op:src"/>
<path transform="scale(.1)" d="m3313.3 1548.7 3-5 2-4 4-5 3-6 2-6 3-5 3-10 2-8v-8l-1-3-1-4-1-2-5-4-6-1-4 1-5 1-5 2-6 3-7 3-7 4-7 5-8 6-14 12-7 7-7 8-6 7-10 16-4 8-4 16-1 8 1 8 2 8 2 7 3 7 5 7 4 7 5 6 7 6 7 5 7 6 7 5 16 10 14 10 6 5 5 5 4 6 3 5 1 6v6l-1 6-6 12-10 12-6 6-7 6-16 10-7 5-8 3-16 8-7 3-8 2-6 3-7 2-6 1-5 1-6 1h-4-3l-3-2-2-4 3-9" style="clip-to-self:true;comp-op:src"/>
<path transform="scale(.1)" d="m3405.8 1620.9-3 4-2 6-2 5-1 5-4 12-6 21-2 15-1 7-1 6-1 8-2 13-1 6v11l1 4v3l2 5 3-1 3-11" style="clip-to-self:true;comp-op:src"/>
<path transform="scale(.1)" d="m3422.2 1582.9-1-3 3 2 1 3 2 5 1 5 1 4 1 6" style="clip-to-self:true;comp-op:src"/>
<path transform="scale(.1)" d="m3479.9 1642.5v4 4l-1 6v4l-4 20-1 6-2 5-1 5-2 5-4 8-1 4-2 3-2 5-2 3-3-1 1-4 1-6 3-5 5-10 8-12 5-7 5-8 12-16 13-19 7-9 7-8 6-8 7-7 6-5 6-3 5-3 5-1h4l3 1 4 3 2 4 1 5 2 7v7 9l-4 36-2 9-2 8-1 9-1 7-2 7v6 5 4l2 4 5-4 8-8" style="clip-to-self:true;comp-op:src"/>
<path transform="scale(.1)" d="m3749.3 1608.7-5-1-6-2-5-3-2-2v-4l1-6 3-3 6-8 5-4 5-5 6-4 14-8 8-4 16-6 8-2 7-1h7 6l5 1 4 2 4 3 2 3 2 6v5l-2 16-2 10-4 10-8 23-10 22-6 10-5 10-4 7-5 7-3 5-3 4-2 3-3 4 2-5 3-3 3-5 4-5 5-6 5-7 6-7 7-9 6-9 8-9 7-10 8-11 7-10 8-11 8-10 7-10 6-8 5-7 4-5 3-5 2-3-3 6-2 5-3 7-4 7-8 18-4 10-3 10-4 10-3 11-1 10-2 10-1 9 2 16 2 6 3 6 4 4 5 3 5 1 7 1h7l7-1 8-2 8-4 8-5 21-12" style="clip-to-self:true;comp-op:src"/>
<path transform="scale(.1)" d="m3970.9 1609.5 3-2 3-1h6 3 5 4l6-1h7l6-1 8-1 9-1 8-2 18-2 10-2 9-1 16-3 7-1 6-1h5l5-1 3-1 5-1" style="clip-to-self:true;comp-op:src"/>
<path transform="scale(.1)" d="m4054.9 1491.2-1-4-1-5-2-3-1 5v4l-1 5-2 7-1 8-2 9-1 12-3 12-2 14-4 32-1 17-2 17v16 43 11l2 11 1 10 2 8 3 7 3 5 4 5 8 6h5l5-1 5-3 11-11" style="clip-to-self:true;comp-op:src"/>
<path transform="scale(.1)" d="m4204.6 1500.9v-4 6 5l-1 5v7l-2 14v7l1 8v8l3 16 2 7 3 8 3 6 4 6 8 8 5 2 4 1h4l5-2 4-2 5-3 8-10 3-5 3-7 6-21 1-8v-7l1-7v-6-18l1 5v5 5l1 7v8l2 20v12l1 12 2 26 2 14v13l2 26 2 24v11 21l-1 8-1 9-2 8-8 14-4 6-6 6-6 4-7 4-20 7" style="clip-to-self:true;comp-op:src"/>
<path transform="scale(.1)" d="m3846.5 1445.2-6-1-3 1-5 1-4 1-5 2-4 3-4 5-11 11-5 8-6 10-6 11-6 12-6 14-7 16-6 17-6 18-5 19-5 18-3 19-3 18-2 16-1 16 1 15 1 13 3 13 4 12 6 11 7 11 8 10 18 18 12 8 11 7 13 5 13 4 13 3 14 1 14-1 35-6" style="clip-to-self:true;comp-op:src"/>
<path transform="scale(.1)" d="m4340.8 1401.7 4-2h7l10 2 6 1 6 2 7 2 6 3 6 4 6 5 6 7 5 8 4 9 4 11 3 12 1 14 1 15-1 17-1 18-2 19-4 20-3 22-10 40-6 20-5 18-7 18-6 17-6 15-7 13-7 12-6 10-7 8-6 7-5 5-6 5-6 4-6 3-6 2-7 1-16-1" style="clip-to-self:true;comp-op:src"/>
<path transform="scale(.1)" d="m3131.6 1992.2-4 1-5 1h-5l-8-2-3-2 5-2 10-2 8-1 11-2 12-2 16-2 18-3 21-4 25-4 28-4 31-6 34-5 36-6 38-5 40-6 42-7 44-6 47-7 48-6 50-6 51-6 50-5 51-4 49-4 50-3 94-4 44-2 42-1 39-1 35-2 34-1h30l27-1 24-1 21-1 18-1h15l13-1h25l-3 2-9 2-3 1h-5l-4 2-6 1-12 5" style="clip-to-self:true;comp-op:src"/>
<path transform="scale(.1)" d="m3360.2 2168.4-4 2-3 1-4 3-9 9-6 7-5 9-6 10-6 11-7 12-7 13-6 13-12 28-5 14-3 14-3 13-2 12v11 10l2 9 2 8 4 6 4 5 5 3 6 3 5 1h6l7-1 21-9 8-5 9-6 8-6 8-7 8-8 14-16 6-8 6-9 5-8 4-7 4-5 3-5 2-3 3-2 3 5v5l1 5v7l2 14 1 8 4 16 3 6 4 6 3 5 5 5 5 3 6 2 6 1h7l7-1 7-2 14-6 12-10 6-6 5-7 4-7 4-8 4-18 1-9-2-18-2-9-3-8-3-9-4-7-4-6-4-5-8-6h-5-5l-5 2-5 3-5 4-5 5-5 6-4 7-3 7-2 7-1 8v7l1 7 2 5 3 6 4 5 4 3 5 2 15 2" style="clip-to-self:true;comp-op:src"/>
<path transform="scale(.1)" d="m3587 2248.2 2-3 2-4 2-3 1-4 1-5-2-2-5 1-2 3-2 4v4 3 5l1 4 1 5 2 6 6 12 2 5 4 7 3 6 3 7 7 13 6 14 5 13 1 13v6l-1 6-1 5-3 6-3 4-5 4-4 4-5 4-6 3-5 2-6 1-5 1-4 1h-5l-5-1-4-1-4-2-4-3-6-10" style="clip-to-self:true;comp-op:src"/>
<path transform="scale(.1)" d="m3868.6 2139.7-1-5-1-4-4-8-2-2-3-2h-6l-6 4-5 3-4 5-6 5-5 7-6 9-6 10-7 11-6 13-7 13-7 15-6 14-10 32-4 17-3 17-2 18-1 17v16l1 14 1 13 4 12 5 10 6 8 8 6 8 5 11 2h11l12-2 34-10" style="clip-to-self:true;comp-op:src"/>
<path transform="scale(.1)" d="m3925.4 2248.2-2-2-1-3 1-4 8-8 15-9 6-3 5-3 6-2 6-1 6-2h6l5 1 6 1 5 2 4 3 3 4 3 5 1 6 1 7v8l-1 9-2 9-3 9-6 20-4 9-3 9-3 8-3 6-2 5-2 4-3 3v-4l2-4 2-6 3-7 4-8 4-9 11-20 5-10 18-30 10-16 4-7 4-5 2-4 3-4 3-3 1 4-1 3v4l-1 5-1 7-1 6v8 7 8l3 14 6 14 4 6 5 5 6 5 6 3 7 3 8 1 16-2 9-3 22-10" style="clip-to-self:true;comp-op:src"/>
<path transform="scale(.1)" d="m4137.1 2256.7-2 2 3 1 6 1h9l12-2 7-1 8-2 8-1 36-8 8-3 8-2 6-2 6-3 8-6 4-7" style="clip-to-self:true;comp-op:src"/>
<path transform="scale(.1)" d="m4216.8 2177.3h-3l-5-1-3 2-2 5v3l-1 4v9l1 5 2 12 2 14 4 16 2 9 5 28 3 9 1 8 3 8 2 6 9 10" style="clip-to-self:true;comp-op:src"/>
<path transform="scale(.1)" d="m4347.3 2164.2 1 5v32l1 6 2 10 2 5 2 4 6 8 4 4 8 4 5 1h5l6-1 6-2 5-3 12-8 10-10 4-6 3-6 4-6 4-14v-6l1-7v-11-4l-1-4-2-4-3 3-1 7v5 6l1 7 4 14 1 8 6 18 3 10 4 10 3 10 4 11 3 11 2 12 3 12 2 12 1 11v12 12 11l-1 11-6 18-4 7-5 6-5 5-6 5-6 3-7 2-7 3-7 1-8 1h-7l-7-1-7-2-7-3-11-11" style="clip-to-self:true;comp-op:src"/>
<path transform="scale(.1)" d="m4501.3 2113.5 6-4h6l4 1 4 2 5 2 6 3 12 10 7 6 7 8 6 9 7 10 12 24 6 14 4 15 5 16 3 16 3 18 2 19v19 19 20l-2 19-3 19-4 17-5 17-5 14-6 13-7 11-7 9-7 7-7 6-7 4-8 4-7 2-7 1h-6l-7-2-7-3-6-5-17-19" style="clip-to-self:true;comp-op:src"/>
<path transform="scale(.1)" d="m4660.9 1793.3 1-3 3-3 4-3 10-2 6-2 7-1 8-2 10-1 10-2 10-1 11-1 30-3h10 8 7l6 1 8 4 2 2v4l-1 4-3 5-11 11-8 6-24 16" style="clip-to-self:true;comp-op:src"/>
<path transform="scale(.1)" d="m4667.9 1866.8 1 3 6 1 8-2 6-1 7-2 9-3 8-3 11-2 12-4 12-3 12-4 14-3 13-3 24-6 11-3 9-2 7-3 13-5" style="clip-to-self:true;comp-op:src"/>
<path transform="scale(.1)" d="m5314.7 1525.4 3-8 4-8 10-24 4-12 5-12 4-12 4-11 3-12 3-11 4-24 1-12 1-11-1-12-1-10-3-9-2-9-4-7-4-5-5-4-7-3-6-1-8 2-8 3-9 5-10 6-10 8-11 10-9 11-10 12-9 12-8 13-7 14-5 13-4 14-2 13-1 14 1 13 3 12 4 12 6 11 6 10 8 9 18 18 20 16 19 17 8 8 8 9 6 10 5 9 4 10 4 9 2 9v9 8l-2 8-8 14-4 6-6 5-12 8-5 2-6 2-4 1h-4l-4-1-4-5v-5-6l2-9 10-26" style="clip-to-self:true;comp-op:src"/>
<path transform="scale(.1)" d="m5401.1 1508.6 4 1 3 4-1 3-2 10-2 6-1 6-2 13-1 8-1 7v7l-1 7v7 15 7l1 7 2 12 2 5 1 4 2 4 2 2 4 2 5-3 2-3 2-6 5-17" style="clip-to-self:true;comp-op:src"/>
<path transform="scale(.1)" d="m5431.1 1474.3-1-3-2-3-1 3 2 4 1 3 3 6 1 3 10 10 4 6" style="clip-to-self:true;comp-op:src"/>
<path transform="scale(.1)" d="m5499.6 1534.3-1 3 1 5 1 7v18l-1 6v6l-1 12-1 7v7l-1 6v6 6l-1 4v5l-1-4v-16-6l2-16 1-9 4-18 4-9 3-9 10-16 10-12 5-4 6-3 5-2 4-2h5l4 1 8 4 3 4 2 5 2 6 2 14 1 8 1 9v9 9 27l1 8 1 7v5l2 8" style="clip-to-self:true;comp-op:src"/>
<path transform="scale(.1)" d="m5725.4 1553.8-2-5-2-8v-4l1-4 2-5 3-5 4-5 10-10 6-5 7-4 7-3 6-3 7-1 6-1h6l5 1 4 2 4 3 3 5 2 5 2 7v7 8l-2 9-4 20-4 10-8 22-5 10-4 10-5 9-8 14-6 8-3 2-3 1v-5-4l2-6 2-8 4-9 4-11 4-10 6-11 5-10 12-22 7-12 7-11 6-11 7-10 6-10 5-8 6-8 3-5 4-5 2-3v5l-2 4-3 5-2 6-2 7-3 8-3 7-1 9-2 8-4 18v19 10l1 9 2 10 6 18 10 16 6 6 7 6 7 3 8 3 8 1h8l21-3" style="clip-to-self:true;comp-op:src"/>
<path transform="scale(.1)" d="m6151.1 1404.6 2-5 1-3 1-5-1-4-4 1-4 2-14 14-6 7-7 8-6 10-14 22-12 26-5 13-5 14-8 28-6 28-1 14-1 13 1 11 2 10 3 9 3 8 10 10 6 3h6 6l7-2 8-4 8-5 9-7 8-7 16-18 7-10 6-9 5-10 4-9 4-10 3-9 4-16 1-6 1-5v-3l-3 3-1 4-1 5-1 6v6 8 7l1 7 2 8 6 14 4 5 4 6 6 5 6 4 7 2 8 2 9 1 8-1 9-1 9-2 9-3 9-4 8-4 7-5 6-5 6-6 4-6 3-6 2-12-2-14-3-6-4-7-5-6-5-4-6-4-6-3-6-2h-8l-7 1-8 1-8 3-8 4-14 10-5 5-4 5-3 4v5 3l2 3 4 3 4 1 6 1h15" style="clip-to-self:true;comp-op:src"/>
<path transform="scale(.1)" d="m6396.6 1465.9-5-1h-5l-3 2-4 4-3 5-2 6-1 7 1 4 1 5 1 4 2 5 3 5 3 6 4 5 4 6 5 6 4 6 10 12 8 12 6 12 2 5 1 6-2 10-3 5-3 4-5 4-6 4-6 3-7 2-7 1-8 1h-7l-14-2-6-3-10-10-4-6-6-17" style="clip-to-self:true;comp-op:src"/>
<path transform="scale(.1)" d="m6584.8 1389v-5l-1-5v-11-5-7 10l-1 6-1 7-1 8-2 10-2 11-1 11-2 13-1 12-1 13-1 12v11l1 11 1 10 2 8 3 8 3 5 4 5 5 2 6 2h6 6l6-3 7-2 6-4 12-10 5-6 6-7 4-7 5-8 3-9 4-8 3-9 3-8 2-7 1-6 1-5 1-3v-3 45l1 11v11l1 11 1 13v12l1 28v15l-1 16-2 30-3 15-2 14-3 13-3 12-10 22-6 9-7 9-7 7-8 6-8 4-7 3-8 3-7 1-6 1-12-2-6-2-6-3-6-5-5-6-10-19" style="clip-to-self:true;comp-op:src"/>
<path transform="scale(.1)" d="m6822.3 1579.1 2-4 15-3 6-1 14-2 8-1 8-2 9-1 8-2 9-2 8-1 8-2 8-1 8-2 7-1 12-4 5-1 4-2 3-2 2-2v-5" style="clip-to-self:true;comp-op:src"/>
<path transform="scale(.1)" d="m6916.2 1477.7-2-10 2 5v25l-1 10v10l-1 11-1 12-1 13v14l-1 14v14 29 13l1 13 2 11 3 11 2 10 4 8 4 7 3 5 5 4 13 2" style="clip-to-self:true;comp-op:src"/>
<path transform="scale(.1)" d="m7229.3 1398.7v-5-5l-1-5-2-5-4-6-4-1-6 2-2 3-4 4-4 7-5 9-5 10-5 12-5 13-4 14-4 15-2 15-2 14-1 14v14l2 13 2 12 3 10 4 10 10 16 6 6 5 4 6 3 6 2h6 7l5-1 6-2 10-8 5-5 4-6 3-6 4-6 4-14 1-7 2-12v-5l1-5v-8l1 6v5l1 5 2 5 4 12 4 6 3 5 9 10 5 5 5 3 12 6 6 2 6 1h6 6 6l6-2 4-2 5-2 7-7 2-3 3-12-1-5-1-10-2-5-3-6-2-5-6-12-3-5-6-8-2-3-3-2-6-1-6 2-6 6-2 3-6 12v4 4 4l4 6 6 4 4 1 13-1" style="clip-to-self:true;comp-op:src"/>
<path transform="scale(.1)" d="m7497.3 1438.4 2-3-2-4-6-1-4 1-5 1-6 3-5 2-6 4-6 3-7 4-6 5-5 4-6 5-4 5-5 5-2 5-3 6-1 5-1 6v6l2 5 2 6 2 5 4 5 5 4 5 5 6 5 21 12 16 8 7 5 7 3 6 5 5 3 3 4 2 4 1 3-1 4-7 7-5 3-7 4-7 3-16 6-8 2-8 1-7 1h-14l-10-2-4-2-3-4-2-4-1-5 2-14" style="clip-to-self:true;comp-op:src"/>
<path transform="scale(.1)" d="m7585.5 1500.1v-5-4l1-4 2-3 7-7 4-3 10-6 12-4 5-1h6 5l5 2 4 2 4 3 3 3 2 5 2 6 1 6 1 8-1 7-4 16-3 9-3 8-3 7-4 7-2 5-3 5-4 8 2-6 3-5 3-7 5-7 5-8 6-9 7-9 28-40 12-20 6-9 5-8 4-6 3-5 4-6-2 5-1 4-3 6-3 7-4 8-4 9-3 10-5 10-3 11-3 10-4 20-1 11 2 18 2 9 4 7 5 7 6 4 6 3 8 1 22-3" style="clip-to-self:true;comp-op:src"/>
<path transform="scale(.1)" d="m7993.9 1395.4 1-3 4-6 4-10 7-13 12-26 4-12 5-11 3-9 2-8 1-6v-6l-2-4-2-3-3-1-4-1-5 1-5 3-6 4-7 6-7 7-7 8-8 9-7 10-6 10-6 11-8 20-2 11-2 20 1 9 1 10 3 9 3 8 4 9 6 9 6 8 7 9 21 24 7 7 7 8 5 8 5 7 3 7 2 7 1 7v6l-1 7-3 6-15 15-7 4-7 3-14 4h-6-6l-4-2-5-2-3-3-2-5-2-6v-17" style="clip-to-self:true;comp-op:src"/>
<path transform="scale(.1)" d="m8109.8 1452.4-1 4v4l-1 4v5l-2 11-1 12v7 6 6l-1 6v5l-1 6v5l-1 5v4 4l-1 4v5-11" style="clip-to-self:true;comp-op:src"/>
<path transform="scale(.1)" d="m8138 1394.5 1 4 3 5 1 4 2 3 2 5 5 7" style="clip-to-self:true;comp-op:src"/>
<path transform="scale(.1)" d="m8197.1 1460.8-2 4-2 5v3l-1 4v4l-1 5v4l-1 5v6l-1 5v5 6 10l-1 5v7 5l-2-5v-8-6l2-12 4-14 3-8 4-8 6-9 5-8 6-8 14-12 8-5 7-4 6-3 7-2h6 5l5 1 5 2 4 3 3 3 3 5 2 5 1 6v7 7 8l-1 7-2 7-1 8-4 13-2 6-1 5-4 8" style="clip-to-self:true;comp-op:src"/>
<path transform="scale(.1)" d="m8401.3 1385.2h4l1 4v5 14l1 6 1 5 1 6 6 18 4 6 3 5 4 4 4 3 5 3 6 1 5 2h6l6-1 5-1 5-3 6-2 10-8 5-5 3-5 4-5 3-6 6-18 1-6v-6l1-6 2-10v-4l1-4 1 4v4l1 5v6l-1 6v135l-3 33-4 20-6 18-4 8-4 7-5 7-6 6-5 4-6 4-8 4-7 2-16 2h-10l-25-2" style="clip-to-self:true;comp-op:src"/>
<path transform="scale(.1)" d="m5222.3 1899.3-1-3 4-1h20l6-1h14 9 20l11-1h26 14 15l17-1 18-1 20-1h20l21-2 22-1 23-2 23-1 23-2 24-1 50-4 53-4 27-2 56-4 29-1 28-3 28-1 28-2 29-2 28-1 28-2 29-1 58-4 30-1 31-3 96-5 32-1 66-4 34-1 70-4 36-2 38-1 38-3 38-1 38-2 38-3 117-6 80-4 39-2 40-2 39-2 40-2 39-2 41-2 40-2 41-1 82-4 123-3 41-2 82-2 42-2h42l41-2 123-3 40-2 41-1 39-1 40-2 78-2 37-2 38-1 36-1 36-2 105-3 34-1 33-1 32-2 32-1 31-1 29-2h29l28-1 52-2 24-1h24l22-1h21 20l18-1h17l15-1h13l12-1h28 7 19-4l-4-1-6-6" style="clip-to-self:true;comp-op:src"/>
<path transform="scale(.1)" d="m5293.1 2161.2 1-6 1-4 2-16v-5-3-7-6l-1-4-2-2h-4l-4 5-3 4-3 5-4 8-4 9-4 10-4 12-5 13-3 14-4 14-3 14-4 28-1 14v13l1 14 2 12 3 11 4 10 4 9 5 7 6 5 6 4 6 2 7 1 7-1 7-2 8-4 7-4 8-6 7-8 14-18 6-10 6-9 5-10 4-11 4-9 2-10 2-16v-6l-2-10-1-2-5-2-3 2-2 3-3 4-3 6-3 7-3 8-2 9-2 11-1 10v11l1 10 2 11 2 9 4 9 4 8 5 7 6 5 7 4 7 3 8 2h8l8-1 9-3 8-3 16-10 6-6 6-7 8-14 2-7 1-8v-7l-1-8-2-7-3-8-3-7-4-7-8-12-4-5-5-4-4-2-5-2h-4-4l-3 2-3 3-3 4-2 4-1 5v6 5l1 6 3 5 2 4 5 4 11 7" style="clip-to-self:true;comp-op:src"/>
<path transform="scale(.1)" d="m5507.1 2192.1-1-5-1-3-3-3-5-1-5 2-3 2-2 3-6 8-2 5-3 6-4 12-1 7v7l-1 7 1 8v7l3 21 3 14 3 18v6l1 5v5 4l-1 4-1 5-2 3-5-2-4-12" style="clip-to-self:true;comp-op:src"/>
<path transform="scale(.1)" d="m5604.3 2186.6 1-4v-5l1-4 2-3 3-4 4-2 3-2 4-2 5-1 5-2h6l6-1 12 2 6 2 6 3 10 8 3 7 4 7 1 8 2 9v10 10l-2 11-1 11-3 10-3 11-2 10-4 9-3 8-7 14-10 10-3 2h-4l-2-4v-4l1-5 2-6 2-7 8-16 6-9 5-9 7-10 7-11 8-11 8-12 9-12 9-13 9-14 20-26 10-12 8-11 7-8 14-14-1 3-3 5-4 6-5 7-5 8-6 9-6 11-6 10-10 20-4 11-3 9-4 18v8 7l2 7 3 7 3 6 4 5 6 4 7 3 8 3 8 2 9 2 9 1h9 8 8l8-1 17-3" style="clip-to-self:true;comp-op:src"/>
<path transform="scale(.1)" d="m6068.5 2048-1-5-2-4-1-5-2-4-2-3-4-2-4 3-3 4-4 5-3 8-5 9-5 11-5 12-5 14-6 14-4 14-4 15-3 15-3 14-1 13v13l1 12 2 10 2 9 3 8 3 7 4 6 8 8 5 2 4 1h4 5l5-2 6-2 5-3 5-4 6-4 11-11 5-7 6-7 4-7 5-7 4-8 3-9 4-7 3-7 3-6 2-5 2-2 1 3-1 5v6l-1 7v8l-1 9v9 8l1 8 2 8 6 14 4 5 5 4 7 3 6 2h6 7l8-2 7-3 8-4 7-5 7-6 7-7 6-7 5-8 6-18 2-9 1-9v-9l-1-10-4-18-3-9-4-7-3-6-4-5-4-3-10-2-4 2-6 2-4 3-5 5-8 12-2 8-2 7v8 8l3 7 2 6 4 6 11 11" style="clip-to-self:true;comp-op:src"/>
<path transform="scale(.1)" d="m6290.5 2129.1-3-2-4-1-4 1-4 3-2 4-1 3-1 6 1 5 3 10 2 5 3 5 3 6 8 12 5 6 4 6 5 7 4 6 4 7 6 14 1 7 1 6v7l-4 12-3 5-8 10-8 6-5 2-4 1h-4l-3-1-4-2-2-2-2-3-1-4-1-6v-7l1-7 7-20" style="clip-to-self:true;comp-op:src"/>
<path transform="scale(.1)" d="m6440.7 2113.9 3 1 2 4 4 12 1 4 2 6 4 8 4 6 3 3 4 2 3 1 4 1h3 4l5-1 5-2 5-3 5-4 6-4 5-5 12-10 7-6 6-6 6-7 6-6 11-14 6-6 8-12 6-8 2-3 3-2v4l-1 3-2 10-1 7v7l-1 8v10l-1 10v10l1 11 2 24 9 36 5 13 4 13 5 14 5 15 10 32 4 16 6 28 2 13 1 12 1 13-2 22-3 11-3 9-4 8-4 7-5 6-6 5-5 4-6 4-14 6-21 3h-6l-7-1h-6l-6-2-6-1-5-2-4-3-6-6-2-4-1-4-1-5v-5l1-5 2-6 2-5 3-7 4-7 5-7 5-8 6-7 6-8 7-9 8-8 16-18 18-21 22-25" style="clip-to-self:true;comp-op:src"/>
<path transform="scale(.1)" d="m6794.6 2260.5 2-3 4-2 7-2 5-1 6-1 8-1 8-2 9-1 10-2 22-4 11-3 11-2 12-3 22-4 10-1 9-2 8-1 7-2 6-2 13-4" style="clip-to-self:true;comp-op:src"/>
<path transform="scale(.1)" d="m7240.5 2067.9 1-3 7-14 5-12 8-22 2-11 3-9 1-9 1-7-1-6-2-8-3-2h-3-4l-6 3-6 4-7 5-7 6-16 16-8 10-7 9-7 10-10 20-4 9-4 18v8l1 9 2 8 3 8 10 16 14 16 9 7 9 8 9 7 9 8 9 7 16 14 7 7 5 7 8 14 2 14-1 7-3 7-8 14-6 7-7 6-8 5-9 5-8 4-9 3-9 2h-8-8l-6-1-5-3-4-3-1-5-1-6 2-7 2-9 10-20 18-28" style="clip-to-self:true;comp-op:src"/>
<path transform="scale(.1)" d="m7315.7 2138 4 4 3 4 1 3 2 4v5l1 6v6l1 6 2 19v6l1 6v6 5l1 5 3 12 1 3 3 3 4-4 3-8" style="clip-to-self:true;comp-op:src"/>
</g>
<path d="m738.14 210.71 0.23438-0.37891" stroke-width="1.41" style="clip-to-self:true;comp-op:src"/>
<g stroke-width="14.1">
<path transform="scale(.1)" d="m7422.7 2141.8v4 7l1 4v5 5l1 11v6l1 6v5l1 6v5l1 5 1 10v4l1 5v-11-5l2-12 1-7 3-8 3-7 3-9 5-8 5-9 6-8 6-7 7-7 6-5 6-4 6-3 5-2h6 5l5 1 5 3 7 7 3 5 1 7 1 6 1 8v7 9l-3 24v8 6l-1 6 1 4 1 7" style="clip-to-self:true;comp-op:src"/>
<path transform="scale(.1)" d="m7594.5 2153.6 2-4 6-6 3-2 8-6 9-5 10-2 4-1h4 4l4 2 3 1 3 3 2 3 2 4 1 5v6l-1 6-2 6-1 7-16 32-2 3-3 4 4-6 2-4 12-18 5-7 6-7 5-8 6-8 5-8 6-7 4-8 4-7 3-6 3-5 2-3 2-5-2 5-2 3-3 5-4 12-3 7-2 8-1 8-1 7v8l1 7v8l6 14 3 6 4 6 5 4 5 3 6 3 17 2" style="clip-to-self:true;comp-op:src"/>
<path transform="scale(.1)" d="m8000.5 2072.9 5-5 5-6 7-7 7-8 7-7 14-16 6-9 10-16 3-8 2-16v-7l-2-6-2-4-3-4-4-3-4-1h-6l-6 1-7 2-7 3-7 5-8 6-7 7-8 7-7 8-6 9-7 9-5 10-4 9-4 11-1 9-1 10v8l2 10 3 9 4 8 5 9 12 16 7 9 8 8 8 9 9 9 16 17 7 8 7 7 6 8 4 7 3 8 3 6 1 7v6l-2 6-3 5-4 5-6 5-14 7-8 3-9 3-10 1-9 1-8 1-8-1-7-1-5-2-5-3-3-4-2-4v-7l1-7 7-20" style="clip-to-self:true;comp-op:src"/>
<path transform="scale(.1)" d="m8107.5 2122.8 1 4 2 5 1 3v5l1 4 1 6 1 5 2 6 2 12 1 7 1 12v6l1 6v6 5 5l1 4v4l1 5v-4l1-12" style="clip-to-self:true;comp-op:src"/>
<path transform="scale(.1)" d="m8143.2 2074.2-4-7v4l2 6 1 4 2 3 2 4 1 4 2 3 2 4 6 8" style="clip-to-self:true;comp-op:src"/>
<path transform="scale(.1)" d="m8215.4 2138.8 1 5v21 6 6l1 7v6 6 40l-1-6 1-4v-5l2-6 1-7 2-7 4-8 3-9 4-8 5-9 6-9 6-8 12-14 7-5 6-4 5-3 5-2h5l3 1 4 1 3 3 2 4 2 5 1 7 1 6v16 8l-1 8v8 24 6l1 6 1 5 2 3 7 5" style="clip-to-self:true;comp-op:src"/>
<path transform="scale(.1)" d="m8432.8 2045.5-1 5v17l1 6 2 14 2 7 3 13 3 7 2 7 4 6 3 6 12 15 4 3 5 3 4 2 5 1h4l5-1 4-2 4-3 8-8 4-5 3-5 4-6 6-12 3-7 4-14 1-7 2-6 1-5 1-4v-4l1-4 2 5v4 5l1 6v8 8l1 9v10 12l1 12v13 14 63 19l-3 42-2 20-2 18-3 17-2 15-3 14-3 13-3 11-3 10-3 7-4 6-3 4-3 3-3 1-5-2-2-3-2-11" style="clip-to-self:true;comp-op:src"/>
<path transform="scale(.1)" d="m8611.1 2320.9 3-3 2-8-8 2" style="clip-to-self:true;comp-op:src"/>
<path transform="scale(.1)" d="m2266.6 3507.3-5-2-4-4-4-2-2-2 2-2h5 7 4l6-1h7l6-1h7l8-1h7l14-2 18-3h5 5 8 5l3 2-2 5-11 6" style="clip-to-self:true;comp-op:src"/>
<path transform="scale(.1)" d="m2262.9 3558.9-2 2 1 3 6 1 3-1h4 4l5-1 6-1 7-1 8-2 9-1 9-2 10-1 20-4 9-1 10-2 8-1 19-3" style="clip-to-self:true;comp-op:src"/>
</g>
</g>
<path d="m527.9 252.98h139.18" stroke="#00c0ff" stroke-width="1.41" style="clip-to-self:true;comp-op:src"/>
<g stroke="#fff" stroke-width="14.1">
<path transform="scale(.1)" d="m3181.9 3198.1-1-3v-4-4l-1-4-1-5-2 4v3l-1 5-1 6v8l-1 8-1 11v12l-1 14v16 51 18l2 34v16l2 28 1 13 2 12 2 22 2 9 1 9 2 7 1 5 1 4v3" style="clip-to-self:true;comp-op:src"/>
<path transform="scale(.1)" d="m3086.6 3412.7-2-3-2-4-2-3-2-5-1-3-2-4v-7l2-6 2-3 2-4 7-7 10-8 7-5 8-3 10-5 11-4 12-4 12-5 28-8 14-3 15-4 14-3 14-2 26-4 11-1 25 1" style="clip-to-self:true;comp-op:src"/>
<path transform="scale(.1)" d="m3387.5 3343 1-3 1-4v-9l-2-4-1-4-2-3-2-2-3-2-3-1-4-1-4 1-5 2-6 3-7 3-7 5-7 6-8 8-8 7-8 9-14 18-6 9-5 10-4 9-4 18v8 7l1 7 3 6 3 5 3 4 4 3 5 2h5 6 5l6-2 6-3 7-3 6-4 6-5 7-5 19-19 5-6 11-14 4-7 8-12 3-5 3-4 3-3 2-3 3-3 4 3 2 6 1 4 1 5 2 5 2 6 1 6 4 12 3 5 2 6 6 10 2 4 4 4 2 3 4 2 3 2 2 1 6 1 4-1 3-4 3-5 2-4 1-3 3-10 2-5 1-6 5-16" style="clip-to-self:true;comp-op:src"/>
<path transform="scale(.1)" d="m3515.6 3347.2 1-4 2 3 1 5 1 7v4l1 5v11 6 48l1 5v6l2 8v4l4-5 1-3 2-10 1-6 2-6 5-14 6-14 3-8 5-8 4-8 15-24 6-6 5-6 6-5 10-6 5-2h5 5l5 1 4 2 4 4 3 4 2 6 3 6 1 7 1 8v54l2 16v6l2 6 2 4 5 4" style="clip-to-self:true;comp-op:src"/>
<path transform="scale(.1)" d="m3805.2 3334.1-3-2-8-8-6-8v-6-3l3-7 4-6 4-4 4-3 5-2 4-2 6-2h5 5l5 2 6 2 4 3 4 4 3 5 3 7 4 16v10 10l-2 11-2 10-6 22-4 10-4 9-3 9-3 7-3 6-3 5-3 4-4 6 1-4 4-8 4-6 3-6 6-7 5-8 7-8 14-18 16-20 16-24 9-12 8-13 14-24 7-10 5-9 4-7 2-5 1-4h-3l-8 8-5 7-7 9-6 10-14 24-7 13-12 28-10 28-4 14-4 28-1 13 1 13 3 11 4 10 5 9 7 7 9 6 10 4 11 3 12 2h13l14-1 15-3 14-3 14-4 14-6 30-15" style="clip-to-self:true;comp-op:src"/>
<path transform="scale(.1)" d="m4282.6 3367.9h-4l-3-2h4 3 4l5-1 7-1 8-1 9-1 11-2 12-2 14-2 30-4 16-2 15-2 16-2 28-2 13-1h11 11 10 9l7 1 7 2h5l5 2 2 2 3 4-2 5-5 3-12 1" style="clip-to-self:true;comp-op:src"/>
<path transform="scale(.1)" d="m4416.3 3259.8 1-8v-7l1-10v-9l1-7v-6l1-5v-4l1-5 1 5-1 4v7 8 10l-1 12-1 13v14l-1 15-1 16v16l-1 32v16 15l1 16 1 15 2 15 2 13 3 13 3 12 3 10 4 9 3 7 5 13" style="clip-to-self:true;comp-op:src"/>
<path transform="scale(.1)" d="m4877.7 3168.1-1-5-1-6-2-7-2-6-2-5-3-4-1-4-2-3-7-7 1 4v4l2 5 1 7 2 9 1 11 2 13 1 14 1 15 2 17 3 57 2 36 1 16 2 16 1 13 1 12 1 10 1 9 2 8 1 6 1 5 1 4 1 3 1 4-8-8" style="clip-to-self:true;comp-op:src"/>
<path transform="scale(.1)" d="m4781.5 3364.1-2-3-1-3-2-4-1-5v-10l2-4 2-5 3-5 4-5 11-11 7-6 8-6 9-6 10-7 11-6 26-12 14-6 16-6 16-5 17-5 17-4 16-4 15-3 15-2 13-2 29-1" style="clip-to-self:true;comp-op:src"/>
<path transform="scale(.1)" d="m5097.9 3258.1-4-5-3-3-4-3-4-2-5-2-4-1h-5-5l-6 1-5 2-7 2-6 4-8 5-7 6-8 7-16 18-8 11-7 11-6 12-7 12-4 12-4 11-3 11-2 9-1 9v9l2 6 2 7 3 4 4 4 5 3 5 1 6 1 6-1 7-2 16-6 9-5 9-6 9-8 8-7 9-8 9-9 14-18 6-10 6-9 4-10 4-9 2-8 3-8 1-6 1-4 1-5v5l-1 4v6 20 8l2 15 1 8 2 7 2 5 3 6 2 5 3 4 3 3 9 6h4 3l4-2 3-1 4-3 3-2 7-7 6-9 2-5 6-10 6-15 3-5 1-3 3-4 2-2 4-3 4 1 4 5 2 4 6 15 4 12 1 7 4 12 2 5 2 4 3 4 3 3 2 3 3 1 6 1 4-2 4-1 4-3 3-3 5-4 3-6 3-5 7-17" style="clip-to-self:true;comp-op:src"/>
<path transform="scale(.1)" d="m5297.8 3267.8 3-6 1-4 6-9 4-3 5-1h4l4 4 2 8 1 6 1 7 1 8v18l-1 9v9l-1 10-1 18v15l1 7v6l1 6 1 5 1 3 1 5 3-4v-4l2-5 1-5 1-6 6-24 3-9 3-10 5-11 4-12 5-11 12-24 7-11 7-9 7-8 7-7 8-4 7-3 6-1h7l6 3 5 4 4 5 4 7 4 8 3 9 3 10 3 11 2 11 4 20 2 11 2 9 3 9 2 9 3 7 3 5 8 8" style="clip-to-self:true;comp-op:src"/>
<path transform="scale(.1)" d="m5694.9 3166.4 2-10 2-13v-5-4l1-5-4 4-2 4-1 6-2 7-1 8-2 20v11 11l1 11 3 12 2 11 4 11 3 10 6 9 5 9 6 7 7 5 7 4 18 4 9-1 10-1 9-3 20-10 9-6 9-7 8-8 7-8 6-9 10-18 3-10 3-8 1-8 2-8v-6l1-5-1-3v-4l-3 6-1 4-1 6-2 8-2 18-1 11-2 13-1 12-1 14-1 13-1 14v13l-1 14-1 13-1 12v11l-2 11-2 20-2 9-4 16-6 14-4 6-5 5-5 6-6 4-8 4-7 2-25 3" style="clip-to-self:true;comp-op:src"/>
<path transform="scale(.1)" d="m3141.5 3674.2-4-2-3-2-6-6-3-2-2-2-4-3 12 2 4 1 12 2 7 1 8 1h10 23 13l14-1 15-1 17-1 18-1 20-1 20-2 21-1 22-2 21-1 22-2 23-2 23-1 24-3 25-1 50-4 54-4 28-2 29-2 28-2 29-2 28-2 29-2 27-1 55-5 27-2 26-2 82-7 27-1 55-4 26-1 27-1 26-1 28-1 27-1 28-1 30-1 29-1 31-2 32-1 31-1 98-5 32-2 132-8 34-1 34-2 34-3 34-1 65-4 33-2 63-4 32-3 32-2 63-3 31-1 30-2 29-1 29-2 56-2 27-2 26-1 26-2 26-1 25-2 24-1 25-1 24-1 22-1 22-2h21l40-2 38-2 18-1h17l16-1 15-1h15l12-1h12 12 43 7l6 1 5 1h5l4 1h4 4 3 3l6 1h11 3 3l3 2 4 1" style="clip-to-self:true;comp-op:src"/>
<path transform="scale(.1)" d="m3418 3939.9 1-4v-4l1-5 1-4 1-5v-4-4-3l-1-6v-4l-1-4-1 3-1 8v5 7 8l-1 10v55l1 12v12 12l1 11v11l2 20v10l1 9 2 16v7l1 7v6l1 6v5l1 5 1 4 1 8" style="clip-to-self:true;comp-op:src"/>
<path transform="scale(.1)" d="m3733.4 4039.6-3-1-5-1-3-2 2-3 6-2 3-2 5-1 12-4 14-4 8-2 9-2 8-2 19-4 36-8 8-2 14-2 6-1h6l5-1h3l6 1 2 1 1 4" style="clip-to-self:true;comp-op:src"/>
<path transform="scale(.1)" d="m4248.8 3867.2-2-3-2-4-3-3-3-4-3-3-3-2-3-1-4-2-4 2-1 5-1 4-1 5v7l-1 8v102l1 14v15l1 14 1 15v14l1 14v13 12l1 10-1 9v8 7l-1 6-1 5-1 4-3 3-6-3" style="clip-to-self:true;comp-op:src"/>
<path transform="scale(.1)" d="m4108.9 4040 2-6 1-4 4-8 4-3 4-4 5-3 6-4 7-4 8-5 9-5 10-6 11-5 12-5 27-10 14-5 13-4 14-3 13-3 12-2 11-1 10-1 21 1" style="clip-to-self:true;comp-op:src"/>
<path transform="scale(.1)" d="m4414.9 4014.3-1-3-1-7-2-5-3-3-3-4-3-3-3-2-4-1-4-2-5-1h-5l-6 1-12 4-6 4-6 5-7 6-6 7-6 8-10 18-8 20-6 20-2 9v9 8 7l2 7 2 5 3 3 4 3 4 2 4 1h5l6-1 7-2 6-4 7-4 14-10 7-6 14-14 7-8 5-8 6-8 12-24 3-8 3-7 2-6 2-5 2-4 2-3 2 3v3l1 4 2 5 2 12 2 7 2 14 6 21 4 12 3 6 2 5 3 4 6 6 3 2 3 1h6l8-9" style="clip-to-self:true;comp-op:src"/>
<path transform="scale(.1)" d="m4518.2 3998.6v7 4l-1 5v5l-1 6-3 21v7l-1 7-1 8-1 14v13l1 6v5l1 4 1 3 1 4 3-1 2-6 2-3 1-5 1-6 2-6 2-7 4-16 3-9 3-8 3-10 4-10 10-20 5-9 12-16 6-6 6-5 6-3 5-2h4l5 2 4 3 4 4 4 5 3 6 3 7 2 8 3 8 2 9 1 9 2 9 4 36v8l1 6v7l2 8h6" style="clip-to-self:true;comp-op:src"/>
<path transform="scale(.1)" d="m4731.3 3992.3-2-8v-6l2-4 2-3 3-4 8-6 10-6 5-2 6-2h5 5l5 2 4 2 4 3 4 4 3 6 3 7 2 7 1 8 1 9v9l-1 10-2 8-4 18-4 14-4 10-2 3-2 4-3-2 1-7 1-4 2-6 3-6 2-7 3-7 4-8 3-9 5-9 3-9 5-10 12-33 4-10 3-9 3-7 2-6 1-4 2-3-2 4-1 4-1 6-3 8-2 8-2 9-8 44v10 11 9l1 10 3 9 8 14 6 6 6 5 7 4 8 3 9 1h9l24-3" style="clip-to-self:true;comp-op:src"/>
<path transform="scale(.1)" d="m5157.9 3822-1-5v-5-5-5-4 3l1 5 1 6v8l1 9v23 13 15 149 14l1 13 1 11v9 8l1 6v5l1 3v5l-7-6" style="clip-to-self:true;comp-op:src"/>
<path transform="scale(.1)" d="m5070.2 3994.4 8-8 4-3 5-4 6-4 7-3 9-3 20-8 11-5 12-5 13-5 25-9 26-8 24-6 11-2 10-2 27-3" style="clip-to-self:true;comp-op:src"/>
<path transform="scale(.1)" d="m5333.5 3942.9-1-5-1-3-2-3-2-2-4-2-6 1-5 2-4 3-6 4-7 6-7 8-8 9-8 10-8 11-7 12-7 11-6 12-5 12-5 11-4 11-3 10-1 9-1 8v8l1 6 1 5 2 3 4 3 3 1h5l5-1 5-2 6-3 7-4 14-10 7-6 12-14 12-16 5-8 4-9 5-8 3-8 4-7 3-7 2-5 2-3 3-4 2 2 2 6 2 10v5l2 12v7l1 6v6l1 6 2 10 2 4 2 8 2 5 2 2h3l2-3 1-3 4-8 2-5 3-5 6-12 5-6 4-7 5-6 6-7 6-6 6-5 5-4 6-4 5-2 4-1h5 3l4 1 3 3 2 3 4 8 2 5 3 15 1 6 2 8v4l1 6 1 3 4-1 6-8 4-4 3-4 8-10 10-12 5-7 5-6 5-7 18-18 5-4 4-4 5-2 4-1h3l3 2 2 2 4 8 1 6v7l1 8v7l1 8v9l2 16 1 7 1 8 2 6 1 7 3 5 4 8 3 2 6 1 4-2 9-8" style="clip-to-self:true;comp-op:src"/>
<path transform="scale(.1)" d="m5636.7 3905.7v-10l1 5 1 4v5 7 7l1 8v9l1 9 1 10 2 9 4 20 2 9 3 10 3 8 4 8 3 7 4 6 4 5 5 4 4 2 5 2 5 1 4-1 6-1 5-2 5-3 6-4 5-5 6-5 5-6 5-7 5-8 5-9 3-9 4-11 3-10 3-11 2-11 3-9 2-9 2-7 1-6v-4l1-4 1 4v4l1 5-1 7v53l1 12v13l1 14 1 13 1 14 1 15v16l1 18v19 40 19l-1 19-2 18-4 32-2 15-3 14-6 26-4 12-4 10-5 9-6 7-5 5-6 5-7 4-7 2-7 3-7 1h-8-7l-7-1-7-2-14-6-6-4-6-5-5-6-3-7-4-8-2-9-1-9v-10-10l2-10 3-10 4-10 5-10 6-11 16-20 20-20 24-20 14-10 13-9 15-9 15-8 14-9 14-8 29-18" style="clip-to-self:true;comp-op:src"/>
</g>
<g stroke="#ff0" stroke-width="14.1">
<path transform="scale(.1)" d="m7065 3305.8v-4-4l-1-5-2-8-1-3-1-5-2-2-3 5-1 5-2 6-1 8-2 9-2 10-4 22-1 13-2 24v12 11l2 22 1 8 2 8 3 7 2 4 3 4 4 2 3 1 4-1 3-2 5-3 4-5 5-5 4-7 5-8 4-8 4-9 9-24 2-7 2-6 2-8 2-4 3 4 1 3 1 4 4 12 4 14 3 7 9 24 3 7 8 12 4 4 5 3 5 2 4 1h5l5-1 5-2 4-4 5-4 4-5 3-6 6-14 2-7 2-8 2-16v-8-15-7-7l-1-6v-6-6l-1-5v-8" style="clip-to-self:true;comp-op:src"/>
<path transform="scale(.1)" d="m7304.8 3232.3v-13l-1-4v-4l-1-3v5l-1 5v5l-1 7-1 9-1 10-1 12-2 12-3 42-2 13-2 26-1 12v30l1 8v7l1 6v5l1 3 1 5 3 1 4-3 2-4 3-4 8-10 4-7 18-27 5-6 4-6 8-8 4-3 3-2 5-1 4 4 2 3 1 4 2 5 1 13 1 7 1 8 1 7 1 8 2 8 1 7 2 6 3 6 2 5 3 5 3 2 4 2 3-1 10-5" style="clip-to-self:true;comp-op:src"/>
<path transform="scale(.1)" d="m7433.5 3354.4-2 4-1 4-1 6v3l2 7 2 5 6 6 6 2 4 1h4l5-1 12-4 6-3 12-8 6-5 6-4 8-10 6-10 1-5 1-4v-5l-2-8-2-3-3-3-3-1-4-1h-4l-4 1-5 2-4 3-5 5-4 5-5 6-4 8-3 8-4 8-2 10-2 9v9 9l1 10 2 9 2 8 3 7 5 7 4 5 6 5 6 3 6 2 7 1h8l8-2 9-2 9-4 8-4 9-5 8-7 8-6 12-16 5-8 8-16 6-16 2-8 2-7 2-10 1-3v-4l2 5v4 6 6l1 7 1 15 1 7 1 8 1 7 4 12 2 4 3 4 5 5 7 1 3-1 5-2 4-3 8-8 4-5 12-18 6-12 3-5 2-5 3-5 3-4 2-3 4-3 4 2 2 6v5l1 5 3 18 1 7 4 15 3 7 2 6 4 6 3 5 4 3 11 7" style="clip-to-self:true;comp-op:src"/>
<path transform="scale(.1)" d="m7974.6 3183.3-1-3v3 5l1 5v8l1 8 1 10v11l1 13v14l1 15v16 16l1 31 2 30 1 13 1 14 2 11 2 12 2 10 2 8 1 7 1 5 1 3-3-3" style="clip-to-self:true;comp-op:src"/>
<path transform="scale(.1)" d="m7879.4 3365 2-3 3-3 3-4 10-8 6-4 7-4 18-10 20-10 11-6 11-4 12-4 11-4 11-3 12-3 21-6 10-2 25-3" style="clip-to-self:true;comp-op:src"/>
<path transform="scale(.1)" d="m8151.6 3299.9-2-3-4-4-3-1h-4l-3 1-4 1-10 6-6 5-5 5-7 6-12 14-7 8-6 9-10 16-3 8-2 8-2 7v6 5l1 5 2 3 3 2 3 1h5l5-1 6-2 6-3 7-4 8-5 7-5 14-13 6-7 6-6 5-8 4-6 3-7 3-6 3-5 2-4v-4l2-4-1 6-1 4v5l-1 6-3 21v7l1 7v6l1 6 2 5 1 4 3 4 2 3 2 2 4 1h6l4-2 3-2 4-3 3-4 4-5 3-5 6-12 2-6 3-6 5-13 6-15 2-3 2-2 3-2 3 2 4 5 2 4 2 5 1 6 2 6 6 19 4 12 1 5 2 4 3 4 2 3 1 3 4 3h3l4-3 2-3 1-4 4-10 3-5 2-7 3-6 6-14 8-14 15-21 6-5 5-5 5-3 4-3 5-1h3l4 2 3 2 2 4 2 5 2 6 1 6 1 7v8 7 36l1 5v4l1 4" style="clip-to-self:true;comp-op:src"/>
<path transform="scale(.1)" d="m8426.6 3318.5-1-4v-6l2-5 2-3 6-6 8-6 10-3h5 5 5l6 2 8 6 4 5 3 6 1 6 2 7v7 8l-2 8-1 7-2 9-6 14-2 6-5 10-1 4-2 4-1-3 2-3 1-5 2-5 4-6 3-8 5-7 4-9 6-8 5-9 10-19 5-9 5-10 4-9 3-8 4-7 2-5 2-8-2 6-3 5-6 14-3 8-4 9-6 18-2 10-2 9-1 9v9 8l4 16 8 12 5 5 5 3 17 3" style="clip-to-self:true;comp-op:src"/>
<path transform="scale(.1)" d="m8616.3 3359.5 3 4 3 3 6 4 9 9 9 12 3 6 2 5 2 6 2 14v7l-1 7-4 16-8 18-6 8-8 9-8 6-10 6-10 5-27 9" style="clip-to-self:true;comp-op:src"/>
<path transform="scale(.1)" d="m8876.8 3170.7-3-1-2 8v5l-1 7v8l-1 9-1 11v12l-1 13-2 30-1 16v15 15 15l1 14 1 13 1 11 2 11 2 9 2 8 3 7 4 8" style="clip-to-self:true;comp-op:src"/>
<path transform="scale(.1)" d="m8754.8 3360.3 1-3 3-3 2-5 10-10 7-4 8-6 20-10 24-10 12-4 13-5 13-4 13-3 12-4 33-6 22-2" style="clip-to-self:true;comp-op:src"/>
<path transform="scale(.1)" d="m8979.6 3310-4-3-3-2-2-2-4-1h-6-3l-4 2-4 3-14 14-5 6-4 7-5 7-3 7-6 16-1 7-1 6v7l2 10 2 4 4 3 3 2 5 1h5l5-1 6-2 14-6 14-10 12-12 6-8 5-6 4-8 4-7 6-14 2-6 2-5 2-3 2-6 1 4v40l1 7v7l3 18 2 4 1 4 2 4 4 3 4 2 6-3 3-2 7-7 7-10 4-6 4-7 4-6 4-7 5-7 8-12 4-5 10-10 3-1h3l4 4 2 8v6l1 5 1 6 1 7 1 6v5l1 6 3 12 3 5 4 2 4-1 6-4 4-4 3-4 4-5 12-18 5-7 4-6 4-7 8-12 4-5 3-4 4-3 3-2 4-1 3 4 1 3 1 5v5l1 6v7l1 8v7l3 15 2 7 3 5 8 13" style="clip-to-self:true;comp-op:src"/>
<path transform="scale(.1)" d="m9322.2 3261.1h-3l-5 10-2 7-1 7v7 8 9l1 17 2 9 6 16 4 8 5 7 5 6 6 6 6 4 7 4 6 2 7 1h7l6-1 7-1 6-3 10-8 5-6 3-5 3-6 4-14 1-7v-8-8-7-7-5-5-3 13 6 8l2 8 1 10 2 9 1 11 2 11 1 11 2 12 1 12 1 11 1 12v12l1 11v21 9l-1 9-2 8-2 7-2 6-3 5-5 5-5 4-12 6-7 2-8 2h-8l-9 1h-9l-11-1-10-1-24-4-12-3-27-9" style="clip-to-self:true;comp-op:src"/>
<path transform="scale(.1)" d="m9571.4 3362.4v5 5l-1 7-1 5-2 6-4 14-9 24-4 9-5 7-5 8-12 15" style="clip-to-self:true;comp-op:src"/>
<path transform="scale(.1)" d="m7242.9 3852.5-1-4v-4l-1-6-4-10-3-4-6-6-3-2-5-1h-4-5l-6 2-7 2-7 3-8 5-9 6-8 6-9 8-8 8-7 9-8 9-7 10-5 9-8 18-2 9v7 7l4 10 3 4 4 2 5 1h6l7-1 8-2 8-3 9-4 9-5 18-12 8-6 16-14 6-7 6-6 5-7 5-6 6-10 2-4 2-3 1-4-1 4v4l-1 5-1 6v7l-2 14v8 8 8l1 7 1 6 2 6 2 5 2 4 6 4 5 1 3-2 4-1 8-8 8-10 4-6 8-14 6-15 6-14 3-6 2-7 2-5 3-5 2-4 3-3 4 2 3 5v4l4 12 1 6 2 8 1 7 2 7 2 8 4 12 1 5 2 4 2 3 4 4h3l4-3 6-8 3-6 3-5 12-28 3-8 9-21 4-6 3-6 4-5 7-7 3-2h6l2 2 4 8 1 7 2 6 1 9 2 9 1 9 4 20 2 11 3 10 6 18 4 7 4 5 4 4 5 1 14-3" style="clip-to-self:true;comp-op:src"/>
<path transform="scale(.1)" d="m7589.3 3830.9-1-4-3-3h-5l-3 1-8 4-15 12-11 11-6 7-5 7-6 7-4 7-5 8-4 7-4 8-2 7-1 8-1 7 2 12 2 4 3 4 5 3 4 2h5 6l5-2 6-3 7-3 6-4 6-5 5-6 5-7 5-6 3-8 3-7 3-9 3-17v-10-10-11l-1-11-1-12-2-12-4-26-6-36-2-10-1-9-1-7v-5l-1-3-1 5v6 8l1 10v11l1 12v14l2 14 1 15 2 16 5 32 2 17 6 34 4 17 3 17 4 17 4 14 4 13 10 23" style="clip-to-self:true;comp-op:src"/>
<path transform="scale(.1)" d="m7942.3 3726.6v-4l-1-5-1-4 2 5 1 4 1 6 1 7 1 9v10l1 12v26 15 73l1 12 1 13 1 11 1 9 1 8 1 7 1 4v4l1-9" style="clip-to-self:true;comp-op:src"/>
<path transform="scale(.1)" d="m7816.5 3881.6-4-6 1-4 4-3 14-7 16-6 9-3 11-4 12-3 13-4 28-6 14-4 15-3 15-4 15-3 15-4 14-4 48-12" style="clip-to-self:true;comp-op:src"/>
<path transform="scale(.1)" d="m8080.7 3792.5-4 1h-11l-10 4-2 1-3 3-4 3-3 4-4 4-3 6-4 6-8 13-3 8-3 7-3 8-1 7-2 8v7l-1 6 1 5v6l2 4 1 3 3 4h5l6-3 4-3 8-8 5-6 4-6 5-6 12-21 3-7 4-6 2-5 3-5 3-4 1-3 4-3 4 2 3 6 1 4 1 5 1 6 1 7 1 6 2 7 1 7 2 6 1 7 2 6 1 6 2 5 4 8 1 3 4 2 3-1 3-2 2-2 3-5 8-16 2-6 5-14 6-14 2-7 4-6 6-10 3-4 2-2 3-2 5-1 6 3 1 3 2 3 4 10 1 5v6l2 12 2 10v5l1 4 1 3 1 5 4-3 1-3 2-5 2-4 3-5 3-6 2-5 6-11 3-6 12-15 5-4 4-4 5-2 4-2h5 3l4 2 3 2 3 3 3 5 2 5 2 6 1 7 2 8v8l2 16v8l1 8 1 7 3 15" style="clip-to-self:true;comp-op:src"/>
<path transform="scale(.1)" d="m8451.1 3836.8-1-5v-4l3-9 2-3 3-4 4-3 5-4 10-6 5-2 6-2 12-2h6l5 1 5 2 4 3 3 4 3 5 1 6 1 7v8l-4 18-7 20-8 18-3 8-4 7-5 10-2 3-2 4-2-5 1-4 2-5 3-6 2-7 8-16 5-8 10-18 6-9 10-18 6-9 4-8 4-7 3-6 3-4 1-3-1 6-2 5-3 7-2 8-3 8-3 9-1 9-2 10-2 18 1 9 4 16 4 7 4 6 6 6 6 4 7 3 8 2h8l9-1 9-2 8-3 21-11" style="clip-to-self:true;comp-op:src"/>
<path transform="scale(.1)" d="m8633.7 3825.4 2 3 2 4 4 3 6 3 4 1 10 2h6l7 1h7 7 7 7l7-1h6l10-2 4-1 3-1 3-4v-6" style="clip-to-self:true;comp-op:src"/>
<path transform="scale(.1)" d="m8683.4 3784-2 3-1 6v26l1 14 1 7v7l1 8 2 8 3 24v8l1 7 5 13" style="clip-to-self:true;comp-op:src"/>
<path transform="scale(.1)" d="m8777.7 3817.8 2 2 2 5 2 6 2 4 3 9 4 9 3 5 5 8 3 4 6 6 3 2 4 1 3 1 9-3 6-6 4-8 1-5 1-6 1-5 1-6v-7l-1-6v-6-5-16-3l1-5 2 2 3 6 2 5 1 6 3 7 2 8 2 9 3 8 2 10 3 10 1 10 3 11 3 23 1 12v13 12 13l-1 13-2 12-3 11-2 10-4 9-8 14-5 6-6 5-12 8-7 2-7 1h-7l-7-1-7-2-8-3-9-3-32-20" style="clip-to-self:true;comp-op:src"/>
<path transform="scale(.1)" d="m8463.3 3675-4 2-5 2-7 4-7 5-7 6-8 9-8 11-8 12-8 13-9 15-8 16-16 34-7 18-7 19-5 20-4 20-1 21v21l2 22 5 21 8 21 10 20 13 18 15 17 17 14 19 11 20 10 22 6 23 3h23l62-7" style="clip-to-self:true;comp-op:src"/>
<path transform="scale(.1)" d="m8884.3 3682.7 5-2h4 4l5 1 12 6 7 4 8 6 9 6 8 8 9 8 9 10 8 10 8 12 7 13 6 14 4 15 3 16 2 17 1 17-1 18-2 18-8 38-6 18-6 17-7 17-8 16-8 13-7 13-8 10-15 15-8 4-7 3-16 2" style="clip-to-self:true;comp-op:src"/>
<path transform="scale(.1)" d="m9253.2 3770.5-3-2-3-1-5-2h-5l-12 2-7 4-6 4-7 6-6 8-7 8-6 9-6 10-5 10-4 9-3 10-3 9-1 8v8l1 6 2 6 3 5 3 3 5 2 5 1 6-1 7-1 7-3 16-8 8-5 8-7 15-14 7-8 6-8 10-16 5-7 3-7 4-6 2-5 2-4 3-3 2 4 1 4v5 7l1 7 1 8 2 8 1 8 3 9 3 8 4 8 4 7 4 6 5 6 14 10" style="clip-to-self:true;comp-op:src"/>
<path transform="scale(.1)" d="m9349.9 3795-2-10 4-3 6 1 8 2 5 2 11 5 6 3 6 5 6 4 6 5 5 6 5 5 3 7 4 6 2 6 1 6v6 6l-1 5-4 8-3 3-3 2-4 2h-3-5l-4-1-4-2-8-6-3-4-4-5-1-5-2-7v-6-6l2-7 2-8 3-7 4-7 5-7 6-7 7-7 14-10 8-4 24-9 8-1 16-1" style="clip-to-self:true;comp-op:src"/>
<path transform="scale(.1)" d="m9498.2 3833.9 1 3h5l5-1h4l4-2 4-1 5-2 12-6 7-4 12-8 11-9 4-5 4-6 3-5 2-5 1-6v-5-5l-4-10-4-4-4-3-5-1-6-1-6 1-7 2-7 3-7 4-7 6-7 7-7 8-6 9-5 10-5 11-5 10-6 22-2 11v11 11l2 11 3 9 5 9 6 7 8 6 9 5 9 4 10 1 11 1 10-1 10-3 25-8" style="clip-to-self:true;comp-op:src"/>
<path transform="scale(.1)" d="m7384.2 4448.5v-6l-1-4-2-4-3-3-3-4-4-3-5-4-5-2-5-3-7-2-7-1h-8-8l-20 4-10 4-11 5-11 6-10 7-11 8-10 9-9 10-8 10-7 11-6 11-4 10-3 10-1 10v9l1 8 3 7 4 6 5 4 6 3 6 1h8 8l9-3 9-4 8-4 10-7 9-7 9-8 10-10 16-20 8-12 7-11 7-12 5-13 4-12 4-14 3-13 4-30v-15-16-15l-1-14-2-11-1-10-2-8-2-5-3-3h-4l-2 3-2 5-3 7-3 11-2 12-3 14-2 15-2 16-2 32 1 17 1 15 2 16 3 15 3 14 5 13 4 12 5 11 4 9 5 8 6 6 6 4 5 3h7 6l7-2 7-3 8-5 7-6 7-7 17-21" style="clip-to-self:true;comp-op:src"/>
<path transform="scale(.1)" d="m7460.2 4473.4 2 3h3l6-1 4-1 4-3 6-3 5-3 6-4 7-5 6-5 14-12 15-18 3-5 2-6 1-6v-5-5l-2-3-3-3-3-2h-4-5l-5 2-6 3-7 4-7 5-12 14-6 8-10 18-3 9-2 9-1 9v8l2 8 3 7 5 7 5 5 7 4 8 2 9 1h10l11-2 12-4 13-4 24-12 28-19" style="clip-to-self:true;comp-op:src"/>
<path transform="scale(.1)" d="m7633.4 4358.1 3-2 4-2 4-3 5-4 6-5 11-11 6-8 5-7 10-16 4-8 3-8 2-8 1-9 1-8v-8l-1-8-2-8-2-7-6-12-3-4-4-3-3-2h-4l-4 1-4 2-3 3-4 5-3 7-2 8-2 9-2 12-1 13v15 16 18l2 38 1 21 1 20 1 21 1 22 1 21 2 44 2 21v21l1 19v50 14l-1 11-1 10-1 7-2 5-1 4-5 1-3-1-3-4-9-13" style="clip-to-self:true;comp-op:src"/>
<path transform="scale(.1)" d="m7580.9 4540.6 1-4 2-4 3-5 3-6 8-10 5-6 6-6 8-7 15-15 9-7 30-21 11-7 11-5 9-6 10-4 9-3 8-2 7-2 5-1h6 4l3 1 4 6 2 4v6 13l-2 18-2 20v10l-1 10v9 9l1 8 1 7 2 6 2 5 2 3 5 2 5-2 2-3 2-4 5-14" style="clip-to-self:true;comp-op:src"/>
<path transform="scale(.1)" d="m7794.9 4330.2-3 3-1 3-1 4-2 3-4 20v6 6l1 5 3 9 3 4 4 3 4 2 4 1 5 1 10-2 6-2 10-6 4-4 6-8 2-5v-5-5l-1-6-2-5-5-10-4-5-4-4-8-4-4-1h-5l-4 1-4 2-4 3-4 4-3 5-2 5-1 5-1 6 2 14" style="clip-to-self:true;comp-op:src"/>
<path transform="scale(.1)" d="m7856.8 4446.8 4-8 3-5 9-9 5-3 8-4 5-1h9l4 1 4 2 6 6 4 10v7 7l-1 8-1 9-2 8-3 9-3 8-2 8-2 7-2 6-1 4-1 3-2 3v-3l2-3 1-5 3-6 4-6 8-14 5-7 6-8 5-8 13-15 6-7 12-12 6-4 5-3 4-2 5-1h3l3 2 2 2 4 8 2 5 3 12 2 6 5 14 3 7 3 6 3 7 5 6 4 5 5 5 6 3 5 2h6 7l7-2 6-2 7-4 12-10 6-6 5-6 8-14 4-16 1-8v-8l-1-8-2-14-3-6-2-5-3-5-3-2-4-1h-3l-4 1-3 3-4 3-3 5-3 6-2 6-3 15v9l1 9 1 8 6 18 4 8 5 8 6 7 7 6 7 4 8 3 23 2" style="clip-to-self:true;comp-op:src"/>
<path transform="scale(.1)" d="m8273.2 4394-4-1h-9l-6 1-5 1-6 3-5 3-5 4-4 5-5 5-9 18-3 21 3 21 3 7 3 6 3 5 5 5 4 3 5 2 6 2h6l6-2 6-1 6-4 5-3 6-5 5-6 4-5 8-14 3-8 3-9 2-9 2-20v-12l-1-12-1-13-2-15-1-16-4-34-3-18-2-17-1-16-2-15-2-13-1-10-1-8v-5l-1-4-1 6-1 5v7l-1 9-1 12-1 13v15l-1 17v37l1 38 1 19 4 36 1 17 3 17 2 16 6 28 3 13 11 24" style="clip-to-self:true;comp-op:src"/>
</g>
<g stroke="#fff" stroke-width="14.1">
<path transform="scale(.1)" d="m1079.1 5593.5-1-3-1-8-2-10-2-6-3-18-1-7-2-6-1-6-1-5-1-6-3-12-2-3-1 3v5l-1 7-1 10-1 11-1 13-1 15-1 17v17l-1 20-1 19v20 20l1 22 1 21 2 40 1 19 2 17 1 15 1 13 1 12 2 10 2 9 1 7 2 6 4 6 5-9" style="clip-to-self:true;comp-op:src"/>
<path transform="scale(.1)" d="m953.75 5746-1-3-1-5 1-6 1-3 2-3 3-3 3-4 5-4 5-5 7-5 8-5 8-6 34-17 13-7 14-6 13-6 14-7 14-5 13-5 12-4 12-3 9-2 9-1h7l5 1 8 6" style="clip-to-self:true;comp-op:src"/>
<path transform="scale(.1)" d="m1223.2 5716.8 3-4 2-5 3-5 2-6 1-4v-4l-1-5-4-2h-3-4l-4 1-6 3-6 4-6 5-14 14-6 9-7 10-6 11-10 22-8 23-4 22-2 10v9l1 8 1 7 3 5 2 4 3 3 4 1 5 1 10-4 6-4 7-5 13-13 7-8 7-9 6-8 6-10 6-9 5-11 6-9 4-10 4-9 4-8 3-7 2-6 2-3 3-3 2 4v4l1 5v7l1 6 1 8v9l2 8 1 9 1 8 2 8 3 8 3 7 2 7 8 10 4 4 4 2 10 2 4-1 5-1 5-3 5-4 5-5 4-6 9-16" style="clip-to-self:true;comp-op:src"/>
<path transform="scale(.1)" d="m1365.4 5699.5 4 1 6 4 2 4 1 3 1 4v4l1 5v5 6 29l1 7v7 7l1 6v5 4l1 4v5l3-2 1-3v-4l2-4 2-5 2-6 2-7 4-7 3-8 3-9 8-17 5-10 15-27 6-8 5-7 5-6 5-4 5-3 4-2h4l4 1 2 2 3 4 3 5 2 6 4 16 2 9 2 22 2 11 1 11 1 10 2 10 2 9 2 8 3 7 3 6 3 5 3 3 4 2h3l10-3" style="clip-to-self:true;comp-op:src"/>
<path transform="scale(.1)" d="m1763.4 5573.6-2-5-2-3-3-5-8-6-4-1h-5l-5 1-5 3-5 4-7 5-6 7-7 9-7 10-8 12-7 13-8 15-14 32-6 17-6 18-5 18-4 18-3 18-2 16v17l1 15 6 26 5 10 6 10 7 7 8 6 10 4 10 2h11l12-1 13-4 13-6 13-7 33-21" style="clip-to-self:true;comp-op:src"/>
<path transform="scale(.1)" d="m1829.6 5682.2-1-4v-5l2-5 4-4 3-1 3-2 10-5 5-1 6-2 6-1h7 6l5 1 6 3 5 4 4 5 3 7 2 8 1 9v10l-1 12-2 13-6 26-3 12-4 13-4 11-8 18-3 7-3 6-3 4-1 3-3 2 2-7 2-4 3-7 4-7 5-9 10-20 6-11 6-12 5-11 6-13 5-12 4-12 5-12 10-22 4-10 3-8 3-7 4-8-3 5-2 4-2 6-3 6-3 7-2 8-6 18-2 9-3 19v9 9 8l4 14 2 6 3 6 8 8 5 2 5 3h6 6l6-1 6-2 6-3 14-10" style="clip-to-self:true;comp-op:src"/>
<path transform="scale(.1)" d="m2001.4 5730.7 3 2h4l3-1h4 4l5-2 21-3 8-2 8-1 8-2 9-2 8-1 9-2 8-2 8-1 7-1 7-3 6-2 5-2 13-5" style="clip-to-self:true;comp-op:src"/>
<path transform="scale(.1)" d="m2199 5634.5-1 5v13 6l2 12 1 7 2 7 5 13 3 7 4 6 5 6 4 6 6 4 5 4 6 2 7 1h6l7-1 7-2 8-3 7-3 12-10 6-6 10-14 8-14 6-16 4-16v-7l1-7 2-10v-3 11l-1 7v7 8l-1 10v9 11 12l-1 12v86l1 15v16 16 15l-1 13v13l-1 11-2 10-2 8-3 8-3 7-3 5-8 8-5 3-5 2-10 2h-6l-5-1-6-1-6-3-7-4-6-5-16-15" style="clip-to-self:true;comp-op:src"/>
<path transform="scale(.1)" d="m2392.9 5580.4 2-3 3-2h5l3 1 4 1 4 3 5 2 5 3 10 8 6 6 10 16 4 9 5 10 4 11 3 11 3 13 3 42-1 14-1 15-2 14-2 13-3 13-4 12-10 22-12 21-14 18-6 9-7 9-12 14-6 5-6 3-5 3-5 1-3-1-9-5" style="clip-to-self:true;comp-op:src"/>
<path transform="scale(.1)" d="m2867.9 5676.2-8-6-3-1 4-1h4 4l5 1h7 15 9 11 11 10 12l11-1h10l10-1h16l6 1 4 1h4l3 2-7 6" style="clip-to-self:true;comp-op:src"/>
<path transform="scale(.1)" d="m2872.1 5748.9-2 3 3 4 6 1 4 1h5l6-1 7-1 18-4 12-2 12-3 28-6 30-6 15-4 14-3 14-4 12-3 10-3 22-6" style="clip-to-self:true;comp-op:src"/>
<path transform="scale(.1)" d="m3518.4 5485.3-2-4-3-4-4 1-3 6-2 6-2 8-2 9-3 12-2 13-2 14-2 15-2 17-2 16-3 51v16 31 15l1 14 2 24 1 9 1 8 1 6 2 5 2 6-1-7" style="clip-to-self:true;comp-op:src"/>
<path transform="scale(.1)" d="m3380.9 5678.4-7-7-2-4 1-4 4-3 3-3 4-2 4-3 7-4 7-3 9-3 11-5 11-4 14-4 14-5 32-10 16-4 16-5 15-4 15-5 13-3 31-5" style="clip-to-self:true;comp-op:src"/>
<path transform="scale(.1)" d="m3686 5674.6v-4l-2-8-2-4-6-8-6-4-4-2h-3-5-4l-6 1-10 6-5 4-5 6-10 14-4 8-3 9-2 9-1 8-1 9v8l2 7 1 6 3 6 3 4 3 3 5 2 4 1h6l6-2 5-2 7-4 6-4 7-5 6-6 7-6 6-6 10-14 4-7 3-6 3-5 2-6 2-5 1-3 2-5v6l-2 10v7l-2 16-1 9v9 9l1 10 2 16 6 14 3 4 7 7 4 1h4l5-1 4-3 5-3 4-4 4-5 3-6 7-18" style="clip-to-self:true;comp-op:src"/>
<path transform="scale(.1)" d="m3781.8 5664.8-1-9v8 4 4l1 6v5l1 7 2 12 1 7 1 6 1 7 2 6 2 7 1 5 1 6 2 4 1 4 1 3 2 3 2-2 1-4v-3l1-5v-6l2-12v-7l2-8 1-8 2-8 3-8 2-9 8-14 5-7 5-6 5-5 5-4 5-3 5-2 5-1 4 1 5 1 3 2 4 4 6 10 2 6 2 7 1 7 1 8 1 9v9 9 34l1 6v6l2 6" style="clip-to-self:true;comp-op:src"/>
<path transform="scale(.1)" d="m4058.2 5675-2-3-1-6v-6l1-3 2-4 3-3 3-5 8-8 5-4 12-8 6-3 7-2 6-1 7-1 6 1 5 1 5 2 4 3 4 4 3 5 4 12v7 8 8l-2 9-4 16-3 9-3 7-3 8-6 12-3 5-9 9-3 1h-4l-2-4 1-7 4-10 4-6 3-8 6-7 5-9 6-8 7-10 7-9 8-11 8-10 7-11 16-20 7-9 7-8 6-6 4-5 3-4 3-2-2 7-3 5-3 6-4 7-5 8-4 9-5 9-9 20-4 10-3 10-3 9-1 10-1 9v8l1 8 2 8 3 7 4 6 4 5 5 4 6 3 7 2 7 1h7l7-1 8-1 8-3 19-9" style="clip-to-self:true;comp-op:src"/>
<path transform="scale(.1)" d="m4507.4 5662.7h-9l3 3 10 2 4 1 6 1 7 1h7l9 1h8 10l10-1h10l19-1 9-1h8 7 7 24 3l-2-6" style="clip-to-self:true;comp-op:src"/>
<path transform="scale(.1)" d="m4905.4 5492.1 2-5 1-4 2-4 1-4 1-5 2 3v7 5 7l-1 10-1 11-1 12-2 14-1 15-4 30-1 15-1 16-1 14v14 13 13l1 14 4 24 3 11 3 9 2 9 3 7 6 10 6 6 4 2 6 2 6-2 5-4" style="clip-to-self:true;comp-op:src"/>
<path transform="scale(.1)" d="m4857.1 5698.2v-5l1-3 1-4 6-8 4-4 5-4 6-5 6-4 7-5 16-10 9-5 10-4 10-5 11-5 11-4 33-15 26-10" style="clip-to-self:true;comp-op:src"/>
<path transform="scale(.1)" d="m5065.5 5634.5h-5-8-5l-5 2-4 3-5 3-6 5-5 5-6 7-5 7-6 8-5 9-4 9-4 10-3 9-2 9-2 18 2 16 2 6 2 5 3 5 3 3 4 2 4 1h4l5-1 5-2 6-3 6-5 5-5 6-5 6-7 5-7 5-8 4-8 3-8 5-7 3-8 4-7 3-6 2-5 2-4 2-3 3-3h4l3 4 1 3 2 4 1 5 2 5 2 12 2 6 2 7 3 13 1 6 4 10 1 4 1 3 2 3 3 3 2-5 1-3 5-10 3-5 2-7 4-6 3-7 4-7 10-14 4-6 10-12 5-3 4-3 5-2 3-1h4l4 4 2 3 2 4 1 5 2 6v6l1 6v7l1 7 1 14 2 12 2 8 1 3 2 2 3-1 5-4 6-10 4-5 3-7 5-7 4-8 5-7 20-32 6-8 6-7 5-6 5-5 5-3 3-3 4-1h3l6 3 4 6 1 6 1 5v7l1 8v8l1 17 2 17 1 8 2 8 2 7 7 13" style="clip-to-self:true;comp-op:src"/>
<path transform="scale(.1)" d="m5465.4 5601.5-1 4-2 6v5l-1 5-1 6v13l1 6v6l2 6 1 6 3 5 4 5 8 9 5 3 5 2 5 1h5 4l6-1 4-3 5-3 5-4 5-6 4-6 5-6 4-7 5-8 3-8 4-8 7-17 2-9 5-18 2-8 2-12 2-4 4 5v5l1 7 1 8 2 18 1 11 2 11 1 11 2 13 1 12 2 13 2 14 2 13 1 14 1 15 3 42v28l-1 13-1 11-3 11-2 8-3 9-4 7-5 7-5 6-6 6-6 5-7 4-8 4-8 3-9 2-9 1-16 2h-8l-8-1-14-2-14-4-12-8-5-5-4-5-6-12" style="clip-to-self:true;comp-op:src"/>
<path transform="scale(.1)" d="m3402 5993.5h-4l-4-1-3-2h-3l6 4 7 2 4 1 5 1 7 1h16l9-1h12l12-1 13-1 14-1 30-4 17-1 17-3 18-2 19-1 42-4 44-4 44-2 46-2 45-1h69l24 1h24l25 1h26 27l54 1h28l27 1h28 29 29 30l30-1 32-1h32l32-2 33-1 33-2 128-8 32-3 33-2 31-1 33-2 32-2 31-2 31-1 30-1 29-1 57-2 56-2h27l27-1 56-1 27-1h26l25-1h25l48-2 23-1 44-2 42-2 20-1 38-2 18-1h17l15-1h68l8 1h7 7 13l5 1h17 3 3 4" style="clip-to-self:true;comp-op:src"/>
<path transform="scale(.1)" d="m3461.2 6189.5v-10l1-6v-13l1 5v5 6 8l-1 10-1 12-2 14-2 15-1 16-4 34-1 17-1 16v15l-1 16 1 14v14l2 12 1 11 2 9 2 8 3 5 3 4 8 4h3l10-4 5-3 6-5 14-14" style="clip-to-self:true;comp-op:src"/>
<path transform="scale(.1)" d="m3616.1 6332.3 3 1 4-1h3l4-1h5l6-2h7l7-2 9-1 20-4 22-4 36-6 12-3 12-2 11-3 11-1 9-2 9-1 8-1h6 19l-11-4" style="clip-to-self:true;comp-op:src"/>
<path transform="scale(.1)" d="m3747.5 6220.8v-5l-1-6-1-4-1-3 2 4v4l1 4v13 8 19 11 11l-1 12v12l-1 13-1 12-1 13v13l-1 13v25l2 24 4 20 2 8 3 6 2 6 2 3 7 4" style="clip-to-self:true;comp-op:src"/>
<path transform="scale(.1)" d="m4105.2 6162.5 1-5 1-4v-6l1-5v-4l-1-6v-3 4l1 4v4 6l1 8v9 11l1 12v13 14l1 15v16 15l1 16v15 15l1 14v14l1 13 1 11v11l1 10 2 8 1 7 1 5 1 3" style="clip-to-self:true;comp-op:src"/>
<path transform="scale(.1)" d="m4016 6349.6 1-4 2-3 6-8 4-4 3-5 6-3 5-5 7-4 7-5 16-10 9-6 9-5 20-10 11-4 11-5 13-4 11-4 24-6 11-2 11-1h9l9-1 8 1h6l5 1 10 5" style="clip-to-self:true;comp-op:src"/>
<path transform="scale(.1)" d="m4245 6277.4-2-6-2-7-2-5-3-4-3-3h-4l-5 3-2 3-3 4-4 5-4 7-8 16-4 9-3 9-4 9-4 18-2 8-1 8v8 7l1 6 2 6 4 8 2 2 4 2h3l8-2 5-2 5-3 5-4 6-5 5-5 6-5 5-6 10-14 9-14 4-8 8-14 3-6 3-4 2-4 3-3 2 5v3l-1 5v5l-2 14v7l-1 7v8 7 6l1 7v6l2 5 1 4 4 6 4 2h6l6-4 8-6 4-5 5-5 4-5 5-6 4-6 5-6 5-7 4-6 10-12 8-10 6-6 4-2 2 2 1 6v5 4 5 29 3l1 5 2 3 4-3 4-5 6-8 3-6 4-5 4-6 3-5 4-6 5-6 4-7 5-6 5-7 6-6 5-6 6-4 4-4 5-3 4-1h4l3 1 4 2 4 8 2 5 2 7 1 7 1 8 1 9 2 26 1 9 2 8 2 7 1 7 4 10 3 3 7 4" style="clip-to-self:true;comp-op:src"/>
<path transform="scale(.1)" d="m4622.9 6302.3-6-1h-4l-3-1-4-1-3-2-3-1-4-3-3-5v-6l2-3 2-4 3-4 4-5 10-10 7-5 14-8 8-4 7-2 7-1h7l6 2 5 2 5 4 4 5 3 7 2 7 1 8v10l-1 9-1 10-6 20-4 10-4 9-5 9-8 16-4 5-3 6-3 3-2 3-3 2 1-4 2-3 3-5 4-7 5-7 6-8 6-9 7-9 7-11 8-10 7-10 8-12 8-11 8-13 7-12 7-13 6-11 5-9 3-7 3-4 1-3-4 4-3 5-3 6-5 8-4 10-10 22-8 22-3 11-2 11-1 10v10 10l2 8 3 9 4 8 5 7 14 12 8 4 8 3 10 2h11l10-1 11-3 29-8" style="clip-to-self:true;comp-op:src"/>
<path transform="scale(.1)" d="m5124.1 6120.2 1-4 1-5 1-4 1 4v15l-1 9-1 10-1 12-2 14-4 32-4 34-3 17-1 17-2 16-1 14-1 15v25l1 10 2 10 2 8 2 7 5 10 4 3 3-9" style="clip-to-self:true;comp-op:src"/>
<path transform="scale(.1)" d="m5015.3 6306.1v-4l1-3 2-3 1-3 3-4 4-3 10-8 7-5 8-5 9-5 22-10 12-6 12-5 13-5 14-5 14-4 14-5 13-3 14-3 24-6 11-1 10-1h20" style="clip-to-self:true;comp-op:src"/>
<path transform="scale(.1)" d="m5266.4 6231.8-5-5-5-4-6-2h-5l-6 3-3 2-4 4-8 12-5 7-4 9-5 10-5 9-4 11-4 10-3 9-3 10-1 9-1 8-1 7 1 7 4 10 3 3 4 2h5 6l6-2 7-2 7-3 8-4 8-5 7-5 7-6 13-13 6-7 5-8 12-21 3-6 4-10 1-2 1-4 1 6v25 7l1 13 2 6 2 12 1 4 4 8 2 2 3 4h4l7-7 2-3 4-5 5-10 4-6 2-6 4-6 6-12 4-5 2-5 3-5 3-3 1-3 4-2 2 3 2 6v4 5 19l1 4v3l1 4 2 4 3 2 4-3 2-2 4-3 3-4 9-9 15-18 6-7 6-6 6-7 6-6 6-7 5-5 6-4 5-3 4-3 4-1h3l3 1 2 3 4 8 1 6 1 7v7 7l1 8v8 8l2 7 1 8 4 12 1 5 4 8 6 5" style="clip-to-self:true;comp-op:src"/>
<path transform="scale(.1)" d="m5621.2 6204.7 2 4 1 6v5l1 6v7l1 7 2 15 2 16 4 14 6 14 3 6 8 10 4 4 6 3 5 2 6 1h6l12-4 5-3 6-3 6-5 4-5 5-5 8-12 3-7 6-15 3-8 2-9 3-8 2-8 3-7 1-6 2-5 2-4 3-2 2 2 1 4 2 4 1 6 2 7 1 9 2 9 2 10 1 11 2 11 2 24 2 13 2 12 2 13 1 14 2 13 1 14 2 14 1 15v15 14l-1 16-1 15-4 32-1 16-3 15-4 15-3 13-5 12-4 10-6 9-6 8-8 6-7 6-8 4-9 4-9 3-9 2-10 1h-9l-8-1-9-2-8-2-7-4-6-4-6-6-4-7-3-7-3-8-1-9v-10l2-20 2-11 4-11 4-12 5-11 7-12 7-11 8-12 9-12 10-11 11-12 22-22 12-11 12-10 12-9 12-8 13-8 26-14 44-24" style="clip-to-self:true;comp-op:src"/>
<path transform="scale(.1)" d="m7078.2 5363.4-3-12-2-4-1-4-3-5-2-3-2 2-2 6-2 5-2 7-1 8-2 9-1 12-2 13-1 15-1 16v17 36 18l1 19v18l1 17v17l1 15 1 14 2 12 1 11 2 8 2 7 2 6 1 5 2 3 3 3 6-7" style="clip-to-self:true;comp-op:src"/>
<path transform="scale(.1)" d="m6943.9 5515.9-4-3-9-9v-3l4-3 3-2 5-2 7-3 8-3 9-3 10-4 12-4 13-5 28-8 15-6 15-4 14-4 14-5 13-3 12-4 12-3 18-4 8-1 6-1h6 4l6 2" style="clip-to-self:true;comp-op:src"/>
<path transform="scale(.1)" d="m7197.4 5510 5-6 3-4 2-4 1-5 2-4v-4-8l-1-3-2-4-4-2h-4-3l-5 2-4 2-6 4-5 4-6 6-12 14-5 8-5 9-4 9-3 10-2 10-2 9-1 9v9l1 9 4 14 2 5 4 5 3 3 10 4 12-2 7-2 14-8 7-5 6-6 18-21 4-8 5-7 3-8 4-7 3-8 8-16 2-5 4-6 1 3 1 6 1 4v6l1 5v7l1 7 1 6 1 7 1 6 2 6 4 10 1 4 2 3 3 3 5 3h5l3-2 5-5 4-8 2-5 1-5 2-6 1-6 2-6 1-7 1-6 2-7 1-7 3-7 2-6 3-6 3-5 3-4 3-3 4-2 3-1h3l3 1 3 2 4 4 2 3 3 5 3 6 6 14 1 8 2 8 2 7 2 8 2 7 1 6 1 5 2 4 1 3 2 3 4-3 1-3 2-4 4-12 4-14 4-16 3-8 4-17 4-8 3-8 4-9 4-8 5-8 6-7 6-6 5-4 6-4 6-1 4-1 5 1 4 3 4 4 3 5 3 6 2 7 2 8 4 18 1 9 3 30 2 10 1 9 2 9 1 7 3 6 2 5 6 5" style="clip-to-self:true;comp-op:src"/>
<path transform="scale(.1)" d="m7647 5493.9-3 2 6-1 5-1 5-2 7-2 8-2 10-3 10-2 22-6 12-3 33-6 18-4 8-2 7-2 15-3" style="clip-to-self:true;comp-op:src"/>
<path transform="scale(.1)" d="m7894.4 5393-2 4-2 3-1 3-2 4-2 8v5l-1 5v5l1 5v5l6 15 3 4 7 7 5 2 4 1 5 1h5l6-1 5-1 6-2 5-3 4-3 5-3 4-4 5-4 3-5 4-5 6-10 2-5 2-6 2-5 2-8 2-5 1 5 1 4v4l1 6v7 8l1 8v10 10l1 10v11l2 24v13l1 13v14l1 15v15 41 11l-1 11-1 9-4 16-2 6-4 6-9 9-5 4-6 3-14 6-16 2h-8l-8-1-9-1-8-1-7-3-8-3-7-2-6-4-6-5-5-4-4-6-2-6-2-7v-8l2-9 10-22" style="clip-to-self:true;comp-op:src"/>
<path transform="scale(.1)" d="m8126.2 5497.3-2-4 2-3 8-4 4-1 6-2 7-1 7-2 8-2 8-1 9-3 9-1 10-2 10-1 18-2 8-1 7-1h6l5-1h5l8 1" style="clip-to-self:true;comp-op:src"/>
<path transform="scale(.1)" d="m8161.4 5545v3 3h6 3 5l5-2 6-1 6-2 16-4 10-2 10-3 10-2 22-4 19-4 22-6" style="clip-to-self:true;comp-op:src"/>
<path transform="scale(.1)" d="m8549.6 5469.8-3-1 3-3 6-1 4-1 5-1 6-2 8-2 9-2 10-2 11-2 12-2 13-2 12-2 13-3 12-2 22-6 26-8" style="clip-to-self:true;comp-op:src"/>
<path transform="scale(.1)" d="m8815.3 5335.1-2-11 1 4 2 7v5 15 9l-1 11-1 12-2 13-1 14-2 14-1 14-2 15-1 14v14l-1 15 1 13v13l2 13 2 11 3 10 2 8 3 6 3 4 7 6" style="clip-to-self:true;comp-op:src"/>
<path transform="scale(.1)" d="m8737.9 5480 1-3 2-3 4-4 4-2 4-3 6-2 7-4 16-6 10-4 22-8 12-3 13-4 13-3 13-4 14-4 12-3 30-7" style="clip-to-self:true;comp-op:src"/>
<path transform="scale(.1)" d="m9000.7 5439-6-1h-4l-8-2h-5-4l-5 1-15 6-5 3-6 4-11 9-5 5-5 6-4 6-6 12-1 6-1 5 3 15 2 4 3 3 4 3 5 2 10 2h7l6-1 7-1 14-4 6-3 5-3 6-3 12-12 3-4 2-4 6-10 6-12 2-3 2-4 3-2 3 5v3l1 3 1 4 1 5v5 6l1 6v5 6l2 12v5l1 5v4l1 3 3 4 4 1 3-3 2-3 3-3 2-4 6-10 6-12 7-13 3-6 4-7 8-12 4-5 5-5 8-6 3-1 4-1 3 1 5 3 2 3 2 4 1 5 2 5 1 5v6l2 12 2 11v5l1 5 1 4 1 3 2 4h4l4-3 2-4 4-4 2-4 4-6 6-12 8-12 3-7 5-6 9-13 10-12 6-5 5-5 5-4 6-2 4-2h4l5 2 3 2 2 4 2 5 2 6 1 8v17l-1 10v10l-1 10v10l3 27 6 16" style="clip-to-self:true;comp-op:src"/>
<path transform="scale(.1)" d="m9360.2 5388.3v5l-1 3v5l-1 5-1 6-1 7v7l-1 8v14l1 8v6l2 7 2 6 3 7 2 6 4 5 3 4 5 4 4 3 10 2h6l5-2 6-1 10-6 5-4 5-5 8-10 4-6 12-28 2-8 2-7 2-6 2-5 1-5 2-6 3 2 1 6 1 5 1 6 1 7 1 8 3 19 2 10 2 11 2 12 4 26 4 30 1 16 2 17 2 34 1 16v17l-2 30-2 13-3 12-2 10-4 9-4 8-4 7-5 5-6 5-6 4-7 4-8 2-7 3-9 1h-7-9-8l-9-1-8-2-7-2-8-2-6-3-7-3-4-4-5-4-3-5-3-4-1-6v-6l1-6 2-6 4-7 5-7 7-8 8-8 10-8 11-10 13-9 14-10 15-11 34-24 43-28" style="clip-to-self:true;comp-op:src"/>
</g>
<path transform="scale(.1)" d="m7973.7 5831.9-1707 347 93 31-93-31 74-66" stroke="#7f7f7f" stroke-width="14.1" style="clip-to-self:true;comp-op:src"/>
</g>
</g>
</svg>
