<?xml version="1.0" encoding="UTF-8"?>
<svg width="1e3pt" height="1300pt" version="1.2" viewBox="0 0 1e3 1300" xmlns="http://www.w3.org/2000/svg">
<g id="surface15">
<rect width="1e3" height="1300" fill="#2e3436"/>
<g fill="none" stroke-linecap="round" stroke-linejoin="round" stroke-miterlimit="10">
<g stroke="#fff" stroke-width="14.1">
<path transform="scale(.1)" d="m743.12 1465.6v-3l-2 3-1 4-1 5-2 14-1 9-2 9v10l-2 22-1 12-4 44v9l-1 10v8l-1 7v6 5l-1 5v3 4l-2 4-3 1" style="clip-to-self:true;comp-op:src"/>
<path transform="scale(.1)" d="m716.76 1413-3-9-3-3h-6l-3 1-4 2-5 4-6 4-6 6-7 6-8 8-8 9-16 20-7 12-8 12-7 13-5 12-6 12-5 12-4 11-3 10-2 9-3 9-1 6v5l4 8" style="clip-to-self:true;comp-op:src"/>
<path transform="scale(.1)" d="m642.5 1740.2v-3-5l2-6 2-2 4-2 4-3 5-2 14-6 9-3 9-4 10-2 10-3 11-2 12-2 11-2 11-1 21-1 9 1h9l16 2 6 1 10 2" style="clip-to-self:true;comp-op:src"/>
<path transform="scale(.1)" d="m856.64 1355.7v-4-4l3-1 6 1 4 3 3 3 4 3 5 5 10 14 4 9 5 11 4 13 4 15 5 18 3 20 4 21 2 23 3 23 2 24 1 23 1 22v22l-1 22-1 21-1 20-2 19-3 19-4 18-4 15-5 16-5 13-7 13-6 12-7 12-8 10-7 9-9 9-16 14-9 5-8 5-8 4-8 2-7 1h-8l-17-6" style="clip-to-self:true;comp-op:src"/>
<path transform="scale(.1)" d="m1293.5 1573-1 3-2 3-2 5-3 8-2 9-2 11-3 12-2 14-4 30-1 15-1 16-1 15 1 15v15l1 14 2 11 2 10 4 9 3 7 4 5 5 3 4 2h5l6-1 6-3 6-4 7-5 6-7 7-8 14-18 7-10 6-10 12-22 5-10 8-20 3-8 3-7 1-6 2-8v4l-1 4v5l-1 7v8 9 9l1 9 1 10 2 9 2 8 3 8 3 6 4 7 10 8 10 4 7 1 5-1 7-2 6-2 6-5 5-4 6-6 5-8 4-7 4-9 2-9 2-20v-9l-2-22-2-9-1-10-2-7-3-7-2-5-3-3-3-2h-4l-4 1-5 3-5 5-5 6-5 8-5 9-5 10-5 11-4 11-3 11-2 11-1 9v8l1 8 2 6 3 4 4 3 12 1" style="clip-to-self:true;comp-op:src"/>
<path transform="scale(.1)" d="m1599.6 1630.7 3-5 4-4 4-5 2-5 2-3v-5l-3-1-5 1-3 3-8 6-9 9-4 6-4 5-3 6-2 7-1 6-1 7v7l4 14 3 7 3 6 5 7 4 6 10 12 6 5 10 10 4 5 6 10 2 5 1 5v6l-2 4-2 5-4 5-5 4-5 5-12 8-7 3-7 2-7 1-5 2h-6l-12-2-15-6" style="clip-to-self:true;comp-op:src"/>
<path transform="scale(.1)" d="m1817.5 1522.1-6-2-4-2h-5l-10 2-6 3-6 4-7 5-6 7-7 8-7 10-6 11-7 13-6 14-5 15-5 16-4 17-3 18-2 18-1 18v18l2 18 3 16 5 15 6 13 8 11 10 9 11 7 13 5 14 3 16 1 15-2 17-5 17-6 41-21" style="clip-to-self:true;comp-op:src"/>
<path transform="scale(.1)" d="m1978.5 1564.8-1-5-2-4-2 4v4 6l-1 6v30l1 8 2 18 1 8 2 8 1 8 4 14 5 10 3 5 2 2 3 2 9-3" style="clip-to-self:true;comp-op:src"/>
<path transform="scale(.1)" d="m2066.1 1534.2 1-3v4l1 6v4 5l-1 6v7l-1 7-2 16-2 9-1 10-1 9v10l-1 9v10l1 9v9l1 8 1 7v8l1 6v5l1 5 1 4" style="clip-to-self:true;comp-op:src"/>
<path transform="scale(.1)" d="m1880.7 1595.4-3-2-1-4v-4l4-5 3-4 4-3 12-10 8-5 18-12 22-14 26-16 13-7 14-7 13-7 14-6 13-4 11-4 11-3 9-1 7-1 6 1 4 1 5 5" style="clip-to-self:true;comp-op:src"/>
<path transform="scale(.1)" d="m2162.4 1485.5 3-3 3-4 3-5 2-4 4-6 3 3v9l-1 7-1 10-2 12-2 13-3 16-6 34-4 19-8 40-4 21-3 21-4 21-3 20-4 40-1 19-2 17-1 16v16 23 9l1 7 1 5 2 3 3-3 2-4 2-6 7-20" style="clip-to-self:true;comp-op:src"/>
<path transform="scale(.1)" d="m2231.9 1690.2 3-4 3-3 3-4 7-6 4-3 4-2 5-3 8-5 5-2 4-2 3-1 4-1h3l6 2 4 4 1 3 1 4v5 6l-2 7-2 8-3 9-4 9-4 10-5 10-6 10-5 9-6 9-10 16-4 7-4 6-3 5-2 4-4 6-1 4 1 3h4 6l10-2 6-2 7-2 7-3 8-2 14-4 8-3 6-1 6-2 8-2h5l3 1-2 2-3 2" style="clip-to-self:true;comp-op:src"/>
<path transform="scale(.1)" d="m2436.4 1645.4 6 3 3 2 4 1 5 2 6 1 7 1 16 2h18l18-2 17-1 15-2 7-1h5l6-1h11l-5 2-5 1-4-1h-4l-10-1" style="clip-to-self:true;comp-op:src"/>
<path transform="scale(.1)" d="m2659.6 1631.2 1-4 3-5 2-4 4-3 4-4 5-3 5-4 6-3 21-9 7-2 8-1 7-1h8 7l6 1 12 6 4 4 4 5 2 6 1 7v7l-1 9-4 18-3 9-4 10-8 16-3 8-4 7-4 5-3 5-2 3-3 3-3 2v-5l1-3 1-5 3-5 6-12 5-7 10-16 6-8 7-9 6-8 8-9 7-10 7-9 15-19 7-9 6-9 5-7 5-6 2-5 2-4-2 3-3 3-4 5-5 7-6 8-6 9-7 11-14 24-6 13-5 12-5 13-4 13-2 12-2 24 1 11 1 10 3 9 3 8 5 6 6 5 8 3 9 2 10 1 11-1 12-2 12-4 12-5 11-6 11-7 22-20" style="clip-to-self:true;comp-op:src"/>
<path transform="scale(.1)" d="m2922.6 1471.2 1-3 3-6 6-4 4-1 5-1h6 6l7 1 16 6 9 4 8 6 9 6 8 9 8 10 8 12 6 13 6 15 5 15 4 16 3 16 1 16v17 17l-1 16-3 16-4 16-5 15-5 13-5 12-6 11-7 9-6 8-7 7-6 5-7 4-6 3-5 2-6 1h-4l-4-2-4-3-3-12" style="clip-to-self:true;comp-op:src"/>
<path transform="scale(.1)" d="m3258.9 1617.8 3 2 5-1 8-2 5-1 7-2 6-1 8-1 8-2h8l7-1h14l5 1 4 1 4 2-2 6" style="clip-to-self:true;comp-op:src"/>
<path transform="scale(.1)" d="m3246.4 1694.1-3 4-3 3 2 4h6l12-2 8-2 10-2 10-3 12-3 13-3 14-4 42-9 12-3 13-3 11-3 23-8" style="clip-to-self:true;comp-op:src"/>
<path transform="scale(.1)" d="m3900.3 1496.2-2-5-2-4-2-5-4-3-4-2-5-1-5 1-6 3-13 13-7 10-7 12-8 14-8 15-7 16-12 34-4 17-4 16-2 16-1 15v13l1 13 3 11 4 9 6 8 6 6 8 4 8 3 10 1 11-1 11-2 13-3 13-5 13-4 13-7 13-6 12-7 10-8 11-8 8-8 7-9 6-8 4-8 3-8 2-8 1-6v-6l-2-4-1-3-3-3-6 1-4 3-4 4-5 7-4 7-5 10-4 10-3 11-2 12-1 12 1 11 1 10 4 9 5 9 5 7 7 6 8 5 8 3 10 2h10l11-2 10-2 22-10 10-6 10-8 8-7 7-9 6-8 5-9 3-10v-10-10l-1-10-2-11-3-10-5-11-4-9-5-9-5-8-6-7-6-4-7-4-7-1-7 1-8 2-7 5-7 6-7 7-12 18-4 10-3 11-1 11-1 10 2 10 6 18 5 7 5 6 18 9" style="clip-to-self:true;comp-op:src"/>
<path transform="scale(.1)" d="m4193.4 1624.7 5-5 3-6 4-6 3-7 1-5v-4l-1-4-4-4-2-1-7 1-4 2-4 3-5 5-3 5-4 5-3 6-2 7-1 6v6 7l1 7 3 8 3 6 5 8 4 6 5 7 4 7 5 6 4 7 8 12 3 6 1 5v5 6l-1 4-3 5-4 5-5 4-12 8-7 3-7 2-8 2-7 1h-7l-7-1-17-4" style="clip-to-self:true;comp-op:src"/>
<path transform="scale(.1)" d="m4448.8 1536.8-2 4-1 4v6l-1 6-1 7-2 18v9l-2 20-1 11v21 10l2 10 1 9 2 9 3 9 4 8 3 7 4 6 4 4 4 3 3 1h4l4-1 4-3 3-3 7-13" style="clip-to-self:true;comp-op:src"/>
<path transform="scale(.1)" d="m4535.9 1539.8v-3l2-5-1 5v5l-1 6v8l-1 8-1 10v10 10l-1 11v10 42 10l1 20 1 9 1 8 2 8 1 7 1 6 1 4 1 3" style="clip-to-self:true;comp-op:src"/>
<path transform="scale(.1)" d="m4369.2 1568.2v-4l1-3 1-5 4-8 3-5 9-9 7-6 6-5 8-7 8-6 9-7 10-6 11-7 11-6 12-6 26-10 28-10 14-4 15-4 42-9 13-3 13-2 10-1 22-3" style="clip-to-self:true;comp-op:src"/>
<path transform="scale(.1)" d="m4697.3 1410.9-1 3-1 4-1 5-2 6-2 9-2 10-3 12-3 15-4 17-4 19-10 40-5 22-6 22-5 24-6 23-5 24-5 23-5 21-4 20-4 18-3 17-2 15-2 14-1 12-1 10-1 9-1 7v10h4l6-13" style="clip-to-self:true;comp-op:src"/>
<path transform="scale(.1)" d="m4713.6 1681.2-5 2-5 1-3 1-4 2 3-4 4-2 5-3 6-3 7-3 7-2 8-3 8-2 7-2 8-1h6l7 1 5 1 5 2 3 3 3 4 1 5v7l-2 7-3 9-3 10-12 22-7 12-24 33-14 20-6 9-4 8-4 7-2 6-2 4v5l1 3 3 3 3 2 5 2 6 1h8 9l10-2 11-1 13-2 12-2 39-6 22-4 9-2 7-1 6-2 5-1 3-2" style="clip-to-self:true;comp-op:src"/>
<path transform="scale(.1)" d="m5175.4 1523 6-14 3-9 2-8 1-7 1-6v-4l-1-3-3-3h-3l-4 2-4 4-5 6-6 7-7 10-6 12-8 13-7 15-7 16-12 32-5 15-4 15-3 14-2 13v11 11l1 8 2 8 4 6 5 4 6 3 6 1 7 1 8-1 10-1 9-3 10-4 10-5 9-5 10-6 9-6 8-7 7-7 6-7 10-14 3-7 2-6 1-6v-5-3l-3-4-4 2-6 6-2 6-3 6-2 7-2 9v8 9l1 9 3 9 3 8 4 8 5 6 6 6 8 6 8 4 8 3 10 2 11 1 11-1 12-2 11-3 12-3 11-5 10-5 8-6 7-6 5-7 3-7 2-8v-7l-1-9-3-8-4-9-5-10-6-9-7-9-7-8-8-8-8-6-8-5-8-2-8-1h-8l-7 3-7 4-6 5-5 7-3 8-2 8-1 9 1 8 3 7 4 8 5 6 6 6 8 5 18 6 26 3" style="clip-to-self:true;comp-op:src"/>
<path transform="scale(.1)" d="m5476.7 1593.2 4-5 6-12 2-7 1-6-1-4-2-3-2-2-3-2h-3l-8 2-3 3-4 3-3 4-3 6-2 6-3 14-1 7 3 21 3 7 2 7 3 7 3 6 4 6 4 7 3 6 4 6 4 12v6 5l-1 5-6 10-5 4-6 4-6 3-7 3-14 4h-8-7-6l-7-2-5-2-5-3-9-11" style="clip-to-self:true;comp-op:src"/>
<path transform="scale(.1)" d="m5619.5 1638.9-7-7-2-4-1-3v-5-4l1-4 2-5 2-6 4-5 3-5 5-5 4-5 7-5 6-3 7-3 6-2 8-1h7l6 1 7 2 6 4 5 5 3 5 3 8 2 8 1 8-2 20-3 11-6 20-4 10-3 9-7 14-2 6-2 4-1 3-1-4 2-4 2-6 3-7 5-8 5-9 14-20 7-11 9-11 16-24 8-13 8-12 6-11 7-10 5-9 4-7 3-4 1-3-3 5-3 6-10 17-12 22-7 13-7 12-5 13-6 12-5 12-4 12-3 11-2 10v9l2 8 3 6 5 6 7 5 8 3 9 3 10 1 11 1h12l11-2 11-1 11-3 26-10" style="clip-to-self:true;comp-op:src"/>
<path transform="scale(.1)" d="m6246 1671.7 2-3 6-1h17l8-1h10l10-1 11-2 12-1 12-2 12-1 12-2 11-1h11 10 9 8 8 12 5l11-3" style="clip-to-self:true;comp-op:src"/>
<path transform="scale(.1)" d="m6790.6 1534.6v-8l-1-7v-9l-1-9-2-9-2-8-2-7-2-8-2-6-3-6-3-4-4-5-8-6-10-2-10 2-6 3-5 3-6 5-10 12-5 8-5 9-4 10-3 10-3 11-2 22 1 11 1 10 3 10 8 18 7 9 6 8 7 8 8 8 8 7 9 7 8 8 8 6 7 7 7 6 5 6 4 6 3 5 1 6v6l-3 6-3 5-5 5-12 8-14 6-8 2-8 3-16 2h-7-7l-6-1-5-1-4-1-3-2-1-5 2-4 4-6 5-6 17-18" style="clip-to-self:true;comp-op:src"/>
<path transform="scale(.1)" d="m6875.4 1612.2 3 4 3 3 3 5 1 5 2 6 2 14v8 8 8 8l-1 8v8l-1 7v7 18 5l1 4 1 5 4-2v-3l1-12" style="clip-to-self:true;comp-op:src"/>
<path transform="scale(.1)" d="m6898.4 1559.6-1-4 3 4 4 5 3 3 2 4 3 4 3 3 3 4 2 4 5 9" style="clip-to-self:true;comp-op:src"/>
<path transform="scale(.1)" d="m6956.4 1647.6 3 2 1 6 2 8 2 4v5l1 4 2 5 1 6 2 10 1 4 1 5v4l1 3 1 4-1-4v-9l2-10 1-7 3-7 3-8 10-16 6-9 6-10 8-9 8-8 8-7 8-6 14-7h6 6l5 2 4 3 3 5 3 6 2 7 1 8 2 8v9 19l-1 9-1 10-1 9-1 8-1 9-1 7-1 6v5 4l1 4 9-9" style="clip-to-self:true;comp-op:src"/>
<path transform="scale(.1)" d="m7318.5 1490.6v-8l2 4 1 4 1 5 1 7 1 8 1 10v11l2 24 2 26v13l1 12 1 13v12l2 22 1 9 2 8 1 7 2 5 1 4 3 4 3-1 2-2 2-4 2-5 6-14" style="clip-to-self:true;comp-op:src"/>
<path transform="scale(.1)" d="m7372.6 1555.3v-6l1-5 1-7v-5-5l1-4 3 1 3 5 1 4 2 5 1 6 1 7 2 8 1 8 1 9 1 10v10 22l-3 33-2 20-2 10-4 16-2 6-2 5-2 3-7 3" style="clip-to-self:true;comp-op:src"/>
<path transform="scale(.1)" d="m7240.9 1507.5-2-3v-3l3-3h6 4l4-1h5l5-2h6l6-2 7-1 9-2 9-1 20-4 10-1 11-2 12-2 22-6 29-9" style="clip-to-self:true;comp-op:src"/>
<path transform="scale(.1)" d="m7518.7 1435.5 1 4-2 5-1 4-2 6-1 7-2 9-1 11-2 12-3 14-3 15-3 16-4 17-4 18-10 36-4 18-5 18-6 19-4 18-6 19-4 18-5 16-4 15-4 13-3 12-2 11-2 8-1 7v6l-1 4 8-2" style="clip-to-self:true;comp-op:src"/>
<path transform="scale(.1)" d="m7541.7 1692.8-2-3v-3-4l7-7 8-4 5-2 4-2 5-1h4 5l12 3 4 2 3 3 2 4 1 5-1 6-1 7-3 9-4 9-5 11-6 10-7 12-7 11-8 11-7 10-8 10-7 10-6 8-5 8-4 6-3 6-3 4-1 5 1 3 2 3 4 2 5 2 8 1 9 1h10 11 13l12-1 13-1 13-2 12-1 12-2 20-6 8-3 11-8" style="clip-to-self:true;comp-op:src"/>
<path transform="scale(.1)" d="m7968 1529.9v-7-7l-1-9-1-8-4-16-3-7-2-8-3-7-3-6-4-6-4-5-5-5-5-3-6-2-5-2h-7-7l-7 1-7 2-7 3-8 4-7 5-6 5-7 8-5 8-5 9-3 10-2 11-1 11 1 11 3 11 10 22 16 20 18 20 10 9 11 8 10 9 10 8 8 8 8 7 7 7 5 8 4 7 2 6 2 7v7l-4 12-3 6-4 6-5 5-6 4-5 5-12 6-6 1-7 1h-5l-5-1-5-2-3-2-3-3-1-5v-5l1-6 3-7 10-20" style="clip-to-self:true;comp-op:src"/>
<path transform="scale(.1)" d="m8060.5 1576.9 3 3 2 5 3 6 2 7 1 8 2 9v10l1 10v10 30 9l-1 10-1 9v8l-1 7v21l1 3 3-5v-4-16" style="clip-to-self:true;comp-op:src"/>
<path transform="scale(.1)" d="m8055.2 1571.7 4 1 2 2 6 4 6 6 4 3 3 2 4 3 3 3 3 2 12 9" style="clip-to-self:true;comp-op:src"/>
<path transform="scale(.1)" d="m8153.4 1609.2 4 2 1 3 1 4 2 10v6l1 6 2 14v8l1 8 1 9 2 16v9l1 7v7l1 6v5 7l-2-4-1-3-1-6v-6l-1-7v-8l1-9v-10l2-10 3-10 3-11 5-10 6-10 7-9 7-8 9-8 18-10 9-3 9-2 9-1 8 1 7 2 7 4 6 4 5 7 4 7 4 8 2 8 2 10v10 10l-2 11-2 10-3 10-6 18-4 6-3 6-7 7" style="clip-to-self:true;comp-op:src"/>
<path transform="scale(.1)" d="m8398.7 1652.3-4-1-3-4 1-5 4-6 3-3 4-3 6-4 6-3 14-6 16-4 8-1h7l8 1 6 2 7 2 4 4 4 5 2 6 1 7v7l-1 8-3 9-3 8-4 8-4 9-5 7-5 8-5 5-4 5-4 4-3 1-3 2-2-1v-6l1-4 7-14 5-8 14-18 8-10 8-11 8-10 18-22 9-12 16-22 8-9 6-7 8-8 4-1-2 6-7 14-4 9-5 10-6 11-11 25-4 13-4 12-3 12-2 12v11l2 10 3 9 5 8 8 7 9 6 11 4 13 2 14 1 15-1 14-2 32-10" style="clip-to-self:true;comp-op:src"/>
</g>
<g stroke="#00c0ff" stroke-width="14.1">
<path transform="scale(.1)" d="m4160.4 1360 301-220-98 10 98-10-40 90" style="clip-to-self:true;comp-op:src"/>
<path transform="scale(.1)" d="m4585.7 1009.1-1-3v-3l-1-4-1-3-3-3h-3l-5 4-2 3-3 3-2 4-6 10-2 6-3 7-4 14-2 8v8l-1 9 2 16 1 9 6 14 4 7 5 6 5 5 6 4 7 3 8 3 8 2h9 10 10l30-6 18-8 7-4 7-5 5-5 5-6 4-6 2-6 2-7v-7-7l-1-7-2-7-12-21-12-14-7-7-7-6-16-12-18-8-9-3-10-2-9-2h-10l-9 1-18 4-7 4-19 13" style="clip-to-self:true;comp-op:src"/>
<path transform="scale(.1)" d="m3681.8 1857.1 1-3 1-4 1-3 2-3 2-2 4 2 3 4 5 4 2 2 3 4 10 10 10 8 5 3 6 5 6 4 7 4 14 10 16 10 7 6 8 5 27 18 18 10 10 6 10 4 10 5 10 4 11 3 10 4 10 3 9 3 10 3 18 4 8 2 24 3h15l8-1 7-1 16-2 8-2 18-4 30-9 11-3 11-4 12-4 12-3 12-4 26-8 14-5 15-4 32-8 18-4 17-3 54-9 16-2 17-2 14-1 15-1h13l24 2 11 2 10 2 9 3 8 4 8 5 14 10 14 12 7 7 7 6 22 22 8 7 8 6 9 6 8 6 9 4 8 5 16 8 7 4 6 4 6 3 5 3 4 3 4 2 3 2 5 4 2 3 1 3 3-1 2-2 5-2 3-1 2-1 4-1 3-2 8-2 4-2 4-1 4-2 10-3 10-4 6-3 6-2 6-3 7-4 7-3 8-3 9-3 8-3 10-4 10-3 10-4 11-3 12-2 24-6 26-4 14-2 14-1 15-1 14-1h49l51 3 15 1 16 1 42 6 13 2 14 3 13 2 13 3 14 4 13 3 14 4 13 4 14 4 13 4 14 5 28 8 15 3 15 2 16 3 16 1 16 2 16 1 15 1h15 15l14-1 26-2 24-4 24-6 11-4 12-3 11-5 11-4 10-5 11-5 10-6 11-5 10-6 11-6 11-7 10-6 11-7 11-6 11-7 20-12 9-5 9-6 16-10 12-8 10-8 8-6 3-3 3-2 3-5 3-3 1-4h-4l-4 2-5 1h-7" style="clip-to-self:true;comp-op:src"/>
<path transform="scale(.1)" d="m4695 2213.6-5-10-2-3-2-2-5-2-6 1-3 2-3 3-4 3-5 4-28 28-5 6-5 7-5 6-6 14-2 12 2 12 3 5 5 4 6 4 6 3 8 1 9 1h9l9-1 10-1 11-3 20-6 10-4 18-10 7-6 8-6 5-6 6-6 4-7 3-7 2-8 1-8v-8l-1-8-2-9-3-9-3-8-4-7-5-7-5-6-6-5-6-3-7-3h-7-8l-9 4-11 5-11 7-12 8-12 9-33 26" style="clip-to-self:true;comp-op:src"/>
</g>
<path transform="scale(.1)" d="m6316.4 1573.8-1-4-1-3v-4-3l-1 6v4 44 9l1 10v10l1 10 1 9 1 10 4 20 2 9 1 8 2 8 3 21v6l-1 14" stroke="#fff" stroke-width="14.1" style="clip-to-self:true;comp-op:src"/>
<g stroke="#00c0ff" stroke-width="14.1">
<path transform="scale(.1)" d="m7004.7 1377.7 363-253-99 8 99-8-42 89" style="clip-to-self:true;comp-op:src"/>
<path transform="scale(.1)" d="m7535.5 946.13-1-4-1-3-3-5-4-6-3-2-3 2-1 3-1 5-2 5-2 7-2 8-4 20-3 11-5 24-1 13-4 24-2 24v41l1 8v8l2 12 2 10 1 4 2 3 3 5 3 3" style="clip-to-self:true;comp-op:src"/>
<path transform="scale(.1)" d="m6665.1 1835.9-3-3h-4l-2 4v5 3 3l2 8 1 5 2 5 3 5 3 6 4 6 8 14 18 24 7 9 9 9 8 10 10 11 21 21 12 11 13 9 12 10 13 7 12 7 13 6 12 5 12 4 12 3 12 2 13 1h13 13l28-4 14-3 15-3 14-4 15-4 15-5 15-6 14-5 15-6 14-6 14-5 14-6 13-4 13-5 12-4 12-3 11-3 9-3 10-1 8-2 8-1h8l7-1 6 1h7l5 1 10 5 5 3 5 4 9 9 3 5 5 6 4 6 4 7 4 8 5 8 3 8 5 8 4 7 3 8 4 6 4 5 2 5 4 4 2 4 3 3 2 3 3 3 3 1 3-1 3-3 3-2 3-3 4-3 5-4 6-4 6-5 8-5 9-5 9-6 10-6 12-5 12-6 13-5 15-4 16-5 17-4 57-9 20-2 19-2 20-1h41l21 1 20 2 21 2 20 3 21 3 20 4 21 5 21 6 21 5 21 6 21 5 20 5 40 8 40 6 19 3 21 2 42 2h21l21-1 22-1 22-2 23-3 24-3 24-4 48-10 23-5 23-6 63-21 19-7 19-8 17-8 17-7 15-8 13-8 13-7 11-8 10-7 9-6 7-7 6-5 4-5 4-4 2-4 2-6v-9l-2 5-3 5-8 6" style="clip-to-self:true;comp-op:src"/>
<path transform="scale(.1)" d="m7470.4 2291.6 1-6v-16l-1-5-2-4-1-4-2-3-5-5-4-2-3-1-5-1h-11l-6 1-14 4-16 8-8 5-16 12-20 20-5 7-4 6-2 5-1 6v5l1 5 3 5 4 4 5 4 6 5 16 8 18 6 22 7 10 3 11 3 10 4 9 4 7 4 8 6 5 5 4 6 3 7 1 6-1 7-2 6-3 6-4 6-6 6-6 5-7 5-7 4-8 4-16 6-7 1-8 2h-6l-6 1h-5l-4-1-3-1-1-4 2-3 3-5 5-5 7-6 8-7 23-21" style="clip-to-self:true;comp-op:src"/>
<path transform="scale(.1)" d="m7561.4 2352.4 1 3-3 4-3 5-3 9-1 4v3 13 5l1 4 1 5 2 4 2 5 1 5 2 4 3 4 3 3 2 3 9 6 4 1 6-3" style="clip-to-self:true;comp-op:src"/>
<path transform="scale(.1)" d="m7589.6 2324v-3l1-5 6 8 3 6 4 6 3 3 2 3 5 6" style="clip-to-self:true;comp-op:src"/>
<path transform="scale(.1)" d="m7654.3 2357.1 1 3v5l1 6 2 6 3 12 2 4 3 9 1 5 2 4 1 4 2 3 3 9-3-4-1-5v-4l-1-4v-5l2-10 2-6 6-12 4-6 5-6 6-6 6-5 7-5 7-3 7-4 7-1 8-2h7 8l14 4 6 4 6 5 5 5 4 6 3 7 3 8 2 8 1 10 1 9v9l-1 9-1 8-2 8-2 7-2 6-4 10" style="clip-to-self:true;comp-op:src"/>
<path transform="scale(.1)" d="m8001.6 2324.4-5-2-3-2-8-6-1-3 2-3 4-4 6-5 5-2 4-2 6-2 12-2h6l6 1 5 1 6 2 8 6 4 4 2 12v7l-1 7-2 8-3 8-4 8-3 8-10 14-4 6-9 9-5 4-4 3-4 2-4 1-3 1-4-1-2-4 2-6 2-5 2-4 4-6 10-12 6-7 6-6 7-8 8-7 7-8 8-8 8-9 16-16 7-9 7-7 6-7 4-5 3-4 3-3 2-3-6 8-4 5-4 7-12 16-6 10-7 10-6 10-5 10-6 10-3 10-4 9-2 8v8l1 7 3 7 4 6 7 5 8 4 11 3 14 2 15 1 17-1 18-1 38-6 48-13" style="clip-to-self:true;comp-op:src"/>
</g>
<g stroke="#fff">
<g stroke-width="14.1">
<path transform="scale(.1)" d="m3358.5 2851.2-4 1 12-3 5-1 7-1 8-2 9-1 11-2 12-2 26-4 14-2 13-2 26-2 12-1 10-1h10l8 1h7l5 1 4 1 5 1-6 3" style="clip-to-self:true;comp-op:src"/>
<path transform="scale(.1)" d="m3354.7 2942.2 4 1h3 4 5l6-1 7-1 8-1 8-2 9-2 10-2 11-3 10-2 11-2 11-3 10-1 11-2 9-2 8-1 8-2 18-6" style="clip-to-self:true;comp-op:src"/>
<path transform="scale(.1)" d="m3758 2811.6 2-3 5-3 7-7 18-16 16-18 8-8 8-9 7-9 8-8 12-16 4-7 4-6 3-9v-4l-5-3-4-1-5 1-7 2-16 6-10 5-9 5-11 5-10 6-18 14-8 6-8 7-5 7-5 6-3 7v6 6l1 6 3 5 4 6 11 11 6 5 8 5 9 6 9 4 9 5 10 4 11 5 10 4 10 5 8 6 8 5 7 7 5 7 4 8 1 8v9l-2 9-8 20-7 9-8 9-8 8-30 18-9 4-18 6-8 1-7 1h-6l-4-1-4-2-1-3v-4l2-5 3-6 5-8 6-9 18-25" style="clip-to-self:true;comp-op:src"/>
<path transform="scale(.1)" d="m3894.1 2811.1 5-1h4l3 3 4 6 2 5 3 5 4 12 6 21 2 6 2 8 2 14 1 8 4 14 1 7 4 12 1 5 2 4 1 3 2 3 2-2 3-10" style="clip-to-self:true;comp-op:src"/>
<path transform="scale(.1)" d="m3954.9 2794.3-3-4-1-3-1-4 3-1 6 2 6 4 4 2 8 6 5 3 4 3 5 4 4 3 9 8" style="clip-to-self:true;comp-op:src"/>
<path transform="scale(.1)" d="m4025.8 2838.7-1-4 4 3 2 3 1 3 2 3 2 5 4 8 2 5 4 12 3 6 2 6 3 7 1 6 2 6 1 5 1 4 1 3 1 4-4-5-2-6-2-5-1-5v-6l-1-6 2-14 2-8 3-8 4-8 5-8 14-14 7-5 8-5 8-3 8-2 7-1h6 7l6 3 5 2 4 4 5 4 4 6 2 6 3 7 2 18v9 10l-2 11-1 11-2 11-1 10-2 9-1 8-2 17" style="clip-to-self:true;comp-op:src"/>
<path transform="scale(.1)" d="m4251.9 2876.2-6-6-2-3-1-3v-3l1-4 2-3 3-4 4-4 12-8 7-4 7-3 8-4 8-3 9-1 8-2h8 8 7l12 4 5 3 4 5 3 4 2 6 1 6v8l-1 8-2 9-3 9-8 20-8 18-5 9-3 7-3 6-3 4-1 3 2-6 3-5 4-6 6-8 5-8 14-18 7-10 8-10 7-11 8-10 8-11 7-10 7-11 7-10 6-9 5-8 4-6 5-10 1-4-4 1-4 2-4 4-5 4-5 6-5 7-6 8-6 9-5 11-5 12-8 26-3 15-2 14v14 15l2 13 4 12 5 11 6 10 8 8 9 7 11 6 12 4 13 2 16 1 16-1 18-4 47-11" style="clip-to-self:true;comp-op:src"/>
<path transform="scale(.1)" d="m1520.1 2803.4 1-4v-4l1-5v-4l-1-3v-5l-3-2-3 1-5 4-3 4-4 5-4 8-5 9-6 11-6 14-6 15-6 17-6 19-5 20-5 21-3 20-3 21-2 19v18 16l2 15 3 12 3 11 5 7 5 6 7 4 7 1 9-1 9-2 10-5 10-6 11-8 12-9 22-24 11-13 18-28 8-14 12-28 4-13 4-12 3-11 1-9 1-7 1-6v-5l-1-3-3-1-4 5-2 4-2 6-3 7-2 8-2 18v10 9l1 9 2 9 2 7 3 7 4 5 4 4 4 3 5 2h6 5l12-4 7-3 14-10 7-6 6-6 6-7 6-8 5-7 4-8 3-8 2-7 1-7v-7l-1-6-2-6-6-10-3-4-5-3-5-2-4-1h-6l-4 1-6 2-10 8-5 5-5 6-8 14-3 8-2 6-1 6 1 12" style="clip-to-self:true;comp-op:src"/>
<path transform="scale(.1)" d="m1824.2 2845.2 2-3v-3l1-4-1-4-4-3h-6l-3 1-8 4-4 3-5 3-3 4-4 4-4 5-3 5-2 5-1 6v6l1 5 2 5 3 6 4 5 5 5 4 5 12 8 6 5 7 3 6 4 6 5 6 4 5 4 4 5 4 4 4 10v5l-1 6-6 10-5 6-6 6-16 10-9 4-20 8-22 8-11 3-20 4h-8-7l-13-4" style="clip-to-self:true;comp-op:src"/>
<path transform="scale(.1)" d="m2070 2733.9-3-9-3-2-2-2-4-2h-6-4l-8 4-5 4-6 4-6 6-8 7-7 9-8 11-9 13-8 13-18 32-9 18-8 19-7 20-6 21-5 21-4 22-2 22-1 20 1 19 1 17 3 15 4 11 4 10 6 8 6 6 8 4 8 2 9 1 10-1 10-2 10-4 11-5 10-5 10-7 24-20" style="clip-to-self:true;comp-op:src"/>
<path transform="scale(.1)" d="m2126.5 2767.6-1-5-1-4 1 4v4 4 6 6l-2 16-1 10-2 11-1 11-4 24-1 12-1 11v12l-1 10v10l1 8 2 12 1 3 3 4 4-3 2-4 1-5 5-16" style="clip-to-self:true;comp-op:src"/>
<path transform="scale(.1)" d="m2168.2 2773.2 2-4 2-3 1-4 2-6 1 5v4 4l-1 5-1 6-2 14v8l-1 9-2 9-1 9-1 10v10l-1 19v19 8l1 7 1 5v5l1 3 1-6" style="clip-to-self:true;comp-op:src"/>
<path transform="scale(.1)" d="m2058 2798.6-1-5 1-4 3-5 4-3 4-2 5-4 6-3 6-4 7-4 8-4 9-4 8-5 10-4 10-5 10-4 22-8 11-3 20-8 10-3 19-9" style="clip-to-self:true;comp-op:src"/>
<path transform="scale(.1)" d="m2276.4 2687.4 1-3 1 5v4l-1 5-2 7-2 8-2 10-4 12-4 14-3 15-5 17-4 17-4 19-5 20-4 21-5 22-4 24-4 25-4 24-3 24-3 21-4 20-3 18-2 15-2 14-2 12-1 10-1 9-1 7v6 7" style="clip-to-self:true;comp-op:src"/>
<path transform="scale(.1)" d="m2289.3 2967.6-2-3-1-4v-5l1-4 4-5 3-3 3-2 3-3 12-6 5-1 4-1h5l4 1 8 4 4 4 2 4 2 6 2 7v8 10l-2 10-2 11-3 12-4 11-5 12-4 12-5 10-5 11-4 9-5 8-3 8-2 6-4 10-1 3 1 5 4 3 4 1 5-1h7l7-2 9-2 9-3 11-3 10-3 11-4 10-4 10-5 9-3 7-5 17-9" style="clip-to-self:true;comp-op:src"/>
<path transform="scale(.1)" d="m2490.1 2877.5-1-4v-3h4l7 1 4 1h5l6 1h7 7 8 8 8l9-1h9l9-1 8-1h9l9-1 15-1 7-1 6-1 6-2 11-4" style="clip-to-self:true;comp-op:src"/>
<path transform="scale(.1)" d="m2767.4 2835.3 12-4 4-1 10-2h5l5-1 6 1h5l6 1 5 2 5 3 4 3 3 5 2 6 1 7-1 8-1 9-2 10-3 11-4 11-5 13-4 12-5 12-4 11-4 9-4 8-3 7-2 4-1 4 7-7 5-6 6-7 7-9 8-10 27-33 9-12 8-11 8-12 9-11 7-11 6-10 6-9 4-8 3-7 3-4v-4l-4-1-2 2-4 3-5 4-5 5-5 7-6 8-12 18-6 11-5 11-5 12-4 13-3 12-2 12-1 12 1 10 2 10 4 8 5 7 6 4 8 4 8 2h10l20-4 20-10 22-17" style="clip-to-self:true;comp-op:src"/>
<path transform="scale(.1)" d="m2971.5 2726.2 3-2h6 4l10 4 7 4 6 4 7 5 8 6 7 7 16 18 8 11 8 12 7 12 7 14 6 14 6 16 5 17 4 17 4 38 1 20v21l-1 20-2 20-3 20-5 18-6 16-7 14-7 13-7 12-8 9-9 9-8 7-10 6-9 6-10 4-10 3-11 3-27 2" style="clip-to-self:true;comp-op:src"/>
<path transform="scale(.1)" d="m664.06 4042.8-2-3-4-8-2-5-1-5v-9l1-4 2-5 3-4 6-10 5-5 5-4 5-5 6-3 6-5 6-3 8-3 6-3 7-2h7 6 6l5 3 4 3 5 4 3 6 2 6 2 18v10l-2 10-2 11-3 12-5 12-4 12-6 11-5 12-7 10-5 10-7 10-5 7-5 8-4 6-3 4-3 5-4 6v4l3 3 6 1h4 5 6l7-1 7-2 8-2 9-2 8-2 8-1 7-2 8-1h6 6l3-1" style="clip-to-self:true;comp-op:src"/>
<path transform="scale(.1)" d="m848.48 3907.4-1-3-4-6-2-2-4-3-3-2-2 3 3 5 3 4 4 5 5 6 6 7 7 8 8 10 9 10 20 24 11 15 10 14 11 16 20 32 9 17 14 34 5 19 4 19 3 18v19l-1 18-3 17-5 16-14 30-9 13-10 13-11 12-24 20-12 9-12 8-12 6-11 5-11 4-11 3-9 1h-9l-8-2-17-9" style="clip-to-self:true;comp-op:src"/>
<path transform="scale(.1)" d="m1473.6 3982 2-10v-6l2-12v-11l-2-8v-4l-4-6-3-2-3-3-3-1h-4-5-5l-6 2-7 2-7 4-9 4-9 5-10 6-11 8-10 8-11 9-10 10-10 11-10 10-8 11-7 10-6 10-5 9-3 9-2 8v7l1 7 3 7 4 5 5 6 7 5 8 5 9 4 10 5 12 4 12 3 12 4 14 3 12 3 12 2 11 3 10 4 8 3 7 4 5 5 3 5 2 6v6l-1 7-3 7-4 7-4 8-6 7-14 14-8 7-8 6-9 5-9 6-10 4-9 4-10 3-9 4-9 2-8 3-7 2-7 1-5 2-5 1h-3l-2-3 6-10" style="clip-to-self:true;comp-op:src"/>
<path transform="scale(.1)" d="m1564.6 4079.9v3 53l3 27 1 10 2 11 5 22 3 11 1 9 3 10 2 8 3 7 2 7 3 5 3 4 2 4 4 1 4-5" style="clip-to-self:true;comp-op:src"/>
<path transform="scale(.1)" d="m1583.8 4058.8-1-5-1-3 4 4 3 5 1 3 4 5 7 5" style="clip-to-self:true;comp-op:src"/>
<path transform="scale(.1)" d="m1677.2 4103.6 2 3 1 6v4l1 5v6l2 14v9l1 8v9l1 9v9l1 8v8l2 14 1 6v4l1 5 1 3 1 4 2-3 2-7 1-5 4-12 2-7 3-8 3-7 4-9 3-9 5-9 6-10 6-9 7-11 8-9 9-9 8-9 9-7 8-5 7-4 7-3 7-1h5l5 1 4 3 3 3 3 5 2 5 2 6 2 16v17l-1 9v9 17 7l1 6v6l3 8" style="clip-to-self:true;comp-op:src"/>
<path transform="scale(.1)" d="m2028.8 3976v-4-4-10-4l-2-5-2-2-3-1-6 1-3 2-4 2-4 4-5 6-5 7-6 8-14 22-7 12-6 13-7 14-5 14-5 15-3 15-3 16-1 17-1 16 1 16 6 32 5 14 6 14 6 13 8 11 9 10 10 8 10 6 10 4 11 2 12-1 29-6" style="clip-to-self:true;comp-op:src"/>
<path transform="scale(.1)" d="m2152.9 4001.8v-4-3l1-5v-4l1-4 2-6 3-2 2 2 3 7 2 5 1 7 2 8 1 8 2 20 1 11 1 10 3 33 2 10 1 9 2 9 3 7 3 6 3 5 3 4 4 2 3 1 10-7" style="clip-to-self:true;comp-op:src"/>
<path transform="scale(.1)" d="m2239.5 3983.8 1-5v-3 4 15 7 8 8 69 11 10 11l1 10 2 18 1 7 1 6 1 5 2 4 1 3v-8" style="clip-to-self:true;comp-op:src"/>
<path transform="scale(.1)" d="m2064.7 3992.8 3-5 2-3 3-3 4-3 4-4 6-3 6-4 9-5 9-4 11-5 24-10 14-6 13-5 14-5 15-5 14-5 13-4 14-4 13-3 12-3 12-2 11-2 9-1h8 7 5l3 1 6 4" style="clip-to-self:true;comp-op:src"/>
<path transform="scale(.1)" d="m2432.6 3887.2-3 2-1 3-4 10-2 7-2 8-3 10-3 11-3 12-3 13-4 16-5 15-4 17-5 17-4 17-10 38-8 42-8 44-3 20-4 19-2 18-2 15-1 13v11 10l1 8 1 7 1 5 1 4h5" style="clip-to-self:true;comp-op:src"/>
<path transform="scale(.1)" d="m2468.5 4123-2-3-1-4 5-10 3-3 4-3 4-4 5-3 12-6 12-4 6-1h6l5 1 4 1 5 2 3 3 3 4 1 5 1 6v7l-1 7-2 9-4 9-3 11-10 22-7 11-6 12-7 10-6 11-6 9-5 8-4 7-3 6-2 5-1 4v3l2 4 3 2 5 1h6 7l8-1h9l11-2 11-1 11-2 12-2 12-3 12-2 11-1 11-2 18-2 6-1 4-1h3" style="clip-to-self:true;comp-op:src"/>
<path transform="scale(.1)" d="m2698 4071.7-4-2-3-2 3-1 5-2 4-1 5-1 7-1 7-2 9-1 10-2 11-2 11-1 12-2 60-5 10-1h10 13 5l3 1 4 1h-5" style="clip-to-self:true;comp-op:src"/>
<path transform="scale(.1)" d="m2950.9 3992.4-3-3v-4l2-3 8-6 3-1 4-2 15-3h6l6 1 5 1 6 2 5 3 8 8 3 6 3 7 1 6v8l-1 9-2 8-3 10-3 9-4 9-5 10-5 9-10 16-8 12-4 4-3 4-4 3-2-1v-4l1-3 1-4 3-5 8-12 5-6 6-7 6-8 7-8 8-8 7-8 7-9 8-9 7-9 7-8 6-8 6-6 4-6 4-4 2-3v3l-3 4-3 5-4 6-4 7-5 7-8 16-4 9-9 27-1 9-1 8v9l2 8 3 7 3 6 5 6 5 4 14 6 18 2 9-1 20-2 20-6 8-4 19-12" style="clip-to-self:true;comp-op:src"/>
<path transform="scale(.1)" d="m3126.2 3869.9 6-1 4-1h5l12 2 7 2 16 6 10 4 9 6 10 6 10 8 9 8 9 11 8 12 6 14 7 15 8 34 3 18 1 19v18l-1 19-2 19-3 19-4 19-4 18-6 19-6 18-7 18-7 16-7 15-8 14-7 11-7 10-8 7-6 6-7 5-7 3-6 2h-6l-5-1-12-8" style="clip-to-self:true;comp-op:src"/>
<path transform="scale(.1)" d="m3599.5 4071.2 5-2 6-1 5-1 6-1 14-2 9-1 10-2 20-2 11-2h12l36-3h12l11-1h10l10 1h8l7 1 5 1 3 1-3 5" style="clip-to-self:true;comp-op:src"/>
<path transform="scale(.1)" d="m3603.3 4189.8-6-4-4-2-5-5-1-3 3-1h16l6 1h37l12-1h12l26-2h14l13-1 14-2 13-1 12-1 10-1h10 26 4l4 2v3l-3 4-4 3-3 1-7 2" style="clip-to-self:true;comp-op:src"/>
<path transform="scale(.1)" d="m4279.2 4071.7 1-5 1-4v-6l-1-5-2-4-2-3-3-2-2-1-3-2h-4-4l-5 2-6 2-6 4-7 5-8 6-7 8-9 10-8 11-9 12-16 28-8 15-7 16-6 17-8 34-2 17-1 18v16l2 15 2 13 4 11 5 10 7 8 7 6 8 5 9 4 10 2h11l13-1 12-2 28-8 14-6 13-6 26-14 22-18 20-20 8-11 7-11 7-12 5-12 4-10 3-9 2-8v-6-4l-4-3-3 1-3 3-3 4-4 7-4 8-3 9-4 10-2 11-2 12-1 11 2 22 6 20 5 8 5 7 7 5 8 3 8 2 9 1 9-1 10-3 10-4 11-5 9-6 9-7 7-7 7-9 5-8 5-9 2-10 1-10v-10l-1-10-2-10-6-20-3-8-5-8-4-6-6-5-6-3-7-2h-7l-7 1-8 2-7 4-7 3-5 5-6 5-3 6-3 5-2 5 2 10 2 4 3 4 12 6" style="clip-to-self:true;comp-op:src"/>
<path transform="scale(.1)" d="m4629.8 4135.5-6-6-8-2h-4-4l-5 1-4 2-6 2-4 2-6 4-5 3-5 4-4 5-4 4-3 5-2 5-1 6 1 5 1 6 2 6 4 6 3 6 10 12 6 5 5 5 7 5 6 5 7 4 6 4 6 5 8 8 3 4 2 3 1 4-1 3-2 4-8 8-14 8-8 4-17 7-18 6-8 2-7 2-7 1h-6-5-4l-4-4v-3l2-4 9-13" style="clip-to-self:true;comp-op:src"/>
<path transform="scale(.1)" d="m4858.8 4006.6 2-7 2-6 2-8 4-14 1-6 1-5 1-4v-4-5l-3-2-5 3-8 8-5 6-6 9-7 10-8 13-9 13-9 16-9 17-8 16-9 19-8 18-7 18-7 19-6 19-5 19-3 19-3 18-1 18 1 17 3 16 4 16 5 14 7 12 8 11 11 8 11 7 13 4 15 3 15 1h16l17-2 17-3 17-4 16-5 15-5 13-6 12-6 20-16" style="clip-to-self:true;comp-op:src"/>
<path transform="scale(.1)" d="m5055.2 4067.8 1-5-1-3v-3 7l-1 5v6 8l-2 18-1 11v11 35 11l1 11 4 20 4 16 3 6 4 5 3 3 4 2 4 1h4l5-1 5-3 4-3 4-5 4-7 10-19" style="clip-to-self:true;comp-op:src"/>
<path transform="scale(.1)" d="m5151 4050.6v5 23 7l1 6 1 8 1 7 1 9 1 8 2 8 2 9 1 9 2 9 1 8 6 24 2 6 1 6 2 5 1 3 2 4-3-4" style="clip-to-self:true;comp-op:src"/>
<path transform="scale(.1)" d="m4992.4 4102.7v-4l1-5 5-4 4-2 10-4 6-3 7-3 8-3 18-8 11-6 11-5 13-5 14-6 16-6 32-14 17-7 16-7 15-6 13-6 12-4 21-9" style="clip-to-self:true;comp-op:src"/>
<path transform="scale(.1)" d="m5296.1 3981.2 3 3 1 3v5l1 6v9 9l-1 11-1 12-1 14-2 14-3 15-6 32-4 17-8 36-4 19-4 20-3 21-6 40-3 18-2 16-2 14-2 12-1 12-1 9v7l-1 6v5 3l2-7" style="clip-to-self:true;comp-op:src"/>
<path transform="scale(.1)" d="m5343 4220.4 1-3 6-3 5-3 5-1 6-2 6-1 7-1 6-1h7 7 6l7 1 10 4 4 4 4 5 2 5 2 7v8l-1 8-2 10-3 10-4 12-4 11-24 48-6 10-7 10-5 9-4 7-4 6-3 6-2 5-2 3v3l1 5 5 3 4 1 10 2h7l8-1 18-2 10-1 29-2 24-3 7-1 6-1 5-2 9-4" style="clip-to-self:true;comp-op:src"/>
<path transform="scale(.1)" d="m5619.5 4192-2 3-2 2 1 4 4 2 4 1h5l6 1h16l10-1h12l12-1 28-2 14-2 14-1 14-2 13-1h12 12l10-1h9l7-1h6l3-1" style="clip-to-self:true;comp-op:src"/>
<path transform="scale(.1)" d="m6075 3991.1-1-3v-4l-1-4-2-4-1-4-2-4-2-3-2-2-2-3-4-3-5-2-5-1-5 3-7 7-4 7-4 9-5 11-5 13-6 16-6 17-5 18-6 18-5 19-4 19-4 20-3 18-2 19-1 18 1 18 1 17 3 17 4 15 5 15 5 13 7 11 8 11 9 10 10 8 11 7 11 5 11 4 11 3 12 2h11 10l18-4 8-3 17-9" style="clip-to-self:true;comp-op:src"/>
<path transform="scale(.1)" d="m6238.8 4067.8-1 4v4l-1 5-2 6-1 8-2 9-8 44-1 11-1 12-1 11-1 10v11l1 9 2 16 1 5 2 5 5 5 8-2" style="clip-to-self:true;comp-op:src"/>
<path transform="scale(.1)" d="m6278.6 4070.4-2 4-1 5v23l1 7v8l1 8v8l2 18v9l4 36v9l1 9 1 7v7l1 6v5 3" style="clip-to-self:true;comp-op:src"/>
<path transform="scale(.1)" d="m6170.3 4094.1-2-2-2-3 1-4 6-3 3-2 4-3 6-2 5-4 7-3 16-8 10-4 22-8 12-5 13-4 14-5 13-5 14-6 13-5 12-6 28-13" style="clip-to-self:true;comp-op:src"/>
<path transform="scale(.1)" d="m6425.6 3995v4l1 6 1 5v6 27l-1 11-1 12-2 26-2 14-2 15-4 32-3 17-12 72-4 17-6 34-9 45-1 14-2 14-2 12-1 11-1 8v7 7" style="clip-to-self:true;comp-op:src"/>
<path transform="scale(.1)" d="m6478.8 4244.6-1-4v-5l1-3 4-3 6-2 4-1 8-1h5l4 1 5 1 5 2 8 6 4 4 2 5 2 7 1 7v9l-2 10-2 11-4 11-4 13-6 13-11 27-6 13-6 12-5 11-9 18-3 7-3 5-1 4-1 3 2 5 5 3 4 1 5 1h6 7l9-1 8-1 11-1h10l40-4 9-1 8-2 7-1 15-4" style="clip-to-self:true;comp-op:src"/>
<path transform="scale(.1)" d="m6633 4194.6 8-2 5-1 12-2 18-2 10-2 22-2 12-2h12l11-1 12-1 22-2h10 9l8-1 7-1h5l12-2" style="clip-to-self:true;comp-op:src"/>
<path transform="scale(.1)" d="m6913.8 4141.1 3-1 6-1 3-1h5l4 1h5l4 1 10 2 10 4 5 3 4 4 3 4 2 5 1 6 1 7v7l-1 8-2 8-1 8-3 8-3 9-3 8-3 7-2 7-3 5-3 4-2 4-3 4-3 1v-3l2-6 2-4 3-5 3-6 4-6 10-14 6-8 6-7 14-18 6-9 14-18 6-9 5-10 10-16 3-7 2-5 2-3-4 1-7 7-3 4-5 6-4 6-5 8-4 7-8 18-6 20-2 10-1 10v10 10l1 10 2 9 3 8 5 7 5 6 6 5 6 3 8 2h8l8-2 8-3 22-10" style="clip-to-self:true;comp-op:src"/>
<path transform="scale(.1)" d="m7135 4013.5 4 1 5 2 6 2 8 3 7 4 8 4 18 12 8 8 9 8 8 10 8 12 6 12 7 13 4 13 5 14 3 15 2 15 2 32-1 15-2 16-2 15-3 15-10 28-12 26-7 12-7 10-8 11-9 9-9 8-8 8-8 7-8 6-7 5-6 4-5 3-5 1h-4l-3-6" style="clip-to-self:true;comp-op:src"/>
<path transform="scale(.1)" d="m7301.7 3938.5 4-1h4 4 6l7 1 8 2 10 2 10 3 24 6 13 5 14 4 14 6 13 8 14 8 14 10 14 11 14 12 13 14 12 15 11 15 9 17 8 17 6 18 5 18 3 19 1 19 1 20-1 19-4 36-3 17-4 16-5 15-6 14-14 26-8 12-8 10-9 10-18 16-10 7-10 5-9 5-10 5-10 4-9 3-10 3-9 3-8 1-14 2-4-1-6-1" style="clip-to-self:true;comp-op:src"/>
<path transform="scale(.1)" d="m3648.3 4868 2-3 3-1 5-2 4-1 5-2 7-1 7-2 8-2 22-4 12-3 13-2 28-6 15-2 14-2 15-2 14-2 26-2 12-1 10-1 9 1 8 1 6 1 5 1 3 2 3 4-5 4-4 3-5 2-6 3-7 2-22 6" style="clip-to-self:true;comp-op:src"/>
<path transform="scale(.1)" d="m3659.8 4927.5-3 3-2 3 3 2 6 2h4l5 1h7 8l9-1 10-1h11l11-2 12-1 12-2 13-1 12-2 13-1 12-1 12-2 11-1 12-1 11-1h10 10 8l7 1 6 1 5 1 4 2" style="clip-to-self:true;comp-op:src"/>
<path transform="scale(.1)" d="m4342.9 4792.1-4-1h-6l-4 1-3 2-4 3-10 10-6 7-6 9-7 11-8 12-7 15-8 16-9 17-7 18-12 40-5 20-6 42-1 19-1 17 1 16 2 14 3 12 4 10 5 9 5 7 6 6 6 4 7 3 7 2h8l8-1 8-2 9-2 9-4 8-5 8-4 9-6 8-6 7-7 8-7 7-8 12-16 5-9 8-14 3-6 3-9 1-4-2 8v5l-2 14v8 8l1 9 2 9 2 7 4 8 4 6 6 6 7 5 7 4 9 3 10 1 9 1h11l10-1 22-6 10-4 20-12 9-6 7-7 6-8 5-8 3-8 2-9v-9l-1-9-2-9-3-9-4-10-4-8-5-9-4-7-5-7-6-5-6-4-6-2-7-1h-6l-7 1-7 3-6 3-6 4-10 10-3 6-2 6v6 6l1 6 3 6 8 10 6 3 16 6" style="clip-to-self:true;comp-op:src"/>
<path transform="scale(.1)" d="m4698.8 4947.7-6-6-8-2h-4l-8 3-3 2-4 3-3 4-2 3-2 5-2 10 2 12 2 6 4 7 5 7 4 7 6 6 6 8 6 6 5 7 6 7 4 6 5 6 4 5 3 5 2 5 2 8-1 3-2 3-6 6-6 3-6 2-8 1-18 4-9 1-30 3h-20l-16-2-15-7" style="clip-to-self:true;comp-op:src"/>
<path transform="scale(.1)" d="m4950.3 4741.2-2-2-2-3-3-2-8-4-3-1h-5l-4 1-5 1-5 2-5 3-12 10-7 7-6 9-8 11-7 12-8 14-7 15-8 18-6 19-6 20-4 22-5 22-3 22-2 23-1 23v22l1 22 2 21 5 18 5 15 7 13 8 10 9 8 11 5 11 4 12 3 13 1 12 1h13l12-1 13-1 22-6 25-9" style="clip-to-self:true;comp-op:src"/>
<path transform="scale(.1)" d="m5149.1 4797.7v-4l-1-5 3 6v4l1 6v8l1 9v10l-1 12v14l-2 30-3 48-1 15-1 14v12 12l1 10 2 14 2 5 1 3 5 3 3-1 3-3 7-11" style="clip-to-self:true;comp-op:src"/>
<path transform="scale(.1)" d="m5210.4 4809.8 3 1 3 7 2 5 1 6 1 7 2 7 1 9 2 9 3 19 1 11 1 10v11l1 10v11l1 10v10 9 34 4" style="clip-to-self:true;comp-op:src"/>
<path transform="scale(.1)" d="m5081.5 4817.1v-3l1-4 6-4 4-2 6-2 14-7 8-3 10-4 10-5 11-3 12-5 13-4 13-3 13-4 14-3 13-3 28-4 26-4 27-3" style="clip-to-self:true;comp-op:src"/>
<path transform="scale(.1)" d="m5400.5 4772.3-3-2-4 4-2 3-2 4-2 6-4 7-4 9-4 11-4 12-5 14-5 16-5 17-5 19-6 20-5 22-6 24-5 24-6 25-4 24-5 23-4 20-3 19-2 16-2 15-1 13v12 26 5l1 4 2 2 7-3" style="clip-to-self:true;comp-op:src"/>
<path transform="scale(.1)" d="m5414.4 5032.7 1-4 2-4 2-5 3-2 3-3 4-2 4-3 5-2 5-3 5-1 5-2 5-1 11-1 10 2 4 1 4 2 3 4 2 3 2 5v6 7l-2 7-2 9-4 9-4 10-5 11-6 10-5 10-6 9-10 16-8 12-2 5-2 4-2 3 1 4 3 3 8 2h12l16-2h9l9-2 20-2 9-2 8-2 8-3 19-7" style="clip-to-self:true;comp-op:src"/>
<path transform="scale(.1)" d="m5654.9 4957.2 3-2h6l3 1 5 1h5l6 1h7 8 8l10 1h20l11-1h11 10 32 5l5-1 4-1" style="clip-to-self:true;comp-op:src"/>
<path transform="scale(.1)" d="m5983.5 4848.6v-10l1-4v-5-3l3 2 1 3 2 8 2 12v7l1 8v8l1 9 1 10 4 36 2 9 4 16 1 7 2 5 1 5 2 4 1 4" style="clip-to-self:true;comp-op:src"/>
<path transform="scale(.1)" d="m6052 4814.9v-3l3 4 2 3 1 5 2 4 1 5 2 6 1 7 1 6 2 8 1 8 4 18 1 10 2 9 1 10 2 9 3 19 1 9 1 10 1 8v7 18l-1 3-3 3-8-1" style="clip-to-self:true;comp-op:src"/>
<path transform="scale(.1)" d="m5882 4823.6-4-8-2-5-2-3v-4-3l4-5 4-2 6-2 7-3 9-3 10-3 11-4 12-3 13-4 28-6 16-4 16-3 34-6 19-4 17-3 18-3 16-4 15-4 32-9" style="clip-to-self:true;comp-op:src"/>
<path transform="scale(.1)" d="m6265.2 4719.2 3 2 1 6-1 5-1 6-1 8-2 9-3 10-6 24-5 14-4 16-4 17-5 17-4 19-5 20-4 20-4 21-5 21-4 21-6 42-2 20-2 17-1 16v23 10l1 8 2 7 1 5 2 5 2 2 5 2" style="clip-to-self:true;comp-op:src"/>
<path transform="scale(.1)" d="m6331.7 5029.6-8-4-4-1-3-2 2-2 6-3 3-2 6-2 5-2 6-1 7-2h6l6-1h6l10 2 3 2 4 3 2 3 2 4v6l-1 6-3 8-4 9-4 10-7 10-6 10-7 11-9 10-14 18-7 8-6 8-5 6-4 6-3 5-2 4-1 4v3l1 4 6 3 4 1 6 1h15l20-2h11l10-1 33-3 9-2 10-2 22-7" style="clip-to-self:true;comp-op:src"/>
<path transform="scale(.1)" d="m6498.4 4951.6-1-3v-3l3-3h47 8 28l9 1h18 8 8 8l8-1 12-2 11-4" style="clip-to-self:true;comp-op:src"/>
<path transform="scale(.1)" d="m6592.8 4847.3v-8l1 4v3 5l1 5v6l2 16 2 18 1 10 2 11 3 11 3 12 3 11 3 13 8 26 3 14 4 13 5 13 12 27" style="clip-to-self:true;comp-op:src"/>
<path transform="scale(.1)" d="m6890.7 4916.2-4-1-3-2-2-2v-5l3-4 2-2 3-2 4-3 10-5 5-2 12-4 7-1h6 6l6 1 5 2 4 3 4 4 3 4 2 5 1 6v8l-1 8-2 9-4 9-8 20-5 10-4 10-5 10-5 8-4 7-3 6-3 5-2 3 6-8 8-12 12-16 6-9 7-9 14-20 6-10 7-10 6-10 7-10 5-11 5-10 5-9 7-14 2-5v-4l-3-1-6 6-4 5-4 7-5 8-4 9-5 10-3 10-4 11-2 11-1 12v11l1 11 3 10 4 10 6 9 7 7 9 7 10 5 12 4 11 2 13 2 13-1 35-4" style="clip-to-self:true;comp-op:src"/>
<path transform="scale(.1)" d="m7119.7 4718.4h3l2 2 5 2 5 4 6 4 7 6 9 6 20 14 11 8 22 20 11 11 12 11 11 13 10 14 10 15 8 16 9 17 6 18 6 19 4 18 2 19 1 20v20l-3 19-3 20-10 38-7 17-8 14-9 14-10 11-10 10-10 8-12 7-11 6-12 4-12 2-26 1" style="clip-to-self:true;comp-op:src"/>
<path transform="scale(.1)" d="m1795 5791 2-3 5-10 2-5 4-12 2-7 2-6 4-14 1-6 1-7v-7-6-5l-2-10-2-4-5-5-4-2h-4-5l-6 1-7 2-8 3-18 9-9 6-10 6-10 7-16 16-8 9-6 9-4 9-3 10-3 8v9l1 8 2 7 3 8 5 7 6 6 8 6 9 5 10 5 12 5 12 4 13 5 12 5 13 5 22 10 10 6 9 7 7 7 6 7 4 7 3 8 2 8v8l-2 8-2 7-4 7-5 7-6 7-7 5-7 6-8 5-9 4-10 4-9 3-10 3-20 4-9 2-9 1-7 1h-11l-4-1-2-3 4-5 4-3 6-4 8-6 23-16" style="clip-to-self:true;comp-op:src"/>
<path transform="scale(.1)" d="m1964.6 5869-1 5 1 3 1 4v4l1 5 1 6 1 5 2 6 1 6 1 7 4 14 1 7 1 8 2 8 1 7 1 8 1 6 2 10 1 4 1 3-2-6" style="clip-to-self:true;comp-op:src"/>
<path transform="scale(.1)" d="m1963.2 5811.6 4 3 2 3 2 4 2 5 6 12 5 8" style="clip-to-self:true;comp-op:src"/>
<path transform="scale(.1)" d="m2025.9 5847.9-1 4v7l2 12v7l1 6 7 49v7l3 21v6l1 5v6 4 6l-3-3-1-5v-4-5-5l1-6 1-8 2-7 3-8 3-9 4-9 5-8 5-9 6-9 7-8 7-7 6-5 7-4 5-3 6-2h5l5 1 4 2 4 3 4 4 2 5 2 6 1 7 1 8v17l-2 18-2 20-3 27-1 8v12 5l1 4 3 3 5-2 7-8" style="clip-to-self:true;comp-op:src"/>
<path transform="scale(.1)" d="m2319.1 5681.4h-4l-4 2-4 5-2 5-3 5-3 7-3 9-4 10-4 12-3 13-4 14-6 32-2 17-2 18-2 17-1 18v18 17l2 18 4 18 4 16 6 16 6 13 8 11 9 9 10 8 10 5 11 4 12 2 12 1 12-1 13-2 13-3 12-5 30-18" style="clip-to-self:true;comp-op:src"/>
<path transform="scale(.1)" d="m2515 5740.9 2 4 2 6v5l1 5v5l1 7v16 10 9l1 10v10 11l1 10v10l1 10 1 9 1 8 2 7 4 10 6 2" style="clip-to-self:true;comp-op:src"/>
<path transform="scale(.1)" d="m2592.1 5718.5 1 5v5l-1 6v16 9 11l-1 21v31 10l2 18 2 16 1 7 1 6 1 5 1 3" style="clip-to-self:true;comp-op:src"/>
<path transform="scale(.1)" d="m2435.5 5768.6 3-5 7-7 5-3 6-4 14-8 19-10 9-4 10-6 10-4 20-10 11-5 10-4 10-5 11-4 10-5 26-12" style="clip-to-self:true;comp-op:src"/>
<path transform="scale(.1)" d="m2737.7 5645.7h-5l-3 2-3 7-1 4-2 6-1 7-2 8-2 9-1 10-2 11-2 12-1 14-3 15-2 17-2 18-3 19-3 18-3 19-4 18-3 18-2 17-4 32-2 14-1 14-1 13-1 11-1 10v8l-1 6v5 4" style="clip-to-self:true;comp-op:src"/>
<path transform="scale(.1)" d="m2771.2 5890.5-2-4-3-5v-5l2-5 2-2 2-3 8-6 5-3 6-2 6-3 6-2 7-1h7 6l7 1 6 2 5 3 5 4 4 5 3 6 2 6 1 7v8l-2 9-3 9-4 10-5 11-6 10-6 11-21 30-6 8-6 7-5 7-4 5-7 7-4 6 3 1h7l5-1 7-1 8-1 10-2 22-4 24-4 13-2 22-4 10-2 9-2 8-2 15-3" style="clip-to-self:true;comp-op:src"/>
<path transform="scale(.1)" d="m2995.4 5869.4h-4l-4-1 5 1h4 11 7l27-3 11-1 10-1 12-1 10-1 11-1 20-2 9-2 8-2 9-2 17-6" style="clip-to-self:true;comp-op:src"/>
<path transform="scale(.1)" d="m3201.9 5821.6 2-4 4-4 3-2 4-2 10-4 5-1 5-2 6-1 5-1h10l4 1 5 1 4 1 4 2 3 3 3 4 1 5 2 6v6 7l-2 7-1 8-6 14-4 8-4 7-4 6-5 6-4 4-4 5-3 3-3 2-3 3-2-4 5-10 3-5 4-6 5-6 5-7 12-16 7-8 7-9 6-9 7-9 6-11 7-10 5-10 6-9 4-9 3-7 3-6 2-3v-3l-4 4-2 5-4 5-3 7-5 8-4 9-5 9-4 10-3 10-4 11-4 20-1 10v10l1 10 2 8 3 9 4 8 5 6 6 6 7 5 7 4 18 4h9l10-2 9-2 9-3 19-11" style="clip-to-self:true;comp-op:src"/>
<path transform="scale(.1)" d="m3391.6 5674.1 4-2 4-1h5l5 1 6 1 7 3 6 4 8 4 14 12 8 7 8 8 14 20 7 13 7 12 6 15 10 30 4 17 3 16 2 17v16 17l-1 16-3 16-3 15-4 14-5 14-5 12-6 11-7 11-6 9-8 8-7 6-7 5-19 9" style="clip-to-self:true;comp-op:src"/>
<path transform="scale(.1)" d="m3794.9 5846.6 4 1h5l5-1h7l8-2 9-1 10-2 11-1 12-2 12-1 13-1h13l12-1 12 1 11 1 9 1 8 2 7 2 4 3 3 4-3 10" style="clip-to-self:true;comp-op:src"/>
<path transform="scale(.1)" d="m3838.5 5942.3 5-1h4l3-1 12-2h7l9-1 20-2 12-2 13-1 13-2 28-2 14-2 14-1 13-2 12-1 24-5" style="clip-to-self:true;comp-op:src"/>
<path transform="scale(.1)" d="m4408.5 5763.7-4-1-5 2-3 3-4 3-4 4-4 6-5 7-5 8-5 10-6 10-10 24-5 14-4 14-4 15-2 15-3 14-1 14v13l2 22 3 10 2 8 4 8 4 6 4 5 5 5 5 3 6 1 6 2h7l7-1 8-2 16-6 7-3 16-10 14-10 6-6 10-12 4-6 4-7 2-6 3-6 1-5 1-4 2-6-2 5-1 4v9l1 5v6l2 6 1 5 3 6 2 6 8 10 15 9 12 2 7-1 6-1 7-1 6-2 12-8 5-4 10-12 2-7 3-6 1-8v-8l-1-9-4-18-4-10-7-20-5-10-5-8-4-8-5-7-4-6-4-4-5-3-4-1h-5l-5 1-4 3-5 4-4 6-5 6-6 16-2 10-1 10v10l1 10 2 9 3 10 4 8 6 8 6 6 7 6 8 3 9 3 10 1 28-4" style="clip-to-self:true;comp-op:src"/>
<path transform="scale(.1)" d="m4738 5868 8-14 4-9 2-8 2-7v-6l-2-5-1-4-3-2-8-2h-4l-5 1-4 1-6 2-4 3-6 3-12 15-4 12v7l1 7 2 7 12 24 6 8 5 8 7 8 12 14 7 7 6 7 6 6 10 12 4 5 3 5 2 5 1 5v4l-4 8-3 3-5 4-6 2-7 3-8 2-8 3-10 1-19 3h-10l-19 1h-9l-8-1-7-1h-6l-4-2-2-3-1-3 1-5 10-14" style="clip-to-self:true;comp-op:src"/>
<path transform="scale(.1)" d="m5011.1 5749.5-4-2-3-1h-3l-10 2-5 2-6 3-7 4-6 5-7 7-14 16-12 22-5 13-5 14-3 14-3 16-2 16v16 17l2 15 3 15 4 14 5 12 7 12 8 9 9 9 11 7 12 5 13 4 13 2 14 1h14l14-1 13-3 29-10" style="clip-to-self:true;comp-op:src"/>
<path transform="scale(.1)" d="m5084.4 5916.3 4-1 3-1 3-2 4-1 5-2 5-3 6-2 7-3 13-4 7-1 7-2h6 5l5 1 4 1 4 3 2 4 1 4 1 5-2 12-2 8-3 8-4 8-3 8-8 14-4 6-3 5-3 4-5 5-3 2-2-3 5-10 4-5 10-12 13-13 14-16 6-8 7-9 6-8 5-9 5-8 5-7 3-7 3-6 3-4 1-4-2 5-3 5-2 6-4 8-3 8-3 10-4 10-6 20-2 20v9l2 16 3 7 3 5 9 9 12 4h7l7-1 7-3 8-4 17-14" style="clip-to-self:true;comp-op:src"/>
<path transform="scale(.1)" d="m5313.4 5713.7 4-1h4l14 2 16 6 8 4 9 5 10 6 18 14 9 9 8 10 8 11 7 11 6 13 5 14 4 14 2 16 1 17v18l-2 18-4 19-4 18-6 18-6 17-9 17-8 16-9 16-10 15-10 14-11 14-11 13-10 12-19 19-9 8-9 5-18 6" style="clip-to-self:true;comp-op:src"/>
<path transform="scale(.1)" d="m3063.9 6671.3-4-1 3-1h39 10 10l24-2h13l14-2 26-2 12-2 33-3h8 8 6l4 1 5 1" style="clip-to-self:true;comp-op:src"/>
<path transform="scale(.1)" d="m3182.7 6539.4-5 1-6 4-3 3-6 8-6 12-2 7-2 8-1 8-1 9-1 10v10 22l1 11 1 12 1 13 1 14 1 13 2 14 2 26 1 12v22l-1 9v8l-1 6-2 10" style="clip-to-self:true;comp-op:src"/>
<path transform="scale(.1)" d="m3623.4 6537.2 4-14 2-9 1-8v-7l-2-12-3-5-6-6-4-3-5-1h-6-6l-8 2-7 3-9 4-10 5-9 6-10 8-11 8-18 20-8 11-8 10-5 11-4 11-2 11-1 12 1 10 3 11 4 11 5 9 7 9 16 14 10 7 9 5 10 6 36 18 8 5 6 4 5 5 3 5 2 4 1 6-1 4-2 5-4 6-5 4-5 5-7 4-7 3-8 4-9 2-8 2-9 2-8 1-9 1-8-1-7-1-7-2-5-3-10-10" style="clip-to-self:true;comp-op:src"/>
<path transform="scale(.1)" d="m3658.9 6656.2-2 8-2 6-1 5-2 7-2 6-2 7-1 6-1 7-1 6-1 7v5 15 4l2 6 3 4 4-5" style="clip-to-self:true;comp-op:src"/>
</g>
<path d="m367.42 661.91v0.42969" stroke-width="1.41" style="clip-to-self:true;comp-op:src"/>
<g stroke-width="14.1">
<path transform="scale(.1)" d="m3732.6 6654.1v7l-1 5-1 6-1 7-1 8-1 9v10l-1 20v31 10 9l1 8v7l1 6 1 5 1 3 2 3 3-2 1-3 2-5 2-6 2-7 3-9 2-9 2-11 3-11 6-24 4-13 8-24 4-11 9-18 4-6 4-4 2-1 5 1 2 3 2 4 1 6 1 7 2 16 1 9v10l1 9v10 10l1 9 1 8 2 14 2 4 1 4 2 2h6l2-3 4-4 3-5 4-7 8-16 8-18 4-10 5-10 4-9 5-9 4-9 5-7 8-10 4-3 3-2 6 2 2 3 1 5 1 6v8 10 10l-3 36-1 13-1 12v11l1 11 1 10 2 8 3 6 3 5 4 2h4l5-2 12-13" style="clip-to-self:true;comp-op:src"/>
<path transform="scale(.1)" d="m3997 6656.2 1-3 1-6v-3l-1 4-1 3v4l-2 12-1 7v7l-1 8v16l1 9v8l2 8 1 8 2 7 2 6 2 5 7 8" style="clip-to-self:true;comp-op:src"/>
<path transform="scale(.1)" d="m4022.9 6573.9-2-3-1 3 1 6v4l3 9" style="clip-to-self:true;comp-op:src"/>
<path transform="scale(.1)" d="m4094.8 6514.8-4-2h-3l-3 5-2 10-1 6-1 8-1 9-1 11v13l-1 16-1 18-1 20-2 22-2 23-2 24-1 23-1 22v39l1 16 2 14 3 11 4 9 3 6 5 4 4 2h6l5-2 7-3 7-6 8-7 8-9 8-10 8-12 8-13 7-12 7-14 7-13 6-13 5-13 5-11 4-11 3-9 3-8 1-6v-5-4l-2-3-8 4-3 4-4 5-5 6-8 16-5 9-4 10-4 9-3 10-6 18-1 8-2 7v6 5l1 5 3 4 6 1 4-1 5-3 4-2 6-4 5-4 6-4 5-5 6-3 4-4 5-3 4-3 4-1 3-1 6 2 4 4 1 3 4 8 1 4 2 4 1 4 4 6 7 4" style="clip-to-self:true;comp-op:src"/>
<path transform="scale(.1)" d="m4284.5 6669.1h-3l4 3 6 3 3 2 5 2 5 1 5 2 5 3 6 4 6 3 10 10 5 6 8 14 3 7 3 8 2 8 2 9v7l1 8-1 6v6l-1 5-2 4-2 3-4 4-6-1-3-2-2-3-3-5-4-12-2-16 1-10 1-9 1-10 3-11 3-10 3-11 5-11 5-10 6-10 6-11 6-10 7-9 7-10 6-9 17-19" style="clip-to-self:true;comp-op:src"/>
<path transform="scale(.1)" d="m4481.3 6471.7-1-3-4-5-4-1-5 4-3 3-2 6-4 6-3 9-3 10-3 11-6 28-3 17-2 18-2 19-2 42v20l1 19 1 18 2 15 3 13 4 11 4 10 5 7 6 5 6 4 6 2 6 1 7-1 6-2 7-4 7-5 6-5 6-7 6-8 10-18 5-10 4-12 8-22 4-10 3-9 2-8 2-6 1-5 1-3-1 5v5l-1 6-1 7-2 16v18l1 9 1 8 2 8 3 8 3 7 5 6 5 4 6 4 7 3 8 1h8l8-1 9-2 9-3 16-8 8-5 12-12 10-12 4-6 4-5 2-4 3-4 2-4 1 5v4l-1 6v6l-2 8-2 9-4 20-3 11-2 10-6 24-2 13-6 24-2 12-6 20-3 8-4 7-3 6-4 5-5 3-12 3" style="clip-to-self:true;comp-op:src"/>
<path transform="scale(.1)" d="m5059.5 6431.2-2-10-6-12-8-8-5-2-4-1-5-1h-5l-8 2-4 2-4 3-3 3-3 4-2 6-2 8-1 9-2 11v13l-1 14v17l-1 17v20l-1 21v23 73 24l2 23 1 21 2 18 3 17 2 15 4 12 3 11 3 9 2 8 1 5 2 3" style="clip-to-self:true;comp-op:src"/>
<path transform="scale(.1)" d="m4904.3 6715.7 2-5 2-3 3-4 3-3 10-6 8-3 9-3 11-4 12-5 13-4 14-5 13-5 14-5 13-6 27-10" style="clip-to-self:true;comp-op:src"/>
<path transform="scale(.1)" d="m5148.1 6693.7v3l-1 5-1 3-1 4-1 3v4l-2 8v3 4 5l2 5 4 3 5 1h4l4-1 4-2 5-2 10-8 4-4 3-6 4-6 2-6 2-14-1-7-1-8-1-7-2-7-3-7-3-6-2-5-3-4-3-2-4-1h-4l-5 2-4 3-6 4-5 6-6 7-5 7-5 8-4 7-2 7-2 8v6l1 6 2 5 2 4 3 3 11 4" style="clip-to-self:true;comp-op:src"/>
<path transform="scale(.1)" d="m5247.7 6660.5-4-1v3l2 3 4 4 2 3 1 3 3 3 2 4 2 5 3 6 2 12 1 8 1 7v8l-1 9-1 7-1 9-4 14-2 6-3 5-2 4-1 4-3 2-5 2-4-2-4-5-1-4 2-10 2-7 3-9 4-8 12-20 7-12 8-12 9-12 9-13 10-12 11-12 11-11 12-11 11-9 11-7 9-6 7-5 6-3 7-1" style="clip-to-self:true;comp-op:src"/>
<path transform="scale(.1)" d="m5692.7 6520.4v-3l-1-6-1-3-3 5-1 5-1 8-1 9-3 12-3 14-2 15-3 18-2 19-3 19-1 19-2 18v17 16l1 15 1 13 2 12 3 11 2 10 4 7 3 6 4 4 3 2 9-3" style="clip-to-self:true;comp-op:src"/>
<path transform="scale(.1)" d="m5567.2 6630.4-1-3-1-4-1-3 3-3 4-2 3-1 10-4 6-2 7-2 9-3 10-3 11-2 12-3 39-9 13-2 12-2 11-1 10-1h8 8l5 2 4 1-1 9" style="clip-to-self:true;comp-op:src"/>
<path transform="scale(.1)" d="m5789 6664.4v-3-4l-2-10-6-12-3-3-6-4-4-1-3-1-5 1-4 2-5 3-5 5-4 6-5 8-5 9-4 10-7 22-4 22-1 10v10l4 16 2 6 4 5 5 4 10 4 6-1 7-1 7-3 7-4 8-5 7-6 15-15 7-8 12-18 6-10 5-9 4-9 3-9 3-7 2-7 1-6 1-4v-7l-1 3-1 4-1 5-1 6v7l-1 8v16l1 9 1 7 2 8 3 7 3 6 8 8 5 3 5 1 5-1 13-5" style="clip-to-self:true;comp-op:src"/>
<path transform="scale(.1)" d="m5937 6635.1 1 3v6 9l1 5v33l-1 7v27l1 4v3l2 5 4-3 1-3 2-4 1-4 4-12 4-14 4-16 6-20 4-10 4-11 10-20 5-8 5-7 5-5 5-4 3-3 4-1h4l3 2 3 3 2 4 3 5 2 6 1 8 2 9 1 9 1 10 4 44 1 10 1 9 2 9 2 7 2 6 3 5 6 8" style="clip-to-self:true;comp-op:src"/>
<path transform="scale(.1)" d="m6152.1 6727.3-2 8-1 5-3 5-2 7-3 7-3 8-4 8-3 8-4 9-4 8-3 8-6 14-2 6-5 10-6 5" style="clip-to-self:true;comp-op:src"/>
<path transform="scale(.1)" d="m6271.9 6606.2-4-1h-4l-4 1-4 3-5 4-5 6-5 7-5 10-5 9-5 11-8 22-6 22-2 20 1 9 1 8 3 7 5 7 5 4 7 4 7 2 9 1 9-1 10-2 10-3 10-5 20-12 9-7 9-8 7-8 6-8 5-9 5-8 2-8 1-7v-6l-1-4-1-3-2-2-3-1h-4l-4 1-8 6-4 5-5 5-4 6-2 6-3 6-2 6-1 7v5l1 5 1 4 3 4 3 3 5 2 10 2 14-2 8-2 9-3 9-4 9-5 16-10 8-6 12-12 3-6 2-7 1-6-1-6-2-6-2-5-10-10-5-4-7-4-6-3-6-2-7-1h-6l-7 2-7 3-6 4-7 6-5 7-6 7-4 7-3 7-2 6-1 15" style="clip-to-self:true;comp-op:src"/>
<path transform="scale(.1)" d="m6476.4 6590.7 4-1 2-3-1-3-1-4-2-3-3-4-1-3v-6-30l-1-6v-29l1-6v-4-5-4l1-4 3 6v6l1 7v19l-1 12-1 15v16l-2 19-1 19-1 20-1 21v19l-1 19v19l1 17 1 16 1 14 3 11 2 10 3 7 3 5 3 3h3l3-1 5-7" style="clip-to-self:true;comp-op:src"/>
<path transform="scale(.1)" d="m6468.7 6631.2 2-6 7-7 8-6 12-8 8-3 7-4 9-4 27-10 22-6" style="clip-to-self:true;comp-op:src"/>
<path transform="scale(.1)" d="m6642.6 6698v9l-2 8v5l-2 6-1 6-1 7-2 6-3 15-3 8-2 8-3 9-2 10-6 18-6 16-3 6-8 8-4 2h-11" style="clip-to-self:true;comp-op:src"/>
<path transform="scale(.1)" d="m6838 6561.8 1-4 1-3 1-4v-3l-1-3-2-4-5-3h-6-4l-4 1-5 2-6 3-12 8-7 5-7 6-13 13-6 7-4 8-4 7-2 7-1 7v7l2 6 4 7 3 6 6 7 5 6 6 6 14 12 6 5 7 6 12 12 5 6 6 6 3 5 4 6 4 10v5 4l-1 4-3 4-6 6-4 3-10 3-5 1h-6-5-5l-6-1-5-2-4-2-5-2-3-4-3-5-2-13" style="clip-to-self:true;comp-op:src"/>
<path transform="scale(.1)" d="m6874.5 6686.8 4-1 6-1 4-2 5-2 5-3 7-4 6-4 7-4 7-6 8-6 14-12 6-6 6-7 5-6 4-5 5-10 1-5v-4l-1-3-3-3-3-1-4-2h-6l-5 1-7 2-6 2-14 8-6 5-7 6-6 7-10 16-8 18-2 9-1 8-1 7 1 8 1 7 3 6 4 5 5 4 6 4 6 2 8 2 8 1h8l9-1 10-3 9-3 23-10" style="clip-to-self:true;comp-op:src"/>
<path transform="scale(.1)" d="m7087.1 6585.5 1-4v-3l1-4v-3l1-5-1-3h-6l-5 2-4 2-8 8-5 6-5 7-6 8-6 10-5 10-11 23-4 11-4 12-3 11-2 10-1 10v10l1 8 2 8 4 7 4 5 6 5 6 4 8 1 9 1h9l10-2 22-8 27-13" style="clip-to-self:true;comp-op:src"/>
<path transform="scale(.1)" d="m7220.8 6696.3 3 5 2 5 2 8 1 5v10l-1 6-1 7-2 7-2 9-3 8-4 9-3 9-4 10-5 9-4 10-5 9-5 8-6 8-6 7-7 4-19 9" style="clip-to-self:true;comp-op:src"/>
<path transform="scale(.1)" d="m7320.4 6576-1-3-3-3-3 3-2 4-3 5-3 6-3 8-4 10-3 11-5 12-4 13-3 13-4 14-3 13-3 12-1 12v11 9 9l3 7 3 6 4 4 5 2 7 1 7-1 8-2 9-3 9-5 9-6 9-7 16-16 7-10 6-9 4-10 4-9 3-9 2-8v-7l1-6v-5l-1-3-2-4-4 2-3 6-4 10-2 14v6 7l2 7 1 7 2 6 4 6 3 5 10 8 12 4 7 1h8l7-1 8-2 8-3 16-8 7-5 6-5 5-6 3-7 2-8v-7l-1-8-4-18-4-9-5-9-5-8-12-12-7-4-7-3-7-1h-8l-7 1-8 4-7 5-7 7-6 7-5 8-5 10-3 9-2 8v8 7l2 6 8 12" style="clip-to-self:true;comp-op:src"/>
<path transform="scale(.1)" d="m7576.2 6586.8-1-4-1-3-3-4-2-3-3-3-7-3-3-1h-4-3l-8 2-4 2-3 3-4 3-3 4-2 5-1 6v6 7l1 8 2 8 6 16 3 9 2 8 7 16 3 7 3 6 3 7 2 6 2 5 1 5 1 4v4l-1 4-1 3-3 2-3 3-4 1-4 2-4 1h-5-5l-4-1-10-4-4-4-10-11" style="clip-to-self:true;comp-op:src"/>
<path transform="scale(.1)" d="m7622.2 6648.9h4l10-2 4-2 6-2 6-4 8-3 7-6 7-5 9-6 8-6 8-7 7-7 7-6 6-7 6-6 8-10 3-5 1-4v-4l-2-4-3-1-4-1-5 1-5 2-7 3-6 3-7 5-8 6-7 7-7 8-14 18-6 10-5 10-4 10-3 10-2 9v9l1 8 2 6 3 6 4 5 6 4 7 3 8 2 9 2h9 10l20-2 9-2 10-2 22-5" style="clip-to-self:true;comp-op:src"/>
<path transform="scale(.1)" d="m7860.7 6571.7-4-1-5 1-3 1h-4l-2 1-3 2-3 1-4 2-3 1-4 2-4 3-2 3-6 6-3 5-2 5-6 14-3 8-4 16-4 18-1 8v8l2 14 2 6 3 6 4 6 12 8 8 4 9 2 11 2 12 1h13l14-1 14-2 13-3 14-4 31-10" style="clip-to-self:true;comp-op:src"/>
<path transform="scale(.1)" d="m8076.8 6725.2-4 3-3 3-5 4-5 6-6 6-12 14-6 8-6 7-5 7-5 8-5 7-4 6-4 7-4 5-6 8-3 2h-5" style="clip-to-self:true;comp-op:src"/>
<path transform="scale(.1)" d="m8141.4 6598.9-3 3-1 3 1 5 3 5 2 2 3 2 4 1h4 4 5l7-1 6-2 8-3 7-3 8-3 8-4 8-5 12-10 8-10 2-4v-4l-1-4-2-3-3-2-4-1-5-2h-6l-7 1-8 1-16 6-9 5-8 6-16 14-12 18-5 9-4 9-2 10-1 8v9l1 8 3 7 4 6 5 4 7 5 8 2 9 2 10 1 11-1 12-1 26-4 13-3 13-4 13-5 12-5 11-6 10-6 9-7 8-8 15-20" style="clip-to-self:true;comp-op:src"/>
<path transform="scale(.1)" d="m8358 6401.8 2-6 1-6 2-6v-5l1-3v-3l-2 8-1 5-1 6-2 7-1 8-2 9-1 10-2 12-1 11-3 39-1 14v14l-1 13v29 15 13l1 14 1 13 1 11 2 9 2 8 3 6 2 3 4 3 3-4" style="clip-to-self:true;comp-op:src"/>
<path transform="scale(.1)" d="m8300 6573-1-5-1-3v-3-3l1-5 4-4 3-2 4-2 5-3 5-2 14-4 8-2 18-4 10-2 10-1 10-2 10-1 18-4 20-3" style="clip-to-self:true;comp-op:src"/>
<path transform="scale(.1)" d="m8487.8 6492.8-1-5-1-3-1-5-2-3-4-1-5 1-4 2-4 4-5 4-5 6-7 7-6 8-7 9-8 11-7 12-8 12-7 13-6 14-6 13-4 14-3 13-2 11v11l1 10 4 8 4 7 7 5 9 4 9 3 12 2h13 14l15-1 32-6 17-4 17-5 41-12" style="clip-to-self:true;comp-op:src"/>
</g>
</g>
<g stroke="#00c0ff" stroke-width="14.1">
<path transform="scale(.1)" d="m4782.1 2887.2-3-3-5-3-4-3-3-2-2-2h4 5 5l5 1h6 6 27 12l12-1 14-1 30-4 16-2 17-3 36-4 19-2 18-3 17-1 16-2 15-1h34l9 1 7 1 6 1 10 2 3 1 4 2 3 3-2 2-3-4" style="clip-to-self:true;comp-op:src"/>
<path transform="scale(.1)" d="m5359.3 2781.2-3 3v6 3 5 28 7 8l1 7 3 24 2 14 2 7 4 12 1 6 4 8 2 3" style="clip-to-self:true;comp-op:src"/>
<path transform="scale(.1)" d="m5339.7 2718.2-7-1-5-1h-9l-8-1-9 1-8 1-16 6-7 4-7 5-6 7-6 8-6 9-5 10-6 11-5 13-4 14-3 14-3 15-2 15-1 16v15l4 32 3 15 5 14 6 14 6 12 8 11 9 11 9 8 11 8 11 7 13 4 13 3 15 2h15l16-1 16-2 15-4 16-5 16-6 15-7 14-8 15-9 26-22 12-12 20-28 7-15 6-15 4-16 3-16 1-16-1-17-2-17-4-18-5-17-6-16-7-16-7-15-10-13-9-11-10-9-11-8-12-5-13-3-13-2h-13l-15 2-14 4-16 6-14 7-15 8-14 11-12 11-12 13-9 13-8 14-7 14-8 26-4 29" style="clip-to-self:true;comp-op:src"/>
<path transform="scale(.1)" d="m5813.4 5949.8 4-3 6-2 5-1 14-2 8-2 10-2 11-2 12-3 13-3 13-4 14-4 15-3 14-4 30-6 14-3 13-2 13-1 12-1h10l9 1 7 1 6 1 9 3 4 2 3 1" style="clip-to-self:true;comp-op:src"/>
<path transform="scale(.1)" d="m6257.5 5876.1-3-3-2-4v-4l3-3 3-1 4-2 4-1 6-2 6-1 14-1 8-1h7l8 1h8l7 1 7 2 6 2 5 3 3 4 2 4 1 5v6l-2 7-6 16-5 8-12 18-7 9-8 10-8 9-16 14-7 6-7 5-5 4-5 3-4 3-2 2-2 3 3 2 4 1h4l6 1h6l27-3 22-4 60-10 11-2 11-1 9-2 9-1 7-1 10-4 4-6" style="clip-to-self:true;comp-op:src"/>
<path transform="scale(.1)" d="m6299.6 5735.2-6-1h-14l-9 1-10 2-10 3-10 4-10 5-10 6-20 16-10 10-16 22-8 12-6 12-5 14-4 14-3 14-2 15v16l1 16 6 32 5 16 7 15 7 14 8 12 9 12 10 10 10 9 12 8 12 7 12 5 12 4 13 3 14 1 13 1 26-2 13-2 13-4 12-4 13-5 26-14 13-9 12-10 13-11 12-13 11-14 20-32 16-36 6-18 5-17 4-19 2-17 1-17-1-17-2-16-4-14-5-13-7-12-10-11-10-9-12-7-14-7-14-5-15-4-16-3-17-1-16-1-16 1-32 4-15 4-15 5-14 6-13 6-12 7-10 8-10 9-9 9-14 20-5 9-8 22" style="clip-to-self:true;comp-op:src"/>
</g>
<g stroke="#fff">
<g stroke-width="14.1">
<path transform="scale(.1)" d="m4039.2 7596.9v-4l-1-3v-4l1 3 1 6 1 5 2 12v8l1 8 1 9 1 10 1 11 2 20v11l1 9 1 10 1 9v8l1 8 1 7 2 12 2 8 1 3 2 3 3-4" style="clip-to-self:true;comp-op:src"/>
<path transform="scale(.1)" d="m4122.1 7591.3 2 4 2 6v5l1 5v6 7 7 17l-1 9v10l-1 10v10 10l-1 10v10 26 7l1 6v5l1 4 1 3 1 4-5-7" style="clip-to-self:true;comp-op:src"/>
<path transform="scale(.1)" d="m3879.7 7643.9 2-4 2-2 8-6 6-4 7-4 8-4 9-5 10-6 24-12 13-7 13-6 30-14 32-14 18-7 17-6 18-6 17-5 16-4 15-4 13-2 12-1h10 8l6 1 9 7" style="clip-to-self:true;comp-op:src"/>
<path transform="scale(.1)" d="m4259.1 7530.1-3 1-2 4-2 5-2 6-2 7-3 9-2 10-4 11-2 12-8 26-3 15-12 48-3 15-6 32-2 15-3 16-3 14-2 14-3 13-2 12-6 20-3 9-1 8-4 12-4 8-4-3" style="clip-to-self:true;comp-op:src"/>
<path transform="scale(.1)" d="m4276.3 7733.6-2-5-1-3 1-5 3-6 3-2 3-4 4-3 10-6 6-2 6-3 7-2h7l6-1h6l6 1 10 4 3 4 3 5 2 5v7 8l-1 8-2 9-4 9-3 10-5 10-12 20-6 9-7 10-6 9-7 8-5 8-6 7-8 12-3 4-2 5-1 3v3l2 5 3 2 4 2 5 1 6 1 7 1 8-1h9l18-2 10-1 10-2 11-1 9-2 10-2 18-2 8-1h7l6-1h5l3 1 4 1-3 2-13-1" style="clip-to-self:true;comp-op:src"/>
<path transform="scale(.1)" d="m4532.6 7709.4 5 1 4 1h5l6-1h6l8-1 9-2 9-1 11-2 10-1 12-1 11-2 11-1 10-1 9-1h10l7-1h7l6-1 5-1 3-1 4-1" style="clip-to-self:true;comp-op:src"/>
<path transform="scale(.1)" d="m4620.2 7613.7-2-6-2-4-1-3-2-4 2 5 2 4 1 4 1 6 2 7 1 8 1 9v10l1 11v25l-1 14v15l-1 14v15l1 15 1 14 2 14 3 12 3 10 9 18 12 12 6 3 14 5" style="clip-to-self:true;comp-op:src"/>
<path transform="scale(.1)" d="m4953.6 7633.5-2-5-2-4-4-4-3-5-10-6-5-1-6-1-6 1h-6l-7 2-7 3-7 4-7 5-8 6-7 7-14 18-7 11-5 12-5 13-4 14-3 14-1 15-1 14 1 15 2 13 4 13 5 12 6 11 9 9 10 8 11 6 12 5 12 3 14 1 15-1 16-2 15-3 16-4 15-6 14-7 14-8 12-8 10-9 9-10 8-11 6-11 8-26 1-13 1-15v-15l-2-32-3-15-3-16-5-13-6-13-7-10-9-8-10-6-11-3-13-1-13 1-14 3-13 4-13 5-22 14-16 16-5 8-4 9-2 8-1 8 1 9 3 7 4 8 4 7 6 6 16 12 10 5 11 4 13 3 13 1 15 1h14l14-1 15-2 13-1 11-3 10-3 8-3 12-7" style="clip-to-self:true;comp-op:src"/>
<path transform="scale(.1)" d="m5351.7 7635.2 8-2 3 1h5l5 2 6 3 7 3 6 3 7 4 7 5 6 6 12 14 4 8 5 9 6 20 2 10 2 20v9l-1 9-1 8-2 6-3 6-3 5-3 3-5 2-4 2h-5-5l-5-2-4-2-4-3-3-5-2-6-1-7 1-8 2-9 3-9 5-11 6-11 8-12 9-12 10-13 11-13 25-25 32-25" style="clip-to-self:true;comp-op:src"/>
<path transform="scale(.1)" d="m5615.1 7714.6 12-12 4-5 5-5 4-6 9-18 2-6 1-6v-6-6-5l-2-4-3-4-4-3-5-2-12-2-7 1-8 2-8 3-9 3-9 4-8 5-16 14-7 8-5 8-4 8-3 9-2 8v8l2 9 2 7 4 8 5 6 7 6 7 5 8 4 9 4 10 3 11 1 11 2h11l13-1 24-4 13-4 12-3 11-6 20-12 18-18" style="clip-to-self:true;comp-op:src"/>
<path transform="scale(.1)" d="m5767 7480.9v3 4l1 5v6 27l-2 24v13l-2 14-1 14-1 15-2 15-1 15-1 14v15 15l1 14 2 14 3 13 4 11 5 10 6 8 7 7 8 5 8 3 10 1h11l11-2 11-3 13-5 11-5 24-14 11-9 11-10 10-10 8-10 6-11 5-11 4-11 2-10 1-9-1-8-2-7-4-4-5-3-7-2h-7l-10 1-9 3-11 3-10 5-20 12-9 7-9 8-7 8-6 8-6 9-4 8-3 8-2 8-1 8 1 7 1 6 3 6 3 4 6 3 5 2 7 2h8l8-1 9-2 8-3 9-3 9-5 18-8 14-8 7-3 5-2 5-1 3-2h5l3 4v3l1 4v4l1 6 1 5 2 6 2 5 4 6 4 5 6 4 7 4 8 3 9 2h10l11-1 12-2 13-3 26-10 13-6 12-8 11-9 10-9 9-10 8-11 7-13 5-13 12-37" style="clip-to-self:true;comp-op:src"/>
<path transform="scale(.1)" d="m6171.8 7500.7-1-7-4-10-2-4-3-2-6 1-3 3-3 4-2 5-2 7-2 9-1 9-2 22 1 25 2 26 2 13 5 27 3 14 3 13 3 12 6 25 4 12 6 20 3 9 3 7 2 5 1 4" style="clip-to-self:true;comp-op:src"/>
<path transform="scale(.1)" d="m6043.8 7643 1-3 2-4 3-4 4-4 4-5 5-4 12-8 8-4 7-4 8-3 7-3 16-4 7-2 7-1 16-2h15l8 1 7 2 8 2 6 3 7 3 12 10 6 6 4 6 5 7 4 8 4 7 9 27 2 9 3 9 2 10 3 9 6 16 2 8 3 6 2 5 3 4 5 7" style="clip-to-self:true;comp-op:src"/>
<path transform="scale(.1)" d="m6276.2 7539.1-1-4-1-3-1-4-2-6v5l1 4v4l1 5v4l1 5v19" style="clip-to-self:true;comp-op:src"/>
<path transform="scale(.1)" d="m6360.5 7627.1-2-3-4-2-5-1-4 2-4 5-3 4-2 5-3 5-3 7-4 14-1 8-1 9v9l1 9 1 8 2 9 6 16 10 12 5 5 7 4 6 2 7 2 7 1h6l7-1 6-1 6-3 5-2 3-4 3-3 2-5v-4-6l-1-5-2-5-2-6-6-10-3-6-2-5-2-4-2-5v-4l2-10 2-4 3-4 5-4 4-5 7-4 6-4 24-9 8-1 8-2h8l14 2 6 1 6 3 5 3 5 4 8 10 3 6 1 6 2 6v8 7l-1 7-1 8-4 14-2 6-2 5-4 8-4 3-4-4v-3-4l1-5 2-6 2-7 8-16 10-18 12-18 8-10 7-9 8-9 8-8 8-9 8-6 8-5 7-4 6-2h6l4 1 3 3 3 5 2 6 1 7v17l-1 10v11l-1 11v23l1 12 2 11 3 10 3 9 5 8 5 6 6 4 7 3 7 1 20-4" style="clip-to-self:true;comp-op:src"/>
<path transform="scale(.1)" d="m6801.2 7644.3 2-3 8-16 5-13 5-12 3-12 3-11 1-10v-8l-1-7-1-4-3-3-4-1h-3l-5 1-8 6-5 4-4 5-8 12-3 7-1 7-2 7v7l1 7 2 7 3 7 10 14 14 14 8 7 9 7 8 8 16 14 6 8 6 7 5 8 4 8 2 8 1 7v9l-2 7-3 8-5 7-5 8-16 14-9 5-9 4-10 4-10 2-9 2-9 1-20-3" style="clip-to-self:true;comp-op:src"/>
</g>
<path d="m394.29 802.93h286.55" stroke-width="1.41" style="clip-to-self:true;comp-op:src"/>
<g stroke-width="14.1">
<path transform="scale(.1)" d="m2490.1 8647.3 2-7 1-6v-8l-1-7-1-6-3-4-8-6-5-1-6-1h-7l-6 1-8 1-8 2-8 4-9 4-8 5-8 6-8 8-9 8-7 9-6 9-6 10-5 9-3 10-2 9v10l1 9 6 16 6 8 7 8 8 7 9 7 20 14 11 6 10 7 10 6 10 7 9 7 7 7 5 8 4 9 3 9v8l-1 9-3 9-3 8-6 8-6 7-8 7-8 5-18 10-10 4-18 6-8 2-8 1-7 1h-6l-5-1-4-1-2-3-1-4 1-6 8-18" style="clip-to-self:true;comp-op:src"/>
<path transform="scale(.1)" d="m2511.6 8768-3 4-2 3-3 3-2 6-1 6-2 7-2 16v17l2 16 2 7 2 8 6 14 3 6 3 5 4 5 4 4 8 6 5 1 4 1 8-2 4-2 4-3 4-4 3-4 6-10 2-7 2-6 4-15 2-8 3-17 1-8 4-14 2-5 2-4 3-3 3 3 3 6 1 5 4 12 1 6 2 6 6 12 3 5 3 4 4 4 8 4h5l5-1 6-1 6-4 7-5 13-13 5-8 6-10 5-10 5-11 3-12 3-13 4-26 2-28 1-15v-16l2-32 1-15 1-13 1-12 1-9v-8-4-3l-2 5v6l-1 8-1 10v14l-1 14v35l1 20v21l1 21v21l1 20v20l1 18 1 16 1 14 1 11 1 10 1 7 1 6 1 3 3 2 4-4 2-5 2-6 3-8 3-10 4-11 3-13 10-30 5-16 6-15 5-14 7-14 7-11 6-11 8-8 6-7 7-5 5-3 5-2 4 1 4 2 4 3 2 5 2 14 1 9-1 10-2 22-4 24-3 12-4 12-3 12-4 11-5 9-4 9-6 8-5 7-11 11-6 5-10 6-4 1h-4v-3l2-3 2-5 4-5 13-17" style="clip-to-self:true;comp-op:src"/>
<path transform="scale(.1)" d="m2928.8 8729.7 4-3 7-7 2-3 1-4-4-1-6 2-5 2-5 4-12 8-14 12-6 6-12 14-10 16-3 8-2 9-1 7v7l1 7 3 6 4 6 5 5 6 4 7 5 7 3 7 4 8 2 8 3 16 4 7 3 12 4 5 2 3 3 2 4-5 6-4 2-5 3-6 3-8 3-7 2-8 3-8 1-9 2-8 1h-7-7l-5-1-5-2-2-2-1-3v-5l3-6 4-7 15-21" style="clip-to-self:true;comp-op:src"/>
<path transform="scale(.1)" d="m3066.3 8636.6 3-4v-4l-5 2-2 2-1 4-2 4-4 10-4 14-1 9v9 20 12l1 12v13l1 14 2 15 1 15 4 29 2 15 3 13 3 12 3 11 3 9 2 8 5 10 2 3 2 4-3-6" style="clip-to-self:true;comp-op:src"/>
<path transform="scale(.1)" d="m2987.3 8809 1-5 1-4 1-3 2-3 7-7 10-6 6-4 7-4 8-4 9-4 20-8 22-8 13-5 12-4 12-5 13-5 28-11" style="clip-to-self:true;comp-op:src"/>
<path transform="scale(.1)" d="m3188.5 8720.2-6 6-4 5-4 4-3 5-4 5-2 6-1 6-2 14v15 8l3 27 2 8 2 9 6 16 2 8 3 7 2 7 3 6 2 5 6 12-1-4" style="clip-to-self:true;comp-op:src"/>
<path transform="scale(.1)" d="m3220.1 8737 1-4 1-3 6-6" style="clip-to-self:true;comp-op:src"/>
<path transform="scale(.1)" d="m3311.1 8623.6v-6l1-5v-6-5-8l-2 5v5l-1 6-1 8-1 10v11l-1 12-1 13v14l-1 15v16l-1 16 1 18v19l1 19 1 20 1 19 2 17 2 16 2 14 2 11 3 10 4 9 2 6 4 5 3 4 3 1 6-1 6-7" style="clip-to-self:true;comp-op:src"/>
<path transform="scale(.1)" d="m3247.9 8806-2-4-1-6-1-3 1-5 2-5 6-6 3-4 10-8 14-8 9-4 20-8 22-8 36-12 33-9" style="clip-to-self:true;comp-op:src"/>
<path transform="scale(.1)" d="m3407.4 8751.7v4l1 4-1 4v9 5 7l-1 6v14 7 38 7l3 18 1 5 1 4 1 3 1 4 3-4 1-3 4-8 3-4 6-12 4-6 5-6 4-6 10-12 9-9 5-2 4-2 3-1 5 3 3 2 2 4 2 10 2 6 1 6 2 7 1 7 2 7 4 12 3 6 2 5 7 7 4 3 5 2 4 1h6l5-1 6-2 5-2 6-3 5-4 4-5 4-6 3-7 6-20" style="clip-to-self:true;comp-op:src"/>
<path transform="scale(.1)" d="m3606.6 8611.1v-3l1-5v6 3l-1 5-2 6-1 8-2 8-1 9-2 11-2 22-3 39v14 15 16l2 16 1 15 2 15 3 14 3 12 4 11 4 10 5 7 5 6 5 4 4 2h10" style="clip-to-self:true;comp-op:src"/>
<path transform="scale(.1)" d="m3541.5 8795.2-2-4-2-5v-3l1-3 3-3 2-4 5-3 4-4 18-12 6-3 8-3 7-3 7-2 8-2 14-2h12l10 2 4 2 6 6 4 8 1 4 1 5 1 4 2 5 1 3 4 8 2 3 2 2 3 2 4 1h3 4l4-2 5-2 10-6 6-5 5-4 7-6 11-11 4-6 5-6 4-6 3-6 4-12 1-6v-5l-1-5-2-4-3-4-4-2-5-2h-5l-6 2-7 2-8 5-9 5-8 7-8 9-8 10-8 11-7 12-6 14-10 28-4 14-3 15-3 13-1 11 1 11 1 9 3 9 4 7 6 6 6 5 9 4 10 3 11 2 12 1h14l14-1 15-2 15-3 13-3 13-5 25-11" style="clip-to-self:true;comp-op:src"/>
<path transform="scale(.1)" d="m4044.9 8788.8-1-5-1-3 1-3 2-8 2-4 5-9 2-4 4-5 12-12 10-6 5-2 4-2 4-1h4l6 4 2 3 1 5 1 7-1 8-1 9-2 11-3 12-2 13-4 12-4 14-8 24-5 10-6 18-3 6-2 5-1 4-2 4 4-6 2-5 4-5 8-14 6-7 5-8 7-9 7-10 7-11 8-12 7-12 8-12 7-11 6-11 7-11 8-16 4-6 1-5 1-3-3-1-3 2-4 3-3 5-5 5-5 7-5 8-6 9-5 11-5 12-4 13-5 13-4 14-4 26-1 13v11l1 11 4 18 4 8 10 12 6 4 7 3 8 2 9 1 9-1 9-2 8-3 21-11" style="clip-to-self:true;comp-op:src"/>
<path transform="scale(.1)" d="m4316.5 8809 2-3 5-3h4l5-1 7-1 8-1 9-1 11-1 12-2 13-2 15-1 16-2 18-2 20-1 19-2 38-2 17-1h31l12 1 11 1 10 2 9 1 7 2 7 1 5 1h5 4l6-4" style="clip-to-self:true;comp-op:src"/>
<path transform="scale(.1)" d="m4587.2 8701.2-2-8 3 3 3 5 14 14 6 4 5 5 6 5 7 5 7 4 8 5 7 4 9 5 18 8 8 4 18 6 7 3 8 2 7 3 12 4 8 4 4 1 3 4 1 3-1 3-3 5-3 2-4 3-8 8-5 4-5 5-12 10-12 12-7 5-6 5-6 6-7 5-6 5-7 5-6 4-6 5-5 4-6 4-4 4-5 3-4 3-3 2-3 1-4 1h-7" style="clip-to-self:true;comp-op:src"/>
<path transform="scale(.1)" d="m4855.4 8790.5 1 4 3-1 6-1 5-2 6-1 5-2 7-2 16-4 18-4 20-4 18-4 8-3 9-2 16-4" style="clip-to-self:true;comp-op:src"/>
<path transform="scale(.1)" d="m5043.2 8789.6-2-5-2-3-3-5-1-5v-4l1-5 3-5 2-2 4-3 3-2 10-4 6-2 6-1 7-1h6l8-1 6 1h7l6 1 6 2 5 2 4 4 4 3 3 5 2 5 2 7v6l-2 16-9 24-8 14-3 7-8 10-2 4-9 6v-4l2-3 3-4 4-5 4-6 12-14 7-8 7-9 8-9 9-10 8-9 24-30 7-9 6-9 6-7 5-6 3-4 2-4-4 4-4 5-6 5-5 8-7 9-7 10-7 11-12 24-5 12-4 12-4 11-2 11v9l1 9 2 7 4 7 6 6 7 4 9 4 11 2 13 2h14 15l15-1 16-2 14-3 13-4 26-11" style="clip-to-self:true;comp-op:src"/>
<path transform="scale(.1)" d="m5653 8726.7 2-3 3 5 1 6v7l1 8v10 11l1 11v11 11l2 20 1 9 2 9 4 14 2 6 3 5 1 5 6 6h5" style="clip-to-self:true;comp-op:src"/>
<path transform="scale(.1)" d="m5698.9 8654.7-1-3v3l6 10" style="clip-to-self:true;comp-op:src"/>
<path transform="scale(.1)" d="m5796.7 8776.7-1 5v5 5l-1 6v8l-1 9v9l-1 17v35 3l1 4 5-1 2-6 2-4 4-12 4-14 2-9 6-18 3-11 4-11 4-10 5-11 5-9 6-8 5-7 5-5 4-3 8-2 3 1 3 3 3 4 3 6 2 6 2 8 6 18 2 9 6 18 3 10 3 9 3 8 4 8 4 6 4 7 5 6 5 4 6 5 6 3 6 2 7 1h6l18-4" style="clip-to-self:true;comp-op:src"/>
</g>
</g>
<g stroke="#00c0ff" stroke-width="14.1">
<path transform="scale(.1)" d="m6459.6 8654.3-2-4-1-4-2-4-2-5-2-3-1-3-3-3-2 4v12 6l1 8v8l1 10 1 11v11l2 24 3 39 1 12 2 22 1 9 1 8 1 7 1 4 1 6" style="clip-to-self:true;comp-op:src"/>
<path transform="scale(.1)" d="m6453.4 8607.3-2-7-2-6-4-7-5-7-4-5-5-4-5-2-5-1h-5-5l-5 1-4 2-5 3-4 3-5 5-4 6-5 7-4 9-4 10-4 12-4 13-3 15-2 16-2 17-1 19v19l2 40 2 19 3 19 4 18 5 15 5 13 6 10 8 9 8 7 9 5 10 4 11 2h11 11l11-2 12-3 11-4 11-5 10-7 18-16 8-11 6-12 6-14 5-15 4-16 3-18 1-17 1-19v-18l-2-19-2-18-3-18-4-19-4-17-6-17-6-15-8-14-9-11-9-9-11-7-11-5-12-3-13-2-14 1-13 2-13 5-13 6-12 7-12 10-12 11-11 12-10 13-8 13-16 34" style="clip-to-self:true;comp-op:src"/>
<path transform="scale(.1)" d="m7570.5 8685.7-2-4-1-4 3-3 6-3 3-1h4l4-1 5-1h5 6 5l6 1 5 2 6 3 4 3 5 4 6 10 2 7 1 7 1 8-2 18-4 20-12 30-10 18-10 14-4 6-5 6-16 16 3 3 7 1h4 5l12-2h7l7-1 6-2h7l7-1 12-2h4 9l5-1h3l3-4v-8" style="clip-to-self:true;comp-op:src"/>
<path transform="scale(.1)" d="m7643.3 8631.4-4-4-5-4-6-6-7-5-7-4-9-3-8-3-18-2-9 1-10 1-9 1-20 6-10 5-10 6-10 8-11 9-10 11-10 12-9 14-8 15-8 17-6 16-6 18-3 19-3 18-1 18 1 17 2 16 4 14 5 13 7 11 9 9 10 8 11 6 13 5 14 3 15 1 16-1 17-1 17-2 16-4 34-10 17-7 17-8 17-9 16-10 16-12 15-12 13-14 12-15 9-15 8-15 6-15 3-15 2-15 1-15-4-30-4-16-5-15-6-15-7-15-9-13-10-12-12-11-13-9-14-8-14-7-15-5-14-3-14-2h-13l-13 2-12 3-13 5-11 7-12 9-11 9-10 11-10 12-9 12-7 12-12 27" style="clip-to-self:true;comp-op:src"/>
</g>
<g stroke="#fff">
<g stroke-width="14.1">
<path transform="scale(.1)" d="m7038.3 8641.3 1-4-1-5-3-1h-5l-4 2-3 1-3 3-4 3-4 4-4 5-5 5-4 6-4 7-5 8-4 8-5 9-4 10-5 10-5 11-4 11-6 12-5 12-6 13-12 24-5 11-6 10-4 9-5 7-4 7-4 5-3 4-4 4-3 2-2 2-3 1h-6l-4-2-2-3-3-3-2-4-1-5-2-6-1-6-2-16v-9-31-12-12l1-12v-12-12-12-11l-1-10-1-9-1-8-2-7-2-6-3-4-4-4-3-2-4-2-3-1h-4l-4 1-3 1-4 2-5 4-1 5 1 4 1 5 3 4 4 6 5 5 5 6 8 7 7 6 18 14 10 8 11 8 44 36 22 20 20 20 9 10 16 20 7 9 6 8 5 9 5 8 6 14 2 7 2 6v6 5l-2 6-2 5-3 5-4 4-6 4-5 4-15 6" style="clip-to-self:true;comp-op:src"/>
<path transform="scale(.1)" d="m3163.6 9578.2v-31l-1-4v-4l-2-4-3-2-6 3-4 3-4 5-5 6-7 8-6 10-7 11-8 13-8 14-15 30-6 15-6 17-8 32-2 16-1 15 1 14 1 13 3 12 3 10 4 9 6 8 6 5 7 5 8 3 9 1 9-1 11-2 11-4 11-5 22-14 22-18 10-11 10-12 9-12 16-26 6-14 6-13 5-12 4-10 3-9 1-6v-5l-1-3-4-2-3 2-4 3-3 5-4 6-4 8-3 8-3 10-2 9-1 10 1 10 1 9 4 8 3 8 6 7 6 5 8 5 8 3 10 1 11 1 11-1 11-2 12-3 12-4 11-5 10-6 9-7 8-7 6-7 5-7 3-8 2-8 1-8-1-9-2-8-3-9-4-8-5-8-5-7-6-7-8-5-7-4-9-3-10-1-9-1-10 1-10 2-18 8-8 6-7 6-6 8-4 7-2 8-1 8 1 7 6 14 6 6 6 5 9 5 9 2 10 2h28" style="clip-to-self:true;comp-op:src"/>
<path transform="scale(.1)" d="m3503.6 9608.4 3-4 2-5 3-5 1-4-1-3-4-4-4-1h-4l-10 2-6 2-5 3-6 3-8 6-3 4-1 5-1 4 2 10 2 5 8 10 12 10 7 5 7 6 8 5 7 5 12 12 5 6 3 6 3 7 1 6v7l-2 7-3 8-4 6-6 7-7 7-7 6-9 5-8 5-8 4-9 3-8 3-6 1-7 2h-5-4-4l-2-5 1-4 1-6 12-19" style="clip-to-self:true;comp-op:src"/>
<path transform="scale(.1)" d="m3768 9527.3v-3l-2-4-5-3-4-1-4 1-6 2-5 3-7 3-8 5-8 6-8 7-10 8-19 19-8 10-16 24-6 13-5 13-4 15-4 30v15l4 32 4 14 5 14 6 12 8 11 8 9 10 8 11 7 13 6 12 4 14 2 13 1h13l12-2 13-3 11-4 25-12" style="clip-to-self:true;comp-op:src"/>
<path transform="scale(.1)" d="m3892.1 9590.7 2-4 2-2 1 4v3l-1 4-1 5-4 14-4 16-1 10-2 10v10l-1 9v10l1 10v9l1 9 4 14 3 7 6 8 5 2h4l5-2 12-8" style="clip-to-self:true;comp-op:src"/>
<path transform="scale(.1)" d="m3967.3 9566.1-3 3-3 5-1 4-2 4-1 5-2 12-1 7v7l-1 7v7 16 8l1 9v8l1 9 2 16 2 8 1 7v6l1 4v3 4l-4 1" style="clip-to-self:true;comp-op:src"/>
<path transform="scale(.1)" d="m3815.5 9601.9-4-12v-5l2-4 5-5 5-2 10-5 7-2 8-3 9-2 10-3 11-3 12-2 13-3 14-3 14-2 15-3 16-2 15-3 15-2 14-3 14-2 12-2 11-2 25-4" style="clip-to-self:true;comp-op:src"/>
<path transform="scale(.1)" d="m4100.5 9501.9v-3l-2 4-1 3-2 5-2 6-3 8-3 9-3 10-4 11-3 12-4 12-4 14-4 15-3 15-4 16-3 16-3 17-2 17-4 35-2 30-1 13v10l1 10v8l1 6 1 4 2 5" style="clip-to-self:true;comp-op:src"/>
<path transform="scale(.1)" d="m4125.9 9681.2-1-4v-5l3-5 6-6 4-3 6-3 5-3 14-6 7-2 8-2 7-2 7-1h7l7 1 6 1 5 2 4 3 3 5 1 4 1 6-1 7-2 8-4 8-5 8-5 9-6 10-7 9-8 9-14 16-14 14-5 6-5 5-4 5-4 6-1 3 1 5 4 3 4 1 5 1 6 1h14l18-1h11l10-1 11-1h11l11-1 10-1h9 24 5l5 1 4 1-12 6" style="clip-to-self:true;comp-op:src"/>
<path transform="scale(.1)" d="m4318 9655.4 5-1h12 5 7l7-1h8l9-1 19-1h10l20-2h10l9-1h8l7-1h7 6l6-1h4 4l3-1 4-4 2-3" style="clip-to-self:true;comp-op:src"/>
<path transform="scale(.1)" d="m4421.9 9569.5-4-3-2 3v4l2 5 1 4 1 5 1 4 1 6 2 6 6 24 1 9 2 10 12 66 3 10 4 10 3 9 3 6 4 6 9 7" style="clip-to-self:true;comp-op:src"/>
<path transform="scale(.1)" d="m4565.6 9628.6-1-4v-6l2-5 2-3 7-7 4-3 5-3 12-6 14-3 6-1 8-1 6 1 7 1 6 1 5 3 8 8 2 6 2 7 1 6v9l-3 17-2 9-6 18-3 7-7 14-3 5-2 5-3 4-2 3-3 3-1-4 4-8 3-5 4-6 10-14 6-7 12-16 11-16 10-18 5-8 4-8 3-7 3-6 2-5 1-4-4 1-3 4-4 5-5 5-4 7-5 7-8 16-3 9-4 9-4 18v9 8l1 9 3 7 4 7 5 6 6 5 7 5 9 3 9 2 10 2h10l11-1 10-2 10-3 24-9" style="clip-to-self:true;comp-op:src"/>
<path transform="scale(.1)" d="m4766.3 9442.4 6-3 3-1 5-1h5 6l14 4 8 4 8 3 18 12 9 7 9 9 9 10 10 12 8 13 8 15 8 16 6 17 5 17 5 19 2 19 1 19v19l-1 19-2 18-3 17-3 16-4 15-4 13-4 12-6 10-5 9-6 8-12 12-7 6-7 4-6 3-6 2-6 1-15-3" style="clip-to-self:true;comp-op:src"/>
<path transform="scale(.1)" d="m3428 197.73v-5l-3 2-2 4-1 4-1 6-1 7-2 8-2 10-1 10-2 12-1 14-3 15-2 16-2 17-1 18-2 19-6 54-2 16-2 14-1 13-2 11-1 10v8l-1 7v5l1 5 1 3 3-5 2-12" style="clip-to-self:true;comp-op:src"/>
<path transform="scale(.1)" d="m3387.3 270.59-3-12-2-10-1-4v-5l1-4 1-5 2-5 3-5 4-5 4-6 11-11 14-10 8-5 8-3 9-4 8-2 9-1h9 9l8 1 8 2 8 3 12 8 5 5 6 14v8 10l-2 10-8 22-12 24-8 12-7 12-9 12-9 11-8 10-10 9-9 9-10 7-20 12-10 5-10 4-9 3-16 4-7 1h-5l-4-1-3-1-3-3 3-4 3-2 4-3 5-2 6-2 7-2 14-2h8l8 1 16 4 7 3 9 4 7 5 8 5 7 6 8 6 19 19 6 7 6 6 5 6 5 5 4 5 9 9 5 3 8 4h4l3-1 4-2 8-7" style="clip-to-self:true;comp-op:src"/>
<path transform="scale(.1)" d="m3566.4 383.55-2 2v4 6 3l2 3 2 2 2 3 2 2 3 2 3 1 4 2h4l5 1 5-1 6-1 6-2 7-2 7-3 8-4 7-4 7-5 6-5 6-4 5-6 4-5 3-5 2-6 2-8-1-4-2-3-2-2-4-1h-5l-5 2-12 6-14 12-6 7-7 7-12 16-5 8-4 9-3 8-3 9-1 8v7l1 7 3 7 4 5 5 5 7 3 7 2 9 2h10l10-2 11-2 12-3 24-10 13-7 32-18" style="clip-to-self:true;comp-op:src"/>
<path transform="scale(.1)" d="m3850.5 205.51v-5l-1-4v-4l-2-4-1-3-3-3-3 1-5 10-2 5-2 7-2 8-2 9-2 10-2 11-3 13-2 13-2 15-2 16-3 51v17 15l2 15 2 13 2 12 3 10 4 9 5 7 5 6 5 4 6 3 6 1h7l7-1 7-3 8-3 9-4 8-5 23-13" style="clip-to-self:true;comp-op:src"/>
<path transform="scale(.1)" d="m3995.1 359.84 2-6 1-5 1-6-1-6-1-4-3-4-3-1-4-1h-4l-5 1-5 3-7 4-6 5-7 6-6 6-14 16-14 17-5 9-6 9-4 9-6 16-2 14v6l2 6 2 5 3 3 4 3 5 2 6 1h6l7-2 7-1 16-6 8-4 14-10 8-5 6-6 7-6 5-6 5-5 4-5 7-7 2-3v3l-1 3-1 4-2 4-1 5-1 6v11l1 5 4 10 7 7 5 3 5 2 7 1h8l8-1 9-2 10-2 10-4 11-4 11-5 11-7 10-7 10-8 10-9 8-10 8-11 7-12 6-13 5-14 5-16 3-16 6-34 2-17 4-30 1-13v-11-9l-1-7-2-4-4-3-6 5-3 4-3 7-3 8-3 10-4 11-3 13-3 14-3 17-4 18-6 40-2 21-4 40v19 18l1 15 1 14 2 12 2 10 2 9 2 6 3 4 2 3v-12" style="clip-to-self:true;comp-op:src"/>
<path transform="scale(.1)" d="m4105.3 325.78-2-5 3-2h5l3-1h4 5l12-2 16-1 8-2 10-1 18-2 8-1 9-1 8-1h7 7l5-1h5 3l5 1" style="clip-to-self:true;comp-op:src"/>
<path transform="scale(.1)" d="m4306 358.12v5l-2 6-4 10-2 6-3 8-2 7-3 9-3 8-4 9-2 8-3 9-2 10-3 9-3 24v7l1 7 1 6 2 6 2 3 3 3 5-2" style="clip-to-self:true;comp-op:src"/>
<path transform="scale(.1)" d="m4314.1 290.43-1-3-2-3-3 2v8 6l1 8" style="clip-to-self:true;comp-op:src"/>
<path transform="scale(.1)" d="m4381.7 348.63-3 1-4 2-2 3-3 4-3 5-3 6-2 8-6 18-3 10-2 11-3 11-2 10-2 11-1 11-1 10v11l1 9 2 9 2 8 4 7 3 6 5 5 5 3 7 2 6 1 7-1 14-4 6-4 7-5 6-6 6-7 5-8 4-9 3-9 1-10 1-11v-11l-1-13-2-13-3-13-6-24-5-12-5-10-5-9-6-7-6-5-7-4-7-2-7-1-6 1-7 3-5 4-5 6-4 7-3 8-2 9-1 9v9 9l2 9 2 8 3 6 11 16" style="clip-to-self:true;comp-op:src"/>
<path transform="scale(.1)" d="m4481.8 373.2 1-3 2-3 1-4 2-4v6 4l-1 6-1 7-1 8-4 18-3 10-1 10-2 11-2 10-4 22-1 10-2 18v8 6l1 5 1 4 4 3 4-2 2-3 3-5 3-6 4-7 4-8 4-9 4-10 8-22 4-12 10-24 4-12 6-11 5-10 5-9 5-7 5-6 4-3 4-2 4-1 4 1 4 2 3 4 4 5 3 6 6 14 3 9 2 9 6 18 3 10 3 9 6 16 3 7 4 7 9 9 6 2 5 2 7-1 16-5" style="clip-to-self:true;comp-op:src"/>
<path transform="scale(.1)" d="m4731.4 404.22 1-3 3-5 7-21 3-11 2-12 2-10 1-9v-8-6l-1-4-1-3-4-4-5 1-4 2-7 7-6 12-2 7-3 7-1 8-2 8v8 7l1 8 1 7 2 7 4 7 4 6 5 6 12 12 7 6 14 10 12 10 6 4 3 4 3 5 2 4-1 5-2 4-3 4-4 4-6 4-14 8-8 3-8 2-9 2-8 2-9 1h-8-8l-7-1-6-1-6-3-5-3-10-11" style="clip-to-self:true;comp-op:src"/>
<path transform="scale(.1)" d="m5072.9 271.45v-11l-1-4-2-3-2 5-1 4-2 5-2 7-3 10-2 11-4 13-5 15-4 16-5 17-4 18-5 17-5 16-3 16-8 28-2 12-2 11-2 10-1 8v5 5l2 3 3-2 3-3 3-4 4-5 7-14 4-9 3-9 6-22 4-13 2-14 3-14 3-16 9-51 4-17 3-17 5-16 5-14 5-13 5-11 4-9 5-7 4-4 4-3 3-1 5 2 3 3 2 6 3 6 2 8 2 9 2 11 2 12 1 14 1 15 1 16v17 17l1 18v16l1 15v15l1 13 1 11 2 9 1 9 2 7 2 6 2 5 2 4 3 5v-5l-2-4-6-11" style="clip-to-self:true;comp-op:src"/>
<path transform="scale(.1)" d="m5014 424.06-4-1-4-2 1-3 5-3 3-3 5-3 4-3 7-4 6-4 14-8 8-5 9-4 9-6 9-4 10-6 10-5 11-6 10-6 10-5 10-6 21-13" style="clip-to-self:true;comp-op:src"/>
<path transform="scale(.1)" d="m5185 327.07 1 4 5 5 3 2 15 15 5 6 5 5 4 7 5 7 4 7 4 8 4 9 2 9 3 10 1 9v9 9l-2 16-2 6-1 6-3 4-2 3-3 3-3 1-4 2h-4-3l-8-4-4-3-3-3-3-5-2-5-2-6-1-7v-7l1-8 2-9 3-10 4-10 4-12 7-12 6-12 7-12 9-12 8-11 9-9 9-8 9-7 16-10 7-3 15-4" style="clip-to-self:true;comp-op:src"/>
<path transform="scale(.1)" d="m5346.4 356.8 3-5 2-4 3-5 2-6 1-5 2-8 1-3v-5l-2-3-3-1-4 1-2 3-3 3-3 6-4 7-3 8-4 10-3 12-4 12-3 13-2 12-2 13-1 13-1 12 1 12 1 11 3 11 2 9 4 7 5 6 5 5 6 3 6 2h7l8-1 7-2 8-4 7-5 7-6 7-7 5-7 5-8 3-9 3-10 2-10 1-11v-12-14l-1-13-2-15-2-14-2-15-6-26-3-11-4-9-4-7-4-5-5-3-5-1-6 1-6 3-6 5-6 7-6 9-5 10-4 12-3 13-2 14-1 14v14l1 13 2 11 3 10 9 21" style="clip-to-self:true;comp-op:src"/>
<path transform="scale(.1)" d="m5489.1 320.59-1-4-3-2-3 3-1 3v39l1 8v10l2 18 2 10 4 18 4 16 3 6 4 7 6 8 4 3 4 1 3 1 3-1h4l2-3 6-6 3-5 2-5 6-21 2-8 2-9 1-10 2-9 1-11 2-10 2-9 1-8 2-7 2-10 1-3 3-2 3 2 2 2 1 4 2 5 1 6 4 16 1 8 2 9 2 10 1 9 4 18 2 10 2 8 3 7 1 7 3 7 2 5 6 9" style="clip-to-self:true;comp-op:src"/>
<path transform="scale(.1)" d="m5651.5 327.93v-3-6l1-5 3 2 1 3v4l1 6 1 7 2 18 1 11v11 11l1 12v48 7l1 6v5l1 3 1 4 3-4 1-5 2-5 2-7 4-16 4-18 2-10 4-22 4-11 4-12 4-10 5-11 5-9 6-8 6-6 6-4 5-3 5-1 5 1 5 2 4 4 4 5 4 7 3 8 6 20 3 11 6 36 1 12 1 11 2 11 1 10 1 9 2 7 4 13" style="clip-to-self:true;comp-op:src"/>
<path transform="scale(.1)" d="m5927 323.2v-5-5l-1-6-1-5-2-5-3-3-3-2-2-1-4-1h-5l-4 1-5 2-5 3-12 10-6 6-5 7-6 8-5 9-5 10-4 10-3 10-4 11-6 30v9 8l4 14 6 10 5 3 6 2h6 7l8-3 9-3 8-4 9-5 9-6 7-7 7-8 7-9 6-10 5-11 4-12 4-13 3-14 4-30 1-15v-16-31-16-16l-1-16-2-16-1-14-2-12-2-10-2-8-1-5-2-3-4 2-2 5-1 6-2 9-1 11-1 12-1 14-1 16-1 17-1 18v20l-1 20-1 22v23l2 44 2 21 2 19 3 18 3 15 3 13 3 12 11 23" style="clip-to-self:true;comp-op:src"/>
<path transform="scale(.1)" d="m6287.7 243.44v-3l1-6v-4l2-3 2 4 1 3 1 6v6 9l1 10-1 11v13l-1 14v15l-3 48v15 28 11l1 10 2 8 1 6 2 5 2 3 4 1 5-5 6-12" style="clip-to-self:true;comp-op:src"/>
<path transform="scale(.1)" d="m6340.8 226.17 1-5 2-4 1-5v-3l-3 3-2 4-1 5-1 7-2 6-1 8-1 9-2 9-1 9-1 11-2 10-2 23v12l-1 12-2 22v11l-1 10v10 8l-1 7v6l-1 4-2 4-4-2" style="clip-to-self:true;comp-op:src"/>
<path transform="scale(.1)" d="m6164.6 254.65-2-5-1-3v-3l2-5 4-5 4-2 4-3 5-4 5-3 7-3 7-4 8-3 9-4 10-3 11-4 13-4 14-3 14-4 32-6 16-4 17-3 16-2 15-2 14-1 13-1h10l9-1 17 1" style="clip-to-self:true;comp-op:src"/>
<path transform="scale(.1)" d="m6460.1 158.09-1 4-1 3-2 4-2 5-4 14-2 9-4 11-4 12-4 14-5 14-4 17-5 18-5 19-6 19-5 21-4 20-5 20-3 19-4 19-3 17-2 17-2 15-2 13-1 11-1 10-1 8v7l-1 4v4" style="clip-to-self:true;comp-op:src"/>
<path transform="scale(.1)" d="m6495.5 331.8-3 1-4 2-3 2h-3l4-2 3-1 5-2 4-2 6-2 7-3 14-4 8-2 7-1h8 7l7 1 12 4 6 4 4 4 6 12 1 9v9l-2 10-2 12-10 22-6 11-7 11-8 10-7 9-8 9-7 7-7 6-11 11-8 6-2 2-1 3 5 1 5-1h7l8-1 10-2 12-2 12-1 14-3 15-1 48-6 15-1h15l13-1 12 1 10 1 8 1 6 1 4 1-7 7" style="clip-to-self:true;comp-op:src"/>
</g>
<g stroke-width="1.41">
<path d="m332.74 65.473h348.61" style="clip-to-self:true;comp-op:src"/>
<path d="m517.01 957.82h20.848" style="clip-to-self:true;comp-op:src"/>
<path d="m515.67 966.23h21.52" style="clip-to-self:true;comp-op:src"/>
</g>
<g stroke-width="14.1">
<path transform="scale(.1)" d="m5696.1 9630.3h3l5 2 4 1 3 1 4 1 10 2 6 1h7l6 1h7l8 1h7 9 8l7 1h21 5l5 1h15l6-2 3-2 8-6" style="clip-to-self:true;comp-op:src"/>
<path transform="scale(.1)" d="m6132.9 9474.7-3-5-2-3-4-3-3-2-12-2h-14-9l-9 1-9 2-10 1-10 3-10 2-10 3-10 4-18 10-8 5-8 6-12 12-3 7-3 6-1 6 1 6 2 6 3 5 5 6 6 6 16 10 9 5 10 4 11 4 10 5 11 3 20 8 18 8 8 3 6 5 5 5 3 4 2 6v6l-2 6-3 7-5 7-6 8-8 7-9 8-10 7-11 7-12 7-13 6-13 5-13 6-24 8-11 4-11 3-10 2-8 2-7 2-7 1h-4-4l5-3 5-4 8-4 8-6 10-7 29-20" style="clip-to-self:true;comp-op:src"/>
<path transform="scale(.1)" d="m6177.5 9606.6 1-3 4 1 3 3 3 6 2 3 2 4 2 10 2 5v5l1 6v6l-1 7-1 6-1 7-2 7-3 7-2 7-3 6-3 4-4 5-3 3-4 3-4 2h-3l-3-1-7-6" style="clip-to-self:true;comp-op:src"/>
<path transform="scale(.1)" d="m6237.9 9528.1-3-5-4-6-3-2-8-4-4 1-2 4 1 6 1 3 1 4 1 3 1 4 3 10" style="clip-to-self:true;comp-op:src"/>
<path transform="scale(.1)" d="m6275.2 9593.7 4-1 2 8v5l2 12v7 7 7 8l-1 9v8 10l-1 10v9l-1 9v7l-2 10v3l-3 2v-4-3-4l2-12 2-7 2-9 3-8 8-18 5-10 5-9 6-9 6-8 7-8 7-7 7-6 7-4 7-3 5-3 6-2h5 5l3 1 4 2 3 3 4 8 1 5v6 7 7l-1 9-3 17-2 9-2 16-1 6v6 6" style="clip-to-self:true;comp-op:src"/>
<path transform="scale(.1)" d="m6491.7 9578.6-5-1-4-1-3-1v-3l4-4 3-2 10-6 7-3 8-3 8-2 9-2 9-3 18-2h8l8 1 7 2 6 2 5 4 3 5 3 6 1 7-2 16-2 9-4 8-3 10-15 27-10 16-4 6-4 5-3 4-3 2-4 3-1-5 2-4 3-4 4-6 4-5 6-7 7-6 7-8 8-8 8-7 32-36 9-9 8-10 8-9 8-8 7-8 6-7 9-9 2-3-4 1-4 3-4 4-6 5-6 6-7 8-6 7-7 9-7 10-6 9-5 11-5 10-3 10-3 11-2 10-1 10v10l2 9 3 8 5 8 6 6 7 6 9 5 11 3 12 2 13 1h14l15-1 14-3 15-4 13-5 28-11" style="clip-to-self:true;comp-op:src"/>
<path transform="scale(.1)" d="m3157.8 10124 1-4 1-5v-5-5l-1-4-1-3-2-3-3-2h-3-5-5l-6 1-6 2-8 3-7 4-9 5-10 6-20 14-12 9-10 9-11 10-9 10-9 11-7 10-5 10-4 9-2 9v9l2 7 4 6 5 6 7 5 9 5 9 3 12 3 12 2 26 2h14 13l13 1 24 2 10 2 9 4 7 3 6 5 3 5 1 7-1 7-2 7-5 8-14 16-9 7-9 8-10 7-10 6-10 4-11 5-9 4-10 2-16 4h-7-6l-3-1-4-4 1-3 3-5 3-6 6-7 18-20" style="clip-to-self:true;comp-op:src"/>
<path transform="scale(.1)" d="m3239.2 10230v4l1 3 2 8 2 5 1 6 1 5 2 6 1 6 2 6 1 6 2 6 3 18 2 5 1 5 2 5 2 6 2-4" style="clip-to-self:true;comp-op:src"/>
<path transform="scale(.1)" d="m3278 10157v3l1 4v4l1 4 1 5 2 4 1 3 4 9" style="clip-to-self:true;comp-op:src"/>
<path transform="scale(.1)" d="m3341.8 10223v4l1 7v5 7l1 7v8l4 32v8l2 14 2 12 2 8 2 3 1 4 2-3 2-6 2-5 4-12 3-7 3-8 8-18 6-11 6-10 7-11 16-22 9-9 8-9 8-7 8-6 7-4 6-3 5-2h5l4 1 3 2 3 4 2 4 2 6 1 8v8l-2 22-2 12-2 13-3 13-4 24-1 10-1 9v9l1 7 1 6 1 4 3 2 6 1 9-7" style="clip-to-self:true;comp-op:src"/>
<path transform="scale(.1)" d="m3756.6 10085-1-4-1-3-1-5-2-4-2-3-3-2-2-1h-4l-8 2-5 3-6 4-6 5-6 7-7 8-6 10-7 11-6 12-6 14-5 14-5 15-3 17-3 18-2 18v19 18l2 19 2 17 3 16 4 14 5 13 6 10 6 8 7 7 8 4 9 4 9 2 9 1 18-2 23-7" style="clip-to-self:true;comp-op:src"/>
<path transform="scale(.1)" d="m3857.7 10128-1-4v-4l1 6 1 4v4l1 6v7l1 8v9l3 30 1 11 4 22 2 10 1 9 3 7 2 5 2 4 7 1" style="clip-to-self:true;comp-op:src"/>
<path transform="scale(.1)" d="m3949.1 10097v4l-2 5-1 4v5l-2 12v19l1 7 1 8 1 7 4 16 3 19 3 9 2 9 3 9 2 8 3 7 2 6 4 8" style="clip-to-self:true;comp-op:src"/>
<path transform="scale(.1)" d="m3745.1 10141 2-5 3-4 3-6 5-6 4-5 7-5 6-5 8-5 9-4 10-4 10-5 11-3 11-5 11-4 12-4 13-3 12-4 13-2 14-3 28-4 48-8" style="clip-to-self:true;comp-op:src"/>
<path transform="scale(.1)" d="m4075.6 10032-1 4-1 5v4l-1 5-2 6-1 7-2 8-1 10-2 11-2 12-3 14-3 15-3 16-3 18-4 20-4 21-3 23-4 25-3 23-4 22-3 21-3 18-2 16-1 14-1 12-1 9v12l1 3" style="clip-to-self:true;comp-op:src"/>
<path transform="scale(.1)" d="m4117.3 10233-3-2-2-3-4-2-3-3-4-6v-4l2-4 6-4 5-3 12-4 7-2h8l8-1 9-1 16 2 7 2 7 3 6 4 5 5 4 6 3 7 1 9v9l-1 11-2 12-3 13-5 13-6 14-14 26-8 12-8 11-8 9-7 9-7 7-6 5-5 4-4 3-4 4 4 1 4-1h6l6-2 8-1 9-2 10-2 11-3 10-2 11-1 11-3 11-1 11-2 20-2 19-3 21-3" style="clip-to-self:true;comp-op:src"/>
<path transform="scale(.1)" d="m4328 10197-2-2 4-1 7-1h4 6l7-1 16-2h9l9-1 10-1 22-2 12-1 11-1 23-2 10-1h10 23 6l5-1 6-2 3-4" style="clip-to-self:true;comp-op:src"/>
<path transform="scale(.1)" d="m4426.7 10119-1-3 4 2 7 7 2 3 3 5 1 4 2 6 4 16 1 9 2 20 1 12v11l1 12v13l2 12 1 11 2 11 2 10 3 8 2 7 3 5 4 3h11" style="clip-to-self:true;comp-op:src"/>
<path transform="scale(.1)" d="m4643.7 10182-5-4-2-3-6-6-1-4v-5l3-6 6-6 4-3 10-4 6-1 5-1h7 5l6 1 10 6 4 4 4 5 2 5 2 6 2 7v8 8l-1 9-6 27-3 9-2 8-2 7-2 6-2 4-1 3-2 3v-4l1-3 2-5 3-5 4-6 4-7 5-7 5-8 12-16 6-9 6-8 18-27 6-8 5-8 4-7 3-6 3-4 2-6-1 3-2 4-3 4-3 6-3 7-3 8-4 8-6 18-2 11-2 10-1 10v11l1 10 6 18 5 8 6 6 8 5 8 3h9l9-1 25-8" style="clip-to-self:true;comp-op:src"/>
<path transform="scale(.1)" d="m4857.3 10057 3-1 5-1h4 4l5 1 5 2 6 2 6 3 6 4 7 5 12 12 12 16 5 9 5 11 6 22 2 13 1 13v15l-1 16-2 16-3 17-3 18-8 32-5 15-5 13-5 11-5 10-4 9-5 7-5 6-4 5-5 4-4 3-4 2-4 1h-3l-4-2-4-8" style="clip-to-self:true;comp-op:src"/>
<path transform="scale(.1)" d="m5218.5 10128h4l9-1 10-2h6l6-1h7 6l7-1h6 19l11 1h5l5 1 3 2 4 1 3 4v4l-5 4-11 6" style="clip-to-self:true;comp-op:src"/>
<path transform="scale(.1)" d="m5189.3 10199 3 1h5l3 1h36l8-1h8 8 8 9 61l7-1h7l6-2 7-1" style="clip-to-self:true;comp-op:src"/>
<path transform="scale(.1)" d="m5915 10096 3-4 2-4 4-6 2-6 3-6 4-12 1-6v-5-6-5l-1-5-2-4-3-4-2-3-3-2-5-1-4 1-6 2-6 4-7 6-8 8-9 10-9 11-9 13-20 28-9 15-18 32-8 15-6 16-5 16-4 15-2 14-1 13v11l2 9 3 7 4 6 5 5 7 3 8 1 8-1 9-2 10-4 10-5 11-7 12-9 11-9 12-10 22-22 10-12 9-11 8-10 7-9 6-8 3-6 3-5 1-4-4 4-3 4-2 4-4 7-3 7-4 16-1 8v8l4 14 4 6 5 5 6 4 8 2 8 1h9l10-1 10-2 10-4 20-10 9-5 8-7 6-7 7-7 4-8 3-8 1-7v-8l-1-7-8-12-6-6-7-4-8-4-8-2-10-1h-10l-10 1-20 6-18 10-14 12-6 6-4 7-3 6-1 7 1 7 2 5 4 6 5 3 6 3 8 1h8l27-5" style="clip-to-self:true;comp-op:src"/>
<path transform="scale(.1)" d="m6197.1 10095 3-5 1-4 1-5-2-8-3-2-3-1h-8l-4 1-4 2-5 2-4 3-4 4-3 4-2 5-2 6-1 6v7l1 7 3 8 7 14 6 7 7 7 7 6 8 7 7 6 16 12 6 5 11 11 4 6 2 6 1 5v5l-3 5-8 10-7 4-8 5-8 4-10 3-9 3-10 2-9 1-8 1h-8-7l-6-1-5-1-4-1-2-3-1-3 1-3 2-5 4-5 5-7 6-6 19-18" style="clip-to-self:true;comp-op:src"/>
<path transform="scale(.1)" d="m6455.8 10115 9-9 5-4 5-3 12-8 7-3 8-4 7-3 8-2 14-4h7l5 1 6 2 4 3 2 5 3 5 1 7v7l-1 8-3 9-2 9-4 9-5 10-6 9-6 10-6 9-7 9-12 16-6 6-5 6-5 4-5 3-2 1h-4v-4l3-3 3-5 4-6 6-6 5-8 7-8 8-9 7-9 8-10 9-10 9-11 8-10 9-11 10-11 9-11 9-10 8-9 8-7 5-6 5-5 3-4 3-2-4 8-4 5-5 6-5 7-6 8-5 9-6 9-10 19-5 10-4 9-3 10-2 10-1 9v10 8l3 9 5 7 6 7 7 5 9 6 10 4 11 4 12 3 12 2 22 2h10l22 3" style="clip-to-self:true;comp-op:src"/>
</g>
</g>
<g stroke="#0f0" stroke-width="14.1">
<path transform="scale(.1)" d="m6384.4 11108 1-6v-6-8l-4-14-3-5-4-4-4-2-5-2h-5-6l-6 2-14 6-8 4-8 6-8 7-9 7-9 8-18 20-8 11-7 12-6 13-6 14-4 15-6 28-1 14v13l2 12 3 10 4 9 5 8 6 6 7 4 8 4 9 2 10 1h10l10-1 10-2 22-8 11-5 12-6 11-7 11-8 12-9 10-9 20-22 8-11 7-11 5-12 3-13 2-12v-13l-2-13-3-14-5-13-6-13-6-12-8-12-7-9-9-8-9-6-9-5-9-4-9-1h-9l-8 1-8 2-7 4-6 4-6 5-4 7-3 6-2 6v6 7l6 12 4 4 6 3 19 6" style="clip-to-self:true;comp-op:src"/>
<path transform="scale(.1)" d="m6529.6 11021-2-5-3-5-6-1-5 3-4 8-2 6-2 7-4 18-1 11-2 12-2 26v13l-1 15v14l-1 30-1 15v15 39 9l1 8v6l1 5v4l1 5 2-5 1-5 2-6 2-8 3-8 3-9 8-20 10-20 5-9 6-9 12-16 6-6 12-8 5-2 4-2h5l4 1 2 1 3 3 2 4 1 5v5 6l-1 8-2 7-3 9-2 9-3 9-4 9-4 10-5 9-5 10-5 9-6 9-5 8-10 12-10 10-4 3-4 1-3 2h-4l-1-4v-4l4-12" style="clip-to-self:true;comp-op:src"/>
<path transform="scale(.1)" d="m6668 11166-3 1-4 1-4 4-1 3-2 8v18 7 8l2 18v10l1 10 4 20 2 9 2 8 3 8 2 6 3 6 2 5 4 6 3 2h3l5-10 1-5 4-14 2-8 3-9 2-10 2-11 3-12 3-11 4-13 7-25 5-12 10-20 4-7 3-6 3-5 3-4" style="clip-to-self:true;comp-op:src"/>
<path transform="scale(.1)" d="m6772.9 11180 2 4 2 5v4l-1 4-1 5-2 5-1 6-1 7-1 6-4 28v7 8 7l3 18 2 8 2 3 3-1 4-7" style="clip-to-self:true;comp-op:src"/>
<path transform="scale(.1)" d="m6791.6 11108-4-2h-4l-2 4v3 4 3l2 8 2 4 1 3 5 8" style="clip-to-self:true;comp-op:src"/>
<path transform="scale(.1)" d="m6869.6 11184-2 3-5 5-2 3-3 5-2 6-6 14-3 8-2 8-4 18-2 8v9l-1 8 1 7v7l2 7 2 5 4 4 4 3 4 2 6 1 14-2 16-6 8-5 9-6 7-6 7-7 6-8 5-8 3-8 2-8 1-9-1-8-2-8-3-9-4-6-5-7-6-6-6-5-7-4-8-3-7-2-8-1h-8l-6 2-7 1-6 3-5 3-4 4-3 4-1 4v3l2 4 7 6" style="clip-to-self:true;comp-op:src"/>
<path transform="scale(.1)" d="m7007.6 11187-3 2-3 3-4 10-2 6-2 7-1 6-1 7-1 8v16l1 7 2 16 6 21 2 6 3 5 6 8 3 2 3 1 6-1 3-3 2-3 3-4 2-5 2-6 3-7 2-7 3-8 2-9 3-10 3-9 4-9 3-9 5-9 5-8 8-12 4-4 4-3 3-1 4 1 3 6 1 5 1 6v7l1 7 1 16 1 7v8l1 8 2 14 2 6 4 10 3 4 3 3 4 2 4 1h5 4l10-4 13-8" style="clip-to-self:true;comp-op:src"/>
<path transform="scale(.1)" d="m7289.3 11153 3-4 2-4 1-5v-5l-1-3-6-4h-4-5l-6 1-5 1-6 3-6 2-7 3-6 3-6 4-7 5-11 11-4 6-5 6-3 7-3 8-2 7v8 8l1 7 2 8 3 6 4 7 5 6 12 10 7 5 32 16 7 3 8 4 5 3 6 3 3 4 2 3 1 4v3l-2 4-3 4-5 4-6 4-7 4-7 3-9 3-8 3-9 3-9 1-8 2-9 1-8 1h-8l-7-1-5-1-6-2-4-3-5-4-7-9" style="clip-to-self:true;comp-op:src"/>
<path transform="scale(.1)" d="m7536.9 11180v-6-3l1-4v-3l4-3 6-2h4l5 2 6 1 6 3 5 5 6 5 5 7 4 7 4 10 3 10 3 11 1 13 1 12v13l-1 12-1 13-2 12-3 10-2 10-3 9-3 6-4 6-3 3-4 3-5 2h-4l-8-4-4-4-3-6-2-7-2-9v-9-12l2-11 2-13 3-13 4-13 6-14 6-13 7-14 8-12 8-11 10-10 9-8 8-6 8-5 8-2 6-2 6 1 5 1 9 9" style="clip-to-self:true;comp-op:src"/>
<path transform="scale(.1)" d="m7703.1 11251 4-1 6-1 4-2 3-2 6-3 5-2 7-3 14-8 8-5 8-4 14-12 12-10 4-6 3-4 2-5 1-4v-4l-2-4-2-2-3-2-4-1-6-1-7 1-7 2-9 3-9 4-18 10-10 6-9 7-8 9-8 8-7 10-6 10-4 10-3 11-2 11-1 10 1 10 3 9 3 8 6 7 7 6 8 6 9 4 10 4 10 2 11 2 11 1h11 10l9-2 21-4" style="clip-to-self:true;comp-op:src"/>
<path transform="scale(.1)" d="m7941.7 11193-1-3v-3l-1-3-6-6-3-1-8-2-5 1h-5l-5 1-7 2-5 2-12 6-5 4-3 4-3 5-2 5-1 6v6l2 6 2 7 4 7 3 7 5 8 5 7 10 15 10 14 3 7 4 7 4 12v6 5l-2 5-2 4-8 8-5 3-6 2-7 2-6 2h-7-7l-12-2-10-6-4-4-3-5-4-16" style="clip-to-self:true;comp-op:src"/>
<path transform="scale(.1)" d="m7992 11192v4l-1 3-2 4-2 5-1 5-2 5-1 6v6 6 7l2 14 4 15 6 14 4 6 4 7 5 5 12 8 6 2 7 2 7 1 7-1 6-1 7-2 6-3 5-4 6-4 5-6 3-6 4-7 3-8 2-8 2-9 6-24 2-14 1-4v-8l-2 3-1 3-1 4v5 6l1 7 1 6 4 14 3 7 12 18 5 5 5 4 6 4 12 4 7 1h6 7l14-4 6-3 6-4 5-5 8-12 3-7 2-8 2-9 2-20 1-12v-13l1-13v-15l3-48 2-17 2-16 1-15 2-13 1-10v-8-5-3l-3 3-1 6-1 7-2 10-1 11-2 13-1 14v14l-2 30v16 15 16l2 15 1 16 2 14 3 14 4 13 3 11 6 9 5 7 6 6 6 3 6 2h6l6-1 10-8 4-6 4-7 3-9 6-20 2-12 2-13 1-14 2-15 1-16 1-17 1-19v-20l1-21 4-44 2-21 3-19 2-17 2-13 2-10 2-6 1-4-2 14-1 9-1 12-2 14-1 16-1 18-1 19-1 21-2 40v20l-1 21v20 41 20l1 18 1 17 2 16 2 13 3 11 3 8 3 6 3 4 3 1 6-9" style="clip-to-self:true;comp-op:src"/>
<path transform="scale(.1)" d="m8232.5 11250 11-11 5-3 6-2 14-7 9-3 9-4 10-3 10-4 28-9" style="clip-to-self:true;comp-op:src"/>
<path transform="scale(.1)" d="m8477.2 11173 4-3-2-4-4-4-3-1-3-2-4-1-7-2h-5l-4-1-4 1-5 1-4 1-4 2-5 3-10 10-2 5-1 5-1 6 1 5 2 6 3 6 6 6 5 6 16 12 9 6 30 18 9 5 10 5 8 5 12 10 4 4 1 4 1 3-2 4-3 4-5 3-7 4-9 3-11 4-12 3-42 9-14 1-15 2-34 1" style="clip-to-self:true;comp-op:src"/>
<path transform="scale(.1)" d="m6321.7 11569v-4l1-4v-5l-2-10-6-12-2-3-3-3-3-2-4-2-3-2-5-1-4-1-10-2h-5-5l-5 1-5 2-4 3-5 5-4 6-3 7-3 10-2 10-2 12-1 13v31l1 16 2 18 1 19 2 19 3 21 2 21 3 20 2 20 3 18 2 17 3 16 2 14 2 13 1 13 1 12 1 11-1 11-2 18-4 14-3 5-11 6" style="clip-to-self:true;comp-op:src"/>
<path transform="scale(.1)" d="m6123.8 11810v-4l1-3 2-10 3-5 2-5 4-5 8-12 6-6 6-7 14-14 8-7 10-7 9-6 9-7 10-6 27-15 19-9" style="clip-to-self:true;comp-op:src"/>
<path transform="scale(.1)" d="m6305.9 11696 1-5 1-3 2-4 1-3 5-5 6-4 8-1h8l5 1 4 2 4 3 4 4 4 6 4 7 3 8 2 10 3 11 1 12v14l1 14-2 28v13l-2 12-1 10-2 8-2 7-1 5-2 4-3 3-3-1-3-5v-4l-1-6 1-7 1-8 2-10 3-10 2-12 15-39 6-14 7-13 7-12 8-12 8-10 7-9 8-8 7-6 14-11" style="clip-to-self:true;comp-op:src"/>
<path transform="scale(.1)" d="m6472.6 11702 3 2 2 3 1 5v9l1 5v40l1 15v7l2 7 1 6 2 6 1 5 6 8 6 4 3 1h4l3-1 8-6 3-4 6-12 3-8 2-9 2-20v-12-11l-1-12-6-33-6-18-3-7-3-6-4-5-4-3-4-2-4-1-3 1-4 2-4 3-6 10-2 7-3 9-2 18 1 20 2 9 1 9 3 9 8 18" style="clip-to-self:true;comp-op:src"/>
<path transform="scale(.1)" d="m6589.5 11699v-4l-1-3v3 3 9l-1 6v7l-1 7-1 9v9 30 10l2 20 2 16 1 7 2 5 2 4 1 3 3 2 3-2 2-3 2-4 2-5 2-7 2-8 3-8 3-10 2-10 6-22 4-10 3-10 4-9 3-9 4-6 3-6 3-4 3-2 4-2 5 4 2 4 4 10 1 6 4 14 2 8 3 8 2 8 3 8 3 7 3 6 3 5 8 6 3 2h4l8-2 4-3 5-5 4-5 8-14 4-8 12-27 4-8 3-7 4-7 3-5 3-4 3-3 5-2 5 1 3 3 3 4 3 6 3 7 2 8 3 9 4 10 3 11 4 12 5 11 5 12 7 11 6 10 8 10 9 8 10 7 10 5 12 4 12 2 38-2" style="clip-to-self:true;comp-op:src"/>
<path transform="scale(.1)" d="m7202.6 11592 1-6 1-5 1-6 1-5 1-4 3 2 1 4 1 6 1 7 2 20v12 12 14 14 14l-1 16v15l-1 16v32l1 16v15l1 13 1 12 1 9 2 9 1 6v5l1 3-5-1" style="clip-to-self:true;comp-op:src"/>
<path transform="scale(.1)" d="m7056.5 11739v-4-3-5-3l4-6 3-2 5-1 5-2 6-2 7-3 16-6 10-3 11-5 11-4 11-5 12-5 13-5 24-12 13-6 12-6 12-7 20-12 9-5 7-5 5-4 4-3 3-2 4-2v4l-1 4-2 10-2 7-4 18-4 22-3 12-2 13-1 14-1 13-1 14v13 13l1 11 2 10 2 8 4 12 2 3 3 3 5 1 3-1 3-3 4-3 4-6 4-7 5-7 4-10 5-9 5-11 4-10 8-18 6-14 3-5 2-4 2-2 4-2 3 4 2 3 2 4 4 12 4 16 2 9 6 18 4 9 3 8 5 8 5 7 5 6 5 5 6 4 6 3 12 2 6-1 7-2 12-8 7-6 5-7 5-8 4-9 3-9 4-20v-10-10-9l-1-9-2-7-2-6-2-5-3-3-3-1-6 1-4 3-4 4-4 5-10 16-4 10-3 10-3 11-2 12v11 11l2 10 4 10 4 9 6 7 7 8 9 5 10 5 12 3 13 2 14 1 15-1 16-2 42-9" style="clip-to-self:true;comp-op:src"/>
<path transform="scale(.1)" d="m7809 11679 1-6 2-5 2-7 1-5 2-3 2-2 3 2 2 3 1 5 1 6 1 7v22 14l-1 16-1 18-1 20v21l-1 23v108l1 19v18l1 17v16 42l1 6-2 6-2-3-1-5-1-6-2-20" style="clip-to-self:true;comp-op:src"/>
<path transform="scale(.1)" d="m7793.2 11799v-3l1-6 1-10 2-13 1-13 3-12 4-11 4-10 4-9 12-14 7-6 8-5 9-5 8-4 10-3 9-2 10-2h8 9l8 1 7 2 6 4 5 5 3 6 2 8 1 9-1 12-2 12-4 15-5 15-7 16-8 16-8 15-9 15-9 13-10 11-9 10-9 7-7 6-7 4-6 2-4 1h-4l-4-4v-3l2-5 3-6 5-9 7-9 7-10 24-31" style="clip-to-self:true;comp-op:src"/>
<path transform="scale(.1)" d="m8025 11598-1-3-3-4-3-2h-4l-1 5-1 3-1 4-2 10-1 7-2 18-1 10-1 12v13 29 16l1 18 1 17 2 17 2 16 2 15 3 13 4 11 3 10 4 7 4 6 4 3 4 2 3 1 3-2 3-3 6-11" style="clip-to-self:true;comp-op:src"/>
<path transform="scale(.1)" d="m8061 11744 1-3 2-5 2 5v5 5l1 7v8l1 8 3 27 2 8 6 14 4 7 10 10 12 6 6 1h7l7-1 7-2 7-3 6-4 6-5 4-5 4-6 3-7 2-8v-8-9l-1-9-1-10-3-10-3-9-4-9-4-8-5-7-4-6-6-5-5-4-6-3-6-1h-6-5l-4 2-5 3-6 8-2 10v5 4l4 8 7 6" style="clip-to-self:true;comp-op:src"/>
<path transform="scale(.1)" d="m8268.9 11597 2-10 1-6v-8l-1-4-2 4-2 8-1 7v8l-1 9-1 10-1 11-2 26-1 15-2 32v17l-1 17v18 18l1 17 1 16 2 14 2 13 2 10 2 8 2 7 2 3 4 2 2-7" style="clip-to-self:true;comp-op:src"/>
<path transform="scale(.1)" d="m8226.7 11764 9-3 3-2 10-6 12-8 7-5 8-6 7-6 8-6 9-6 9-7 8-6 9-7 18-12 8-6 8-5 7-5 12-6 6-4h4l-2 4-2 3-3 4-3 5-4 6-5 6-10 14-4 7-3 8-3 7-2 7-1 7v6l1 6 2 7 3 5 4 6 11 11 14 10 9 5 8 5 7 5 7 6 6 5 5 5 3 6 2 7v6l-1 6-3 6-4 6-6 6-8 7-9 6-9 7-11 7-11 5-11 6-12 4-31 7" style="clip-to-self:true;comp-op:src"/>
</g>
</g>
</g>
</svg>
