<?xml version="1.0" encoding="UTF-8"?>
<svg width="1e3pt" height="1e3pt" version="1.2" viewBox="0 0 1e3 1e3" xmlns="http://www.w3.org/2000/svg">
<g id="surface20">
<rect width="1e3" height="1e3" fill="#2e3436"/>
<g fill="none" stroke-linecap="round" stroke-linejoin="round" stroke-miterlimit="10">
<g stroke="#fff">
<g stroke-width="14.1">
<path transform="scale(.1)" d="m3797.6 468.32 2-5 7-14 4-7 2-8 6-14 4-12 1-6 2-5 2-10v-4l-1-4-1-3-4-5-2-1-4-1-5 1-5 2-6 3-7 5-9 6-9 7-10 9-12 9-23 23-22 24-9 13-8 12-6 12-5 12-3 11-1 10v10l2 9 3 8 5 8 7 7 8 6 10 6 11 5 12 5 14 5 13 4 14 4 13 5 12 4 12 6 11 5 10 6 9 6 7 6 6 7 5 7 4 7 2 8 1 7v7l-2 8-3 8-4 7-5 7-6 7-14 12-9 4-18 10-20 6-22 6-11 1-11 2h-10l-10 1h-8l-8-1-7-2-5-2-4-4-3-12" style="clip-to-self:true;comp-op:src"/>
<path transform="scale(.1)" d="m3911.1 651.95-1 5-1 4-1 5v6l-1 6v14l3 21 2 7 2 6 1 6 3 5 5 11 3 4 2 4 7 7 3 2 4 1 6-1 7-6" style="clip-to-self:true;comp-op:src"/>
<path transform="scale(.1)" d="m3953.3 524.8-4-8-2-6-3-5-4-8-2-3 2 2 3 6 1 4 2 4 2 6 1 6 4 16 4 21" style="clip-to-self:true;comp-op:src"/>
<path transform="scale(.1)" d="m3972 651.95v-3-5-3l2 2 2 5 1 4 1 3v4l1 4v5 5l1 5v5 4l1 5v4l1 5v3l1 3 1 4 3-2 2-5 2-3 1-4 2-5 4-12 3-6 6-16 5-8 5-9 12-18 16-18 7-8 9-7 7-5 8-4 7-2 6-1 6 1 4 2 5 4 3 4 2 7 2 9 1 9-2 22-1 13-5 27-2 13-2 14-1 12 1 12 2 10 3 8 5 6 7 4 7 1 25-3" style="clip-to-self:true;comp-op:src"/>
<path transform="scale(.1)" d="m4314 605.82-3-5-1-4-4-8-2-8v-10l2-10 1-6 3-6 3-7 3-6 4-6 5-6 5-5 6-5 7-3 6-3 7-3h6 6l6 1 5 3 3 5 4 7 2 9 2 10 1 11-1 12-2 26-3 13-3 12-3 13-8 22-4 10-4 9-4 8-4 7-4 6-4 5-3 4-3 3-5 3-2-3 1-3 1-4 3-5 3-6 4-7 5-8 5-9 6-9 8-11 7-11 8-11 8-12 9-12 18-22 8-10 7-9 6-7 5-6 4-3 2-3 2 3-2 5-2 6-3 7-5 9-4 10-6 11-5 12-6 12-5 11-8 24-3 12-1 10-2 11v9l1 9 1 8 3 6 4 6 4 4 6 3 6 2 8 1 16-2 10-3 9-4 20-12" style="clip-to-self:true;comp-op:src"/>
<path transform="scale(.1)" d="m4514.7 655.43 3 3 4 2 3 1h4 5 5 7l7-1 9-1 18-4 10-1 10-2 11-2 20-4 9-2 8-2 8-1 12-4 10-5" style="clip-to-self:true;comp-op:src"/>
<path transform="scale(.1)" d="m4600.9 587.3-1-4v-3-5-3l3 2 3 9 2 10 1 7v8l1 8v9 10 10l1 10 1 9 2 20 1 9 2 9 1 8 2 7 6 13" style="clip-to-self:true;comp-op:src"/>
<path transform="scale(.1)" d="m4766.6 544.61-4-3-1 3v4l1 3 2 10 4 12 2 5 2 6 3 5 4 5 3 5 5 5 5 4 6 3 5 3 6 3 6 2 6 1h6 6l5-2 6-2 5-2 4-3 4-4 3-4 6-10 4-12 1-7 1-8v-7-8-20l1-4v-3 11l-1 7v9l-1 12v12l-1 13-2 30-1 16-2 15-1 16-2 16-1 16-2 30-1 14-1 13-2 22-1 9-2 9-2 7-1 6-3 6-4 5-8 8-5 3-6 3-7 2-8 1-8 2-9 1h-10-11l-11-1-31-5" style="clip-to-self:true;comp-op:src"/>
<path transform="scale(.1)" d="m4309.6 429.53-5 2-5 3-7 5-7 7-8 9-9 11-8 14-9 15-16 36-14 38-5 20-5 19-3 18-2 18-1 16v17l6 32 5 15 6 14 8 14 9 12 11 12 13 11 14 9 15 8 17 6 16 4 46 4" style="clip-to-self:true;comp-op:src"/>
<path transform="scale(.1)" d="m4928.1 370.9 5-1 6-1h7 7l8 1 8 3 9 4 18 12 9 8 8 10 7 12 6 14 5 15 2 18 2 20 1 21v23l-1 22-2 23-2 22-3 21-4 20-3 19-12 36-6 16-7 16-8 15-8 13-9 12-9 11-9 9-9 8-9 7-10 6-9 5-9 3-9 2-9 1h-8l-20-6" style="clip-to-self:true;comp-op:src"/>
</g>
<path d="m361.94 96.375h149.53" stroke-width="1.41" style="clip-to-self:true;comp-op:src"/>
<g stroke-width="14.1">
<path transform="scale(.1)" d="m1114.6 1664.2-3-4-3-2-4-1-5 1-4 2-3 2-5 4-11 11-7 8-7 10-8 12-9 14-17 34-8 19-8 20-7 20-7 21-6 20-4 19-3 18-3 17-1 15 1 13 1 11 3 9 4 8 4 5 6 4 6 2 8 1 8-1 9-2 10-3 10-5 11-7 12-7 11-9 12-11 11-11 10-12 20-26 8-13 8-14 7-12 5-11 5-10 3-7 1-6v-3l-2-1-3 1-9 9-10 16-6 10-5 12-6 12-8 24-4 11-2 11-1 11v9l1 8 1 7 3 6 3 4 4 3 5 2 6 1 7-1 7-2 9-3 10-4 10-5 11-6 11-8 12-8 11-9 11-10 11-11 9-12 8-12 12-26 4-13 3-13 1-12 1-11-1-10-1-9-3-7-4-6-4-5-6-3-7-2-8-1-8 1-9 2-10 3-10 5-11 5-10 7-10 8-9 8-9 10-8 9-7 10-5 10-4 9-3 9-1 6 1 6 2 4 4 3 5 2h6l17-3" style="clip-to-self:true;comp-op:src"/>
<path transform="scale(.1)" d="m1391.1 1737.9 2-3 3-5-4-2-3 1-5 2-6 3-7 3-7 4-7 5-9 5-8 6-7 6-16 14-12 14-8 14-2 7-1 6v6l2 5 3 5 4 4 12 6 8 3 7 2 9 2 8 1 9 2 18 2 16 4 6 2 6 3 4 3 3 3 2 4v3l-1 5-2 5-4 5-11 11-6 5-8 6-9 5-10 5-9 5-20 8-10 3-9 4-10 2-8 3-14 2-4 1-4-1-2-4 1-4 8-13" style="clip-to-self:true;comp-op:src"/>
<path transform="scale(.1)" d="m1635.8 1663.3-3-2-6-2h-3-4l-5 1-6 2-5 2-6 3-7 3-6 5-8 5-8 7-7 9-9 10-8 11-8 14-8 15-8 17-7 18-7 19-5 20-4 20-3 19-2 19v18l1 16 2 14 3 12 5 11 5 8 8 6 8 5 10 3 11 2h12l12-1 14-1 13-3 13-4 13-5 12-5 10-6 10-7 9-7 15-22" style="clip-to-self:true;comp-op:src"/>
<path transform="scale(.1)" d="m1852.3 1682.7-3-2-2 3v6l-1 4v6l-1 7-1 8v8l-1 9-1 10v11l-1 11-3 36v12 11 10 8l1 7 1 6 1 5 2 3 4 4 4-1 4-12" style="clip-to-self:true;comp-op:src"/>
<path transform="scale(.1)" d="m1902.1 1684.4 2-3-2 3-1 3-1 4-1 5-1 6-2 7-2 8-1 9-2 9-2 10-1 11-2 10-1 11-2 11v11l-1 10v9l1 9 2 14 1 6 2 8 2 6-1-9" style="clip-to-self:true;comp-op:src"/>
<path transform="scale(.1)" d="m1792.9 1715.9 3-4 3-3 4-6 4-3 3-3 4-3 4-4 5-3 5-4 14-8 7-5 8-5 9-4 9-5 10-4 9-4 11-4 10-4 10-3 27-6h8l7-1h7 5l5 1h4l6 3" style="clip-to-self:true;comp-op:src"/>
<path transform="scale(.1)" d="m2035.3 1608.1v4l-2 6-1 6-1 7-2 9-1 11-2 12-3 14-2 15-2 16-2 17-6 38-3 20-2 20-5 41-4 38-2 17-2 16-4 26-1 11-2 10v8l-1 7-1 5v5l-1 3 1-7 2-15" style="clip-to-self:true;comp-op:src"/>
<path transform="scale(.1)" d="m2039.6 1828.9v-4l4-5 6-6 8-6 10-6 11-5 5-2 5-1h5 4l4 1 3 2 3 3 2 3 1 5v6l1 7-1 9v9l-4 22-3 11-3 12-3 11-4 11-8 18-5 8-4 7-3 6-4 5-3 4-4 6-2 4 3 2h5l8-2 6-2 6-1 6-2 14-4 15-3 16-3 7-1 8-1 7-1 6-1h6 5 4l4 1 3 1 4 1 2 2-1 4-3 3-3 2-4-2-3-7" style="clip-to-self:true;comp-op:src"/>
<path transform="scale(.1)" d="m2321.8 1754.7h5l5 1h13l11-1 6-1h7l7-1h7 7l6-1h7 33 4 3l6 1h4l3-1 4-1 4-3 6-9" style="clip-to-self:true;comp-op:src"/>
<path transform="scale(.1)" d="m2597.7 1616.8h-5l-4 1-6 4-4 3-3 5-4 5-5 6-10 16-6 10-10 22-6 12-4 13-5 13-4 13-6 28-1 13-1 14v13l1 13 2 11 3 11 8 16 5 6 6 4 12 6h6l7 1 7-1 7-2 6-2 7-3 16-11" style="clip-to-self:true;comp-op:src"/>
<path transform="scale(.1)" d="m2644.6 1747.4 3-4 1-3 9-9 3-2 5-3 10-4 6-2 5-2 6-1 6-2h6l11 1 4 2 5 1 3 3 3 4 2 5 1 5 1 6v7l-1 7-8 32-2 7-3 7-2 6-1 4-1 3-1 4 1-5 1-3 2-5 3-5 3-6 8-14 5-8 4-8 6-9 5-8 6-10 5-9 6-10 5-10 6-9 5-8 4-7 3-5 3-4 2-4-3 6-1 4-3 5-6 14-3 8-3 9-3 8-4 18-1 9v8 8 7l2 7 3 6 4 5 4 3 6 2 6 1h8l9-1 8-2 9-2 10-4 9-3 8-4 8-5 19-11" style="clip-to-self:true;comp-op:src"/>
<path transform="scale(.1)" d="m2888.9 1739.6h5 7 5l6-1 24-3 17-2h9l8-1h8 16l7-1h6 5l5-1 7-2" style="clip-to-self:true;comp-op:src"/>
<path transform="scale(.1)" d="m2948.8 1662.4-3-3-3-4-3-2-1 4v6 5 5l1 6 1 7v7l2 16 2 18 2 9 2 8 4 18 4 16 3 7 3 6 7 7 10 2" style="clip-to-self:true;comp-op:src"/>
<path transform="scale(.1)" d="m3072.4 1652.1-3-1-2 4-2 8-1 5v6l-1 6v7l1 6 1 7 4 12 3 6 3 7 4 6 4 5 6 5 5 4 6 3 7 2 7 1h7l7-1 8-2 7-2 7-3 7-4 7-5 6-5 5-5 8-12 4-14 1-7v-7-6l-1-6-1-5-2-5-1-3-3-5-3-1-2 3-2 6v5 5l2 14 1 8 4 18 4 20 4 22 2 13 2 26 1 14v29l-2 26-1 12-2 11-3 9-2 8-4 6-4 5-3 4-5 2-5 3-4 1h-6-5l-6-2-5-2-6-4-5-6-6-7-13-21" style="clip-to-self:true;comp-op:src"/>
<path transform="scale(.1)" d="m3226.1 1612.9 4-1 6 1 8 2 6 3 5 3 6 5 6 6 6 7 5 8 5 10 5 11 4 12 4 13 2 14 3 15 1 15 1 16v16l-2 34-4 32-2 15-3 14-6 22-2 8-3 8-3 6-3 5-2 4-3 2-4 3-3-3-2-3-1-13" style="clip-to-self:true;comp-op:src"/>
<path transform="scale(.1)" d="m3362.7 1581h3l4 2 6 2 5 3 7 4 6 5 7 6 8 7 7 8 7 9 6 10 6 11 5 13 5 14 3 14 3 16 3 17 2 36v19l-1 20-1 19-3 19-3 18-4 18-5 16-5 13-7 12-7 11-8 9-18 14-9 5-10 4-9 4-9 3-9 2-8 1-7 1-6-1-6-2-3-3-2-12" style="clip-to-self:true;comp-op:src"/>
<path transform="scale(.1)" d="m3741.1 1722.4 6-1h6l8-2 9-1 8-1 9-1 8-1 7-1 8-1h6 9l5 1" style="clip-to-self:true;comp-op:src"/>
<path transform="scale(.1)" d="m3699.4 1811.2 3 3 6 1h3 5 4 6 7l7-1 8-1h8l9-1h18l9 1 17 1 9 1h7 8 15l10-1" style="clip-to-self:true;comp-op:src"/>
<path transform="scale(.1)" d="m4304.9 1713.3 1-5 2-5 1-5 3-6 2-6 2-7 3-8 3-7 2-8 1-7v-7-6l-4-12-8-10-10-8-6-3-14-4-7-1h-8l-7 1-8 1-8 2-14 6-7 4-6 4-5 5-4 6-3 5-2 6-1 7 2 14 4 6 4 7 6 7 6 6 8 7 8 6 9 7 9 6 18 14 16 16 7 9 6 8 5 10 4 10 3 10 2 10v11 10l-2 12-2 10-4 10-5 10-5 8-6 8-6 7-12 10-7 3-12 6-5 1h-5-4l-2-1-2-3-1-3v-5l4-18" style="clip-to-self:true;comp-op:src"/>
<path transform="scale(.1)" d="m4372 1734 3-1 4-2 1 3-1 4-1 5v5l-1 5-1 6v6l-1 7v38l1 10v9l2 20 2 9 2 8 2 7 3 6 3 5 3 4 2 2 3 1 6-2 5-8" style="clip-to-self:true;comp-op:src"/>
<path transform="scale(.1)" d="m4426.6 1712.9 2-2 4 2 3 4 2 3 4 4 4 5 3 2 2 2 5 4 6 5" style="clip-to-self:true;comp-op:src"/>
<path transform="scale(.1)" d="m4497.4 1746.1v-8l4 2 3 6 2 5 1 5 2 6 1 8 2 8 1 9 2 10 1 10 2 11 1 10v11l2 11v9l2 14v5l1 4v4l1-3v-16-8l1-10 2-24 4-28 3-14 5-15 4-13 6-13 6-12 8-11 7-9 7-7 8-5 7-4 7-3 7-1h6l6 3 5 3 5 5 3 7 2 8 2 9 1 10v11l-2 24-3 27-3 13-2 13-4 24-2 9-1 9-1 6-1 4-1 3" style="clip-to-self:true;comp-op:src"/>
<path transform="scale(.1)" d="m4890.2 1568.9-3 1-4 1-5 2-6 3-6 4-6 6-8 7-8 8-18 22-18 26-24 45-6 15-5 15-3 14-2 15v13l1 13 3 13 5 11 6 10 8 9 10 8 12 5 13 4 13 3 15 1 28-2 14-3 30-8" style="clip-to-self:true;comp-op:src"/>
<path transform="scale(.1)" d="m4951.1 1730.5 3-6 2-3 2-4 6-6 8-6 5-3 15-6 11-1h5l4 1 5 1 8 4 4 3 2 4 2 10-1 6v7l-2 8-3 7-2 9-4 7-2 8-3 7-3 6-2 6-2 4-2 6 2-6 1-5 2-5 3-7 3-8 4-8 4-10 5-9 4-11 5-10 5-11 15-30 4-9 4-7 3-6 3-4 2-3 2 3v5 5l-1 6-1 8-1 7-1 8v9 9 9l1 8 1 9 2 7 3 8 3 6 5 6 10 8 6 2 7 1h7l17-5" style="clip-to-self:true;comp-op:src"/>
<path transform="scale(.1)" d="m5161.4 1713.8 4 1h6 5 6 7 8 8l9-1h10l9-1 19-1h9 9 8l8-1 7-1 6-1 11-3" style="clip-to-self:true;comp-op:src"/>
<path transform="scale(.1)" d="m5264.8 1667.2-9-6-4-2-4-3-3-2-3 4v3l-2 8v6 19 7l2 16 2 8 1 8 3 8 2 9 4 7 4 8 4 6 5 6 5 4 5 3 7 2 18-1" style="clip-to-self:true;comp-op:src"/>
<path transform="scale(.1)" d="m5455.5 1637.4-1-2 1 5 2 5 2 4 1 4 1 5 4 10 2 7 4 12 6 12 2 5 4 5 4 4 3 4 5 4 5 2 4 2 5 2h5l5 1 5-1 6-1 4-1 5-3 5-2 8-6 3-4 3-5 4-10 1-5 1-6 2-14v-7l1-7v-7l1-7v-7l1-6v-6l1-5v-3l2-3 3 2 3 7 2 4 2 6 2 8 3 7 6 20 3 11 4 11 3 12 3 11 3 12 3 11 2 12 4 22 2 10 2 20v8l-1 8-1 7-1 6-3 5-2 4-4 4-5 3-5 2-6 2-7 2-8 1h-9l-18 2h-20l-20-2-10-3-9-2-9-4-8-4-16-13" style="clip-to-self:true;comp-op:src"/>
<path transform="scale(.1)" d="m5667.7 1546.5v-3l2-3 4-2 6-1 4 1h5l5 2 6 1 6 2 8 3 7 4 8 5 8 6 7 7 7 8 7 10 6 10 6 12 5 13 4 14 3 15 2 34v16l-2 18-2 16-3 16-4 15-5 15-12 28-7 14-8 12-9 13-10 10-9 10-10 8-11 6-10 6-11 5-11 3-22 4-30-2" style="clip-to-self:true;comp-op:src"/>
<path transform="scale(.1)" d="m1006.4 2639.3v-13l-1-4-1-3v-3l-3-5-4-3-4-2-4-1-9 3-4 4-4 5-5 8-6 9-5 12-7 14-7 16-6 17-7 19-7 20-6 21-10 44-5 21-3 20-3 18-2 16-1 14 1 12 2 10 4 8 4 7 6 6 6 4 7 3 6 1 8-1 8-2 8-3 18-10 10-7 9-8 9-9 8-10 9-11 14-24 6-12 5-13 5-12 4-11 4-18 1-7 1-5v-3l-2-3-3 4-1 3-2 5-2 6-2 7-1 8-1 9-1 10 1 10 1 9 1 10 3 9 3 8 4 8 4 7 5 6 5 5 6 3 7 3 6 1h7l7-1 7-2 8-3 7-4 7-5 7-6 6-7 5-7 4-9 4-18v-11-11l-2-12-6-24-4-13-4-12-5-10-5-9-4-7-5-6-5-3-6-2h-5l-6 2-6 3-5 5-6 7-5 7-8 18-2 9-2 8-1 8 1 17" style="clip-to-self:true;comp-op:src"/>
<path transform="scale(.1)" d="m1315.9 2713.9-5 1h-4l-5 1-4 1-4 3-4 2-4 4-3 4-4 5-2 6-3 6-2 6-1 6v7 7l2 7 2 8 3 7 12 21 5 7 5 6 4 7 5 6 3 7 4 7 3 6 4 14v6 7l-1 6-2 6-3 6-8 12-12 10-6 4-7 4-8 4-8 3-7 2-16 2-14-2-7-2-10-8-2-7v-18" style="clip-to-self:true;comp-op:src"/>
<path transform="scale(.1)" d="m1475.4 2612.2-3-1h-3l-4 2-3 3-2 3-1 3-4 8-2 6-2 7-2 8-3 9-3 11-4 12-3 14-4 15-3 16-4 17-3 18-3 17-3 18-1 17-1 16v16l2 14 3 13 5 13 5 11 8 11 8 9 9 8 11 6 11 4 13 3 14 3h15 17l17-1 18-2 17-4 18-5 16-5 33-15" style="clip-to-self:true;comp-op:src"/>
<path transform="scale(.1)" d="m1836.5 2634.2-1 4v10 6 8l1 8v9 10l1 10v11 21l1 11 2 20 2 9 4 16 2 6 1 5 2 3 4 3h4l3-5 3-10" style="clip-to-self:true;comp-op:src"/>
<path transform="scale(.1)" d="m1904.5 2654v3l1 3v5 5l1 5 1 6v6l2 16 2 18 1 10 3 22 2 11 1 10 4 20 1 9 4 16 1 6 2 8 2 4-4-7" style="clip-to-self:true;comp-op:src"/>
<path transform="scale(.1)" d="m1745 2691.9-3-3-3-4v-3l8-8 4-2 10-6 7-4 8-3 9-4 10-4 24-10 13-5 28-10 30-10 14-4 13-3 11-2 10-3 8-1 17-2" style="clip-to-self:true;comp-op:src"/>
<path transform="scale(.1)" d="m2055 2560.4h-3l-3 8-2 6-2 8-2 10-4 24-3 13-6 30-6 32-6 34-2 17-2 18-2 17-2 34-1 16v16 49 8l1 7 1 5v4l1 3" style="clip-to-self:true;comp-op:src"/>
<path transform="scale(.1)" d="m2090.9 2785.9v-3l3-7 1-3 3-4 2-4 4-4 4-3 5-3 10-4 6-2 5-1 6-1h5l10 2 4 3 4 4 3 4 2 7 1 7v8 10l-1 10-3 11-8 24-5 13-12 26-12 24-12 22-5 9-7 14-2 5-1 4v3l3 4h6 5l6-2 7-2 8-3 8-4 9-4 10-4 9-5 10-5 10-4 9-4 8-4 8-3 7-3 6-3 5-3 4-2 8-5" style="clip-to-self:true;comp-op:src"/>
<path transform="scale(.1)" d="m2250.4 2740.2h6l7 1 5 1h14l8-1 10-1 10-2 11-1 22-5 22-4 10-2 10-1 8-1 7-1 6-2 8-2" style="clip-to-self:true;comp-op:src"/>
<path transform="scale(.1)" d="m2479.4 2695.4v-7l1-5 4-5 3-2 3-3 8-4 10-4 10-2h5l10 2 4 2 4 4 3 4 1 5 2 5v7 8l-2 8-1 9-12 36-4 8-6 14-2 6-1 4-2 3-1 3 4-2 2-3 9-9 4-6 12-14 7-7 7-8 14-18 7-10 8-10 7-10 6-11 7-11 12-22 5-11 5-9 3-8 2-6 1-4v-3l-2-1-6 5-4 4-4 6-5 6-4 8-5 9-4 9-4 10-4 11-3 11-2 12-3 12-1 13v12 12l1 12 3 11 3 10 4 8 5 8 6 6 6 4 8 3 8 2h9l8-2 9-3 8-3 18-12" style="clip-to-self:true;comp-op:src"/>
<path transform="scale(.1)" d="m1749.3 2511.7-3 1-4 3-3 4-4 4-7 14-3 8-4 11-4 12-4 14-3 15-4 16-4 17-3 18-4 18-4 40-1 20 1 20 1 21 2 21 8 40 6 19 7 19 8 18 8 17 10 15 11 13 11 12 26 18 13 6 14 4 15 3h16 15l43-6" style="clip-to-self:true;comp-op:src"/>
<path transform="scale(.1)" d="m2596.7 2498.4 5-1 4-3 7-2 8-1 9-2 9-1h10l11 1 12 1 11 2 24 6 12 5 12 6 11 7 11 8 10 11 10 12 10 14 7 16 7 17 6 18 4 19 3 19 1 20 1 19-1 21-2 21-3 21-5 21-6 19-7 18-7 16-8 16-8 14-18 28-10 13-9 12-10 11-10 9-8 8-9 7-8 5-6 3-6 2-4 1-4-1-3-3-2-12" style="clip-to-self:true;comp-op:src"/>
<path transform="scale(.1)" d="m2936.8 2732.5 3-3 3-2 2-1h3l5-2 5-1 6-1 7-2 8-2 10-1 11-3 11-2 12-2 12-3 12-1 12-2 11-2 11-1h9 9 7 7l6-1 10-2" style="clip-to-self:true;comp-op:src"/>
<path transform="scale(.1)" d="m3253.9 2598.4-3 3-1 4v4l-1 5v12l1 6v6l1 5 1 6 2 5 2 6 6 8 4 3 5 3 5 2 6 2 6 1 8-1 7-1 7-2 8-3 8-4 7-4 14-10 7-6 12-14 5-7 4-8 3-7 4-14 1-7v-15l-1-4-1 4v40 12l2 26 2 13 6 45 3 16 3 17 2 16 4 34 3 17 1 16 2 15 1 14 1 13v13l-1 11-2 10-2 9-3 7-4 7-6 6-6 5-7 4-8 3-8 2-9 1h-9-10-9l-10-1-11-2-10-3-11-4-20-10-18-12-7-7-15-19" style="clip-to-self:true;comp-op:src"/>
<path transform="scale(.1)" d="m3436.4 2532.9 5-3 3-2 3-1 5-1 5 1 5 2 7 2 7 3 7 5 9 5 8 7 8 9 8 10 9 12 8 13 14 30 6 16 5 17 8 36 2 19 2 20v21l-1 20-2 20-4 20-3 19-5 20-5 18-6 19-6 18-8 17-7 16-9 13-8 11-8 8-7 8-8 5-7 4-7 2-5 1h-5l-3-2-3-3-3-5-1-6-1-21" style="clip-to-self:true;comp-op:src"/>
<path transform="scale(.1)" d="m3694.6 2715.2 4-3 3-2 8-2 6-1h6 64 9 8l8 2 6 1 5 1 5 2h3l1 4" style="clip-to-self:true;comp-op:src"/>
<path transform="scale(.1)" d="m3707.5 2779.5-4 6-6 6v3l1 3 6 1h15 8l9-1 10-2 12-2 12-1 13-3 13-2 24-4 11-2 10-3 8-2 18-5" style="clip-to-self:true;comp-op:src"/>
<path transform="scale(.1)" d="m4207.6 2660v-5l-2-4-4 1-2 2-3 4-3 5-3 6-3 7-4 9-4 10-4 12-5 13-4 15-3 15-4 16-4 32-1 16v16l4 30 3 14 4 13 5 11 5 10 7 9 6 6 9 4 8 2h8l9-1 10-2 10-5 9-5 9-7 9-8 9-9 8-9 7-10 7-9 6-11 4-10 3-9 3-10 2-8v-7-7l-1-5-1-3-2-3-4-1-3 1-3 2-3 3-2 5-2 4-2 6-1 6v6 6l1 7 6 12 3 4 4 5 4 4 5 3 6 1 5 2h6 6l6-1 6-2 11-5 6-3 12-12 2-5 1-6v-5l-1-5-2-6-2-7-8-12-5-7-5-6-4-6-5-6-10-6-5-2-5-1-5 1-5 2-5 3-4 4-8 10-4 14-1 6v6l1 6 2 4 9 9" style="clip-to-self:true;comp-op:src"/>
<path transform="scale(.1)" d="m4531.4 2730.7-3-2-4-1h-4-4l-5 1-4 2-5 2-5 3-4 3-4 4-4 5-2 4-3 5-1 5v5 6l2 5 4 12 12 18 5 6 10 10 9 10 9 9 3 5 3 4 4 8v3 4l-2 3-2 4-4 4-5 4-6 5-6 4-7 4-9 5-8 3-9 4-9 3-9 2-8 2-14 2-6 1-4-2-3-1-2-4 1-5 9-15" style="clip-to-self:true;comp-op:src"/>
<path transform="scale(.1)" d="m4742.7 2652.3-1-3-3-6-2-2-3-2-4-1-8 2-4 2-5 2-5 4-19 19-8 10-7 11-7 12-8 13-7 15-8 16-6 16-10 34-4 17-3 17-1 17v17l1 16 4 16 4 15 6 14 7 11 9 10 10 7 10 4 12 2 12-1 13-2 13-5 13-6 13-8 31-24" style="clip-to-self:true;comp-op:src"/>
<path transform="scale(.1)" d="m4856.2 2697.1 3 3 2 4v3 3l1 4v5 6 45l1 8v8l1 7v7l2 6 1 5 2 4 3 3 2-1 5-7" style="clip-to-self:true;comp-op:src"/>
<path transform="scale(.1)" d="m4932.9 2663.9-2 3-1 3-1 4v4l-1 5-2 12v6 30 7l1 9 1 8v8l2 14v6l1 6 1 5 2 8-3-3" style="clip-to-self:true;comp-op:src"/>
<path transform="scale(.1)" d="m4814.1 2704.5v-3l1-5 2-5 3-2 2-3 12-9 5-3 7-3 6-4 8-3 8-4 9-3 9-4 11-3 11-4 11-3 12-4 11-3 10-4 11-3 26-10" style="clip-to-self:true;comp-op:src"/>
<path transform="scale(.1)" d="m5068.4 2576-4 2-4 4-2 3-2 4-2 5-2 7-2 8-3 9-4 20-3 13-2 12-3 13-2 15-1 15-4 32-2 17-2 18-2 17-1 17-2 18-1 18-2 19-2 17-1 16-2 14-1 13v10l-1 9v7l-1 5-1 3" style="clip-to-self:true;comp-op:src"/>
<path transform="scale(.1)" d="m5122.1 2813.1-4-8v-3l4-1 6-3h4l4-1 6-1 5-1h6 6l6 1 5 1 6 2 4 3 3 4 3 5 2 12v8l-2 8-2 9-2 10-3 10-8 21-4 10-5 10-8 20-13 26-4 7-3 6-3 5-2 5-2 4v4 4l4 3 8 2h5l6-1 8-1 18-2 10-2 11-1 44-8 20-4 9-1 7-1h7l5-1h4 3" style="clip-to-self:true;comp-op:src"/>
<path transform="scale(.1)" d="m5353.4 2756.2 1-3h4l3-1h4 6l6-1h7l8-2 9-1 30-6 11-2 20-4 9-1 8-1h7 16l4-1 3-1 5-3" style="clip-to-self:true;comp-op:src"/>
<path transform="scale(.1)" d="m5587.2 2697.1 4-2h4 19 5l10 2 4 2 5 2 7 7 3 4 1 5 2 6 1 7v7l-2 16-2 7-6 16-12 21-5 6-14 14-5 3-4 3-4 2-3 1h-5l-2-3 3-6 3-3 4-5 5-6 6-6 6-8 7-7 24-27 9-9 16-20 8-9 7-10 8-9 6-9 6-8 5-7 4-5 2-5 2-2-6 2-7 7-4 5-10 12-6 7-4 8-5 8-5 9-3 9-4 10-2 10-1 10-1 9 1 10 2 8 2 9 3 7 4 6 6 6 6 3 7 3 8 1 8-1h10l18-6 10-4 9-4 8-6 21-15" style="clip-to-self:true;comp-op:src"/>
<path transform="scale(.1)" d="m5736.6 2567.3v-3l3-4 3-1 4-1h5l6 1 7 1 8 3 9 3 9 4 20 12 20 16 10 10 9 11 9 13 8 13 8 14 6 14 6 15 8 32 3 16 2 16v16 15l-1 16-2 15-3 15-4 14-4 13-11 22-7 10-6 8-7 8-7 7-6 5-7 4-6 3-6 2h-5l-5-2-4-3-8-11" style="clip-to-self:true;comp-op:src"/>
<path transform="scale(.1)" d="m6124.6 2632-4-6-3 1-3 5-2 5-3 6-3 7-2 8-4 10-3 11-3 12-6 28-2 14-2 15-1 16v14 14l1 14 2 12 3 11 4 10 5 8 5 7 6 5 7 4 14 4h8l9-2 8-2 9-3 9-5 8-5 8-6 7-7 8-7 6-8 5-8 4-9 6-18 1-9 1-8-2-16-2-6-4-8-2-3-6-2-3 1-4 5-3 3-2 4-1 6-2 5v6 6l1 7 1 6 2 7 3 6 6 10 5 4 4 4 6 3 12 4 6 1h6l6-1 7-1 6-2 6-3 5-3 4-4 3-4 2-4 1-6v-5l-1-5-3-6-4-6-5-6-5-7-6-6-7-6-6-5-8-5-14-8-7-2-6-1-7-1-6 1-5 2-5 3-5 4-4 6-4 12v7 7l2 7 2 6 4 5 5 5 6 3 18 5" style="clip-to-self:true;comp-op:src"/>
<path transform="scale(.1)" d="m6399.6 2691.9-4-3-5-3-5 1-5 3-2 3-3 12-1 5v5l2 12 2 6 2 7 2 8 4 7 9 24 3 7 3 9 3 7 2 8 1 7 1 8 1 7v7l-1 6-4 12-3 5-8 10-5 4-6 4-12 6-6 2-7 2-5 1h-6-5-5l-4-2-3-3-2-3-1-5 2-14" style="clip-to-self:true;comp-op:src"/>
<path transform="scale(.1)" d="m6626.6 2562.6-4-2h-6l-4 2-5 2-4 4-6 5-5 7-7 8-7 9-7 11-8 12-8 14-8 15-8 16-7 16-12 36-4 19-3 19-3 18-1 18 1 17 2 16 4 15 5 14 6 13 8 11 9 10 11 7 11 5 12 2 13 2 14-1 13-2 14-4 13-4 13-6 11-7 24-18" style="clip-to-self:true;comp-op:src"/>
<path transform="scale(.1)" d="m6783.3 2680.3-1-3-4-5-1-3-4-4-4-2-1 5v12l1 6 1 8 1 7 4 18 3 8 3 9 8 16 5 7 6 7 6 6 6 4 7 4 6 2 8 1 7 1 8-1 8-2 14-6 7-4 6-4 6-5 4-6 6-12 2-14v-20-6l-1-6v-5-8l2 6 1 5 2 12 6 27 4 22 1 12 3 12 2 11 2 12 1 12 2 11 1 11 2 10 2 20v9l-1 9-1 8-2 7-3 8-3 7-10 12-5 5-6 4-7 4-6 3-14 4h-7-8-7l-7-2-7-4-15-10" style="clip-to-self:true;comp-op:src"/>
<path transform="scale(.1)" d="m6986.4 2617.8-1-5v-7l3-4 6-1h4l5 1h6l7 2 7 1 8 3 8 4 9 4 8 7 9 7 8 9 8 11 13 26 4 15 4 16 3 17 2 17 1 17v17l-1 17-1 15-2 16-3 16-3 14-4 15-5 14-5 13-6 12-6 10-7 10-6 8-13 13-5 4-6 3-5 3-5 1h-5l-5-1-12-4" style="clip-to-self:true;comp-op:src"/>
<path transform="scale(.1)" d="m7353.8 2763h3l15 3h6 25l10-1 22-2 13-2 14-1 13-2 15-1 16-2 15-2 30-2 14-1h13 12l10 1h11l8 1 14 4 4 1 4 2 3 1 2 2" style="clip-to-self:true;comp-op:src"/>
<path transform="scale(.1)" d="m7538.2 2628.6-6-6-3-4-3-3-1 6v3l1 4v10 6 8l1 8v9l2 20 2 11 1 12 4 24 3 13 3 12 3 14 4 13 5 14 4 14 5 14 4 14 4 12 4 13 8 20 7 20" style="clip-to-self:true;comp-op:src"/>
<path transform="scale(.1)" d="m4279 3389.8 1-4v-3l2-5v-5l2-10v-10l-3-12-1-3-2-3-3-3-3-2-4-1-5-1h-6-6l-7 2-8 3-9 4-8 5-9 6-10 8-9 8-9 10-8 10-8 11-7 11-5 11-8 22-1 9v10l1 9 3 7 4 8 5 6 7 6 18 10 10 4 22 6 24 4 11 2 11 1 11 2 9 2 8 2 7 3 5 4 4 3 2 5v4l-1 5-2 5-4 5-5 6-6 5-7 6-16 10-8 4-9 5-8 4-8 3-8 4-7 3-7 2-10 4-4 2-3 1-4 2 5 1 8-2 10-4 17-8" style="clip-to-self:true;comp-op:src"/>
<path transform="scale(.1)" d="m4377.2 3510.9-2-3v4 6l1 4v5l1 5v6l1 7v6l1 7 1 8 1 7v8l1 8v8 7l1 7v6l1 6v5 4l1 3" style="clip-to-self:true;comp-op:src"/>
<path transform="scale(.1)" d="m4400.7 3470.4-3 2-1 3v4l1 5 3 5 2 3 3 4 8 3" style="clip-to-self:true;comp-op:src"/>
<path transform="scale(.1)" d="m4452.9 3487.7-1 3v15l1 6v6l2 14 2 16 1 9 2 9 1 9 2 10 1 9 2 9 1 8 1 7 2 10 1 4v4l-1-6v-8l2-12 1-8 2-7 6-18 4-10 5-9 6-10 5-9 14-16 6-7 7-5 6-5 6-3 5-2 5-1h4l8 4 4 10 2 6 1 6v8 9 9l-3 30v11l-2 20v9l-1 8v7l1 15" style="clip-to-self:true;comp-op:src"/>
<path transform="scale(.1)" d="m4756.1 3341.5-3-2-5 1-4 1-7 7-4 6-4 8-4 9-4 10-5 13-4 14-6 15-5 17-4 17-5 18-8 38-3 20-4 40v21l2 19 3 18 4 17 5 15 7 14 8 13 9 11 9 9 11 8 10 6 11 4 11 3 11 1h11l11-3 11-4 27-13" style="clip-to-self:true;comp-op:src"/>
<path transform="scale(.1)" d="m4909.9 3408.4v-8-3l3 3 1 3 1 4 2 12 1 7v7l3 27 1 10 1 9 2 10 2 9 1 9 2 8 3 8 3 6 3 5 2 4 3 2h7" style="clip-to-self:true;comp-op:src"/>
<path transform="scale(.1)" d="m4996.6 3379.5-4 3-2 4-1 5-2 7-1 7-1 8-1 7-1 9v8 8 8l1 8 2 8 1 8 2 8 3 8 2 8 3 8 3 7 2 6 6 8 2 4" style="clip-to-self:true;comp-op:src"/>
<path transform="scale(.1)" d="m4830.8 3449.3v-3-3l1-4 4-10 8-8 5-4 14-10 9-5 10-6 22-10 26-10 14-5 15-5 14-5 14-4 13-6 34-11" style="clip-to-self:true;comp-op:src"/>
<path transform="scale(.1)" d="m5119.2 3307-1-4-3-1-4 3-1 3-2 5-3 6-2 7-2 8-3 10-2 12-3 14-4 32-4 36-2 19-1 19-2 19-3 57v19l-2 36v31 13 11l-1 9v8 6l-1 6" style="clip-to-self:true;comp-op:src"/>
<path transform="scale(.1)" d="m5178.6 3561.4-2-4-2-6v-5l2-4 5-3 12-3 10-2h4l10 2 4 2 4 3 3 3 2 4 2 6 1 7-1 7-1 8-3 9-2 9-3 10-5 9-4 10-4 9-5 8-4 8-5 7-4 7-3 5-2 5-2 4-1 5 1 3 5 2h4l5-1h6l7-2 7-1 8-2 18-4 9-3 9-2 9-3 16-6 7-3 15-7" style="clip-to-self:true;comp-op:src"/>
<path transform="scale(.1)" d="m5347.7 3515.3v-4l3-1 4 1h7 4 6 6 7l16-2 20-2 11-1 10-2 11-1 11-2 10-1 10-3 9-2 24-8" style="clip-to-self:true;comp-op:src"/>
<path transform="scale(.1)" d="m5615.5 3441.5 2-4 3-4 4-3 3-2 5-2 4-2 5-2 5-3 5-2 7-1 5-1 7-1h6 6l5 1 6 1 4 3 5 3 3 4 3 5 2 6 1 7v7l-2 16-2 9-3 9-9 24-3 7-3 6-3 5-4 8-1 3 1-3 3-4 24-24 8-7 7-6 7-8 8-8 7-8 21-27 7-10 5-9 6-8 3-6 4-6 2-4 1-3-4 5-3 4-3 5-4 6-4 7-3 7-4 8-6 18-2 9v8l-1 9 1 8 1 7 3 8 3 6 5 5 4 5 12 6 7 1 14-2 8-3 19-11" style="clip-to-self:true;comp-op:src"/>
<path transform="scale(.1)" d="m5843 3301.9 3-4h5 4l5 1 6 2 7 1 7 2 8 3 18 8 10 6 18 14 10 10 9 10 8 12 14 28 5 16 4 17 3 17 2 17v17l-1 17-3 18-3 16-4 17-6 15-5 15-7 14-6 13-8 12-8 10-8 9-18 16-9 5-10 5-9 4-20 6" style="clip-to-self:true;comp-op:src"/>
<path transform="scale(.1)" d="m6214.7 3407 2-6 2-5 3-7 2-8 2-7 1-7v-6-7l-3-15-2-3-3-4-3-2-4-2-4-1-6-1h-6l-12 4-8 4-14 10-7 7-6 7-6 9-5 8-3 9-2 10-1 9 1 9 2 9 8 16 7 8 13 13 9 7 16 12 9 6 16 12 6 7 7 6 5 6 3 6 3 7 2 6v6l-1 6-2 6-3 6-4 6-5 5-6 5-12 8-7 4-6 3-7 2-5 2h-6l-4 1-5-1-3-1-2-3-1-3v-5l1-5 5-17" style="clip-to-self:true;comp-op:src"/>
<path transform="scale(.1)" d="m6315.8 3457.1 2 3v7 4l-1 5v6 12 6l1 6v6l1 6v6l3 18v6l1 6 2 6 2 5 1 5 2 3 3 5 5-6" style="clip-to-self:true;comp-op:src"/>
<path transform="scale(.1)" d="m6335.9 3438.5v-10l2-2 4 3 3 4 4 6 2 4 3 4 2 4 3 5 2 4 3 4 2 3 2 4 6 7" style="clip-to-self:true;comp-op:src"/>
<path transform="scale(.1)" d="m6426.9 3474.7 3 1 2 4 1 3 1 4 3 15 5 30 1 7 3 18 1 5v5l1 4v3 5l-2-6v-4-17-6l1-7 2-8 3-8 4-9 4-10 6-9 5-9 8-9 7-9 7-7 8-7 14-8 6-3 7-2h5 6l8 4 4 4 3 5 2 5 2 6 2 14v17l-1 8v10l-1 9v8 8 8l1 6 1 5 6 7" style="clip-to-self:true;comp-op:src"/>
<path transform="scale(.1)" d="m6804.4 3367.4-2-4-3-4-3 1-2 3-2 4-2 5-4 14-1 9-2 10v11 10 10l1 11 2 10 3 10 3 9 4 9 4 8 5 8 6 6 6 5 7 4 14 4h8l7-1 8-2 14-6 14-10 5-6 6-6 5-7 5-9 4-8 4-9 4-8 3-9 2-8 3-6 1-6 4-8 3 4 2 3 2 5 2 6 2 7 4 16 3 10 3 9 4 11 7 21 8 23 4 13 8 28 3 16 3 15 2 15 2 13 1 13v12l-2 20-3 10-4 8-5 8-6 6-6 5-8 5-16 6-9 1h-9-9l-8-1-9-2-8-3-7-5-6-4-5-7-3-6-3-8-1-8v-8l2-9 3-10 4-10 5-10 7-12 9-11 10-12 11-12 13-12 14-11 13-11 15-10 34-24" style="clip-to-self:true;comp-op:src"/>
<path transform="scale(.1)" d="m6676 3312.2-2-2-3 2-2 4-3 5-3 8-3 10-4 12-3 15-3 16-3 18-3 19-2 20-1 19v20 19 19l3 19 3 18 4 17 5 18 7 15 7 13 9 10 10 8 10 5 12 4 32 2" style="clip-to-self:true;comp-op:src"/>
<path transform="scale(.1)" d="m7046.2 3334.6 6-1h3 3l4 1 10 4 5 4 7 4 7 5 7 6 16 16 8 10 8 11 7 13 7 14 6 15 5 16 3 16 2 17 1 17-1 17-2 17-3 17-4 18-6 17-6 18-7 16-8 15-8 13-9 13-9 12-9 10-25 20" style="clip-to-self:true;comp-op:src"/>
<path transform="scale(.1)" d="m3783.2 4135.2 4-1 3-1 5-1 4-1h3l5-1h5l6-2 6-1 14-2 8-1 18-3 40-4h10l9-1h15l7 1h5l5 1 4 1 2 1 3 1-6 3" style="clip-to-self:true;comp-op:src"/>
<path transform="scale(.1)" d="m3834.5 4201.2 2 4 2 3 4 2 4 1 7 1h4l5 1 6-1h5l7-1h7l16-2 10-1 9-1 10-2 10-1 9-1 10-1h9l8-1h18l4 1h5" style="clip-to-self:true;comp-op:src"/>
<path transform="scale(.1)" d="m4421.3 4100.7-5-1h-5l-7-1-16 2-16 4-8 4-16 10-9 6-14 12-7 7-5 7-5 6-3 7-1 6v6l2 6 3 6 10 10 7 5 8 5 18 8 40 16 9 5 9 4 8 5 7 6 5 7 4 7 2 8v8l-2 10-3 9-5 10-14 20-18 20-10 9-10 8-9 7-10 7-9 5-10 5-16 6-8 2-7 1h-5l-5-1-3-1-1-3-1-4 1-5 2-7 4-8 15-21" style="clip-to-self:true;comp-op:src"/>
<path transform="scale(.1)" d="m4514.2 4243.4h5l2 3 3 5 1 4 2 10 2 12 1 7 1 6 1 8 1 7 2 16 2 8 2 14 1 6 2 6v5l2 4 1 4 2 4 4-3 1-10" style="clip-to-self:true;comp-op:src"/>
<path transform="scale(.1)" d="m4552 4205-3-1h-3l-4 3v3l-1 4-1 5v5 4l2 5 1 5 2 5 4 4 3 4 4 4 4 2 11 5" style="clip-to-self:true;comp-op:src"/>
<path transform="scale(.1)" d="m4648.8 4252-1 3-2 5-2 8v6 12l1 7 1 6 1 7 1 6 2 7 4 13 4 12 2 5 3 5 2 4 3 2 2 2 4 2 3-4 1-5v-5l1-5v-20-8l1-9 2-9 3-10 3-9 4-10 5-8 5-9 6-7 5-6 6-4 5-3 5-2 5-1h4l4 2 4 3 6 10 2 7 2 8 1 9v9 21 11l-2 20v10 24 5l1 4 3 3 7-3" style="clip-to-self:true;comp-op:src"/>
<path transform="scale(.1)" d="m4919.5 4266.2-3-4-2-4-1-3-2-3-1-6 2-5 2-4 2-3 3-4 8-6 11-5 5-2 7-1 6-1 6 1 5 1 6 1 5 3 4 3 4 4 3 5 2 6 2 7v8 8l-1 9-2 9-3 10-2 9-4 10-4 9-4 7-4 8-4 5-3 5-4 3-2 3-3 2v-5l2-3 2-5 4-6 3-7 5-7 6-8 5-8 6-9 6-10 7-10 20-30 7-10 12-18 6-7 3-6 4-5 2-3-3 2-2 4-3 5-3 7-8 18-3 10-4 10-3 12-2 12-1 13-1 12-1 13 2 22 3 11 4 9 4 8 7 6 8 6 9 3 11 3 11 1 13-1 14-2 14-4 37-14" style="clip-to-self:true;comp-op:src"/>
<path transform="scale(.1)" d="m5401.8 4169.3v-4l1-4 1-5v-5l-1-4v-3l-2-4-4 2-4 5-3 5-4 6-4 8-8 20-4 11-4 13-6 26-2 13-2 26 1 12 3 12 3 10 3 9 5 7 5 6 6 4 6 3 8 1h7l7-1 16-6 8-5 8-6 7-6 6-7 7-8 4-8 4-9 3-8 3-9 1-8v-6-7l-1-5-1-3-4-4h-5l-3 3-2 4-3 4-3 7-2 7-1 8v9 9l2 10 2 9 3 9 5 8 5 7 7 7 7 6 7 4 18 4 9 1 10-1 10-2 10-3 11-4 9-5 9-7 7-6 6-8 4-7 2-8 1-8-1-8-2-8-3-9-4-9-6-7-5-8-6-7-7-6-7-5-8-3-8-2h-8-8l-16 6-6 5-6 6-5 6-3 7-1 7v8l2 7 3 7 4 5 5 5 6 4 18 6" style="clip-to-self:true;comp-op:src"/>
<path transform="scale(.1)" d="m5683.5 4227.9 1-4-2-5-5-3-5-1-4 1-3 3-1 4 2 6 4 8 2 5 4 5 3 5 16 24 4 5 4 6 3 6 2 6 1 6 1 7-2 10-2 5-3 5-9 9-6 4-7 3-6 3-7 2-7 1-6 1-5 1-5-1-5-2-3-3-3-4-2-4 2-15" style="clip-to-self:true;comp-op:src"/>
<path transform="scale(.1)" d="m5867.9 4183.5 1-4-3 3-2 4-1 6-2 7-2 8-1 8v9 10 10l2 10 3 9 3 10 4 9 5 8 6 8 7 6 7 5 9 3 8 2 10 1 11-2 10-3 10-4 11-5 10-7 10-8 18-18 7-10 12-22 4-12 4-13 4-12 3-13 3-12 3-10 3-9 1-6 1-4 1 3-1 5v7 10l-1 10v110l1 19v21l1 21v23l1 22v24 67 19l-1 18-1 16-2 13-3 13-4 12-5 10-6 9-7 8-8 7-9 5-9 4-9 3-11 1-10 1-11-1-12-1-11-3-12-4-11-5-10-7-10-8-9-8-6-10-6-11-6-24v-14l2-15 3-17 5-17 7-18 10-18 11-18 13-18 13-16 15-16 15-14 15-13 14-11 14-10 12-8 26-18" style="clip-to-self:true;comp-op:src"/>
<path transform="scale(.1)" d="m6259.7 4271.9-5-1-4-2 4-3 4-1 6-1 7-2 8-1 9-2 10-1 11-2 22-2 23-2h12 11l11-1h11 10l10-1h16 7 5l4-1 3-1 4-2" style="clip-to-self:true;comp-op:src"/>
<path transform="scale(.1)" d="m6362.7 4170.5-3-5-2-5-4-12-2-5-1-3-2-4 2 4 1 4 1 5 1 6 2 7 1 8 2 10 1 11 2 11 1 12 4 27 4 28 3 14 3 13 3 14 4 12 3 11 4 10 3 8 4 7 7 11" style="clip-to-self:true;comp-op:src"/>
<path transform="scale(.1)" d="m6690.8 4151.6-1-4-2-5-2-4-5 3-3 4-2 6-4 7-4 8-8 20-4 11-3 12-1 11-1 12v11l1 12 2 12 3 11 4 11 4 9 6 9 6 7 8 5 8 4 9 3h9l10-1 10-2 10-3 9-5 10-5 8-7 9-7 7-7 6-9 10-18 2-9 3-8 1-7v-6-6l-1-3-4-3-4 2-3 3-3 4-2 6-4 14v8 9l1 8 2 9 3 8 3 7 5 7 5 6 6 6 6 3 8 3 7 3h8 9l10-1 9-2 9-3 16-10 7-6 6-6 4-7 3-7 1-8v-8l-2-8-2-9-8-18-10-16-6-7-12-10-6-3-6-2h-6l-6 1-5 2-5 4-8 10-2 5v6l1 7 3 6 4 6 5 6 6 6 7 5 8 4 8 2 10 2h23" style="clip-to-self:true;comp-op:src"/>
<path transform="scale(.1)" d="m7018 4220.5 3-5 2-4 3-5 1-5-1-5-1-4-3-4-6-6-5-2-4-2-5-1-4-1h-4l-4 1-3 1-3 4 1 6 2 4 4 5 5 5 7 5 7 6 8 6 8 5 24 18 12 12 5 7 6 12 1 6v5l-1 6-3 5-5 5-5 4-14 8-9 4-27 6h-8-7l-7-1-5-2-5-3-3-4-2-5 6-17" style="clip-to-self:true;comp-op:src"/>
<path transform="scale(.1)" d="m7185.7 4246-3-3-1-3-2-3-1-4-2-6v-3l1-3v-3l2-4 2-3 4-4 3-4 4-3 5-3 5-2 6-2 6-1h6l6 1 6 2 5 2 4 5 4 4 3 6 2 7 2 16-1 8-1 9-2 10-3 9-2 9-4 10-6 16-2 6-3 6-1 4-2 4 1-4 5-10 8-14 6-9 5-10 7-10 12-20 7-11 6-11 7-11 6-11 6-10 4-9 5-9 3-7 2-6 1-4v-3l-4 3-3 3-4 5-5 7-5 8-4 8-5 9-4 10-6 20-2 22 1 10 3 11 3 9 6 9 6 8 9 6 10 6 12 5 13 3 14 2h15 14l35-5" style="clip-to-self:true;comp-op:src"/>
<path transform="scale(.1)" d="m7771 4166.7 6-18 4-13 4-12 3-13 3-12 2-12 1-10v-10-9l-2-7-2-6-4-6-4-4-5-3-6-2-7-2h-7l-8 1-9 2-8 3-9 5-9 6-7 7-7 9-6 10-4 10-4 12-1 13v12l1 13 8 24 6 11 7 11 8 9 9 10 20 16 11 9 10 7 11 8 10 7 9 7 15 15 5 7 4 8 3 7 2 6v7l-2 6-3 6-4 6-12 10-16 8-8 3-9 2-8 2h-7-6-5l-5-1-2-2-1-3v-5l2-5 10-15 20-22" style="clip-to-self:true;comp-op:src"/>
<path transform="scale(.1)" d="m7899.4 4213.7 3 4-1 3v4 15l1 6 1 7 1 6 1 7 1 8 1 6 2 8 1 7 3 7 2 7 3 6 2 6 3 6 3 5 6 6 4 2 6-7" style="clip-to-self:true;comp-op:src"/>
<path transform="scale(.1)" d="m7934.3 4194.7v-4l3 2 1 4 2 5 2 4 1 5 3 4 3 5 2 4 6 6 8 7" style="clip-to-self:true;comp-op:src"/>
<path transform="scale(.1)" d="m8003.3 4234.8 3-4 4 1 3 5 2 2 2 4 3 3 2 3 2 4 3 5 3 4 4 9 5 10 2 5 4 8 1 4 2 4-1-4v-4-4-5l2-6 1-7 6-14 5-8 12-16 15-15 9-6 8-6 9-5 8-3 9-3 8-2 8-1h7l7 2 6 2 10 8 4 6 4 14v8 9l-1 9-4 20-2 9-2 10-2 8-1 8v7 5l1 4 4 2 10-4" style="clip-to-self:true;comp-op:src"/>
<path transform="scale(.1)" d="m8343.9 4138.2 2-3 1-4 2 5v4l2 10 3 18 3 6 3 7 4 5 6 6 12 10 7 3 16 6 9 1h9 9l10-2 9-2 8-4 9-5 8-4 12-12 5-6 4-6 3-8 2-7 2-16v-8l-2-14-1-5v-4l-2-3-2 5-1 5v7l1 7 1 9 1 10 2 10 6 22 5 12 4 12 5 13 10 27 5 14 5 15 4 14 7 30 2 16 2 28-1 14-1 13-2 12-8 22-6 9-7 8-9 6-10 6-10 4-11 3-12 2-13 1-26-2-13-2-13-4-12-4-20-10-9-7-8-7-6-8-4-8 1-20" style="clip-to-self:true;comp-op:src"/>
</g>
</g>
<g stroke="#00c0ff" stroke-width="14.1">
<path transform="scale(.1)" d="m5974.7 1599.7 1170-591-99-5 99 5-54 83" style="clip-to-self:true;comp-op:src"/>
<path transform="scale(.1)" d="m8544.6 3916.9 505-438-97 19 97-19-32 94" style="clip-to-self:true;comp-op:src"/>
<path transform="scale(.1)" d="m7454.8 785.74-2-4-2-2-4-1-3 3-3 5-2 10-2 6-2 7-1 9-2 10-1 10-2 11v12l-1 13-1 12v13 12l2 26 1 11 6 20 3 7 4 6 4 5 4 3 5 1 4-1 4-3 4-4 9-14" style="clip-to-self:true;comp-op:src"/>
<path transform="scale(.1)" d="m7429.5 762.46-3-1-5-1-6-1h-6-7l-8 2-7 2-7 4-8 5-14 12-7 8-6 9-7 10-4 11-5 12-3 13-3 14-2 14-1 15 1 15 1 16 2 17 3 16 4 17 10 32 6 14 7 13 7 12 7 10 8 9 9 7 9 5 10 3 11 2h11l12-1 12-3 13-5 13-7 14-8 13-10 13-11 12-13 12-14 11-15 10-15 9-16 8-16 6-16 4-16 3-16 1-17v-17l-2-17-3-17-4-16-5-16-6-15-7-13-8-12-8-10-9-8-10-6-10-4-12-1h-13l-13 2-13 4-14 5-26 16-12 10-11 11-11 12-9 13-8 14-6 13-11 33" style="clip-to-self:true;comp-op:src"/>
<path transform="scale(.1)" d="m9172.1 3300.9-3-4-3-2-4-3-3-3 1-3 6-4 8-4 5-2 12-4 7-1 7-2 7-1h8 7 7l7 1 10 6 3 5 2 5 1 7v8l-2 9-3 9-4 10-5 11-6 11-6 10-6 11-12 18-5 8-5 7-5 6-2 5-3 4-2 3v4h5l4-1 6-1 7-2 8-3 10-4 10-5 11-4 12-6 12-4 12-5 11-5 11-4 9-4 8-5 7-4 12-7" style="clip-to-self:true;comp-op:src"/>
<path transform="scale(.1)" d="m9248.3 3209.9-3-1-4-1-6-1h-6l-7 1-6 2-7 4-8 5-7 5-8 6-7 7-7 8-7 9-12 20-10 24-3 14-3 13-2 14v15l1 15 3 15 4 16 5 16 6 15 16 26 9 11 10 9 10 7 11 5 12 3 11 2h13l12-1 13-3 13-4 13-5 13-7 12-8 12-9 12-10 10-11 10-12 8-13 7-13 5-14 5-13 2-14 1-14v-16l-1-16-2-16-3-17-4-17-5-17-5-16-6-16-7-13-8-12-8-9-10-7-10-5-12-2-12 1-14 3-14 6-15 8-16 10-17 13-17 14-19 15-48 44" style="clip-to-self:true;comp-op:src"/>
<path transform="scale(.1)" d="m771.68 5049.9 1-4v-5-5-4l-1-3-3 2-1 7-1 5-1 6-2 7-1 8-1 10-2 9-2 11-1 11-1 12v12 11 12l1 10 1 9 2 8 2 7 2 8 8-3" style="clip-to-self:true;comp-op:src"/>
<path transform="scale(.1)" d="m757.81 4966.7-5-3-5-2-7-2-8-1-7-1-16 2-7 2-8 3-8 5-8 4-9 6-8 7-10 9-8 9-16 22-7 13-7 14-5 15-4 16-3 17-1 17 1 17 2 16 3 16 6 16 7 14 9 13 10 11 12 10 13 8 14 6 15 4 16 2 16 1 17-1 17-2 18-3 18-5 36-12 18-8 17-9 15-9 15-10 13-10 11-12 10-11 8-13 7-13 4-14 3-14 2-15v-16l-1-16-6-32-5-16-6-15-7-14-8-13-9-12-11-10-11-9-12-7-13-5-14-3h-14-15l-28 6-13 5-13 6-11 7-11 8-18 20-7 11-5 12-4 12-2 12v12l1 11 9 27" style="clip-to-self:true;comp-op:src"/>
<path transform="scale(.1)" d="m1059.1 5060.2-3-1-3-3 4-3h4 6l7-1h8l8-1 9-1 20-2 22-2h11l10-1h47l7 1" style="clip-to-self:true;comp-op:src"/>
<path transform="scale(.1)" d="m1072 5123.6-3 1 4 2 7 1h4l5-1 6-1 6-2 7-2 9-2 8-2 20-6 11-3 10-3 11-3 10-3 28-9" style="clip-to-self:true;comp-op:src"/>
<path transform="scale(.1)" d="m1404.5 5046.4 1-3 2-3 1-5 4-8 3-3 3-2 3-3 12-6 8-2h5l12 3 3 2 4 2 3 3 3 4 2 10v6l-1 7-2 7-2 9-8 18-6 10-5 10-7 10-6 9-6 8-5 8-4 8-4 7-3 5-4 10v4l1 3 4 4 5 1h6l7-1 8-2 10-3 11-4 12-4 13-4 13-5 12-4 12-5 12-4 10-3 9-4 8-3 5-3 8-6" style="clip-to-self:true;comp-op:src"/>
<path transform="scale(.1)" d="m1425.1 4946.8-3-9-3-5-4-1-4 2-7 7-4 6-6 8-7 10-7 12-8 16-8 17-8 20-9 20-8 22-8 23-7 22-5 22-4 22-3 20-1 19 1 18 1 17 4 16 5 14 6 13 8 10 10 9 12 7 14 5 15 3 17 2 18-1 19-1 20-4 19-6 20-6 21-7 20-9 21-10 19-11 18-12 17-13 16-16 14-16 12-18 11-19 9-20 7-21 5-21 4-22 2-21-1-20-2-19-4-17-7-15-8-12-12-9-14-7-16-5-18-3-20-1-21 1-21 2-21 3-20 5-18 5-18 7-16 8-14 8-13 9-10 9-8 10-5 10-4 10-1 9 1 9 3 7 15 13" style="clip-to-self:true;comp-op:src"/>
<path transform="scale(.1)" d="m1991.7 5080.5 3-1h6 4 5l6 1h7 8 16 9 10l18-1h16 8l6 1h5 3" style="clip-to-self:true;comp-op:src"/>
<path transform="scale(.1)" d="m1997.5 5153.8 3 2 4 1h5 7 4l5-1h5l5-1 12-2 7-1h6 7l9-1 8-1 18-1 18-4 22-5" style="clip-to-self:true;comp-op:src"/>
<path transform="scale(.1)" d="m2160.8 4993.4-2-3h3l5 2 3 1 18 9 5 3 7 3 7 4 16 8 9 4 8 4 9 5 8 3 9 4 15 7 14 6 6 2 5 3 8 4 5 5v5l-1 3-2 5-3 4-5 6-5 7-6 8-6 9-16 20-7 11-9 12-8 12-8 13-16 27-14 26-7 11-6 10-7 9-6 7-17 14" style="clip-to-self:true;comp-op:src"/>
</g>
<g stroke="#fff">
<g stroke-width="14.1">
<path transform="scale(.1)" d="m2671.9 5066.2 1-4 1-5 2-5 1-6v-5l-2-8-1-3-2-3-2-2-3-1-4-2h-4-5l-5 1-12 4-6 3-7 3-12 10-7 6-6 8-5 7-10 16-4 8-2 8-2 7-1 8v7l4 12 3 7 5 5 12 10 7 4 8 4 18 6 9 4 9 2 18 6 8 3 6 4 5 3 5 4 2 4 1 5v5l-4 10-10 12-7 5-8 6-8 5-9 5-8 4-9 5-8 3-9 3-8 3-16 4-12 2h-5-3l-3-2 1-6 11-12" style="clip-to-self:true;comp-op:src"/>
<path transform="scale(.1)" d="m2772.5 5159.4v3l-1 4-2 5-2 7-1 8-1 9-2 20v9 19 8l1 8 1 7 2 12 2 4 4 6 3-2 1-10" style="clip-to-self:true;comp-op:src"/>
<path transform="scale(.1)" d="m2787.4 5085.7 1 3 2 4 4 3 2 2" style="clip-to-self:true;comp-op:src"/>
<path transform="scale(.1)" d="m2868.8 5093.4v4l1 6v15 8l2 18 3 30 1 11 2 20 2 10 1 8 2 8 1 7 2 5 1 4 1 3 2 3 3-2 1-6 1-5 2-14 2-18v-11l1-10 2-12 4-22 4-11 4-10 10-18 6-7 6-6 12-10 6-3 12-2h5l6 1 4 3 5 3 5 4 4 6 4 7 6 16 2 10 2 11 1 12v12l-1 13v13l-2 13-1 12-2 11-1 10-1 7v7l-1 5v3" style="clip-to-self:true;comp-op:src"/>
<path transform="scale(.1)" d="m3269.7 5041.7v-16l-1-6-2-10-4-8-2-3-2-2-3-2-3-1h-8l-5 1-5 3-6 3-7 5-7 7-8 9-7 11-8 12-8 15-7 15-7 18-7 17-6 19-5 20-4 19-3 20-1 19v17l1 17 3 14 3 13 6 10 6 9 8 6 8 5 9 3 10 1h11l11-1 12-3 11-4 12-4 28-16" style="clip-to-self:true;comp-op:src"/>
<path transform="scale(.1)" d="m3319.5 5137 1-3 3-5 5-5 3-2 4-2 5-2 4-2 12-4 12-2h7l5-1 6 1h5l5 2 8 4 3 4 2 4 2 6v7l-1 7-2 9-2 10-3 10-4 11-10 22-5 10-5 9-5 8-4 6-4 5-2 3-3 2 4-6 4-5 5-6 5-7 7-9 24-30 16-22 14-21 6-11 12-20 5-10 5-8 4-7 5-10-2 6-4 7-3 7-5 8-8 22-5 11-4 12-3 12-4 12-2 12-1 12-1 10 1 10 2 8 3 7 4 5 5 4 14 4h8l8-2 9-2 9-3 9-4 8-6 9-6 19-16" style="clip-to-self:true;comp-op:src"/>
<path transform="scale(.1)" d="m3538.9 5174.9 4-1h6l10-2h6l7-1h7l8-2 16-2 9-2 8-1 8-2 8-1 7-1 6-1 5-1 4-2 3-1 5-4" style="clip-to-self:true;comp-op:src"/>
<path transform="scale(.1)" d="m3615.6 5104.6-2-4-2-5-3-2 1 4 1 3v3l3 15 1 7 1 6 2 14 1 8 4 14 3 8 3 7 2 7 3 6 3 5 3 3 3 2 9 2" style="clip-to-self:true;comp-op:src"/>
<path transform="scale(.1)" d="m3765.5 5090 1 3v18 5l1 5 2 5 1 4 2 5 3 5 3 4 8 8 10 6 5 2 7 2 5 1h7 6l7-1 6-2 12-6 5-4 4-4 8-10 2-5 2-6 1-6 1-7v-11l-1-5v-5l-1-3-3-4h-3l-4 5-1 4-2 4-1 6-1 7-1 8v8l-1 9v10 47 13l1 13v38l-1 11-1 10-2 9-6 16-3 7-4 6-5 6-6 5-6 4-6 3-12 4-6 1h-7-6l-12-2-7-3-6-4-7-5-12-15" style="clip-to-self:true;comp-op:src"/>
<path transform="scale(.1)" d="m3939.4 5031.8 3-12 2-5 2-4 3-2 4-2 5-2h6l6-1 7 1h8l9 2 9 3 9 4 10 5 11 7 10 9 10 10 10 12 9 13 8 14 7 15 7 16 4 18 3 19 2 19v22 20l-3 21-3 19-4 18-5 17-6 14-8 14-8 12-8 9-9 9-10 7-9 6-10 5-9 3-10 2-8 1-9-1-8-1-7-3-8-3-5-6-9-17" style="clip-to-self:true;comp-op:src"/>
<path transform="scale(.1)" d="m4211.5 5152.9 1-4 6-2 5-1 6-1 7-2 8-1 9-2 9-1 9-2h10l9-1h19l8 1h8l6 2 5 1 4 2 3 3-2 7" style="clip-to-self:true;comp-op:src"/>
<path transform="scale(.1)" d="m4228.7 5224.9-2 3v3h5 3l5-1 5-2 14-4 27-9 10-3 11-3 11-2 10-2 10-3 10-2 8-2 6-2 15-4" style="clip-to-self:true;comp-op:src"/>
<path transform="scale(.1)" d="m4727.4 5040.4 1-5v-5-7-8l-1-8-1-7-2-7-1-8-3-7-8-12-4-5-5-6-5-3-7-3-6-3h-8l-8-1-8 1-8 2-9 3-8 4-8 6-8 7-8 8-7 10-6 10-6 11-4 12-2 11-2 12 1 11 2 11 4 10 12 18 8 9 9 8 11 7 10 8 11 6 11 7 10 6 11 5 9 6 8 5 7 6 6 5 5 6 3 5 1 6-1 6-3 6-4 7-5 6-7 6-8 5-18 10-10 4-10 3-10 2-9 2-8 1-9 1-7-1-6-1-5-3-4-4-4-14" style="clip-to-self:true;comp-op:src"/>
<path transform="scale(.1)" d="m4782 5124.5 1 5 1 4 2 14v8 10l1 10 2 22 1 12 2 11 1 10 2 10 4 18 2 8 2 7 1 6 2 5 4 6 5 1 2-4 2-9" style="clip-to-self:true;comp-op:src"/>
<path transform="scale(.1)" d="m4795.4 5103.3 3 2 4 4 4 3 10 6" style="clip-to-self:true;comp-op:src"/>
<path transform="scale(.1)" d="m4883.5 5159.4 3 3 4 3 2 3 3 3 2 4 4 5 6 12 4 6 6 14 8 28 1 6 1 5v9 3l-3 5-5 2-5-1-3-1-3-2-4-6-2-4-2-5-1-5v-14l4-16 2-9 3-9 5-9 4-8 6-8 6-7 6-5 14-8 6-2 7-2h6 7l6 1 6 2 5 3 5 4 8 10 2 7 2 8v9 9 10l-1 10-2 11-3 10-4 9-3 9-3 8-4 7-5 13" style="clip-to-self:true;comp-op:src"/>
<path transform="scale(.1)" d="m5163.3 5159.4-4-2-2-2-2-3-2-6 2-6 10-10 12-8 6-3 8-3 7-2 8-2 8-1h8l7 1 8 1 6 2 6 3 5 4 5 6 3 7 3 9 1 10v11l-1 12-1 13-3 15-3 13-4 14-5 12-4 12-4 11-11 22-3 4-1 3-2-5 2-4 2-6 4-8 4-9 4-10 6-11 5-13 6-13 6-14 7-15 7-14 7-15 7-16 15-28 7-13 6-11 6-9 4-7 3-5 3-4-3 6-3 7-3 8-3 9-4 11-3 12-4 13-3 14-2 14-2 15-1 15v15 14l2 13 2 12 3 12 5 9 5 8 6 7 7 5 7 4 9 2 8 1 24-4" style="clip-to-self:true;comp-op:src"/>
<path transform="scale(.1)" d="m5612.6 5055.9-1-4-4-6-3-3-3-2h-5l-3 2-3 3-2 5-3 6-3 8-3 9-2 11-2 12-1 13-1 14-1 15 2 30 3 15 2 15 4 14 5 12 6 11 6 8 7 6 8 5 9 2 8 1 9-1 9-2 9-4 8-5 7-6 7-8 10-18 3-10 3-11 1-10 1-11-1-10v-10l-2-9-2-12-1-3-2-4-3 3-1 3-1 4-1 6v7l2 18 2 9 3 11 4 11 10 20 7 9 6 8 9 7 8 5 8 4 9 3 10 1 9 1 9-1 8-1 7-3 7-4 5-4 5-5 2-6 1-7v-7l-2-8-6-18-5-9-5-8-6-8-7-8-12-12-14-8-7-2-5-1h-6l-5 1-3 2-3 3-1 3 1 3 2 3 3 4 4 3 5 3 16 6" style="clip-to-self:true;comp-op:src"/>
<path transform="scale(.1)" d="m5870.3 5124.5-2-3-4-3-3 1-2 3-1 5 2 6 4 8 3 5 4 5 12 21 6 16 2 8 1 8v8 7l-2 7-2 6-4 5-5 5-5 4-6 4-14 6-6 1-14 2-7-1-6-2-6-3-5-4-4-6-6-16" style="clip-to-self:true;comp-op:src"/>
<path transform="scale(.1)" d="m6071 5073.6v-4l-1-3h-4l-6 4-2 3-2 5-3 5-2 6-2 8-1 7v8 8l1 9 2 8 4 8 4 7 5 8 6 6 6 5 7 5 7 3 16 2 16-2 7-3 8-3 7-4 12-10 5-6 4-6 6-14 2-14v-7-6l-2-10-1-3-2-4-3 2-3 6v5l-1 7-1 8v9 10l1 11 1 13 1 15 2 15 4 34 2 18 2 17 2 18 2 17 4 32 1 14 1 15v25l-1 11-2 10-2 8-7 14-6 6-5 4-8 3-7 2-8 2-9 1h-10l-20-2-30-9-9-4-7-5-6-6-5-7-4-7-2-8v-8-9l2-9 3-9 5-10 6-10 8-11 10-11 11-11 12-13 12-12 13-14 13-13 32-33" style="clip-to-self:true;comp-op:src"/>
<path transform="scale(.1)" d="m6431.7 5100.3 2 3-1 7v5l-1 6v8l-1 8v11l-1 11-1 13v56l1 13 1 12 1 11 2 10 2 9 2 8 6 12 3 5 3 3 3 2 5 2 8-7" style="clip-to-self:true;comp-op:src"/>
<path transform="scale(.1)" d="m6319.1 5228.4 5 2 4 1h17l9-1h9l10-1 24-2 13-2 14-1 13-2 29-3 14-2 13-1h12 11 8l6 1 5 1 1 4-12 6" style="clip-to-self:true;comp-op:src"/>
<path transform="scale(.1)" d="m6778.5 5146.4 8-12 10-16 4-8 3-8 4-12 1-4v-4l-1-4h-5l-4 2-4 3-12 12-6 9-8 11-7 12-7 15-8 17-7 16-6 18-6 17-5 17-3 15-3 14-2 14v12l1 10 2 9 3 8 4 6 5 4 6 2 7 2h7l8-1 8-2 9-3 9-4 9-5 9-6 8-7 7-7 7-8 5-9 5-8 8-18 4-16 1-6 1-5v-3l-1-3-3 5-2 4-2 7-2 6-1 9-1 8v8 9l1 8 2 8 3 6 8 12 6 4 6 3 7 3h6 8 8l8-2 7-3 9-4 7-4 7-5 7-6 5-6 5-7 4-7 2-7 1-8v-8l-1-9-2-9-3-10-4-10-14-28-5-8-4-5-4-4-4-2h-4l-3 2-4 3-4 4-4 7-2 8-3 8v9 9l2 9 3 8 4 7 6 6 5 4 7 3 18 5" style="clip-to-self:true;comp-op:src"/>
<path transform="scale(.1)" d="m7054.4 5190 6-10 3-7 2-5 1-5v-4l-1-3h-4l-3 1-3 2-8 8-8 12-3 8-3 7-3 8-1 9v8 8 8l1 8 4 16 4 14 1 6 2 6v5 6 4l-1 5-1 4-3 4-4 4-4 3-10 4-12 2h-5l-5-1-4-1-5-3-3-3-4-6-4-14" style="clip-to-self:true;comp-op:src"/>
<path transform="scale(.1)" d="m7134.4 5193.9-2-8-1-5v-6-6l1-6 1-5 3-6 5-5 4-5 6-5 5-4 7-4 6-2 7-2 7-1 6 1 7 2 5 3 6 5 5 6 5 8 3 9 3 10 2 24v13l-1 12-1 13-3 12-2 11-6 20-2 8-2 7-2 5-1 4-2 4 2-6 4-10 3-7 3-8 5-9 5-10 6-11 5-12 14-26 14-30 7-14 8-15 7-13 6-11 7-10 4-7 4-6 3-4 2-3-3 4-2 4-4 6-9 18-5 12-5 13-10 30-4 15-3 15-3 14-2 14v12 11l3 10 3 8 5 8 7 7 8 5 10 4 11 3 12 3 26 2 12-1 11-1 10-3 18-7" style="clip-to-self:true;comp-op:src"/>
<path transform="scale(.1)" d="m7726 5081.3 3-7 2-8 3-10 1-10 1-9-2-18-4-14-4-5-3-4-5-3-6-3-14-2-7 1-9 1-16 6-18 12-8 9-7 9-7 10-12 22-3 12-2 11-1 12 1 10 2 12 3 11 5 11 7 11 8 11 8 12 9 11 10 12 20 22 10 10 9 10 8 10 6 10 5 9 4 9 1 10v8l-2 8-4 8-4 6-6 6-6 5-8 4-8 3-9 3-9 2-8 1h-8l-8-1-7-2-5-3-5-4-6-16" style="clip-to-self:true;comp-op:src"/>
<path transform="scale(.1)" d="m7773.4 5158.5 4 4 2 3 1 3 2 4v5l2 6 1 7 1 8 4 16 2 7 2 9 1 7 1 8 1 7 2 7 2 14v6l3 15 1 3 2 4 1-9" style="clip-to-self:true;comp-op:src"/>
<path transform="scale(.1)" d="m7834.7 5162.8-2 3-1 6-1 4v10l1 4 1 5 3 10" style="clip-to-self:true;comp-op:src"/>
<path transform="scale(.1)" d="m7888.8 5216.3 3 2 3 5 2 4 3 7 2 5 2 4 2 5 2 10 2 5 1 5 1 4 1 5v4l1 3v4l-3-4v-4l-1-4v-11l1-6 1-8 6-16 4-9 5-9 6-8 7-9 7-7 8-6 8-4 14-4h7l5 2 6 3 9 9 6 14 2 8 2 18-1 9v10l-2 9-2 18-1 8-1 7v5 4l9 2" style="clip-to-self:true;comp-op:src"/>
<path transform="scale(.1)" d="m8143.7 5149-3 3v6 5 5l1 6 1 7 1 8 2 7 2 9 2 7 2 8 4 7 3 7 8 12 5 5 5 4 6 3 12 4h6l6-1 12-4 10-8 10-12 4-7 8-18 2-10 4-10 2-10 3-11 2-9 3-9 2-8 2-6 1-4 1-3 4 1 1 4 2 5 1 7 2 9 2 10 2 13 3 13 9 45 8 32 4 17 8 36 4 20 4 21 3 20 2 21 4 40v20l1 18-1 19-1 16-2 16-3 15-4 13-5 12-5 10-7 9-8 8-9 6-10 5-11 4-11 2-12 2-13 1-12-1-13-1-12-2-12-3-12-4-11-5-11-6-10-6-9-7-8-9-6-9-5-10-2-10-1-12v-11l3-12 4-12 6-12 7-13 8-14 9-14 11-15 12-16 13-16 14-16 15-16 15-14 15-13 14-12 14-10 13-9 29-16" style="clip-to-self:true;comp-op:src"/>
<path transform="scale(.1)" d="m4301.1 6193.9 4-6 3-4 6-12 1-5 2-4v-4l1-4-1-4v-5l-2-3-1-5-2-3-3-4-3-3-4-3-5-1-5-2h-6-7l-7 2-8 1-8 3-9 4-9 5-10 5-9 6-8 6-9 7-14 14-5 7-4 7-3 7-1 7v6l1 7 3 6 4 6 12 12 7 5 9 6 9 5 9 6 10 6 9 5 10 5 10 6 9 5 8 6 7 5 6 6 4 6 3 5 2 6 1 6-1 6-2 6-3 5-4 5-5 5-7 5-7 4-16 8-18 6-10 3-9 2-9 1-9 2h-9l-9 1-7-1h-7l-7-1-5-1-4-1-3-2v-4l5-4 4-3 6-4 6-3 7-5 18-11" style="clip-to-self:true;comp-op:src"/>
<path transform="scale(.1)" d="m4356.1 6279.7 1 3v29l1 6v7 6 7l1 6v7 7 7l1 7 3 18v5l1 4v3l1 4v-6l-1-4v-17" style="clip-to-self:true;comp-op:src"/>
<path transform="scale(.1)" d="m4389.2 6212.9-1 3-1 4-1 5v3l-1 3v11l1 4v4l1 3 2 9" style="clip-to-self:true;comp-op:src"/>
<path transform="scale(.1)" d="m4437.6 6271.1-2-3-2 4v6 4l1 5v5l2 14 2 7 1 8 2 7 2 9 2 7 2 8 2 6 1 6 2 10 1 3 1 4-2-4-1-3v-5l-1-5v-5l1-7v-7l2-8 2-9 8-22 5-12 6-12 14-22 7-10 8-7 7-6 7-5 5-2 6-2 4 1 5 1 4 3 4 4 3 5 4 6 3 7 2 7 3 9 2 18 1 10v10l-2 20-2 10-2 9-1 9-2 8-1 7v6l-1 6 1 4v4l1 3" style="clip-to-self:true;comp-op:src"/>
<path transform="scale(.1)" d="m4769.5 6296.1h-5l-6-1-4-2-3-2-1-5 1-3 2-8 3-4 3-6 16-16 7-5 8-6 18-10 9-4 20-6 16-2 7 1 5 1 5 4 3 4 1 6 1 7v9l-2 9-2 11-3 11-5 11-4 11-5 11-6 10-5 9-6 9-5 6-4 5-3 4-2 3 2-6 3-4 5-6 5-7 7-8 6-8 8-10 21-33 7-12 7-11 5-11 6-10 5-8 4-7 3-5 2-4-2 5-2 6-3 7-4 9-3 10-3 11-4 11-6 33v12 10 10l2 9 2 8 3 7 4 5 5 5 6 3 6 2 7 1h6l7-2 8-2 7-4 19-11" style="clip-to-self:true;comp-op:src"/>
<path transform="scale(.1)" d="m4974.1 6303.9-2 3 4 2 6 1h5l5-1h6l7-1 8-2 9-2 10-1 20-6 11-2 11-3 11-2 10-3 10-2 9-2 8-2 6-2 5-2 8-4" style="clip-to-self:true;comp-op:src"/>
<path transform="scale(.1)" d="m5149.4 6231.9 3-3 4 2 4 5 2 4 7 7 3 5 5 4 5 5 12 10 16 8 8 3 9 3 9 2h10 9l9-1 9-2 9-3 8-3 7-5 7-4 5-6 5-7 4-6 4-16 1-8v-9l-2-18-2-9-1-8-4-14-2-6-1-4-2-3-3-3-2 4-1 4v5 6 7l1 8 2 8 1 10 3 10 2 11 6 24 3 13 4 13 4 12 3 13 4 12 7 23 3 11 2 10 1 10 1 8-1 7-1 6-6 10-3 4-6 4-6 3-7 3-8 3-8 2-9 2-20 2h-11l-10-1h-11l-24-4-11-3-12-4-27-11" style="clip-to-self:true;comp-op:src"/>
<path transform="scale(.1)" d="m4795.9 6084.4-4 1-6 4-4 3-3 4-5 6-4 7-6 9-5 10-7 11-6 14-7 15-7 18-8 20-7 21-6 22-7 23-5 23-5 22-4 22-3 20-1 20v18l2 18 4 16 5 15 7 13 9 11 12 9 13 8 14 6 17 4 18 2h19l21-2 57-10" style="clip-to-self:true;comp-op:src"/>
<path transform="scale(.1)" d="m5371.2 6054.3 3-2h6 3l5 2 5 3 5 4 7 5 6 6 7 8 7 9 7 10 8 12 7 12 14 28 5 16 6 17 5 18 4 18 3 20 2 19 1 19v19l-2 18-3 16-4 16-4 14-6 14-6 11-8 11-8 9-9 9-10 8-11 7-12 6-13 5-13 4-15 2-36 4" style="clip-to-self:true;comp-op:src"/>
</g>
<path d="m406.44 659.31h148.59" stroke-width="1.41" style="clip-to-self:true;comp-op:src"/>
</g>
<path transform="scale(.1)" d="m9098.8 5133.9h-5l-4-1-6-1-5-2-4-1-2-2 2-3 6-3 4-1 6-2 7-2 8-3 10-2 10-3 11-2 12-2 12-3 11-2 11-1 10-2h9l7 1 6 1 5 2 2 3 2 4v5l-2 5-4 6-6 7-7 7-8 7-11 8-11 7-12 7-13 7-24 12-11 4-11 5-9 4-8 3-6 3-6 2-3 2-4 2 4 1h19 8 10 11l11-1h11l11 1h10l9 2 8 2 7 2 10 6 3 4 2 4v5 5l-4 10-3 5-5 5-5 4-6 5-6 4-7 4-16 6-9 2-9 3-8 2-18 4-9 1-17 1-9 1h-9-15-8l-14-2-6-1-5-3-4-2-9-9" stroke="#00c0ff" stroke-width="14.1" style="clip-to-self:true;comp-op:src"/>
<path transform="scale(.1)" d="m9116.6 5027-5-3-6-2-7-2-7-3-7-1-8-2h-7l-9 1-9 2-9 3-10 4-11 5-11 7-13 8-12 10-13 12-12 12-13 14-12 14-11 15-20 32-8 16-7 17-6 16-4 18-2 17-1 17 1 18 3 17 10 34 8 15 9 14 10 12 13 10 14 10 14 9 17 8 17 7 19 5 19 3 21 1h23l24-2 26-4 26-6 25-6 26-7 24-9 23-10 22-11 20-11 18-13 15-13 14-15 11-15 10-16 8-18 6-18 5-19 4-40v-19l-2-19-4-19-7-19-8-16-10-16-13-14-14-12-16-11-18-9-19-6-20-6-23-3-24-2h-26l-26 2-27 2-25 4-24 5-23 6-21 7-19 9-19 10-15 11-15 12-12 13-9 13-16 31" stroke="#00c0ff" stroke-width="14.1" style="clip-to-self:true;comp-op:src"/>
<g stroke="#fff" stroke-width="14.1">
<path transform="scale(.1)" d="m778.4 7210.1 1-9 1-5-2-10-1-4-2-4-2-3-6-4-3-1-3-2h-4-4l-4 1-5 1-10 5-10 8-12 12-5 8-6 8-10 18-7 21-1 11-1 9 1 9 1 10 3 8 4 7 5 8 7 6 6 6 16 12 9 4 9 5 10 4 9 5 8 4 9 4 8 5 7 4 10 10 3 5 2 6v6l-2 6-3 7-10 14-7 7-8 7-8 6-8 7-27 15-9 4-9 3-16 6-7 1h-6-5l-3-1-3-3-1-3 1-6 7-17" style="clip-to-self:true;comp-op:src"/>
<path transform="scale(.1)" d="m886.17 7313.1 4 1 1 5v3l-1 4v5l-1 5v6l-3 21v8 26 10l2 18 2 9 2 16 4 12 2 4 6 6 5-1 5-5 2-3 6-10 2-7 3-7 2-7 3-7 4-16 4-14 4-12 1-4 1-3 2-3 2 4v3l1 5v5 6l1 6v7l1 8 4 28 2 7 6 15 6 6 6 4h4 3 4l4-2 3-2 3-3 4-3 2-5 3-6 7-17" style="clip-to-self:true;comp-op:src"/>
<path transform="scale(.1)" d="m1092.6 7208.8-2-5-2-4-3-5-2-4-3-3-3-2h-5l-2 4-1 3v4l-2 4-2 14-2 9-2 11-2 26-2 15-2 32v50l1 17 2 16 1 15 2 14 2 13 3 10 3 8 2 7 3 4 2 3 5 1 5-3 2-4 3-4 3-6 2-8 4-8 3-10 4-10 8-22 5-10 5-11 5-9 10-16 6-6 10-8 6-2 4-2h5l4 1 4 2 4 3 3 3 3 4 2 5 2 6 2 8v8 9l-1 9-1 10-2 11-6 20-4 10-5 10-5 9-6 9-6 8-6 7-6 6-6 5-5 4-5 3-4 1-5 1-3-1-3-2-2-3-1-4 3-17" style="clip-to-self:true;comp-op:src"/>
<path transform="scale(.1)" d="m1357.5 7311.8-3-3-6-1-4 1-5 1-18 6-8 3-7 4-8 4-16 10-14 12-6 6-5 6-3 6-2 12 2 5 2 6 4 5 5 4 6 4 7 4 8 3 7 3 9 3 16 5 16 6 6 3 10 6 3 4 2 5v4l-1 5-3 4-4 5-5 5-14 10-8 5-18 8-9 3-9 2-8 2-8 1h-7l-6-1-4-2-3-2-1-4 1-5 4-7 15-22" style="clip-to-self:true;comp-op:src"/>
<path transform="scale(.1)" d="m1488.8 7229.9-1-5-1-3-2-3-2-4-4 2-3 5-2 4-2 5-2 7-3 8-2 10-4 22-1 12-1 13-1 14v13 14l1 14 2 13 2 12 3 12 6 20 4 8 8 14 4 5 4 3 3 4 3 1 4 1v-9" style="clip-to-self:true;comp-op:src"/>
<path transform="scale(.1)" d="m1415.5 7389.5-2-4-1-3-1-4 2-8 3-4 5-4 5-5 14-10 9-6 10-5 10-6 24-12 13-6 14-6 30-10 14-5 14-4 13-3 11-2 9-1 8-1 5 1 4 1 3 2v4l-1 4-8 16-4 7-5 8-4 9-10 18-5 10-4 10-3 10-4 18v7 8l2 7 1 7 3 7 3 6 6 10 4 5 10 10 4 3 3 2 2 3 2-9" style="clip-to-self:true;comp-op:src"/>
<path transform="scale(.1)" d="m1695.7 7201.5v-7l-2-5-1-3-3-2-1 4v5l2 3 2 8 2 4v4l1 3 3 8" style="clip-to-self:true;comp-op:src"/>
<path transform="scale(.1)" d="m1784.8 7189.8-3-2-4-2-3 3-2 6-1 6v7l-1 8-1 10-1 12-1 14-1 15-2 17-4 36-2 20-2 42v23 22l1 24 2 22 3 20 3 18 4 14 5 11 5 9 6 6 5 3 6 2h5l5-2 5-3 12-14" style="clip-to-self:true;comp-op:src"/>
<path transform="scale(.1)" d="m1727.8 7410.1-5-3-5-4-3-4-1-3 2-4 2-3 3-4 4-3 5-4 5-3 7-4 8-4 9-4 10-4 22-8 12-3 33-9 10-3 9-3 8-2 7-2 13-5" style="clip-to-self:true;comp-op:src"/>
<path transform="scale(.1)" d="m1885.4 7319.6-2 3-2 4-2 3-4 8-2 5-2 6-2 7-1 7-2 8-1 8-2 9-2 18v9 18l1 9 1 8 2 8 2 7 2 6 2 5 3 4 6 4 4 1 3-1 4-1 4-2 5-3 4-4 5-4 5-6 6-6 6-7 12-16 7-9 6-9 7-9 12-16 6-6 5-6 9-9 3-2 5-2 5 3 5 5 2 5 3 5 6 12 3 7 4 7 6 15 4 7 6 14 4 7 4 6 4 5 4 4 5 3 4 2h4 4l4-1 6-6 3-4 2-6 1-7 1-22" style="clip-to-self:true;comp-op:src"/>
<path transform="scale(.1)" d="m2112 7198.4v-5l-1-5v-6-5l-1-4-1-3 1 3v3l1 5v6l1 7 1 9v10l1 12v13 14l1 15v15l1 15 1 16 2 16 2 15 1 15 3 14 2 13 3 12 3 10 3 9 3 7 3 6 3 3 2 3 5-1 6-8" style="clip-to-self:true;comp-op:src"/>
<path transform="scale(.1)" d="m2077 7327.3-4-2-2-3 3-4 3-1 5-2 5-1 6-3 7-1 14-4 8-2 9-2 16-4 8-3 21-3" style="clip-to-self:true;comp-op:src"/>
<path transform="scale(.1)" d="m2207.8 7377.8 1 3 3 6 4 3 6 2h5l5-1 6-2 7-2 6-4 8-3 8-5 7-5 8-6 9-6 7-7 8-6 7-7 5-7 6-7 4-7 2-8 2-7 1-7-1-6-1-4-3-3-5-3h-6l-6 1-8 3-9 4-9 6-9 8-10 9-18 20-10 12-8 12-7 12-6 11-4 11-4 10-2 10v9l1 9 2 7 4 6 5 6 7 4 9 3 11 2h12l14-1 16-2 34-8 17-5 16-6 14-7 13-8 28-22" style="clip-to-self:true;comp-op:src"/>
<path transform="scale(.1)" d="m2805.6 7195-4-2-6 1-2 3-2 4-2 7-1 9v9 10l1 10 1 11 2 10 6 20 4 8 6 9 7 7 7 6 9 4 10 4 11 2 11 1h11l11-2 10-1 10-3 16-8 6-4 6-5 5-6 4-5 3-6 4-12 1-5 1-4v-5-4l1-3v-4l2 4 1 5v6l1 8 1 9v9l3 33v12 36l-3 36-4 22-4 11-8 18-6 8-7 7-8 7-9 6-20 10-22 6-24 4h-11-11-10l-10-2-9-3-8-4-6-6-8-18" style="clip-to-self:true;comp-op:src"/>
<path transform="scale(.1)" d="m3076.2 7379.5-3-2-3-3 3-3 4-1 5-1 7-1 8-1 10-1 11-2 12-2 14-2 15-3 16-2 17-2 17-3 18-2 17-1 16-2 16-1 15-1h14l13-1 12-1h11l11-2 10-1 9-1 8-2 16-6" style="clip-to-self:true;comp-op:src"/>
<path transform="scale(.1)" d="m3349.7 7269.1-3-3-2-5 3-3 21 3 9 2 9 1 10 2 11 3 12 2 36 9 13 4 22 8 10 5 10 4 7 6 7 5 5 5 4 6 2 5v6l-2 7-3 6-5 7-13 13-10 6-22 14-13 7-13 6-14 6-14 7-15 5-14 6-13 6-14 4-12 3-10 2-21 2" style="clip-to-self:true;comp-op:src"/>
<path transform="scale(.1)" d="m3674 7337.3-4-1 4-1 5-1h5l6-1 8-2 9-2 10-2 22-4 12-3 12-2 11-2 11-3 10-4 25-8" style="clip-to-self:true;comp-op:src"/>
<path transform="scale(.1)" d="m3892.5 7236.4-1-3-2-5v6l1 4 2 10 1 7 2 7 3 7 2 8 3 8 4 7 5 8 12 14 7 5 8 5 18 6h9 10l9-1 9-2 9-3 8-3 7-4 6-5 10-12 3-6 2-7 4-16v-8l1-8v-7-6-10l-1-3v-4 14l1 7v9l-1 11v100l1 15 1 16v15l2 31 1 15 1 14v12 10 8l-1 8-1 5-2 5-2 4-4 3-3 2-5 1h-6-6-7l-7-1-9-2-16-6-9-4-18-10-16-12-6-6-5-7-3-7-2-8v-7l1-8 4-9 4-8 7-9 9-9 9-8 11-8 13-9 13-7 14-8 13-7 28-12 38-16" style="clip-to-self:true;comp-op:src"/>
<path transform="scale(.1)" d="m4453.9 7295v-3l-2 3-1 5-1 6-2 7-1 8-3 30-1 11v11 10l2 21 1 10 3 9 6 16 8 10 5 2 4 1h4l9-8" style="clip-to-self:true;comp-op:src"/>
<path transform="scale(.1)" d="m4433.7 7183.8-4-2-3-3-5-2-6-3-4 2 11 3" style="clip-to-self:true;comp-op:src"/>
<path transform="scale(.1)" d="m4558.8 7337.7v7l-1 6v6 7l-1 9v10 19 10l1 9 2 16 1 7 1 6 1 5 2 4 1 3 4 3 5-1 4-6 4-10 2-7 4-16 2-9 4-20 2-11 3-12 4-11 5-12 5-11 5-10 6-9 6-7 5-5 6-3 5-1 5 1 4 3 4 5 4 7 3 9 2 9 2 10 6 33 3 22 1 10 1 9 2 9 2 7 2 6 3 5 3 4 4 2 4 1h4l5-2 4-3 5-5 12-15" style="clip-to-self:true;comp-op:src"/>
</g>
<path transform="scale(.1)" d="m5124.5 7274.8v-3-4l2-3 3-2 8-4 6-2 6-3 9-2 9-3 10-2 11-3 11-2 12-2 22-2 10-1 18 2 6 1 5 3 3 3 3 4 1 5-1 6-2 5-3 6-4 6-5 7-6 6-8 6-7 6-16 12-16 10-7 4-6 4-5 3-4 3-2 3v4l5 4 5 1 6 2 7 1 8 1 18 2 10 1 9 1 9 2 8 2 9 2 6 3 7 3 4 4 3 5 2 5 1 5-1 5-3 5-10 10-7 4-18 10-10 3-11 4-12 4-12 3-12 2-11 2-12 1-11 1h-9l-9-1h-9l-7-1-6-3-5-2-5-4-4-4-2-5 1-16" stroke="#00c0ff" stroke-width="14.1" style="clip-to-self:true;comp-op:src"/>
<path transform="scale(.1)" d="m5184.3 7142.4-6-1-7-1-9-1-8-2h-9l-9 1-9 3-8 4-8 6-9 7-9 8-8 10-10 12-9 14-10 17-10 18-10 21-9 21-9 22-8 22-7 22-4 22-3 22-1 21 1 20 3 20 5 17 7 16 9 14 11 12 13 10 15 8 18 5 19 3 21 1h22l24-2 50-8 25-5 24-7 24-8 24-10 22-10 21-12 20-13 18-14 16-14 13-15 12-15 8-16 7-16 4-17 2-18v-19l-2-19-3-20-5-20-7-18-9-17-10-16-13-15-14-13-15-12-17-11-17-9-19-7-20-6-21-3-21-2-22 1-22 3-22 5-21 7-20 9-20 11-19 13-18 14-18 16-38 42" stroke="#00c0ff" stroke-width="14.1" style="clip-to-self:true;comp-op:src"/>
<g stroke="#fff" stroke-width="14.1">
<path transform="scale(.1)" d="m1700.5 8232.9 1-4 2-4 2-6 3-18v-7-18l-2-10-4-8-2-3-3-2-8-2h-4l-5 1-6 2-12 6-7 4-7 5-8 6-7 6-16 14-7 8-8 7-6 8-7 8-6 7-4 8-4 7-2 6-1 6 2 12 3 6 5 5 6 5 14 8 8 3 9 4 18 6 9 4 8 3 9 3 8 4 7 4 6 4 5 4 4 4 4 5 2 5v6 6l-3 6-3 7-10 14-13 13-7 6-8 6-8 4-9 5-8 4-18 6-8 2-7 2-8 2h-6l-6 1h-5l-3-1-3-3 2-3 2-5 13-13" style="clip-to-self:true;comp-op:src"/>
<path transform="scale(.1)" d="m1781.9 8316.9 2 3v94 3l1 4v-5l-2-9" style="clip-to-self:true;comp-op:src"/>
<path transform="scale(.1)" d="m1805.9 8265.2 1 3 2 8" style="clip-to-self:true;comp-op:src"/>
<path transform="scale(.1)" d="m1861.9 8284.6h4l3 1 3 5 2 4 3 5 2 5 3 6 1 7 4 16 4 18 2 20 1 11v11l1 10 1 9v8l1 6v5l1 4 1 5v-4-4l1-5v-6l1-6 1-7 2-16 2-9 3-10 4-11 5-11 12-22 16-20 9-8 8-8 10-6 8-5 8-4 8-3 14-2h7l12 4 4 4 5 4 6 12 2 8 1 9 1 10-1 11-1 12-2 11-1 12-2 12-2 11-1 11-2 18v7 6l1 4 2 3 2 1 10-10" style="clip-to-self:true;comp-op:src"/>
<path transform="scale(.1)" d="m2298.8 8168.2 6-21v-7-5-3l-5-3-3 1-4 1-6 3-5 4-7 6-7 7-7 10-7 12-7 13-8 15-6 15-7 16-6 17-10 34-8 36-3 17-1 17v16l1 16 2 14 3 14 4 12 6 10 6 9 7 6 9 5 9 3 10 1h11l11-2 12-3 11-4 29-13" style="clip-to-self:true;comp-op:src"/>
<path transform="scale(.1)" d="m2413.2 8286.7v-4l1-3 7-7 3-1 12-6 10-2h5 4l10 2 3 3 4 3 2 4 2 6v8 8l-2 10-3 11-8 22-5 12-4 11-5 11-5 9-8 14-3 5-2 3-3 3 4-10 4-6 5-8 6-9 7-9 8-10 7-11 24-33 14-24 14-22 6-10 6-8 4-7 3-4 3-3-1 3-13 26-8 20-5 10-4 10-2 10-3 9-2 9v9 8 8l2 6 3 6 2 6 5 4 5 3 5 2 6 1 7 1 6-1 7-2 7-3 17-8" style="clip-to-self:true;comp-op:src"/>
<path transform="scale(.1)" d="m2628.3 8330.3 3-2 4-2 3-1h5l6-2 7-1h8l9-2 20-2 10-2 30-3h9l18-2 7-1 6-1 13-2" style="clip-to-self:true;comp-op:src"/>
<path transform="scale(.1)" d="m2837.7 8281.6v-4l1-3 2 2 2 4 3 5 2 4 2 3 2 4 3 4 4 4 6 8 4 4 8 6 5 2 4 2 8 2 4-1 3-1 4-1 4-3 3-2 6-6 3-4 2-4 4-10 6-18 2-7 2-6 1-7 2-7 1-6 1-5 1-3 1-4 1 6v4 6l1 6v7 9l1 9v10l1 10 2 22 2 12 2 11 2 13 2 12 3 12 5 25 1 13 2 12 1 12 1 11 1 10v10l-1 10-2 18-2 8-3 8-8 14-6 6-6 5-5 4-7 3-6 3-6 2-7 1h-5-6-6l-5-1-4-3-5-2-4-3-2-4-3-4-4-12-1-6v-14l2-7 1-8 6-16 4-8 5-9 6-9 7-10 8-9 18-20 10-9 9-10 10-9 10-8 9-8 28-19" style="clip-to-self:true;comp-op:src"/>
<path transform="scale(.1)" d="m3164.8 8155.2 4 3 3 3 4 3 3 5 4 6 4 7 5 9 4 10 8 24 4 13 6 30 3 16 2 17 2 18 1 19v19 19l-2 40-2 19-3 20-4 19-5 18-4 17-6 14-5 12-6 11-6 8-13 13-7 3-7 2h-7l-16-5" style="clip-to-self:true;comp-op:src"/>
<path transform="scale(.1)" d="m3449.4 8316.1h-3l-3-1 3-3 3-1 4-1 5-1 7-1 7-2 9-1 9-2 10-1 11-1 11-2 11-1 12-1 11-1 12-1 10-1h10l8-1 8 1h5l4 1-2 4" style="clip-to-self:true;comp-op:src"/>
<path transform="scale(.1)" d="m3463.8 8380.3 1 3 2 3 5 2 5 1h11l6-1 8-1 9-2 10-1 10-2 12-3 12-2 39-6 14-2 13-2 11-2 10-2 9-2 16-3" style="clip-to-self:true;comp-op:src"/>
<path transform="scale(.1)" d="m4007.9 8158.7 1-6 1-5v-7-6l-1-6-2-6-2-4-6-8-3-3-8-4-5-1h-5-6l-6 1-6 2-6 3-7 4-6 5-7 6-12 16-5 9-8 20-3 11-2 10v11l1 10 2 10 3 10 4 10 5 9 6 10 7 9 8 10 8 9 34 34 7 8 8 8 6 7 5 8 5 7 3 6 2 6 1 7v5l-1 5-2 5-3 5-5 5-5 3-6 4-6 3-7 2-7 3-8 1-8 2-8 1h-7-15l-6-1-10-4-3-3-2-4-1-5 3-15" style="clip-to-self:true;comp-op:src"/>
<path transform="scale(.1)" d="m4108.9 8300.5-1 5v4l-1 4v4l-1 5v17l1 6v7 6l1 7v6 7l3 18 2 6 2 8 1 3 1 4 1-7" style="clip-to-self:true;comp-op:src"/>
<path transform="scale(.1)" d="m4132 8246.2 2 3 2 4 1 3v4l3 9 2 9" style="clip-to-self:true;comp-op:src"/>
<path transform="scale(.1)" d="m4197.1 8300.1v3 5 3l-1 5v12 7 16l-1 9v25l1 9v8l1 8v7l1 6v4l1 3v3l2-5 1-5v-5l1-6 1-8 2-18 2-10 4-22 8-24 5-11 6-10 6-9 7-8 7-6 7-4 6-4 7-2 6-1h6l6 2 5 3 4 4 4 5 3 7 3 8 1 8 1 10v10l-1 10-2 22-2 12-2 10-1 10-2 9-1 8v6l-1 5v3l5-2" style="clip-to-self:true;comp-op:src"/>
<path transform="scale(.1)" d="m4548.7 8301.4-2-3-2-5-1-5 1-4 2-2 2-3 4-2 4-3 5-3 6-2 7-3 7-2 8-1 9-1h8l8 1 7 2 7 3 6 4 5 5 3 6 1 8 1 9-1 10-1 9-6 22-4 10-4 11-5 9-4 9-5 8-5 7-6 6-5 4-4 3-4 2-3 2-3-1v-4l2-4 2-5 4-7 5-7 6-8 7-9 8-9 8-10 9-10 9-11 10-11 10-12 20-22 9-11 9-10 9-8 6-7 6-5 4-3 2-3-1 5-3 5-4 6-5 7-5 9-6 9-5 10-6 11-4 10-4 11-3 11-2 10-1 10v9l2 9 3 8 4 7 12 12 9 5 9 4 10 3 11 1 12 2h24l31-2" style="clip-to-self:true;comp-op:src"/>
<path transform="scale(.1)" d="m5030.1 8176.8 4-10 3-5 2-5 2-4 1-4-4 5-2 4-3 5-3 8-4 9-4 10-5 12-4 12-10 28-4 15-3 15-6 32-1 16v15l1 14 3 12 3 11 5 8 7 8 8 5 9 5 10 2h12l12-1 12-2 13-3 13-5 12-5 12-6 11-7 10-8 9-7 8-8 8-9 5-8 5-9 4-7 2-8 2-12-1-4-2-4-2-2-3-1h-3l-4 1-3 1-3 2-3 3-3 4-4 10-1 6-1 7v6l4 14 2 6 4 6 5 6 5 5 6 5 6 3 14 6 16 2h7l16-2 21-9 6-3 5-4 3-5 3-4 2-10-1-5-4-12-3-6-8-12-4-7-5-6-4-7-4-5-5-4-4-4-4-3-5-1h-4l-5 1-4 3-5 3-9 9-3 6-3 5-2 6-1 5v5l2 10" style="clip-to-self:true;comp-op:src"/>
<path transform="scale(.1)" d="m5421.4 8238v-3l-2-2-7 2-4 2-4 3-5 4-4 4-5 4-4 5-4 6-8 10-2 6-2 12v6l4 12 3 6 4 6 5 5 15 18 11 11 4 6 5 5 3 5 2 5 1 5v5l-1 4-2 4-3 4-10 8-7 2-6 3-8 2-7 1h-8-7-6l-6-1-6-2-5-3-4-3-3-4-3-6v-16" style="clip-to-self:true;comp-op:src"/>
<path transform="scale(.1)" d="m5559.4 8221.6v-3-3l-1-3v-3l-2 4-1 3-1 5-2 6-4 14-2 9-1 8-2 9-1 9-1 10v10 9l1 9 4 16 3 7 4 5 5 5 5 2 5 1h6l6-1 7-3 6-4 8-5 6-6 7-8 8-8 7-8 8-9 7-10 6-10 8-10 6-11 6-10 5-10 5-9 4-7 3-5 2-3 2 3-1 5-2 8-1 8-2 10-1 12-2 12-1 13-2 28v15 31l2 32 1 17 2 36 1 20v19l-1 20-2 36-2 17-2 16-3 15-4 13-4 12-6 11-5 9-14 14-7 6-8 5-8 4-9 3-8 2-10 1-9-1-8-1-8-2-9-2-7-4-6-5-7-6-4-6-4-7-4-8-2-9v-9-11l1-11 3-12 4-14 5-14 14-28 9-14 10-14 11-13 12-12 13-11 14-11 13-9 14-9 12-8 12-7 27-15" style="clip-to-self:true;comp-op:src"/>
<path transform="scale(.1)" d="m5905.7 8318.6-3-3h-3 3l5 1 4 1h5 5 8 7 9l20-2h10l22-2 12-1 11-1 12-1 11-1 12-1 22-2 10-1h10 21 6l4 1h5l-4 1-5 1h-19l3 2" style="clip-to-self:true;comp-op:src"/>
<path transform="scale(.1)" d="m6391.4 8214.7 3-5 3-4 3-6 3-7 2-6 3-6 4-12 1-4v-4-4-3l-2-3-5 2-4 3-4 5-5 8-6 11-7 13-7 15-16 34-14 36-7 17-10 36-3 16-2 15v14l1 11 2 10 3 8 5 7 5 4 7 4 8 1h8l10-2 11-3 11-5 11-6 11-7 11-8 11-9 10-10 8-10 7-9 6-10 5-9 4-7 2-7 2-6v-5-4l-3-3-5 1-5 5-2 5-3 6-2 6-2 14v8l2 14 3 6 4 6 4 4 5 3 6 3 7 2h8 9l9-2 10-2 9-3 10-4 9-4 8-6 8-5 7-6 5-6 4-6 4-14-1-7-1-8-2-7-3-8-8-14-4-5-5-5-5-3-6-2-5-1h-5l-5 1-5 2-5 3-4 4-4 5-6 10-2 10 1 5 2 4 2 5 4 3 5 3 5 2 7 2h5l7-1 19-4" style="clip-to-self:true;comp-op:src"/>
<path transform="scale(.1)" d="m6699.9 8256.6 3-3 4-6 1-4-2-3-3 2-3 4-2 5-1 3v4 4 5l1 5 1 6 4 12 3 6 6 14 4 7 4 8 9 24 2 7 2 8 2 14-1 6-1 5-2 5-4 5-4 4-4 3-6 3-5 3-7 1-5 2h-7-5-6l-4-2-5-2-4-3-4-4-4-5-6-15" style="clip-to-self:true;comp-op:src"/>
<path transform="scale(.1)" d="m6866.1 8301.8-3-4-3-6-2-3-1-3v-3l-1-3 2-8 2-3 2-4 4-5 3-3 5-4 5-3 12-6 6-1 7-1h6l6 1 6 2 5 3 4 3 4 5 2 6 2 14-2 18-2 10-2 9-3 10-3 9-4 9-3 7-3 6-3 5-3 4-2 2-5 1-2-2-1-6v-5l2-5 1-7 3-8 4-9 4-8 4-10 5-9 5-10 5-11 6-10 6-11 5-10 6-9 4-7 5-6 3-5 2-2 1 6-1 5-2 7-2 9-6 20-9 36-2 11-2 12-1 12-1 10v11l1 9 2 8 2 7 5 5 5 3 7 3 7 1h9l11-1 10-3 11-3 20-8 9-6 20-16" style="clip-to-self:true;comp-op:src"/>
<path transform="scale(.1)" d="m7394 8110.4-1-5-2-4-3-5-5-4-6-3-6-1h-8-9l-9 2-10 2-9 3-10 3-9 4-9 5-8 5-9 6-14 14-12 16-4 9-3 8-2 8-1 8 2 16 4 8 4 7 5 7 7 8 16 14 9 7 11 6 10 6 33 21 18 14 7 8 6 7 5 9 2 8 1 8v8l-2 8-3 6-4 7-5 6-14 12-8 4-9 4-8 3-8 2-9 2-14 2h-7-5l-5-1-3-2-2-2-2-6 1-5 2-6 3-7 15-21" style="clip-to-self:true;comp-op:src"/>
<path transform="scale(.1)" d="m7433.3 8258.7-1 3-2 8v8l1 5v5l1 6 1 7 4 14 6 24 3 9 2 8 4 18 6 24 2 6 1 6 1 5 1 4 2 6-2-12" style="clip-to-self:true;comp-op:src"/>
<path transform="scale(.1)" d="m7469.2 8248.4v-9 5l1 4v5l2 10 2 6 1 7 3 6 2 6 3 5 2 5 7 10" style="clip-to-self:true;comp-op:src"/>
<path transform="scale(.1)" d="m7527.7 8301.8h3l2 4 1 4 2 4 1 5 2 6 1 6 2 7 1 6 3 24v8l1 7v8 7l1 6v9 3 3-5-20-8l1-8 2-9 2-10 3-10 4-11 10-22 6-10 6-8 13-13 6-4 6-2 6-1h5l5 2 4 3 4 5 3 6 3 7 2 8 2 9 1 10v10 49l1 7v7l2 8 6 2" style="clip-to-self:true;comp-op:src"/>
<path transform="scale(.1)" d="m7746.1 8252.2h3l3 3 1 3 1 4v5l1 7v7l1 8 1 9 3 24 4 17 2 8 6 14 4 7 4 5 5 5 5 4 6 3 6 1 7 1 14-2 7-3 8-4 7-5 14-12 12-16 5-10 6-9 4-11 6-11 4-12 5-10 4-11 3-8 4-8 2-5 4-6 1 4 2 3 1 6 2 7 2 8 3 10 4 24 6 28 6 32 3 17 3 18 3 20 3 21 3 22 2 22 3 22 1 21v19l1 19-1 18-1 17-3 16-4 14-5 13-6 13-7 11-8 10-8 9-9 7-9 6-10 6-10 4-10 3-10 2-18 2-8-1-8-2-7-3-6-4-5-5-4-7-3-7-1-9-1-10 1-9 2-11 3-11 4-13 4-12 7-14 7-15 8-16 10-17 11-18 11-17 12-17 12-16 13-14 13-13 14-11 13-9 12-8 29-14" style="clip-to-self:true;comp-op:src"/>
</g>
</g>
</g>
</svg>
