<?xml version="1.0" encoding="UTF-8"?>
<svg width="1e3pt" height="600pt" version="1.2" viewBox="0 0 1e3 600" xmlns="http://www.w3.org/2000/svg">
<g id="surface10">
<rect width="1e3" height="600" fill="#2e3436"/>
<g fill="none" stroke-linecap="round" stroke-linejoin="round" stroke-miterlimit="10">
<g stroke="#fff">
<g stroke-width="14.1">
<path transform="scale(.1)" d="m3768.9 417.3 2-12 1-7v-7l-2-10-2-4-4-6-8-4-4-1-5-1h-5l-14 2-8 2-8 4-9 6-8 8-10 9-9 11-9 12-9 14-8 16-9 17-14 38-6 18-4 19-4 17-2 15-1 15v13l4 22 4 9 5 7 6 7 6 5 7 5 9 3 9 2h9l10-1 11-2 12-3 12-4 12-5 36-21 20-18 16-18 6-10 6-9 4-9 3-8 2-7 1-6 1-5-1-3-3-2-6 5-3 4-4 6-4 7-5 8-4 9-6 18-2 9v8 8l2 7 3 6 4 4 5 4 6 3 14 2 8-1 9-2 9-3 9-4 9-5 9-6 9-5 8-7 14-14 10-16 3-9 2-9 2-8v-9l-1-9-4-18-4-9-4-7-5-7-5-6-6-5-6-3-6-1-8 1-7 1-7 4-8 5-8 6-7 7-7 8-7 9-6 9-5 9-4 9-2 8-1 7v7l1 5 8 6h15" style="clip-to-self:true;comp-op:src"/>
<path transform="scale(.1)" d="m4064.9 464.73 4-4 2-4 3-3-3-3h-3-5l-6 2-14 6-8 4-8 5-9 6-9 7-16 14-8 9-7 8-6 9-5 8-4 8-3 7-1 7v6l1 6 6 8 5 4 6 3 6 1 7 2 8 1h9 9 8 8 8 8 6 5l3 2 3 4-3 6-4 3-5 4-6 5-7 4-8 4-8 5-8 4-10 4-8 3-9 3-8 2-9 3-7 1-7 2-6 1h-6-4l-4-1-1-10" style="clip-to-self:true;comp-op:src"/>
<path transform="scale(.1)" d="m4372.9 372.03-2-10-5-4-6-2h-4-5-5l-7 1-6 3-8 2-16 8-9 6-10 6-9 8-10 9-9 11-8 12-8 13-7 15-6 16-5 16-6 36v17 17l1 15 4 14 4 11 5 10 8 8 8 7 10 5 10 4 12 3 11 1 13 1 24-2 12-2 11-3 10-4 21-12" style="clip-to-self:true;comp-op:src"/>
<path transform="scale(.1)" d="m4407.9 507.42-2-3 1-4 3-5 2-3 3-4 7-7 5-4 5-3 6-4 7-3 6-2 8-2 7-2h8l7-1 7 1 6 1 6 2 5 3 4 3 4 5 3 5 2 6 1 6v9l-1 8-1 9-3 9-2 9-4 8-6 14-4 5-6 8-3 2-4 2-3-2v-6l2-4 1-6 3-8 4-8 4-10 5-10 10-22 6-11 10-20 5-9 5-8 5-7 3-6 10-15-2 3-1 4-3 4-10 20-8 18-4 10-4 11-3 11-2 10-2 20 1 8 1 7 2 6 3 5 5 4 4 3 6 2h6 7l8-1 8-2 9-3 8-5 8-4 9-6 20-17" style="clip-to-self:true;comp-op:src"/>
<path transform="scale(.1)" d="m4668.4 481.99h5 5l3 1h4 4l5 1 7-1h6 7l8-1h7l8-1 18-2h8l8-1 9-1 8-1h7l7-2 17-5" style="clip-to-self:true;comp-op:src"/>
<path transform="scale(.1)" d="m4924.2 399.65-4 1-3 3-3 6-1 3-2 5-2 4-2 6-1 6-2 7v7 7 7l2 7 1 8 4 7 8 12 5 5 6 3 8 3h7 8l9-2 9-3 18-8 9-6 8-6 9-7 7-8 8-7 5-8 6-8 4-8 3-7 3-8 2-14-2-10-1-3-2-3-5-2-5 2-2 3-3 3-1 4-3 6-2 7-4 16-1 10-1 11-1 12v13l1 15v16l3 18 2 18 6 36 8 34 4 15 3 15 6 26 2 12 2 11 2 10v10l1 8-1 9-1 7-1 6-2 6-3 5-4 5-4 3-6 4-6 2-6 3-7 1-16 2h-9-9l-9-1-8-2-7-2-7-3-6-3-5-4-3-4-2-6-2-5v-7l2-7 2-8 3-8 5-9 6-10 7-11 8-10 9-11 22-22 12-11 12-12 39-33 24-22 27-27" style="clip-to-self:true;comp-op:src"/>
<path transform="scale(.1)" d="m5146 367.73v-8l1-4 5-4 3-1 4-1 5-1 6-1h15l8 1 10 1 9 2 10 2 10 4 20 10 10 7 9 8 8 9 7 11 6 13 5 14 4 17 2 19 1 21v22l-1 22-2 22-3 21-4 19-5 18-5 16-7 15-6 13-8 12-7 12-8 9-9 8-8 7-8 5-9 4-19 4" style="clip-to-self:true;comp-op:src"/>
<path transform="scale(.1)" d="m1746 1604.6 1-5 1-4v-4l4-24 1-7 2-8 2-7 1-8 2-8 1-6 1-7v-13l-2-4-3 1-3 3-3 4-4 5-4 8-6 9-6 10-7 12-7 13-7 15-8 15-7 16-6 17-5 16-4 16-3 14-2 13-1 11 1 10 2 7 4 6 5 5 6 4 8 1 9 1 22-4 12-4 12-6 13-6 12-8 13-9 12-9 31-31 7-11 7-10 6-10 4-8 3-7 2-6 1-4-2-4-6 2-4 3-4 5-5 6-5 8-4 9-5 9-4 10-3 10-4 20v8l1 8 2 7 3 5 4 5 6 4 6 2 7 1h8l9-2 9-3 11-4 20-12 11-7 11-9 9-8 9-9 14-18 5-10 5-9 3-10 1-8 1-9-2-14-3-6-4-5-5-3-7-3-7-2h-7l-9 1-10 3-9 4-10 6-11 6-9 9-10 9-9 10-8 11-7 10-5 10-4 9-1 8v8l2 5 4 5 5 2 7 1 20-3" style="clip-to-self:true;comp-op:src"/>
<path transform="scale(.1)" d="m2106.2 1574.8 5-4 6-8 2-3-5-3h-3l-10 2-6 2-7 3-8 4-7 3-7 4-7 5-5 4-5 5-4 5-2 5-1 5v5l4 10 8 10 5 5 6 5 5 4 6 4 6 5 6 3 5 4 5 3 4 4 3 4 3 3 2 3 1 4v3 3l-3 4-3 3-10 6-7 3-16 6-9 3-19 4-8 2-9 1-8 1-7 1h-6l-6-2-3-2-2-4 3-16" style="clip-to-self:true;comp-op:src"/>
<path transform="scale(.1)" d="m2410.4 1442.9-4 3-6 3-7 4-8 7-8 8-8 9-18 24-9 13-8 15-8 16-7 17-5 18-5 19-4 19-2 18-1 18v17l2 14 4 14 5 11 6 11 7 9 9 8 8 7 10 7 20 10 10 3 9 1 24-1" style="clip-to-self:true;comp-op:src"/>
<path transform="scale(.1)" d="m2487.5 1606.3v-3l1-3v-4l1-5 2-4 1-4 3-4 7-7 4-3 5-3 6-2 6-3 6-1 5-2h6l4 1 4 2 4 3 2 4 2 6 1 6v8l-2 20-2 12-3 12-4 12-3 12-4 10-5 10-3 8-4 8-4 5-2 4-3 3-3 2 1-4 5-10 4-6 5-9 6-9 6-10 7-12 16-25 8-13 16-24 8-11 7-10 7-8 5-6 4-5 3-3-3 6-3 5-4 6-3 6-5 8-4 8-5 9-4 10-4 9-4 10-3 10-2 9-1 8v7 6l2 5 3 4 4 3 5 2 7 1 7-1 8-2 22-8" style="clip-to-self:true;comp-op:src"/>
<path transform="scale(.1)" d="m2697.3 1626.1-3 2-2 1-3 1-4 1 4 1 3-1 4-1 5-1 6-2 16-4 9-3 20-6 12-3 36-6 11-3 11-1 9-2 10-2 14-2 5-2h4l4-1 3-1-6-2" style="clip-to-self:true;comp-op:src"/>
<path transform="scale(.1)" d="m2810.4 1560.6-4-3-3-2-5-3-2-3 4 10 1 4 2 4 1 6 2 6 1 6 1 8 2 7 1 7 2 8 1 8 2 6 2 7 1 5 2 5 6 8" style="clip-to-self:true;comp-op:src"/>
<path transform="scale(.1)" d="m2960.3 1533.5-3 2-2 4-1 3-2 4v6l-1 5v5l1 6v6l2 6 1 7 2 7 4 7 3 6 4 7 6 6 5 6 6 4 7 4 14 4h8 8l7-2 8-3 8-4 7-4 18-18 5-7 4-8 3-7 2-8 1-8 1-7v-7-6l-1-4-2-4-2-3-3-3-4 1-4 6-2 4-2 12-2 16v9l1 10v11l2 11 1 12 4 23 2 12 3 12 3 13 5 36 2 12v11l1 11-1 11-1 9-1 10-3 9-3 8-4 8-10 14-12 10-6 4-8 3-6 2-7 1h-7l-7-1-7-2-6-3-7-3-5-6-9-17" style="clip-to-self:true;comp-op:src"/>
<path transform="scale(.1)" d="m3244.8 1509.3h4l5 2 4 2 5 2 4 3 5 3 5 5 6 5 6 6 5 7 6 8 5 10 5 12 4 12 4 14 3 16 2 17 1 17v17l-1 17-2 17-3 15-4 15-5 13-5 12-6 11-6 9-7 8-7 7-7 6-7 5-14 7-10 2-3-1-3-7 5-17" style="clip-to-self:true;comp-op:src"/>
<path transform="scale(.1)" d="m3496.3 1598.6 6-3 5-1 6-2 7-2 8-2 9-3 19-5 10-3 9-2 10-2 9-3 7-1 6-2 11-2" style="clip-to-self:true;comp-op:src"/>
<path transform="scale(.1)" d="m3500.1 1683.5-3 2 4 1h4l5-2 6-2 9-2 9-3 10-3 11-3 12-4 13-3 11-3 12-3 20-6 22-10" style="clip-to-self:true;comp-op:src"/>
<path transform="scale(.1)" d="m4033.3 1477 3-5 3-4 3-6 1-4 1-5v-3-3l-3-5-4-3-7 1-4 2-5 2-5 5-6 5-5 7-6 8-6 9-6 11-5 11-5 13-5 14-4 14-3 14-2 15v15 14l2 12 2 11 4 9 5 6 6 5 6 3 7 1 9-1 9-2 9-5 10-6 11-7 11-9 10-10 20-22 9-10 7-11 6-10 5-9 3-8 3-6 1-5-1-3-4-2-3 1-4 2-5 3-4 5-5 6-5 8-5 9-8 20-4 22-1 11v10l1 9 3 8 3 6 5 4 6 3 7 1 8-1 10-3 10-5 11-6 11-8 12-10 11-10 22-22 10-13 8-12 6-13 6-12 3-12 3-11 1-11-1-9-3-8-4-6-5-4-7-3-9-1-9 1-11 2-10 3-11 5-22 12-10 8-10 9-8 8-8 10-5 9-3 9-2 9v7l3 7 12 12" style="clip-to-self:true;comp-op:src"/>
<path transform="scale(.1)" d="m4391.6 1487.8 1-4 2-10 1-3 2-8 2-4v-4l2-8v-11l-2-4-2-3-4-2h-6l-4 1-4 3-5 3-5 4-6 5-6 7-7 7-6 7-6 8-5 8-5 7-4 7-4 12v6 5l2 4 3 3 10 6 7 2 8 1 9 1h10 10 11l11-1h11l22-2h9l9 1 7 1 6 2 4 2 3 2 1 4v4l-1 5-3 5-4 5-5 6-7 7-7 6-8 7-18 12-9 5-9 6-18 10-9 4-8 4-8 3-6 3-6 2-5 2h-3l-3-3 3-9" style="clip-to-self:true;comp-op:src"/>
<path transform="scale(.1)" d="m4572.7 1519.6-5-4-3-3-2-4-2-3-1-4v-3-4l2-4 2-5 4-4 5-4 4-5 12-8 7-4 6-3 7-2 12-2 5 1 4 2 3 3 3 4 1 6 1 7-1 6-1 9-2 8-3 8-3 10-4 9-5 8-4 9-5 8-4 7-5 7-3 5-6 8-2 4 3-5 3-3 3-5 5-6 6-7 5-7 7-8 7-9 14-19 14-21 7-10 6-10 10-18 4-7 3-6 2-5 2-6-4 5-3 4-4 6-4 7-5 8-10 20-5 11-4 10-4 12-3 10-4 20v9l1 8 1 7 3 7 4 5 5 4 5 3 8 2h8l9-1 10-2 12-4 12-5 12-6 32-19" style="clip-to-self:true;comp-op:src"/>
<path transform="scale(.1)" d="m5022.9 1423.5 2-5 2-4 2-5 1-5 1-4v-4l-2-5-4-1-5 2-4 3-5 5-5 6-6 7-6 9-6 10-6 12-5 12-3 13-4 13-2 13-1 14-1 13 1 12 2 11 2 10 4 9 5 7 6 5 6 4 7 2h9 8l9-3 10-3 9-5 9-6 8-6 16-14 5-8 6-8 4-7 3-8 2-6v-6-4-4l-2-3-4-4-6 1-3 3-4 3-3 5-4 5-3 7-2 7-3 8-1 7-1 8 1 8 1 7 6 12 5 6 5 4 6 4 7 2 8 1 9 1 10-1 20-6 11-5 10-5 10-6 9-7 8-7 5-6 5-8 3-6 1-8v-8l-1-7-2-8-8-16-5-7-6-7-7-5-7-4-7-3-9-1-8 1-9 1-9 3-9 5-8 5-8 6-7 8-5 7-4 9-3 8-1 8v8l2 7 3 7 4 5 4 4 15 5" style="clip-to-self:true;comp-op:src"/>
<path transform="scale(.1)" d="m5291.2 1442.9h-6l-4 1-5 1-4 2-5 2-5 3-5 4-4 4-8 10-3 4-2 5-1 5-1 4 2 4 2 5 8 8 6 4 7 4 8 3 8 4 27 9 9 4 8 3 7 3 6 4 5 4 2 4 1 4v4l-3 5-4 5-6 5-7 6-9 6-9 5-10 5-20 8-9 2-8 2h-9-6l-6-1-6-3-4-5-1-15" style="clip-to-self:true;comp-op:src"/>
<path transform="scale(.1)" d="m5476.1 1433.4v-3l-1-3-3 2-1 3-1 4-1 5-2 6-2 14-1 17v8l1 9 1 8 2 8 3 8 3 7 4 6 4 5 5 4 5 3 12 2 7-1 6-2 14-6 14-10 7-6 6-6 5-7 5-6 4-6 3-7 3-6 2-5 1-4 2-6-1 6v5 6 25 11l1 12 2 13 1 13 3 15 2 17 3 17 4 19 3 19 4 18 4 17 8 32 4 15 3 14 3 13 2 12 4 20v9 8l-2 8-2 7-8 12-6 6-7 4-7 3-8 3-9 2-18 2-20-2-9-2-8-2-8-4-7-4-12-12-4-7-3-7-1-9v-9l1-10 2-11 4-12 6-12 6-13 8-14 9-14 20-30 33-48 11-15 10-15 9-13 21-26" style="clip-to-self:true;comp-op:src"/>
<path transform="scale(.1)" d="m5808.5 1547.7 1 3 3 1 7-1 4-1 5-2 7-3 8-3 9-4 22-10 12-4 13-6 36-12 11-3 10-2 9-2 8-1h7l6-1h9" style="clip-to-self:true;comp-op:src"/>
<path transform="scale(.1)" d="m6303.8 1474 4-8 3-5 6-12 3-7 2-6 6-12 4-12 2-10v-5l-2-8-2-3-3-3-4-2-4-1h-6-6l-14 4-8 4-9 4-10 6-20 14-10 8-18 16-8 9-7 9-6 8-3 9-3 7-2 8 1 6 1 7 3 6 4 5 6 5 7 5 18 9 10 3 11 4 22 5 10 2 10 3 10 2 8 3 8 4 6 4 5 5 3 7 2 7v8l-2 18-8 18-5 8-6 10-6 8-7 7-6 7-7 6-8 4-7 4-14 6-6 1-5 2h-5-4l-5-2v-5l2-5 3-5 4-7 15-21" style="clip-to-self:true;comp-op:src"/>
<path transform="scale(.1)" d="m6445.1 1534.8 1 3v5l1 5v4l1 6v6l1 6 1 7v6l1 8v7l1 8v7l1 8v6l1 7 1 6 1 5 1 4 1 3 2 3 2-6" style="clip-to-self:true;comp-op:src"/>
</g>
<path d="m648.29 152.27 0.38281 0.42969" stroke-width="1.41" style="clip-to-self:true;comp-op:src"/>
<g stroke-width="14.1">
<path transform="scale(.1)" d="m6534.7 1581.8-1 3v3 5l-2 12v6l-1 8v7 8l-1 7v8l-1 6v6l-1 7v5 5l-1 4v4 7l1-4 2-3 1-5 2-5 2-7 2-8 2-9 2-10 3-11 4-11 3-12 4-13 5-12 4-12 6-11 6-10 6-8 6-7 6-6 5-4 5-3 5-2h4l4 1 3 2 3 4 2 4 3 5 2 14v8l1 9v10l-1 9v11l-1 11-2 11-2 22-1 10v8l-1 7 1 5v4l7-1" style="clip-to-self:true;comp-op:src"/>
<path transform="scale(.1)" d="m6798.1 1539.9-2-4-1-4 1-4 4-5 2-3 3-3 12-9 15-6h5 4 5l4 1 4 2 3 2 2 3 2 4v5 6 7l-2 7-2 9-3 8-3 9-8 18-4 10-4 9-4 8-3 8-4 6-3 9-2 3 4-4 2-5 3-5 4-8 5-8 5-9 6-9 6-11 6-10 6-11 6-10 12-22 10-20 5-9 3-9 3-6 2-5 1-4-6 3-4 4-4 5-5 6-4 8-5 8-5 9-8 20-3 10-3 11-2 10-1 11v11l1 11 2 10 4 10 4 8 6 7 7 6 9 4 9 3 10 1 22-2 12-3 28-11" style="clip-to-self:true;comp-op:src"/>
<path transform="scale(.1)" d="m7279.1 1456.3 1-3 1-5 3-8 2-11 2-9v-9-9l-2-6-2-7-3-4-4-4-5-3-5-2h-7l-14 2-9 3-8 3-9 5-8 4-9 6-8 7-7 7-7 8-5 8-6 9-4 9-2 9-1 10v9l2 10 3 9 5 9 6 8 8 8 9 8 9 7 10 7 11 7 10 6 10 7 9 6 8 6 7 6 7 7 4 7 4 6 1 7v7l-1 7-6 14-6 7-6 6-7 6-8 5-18 10-9 3-9 2-8 1h-8-8l-7-2-5-3-4-4-5-15" style="clip-to-self:true;comp-op:src"/>
<path transform="scale(.1)" d="m7337.5 1525.7 1 3v4 3 4l-1 5v4 42 7l2 16v9l2 8 1 9 4 14 4 10 3 3 7 1" style="clip-to-self:true;comp-op:src"/>
<path transform="scale(.1)" d="m7380.6 1517.5-4-3-3-4 2 3 4 4 3 5 1 4 2 3 2 4 2 3 1 4 3 10" style="clip-to-self:true;comp-op:src"/>
<path transform="scale(.1)" d="m7430.4 1564.1-2-3 1 6 1 3 1 4 1 3 1 6 1 5 2 12 4 28v7l1 6 1 5v5l1 4v4-10-5l2-14 1-8 2-8 4-18 4-10 8-16 6-8 5-6 6-5 12-6 5-1 6-1 5 1 8 4 8 8 3 5 3 7 1 7 2 8 3 27v38l-1 8v7l-1 14" style="clip-to-self:true;comp-op:src"/>
<path transform="scale(.1)" d="m7674.3 1502.4 1-3h4l3 5 1 3 2 5 1 5 2 6 1 6 1 7 1 6 4 15 3 7 3 8 2 7 8 12 3 6 8 8 4 2 4 1h4l4-1 4-3 5-3 3-5 4-5 4-6 3-6 3-8 3-7 3-8 2-7 3-8 2-8 4-14 2-10 1-4 1-3 2 4v3l1 5v7 7l1 8v32 13l1 14v15l1 15 1 18 1 17 2 36 1 19 2 18 1 18 2 18 1 18 2 34v17 16l-1 14-2 13-2 12-3 9-2 9-4 7-8 10-5 3-6 2-5 1-5-1-6-1-6-2-5-4-12-8-6-6-7-6-6-7-5-7-5-8-6-16-1-9v-10l1-9 3-10 3-11 5-10 6-10 7-11 7-12 9-11 9-13 10-13 28-34" style="clip-to-self:true;comp-op:src"/>
</g>
</g>
<g stroke="#00c0ff" stroke-width="14.1">
<path transform="scale(.1)" d="m7390.7 312.97-2-4-2-5-3-3-2-1-2 5-1 4v5 21l-1 10v75 14 70l-1 8v7 5 5l-1 3-1 4h-3l-3-5-2-4-4-10-2-7-1-7-2-9-1-9v-11l-1-11v-11l2-24 1-13 2-14 1-13 3-15 3-14 4-15 3-15 5-14 4-13 6-11 5-10 6-9 5-6 6-6 6-3 7-4 6-1 7-1h6l7 1 5 2 6 3 9 9 3 6 2 7 1 7 1 8-1 8-1 9-2 9-12 30-6 10-6 9-6 10-14 16-14 12-8 5-6 4-7 3-6 3-6 1-4 1h-5-4l-3-1-5-4-1-5 1-4 2-4 3-4 10-12" style="clip-to-self:true;comp-op:src"/>
<path transform="scale(.1)" d="m7483.6 413.01-5-1-3-2-2-3v-3l1-3 4-3 3-1h4 3 5l8 4 5 3 3 4 6 12 2 8 1 9v10 11l-1 11-2 13-3 13-2 12-3 12-3 10-3 8-3 7-2 5-3 4-3 3-3 1-5-1-2-3-2-5-1-7-1-8v-10l1-10 2-24 2-11 3-12 2-12 8-20 4-9 5-7 5-6 5-5 5-4 5-2 4-2 5-1h4l10 4" style="clip-to-self:true;comp-op:src"/>
<path transform="scale(.1)" d="m7588.5 418.16-1 3h3l4-2 5-1 7-3 3-2 4-1 8-4 8-5 4-3 4-2 3-3 2-3 3-2 1-5v-3l-2-3-5-2h-6l-5 1-4 2-5 2-6 4-5 5-7 6-12 14-10 18-4 10-4 11-3 11-1 11-1 12v11l1 12 2 10 3 9 4 8 5 6 5 4 6 4h8 8l9-2 10-4 11-5 12-7 24-18 12-11 27-28" style="clip-to-self:true;comp-op:src"/>
<path transform="scale(.1)" d="m7721.7 361.29-6 2-4 4-1 3-1 5v5 5l1 6 1 7 2 7 1 8 2 7 3 9 2 8 8 36 3 9 4 18 2 7 3 6 2 5 3 4 2 3 5 1 5-3 2-4 2-5 2-6 2-8 2-9 1-9v-9l1-10v-11-44-10l1-11 1-9 1-8 2-6 2-5 1-3 3-3 3 1 4 6" style="clip-to-self:true;comp-op:src"/>
<path transform="scale(.1)" d="m7875 386.72-1-3-3 3v4l-1 5-1 6-1 7v7l-2 16-1 9v27l1 8v9l1 7 2 6 2 5 2 3 4 1 5-4 2-4 2-5 5-18" style="clip-to-self:true;comp-op:src"/>
<path transform="scale(.1)" d="m7878.3 360.82-1 4v4l-1 4v5l1 5v6l4 12" style="clip-to-self:true;comp-op:src"/>
<path transform="scale(.1)" d="m7955.9 396.64-3 1-6 6-2 4-2 8-2 10v6l-1 5v6l-1 6v12l1 6v6l2 6 1 5 2 5 3 4 4 3 3 2 5 2 4 1h5l10-4 6-3 5-3 6-4 4-5 5-5 3-5 3-6 2-6v-6-5l-1-6-2-6-8-12-4-5-5-5-6-5-12-8-7-3-6-3-7-2-6-1h-6l-5 1h-5l-3 2-4 3 8 4" style="clip-to-self:true;comp-op:src"/>
<path transform="scale(.1)" d="m8081.9 362.58-3 3-3 4-1 3-2 4-2 5-3 5-1 7-2 6-2 7-3 15-2 14v8l1 7v6l1 6 2 6 2 5 2 3 3 3 3 2 3 1 4 1 3-1 4-2 5-2 14-14 5-7 5-6 5-8 5-7 4-8 4-7 4-8 8-14 3-6 2-5 4-6 2 4v4l1 5-1 5v20l1 8 2 14 1 6 6 12 4 4 3 4 5 3 5 1h6 6l7-2 14-7 7-5 8-6 14-14 6-8 7-8 5-8 5-9 8-18 3-9 2-10 2-8 1-7 1-6-1-5-1-3-4-3-4 1-3 1-4 3-5 3-3 5-4 4-6 12-2 5-2 6-1 5v10l2 8 3 4 2 3 4 2 10 4 12 4 7 2 7 1 6 3 7 3 5 4 5 5 4 6 2 7 1 8v8l-2 18-3 9-3 10-5 9-4 9-6 9-5 8-13 13-7 5-6 3-7 1h-6l-6-1-6-2-5-4-13-13" style="clip-to-self:true;comp-op:src"/>
<path transform="scale(.1)" d="m7594.3 709.18-8-2-6-2-14-2h-7-8-8l-8 1-7 1-8 2-8 1-8 2-8 3-7 3-14 7-6 4-6 3-6 6-2 6 3 5 3 2 16 8 8 2 8 3 8 2 9 3 18 8 8 4 7 4 7 5 6 5 5 5 4 6 2 6 2 7v6 6l-2 7-2 6-3 6-5 5-4 5-6 5-5 4-7 4-6 4-7 2-6 3-6 2-6 1h-5-4l-8-2-1-3-1-5v-5l3-17" style="clip-to-self:true;comp-op:src"/>
<path transform="scale(.1)" d="m7615.3 830.74 7 7 6 1 3 1 4-1 5-1 5-2 12-6 6-4 14-8 6-5 7-5 6-5 16-16 4-5 3-5 3-4 2-5v-4-3l-4-6-4-2-4-1h-5l-12 2-7 3-8 3-7 5-14 12-6 8-6 7-10 18-3 10-2 9-2 10v10l4 18 4 9 6 9 5 7 8 6 8 3 9 3h10 11l24-6 12-5 13-6 12-7 13-8 12-9 24-20 11-10 10-10 10-11 8-11 7-12 6-11 4-11 3-11 2-11 1-9-1-8-2-7-3-5-4-3-5-2-6-1-6 2-7 2-7 4-8 5-14 12-6 6-10 14-3 7-3 6-1 7v6 6l4 10 3 4 4 4 4 3 4 4 6 2 5 3 12 4 7 2 18 6 5 3 5 2 4 3 3 2 2 3 1 4 1 3-1 3-1 4-2 3-3 2-3 3-3 2-4 2-3 1h-6l-4-3-1-5v-4l1-4 2-5 6-12 5-7 5-6 12-16 47-47 8-9 8-7 7-7 6-7 5-5 4-5 2-3 2-5h-4l-4 2-12 9-5 4-4 5-10 10-4 6-4 5-3 5-2 6-1 4-1 5 1 5 4 8 3 4 8 6 5 3 6 3 5 2 6 3 6 2 12 6 5 3 4 3 4 4 3 4 1 3 2 5v5 4l-1 5-2 5-6 10-8 8-6 4-4 3-5 3-5 2-4 1h-4l-3-1-4-3-1-3 1-4 1-5 3-5 4-7 12-14 7-9 25-25 9-8 20-16 9-6 10-6 9-4 8-3 8-1 5-1 6 1 4 1 3 2 3 3 2 4 2 10-1 6v7l-2 7-1 7-2 8-1 7-1 8-1 6v7 5 5l2 8 3 5 4-2 2-4 3-4 3-6 8-19" style="clip-to-self:true;comp-op:src"/>
<path transform="scale(.1)" d="m8128.8 725.55-1 3-2 5v4 9l1 4 1 6 1 4 2 5 4 8 7 8" style="clip-to-self:true;comp-op:src"/>
<path transform="scale(.1)" d="m8229.9 750.55h-4l-3 2-4 1-3 3-4 2-3 4-4 4-3 4-3 5-3 4-3 5-1 6-4 10-1 6-1 5v5 5l2 5 1 5 2 4 2 3 6 6 10 5 3 1h5l2-3-2-3-3-5-4-6-1-4-2-4v-4-4-5l1-5 6-10 4-6 5-6 5-5 14-12 16-12 8-4 8-5 10-3 8-3 8-2 16-2 14 2 6 2 6 3 4 3 4 4 3 5 1 5 1 6-1 6-1 7-1 6-3 7-3 6-6 10-3 4-3 3-3 2-3 1h-5l-3-3-1-3-1-4v-5l1-5 1-7 6-14 8-14 10-14 14-16 7-7 9-7 8-6 8-5 9-4 9-3 8-2h8 8l6 2 10 8 3 6 3 7 2 8 1 9 1 10v10l-1 11-3 22-4 22-2 9-3 9-5 20" style="clip-to-self:true;comp-op:src"/>
<path transform="scale(.1)" d="m7174.6 493.2-4-3-3-3-5-3-6-2-5-2h-7l-6-1-7 1-16 2-18 4-11 3-10 3-11 3-11 4-12 4-26 8-14 5-15 5-15 6-16 6-32 14-34 16-18 9-38 20-20 12-21 12-21 13-22 15-23 16-24 18-25 18-26 19-25 19-25 18-23 19-21 18-19 18-17 17-16 17-14 16-11 16-11 14-9 14-8 13-7 12-7 11-15 33-4 10-5 11-8 22-5 11-12 30-3 8-4 8-2 6-3 6-1 4-2 3 1-3 2-7 1-4 2-6 6-17" style="clip-to-self:true;comp-op:src"/>
<path transform="scale(.1)" d="m6409.2 890.66-2 3-2 4-2 6-1 4v4l-2 4-1 5-2 5-2 6-2 5-2 6-2 7-2 8-3 7-3 8-4 9-12 30-5 10-4 10-5 11-5 10-8 18-4 8-3 7-2 7-2 5-2 10 1 3 2 4 4 2h6l5-2 4-1 5-3 5-2 12-8 7-3 7-5 8-5 8-6 8-5 18-12 11-6 20-14 10-6 10-7 9-6 10-5 9-5 8-4 7-4 6-4 5-3 6-3" style="clip-to-self:true;comp-op:src"/>
</g>
<g stroke="#fff" stroke-width="14.1">
<path transform="scale(.1)" d="m1292.9 2548.7 1-4 2-3 3-6 2-5 4-14 3-7 3-8 2-8 6-18 3-10 2-9 1-10 1-8v-9l-1-8-2-14-2-6-2-5-3-4-4-4-3-1-5-1h-5l-6 2-7 3-8 4-16 12-18 16-10 9-9 9-16 18-6 9-5 9-3 8-2 7-1 7 1 6 3 5 4 5 6 5 6 4 18 6 10 3 11 2 12 2 11 3 22 4 9 3 9 4 7 4 6 4 5 5 3 6 1 7 1 6-4 16-4 8-5 8-12 14-8 7-8 6-10 6-9 5-22 10-11 3-12 4-22 4h-10-9l-7-1-7-2-5-3-4-4-3-5-1-6v-6l4-17" style="clip-to-self:true;comp-op:src"/>
<path transform="scale(.1)" d="m1370.5 2572.4h-4l-2 3-2 6-1 6-1 5v7l-2 14-1 8-1 17v18l1 10 1 8 1 7 2 6 2 5 3 4 3 2 4 1 8-2 4-3 5-4 4-5 10-14 4-8 5-8 12-27 2-9 3-10 3-8 4-14 1-5v-4-4l-3 3-1 3-2 4-1 7-2 6-2 16-1 9v9l1 9v8l2 9 2 8 3 7 3 6 4 5 4 3 5 2 7-1 6-2 7-5 16-17" style="clip-to-self:true;comp-op:src"/>
<path transform="scale(.1)" d="m1531.4 2441.4v-4l-1-3-1-4-3-3-4 3-2 4-2 5-1 7-2 7-1 9-4 22-1 13-2 13-2 28-1 15-2 28v13l1 12 1 11 2 18 2 6 3 6 2 3 3 3 4 2 5-2 2-3 4-8 3-5 2-7 3-7 2-7 3-8 4-8 3-9 4-10 5-9 4-9 5-9 5-8 5-7 5-6 4-5 4-3 4-2 5 1 3 2 2 5 1 5 1 7 1 8v18 9l-1 10-2 11-4 20-3 11-2 10-8 18-8 16-5 6-4 6-10 8-4 2-4 1-3 1-5-2-2-3-2-4-1-5v-16" style="clip-to-self:true;comp-op:src"/>
<path transform="scale(.1)" d="m1747 2560.4-1-5-1-3-4-4-4-1h-3-5-5l-5 2-6 1-6 3-6 2-7 4-5 3-6 4-15 12-3 5-2 5-1 3v5l1 4 2 3 3 3 4 3 10 6 21 6 8 2 21 6 6 2 6 3 4 3 4 4 2 3 1 4v5l-2 4-3 5-4 5-5 6-12 10-7 5-14 8-7 3-8 2-6 2-6 1h-5l-5-1-3-2-2-3-2-4v-6l1-7 6-22" style="clip-to-self:true;comp-op:src"/>
<path transform="scale(.1)" d="m1852.3 2434.1-1-3v-3l-2-3v-3l-2-4h-4l-2 3-3 5-1 4-2 5-2 7-1 8-2 10-1 10-2 24v14 28 15l1 15 2 28 2 14 2 13 2 11 2 10 3 9 2 7 3 6 3 4 2 3 3 1 5-1 4-6" style="clip-to-self:true;comp-op:src"/>
<path transform="scale(.1)" d="m1792.9 2591-2-4-1-6v-3l1-3 3-3 4-3 10-10 6-4 6-5 6-6 14-10 24-12 16-6 7-1 7-2h7l5 1 4 1 4 3 3 4 1 4 1 6 1 7v18l-1 10-1 11-2 24-2 12-1 12v12 21 9l1 7 2 7 2 5 1 4 2 3 4 3 4-3 4-11" style="clip-to-self:true;comp-op:src"/>
<path transform="scale(.1)" d="m1962 2476.7v-3l1-3 2 3 1 5v3 10" style="clip-to-self:true;comp-op:src"/>
<path transform="scale(.1)" d="m2086.1 2376.7v-7l-1-5-1-7-1-5-2-8-2 3-1 4-1 5-2 8-2 10-2 11-2 13-3 14-2 17-3 17-2 19-3 20-2 21-1 21-1 20-1 21v20l2 38 2 17 2 15 4 13 3 11 4 9 5 6 5 5 5 2 5 1 5-1 5-3 4-4 9-16" style="clip-to-self:true;comp-op:src"/>
<path transform="scale(.1)" d="m2012.3 2572.4 2-3 4-5 3-3 4-3 4-4 5-3 6-4 5-3 7-4 6-4 7-3 6-4 7-4 8-3 6-4 7-4 7-3 14-8" style="clip-to-self:true;comp-op:src"/>
<path transform="scale(.1)" d="m2163.7 2528.5v3 7 8 6 6l-1 6v7l-1 7-1 6v7 14 7l1 7 2 12 1 5 1 4 2 4 4 3 4-2 5-4 3-4 3-5 4-5 3-6 4-7 3-7 4-7 3-7 4-8 3-7 4-6 3-6 3-4 2-4 2-3 3-3 2 3v3l1 5v11l-1 7v24l1 8v9l2 8 1 8 2 9 6 14 3 5 4 4 5 3h4l6-1 5-3 7-4 14-14 7-9 18-26" style="clip-to-self:true;comp-op:src"/>
<path transform="scale(.1)" d="m2374 2374.1-3 2-4 4-3 7-2 8v5l-1 6v74l1 14v14l1 14 1 16 4 30 6 30 2 14 4 13 3 12 3 10 4 9 4 7 3 4 3 2 8-1" style="clip-to-self:true;comp-op:src"/>
<path transform="scale(.1)" d="m2355.8 2534.1v-9l1-5 3-4 2-3 3-2 4-3 4-2 4-3 11-5 6-3 14-6 19-8" style="clip-to-self:true;comp-op:src"/>
<path transform="scale(.1)" d="m2477.5 2567.3v4l3 1 6-1 3-2 5-1 5-2 4-3 6-2 5-3 12-7 12-8 5-5 6-4 5-5 4-5 3-5 4-5 2-5 1-5v-4-5l-1-4-2-4-3-4-3-2-4-2-5-1h-6l-6 1-6 2-7 3-7 4-7 5-6 5-13 13-5 8-6 8-5 9-4 10-7 20-2 9-1 9-1 10 2 8 2 7 3 7 5 6 6 5 7 4 9 4 9 2 10 1h11l12-1 13-2 12-2 13-3 12-4 11-4 11-6 11-5 24-16" style="clip-to-self:true;comp-op:src"/>
<path transform="scale(.1)" d="m3132.3 2465.5v-13-4l-1-5-1-4v-3l-2-3-2-4-4-1-4 5-7 21-3 10-3 11-2 12-2 13-2 26v13 12l2 12 2 11 2 10 3 8 4 7 4 5 6 3 5 1h7l7-2 8-3 8-5 8-6 7-7 9-8 14-18 6-10 5-10 4-11 4-10 3-11 1-11 2-12 1-10v-11-16l-1-6v-4l-2-3-3 4-1 4-1 6-1 7-1 10v10l-1 12v14 67 20l1 21 1 23v24l1 46 1 23v21 20l1 18-1 17v16l-1 15-2 14-3 12-2 11-3 10-5 8-4 8-10 10-6 3-6 2-6 1h-6l-7-2-6-2-8-4-6-4-7-6-7-8-6-8-6-9-4-10-8-22-2-12-1-12v-12l1-14 4-14 4-15 6-16 16-36 10-18 12-19 12-16 13-15 13-14 12-11 13-8 11-7 11-6 9-4 17-4" style="clip-to-self:true;comp-op:src"/>
<path transform="scale(.1)" d="m3363.6 2537.1-10 2-3 1 2 3 4 2 3 1 4 1 5 2 6 1 7 1 8 1 10 1 9 1 33 3h12l12 1h12 12 13 11l13-1h11l12-1h11l10-2 9-1 8-1 7-1 7-2 6-2 5-2 4-2 6-8" style="clip-to-self:true;comp-op:src"/>
<path transform="scale(.1)" d="m3570.5 2479.8-4-2 2 3 8 6 4 2 5 2 6 3 14 4 27 9 9 2 10 3 18 6 8 4 8 3 7 4 10 8 4 5 3 5 2 10-1 6-2 5-3 6-4 6-5 7-14 12-8 7-8 5-18 12-9 5-9 6-9 4-16 8-8 3-6 2-7 1h-4l-4-1-2-8" style="clip-to-self:true;comp-op:src"/>
<path transform="scale(.1)" d="m3833.5 2522-3-3 3 1h5l4-1h4 5l5-1 14-2 9-1 8-1 18-3 18-4 8-3 19-9" style="clip-to-self:true;comp-op:src"/>
<path transform="scale(.1)" d="m4000.7 2447v3l1 5 1 3 1 4v4l1 4 1 5v5l4 11 6 10 3 4 4 4 8 6 10 2h6l5-1 6-2 12-6 12-8 5-6 5-5 4-5 4-6 6-12 1-7 1-6v-6-5-5l-1-4v-3l-2-4-4 4-2 4-1 5-2 6-2 8-3 9-2 10-3 12-1 12-2 13-1 13-1 14-1 15v15 16 17l1 19v18l1 20 3 54v15 29 12l-1 12-1 10-4 18-2 7-6 12-3 4-8 6-15 3-12-2-6-2-14-6-14-8-7-5-7-6-6-6-6-7-5-7-3-7-3-9-1-8-1-9 1-9 2-10 3-11 5-11 5-12 6-12 7-13 9-12 9-11 10-11 11-10 13-10 14-9 15-9 32-16 16-7 36-17" style="clip-to-self:true;comp-op:src"/>
<path transform="scale(.1)" d="m1871.5 3389.8v-10l-1-6-1-7-1-5v-5l-2-8-2-5-4-2-5 2-4 3-5 6-7 8-7 10-8 13-10 14-9 16-20 34-9 18-7 17-7 18-5 16-4 16-3 15-1 13v12l1 11 2 8 3 7 4 6 10 6h6l7-1 8-2 9-4 18-12 9-7 10-8 9-9 8-9 7-9 7-10 6-9 5-8 8-14 2-5 2-3v-3l-2 3-3 3-3 5-3 7-4 7-4 8-2 9-3 8-2 9-1 8v8l2 8 2 7 3 6 4 4 5 4 6 3 7 2h8l8-2 10-2 10-4 9-4 10-6 9-6 8-6 7-7 6-7 5-8 4-7 4-16 1-8-2-16-2-8-2-7-8-12-10-8-6-2-7-1h-6l-8 2-14 4-7 4-6 5-5 5-4 5-3 6-1 5v5l2 5 3 5 4 3 5 3 16 4" style="clip-to-self:true;comp-op:src"/>
<path transform="scale(.1)" d="m2151.7 3420.9h-5l-3 1-4 2-5 2-4 3-5 4-5 5-4 5-5 5-9 18-2 6-1 6v6l1 7 1 6 3 6 3 7 3 6 3 7 4 6 3 6 4 5 3 5 3 6 3 5 2 5 2 4 1 5v4l-1 3-2 4-2 3-3 3-10 6-6 2-6 3-6 2-7 2-8 3-6 1-7 2-7 1h-6-6l-5-1-9-7" style="clip-to-self:true;comp-op:src"/>
<path transform="scale(.1)" d="m2389.8 3360.5 1-5v-4l1-6v-4l-2-8-3-5-4-2h-6l-4 2-5 2-5 4-13 13-8 9-9 10-9 13-20 28-10 15-9 16-8 15-14 32-5 15-3 15-3 14v15 13l3 13 4 11 6 9 7 7 10 6 11 4 12 3 14 2h14l15-1 15-3 39-12" style="clip-to-self:true;comp-op:src"/>
<path transform="scale(.1)" d="m2529.2 3486-1-5v-3-4l1-4 2-3 2-4 3-4 8-8 4-3 5-3 4-3 10-4 4-1h4 4l5 1 3 2 3 4 2 4 1 6v7l-2 8-1 10-8 20-4 11-10 22-6 10-5 10-5 9-4 7-4 5-3 5-2 3 3-5 3-3 4-6 5-5 5-7 6-7 6-8 7-8 6-8 14-18 7-8 6-9 12-14 5-5 4-5 3-4 2-2-2 6-3 5-3 6-5 6-8 16-4 9-4 8-3 9-2 8-2 14 2 12 3 4 3 5 10 6 7 2 8 1h9l10-1 11-2 11-3 29-11" style="clip-to-self:true;comp-op:src"/>
<path transform="scale(.1)" d="m2735.2 3538.1 1 3 5 1h6 4l10-2 7-2 6-2 8-1 7-3 9-1 18-4 9-1 10-2 9-2 8-2 27-9" style="clip-to-self:true;comp-op:src"/>
<path transform="scale(.1)" d="m2931.6 3435.1-3 4-2 3-1 3-1 5-2 5-2 12v6 12 7l1 6 2 6 3 5 4 6 3 4 5 4 5 3 6 2 6 1h7l7-1 8-2 9-3 26-13 9-6 8-6 14-12 5-7 5-6 4-7 6-21v-6-6l-2-8-3-4-4 1-3 2-3 3-2 4-3 5-4 14-1 8-1 9-2 22-1 12-2 26v15l-1 15-1 16v18l-1 17-2 36-2 17-2 16-1 16-2 15-2 13-6 24-3 10-8 18-4 7-4 6-10 10-6 3-10 4-5 1h-5l-4-1-5-1-5-2-4-2-8-8-3-5-3-6-2-6-2-8v-8-9-10l2-10 3-11 3-10 5-12 6-11 6-12 8-12 9-12 18-20 10-9 10-8 10-7 18-14 22-13" style="clip-to-self:true;comp-op:src"/>
<path transform="scale(.1)" d="m3195 3350.6 2-3h5 4l4 2 5 3 5 4 6 4 13 13 5 8 6 10 5 11 5 12 4 13 3 14 3 16 1 16 1 17-1 18-6 38-4 19-5 18-5 17-6 16-6 15-8 13-6 12-7 10-6 8-6 7-6 4-5 3-6 2-4-1-6-6" style="clip-to-self:true;comp-op:src"/>
<path transform="scale(.1)" d="m3473.8 3507.1 3-2 6-3 10-2 6-1 8-1 7-2 10-1 9-2 9-1 10-2 9-2 27-3" style="clip-to-self:true;comp-op:src"/>
<path transform="scale(.1)" d="m3484.3 3581.2-3 4-3 2 3 2h4 4l6-1 7-2 7-1 9-2 10-3 10-2 12-2 13-3 12-2 13-3 12-2 12-3 11-3 25-10" style="clip-to-self:true;comp-op:src"/>
<path transform="scale(.1)" d="m4126.2 3398.9-1-4-1-3-1-4-2-4-2-2-4-2-3-1-4 1-4 2-6 2-5 5-7 6-6 7-7 9-7 11-7 12-7 13-6 14-6 15-5 16-4 16-3 15-2 15-1 15 1 15 1 13 3 12 4 10 5 8 7 6 8 4 9 2 10 1 11-1 11-3 11-4 11-5 10-6 10-7 9-8 16-18 6-9 5-9 3-9 2-9 1-7v-7-5l-2-4-2-3-6-1-3 1-3 2-8 8-2 6-4 14-1 8 2 16 3 8 3 7 5 7 5 6 14 8 8 3 9 2h9 10l11-2 10-3 11-4 10-4 10-5 10-6 7-6 6-6 5-6 4-7 2-14-1-7-3-7-3-8-4-7-5-8-5-7-6-7-7-6-6-5-7-4-8-2-8-1-7 1-8 2-7 3-7 5-6 5-4 6-3 6-2 6v6l1 6 3 5 3 4 5 4 6 2 17 3" style="clip-to-self:true;comp-op:src"/>
<path transform="scale(.1)" d="m4395.9 3450.6-4-2-6-1-6 2-6 4-5 5-3 6v3 4l2 8 2 5 2 4 3 5 4 5 7 10 4 5 4 6 3 6 4 6 3 7 1 6 2 7v6 7l-1 7-2 6-3 5-4 6-5 5-5 4-12 8-6 2-6 3-6 1h-5-5-5l-4-2-3-2-3-4-2-5v-16" style="clip-to-self:true;comp-op:src"/>
<path transform="scale(.1)" d="m4534.3 3489 1-4 1-3 2-3 2-4 3-4 9-9 5-4 6-5 14-10 7-4 8-3 14-4h6l6 1 4 3 5 3 3 5 2 5v7 8l-4 18-4 9-4 10-4 9-6 9-5 9-5 8-4 6-5 6-3 5-3 4-2 3v-4l2-4 3-5 3-6 5-6 4-8 6-7 12-18 7-9 14-20 6-11 7-10 12-20 5-9 5-7 3-5 4-8-2 6-3 5-3 7-4 8-3 10-4 9-6 22-2 11-3 21v11 10l2 10 3 9 4 9 5 7 6 6 16 8 9 2 11 1 11-1 13-1 13-4 14-4 34-16" style="clip-to-self:true;comp-op:src"/>
<path transform="scale(.1)" d="m5068.9 3342.4-2-3-2-5-3-2-5-3-7 2-4 2-9 9-5 7-6 9-5 11-7 13-6 14-7 16-6 16-6 17-6 16-10 34-3 16-3 15-1 14v12l2 11 3 9 3 7 5 5 5 4 6 2 7 2h7l7-2 8-2 8-3 16-10 7-5 7-6 7-7 6-7 5-8 3-7 4-7 4-14 1-6v-9l-1-3-2-4-4 2-3 7-2 4-2 6-2 14v8l1 7 2 8 3 6 3 7 5 6 5 4 6 4 7 3 8 2h8 9l9-1 9-2 11-3 9-3 9-4 8-4 7-5 6-6 4-5 3-6 1-6v-6l-1-6-2-7-4-6-4-7-5-7-5-6-6-5-7-5-7-3-8-2-8-1h-8l-8 2-7 3-8 4-7 5-6 6-10 14-2 7-2 8v7l2 7 4 6 4 5 5 5 7 4 7 3 8 2 9 1 10-1 25-4" style="clip-to-self:true;comp-op:src"/>
<path transform="scale(.1)" d="m5296.9 3477.3 6-10 2-7 1-7v-6-5l-2-4-2-3-4-2-3-1h-4l-5 1-4 2-10 6-3 4-4 5-2 5-2 12 1 6 4 12 8 13 5 6 5 7 6 7 6 8 7 7 6 8 5 8 10 18 3 9 2 9 2 10v9l-2 9-1 7-4 8-4 6-5 6-6 5-7 5-7 3-6 3-7 3-7 1h-5l-6-1-5-1-4-3-4-5-2-6-3-18" style="clip-to-self:true;comp-op:src"/>
<path transform="scale(.1)" d="m5488.5 3398.9-1-3-1-5-3-4-4-1-2 2-3 2-4 3-5 4-4 6-6 7-5 7-7 9-6 11-7 11-7 12-14 26-7 14-6 14-5 15-5 14-3 15-1 14v14l2 14 3 13 5 11 7 10 8 7 10 6 10 3 12 2h12l14-3 13-4 15-4 35-15" style="clip-to-self:true;comp-op:src"/>
<path transform="scale(.1)" d="m5512.5 3493.7 5 1 3 1h15l14-2 18-2 9-2 10-1 18-4 10-2 8-3 9-2 20-8" style="clip-to-self:true;comp-op:src"/>
<path transform="scale(.1)" d="m5727.5 3399.7-3 1-5 3-2 2-2 3-6 15-2 6-1 7v6 7l1 7 1 6 2 6 3 6 6 10 5 4 4 3 6 2 6 1h7l7-1 7-2 7-3 14-8 5-5 6-5 4-6 3-6 6-14 1-6 1-7v-6-6-5-7l-1-4-2 5v4l-1 6v7l-1 8v9 92l-1 13v14 14l-1 13-4 28-1 12-3 12-3 11-4 10-3 9-5 9-4 7-5 6-11 11-7 4-14 6-7 1h-7-7l-8-1-6-3-7-3-6-4-7-5-5-6-6-7-5-8-4-9-7-24" style="clip-to-self:true;comp-op:src"/>
<path transform="scale(.1)" d="m5875.5 3344.6 2-3 3-2 8-4 6-2h6 8 7l9 2 9 1 9 2 9 3 9 4 9 5 8 7 7 8 7 10 5 12 5 13 2 14 3 15 1 16-2 34-2 17-3 18-15 54-6 17-7 16-6 15-8 14-8 12-7 12-9 9-8 9-16 14-16 10-7 3-7 2-6 2h-7l-5-2-7-7" style="clip-to-self:true;comp-op:src"/>
<path transform="scale(.1)" d="m6124.2 3529.5h4 6 4l6-1 7-1 8-1 20-4 12-2 13-3 14-3 13-2 14-2 13-2 13-1 11-1h27l7 1 5 1h5l4 1 3 1" style="clip-to-self:true;comp-op:src"/>
<path transform="scale(.1)" d="m6587.4 3418.7 2-7 3-6 3-8 4-18 4-16 1-9v-8-8l-1-8-1-7-3-7-3-6-4-4-5-4-6-2h-7-7l-7 2-9 3-16 8-8 6-9 7-14 16-6 10-4 10-3 10-1 9v10l3 10 3 9 5 8 6 8 8 8 18 14 10 7 11 6 10 6 11 7 11 5 10 6 9 6 8 6 6 6 5 6 3 6 2 6 1 6-2 6-2 5-5 6-5 5-7 5-7 4-8 5-9 3-9 4-9 2-8 3-9 1-8 1h-7l-6-1-6-2-4-2-3-2-3-3-1-4v-5l2-5 2-6 4-7 5-7 16-20" style="clip-to-self:true;comp-op:src"/>
<path transform="scale(.1)" d="m6691.8 3422.1-2 4-1 3-2 4-1 4-2 4-1 4-2 10v10 5l1 4 3 15 1 6 1 5 2 5 1 6 6 18 4 10 1 5 2 4v3" style="clip-to-self:true;comp-op:src"/>
<path transform="scale(.1)" d="m6737.3 3419.6 4 1 3 3" style="clip-to-self:true;comp-op:src"/>
<path transform="scale(.1)" d="m6779 3438.6 3-1 4 8 2 5 1 5 2 6 4 14 2 8 1 8 4 36v10l1 9v8 8 20-9l1-5 1-6 2-14 1-8 6-27 4-11 4-10 4-11 12-18 6-8 6-7 7-5 6-4 6-3 6-2h6l6 1 5 2 8 8 3 5 4 14 1 8v9l-1 10-2 9-1 10-3 11-6 20-6 16-2 6-3 12" style="clip-to-self:true;comp-op:src"/>
<path transform="scale(.1)" d="m7052.5 3479.1-1-4 1-5 1-2 3-3 4-3 5-2 5-3 6-3 12-4 7-1 6-1h12l5 1 5 2 4 3 4 4 1 4 2 5v6l-1 6-1 7-2 6-3 8-4 7-3 7-4 7-4 6-3 6-4 5-3 4-4 6-3 1v-4l4-6 8-10 5-6 14-12 7-8 16-16 7-8 16-18 7-10 6-9 6-10 5-9 4-7 3-6 3-9v-3l-4 3-2 3-9 9-4 7-5 7-5 9-6 9-5 9-5 10-5 11-8 20-3 11-2 10-2 18 1 8 2 7 3 7 5 5 7 4 8 4 10 2 11 2h12 12l13-1 13-2 12-3 30-11" style="clip-to-self:true;comp-op:src"/>
<path transform="scale(.1)" d="m7593.8 3357.1-1-7v-7l-4-36-2-8-1-7-2-7-5-10-4-3-4-2-5-2-5 1-6 1-5 2-7 4-12 10-7 7-5 7-7 8-5 9-5 10-4 9-2 11-2 10v9l1 10 3 9 4 9 5 8 7 9 23 23 9 8 8 8 7 8 7 9 6 9 4 8 3 9 1 8 1 9-1 8-6 16-4 8-5 6-6 7-12 12-6 4-7 4-6 3-12 2-5 1-4-1-4-2-2-2-2-4-2-5v-5-7l6-19" style="clip-to-self:true;comp-op:src"/>
<path transform="scale(.1)" d="m7650.3 3433.4v16 6 41 8l1 7v6l2 14 1 6 1 7 1 6 1 5v5l1 3" style="clip-to-self:true;comp-op:src"/>
<path transform="scale(.1)" d="m7679 3406.6 3 3 5 3 7 6" style="clip-to-self:true;comp-op:src"/>
<path transform="scale(.1)" d="m7764.3 3478.6v3l-1 4v3l-1 3v17l1 5v5 4l1 6v4l1 5v4l1 3 1 4 1 3v-28l1-6 2-14 3-8 4-8 4-9 5-9 7-9 15-15 8-5 7-5 8-4 14-2 14 2 5 4 6 4 5 5 4 6 3 8 2 8 1 9-1 10-1 9-2 10-8 20-4 11-5 9-4 9-5 9-3 7-2 6-2 4-1 4 6-8" style="clip-to-self:true;comp-op:src"/>
<path transform="scale(.1)" d="m8018.2 3332.1-3-3-4-3-5 1-3 2-4 3-3 4-4 5-4 6-5 8-10 20-5 12-4 12-4 14-4 13-3 14-4 28v14 13l2 13 3 12 4 11 6 11 8 8 8 7 10 5 12 3 12 1 14-1 35-7" style="clip-to-self:true;comp-op:src"/>
<path transform="scale(.1)" d="m8103.4 3422.6h-3l-3-1 5 1h3 5 13 8l8-1 10-1 9-1 10-2 9-2 24-5" style="clip-to-self:true;comp-op:src"/>
<path transform="scale(.1)" d="m8300.3 3347.6-2-3-2-2-3 2v6 3l-1 5v63l1 9v8l2 8 1 7 2 7 3 5 3 4 3 3 8 2h4l4-1 5-2 4-3 8-8 4-5 3-6 4-6 2-7 3-7 2-6 2-7 2-6 1-5 1-4 1-3 1-4 1 6 1 3v6 6l1 7v8l1 9v9 20l1 11v21l-1 12v11 12l-1 11-1 12-2 12-2 11-2 10-3 10-3 9-8 14-5 7-4 5-6 5-12 6-6 2-6 1h-6l-5-1-10-4-4-3-5-4-4-6-3-6-8-19" style="clip-to-self:true;comp-op:src"/>
<path transform="scale(.1)" d="m8437.3 3295.8 3-3 5-1h3l5 2 4 1 7 3 6 4 7 5 7 6 14 14 7 10 7 11 7 13 12 30 5 16 3 17 2 17 1 18-1 17-3 18-4 18-12 34-8 17-9 15-9 14-10 13-11 12-11 9-11 10-22 14-12 5-10 4-26 5" style="clip-to-self:true;comp-op:src"/>
</g>
<path d="m498.84 379.07h107.07" stroke="#ff0" stroke-width="1.41" style="clip-to-self:true;comp-op:src"/>
<path d="m748.12 377.74h105.91" stroke="#00c0ff" stroke-width="1.41" style="clip-to-self:true;comp-op:src"/>
<g stroke="#fff" stroke-width="14.1">
<path transform="scale(.1)" d="m1781.9 4402.5-1-4v-3l-1-5v-4l-1-3-3-5-4-1h-4l-6 4-3 3-3 5-5 7-4 10-5 11-6 14-5 15-6 17-5 18-5 19-3 18-4 19-2 17-1 17v16l1 15 2 13 4 10 5 9 6 6 6 4 8 2h9l18-6 20-12 11-9 20-20 11-12 9-12 18-26 7-12 7-13 5-11 4-11 3-10 3-7v-6-3l-3-1-7 7-4 7-5 7-10 18-4 10-6 20-2 11v10l2 18 3 7 4 7 5 5 6 4 7 2h8l10-2 10-3 11-4 11-5 12-7 12-6 11-8 10-8 10-9 8-9 6-9 5-10 4-10 2-9v-11l-1-11-1-10-3-10-5-8-4-7-7-5-6-3-8-1-9 1-10 3-10 5-10 6-11 8-10 9-10 11-9 10-8 10-5 9-4 9-2 8v6l1 5 12 5" style="clip-to-self:true;comp-op:src"/>
<path transform="scale(.1)" d="m2087.5 4411.6v-3-3-4l-2-3-2-2-4-1h-4-5l-10 4-12 6-6 5-5 4-5 6-5 7-4 7-3 7-1 7-1 8 1 7 2 7 3 6 5 6 5 4 7 5 7 4 15 6 7 4 7 3 7 4 6 4 5 4 4 4 4 10v5l-1 5-3 6-4 5-5 6-6 5-8 4-7 5-8 5-8 4-16 6-7 2-7 1-6 1h-5l-5-1-4-2-3-3-5-10" style="clip-to-self:true;comp-op:src"/>
<path transform="scale(.1)" d="m2310.7 4397.3 3-6 2-7 4-9 9-24 2-6 3-6 1-5 1-3v-3h-5l-3 3-6 3-6 6-7 8-9 10-9 11-10 13-11 14-11 17-22 36-10 19-9 19-8 19-6 18-5 19-5 17-2 17-1 15v14l2 13 4 11 5 10 6 7 8 6 9 5 11 3 12 1h14l16-2 16-4 16-6 39-19" style="clip-to-self:true;comp-op:src"/>
<path transform="scale(.1)" d="m2420 4439.1v-5l2-4 5-5 8-6 6-3 5-3 7-4 7-3 15-6 14-4h6 6l5 1 4 2 3 4 2 6 1 6v8l-2 9-4 20-3 12-4 10-4 11-4 10-4 9-6 14-3 4-2 4-2 5 2-3 3-3 3-5 5-5 12-16 8-9 7-11 8-11 8-10 9-12 8-10 7-10 8-10 6-9 6-7 4-7 4-5 2-4 3-3-5 4-3 5-4 6-5 7-6 8-5 10-6 10-5 12-5 11-3 12-4 11-2 10-1 10 1 8 1 7 3 6 3 5 5 4 6 3 7 1 8 1 9-1 22-4 11-5 12-4 13-6 31-17" style="clip-to-self:true;comp-op:src"/>
<path transform="scale(.1)" d="m2731.3 4469.8h13l4-1h5 6l6-1 7-1 9-2 8-1 17-3 9-2 8-1 14-2h6 5 17-5" style="clip-to-self:true;comp-op:src"/>
<path transform="scale(.1)" d="m3005.3 4362-3-2-2-1-2 3-1 3v4 5l-1 5v6l-1 7-1 8v9l-1 9v9l2 20 1 11 2 10 3 9 3 8 4 7 4 5 5 4 6 3 6 2h6l7-1 7-2 7-3 7-4 14-10 12-14 10-16 5-9 3-8 9-27 1-8 2-7 1-6v-5-8l-2 3-1 4-1 5-2 7-1 9-2 10-2 13-1 14-2 15-1 16-1 17-2 36v19 19 19l1 20 1 19v19l1 18 1 17 1 16 1 14v24l-1 9-1 8-2 6-2 5-8 6-4 1-6 1h-5l-7-1-6-2-14-6-7-5-8-5-7-7-8-7-7-8-6-9-5-10-4-11-3-11-2-12-1-12 1-13 2-13 3-13 5-13 7-13 7-14 8-13 9-13 20-26 10-12 11-12 26-28" style="clip-to-self:true;comp-op:src"/>
<path transform="scale(.1)" d="m3230.5 4321.9v-4l1-3v-3l1-5 4-1 5 1 3 2 4 3 4 5 3 6 3 7 4 8 2 11 3 11 3 14 2 14 2 17 1 19v20 21 22l-1 21-3 20-2 20-4 18-3 17-4 15-4 14-4 12-4 10-4 8-4 7-4 6-4 4-3 2-3 1-4-1-1-3 2-13" style="clip-to-self:true;comp-op:src"/>
<path transform="scale(.1)" d="m3476.7 4423.2 3-5 4-3 3-1 5-2 12-2 7-1 8-1 7-2h9l8-1 7-1h15l6 1 5 1 4 1 4 5" style="clip-to-self:true;comp-op:src"/>
<path transform="scale(.1)" d="m3489.1 4517.2-3 3-3 1 5 1h4l5-1 6-1 7-2 8-2 9-2 10-3 11-3 12-2 12-3 24-4 12-3 12-1 11-2 9-2 10-2 18-6" style="clip-to-self:true;comp-op:src"/>
<path transform="scale(.1)" d="m4108.9 4405.9v-6l1-6 1-8v-8-15-7l-1-6-2-5-1-5-2-4-8-8h-4-4l-4 2-5 4-6 6-6 8-7 11-7 13-7 16-7 18-6 19-6 20-4 21-3 21-3 20-1 18 1 16 1 15 4 13 4 11 6 9 7 7 8 5 9 3 10 2 11-2 12-2 12-5 13-5 12-8 11-8 11-9 9-10 8-11 7-11 5-11 5-12 3-13 2-12v-11l1-11-1-9v-7l-1-5-2-4-5-2-5 3-2 5-3 5-3 7-2 8-1 9-2 10v9l-1 10 2 18 2 8 1 8 3 7 3 6 4 5 4 4 5 3 5 2 6 1h5l6-1 5-2 6-3 4-3 4-4 4-5 2-5 2-6v-6-7l-4-14-4-8-3-8-4-9-8-16-4-7-5-6-3-5-5-4-4-1h-3l-4 1-4 3-4 4-8 13" style="clip-to-self:true;comp-op:src"/>
<path transform="scale(.1)" d="m4351.3 4437.4-3-4-3-3-5-2-8-4h-5-4-5l-5 1-10 4-8 6-3 4-2 4-2 5v4l1 6 2 5 4 6 4 5 5 5 6 5 7 5 7 4 7 5 8 4 8 5 6 5 7 4 6 4 9 9 3 5 2 8-2 5-2 4-9 9-14 8-8 3-18 6-18 4h-8-9-7l-7-1-6-3-12-9" style="clip-to-self:true;comp-op:src"/>
<path transform="scale(.1)" d="m4532.9 4452.1 1-3 1-4 2-5 9-15 10-8 6-4 6-3 7-3 6-2 7-2 6-1 12 2 5 3 5 4 4 6 2 7 3 8 1 9v11 11l-2 11-2 12-6 22-4 10-3 9-4 8-4 7-6 10-3 3-3 2h-3l-3-3v-3l2-10 2-7 3-9 4-9 5-11 6-12 5-12 21-39 7-14 7-12 8-12 6-10 7-9 4-7 5-7 3-3 2-3-1 6-2 5-3 7-4 8-4 9-4 11-5 12-3 13-4 13-4 14-3 15-3 13-3 14-2 24v11l1 9 2 7 4 7 4 5 6 4 6 3 9 3 8 1 10 1 10-1 11-1 10-1 10-2 23-6" style="clip-to-self:true;comp-op:src"/>
<path transform="scale(.1)" d="m5005.7 4362.9-1-4-1-3-2-4-4-6-4-3-4 1-4 4-2 4-3 5-3 6-2 8-4 10-3 10-3 12-4 28-2 15-1 15v15l1 14 1 12 2 12 3 10 4 9 5 7 5 6 12 6 7 1 7-1 7-2 16-6 7-4 8-6 7-5 6-6 10-14 4-7 3-6 4-14 1-7v-6l1-4 1-8-1 4v22l1 7v8l1 8 4 16 2 7 3 7 6 12 4 4 5 4 5 3 6 1h7 6l7-1 8-3 7-3 14-10 6-6 5-6 4-7 2-6 2-8-1-8-1-9-2-9-4-9-5-9-5-10-5-9-6-8-6-7-5-6-6-5-6-3-6-1h-5l-7 1-5 4-6 5-5 5-4 7-4 8-2 8-1 8v8l1 8 2 6 3 6 10 10" style="clip-to-self:true;comp-op:src"/>
<path transform="scale(.1)" d="m5277.3 4424.9 3-6 3-4 2-6 1-6v-4-4l-4-5h-3l-4-1-3 1-10 4-5 3-10 10-4 6-4 7-3 7-2 7-1 7v8l2 7 6 12 5 6 6 5 7 5 6 6 8 4 14 10 8 5 6 5 6 4 5 5 4 5 2 4 2 5v4l-4 8-5 5-5 4-8 4-7 4-9 4-20 6-18 5-8 1h-8-7l-6-1-6-3-9-7" style="clip-to-self:true;comp-op:src"/>
<path transform="scale(.1)" d="m5497.6 4393 2-12 1-8 1-7v-6-5l-1-3-2-4h-5l-3 2-3 3-4 5-4 6-4 7-3 8-3 9-2 10-1 10v10 11l4 22 2 10 4 9 4 8 5 7 6 5 7 4 8 3 9 1 10-1 10-2 22-8 10-6 10-7 18-16 7-9 8-10 12-20 5-10 5-9 5-8 3-7 2-6 2-4 3-4 2 5 1 5 1 6 2 7 1 10 2 10 2 12 2 13 2 14 6 30 2 16 6 32 3 17 6 48 1 17 2 16v16 16l-1 15-2 14-2 13-3 13-4 12-6 10-6 9-7 9-8 8-8 7-9 6-18 8-10 2h-9-9l-8-2-8-3-6-4-6-5-5-6-6-14-1-8v-8l1-9 6-20 4-11 12-22 8-11 9-11 9-12 20-22 11-10 12-11 11-10 12-10 11-10 29-22" style="clip-to-self:true;comp-op:src"/>
<path transform="scale(.1)" d="m5888 4443.4h-15l-4 1 2 3 6 2 5 2 6 1h8 19 11l13-1 13-2 14-1 14-2 15-3 16-3 14-2 15-2 28-4 12-1 11-1 9-1h8 8 5l5 1h3l5 1-5 3h-6l-4 1h-8l-4-1h-3l-4-2-3-2-8-7" style="clip-to-self:true;comp-op:src"/>
<path transform="scale(.1)" d="m6020.7 4313.2-2-6-1 4v14 5l2 14v8l1 10 1 12 1 13 1 14 1 16v17l4 72 2 34 2 30 1 14 2 24 1 10 1 9 2 14 1 6 1 4v3l2 4 3-2v-3l1-4v-5l3-16" style="clip-to-self:true;comp-op:src"/>
<path transform="scale(.1)" d="m6498.3 4361.6 2-6 2-7 2-14-2-12-2-5-2-3-3-4-3-2-10-2-6-1-6 1-8 2-7 2-9 3-9 4-8 4-9 6-8 6-8 7-7 8-6 8-8 18-3 10-1 10 1 10 2 10 4 10 5 10 6 10 7 10 9 9 11 9 11 8 12 9 12 8 11 8 12 8 11 8 9 8 8 8 7 9 6 9 5 8 4 16-1 7-1 6-2 6-3 6-5 4-4 5-6 4-6 2-7 3-6 1-14 2-12-2-6-2-4-2-4-4-3-5-1-7 1-20" style="clip-to-self:true;comp-op:src"/>
<path transform="scale(.1)" d="m6587.9 4444.3 2 3 1 3 2 4v5 6 6l-1 7v23l1 8v7l1 7 1 8 1 6v7l1 6 1 7 2 12 1 5 1 6 1 4v3l2 5-2-6" style="clip-to-self:true;comp-op:src"/>
<path transform="scale(.1)" d="m6622.8 4449.9 4 3 2 3 14 14 3 2 7 6" style="clip-to-self:true;comp-op:src"/>
<path transform="scale(.1)" d="m6704.7 4522.3 1 5 1 3 1 4 1 3v5l1 4v4 4l1 4v4 3 5l1 4v3l-3-4-1-5-1-4v-5-4l2-12 1-7 3-7 4-8 5-8 12-18 8-8 8-9 8-7 9-7 10-5 9-4 8-3 8-2h8l8 1 6 3 6 4 6 5 4 6 3 7 3 8 4 16v9 9l-1 10-1 9-2 9-2 8-3 8-3 7-2 6-2 5-2 3-3 4" style="clip-to-self:true;comp-op:src"/>
<path transform="scale(.1)" d="m6972.5 4496.5-4-2-3-3v-3l1-3 6-8 4-5 5-5 6-5 14-10 7-4 8-4 7-3 8-2 7-1h7l6 1 6 3 5 3 3 5 3 6 1 7 1 8-1 9-1 10-3 9-2 10-3 9-4 10-4 8-6 14-5 10-4 6v-4l2-4 2-5 4-7 5-7 5-8 6-10 6-9 8-11 7-11 8-12 14-25 7-13 6-11 5-11 6-9 4-7 2-5 2-4-4 2-2 4-4 6-4 7-3 8-4 9-4 10-3 11-4 24-2 11v11l1 10 2 10 4 10 5 9 7 8 8 6 9 6 10 5 12 4 12 2 13 1 13-1 13-2 33-10" style="clip-to-self:true;comp-op:src"/>
<path transform="scale(.1)" d="m7520.5 4342.6 6-16 3-10 1-11 1-10v-9-9l-1-8-2-7-3-7-6-10-4-3-5-3-5-2-6-1-14 2-7 2-7 4-8 4-13 13-6 7-10 18-3 10-2 10v10l1 11 2 9 4 9 5 9 7 9 7 8 8 8 20 16 11 7 10 9 20 16 9 9 7 10 7 9 5 9 3 9 2 8v8l-2 8-3 8-5 7-6 6-8 6-9 6-9 4-10 4-9 3-10 2-9 2h-8-6l-6-2-4-3-3-4v-6l1-7 9-21" style="clip-to-self:true;comp-op:src"/>
<path transform="scale(.1)" d="m7666.1 4417.6v4l-1 3v4l-1 5-3 18-2 14v6l-2 12v6 6 23 5 4l1 3v4" style="clip-to-self:true;comp-op:src"/>
<path transform="scale(.1)" d="m7686.7 4368.4h3l4 1 7 2" style="clip-to-self:true;comp-op:src"/>
<path transform="scale(.1)" d="m7772 4427.9 3 3 2 6 1 4 2 10 1 6 1 7v6 6l1 6v7l-1 6v7 6 5l-1 5-1 3-1 4h-3l-3-5v-4l-1-5 1-5 1-7 2-7 3-8 4-9 5-10 6-10 7-10 16-18 9-8 8-6 16-8 8-3h6 7l5 1 5 3 4 4 3 6 3 7 2 16v10l-1 10-2 22-1 10-2 18-1 6v6l5 8" style="clip-to-self:true;comp-op:src"/>
<path transform="scale(.1)" d="m8023.4 4350.4 2 6 1 4 1 5 2 12 2 7 2 6 1 7 2 7 2 8 9 21 5 7 4 6 6 6 6 4 7 3 7 1h8l7-1 7-3 8-4 7-5 6-6 7-6 6-7 10-16 4-9 6-18 4-18 2-16 1-7v-5l2-6 1 4v4l1 5 1 6 1 9v9l1 11 2 12 4 28 4 32 2 17 3 17 2 17 6 54 2 36v19l-3 57-4 38-3 17-3 18-3 16-3 15-3 13-4 13-3 10-4 9-4 8-4 5-5 4-5 2-6 1h-6l-8-1-14-6-9-3-16-10-8-7-9-6-7-8-7-9-5-9-6-9-4-9-6-18-2-16 1-9 1-8 2-9 5-9 5-10 8-10 8-11 10-12 12-11 12-12 13-12 14-10 13-11 15-9 13-9 14-8 12-6 11-6 9-6 16-11" style="clip-to-self:true;comp-op:src"/>
</g>
<path d="m492.62 479.91h87.707" stroke="#ff0" stroke-width="1.41" style="clip-to-self:true;comp-op:src"/>
<path d="m746.01 474.78 78.941-3.707" stroke="#00c0ff" stroke-width="1.41" style="clip-to-self:true;comp-op:src"/>
<path transform="scale(.1)" d="m1464.9 1266v688h6517v-688h-6517" stroke="#00c0ff" stroke-width="14.1" style="clip-to-self:true;comp-op:src"/>
</g>
</g>
</svg>
