<?xml version="1.0" encoding="UTF-8"?>
<svg width="1e3pt" height="1200pt" version="1.2" viewBox="0 0 1e3 1200" xmlns="http://www.w3.org/2000/svg">
<g id="surface35">
<rect width="1e3" height="1200" fill="#2e3436"/>
<g fill="none" stroke-linecap="round" stroke-linejoin="round" stroke-miterlimit="10">
<g stroke="#fff">
<g stroke-width="14.1">
<path transform="scale(.1)" d="m3799 545.39 1-9 2-6 2-7 3-6 8-12 12-12 14-12 8-5 9-5 16-8 9-3 8-2h7 7l7 2 5 2 5 5 4 5 4 8 2 9 1 10 1 11-2 24-2 13-8 26-6 14-6 13-16 26-9 11-9 12-9 10-19 19-9 8-9 6-8 6-7 6-8 4-6 5-5 3-12 9 6 1 10-2 7-1 9-1 10-2 22-4 12-2 12-1 12-2 12-1 11-1 10-1h10l8-1h25l8-1" style="clip-to-self:true;comp-op:src"/>
<path transform="scale(.1)" d="m3986.8 588.05-2-5-1-6v-4l1-3 1-4 1-3 2-4 2-3 3-4 4-4 4-3 5-4 5-3 6-2 5-2 6-1h7l5 1 6 2 5 3 4 3 4 6 2 5 2 7 1 7 1 9-2 18-2 10-3 9-3 10-4 9-3 9-5 8-8 14-4 6-4 5-4 4-4 3-3 3-3 1-5 1-3-4 2-6 2-4 4-5 4-6 12-14 8-8 9-8 18-18 10-9 8-9 10-9 8-9 8-8 7-8 6-6 6-5 4-3 3-2 2 2-2 6-3 5-8 12-4 7-10 14-10 16-4 8-4 7-3 8-3 7-1 6-1 7 1 6 1 5 2 5 3 4 5 4 4 3 6 3 7 2 7 1 16 2h8 8l7-1 18-6" style="clip-to-self:true;comp-op:src"/>
<path transform="scale(.1)" d="m4444.9 497.23v-15l-1-6v-5l-1-5v-4l-1-4-1-5-3 3-1 4-1 7-2 8-2 10-4 12-3 13-4 16-4 17-4 18-4 19-5 20-4 20-4 19-5 19-3 18-4 16-3 15-3 14-2 11-2 9-1 8v5l-1 5v4-4l1-4v-6l1-7v-9-10l1-11v-12l1-14v-13l2-32 2-18 2-20 4-20 3-21 6-21 5-21 12-38 6-17 7-16 6-14 7-12 7-11 7-8 7-7 7-5 8-5 7-2 8-2h8l7 1 7 2 6 4 6 5 5 7 4 8 3 9 2 11 1 11 1 13-1 13-2 14-1 13-4 14-3 14-5 14-6 14-6 13-14 24-8 10-8 9-8 7-8 6-7 5-8 3-14 4h-6-5l-10-2-3-2-4-3-2-2-2-3-1-3v-4-3l2-4 1-3 3-3 6-4 5-2 4-1h5l6 1 5 2 5 3 6 4 6 5 6 6 5 6 6 8 5 8 6 9 5 9 6 9 10 18 5 8 5 9 5 8 6 7 5 7 4 6 5 5 4 3 5 3 8 4 4 1h4l8-3" style="clip-to-self:true;comp-op:src"/>
<path transform="scale(.1)" d="m4615.7 678.87-4 8v5 3l1 4 3 2 4 1 7-2 4-1 10-5 5-2 5-4 18-12 5-5 5-4 5-5 4-5 2-5 3-4 2-8-2-5-5-3h-4l-5 2-6 2-6 4-7 4-7 6-8 6-7 8-8 9-7 8-6 10-5 9-5 10-4 10-4 18v8l1 8 2 8 3 6 4 6 5 4 6 2 7 2h8l9-1 10-2 11-4 11-5 28-17" style="clip-to-self:true;comp-op:src"/>
<path transform="scale(.1)" d="m4861.2 448.63v-6l-1-5-2-3-4 8-2 6-3 8-2 9-4 12-3 13-5 16-4 18-4 20-8 44-3 24-4 22-3 21-2 20-2 18v16 13l2 12 4 9 3 7 5 5 7 4 7 1 8 1 8-2 9-2 10-4 20-10 10-7 10-8 9-8 21-24" style="clip-to-self:true;comp-op:src"/>
<path transform="scale(.1)" d="m4988 602.42-3-1-5-1h-6l-4 1-3 1-4 3-4 2-17 17-8 12-4 7-8 16-7 17-4 18-1 8v15l1 7 4 10 3 4 3 3 4 1 5 1 10-2 6-3 6-4 6-5 12-12 10-14 10-16 4-8 3-9 3-8 4-14 2-10 1-3-3 4-2 5-1 6-2 6-2 8-1 9-1 8v9 9 9l4 16 3 7 4 6 4 5 6 4 6 3 8 1h8l9-1 10-2 10-3 11-5 10-6 10-7 24-21" style="clip-to-self:true;comp-op:src"/>
<path transform="scale(.1)" d="m5199.6 404.73-1-6-1-3-2-3-2 5-1 2v5l-2 5-2 14-2 9-1 10-2 10-3 13-2 13-2 14-2 16-3 17-4 38-2 20-1 20-1 19-1 17v17 15 13l1 12 1 9 2 8 5 10 3 3 3 2 5-2 3-3 1-4 5-13" style="clip-to-self:true;comp-op:src"/>
<path transform="scale(.1)" d="m5077.6 642.97-3-2-3-3v-3l7-7 5-3 6-4 7-4 8-4 9-5 9-4 20-10 22-8 12-5 22-8 10-4 10-3 10-2 8-1h7 6l5 1 3 2 3 4 2 5v5 8 8l-1 8-1 10-4 20-3 22-4 22-2 10-2 20v9 8 8l1 7 2 10 2 4 4 3 5-1 3-2 3-4 7-13" style="clip-to-self:true;comp-op:src"/>
<path transform="scale(.1)" d="m5301.5 508.63v-4l1-3 3 3-1 5-1 7-1 3-1 4v4l-2 12" style="clip-to-self:true;comp-op:src"/>
<path transform="scale(.1)" d="m5351.7 591.84-3 2-5 5-8 16-3 7-3 8-7 18-3 9-3 10-4 20-1 10v10 10l2 10 2 8 3 9 4 6 10 8 7 2 7 1h7l8-1 7-2 8-4 7-4 8-5 6-5 6-7 5-6 5-8 6-16 2-18-1-10-1-9-2-10-3-9-4-9-4-8-5-8-6-8-5-7-6-5-7-5-6-3-5-3-10-2-8 2-2 2-3 5 2 5 2 2 11 5" style="clip-to-self:true;comp-op:src"/>
<path transform="scale(.1)" d="m5480.8 616.76-2 6-1 6-1 3v5l-1 4-1 6-1 5-1 7-1 6v8l-2 16v8 38 5 4l1 5 2-3 1-3 4-10 2-7 3-8 2-8 4-10 4-9 4-10 4-11 5-11 6-11 14-22 8-11 9-10 8-9 8-7 8-5 7-4 6-2h6l6 1 4 2 8 10 3 7 1 8 2 8 2 20v10 11l1 10v21 10l1 9 2 9 1 6 2 6 3 4 3 3 4 1h4l10-4 5-4 14-14" style="clip-to-self:true;comp-op:src"/>
<path transform="scale(.1)" d="m5758.2 589.3 2-3 2-5 4-8 5-9 3-8 1-7 1-5-1-4-4-3h-3-4l-5 2-5 3-12 8-6 6-5 6-6 7-5 7-4 7-2 8-2 7v7 7l2 6 3 6 4 6 10 12 7 5 8 6 8 5 8 6 9 5 9 6 9 5 8 5 7 6 6 6 5 6 6 12 1 7-1 6-2 6-3 6-4 6-5 4-7 5-7 4-16 6-8 2-7 1h-8-8l-8-2-6-3-14-11" style="clip-to-self:true;comp-op:src"/>
</g>
<path d="m374.46 90.359h215.42" stroke-width="1.41" style="clip-to-self:true;comp-op:src"/>
<g stroke-width="14.1">
<path transform="scale(.1)" d="m1075.7 1739.4-1-5-1-3-3-4-4-3-5-1h-6l-6 2-3 2-4 3-9 9-4 6-5 9-10 20-5 13-4 13-4 14-6 28-1 15-2 16v16 16l2 28 2 12 3 10 4 8 4 7 5 4 6 4 7 1h7l8-1 7-2 8-5 9-5 8-7 16-18 8-10 7-11 6-12 6-11 4-13 5-12 6-24 2-11 2-9 1-8 1-7v-4l-1-4-3 3-1 4-3 6-2 7-3 8-2 10-3 10-1 11-1 12-1 11v12l1 12 1 10 2 10 3 10 3 8 8 12 5 4 5 2 6 1 7-1 7-2 7-4 8-5 7-6 8-7 14-18 6-10 5-10 5-11 4-11 2-10 2-12v-10-12-11l-1-10-2-10-2-8-2-7-4-5-4-4-4-3h-4-6l-5 2-12 8-5 5-10 14-4 8-6 16-1 7-1 8 1 7 1 5 2 6 3 4 3 3 4 2 11 2" style="clip-to-self:true;comp-op:src"/>
<path transform="scale(.1)" d="m1323.1 1790.9 3-4 3-3 3-4 1-4-1-4-3-3-6 1-4 2-10 4-15 9-4 5-8 8-2 4-2 5v4 5l1 4 2 5 13 13 5 4 6 5 7 4 14 9 6 5 14 10 15 15 3 6 2 5 1 6 1 5-1 5-2 5-6 10-4 5-5 4-6 5-5 3-13 5-12 2-5 1-6-1-4-2-5-3-3-3-3-5-4-15" style="clip-to-self:true;comp-op:src"/>
<path transform="scale(.1)" d="m1562.5 1710.7v-4l-1-6-2-4-5-5-3-2-4-1h-4-4l-5 2-6 2-5 4-7 5-6 7-6 8-7 9-6 10-7 13-6 14-7 14-6 16-6 17-5 16-4 16-4 17-3 16-2 17-1 18v17l1 17 2 15 3 13 4 10 4 7 7 6 7 3h7 9l9-4 9-5 10-7 29-22" style="clip-to-self:true;comp-op:src"/>
<path transform="scale(.1)" d="m1637.1 1810-2-3-3-5 1-5 2-2 2-3 3-3 8-6 6-3 10-6 6-2 6-3 6-1 5-2h6 5 5l4 1 3 2 3 4 1 4v5 6l-4 16-3 8-5 9-4 9-12 18-5 8-12 16-10 14-4 5-6 8-2 3-2 4 1 3 4 1h8l5-1 6-1 14-2 7-2 16-4 9-2 8-2 7-2 8-2 18-6 5-2 4-3 9-7" style="clip-to-self:true;comp-op:src"/>
<path transform="scale(.1)" d="m1781.2 1784.2 3-4 4-6 3-2 3-3 4-1 4-2 5-2h5l4-1 5-1h4l5 1 3 1 4 1 3 2 3 3 2 3 2 4 1 5v6 7l-1 7-1 8-9 24-4 8-6 14-4 5-2 5-2 4-3 4 2-3 4-8 4-5 4-6 5-6 5-7 6-7 6-9 12-16 6-10 6-9 5-8 5-9 5-7 3-7 4-5 2-4 1-3-4 4-2 3-4 5-3 5-8 14-4 8-3 9-4 9-3 8-4 16-1 8v7 7l1 5 3 6 3 4 5 3 6 2 7 2h8 9l9-2 10-2 10-3 9-4 22-11" style="clip-to-self:true;comp-op:src"/>
<path transform="scale(.1)" d="m1976.9 1664.6 2-3 4-1 8 1 4 1 5 2 12 6 7 4 6 5 7 6 6 7 7 8 6 9 6 10 5 11 5 13 4 13 3 14 2 14 1 16v16l-1 15-6 32-4 15-10 30-6 15-6 13-7 13-8 11-7 10-7 7-8 6-7 5-8 4-14 4-7 1-6-1-6-2-5-3-7-12" style="clip-to-self:true;comp-op:src"/>
<path transform="scale(.1)" d="m2202.2 1812.5 2-2 1-3 4-2 3-1h3l5-1 4-1 5-1 7-1 6-1h7l8-1h8 7l7 1h6l5 1h3l5 2" style="clip-to-self:true;comp-op:src"/>
<path transform="scale(.1)" d="m2190 1864.5-3 3-2 3 5 2 6 2h17l7-1 8-1 9-1 10-1 11-1 12-1 24-4 11-1 20-4 7-2 14-5" style="clip-to-self:true;comp-op:src"/>
<path transform="scale(.1)" d="m2591.8 1722.5-2-5-1-4-6-8-3-3-4-2-3-2-4-1-3 1-4 1-4 3-5 3-10 12-6 8-5 10-6 11-6 13-5 14-5 15-4 15-3 16-4 30v14l2 14 2 12 4 11 5 10 6 8 7 7 7 4 9 3h10l10-1 12-3 12-4 13-5 14-7 13-7 12-8 13-8 20-18 8-9 6-10 5-9 5-10 2-11 2-9 2-10v-8-8l-2-6-2-5-2-3-3-1h-3l-4 2-9 9-4 6-8 16-4 9-4 18-1 9v9 8l2 7 2 6 4 6 4 5 5 3 6 3 6 1h6 7l7-2 7-3 14-8 12-12 5-6 5-7 3-8 2-7 2-8 2-18-1-10-2-19-2-8-1-8-3-7-3-5-3-3-4-1h-4l-5 1-4 3-5 5-10 14-4 9-3 9-2 10-1 9 1 10 2 8 3 8 4 6 4 5 6 4 16 5" style="clip-to-self:true;comp-op:src"/>
<path transform="scale(.1)" d="m2868.8 1767.7 4-7 3-6 4-7 2-7 1-6v-4l-1-4-2-3-5-2h-3l-5 1-4 2-5 3-6 4-11 11-15 21-6 16-1 8v7l1 7 6 12 10 10 6 4 7 4 16 8 8 3 7 3 20 10 8 6 3 3 1 3-1 6-1 3-4 3-3 3-10 4-6 2-6 1-5 1h-5-6l-5-1-4-1-5-3-3-4-4-4-4-14" style="clip-to-self:true;comp-op:src"/>
<path transform="scale(.1)" d="m3124.5 1711.5v-4l-1-7-2-5-2-3-3-3-4-3-8-2h-5l-12 2-6 3-7 3-7 5-6 5-7 6-14 16-8 10-6 10-6 11-6 12-5 12-3 13-3 12-2 13v12 11l2 11 3 10 4 10 6 8 6 7 8 6 9 4 9 3 9 2h10l10-2 10-3 24-11" style="clip-to-self:true;comp-op:src"/>
<path transform="scale(.1)" d="m3172.4 1785.9-1-3v-4l10-10 5-3 4-4 12-6 7-3 14-4 8-2h7 7 7l7 2 5 2 5 4 4 3 3 6 2 6v7l-1 7-1 8-3 8-3 7-4 8-4 7-5 7-4 5-4 6-8 6-3 2h-5l-2-2 1-6 1-5 3-5 3-6 4-7 5-7 5-8 6-9 6-8 7-8 21-27 7-8 6-8 11-11 3-4 4-2v3l-4 10-3 6-3 7-4 8-3 8-6 18-2 8-2 9-1 8v8l1 7 1 6 3 6 4 5 5 4 6 3 7 1h8l9-1 24-6" style="clip-to-self:true;comp-op:src"/>
<path transform="scale(.1)" d="m3420.2 1783.8 4-2 6-2h3l5-1h5l5-1 6-1h7l24-3h8l10-1 9-1h9l16-1h6l6-1h5l4-1h3l2-3-2-3" style="clip-to-self:true;comp-op:src"/>
<path transform="scale(.1)" d="m3496.3 1722.5-1-3-2-8v-4-3-6l3 1 2 3 1 4 1 5 1 6v8 8l1 9v9 9l1 10v10 10l1 10 1 9v9l2 9 2 14 2 5 2 4 7 5" style="clip-to-self:true;comp-op:src"/>
<path transform="scale(.1)" d="m3645.5 1740.3-4-2-3-4v-4l3-4 6-4 10-4 12-2 7-1h7l14 2 7 2 6 2 5 3 5 4 4 4 4 10 1 6-1 6-2 7-3 7-3 6-5 8-10 12-6 6-10 8-4 3-3 2-4 1-3 1v-4l1-3 3-4 4-3 4-5 12-10 6-6 7-6 7-5 8-7 14-12 19-19 5-6 4-5 3-4 3-3 1-3-11 11-3 5-4 5-4 6-3 7-3 6-3 7-1 6-2 7v6l1 6 1 5 3 5 4 5 5 4 6 3 7 3 8 2 8 1 9-1 10-1 9-2 24-9" style="clip-to-self:true;comp-op:src"/>
<path transform="scale(.1)" d="m3849.7 1613.9 1-3 5-1 4 1h5l6 2 6 1 8 2 7 3 8 3 8 4 9 4 8 4 8 6 8 5 8 7 7 7 7 8 6 8 5 9 6 22 1 12-1 12-2 13-2 12-4 14-5 12-6 12-14 22-7 10-7 8-14 14-7 4-6 4-6 3-5 1h-4l-3-1-1-6 4-13" style="clip-to-self:true;comp-op:src"/>
<path transform="scale(.1)" d="m4135.6 1779.1 3-2 4-3 6-1 8-2 5-1h6l5-1h6l7-1h7l14-2h7l8-1h7 14 6 5l5 1h5 4 4 4" style="clip-to-self:true;comp-op:src"/>
<path transform="scale(.1)" d="m4152.5 1834.9 1 4 1 3 3 3 3 2 7 1h3l5 1h11l6-1h7l8-1 27-3 10-1 9-1 8-1h9l8-1h6 6l5-1 12-3" style="clip-to-self:true;comp-op:src"/>
<path transform="scale(.1)" d="m4656.1 1745.7-4-3-3-1-5-1h-4l-4 1-10 4-6 4-5 4-13 13-6 8-7 9-7 10-6 10-6 12-5 11-8 24-3 11-2 11-1 11v10l1 8 1 9 6 12 8 8 5 2 12 2h6l14-4 8-3 21-12 14-12 13-13 6-7 7-7 6-7 5-8 4-7 5-6 3-6 4-10 1-3 1-4-4 4-2 4-1 4-4 12-1 6v6 7l1 6 2 5 3 5 3 4 4 3 5 2 6 3h6 7 8l7-2 8-2 9-3 8-4 7-5 8-6 6-5 6-7 5-7 4-6 6-14 2-14-1-7-1-8-2-7-4-12-4-5-3-4-5-4-4-2-6-1h-6l-6 2-6 3-7 4-7 5-5 6-6 7-4 7-5 7-2 7-2 8-1 6v7l2 6 2 5 4 4 5 3 12 4h8l8-2 21-6" style="clip-to-self:true;comp-op:src"/>
<path transform="scale(.1)" d="m4879.1 1779.6 3-5 3-4 5-10 1-4-1-5-3-2-6 1-3 1-4 2-8 6-6 8-3 5-2 5-1 6-1 5v6l2 6 2 5 2 6 8 10 6 5 6 4 14 9 7 3 7 4 8 4 6 5 6 4 5 4 4 4 3 5 1 5 1 4-2 4-2 5-3 4-5 4-12 8-7 4-8 2-7 3-8 3-21 3h-6l-5-1h-5l-8-4-2-3-2-4-1-5 3-15" style="clip-to-self:true;comp-op:src"/>
<path transform="scale(.1)" d="m5007.7 1823.9v-6-4l1-4 1-5 2-5 3-4 4-5 9-9 12-8 7-4 6-4 7-2 6-3 7-2 6-1h7l6 1 5 2 5 3 3 4 3 5 2 6v7 9l-1 8-3 9-3 10-4 9-5 9-4 9-5 8-6 7-5 7-5 6-5 5-5 4-4 3-4 2-3 1h-5l-2-3v-7l1-4 2-6 3-6 3-7 8-16 5-8 12-18 13-18 7-10 7-9 7-8 6-7 6-6 4-5 6-6 3-2 1 4-1 2-1 4-2 5-2 6-4 14-2 8-5 18-4 18-2 18v9 9l1 9 2 8 2 7 3 6 4 6 5 5 6 5 6 3 7 2 8 1 7-1 8-2 7-3 18-10" style="clip-to-self:true;comp-op:src"/>
<path transform="scale(.1)" d="m5394.9 1732.2-4-12-5-3h-5l-3 3-4 3-9 9-5 7-5 8-6 9-12 20-10 22-4 11-3 11-2 9-2 10v9 9l2 14 2 6 3 5 4 3 4 2 5 2h6l6-2 7-2 7-3 16-8 8-6 7-6 8-6 14-14 6-7 10-14 3-7 4-7 2-5 1-4 1-5-3 1-3 3-2 4-3 5-2 6-3 7-2 7-1 8v7l1 7 1 8 2 6 8 12 5 5 7 4 16 6 9 1h10l10-1 9-1 10-3 9-3 8-4 8-5 12-12 5-6 3-7 4-14v-8-8l-4-16-3-9-4-6-4-7-5-5-5-4-12-4-8-1-7 1-7 2-8 3-8 4-7 5-6 5-5 7-4 6-3 8-2 6v7l2 6 3 6 4 5 5 5 6 4 6 3 6 2h20" style="clip-to-self:true;comp-op:src"/>
<path transform="scale(.1)" d="m5646.5 1780.8 7-10 6-14 1-6v-6l-1-4-2-4-2-3-3-2-4-1-3-1-10 2-5 2-6 4-5 4-5 5-5 6-6 12-1 6 1 6 2 5 3 6 4 5 6 5 6 4 7 5 8 4 27 12 9 3 8 4 14 8 5 4 4 5 2 4 1 5v4l-2 4-3 4-5 4-6 4-14 6-16 4-9 1-7 1h-8-6l-6-1-5-2-4-2-3-3-2-4v-4l7-15" style="clip-to-self:true;comp-op:src"/>
<path transform="scale(.1)" d="m5831.9 1804.5-4-2-3-3-2-3-2-6 1-7 2-3 6-8 5-5 5-4 18-12 6-3 7-3 6-1 6-2h5l5 1 4 1 6 6 2 5 1 7-1 7-1 8-2 9-3 10-3 9-4 10-4 9-4 10-5 8-4 8-4 7-4 6-3 5-2 3-1 3 3-2 3-3 4-5 5-6 7-7 6-8 7-8 8-9 7-10 7-9 6-11 7-10 6-10 5-10 4-10 4-9 3-8 3-7 1-6 1-4-1-3-5 2-3 4-4 4-4 6-5 7-5 8-5 9-10 21-7 22-3 10-3 11-1 10-1 9v9l2 8 2 7 4 6 5 6 6 4 7 4 18 4 10 1h12l10-1 12-1 10-2 10-4 10-3 19-13" style="clip-to-self:true;comp-op:src"/>
<path transform="scale(.1)" d="m6158.1 1838.7-4-2 4-2h3l5-1 14-2 8-1 9-2 10-1 10-2 12-1 11-2 48-4 11-1h11l9 1h8l7 1 6 1h3l3 1-2 1" style="clip-to-self:true;comp-op:src"/>
<path transform="scale(.1)" d="m6657.5 1721.7 4-14 3-8 2-9v-8-7l-1-6-2-5-3-5-3-3-5-4-5-2-6-1-7-1h-8l-8 2-9 1-10 4-11 4-10 5-10 6-11 7-9 8-10 9-8 9-7 9-5 9-4 9-3 9-1 10v8l1 10 3 9 4 9 6 8 7 9 8 7 9 8 9 7 10 6 11 6 11 5 10 6 10 5 18 8 7 5 6 4 5 3 3 4 2 4v4l-1 3-2 4-4 3-5 4-6 4-8 3-8 4-9 3-10 3-9 3-10 2-9 1-9 2-8 1h-8-5-5l-3-3 4-6 5-4 6-5 20-16" style="clip-to-self:true;comp-op:src"/>
<path transform="scale(.1)" d="m6710.5 1829-1 4-1 3-3 8-2 4v5l-1 6-1 5-1 6-1 5-1 6-1 5v5 6 5l1 5 1 4 2 4 4 6 3 1 5-1 5-5 5-10" style="clip-to-self:true;comp-op:src"/>
<path transform="scale(.1)" d="m6721.8 1787.6 1 4 6 8 4 7" style="clip-to-self:true;comp-op:src"/>
<path transform="scale(.1)" d="m6773.9 1806.2v5 13l1 5v9 6 11l1 6v19l-1 5v10 4l-1 5-3-4v-4l-1-4v-5l2-12 1-7 2-8 2-7 4-8 4-9 4-8 6-8 14-16 8-5 8-6 8-4 8-3 14-2 7 1 5 1 5 2 5 3 6 10 2 6v7l-1 7-1 8-3 8-2 8-4 8-3 8-4 7-6 12-3 4-4 7" style="clip-to-self:true;comp-op:src"/>
<path transform="scale(.1)" d="m6957 1825.6-6-2-2-2-3-1-3-3-1-4 2-6 2-3 4-3 5-4 5-3 6-3 14-4 8-2h7 7l7 1 6 1 6 2 5 3 4 3 3 4 2 5 1 6-1 6-1 7-3 7-8 14-10 14-6 6-5 6-10 10-4 3-6 4h-3v-4l1-3 2-3 3-6 4-5 6-6 5-7 6-7 7-8 7-7 7-8 7-7 8-7 7-8 20-20 2-3 3-2-3 5-2 3-6 10-4 6-3 6-4 7-3 7-4 7-4 14-1 7v7l2 12 6 10 4 5 5 4 12 4h6 7l20-5" style="clip-to-self:true;comp-op:src"/>
<path transform="scale(.1)" d="m7297.3 1741.5 4-6 4-5 5-7 6-7 8-14 4-8 4-6 2-7 3-6 1-7v-5l-1-5-2-4-3-3-4-1-5-1-6 1-7 1-8 3-9 4-9 5-10 6-11 6-9 8-10 7-16 16-6 8-4 8-3 8-1 8v8l3 7 4 7 5 6 7 7 9 6 10 5 10 6 44 20 11 4 11 6 10 5 16 10 6 6 5 6 4 5 2 6v6l-2 6-3 6-5 6-6 5-7 5-8 4-8 3-8 2-18 2h-9-8l-8-2-12-4-5-3-3-4-3-3v-5l1-6 3-7 14-17" style="clip-to-self:true;comp-op:src"/>
<path transform="scale(.1)" d="m7436.2 1789.3-1 4-1 6-1 3v4 4 5l2 8 1 5 2 4 1 5 3 9 6 14 6 12 2 3 3 3 2-4" style="clip-to-self:true;comp-op:src"/>
<path transform="scale(.1)" d="m7452.6 1756.8 2 2 2 5 2 3 2 5 2 10" style="clip-to-self:true;comp-op:src"/>
<path transform="scale(.1)" d="m7511.8 1803.2-1 4 1 3 1 7 1 4 2 5 1 5 2 5 1 5 8 24 1 6 2 7 1 5 1 6 1 9v4l-1 3-2 5-5-1-2-5-1-5v-5l-1-6 1-7v-7l1-7 9-24 5-9 5-8 6-8 14-12 8-4 8-3 9-3h8l9-1 8 1 8 2 16 8 7 5 7 6 6 6 10 14 4 8 3 8 2 8 1 9v8l-2 8-2 9-3 9-4 8-5 8-5 7-6 7-5 5-6 4-5 2h-4l-7-4" style="clip-to-self:true;comp-op:src"/>
<path transform="scale(.1)" d="m7778.8 1831.9-2-4-1-4-1-3v-3l-1-3 1-4 1-6 2-3 2-4 3-2 3-3 4-2 5-2 10-2 6 1h5l6 1 5 2 4 3 5 3 4 5 3 4 2 5 1 6v6l-1 6-1 7-6 14-2 6-4 7-3 6-4 5-6 8-2 2-4 2-3-1v-5l1-4 3-4 2-6 5-6 5-7 5-8 7-7 7-8 7-9 16-17 8-8 8-9 8-8 8-9 8-8 6-7 7-6 4-5 3-3-6 3-9 9-5 6-6 7-5 7-6 9-5 8-10 18-3 10-2 8-2 9v8l2 8 3 7 5 7 8 7 10 6 13 6 15 5 18 5 18 4 20 2 18 2 18 1 40-1" style="clip-to-self:true;comp-op:src"/>
<path transform="scale(.1)" d="m4143.1 2388.3 2-2 10-2h3l8-2h5l5-1 18-3 14-2 7-2 21-3 6-1 5-1h5l5-1h3l5 1-2 4-6 3-12 5" style="clip-to-self:true;comp-op:src"/>
<path transform="scale(.1)" d="m4166.6 2429.7-2 3-1 3v3l4 3 5 2h3 10l6-1 7-1 16-2 9-2 10-2 10-1 10-2 10-1 10-2 18-2 7-1 6-1 10-2" style="clip-to-self:true;comp-op:src"/>
<path transform="scale(.1)" d="m4728.9 2305.9-2-5-1-5-3-5-4-4-5-3-5-1h-6l-6 1-7 2-7 4-8 5-8 7-18 18-9 10-10 12-18 26-7 14-7 13-6 14-4 13-4 14-2 24 2 9 3 9 4 7 5 6 7 4 8 2h9l11-1 11-2 12-4 26-10 13-8 13-7 13-8 11-9 10-9 8-8 7-9 5-7 3-6 2-6v-4l-1-3-6-2h-5l-5 2-6 3-6 4-11 11-6 8-4 7-4 8-2 16 1 8 2 7 4 6 5 6 6 5 8 3 9 3 10 2h11l12-1 12-2 12-3 13-4 12-5 13-5 22-14 10-7 8-8 7-8 5-9 4-9 2-9 1-9v-8l-4-16-4-5-4-6-6-3-7-2h-8l-8 1-8 2-9 4-9 5-9 6-9 7-14 18-6 9-4 10-2 9v8l1 8 4 7 5 5 16 9" style="clip-to-self:true;comp-op:src"/>
<path transform="scale(.1)" d="m5035.8 2339.7-3-2-2-3-5-1-5-2h-6l-6 1-7 1-6 2-7 3-6 4-7 4-11 9-5 5-3 6-3 5-1 5 1 5 6 10 5 6 6 5 7 5 16 10 27 15 10 5 9 5 8 4 7 5 6 4 4 5 3 5 2 4v5l-2 5-4 4-10 8-7 3-8 3-8 2-8 1h-8-8l-7-1-7-3-6-4-6-5-4-7-9-22" style="clip-to-self:true;comp-op:src"/>
<path transform="scale(.1)" d="m5089.8 2223.9-1-3-1-8v-4l2-4 2-3 4-3 5-3 6-3 14-4 8-2 8-1h8l7-1 8 1 6 1 6 2 6 3 4 4 3 6 2 6v7 9l-2 8-3 9-4 10-5 9-12 18-6 8-7 8-6 7-4 6-5 5-4 6 3 3 4-1 5-2 7-2 18-6 20-6 11-2 20-6 9-3 22-5" style="clip-to-self:true;comp-op:src"/>
<path transform="scale(.1)" d="m5256.9 2414.5h-4l-2-3v-4l2-6 2-3 2-5 14-14 7-5 8-6 16-8 9-4 9-3 9-2 8-2h7l12 2 5 3 3 3 3 5 2 5 1 5 1 7-1 6-6 21-3 6-3 7-3 5-2 5-3 4-2 4-2 3 2-4 2-3 6-10 10-12 18-21 7-8 6-9 7-8 6-8 12-18 5-8 5-7 2-5 3-5 1-4-3 2-3 3-3 4-5 6-4 7-5 7-6 8-15 27-4 9-3 9-4 16-1 7 1 7 2 5 3 5 5 4 6 4 7 2 20 4h12l12 1 13-1h14l24-2 11-2 26-6" style="clip-to-self:true;comp-op:src"/>
<path transform="scale(.1)" d="m5700.5 2399.3h-4l-4 1 5-1 4-1 6-2 7-1 9-3 12-2 12-3 14-3 16-2 16-3 34-6 30-4 13-2 12-2 10-2 8-2 14-5" style="clip-to-self:true;comp-op:src"/>
<path transform="scale(.1)" d="m6179.2 2295.8 5-5 4-5 5-6 4-7 3-8 3-7 2-8 1-8v-8l1-8-1-8v-8l-2-8-2-7-3-6-4-6-4-4-6-4-6-2-8-1h-8l-10 1-10 2-12 3-11 4-12 5-24 14-11 7-10 9-9 9-8 9-5 8-4 10-2 9-1 9 4 18 5 8 6 9 8 8 9 7 10 7 12 6 12 7 14 5 13 6 13 5 12 6 11 6 9 6 8 6 6 6 4 5 2 6v5l-1 6-3 5-5 5-6 4-7 4-8 3-9 3-9 2-18 2h-8-8l-7-1-5-1-6-2-6-6-1-4 1-5 2-6 4-7 16-20" style="clip-to-self:true;comp-op:src"/>
<path transform="scale(.1)" d="m6255.3 2318.6 2 10v3 23l2 12v6l1 6 1 7 2 6 1 6 2 7 4 12 6 10 3 4 2 4 4 3 4-1" style="clip-to-self:true;comp-op:src"/>
<path transform="scale(.1)" d="m6291.4 2290.3 7 7" style="clip-to-self:true;comp-op:src"/>
<path transform="scale(.1)" d="m6340.7 2350.7 1 4 1 5 1 2v4l1 4 2 9 1 4 4 20 2 6 1 4 1 5 1 4 1 3 1 5-2-2-2-3-1-3-2-4-1-4-1-5-1-6-1-5 1-7 2-12 2-6 4-7 4-6 10-10 6-3 7-3 6-2h7 6l7 1 6 1 6 2 6 3 5 4 10 10 3 6 4 6 6 14 2 16v8l-1 8-2 8-3 8-3 7-4 7-3 6-4 5-3 4-4 3-3 2-3-3v-9" style="clip-to-self:true;comp-op:src"/>
<path transform="scale(.1)" d="m6506.4 2242.1-1-5v-5l-1-7v-7l1-6 2-6 6-10 10-8 10-6 12-4h6 7 6l7 1 5 2 5 3 4 4 3 5 2 6v6 8l-2 8-3 9-4 10-5 9-5 10-5 9-7 9-5 8-6 7-5 8-4 5-4 6-3 4-2 3-2 4 3 1h4l4-1 7-2 8-2 20-6 12-4 22-6 11-4 9-3 30-9" style="clip-to-self:true;comp-op:src"/>
<path transform="scale(.1)" d="m6707.3 2375.2-2-5-1-3-1-4v-6l1-3 1-2 2-3 6-6 4-2 5-3 5-2 12-2 7-1h6l7 1 6 1 6 2 4 2 5 3 2 4 3 4 2 10-1 6-1 7-3 6-2 7-8 14-3 6-4 6-5 6-3 5-4 5-2 4-2 2-2 3 4-2 7-7 6-4 6-6 7-5 7-7 16-13 16-14 8-8 7-9 7-8 6-8 5-8 4-9 4-7 2-7 2-5v-5l-2-3-6 3-4 3-5 4-4 6-6 6-5 7-10 16-5 10-3 9-4 10-2 9-2 10v10l2 9 3 9 4 9 7 9 9 7 10 7 13 7 14 5 15 4 16 3h17l43-3" style="clip-to-self:true;comp-op:src"/>
</g>
</g>
<g stroke="#ff0" stroke-width="14.1">
<path transform="scale(.1)" d="m996.41 3439.7-1-3-3 2-1 3-1 5-2 7-1 8-2 9-2 11-2 12-2 13-1 14-2 15-1 16v17 49 14l1 13v11l1 9 1 7 1 6 2 5 2 2 5 1 3-1 6-8 4-6 4-8 5-8 8-18 3-10 4-10 4-9 6-18 4-8 3-7 3-6 2-5 2-3 3-3 4-2 6 2 2 3 4 3 3 5 4 4 4 6 4 5 4 6 5 5 4 6 5 4 4 5 5 4 5 3 4 3 6 1 5 2h5 5l6-1 5-2 5-3 10-8 8-12 3-6 2-7 2-8 1-8 2-18v-9-10-10l1-10v-10l2-16 1-6 1-5 2-5 4-4 6 7" style="clip-to-self:true;comp-op:src"/>
<path transform="scale(.1)" d="m1279.4 3607 5-2 3-1 3-3 3-2 19-19 12-14 12-16 6-9 6-8 4-9 8-16 4-16 2-7v-7-6l-2-8-3-2h-4l-4 1-6 2-7 4-7 6-8 7-16 20-8 11-7 12-6 13-5 12-5 13-4 24v10 11l1 9 6 16 4 6 5 6 6 4 8 3 9 1h10 10l12-2 12-3 13-3 13-5 12-5 11-5 11-6 27-14" style="clip-to-self:true;comp-op:src"/>
<path transform="scale(.1)" d="m1700.5 3331.6-1-4-2-5-2-3-1 3 1 8v6 8 49l-1 15-2 33-2 34-4 32-1 15v15l-1 14 1 12 1 11 1 10 2 8 2 6 1 5 2 3 4 3 9-8" style="clip-to-self:true;comp-op:src"/>
<path transform="scale(.1)" d="m1815.5 3438.9h-4l-3 2-7 7-5 4-5 5-7 6-6 6-8 7-7 6-16 14-7 8-7 7-7 6-6 7-5 6-5 5-3 5-3 4-4 6 3 2h5l8-2 6-1 6-2 6-1 6-2 14-2h6 7l12 2 6 2 6 1 5 2 10 5 5 3 4 4 5 3 4 2 4 3 3 3 6 4 3 1 4 2 4-2 2-3 1-3 2-8 4-10 2-6 2-5 2-7 2-6 3-6 2-6 2-4 3-4 1-3 4-2 3 3 1 8v5 6 7 14 8 22 7 6l1 6 4 8 4 4h6l4-1 4-3 4-2 4-5 5-5 4-6 5-6 4-8 5-7 3-8 4-8 3-8 4-8 3-7 3-6 2-5 2-3 2-4 2 6v4l-1 5v7 6l-1 8v8l3 24 1 7 3 7 2 6 3 6 8 10 5 3 5 2 5 1h5l5-1 5-2 10-6 5-4 5-5 3-5 4-6 3-6 2-6 2-7 2-6 2-12v-4l1-4v-3l-1 4-1 3-2 10-1 6v6 7 5l1 6 2 6 2 5 3 5 7 7 10 4 10 2 6-1 5-2 6-3 5-3 5-4 5-5 4-6 3-5 3-6 2-7 1-6 1-7-3-21-2-7-3-7-2-6-6-10-3-3-4-2-4-1h-4l-4 1-4 3-5 4-4 4-4 6-3 6-2 6-2 7-1 6v6l4 14" style="clip-to-self:true;comp-op:src"/>
<path transform="scale(.1)" d="m2208.3 3503.1-2-2-4 3-1 3-2 4-1 3v5l-1 5-2 12v19l1 7v7l2 12 4 10 3 5 2 3 3 3 3 2h4 3l8-2 3-3 5-3 3-4 4-4 4-6 4-5 3-6 3-5 2-6 3-5 2-5 2-4 1-3 3-4h3l2 6 3 15 4 12 2 7 3 6 3 7 4 6 5 6 5 5 6 5 6 4 6 3 6 2 7 2 7 1h6l7-1 12-4 12-8 5-4 4-6 6-12 3-8 1-7 1-8 2-18v-9l1-10v-9-10l1-8 1-9 1-8v-7l1-6 2-8 2-4-1 4-2 4-2 3-8 9" style="clip-to-self:true;comp-op:src"/>
<path transform="scale(.1)" d="m2942.4 3479.8 7-8 4-5 4-7 4-6 7-14 3-7 2-6 1-5 1-6 1-5-1-5-1-4-2-3-3-3-3-1-3-2h-5l-5 2-5 3-7 3-7 6-7 7-16 18-7 10-7 11-6 10-5 11-4 10-3 10-1 9v9l1 8 2 8 4 8 5 8 6 6 6 7 7 6 8 6 8 5 16 8 8 5 7 4 6 3 6 4 5 4 3 3 3 4 1 3-2 8-2 3-8 6-5 3-7 2-6 2-18 3h-6l-5-1-4-1-4-2-2-2-1-4v-4l1-6 3-6 12-19" style="clip-to-self:true;comp-op:src"/>
<path transform="scale(.1)" d="m3072.9 3500.1 2 3 1 3-2 8-2 12-1 14v7 7l-1 7v21l1 6v7l1 6 4 10 4 8 3 3 3 2 2 1h5l2-2 2-3 4-11" style="clip-to-self:true;comp-op:src"/>
<path transform="scale(.1)" d="m3099.6 3495.5-3 3 1 5v3l1 4 1 3 8 12" style="clip-to-self:true;comp-op:src"/>
<path transform="scale(.1)" d="m3179 3525.5 1 4v4l-1 7v4 5l-1 5-3 18-5 35-2 12v5l-1 5v5l3-3 1-3 2-5 3-5 6-14 4-7 4-9 5-8 12-18 14-18 8-9 9-7 8-7 9-5 8-4 7-3 6-1h6l5 1 4 2 3 4 4 10v7l-2 16-2 9-2 8-3 9-2 8-3 7-2 7-2 6-1 5-1 4v4l4-5 3-4 7-15" style="clip-to-self:true;comp-op:src"/>
<path transform="scale(.1)" d="m3316.1 3331.2-1-3-2-3 3-5 5-2 4-2h4l5-1 12-2 12 1 6 1 6 2 5 2 5 3 4 3 3 4 3 6 1 5 1 7v7l-2 7-2 9-2 8-4 8-4 9-4 8-3 7-4 6-4 7-2 5-3 5-1 4v3l2 5 6 3 5 1h12l8-1h9l8-1 27-3 9-2 8-1 7-2 6-2 16-3" style="clip-to-self:true;comp-op:src"/>
<path transform="scale(.1)" d="m3459.2 3531.4-4-1-1-3 2-4 6-6 4-3 5-4 6-4 6-3 7-4 7-3 8-3 7-2 8-2 7-2h6 6l5 1 4 2 3 2 3 3 1 3v5l-1 5-1 6-3 6-6 14-5 8-4 7-4 6-4 7-3 5-2 5-2 3-3 5 3-3 4-3 4-4 5-4 6-6 6-7 7-6 8-7 7-7 7-8 7-7 7-6 12-14 4-5 5-6 3-5 3-4 2-4-3 2-3 3-3 4-5 5-4 5-5 7-5 6-4 8-8 15-3 7-3 8-2 7v7 6 6l2 5 4 5 3 4 6 3 6 2 7 2 8 1 8-1h9l18-6 10-3 26-11" style="clip-to-self:true;comp-op:src"/>
<path transform="scale(.1)" d="m3732.9 3549.1 2 3 4 1h14 6l7-1h8l8-1h9l18-2h10l9-1 10-1h8l16-2 6-1 10-4 8-5" style="clip-to-self:true;comp-op:src"/>
<path transform="scale(.1)" d="m3851.1 3486.6-2-3-2-2-6-9-3-5-2-3 1 5v4l1 4v13l-1 8v9l-2 9-1 11-2 11-3 23-2 12-2 11-1 12v20l1 9 2 7 7 13" style="clip-to-self:true;comp-op:src"/>
<path transform="scale(.1)" d="m4080.7 3452.4-1-12-1-9-1-7-2-8-1-6-1-5-1-4-2-3-3-3-4 2-3 3-5 10-3 8-3 9-3 10-3 12-2 11-4 26v12 13l1 12 1 11 6 20 4 8 5 7 6 5 6 4 7 3 7 1h8 8l8-2 8-3 8-4 8-5 7-6 12-12 4-7 4-8 3-7 2-8 2-14v-12-4l-1-3-4-2-4 6-3 5-2 6-3 7-2 8-2 18v9 10l4 18 6 14 4 7 5 5 6 4 7 3 7 2h7 8l9-1 8-2 18-8 7-5 7-6 6-7 8-14 2-9 2-8v-8-9l-4-18-2-8-4-9-8-12-5-5-6-3-6-1-7-1-6 1-7 3-6 5-7 5-5 6-5 8-4 8-3 8-1 9v8l2 9 3 7 4 8 5 6 6 5 17 8" style="clip-to-self:true;comp-op:src"/>
<path transform="scale(.1)" d="m4353.8 3518.3 4-6 3-6 3-8 4-16v-7l-2-12-2-4-3-4-2-3-4-2-4-1h-3-3l-3 1-3 2-2 3-2 4-1 4-1 5 1 6 1 5 2 7 4 7 3 6 11 14 18 21 15 21 4 7 3 7 1 6 1 5-1 6-1 5-6 8-5 3-10 4-7 1h-6-6l-6-2-12-6-5-6-11-16" style="clip-to-self:true;comp-op:src"/>
<path transform="scale(.1)" d="m4396.1 3326.5-6-10v-5l1-3 3-3 3-2 8-6 7-2 6-2 8-1 7-2h8 8l7 1 7 2 6 3 5 4 4 5 3 7 1 7 1 9-2 20-3 11-4 11-4 10-4 11-6 9-5 9-6 8-6 6-4 6-7 7-3 2 3 2 4-2 7-2 7-4 9-3 20-10 11-6 10-5 11-6 9-5 9-4 8-5 6-4 7-3 9-6" style="clip-to-self:true;comp-op:src"/>
<path transform="scale(.1)" d="m4549.1 3544.9-4-1-2-5 2-3 5-5 3-2 10-6 6-3 14-6 7-2 8-1 7-2h8 13 5l5 2 4 2 2 3 2 4 1 4-1 4-1 6-2 6-3 7-3 6-5 8-4 6-5 7-4 6-5 6-8 10-6 6-2 3 20-20 14-12 7-7 8-7 9-7 8-8 8-7 7-8 7-7 6-8 6-6 4-5 3-5 2-3 2-2-5 2-7 7-5 4-10 12-6 7-5 7-10 16-8 16-3 8-2 8-1 8v7 6l2 6 3 6 5 5 5 4 6 3 8 2 9 1h9l9-1 10-2 10-3 26-10" style="clip-to-self:true;comp-op:src"/>
<path transform="scale(.1)" d="m4823.2 3548.7 3-2 3-1 4-1 5-1 7-2 7-1 8-1 9-1 9-2 9-1 8-1h9l7-1h8 6 6 4 5" style="clip-to-self:true;comp-op:src"/>
<path transform="scale(.1)" d="m4866.4 3583.8 2 3 4 1h10l10-2 6-1h6l7-1 24-3 16-4 8-3 20-5" style="clip-to-self:true;comp-op:src"/>
<path transform="scale(.1)" d="m5115.6 3461.7 1 4v4l-1 4-2 12-1 8-2 7-1 9-2 10-2 20-1 11-1 23v11l2 24 2 11 3 10 3 9 3 8 11 16" style="clip-to-self:true;comp-op:src"/>
<path transform="scale(.1)" d="m5527.7 3485.8-4-1 1 4 7 2 5 1h6 27 12l12-1h14l13-1h14l14-1h14 25 12l18 2 8 2 7 1 10 4 3 1 3 2 3 3h-5" style="clip-to-self:true;comp-op:src"/>
<path transform="scale(.1)" d="m5563.9 3534.3-7 3-6 2-14 6-5 2-4 3-4 2-2 3 2 3 6 2 4 1 5 1 7 1h8 28l11-1h13l12-1 13-1 13-2h13l13-2 12-1h12l23-3 11-2 10-2 10-3 24-10" style="clip-to-self:true;comp-op:src"/>
<path transform="scale(.1)" d="m5761 3362.9-3-2-5-3-4-3 3 5 2 3 3 3 4 3 5 3 5 4 14 8 18 8 9 5 10 4 9 5 10 5 18 10 8 4 7 5 6 6 6 5 5 5 4 5 4 6 4 10 1 6v6l-1 6-2 8-3 7-4 8-5 9-5 8-7 9-7 8-8 9-7 10-8 9-16 20-8 9-14 16-7 7-5 7-10 12-4 6-4 5-6 8-3 3" style="clip-to-self:true;comp-op:src"/>
<path transform="scale(.1)" d="m6311.6 3396.6 2-14 3-10 2-10 2-9 2-10 2-9 2-16v-7-7l-1-6-1-5-2-5-2-4-3-3-4-2-4-1-5-1-10 2-7 3-6 4-8 6-7 6-8 8-7 8-8 10-7 10-7 11-12 22-5 11-4 11-3 10-2 10v9l1 10 1 9 4 8 3 9 6 8 5 8 6 8 29 29 13 14 5 8 4 7 4 8 2 7 1 7v7l-2 6-2 7-3 5-5 6-5 4-5 5-7 3-6 3-7 2-6 2-7 1h-6-6-6l-4-2-4-1-5-5-1-4 1-5 3-5 3-7 5-8 6-9 19-25" style="clip-to-self:true;comp-op:src"/>
<path transform="scale(.1)" d="m6390 3466.3-4 10-1 3-2 8v5l-2 12v6l-1 7-1 8v9l-1 8v23l1 7v6l1 6 1 5 1 4 2 4 3 4 4-4" style="clip-to-self:true;comp-op:src"/>
<path transform="scale(.1)" d="m6421.4 3433.4-2 3v4l1 6 1 3 2 3 3 4 6 6" style="clip-to-self:true;comp-op:src"/>
<path transform="scale(.1)" d="m6481 3473.1v3 5 9l1 13 2 10v6l3 18v6 6 6 4l-2 10-2 3-4 1-2-3-2-6v-4l2-10 2-6 2-7 4-7 4-8 6-8 14-18 9-8 9-9 8-7 9-7 9-6 8-5 7-3 6-2 6-1 8 2 2 3 2 5 1 5-1 6-1 7-4 16-3 9-6 16-4 9-2 8-3 7-3 6-1 5-1 4v5l3-6 4-12" style="clip-to-self:true;comp-op:src"/>
<path transform="scale(.1)" d="m6591.8 3276.2 3-1 4-2h4l4-1 5-1 21-3h7 14l6 1h6l5 3 4 2 3 4 2 4 1 5-1 6-2 8-3 8-4 9-10 18-6 10-5 8-6 8-4 6-5 6-3 5-3 4-2 3v3l3 2h5l5-1 7-1 8-2 10-3 21-5 11-3 12-2 20-6 36-12" style="clip-to-self:true;comp-op:src"/>
<path transform="scale(.1)" d="m6769.7 3475.2-5 1-5-1-3-1v-4l8-8 4-2 5-3 18-6 7-1 5-1h6l5 1 6 4 2 3v4 5l-1 5-2 6-2 7-3 8-4 7-4 9-8 16-4 7-8 12-3 4-3 3-3 4 6-8 30-30 9-8 8-8 18-16 16-18 8-8 7-8 5-8 5-6 3-5 2-4-2-2-3 2-5 3-5 5-6 5-6 6-12 14-6 8-8 14-6 14-1 8-1 7v6l2 7 2 6 8 10 6 4 8 3 8 2 10 1 11 1 11-1 12-2 12-3 27-10" style="clip-to-self:true;comp-op:src"/>
<path transform="scale(.1)" d="m7056 3476.5 4-2 5-2 8-2 12-4 14-3 7-2 14-2 12-2h6l5 1h5l3 1h5l5 1" style="clip-to-self:true;comp-op:src"/>
<path transform="scale(.1)" d="m7060.7 3555 4 1 5-1h4l4-1h5l6-2h6l7-2 6-1 8-1 28-4h6l6-1h5l3-1 4-1 7-4" style="clip-to-self:true;comp-op:src"/>
<path transform="scale(.1)" d="m7412.3 3355.7-2-4-3-3-3 1-2 3-2 4-2 5-2 6-2 7-1 9-2 8-1 9-3 30v11 11l-1 12v45l2 20 1 9 4 14 4 10 2 2 6 4" style="clip-to-self:true;comp-op:src"/>
<path transform="scale(.1)" d="m7512.2 3491.7 4-1 3-1h4l5-1 6-1 7-1h8l20-2 11-1 24-2h11l11-1 10-1h9 22 6l10 2h3l4 1" style="clip-to-self:true;comp-op:src"/>
<path transform="scale(.1)" d="m7826.2 3388.2 1-4 1-3 1-5v-3-5l-5 2-2 4-3 5-4 6-3 8-5 8-4 10-5 10-5 11-4 10-5 11-4 11-4 10-2 11-2 10-1 10-1 9 1 9 2 7 2 6 3 6 4 4 4 3 12 2 6-1 7-1 8-2 7-3 7-4 14-10 6-6 5-7 5-6 4-7 3-8 3-7 4-13 1-6v-5-4l-1-4-5 1-2 3-1 4-2 4-2 6-2 7-1 13 2 14 4 14 2 6 4 6 4 5 5 5 5 4 6 3 7 2 16 2h8l9-1 9-3 8-2 8-4 7-5 6-5 5-5 5-6 3-7 2-6 2-8 1-8-1-7v-9l-6-24-3-7-3-5-4-6-5-3-4-2-5-2-6 1-5 1-10 6-6 10-2 5-1 6v6l1 6 6 10 11 10" style="clip-to-self:true;comp-op:src"/>
<path transform="scale(.1)" d="m8093.3 3453.2 4-6 1-4v-3-4l-2-3-4-2-5 1-3 2-3 3-4 3-2 4-3 5-2 5-1 6v6l1 5 1 6 3 6 2 6 4 5 4 6 5 5 4 6 5 5 3 6 4 5 4 12 1 5v5l-1 5-1 4-2 5-3 3-4 3-4 2-5 2-5 1h-5-5-6l-4-1-5-2-6-6-2-5-1-5-1-17" style="clip-to-self:true;comp-op:src"/>
<path transform="scale(.1)" d="m8108.8 3298.2-1-6 1-4 1-3 2-4 2-3 4-3 5-3 6-3 6-2 7-3 21-3h7l12 4 4 3 3 4 2 5 1 6v8l-2 8-2 9-4 9-5 10-6 11-7 10-7 11-8 9-14 16-8 6-5 5-5 4-5 3-2 3 2 2 5-2 15-5 9-5 22-10 12-5 12-6 11-6 11-5 10-4 9-4 9-2 7-2 6-1h5 3l4 5" style="clip-to-self:true;comp-op:src"/>
<path transform="scale(.1)" d="m8274 3462.1h-3-4l-1-3 1-3 3-4 5-4 3-2 4-2 5-3 10-5 18-6 6-1 6-2h5 5 5l4 1 4 2 6 6 1 4 2 5v5l-1 7-1 6-6 14-7 16-5 7-4 8-10 14-4 6-5 5-3 4-4 4-3 2-3 3 1-3 3-2 4-4 4-3 12-10 7-5 14-12 8-6 16-14 8-8 8-7 8-8 8-7 6-8 6-6 5-6 5-4 4-6-3 1-4 2-4 3-12 10-14 12-7 7-7 6-12 14-8 14-2 6-2 7v5l1 6 2 5 4 5 5 4 8 4 9 4 11 2 11 3 14 3 13 2 14 1 26 2h12l22-2" style="clip-to-self:true;comp-op:src"/>
<path transform="scale(.1)" d="m6272.6 3928.9-3-2-6-3-10 2-6 3-6 5-7 6-14 16-7 10-7 11-7 12-6 13-7 13-12 28-4 14-3 13-3 14-1 12-1 11 1 10 2 8 3 7 4 5 5 3 6 2 7 1h8l8-2 8-3 9-4 8-5 8-6 16-14 6-8 6-9 5-9 8-16 2-8 2-6 1-5v-5-3l-1-3-4 5-1 4-2 6-4 16-2 18v9l1 9 1 8 6 14 4 6 5 5 6 4 7 4 7 2 8 1h9l9-1 9-2 9-3 16-8 8-5 6-6 6-7 4-7 3-8 2-8 1-9v-9-10l-2-9-1-10-6-16-3-6-5-6-4-3-10-4-6 1-5 1-5 3-5 5-4 5-4 6-3 8-2 8-1 8 1 8 1 9 3 8 4 6 4 5 6 4 18 6" style="clip-to-self:true;comp-op:src"/>
<path transform="scale(.1)" d="m6475.9 4038.3 5-6 4-5 5-8 4-7 4-12v-4l1-3-2-4h-3l-5 4-1 3-2 4-2 5-2 12 1 7 2 16 2 8 2 9 3 8 3 9 2 9 3 8 4 16v7l1 8-2 12-2 6-3 5-4 4-5 4-5 3-6 3-6 2-6 1h-6-6l-4-1-5-3-3-4-3-5-3-17" style="clip-to-self:true;comp-op:src"/>
<path transform="scale(.1)" d="m6591.8 3852.5 2-4 2-3 2-4 4-3 5-3 5-4 7-3 16-8 16-6 8-1 7-2h5l5 2 5 1 2 3 3 4v4 6l-7 14-5 8-7 10-8 9-9 10-9 9-20 18-8 8-8 7-7 6-9 9-4 3-2 5 3 3h3 12 8 9l10-2h11l12-1 11-1h12 22 9l10 1h8l6 1h6l8 4" style="clip-to-self:true;comp-op:src"/>
<path transform="scale(.1)" d="m6690.8 4070.4-2-2v-4l5-5 4-3 5-3 5-4 6-3 7-3 6-2 14-4h6 12l5 1 4 2 4 3 2 3 2 10-1 6-1 7-4 14-6 15-4 8-3 7-6 12-4 10-2 6 5-3 4-3 5-3 12-10 7-6 8-8 8-7 8-9 9-8 8-10 10-10 9-11 10-10 9-11 7-10 8-10 7-9 5-7 4-6 2-5 2-4-4 2-5 4-11 11-7 8-8 9-7 10-16 24-7 13-7 14-6 13-5 13-4 12-3 11-2 11v9l1 8 3 7 4 5 5 3 7 3 9 1 11-1 12-1 13-2 14-4 13-4 26-12 13-7 27-19" style="clip-to-self:true;comp-op:src"/>
<path transform="scale(.1)" d="m7092.1 3998.6 3-4 6-4 5-1 5-2 7-2 7-1 8-2 9-1h8l7-1h7l7 1 10 2 5 2 3 1 3 3-4 9" style="clip-to-self:true;comp-op:src"/>
<path transform="scale(.1)" d="m7100.1 4071.7 1 4 4 2h6l8-2 6-1 6-2 7-1 8-2 8-3 20-4 10-1 10-3 9-1 9-2 8-2 18-6" style="clip-to-self:true;comp-op:src"/>
<path transform="scale(.1)" d="m5554 4126.6h-4l5-2 5-1h6l7-1 8-1 9-1 10-2 12-1 12-2 26-2 14-2 14-1 14-2 14-1 13-1h12 12 11l10 1h9l7 2 7 1h5l4 2 4 1-3 1" style="clip-to-self:true;comp-op:src"/>
<path transform="scale(.1)" d="m5560.1 4187.4-3 3 5 2h6l7-1 8-1 10-2 24-4 14-3 15-2 14-3 16-2 32-6 34-6 18-2 18-3 17-3 16-2 15-3 12-2 11-3 21-7" style="clip-to-self:true;comp-op:src"/>
<path transform="scale(.1)" d="m5783.6 3986.4 1 6 4 8 7 8 4 5 5 4 6 5 6 4 6 5 7 4 14 10 6 4 13 10 6 6 7 5 5 6 4 6 5 7 3 6 3 7 1 7 1 8v7l-2 16-2 8-3 8-4 7-3 8-5 7-4 8-6 7-5 8-12 18-13 17-8 9-7 9-8 8-19 18" style="clip-to-self:true;comp-op:src"/>
<path transform="scale(.1)" d="m7465.8 3922.1v-14l-1-5v-3l-1-3-2 6-1 6-2 7-1 9-3 10-1 12-2 13-3 14-2 14-1 15-2 15-2 17-2 16-1 16-1 15v13l-1 13 1 10 1 9 1 8 2 6 2 4 5 5 4 1 6-2 4-3 12-11" style="clip-to-self:true;comp-op:src"/>
<path transform="scale(.1)" d="m7575.2 4050.2-2 3 3 2 6 1h10l6-1 7-1h8l18-2 10-1 11-1 9-1 11-1h10l18-2 9-2 19-4" style="clip-to-self:true;comp-op:src"/>
<path transform="scale(.1)" d="m7944.5 3975 2-3 6-4 8-7 10-9 8-9 12-16 4-7 3-7 2-6 1-6 1-5-1-5-1-4-2-3-3-2-4-2-5-1h-6l-7 1-8 2-9 3-20 10-11 7-22 16-9 10-9 9-8 9-5 10-4 9-3 9-1 9v8l3 9 3 7 5 8 6 7 7 7 9 7 10 7 9 6 11 6 10 7 10 6 9 6 8 7 7 7 5 6 4 6 3 7 2 12-1 5-2 5-9 9-5 3-14 6-16 4-8 1h-8-7-7l-10-2-5-2-2-3-2-4v-4l1-5 2-6 12-17" style="clip-to-self:true;comp-op:src"/>
<path transform="scale(.1)" d="m8013.5 4023.9v6l1 5-1 4-2 12-4 12-1 7-2 6-3 18-1 5v6 10 4l2 3 1 3 4 2 9-5" style="clip-to-self:true;comp-op:src"/>
<path transform="scale(.1)" d="m8036.1 3996.9-4 1-1 4 1 5 4 6 1 2 3 2 6 6" style="clip-to-self:true;comp-op:src"/>
<path transform="scale(.1)" d="m8094.3 4051.8v5 4l-2 10-1 6v7 6 7 54l-1 5-3-4v-6-11l1-5 1-7 2-7 3-8 8-18 6-9 6-10 8-9 16-16 8-6 9-4 8-4 8-1 7-1 6 1 6 2 6 3 4 4 5 6 3 6 2 7 1 8 1 9-3 27-2 8-2 9-2 8-3 8-2 8-1 5-2 5-2 8" style="clip-to-self:true;comp-op:src"/>
<path transform="scale(.1)" d="m8203.2 3872.3v-3-7l4-6 3-2 4-2 6-1 5-2h7l7-1h7l8 1 6 1 7 2 6 3 5 3 3 5 2 5v5l-2 14-8 14-5 8-5 6-6 7-5 6-6 5-9 9-3 4-3 3-2 4 4 3 4 1 6 1h16l11-1 12-1 39-3 13-2 12-1 11-2 23-2" style="clip-to-self:true;comp-op:src"/>
<path transform="scale(.1)" d="m8385.3 4029.5-3-3-1-4v-4l7-7 4-3 10-4 6-2 7-2 7-1h7 7 7l6 2 5 2 5 3 2 4 3 4 1 5v7l-1 6-2 8-3 8-8 18-6 9-5 9-12 17-10 14-6 5-3 4-4 3-6 4v-4l3-3 3-4 5-4 5-6 6-6 8-7 7-7 9-7 18-16 18-18 8-9 9-8 8-9 7-9 7-8 5-7 5-6 3-5 2-4 1-3-4 1-4 2-5 4-6 4-6 6-7 6-6 7-7 7-6 9-6 8-5 10-6 9-8 20-2 10-2 9v9l1 8 3 7 4 6 6 6 9 6 10 4 13 4 14 2 15 2h17 17l17-1 41-4" style="clip-to-self:true;comp-op:src"/>
</g>
<path transform="scale(.1)" d="m7474.7 2259-2-3-1-3-2-4-4-6-3-3-4 2-2 5-2 4-1 5-1 6-2 8-2 9-1 10-2 22-1 24-1 12v35l1 11 2 20 1 9 4 14 2 5 2 4 3 3 5 1 3-2 8-10" stroke="#00c0ff" stroke-width="14.1" style="clip-to-self:true;comp-op:src"/>
<path transform="scale(.1)" d="m7480.3 2169-12-6-9-3-10-3-11-2-11-1-12 1-13 2-12 4-13 5-13 7-13 9-12 10-13 13-12 14-12 16-11 18-11 20-10 20-9 21-8 21-6 22-5 22-3 21-1 21 1 20 3 20 5 17 6 17 9 15 10 13 12 10 13 9 15 7 16 4 17 3h18l19-2 19-4 20-5 40-16 20-11 20-12 20-14 18-15 19-16 17-19 14-18 13-20 11-20 9-22 7-21 5-23 3-23 1-22-1-23-3-21-4-19-7-18-8-15-12-12-14-9-16-8-18-3-19-2-20 1-20 3-19 5-20 7-19 9-18 10-18 12-16 12-15 14-13 14-10 15-10 16-8 15-6 16-3 14-2 13 5 27" stroke="#00c0ff" stroke-width="14.1" style="clip-to-self:true;comp-op:src"/>
<g stroke="#ff0" stroke-width="14.1">
<path transform="scale(.1)" d="m9006.7 3420.3-3-1-2-3-7-5-5-5-2-5 2-6 8-6 5-4 7-3 8-4 8-2 9-3 10-2 11-1 10-1h11 10l10 2 9 2 8 4 6 4 4 6 3 7 1 8v8l-2 9-3 9-5 10-7 9-7 10-18 18-10 9-11 8-10 8-11 7-10 7-9 6-8 5-7 4-5 4-4 3-2 2 1 4h3 5l6-1 9-1 10-2 11-2 13-2 14-2 15-3 15-2 14-2 15-2 26-2 22-2 9-1 8-1 7-1 11-4" style="clip-to-self:true;comp-op:src"/>
<path transform="scale(.1)" d="m9114.2 3326.1-4-3-5-3-6-4-7-2-8-1-9-1-9 1-10 1-9 3-22 8-12 6-12 8-13 9-15 10-14 11-15 12-14 13-27 27-12 14-10 13-9 13-6 14-5 13-3 14-1 14 1 14 3 13 5 13 7 13 9 11 12 10 13 9 16 8 16 6 18 5 18 3 19 1h19l19-2 18-2 20-4 18-5 19-6 18-7 17-8 16-8 16-10 14-10 13-10 10-12 9-11 7-12 5-12 4-13 2-14v-13l-1-14-3-15-4-16-5-15-6-16-7-15-9-14-9-13-11-10-12-9-14-7-14-4-15-2h-16l-17 1-16 3-17 5-16 7-16 8-16 10-15 11-15 12-14 12-14 13-25 29" style="clip-to-self:true;comp-op:src"/>
<path transform="scale(.1)" d="m9045.2 4029.9-4 1-3 1-5 1h-5-3l-8 2 5-1 4-1 6-1 7-1 8-1 9-1 9-2 10-1h11l10-1h10 10l8 1 8 2 6 2 5 2 4 3 2 3 1 4v4l-2 5-3 5-4 4-6 5-7 6-8 5-9 5-9 4-9 5-10 4-10 3-16 6-7 2-6 1-5 1-4 1-3 1 3 1h5 5l7 1h8 10l9 1 10 1 11 1 10 2 9 3 10 3 9 3 8 4 7 4 6 5 5 5 3 5 2 5 1 6-1 5-2 5-3 5-10 10-7 4-8 4-9 3-20 6-10 1-10 2-11 1h-9-10-9l-9-1-8-1-8-2-6-1-6-3-5-2-4-3-6-8-1-13" style="clip-to-self:true;comp-op:src"/>
<path transform="scale(.1)" d="m9064.9 3984.6-8-3-8-2-12-2-11-1h-12l-13 1-13 3-26 8-14 6-14 7-15 9-15 10-14 11-28 28-13 16-12 16-11 16-10 17-8 17-7 17-5 16-2 16-1 16 1 16 2 15 4 15 6 14 7 14 10 12 11 11 12 9 15 8 17 6 18 4 20 3 21 2h21l21-2 22-2 22-4 22-5 23-7 22-8 23-9 22-9 22-11 22-12 21-13 20-13 36-28 15-15 13-16 10-17 9-18 7-19 5-21 2-21 2-22v-21l-2-20-5-19-7-18-9-17-11-14-14-13-16-11-18-10-20-7-19-6-21-3-21-2h-22l-22 3-22 4-23 6-22 8-23 10-48 24-24 14-23 13-50 34" style="clip-to-self:true;comp-op:src"/>
</g>
<g stroke-width="14.1">
<path transform="scale(.1)" d="m864.02 5223.2-1-3-3-2-3 1-3 5-2 3-1 5-2 4v6l-1 7-1 8-1 9v20l1 12v12l1 12v12 11l1 11v10l1 10 1 9 2 16 1 6 2 5 1 5 1 3 2 4 3-8" stroke="#00c0ff" style="clip-to-self:true;comp-op:src"/>
<path transform="scale(.1)" d="m864.49 5165.4-4-9-3-6-8-10-5-4-10-6-12-4h-7-7l-8 1-8 3-10 5-10 6-10 8-11 10-11 12-12 14-10 15-11 17-10 18-8 19-7 20-5 20-4 21-1 21 1 21 1 20 4 21 6 19 7 19 8 17 10 16 11 14 13 11 13 10 15 8 16 6 16 4 18 3 17 1 19-2 19-3 18-5 19-6 17-8 16-9 15-12 14-12 14-14 11-15 11-16 9-16 7-17 5-17 4-19 2-18v-19l-1-20-3-21-5-22-6-23-7-23-18-46-9-21-12-19-11-17-14-14-14-11-16-8-16-5-17-2-17 1-18 4-17 6-16 8-16 10-16 12-14 13-14 14-12 14-10 15-9 15-7 14-5 13-4 29" stroke="#00c0ff" style="clip-to-self:true;comp-op:src"/>
<path transform="scale(.1)" d="m1449.8 5214.4 2-4 1-4 1-5 1-4 1-3 1-5-1-3-3 3-2 3-2 4-2 6-3 6-4 7-3 7-5 9-4 9-5 9-10 20-24 40-7 9-6 9-7 8-20 20-12 10-6 4-5 3-5 2-4 3-4 1h-5l-4-4-1-2v-4-5l1-6 1-7 2-9 2-10 3-10 3-12 2-12 3-13 6-27 2-14 2-15 1-15 1-16v-16-16l-4-30-4-13-4-11-4-10-6-7-6-6-6-5-6-3-6-2h-7-6l-12 2-5 3-4 3-3 3-2 3-1 5v5l2 5 2 6 5 6 5 7 7 7 8 7 9 8 10 8 22 16 11 9 11 10 12 9 12 11 33 33 20 24 9 12 8 13 7 13 7 12 10 24 4 11 3 11 3 10 3 9 1 9 1 8 1 7v19l-1 6-2 8-2 4-2 3-2 4-10 10-4 2-3 2-5 1-11 1" stroke="#fff" style="clip-to-self:true;comp-op:src"/>
<path transform="scale(.1)" d="m1777.4 5212.7-2-3-4-5-2-3-3-5v-3l2-5 3-3 3-2 4-3 5-4 6-3 6-4 16-6 9-3 18-4h9 8l8 1 7 2 6 4 5 4 4 5 2 6 2 7-1 9-2 8-3 10-5 9-6 11-7 9-8 10-17 19-18 16-8 8-8 7-7 6-6 5-5 4-4 4-3 4-2 5 3 3 3 2 5 1h7l8 1h9l10-1h12l12-2 13-1 14-2 13-1 14-2 13-2 12-1 22-2 8-2 7-1 12-5" stroke="#ff0" style="clip-to-self:true;comp-op:src"/>
<path transform="scale(.1)" d="m1851.6 5044.1-12 2-8 2-9 3-9 4-10 6-10 7-10 9-11 10-11 11-11 13-12 13-20 30-10 16-8 15-7 16-6 16-4 17-4 16-2 17v17l1 16 3 16 4 15 6 15 7 13 8 13 9 10 11 10 11 9 12 7 13 6 14 4 15 3 16 2h16l17-2 17-3 18-5 18-6 19-8 17-8 18-10 17-11 16-12 14-12 14-13 12-14 11-15 9-15 8-15 5-16 4-16 2-17v-17l-1-19-3-18-4-19-5-19-6-18-8-16-9-15-10-12-11-11-13-7-14-6-15-4-16-2h-17l-17 1-17 2-17 5-16 5-15 7-15 9-13 9-12 11-11 12-10 11-9 12-7 10-15 25" stroke="#ff0" style="clip-to-self:true;comp-op:src"/>
</g>
<g stroke="#fff" stroke-width="14.1">
<path transform="scale(.1)" d="m2353.4 5251.6h-12-4l4 2 3 1h4l5 1h6l7-1 8-1 10-1 22-4 12-3 13-2 13-3 28-6 13-3 12-3 12-2 10-2 9-1 7-1h7l4 1h3l3 2-3 4-4 2-5 2-7 2-21 7" style="clip-to-self:true;comp-op:src"/>
<path transform="scale(.1)" d="m2321 5335.6h4 3 4l3-1 4-1h5l5-2 12-4 14-4 8-3 9-2 10-3 11-3 11-2 24-6 13-2 12-2 11-2 11-1 18-2h15 6l5-1h4l5-2 10-5" style="clip-to-self:true;comp-op:src"/>
<path transform="scale(.1)" d="m2486.2 5152.7-2-4-2-2-2-4-2-2-2-3 5 2 6 3 4 3 5 2 5 3 12 6 7 3 8 4 9 4 8 3 18 9 9 4 8 4 9 5 16 10 7 5 8 4 7 5 6 5 6 4 4 5 5 4 3 4 3 5 2 4 1 5v5l-1 5-2 6-6 12-12 14-7 8-8 9-9 9-9 10-30 30-10 11-10 10-11 10-9 11-11 10-10 10-9 11-10 9-10 10-18 16-8 6-18 12" style="clip-to-self:true;comp-op:src"/>
<path transform="scale(.1)" d="m2946.6 5243.1v-5l2-6v-5l2-4 2-5 1-5 2-5 4-24 1-5v-14-4l-2-4-2-3h-4l-5 4-4 4-4 6-5 7-5 9-6 10-6 11-5 11-6 13-4 13-5 14-3 14-3 15-2 15-2 30 1 14 1 12 2 13 3 11 3 10 4 9 5 8 5 6 6 5 8 5 7 2 8 1h8l10-1 10-2 11-4 22-10 12-7 11-7 11-8 20-18 18-18 7-9 6-8 6-7 3-7 3-5 1-3v-5l-5 2-2 3-3 3-2 5-3 4-2 6-2 5-2 6v5 5l1 4 2 4 3 4 4 3 5 2 5 1 14 2 8-1 18-4 30-12 10-6 18-12 8-7 7-7 12-16 4-8 3-8 1-8v-8-8l-2-7-3-7-4-7-4-6-5-5-6-4-6-2-8-2h-8l-8 1-20 6-10 5-10 6-10 8-10 7-9 9-8 9-14 18-4 10-3 8-1 8 1 7 2 5 5 5 5 3 6 1 22-1" style="clip-to-self:true;comp-op:src"/>
<path transform="scale(.1)" d="m3336.7 5210.6-5-3-4-1-10-1h-5l-5 2-6 2-10 5-5 2-4 3-5 5-2 5 2 6 7 7 4 3 12 8 7 5 7 4 15 9 8 5 7 5 7 6 5 5 5 6 4 6 3 7 2 12-1 7-2 6-4 6-5 6-6 5-7 5-8 5-9 4-9 3-9 2-10 2-8 2-9 1h-8-7l-6-1-6-2-4-2-2-4-1-5 6-15" style="clip-to-self:true;comp-op:src"/>
<path transform="scale(.1)" d="m3499.6 5235.5-1-3-2-4-1-4-1-3 2-3 4-5 6-6 5-2 5-3 6-3 14-4 7-1 8-2h15l8 2 6 2 12 6 4 5 6 12 1 8-1 8-1 9-2 9-3 9-5 10-4 10-12 20-7 8-6 8-6 7-7 5-5 5-6 3-5 3-8 4-4 1h4l7-1 5-1 6-1 14-2 9-2 10-1 9-2 11-1 11-2 10-2 12-2 10-2 10-1 10-2 9-1 7-1h6l5-1 4-1-5-2" style="clip-to-self:true;comp-op:src"/>
<path transform="scale(.1)" d="m3760.1 5211v-8l1-6 2-3 5-3 5-2h3 3 4 4l4 2 3 1 4 3 2 3 3 5 2 5 2 6v6 7 9l-2 8-2 9-6 18-4 9-3 9-4 8-3 7-4 6-3 4-2 4-2 2-2 3v-4l2-2 2-4 3-4 5-5 5-6 6-7 15-15 8-9 19-18 11-10 18-20 9-11 8-9 6-9 6-8 6-12v-3l-2-5-7 1-5 2-6 3-6 4-7 5-8 5-8 7-8 6-15 15-7 8-6 7-5 8-4 8-3 8-2 7v8 7l2 7 3 7 4 7 5 6 7 6 7 4 8 4 9 3 10 2 10 1h27" style="clip-to-self:true;comp-op:src"/>
<path transform="scale(.1)" d="m3525.4 5037.8-2-4-3-3-3-2h-3-4l-3 1-5 3-5 4-5 5-6 8-6 9-7 10-6 13-7 15-8 16-7 18-14 38-7 20-6 19-5 21-4 20-2 21-1 20 2 20 3 19 6 18 7 18 11 16 12 16 15 15 17 14 38 22 21 7 22 4 23 1 24-2 61-12" style="clip-to-self:true;comp-op:src"/>
<path transform="scale(.1)" d="m3967.1 5028.1 4-2h5l6-1h7l7 1 7 3 8 4 9 5 9 7 9 8 8 9 9 11 7 13 7 14 6 16 5 17 3 17 3 18 1 19v19 19l-4 38-3 18-4 19-10 34-6 16-8 14-8 13-7 10-9 10-8 8-9 7-8 6-14 8-7 2-7 1-6-1-5-2-10-8" style="clip-to-self:true;comp-op:src"/>
<path transform="scale(.1)" d="m4286.2 5207.6 1-3 4-2h4 5l5-1h40l9 1h9l9 1 16 2 6 2 5 2 4 2 2 3-5 10" style="clip-to-self:true;comp-op:src"/>
<path transform="scale(.1)" d="m4268.4 5288.7-4 2-4 1-4 2-3 1-2 2 8 4h5l6 1 7 1h9l9-1 11-1 12-1 13-2 14-2 15-1 32-4 15-2 15-3 36-8" style="clip-to-self:true;comp-op:src"/>
<path transform="scale(.1)" d="m4717.6 5180.2-1-3-2-8v-3l1-3 2-3 3-2 4-2 6-2 14-6 8-2 9-3 8-3 9-2 8-2 8-1h8l8 1 7 1 6 2 5 3 5 4 3 5 2 7 1 7v9l-2 10-4 10-4 11-6 12-6 13-27 39-10 14-11 13-10 12-10 11-9 9-8 9-13 13-4 6-3 4-2 3v5l6 3 5 1h7 9l11-1 12-2 14-2 15-3 15-2 16-4 17-3 30-6 14-3 12-3 33-6" style="clip-to-self:true;comp-op:src"/>
<path transform="scale(.1)" d="m5141.4 5134.1v-10-6-4l-1-3-2-3-3 2-3 3-3 5-5 6-6 8-7 10-8 10-14 24-7 13-6 14-5 13-4 13-3 14-3 12-2 26 1 11 2 10 3 10 4 7 5 6 6 4 7 3 7 2h9l9-2 10-2 9-4 10-5 10-6 10-7 10-8 8-9 9-9 7-10 12-18 3-9 3-8 2-6 1-6v-3l-2-4-4 1-2 3-3 3-3 5-4 6-3 7-2 7-3 8-2 9-1 8v8l1 8 2 8 6 14 5 6 12 8 7 3 8 1h9l10-1 10-2 11-3 20-10 9-6 9-7 8-7 7-8 10-18 4-20 1-11v-10l-2-20-2-9-3-8-5-6-4-5-6-2-7-1-7 1-8 2-8 4-8 5-7 6-7 7-5 7-4 8-3 9-1 8v8l2 8 3 7 3 8 6 6 6 5 8 4 9 3 10 1 11 1 12-1 13-2 12-3 13-3 13-4 13-5 12-5 11-5 11-6 18-12 8-6 10-14 3-7 2-12-1-5-1-4-3-4-3-3-4-2-5-1h-5-5l-7 1-6 2-10 6-7 7-2 5v4l2 5 2 4 10 10 7 5 8 6 20 10 11 5 10 5 10 6 18 10 7 4 6 6 6 4 3 4 2 4 1 4-1 3-2 4-3 3-6 4-6 3-7 3-16 6-9 2-18 2h-8l-9-2-8-2-8-4-15-13" style="clip-to-self:true;comp-op:src"/>
<path transform="scale(.1)" d="m5564.3 4940.6-2-10-1-6-1-5-1-3 1-6 3-3 9-3 4-1h4 4 4l4 1 8 4 3 3 2 4 1 5 1 6-2 7-2 9-4 10-6 10-6 12-14 24-8 12-16 22-7 10-6 9-5 8-3 7-4 5-1 5-1 3 2 6 2 2 4 2 6 1 8 1 9 1h11l12-1 13-1 14-1 15-2 15-1 28-4 12-2 11-2 20-4" style="clip-to-self:true;comp-op:src"/>
<path transform="scale(.1)" d="m5702.3 5198.8-5-2-6-2-4-1-3-2-4-2-3-2v-4l2-4 5-5 4-3 4-2 5-3 6-2 5-2 12-2h5l10 2 3 3 3 4 3 6 1 6v7l-1 8-2 9-3 10-4 11-4 10-4 11-5 11-6 11-4 11-5 9-5 10-3 8-4 6-2 5-1 4-2 4 6-4 15-15 14-16 16-18 21-30 7-11 6-10 6-9 9-18 3-7 3-6 1-4v-4l-5 1-7 7-8 10-12 21-3 8-2 8-3 8-2 16-1 9 2 16 1 9 3 7 3 8 8 14 12 10 7 4 8 3 8 1 9 1 21-3" style="clip-to-self:true;comp-op:src"/>
<path transform="scale(.1)" d="m5952.5 5262.5-1-4 4 2 4 1h3l5 1h5 14 8l9-1 20-2h11l11-2 11-1h12l20-2h17 8l6-1h5l11-2" style="clip-to-self:true;comp-op:src"/>
<path transform="scale(.1)" d="m6323.8 5068.2-2 4v7l-1 5v6l-1 7-2 9-2 10-2 11-1 11-3 13-2 12-2 14-1 13-2 14-3 27-1 14-1 13v13l1 13v13l1 12 2 10 1 10 2 8 1 8 3 6 2 5 3 4 3 2h3 4l10-4" style="clip-to-self:true;comp-op:src"/>
</g>
<g stroke="#00c0ff" stroke-width="14.1">
<path transform="scale(.1)" d="m7165.9 5169-2-3-4-1-4 1-5 2-3 1-3 2-4 2-3 2-5 3-3 3-5 3-5 4-4 4-6 5-5 4-6 5-5 5-6 4-6 6-5 4-13 13-6 8-2 4-1 4-1 3v4l1 6 1 3 3 2 2 2 8 4h5l5 1 7 1h6l8-1h7l16-2 9-1 8-1 8-2 16-2 7-1h7l12-2h4 12l-6-6" style="clip-to-self:true;comp-op:src"/>
<path transform="scale(.1)" d="m7146.1 5165.6v-4l-2 3-1 3-1 4-4 12-2 7-3 9-2 9-3 10-3 11-2 11-3 12-2 13-2 14-3 14-2 14-1 15-2 14-2 28-1 12v11l1 10v8l1 6 1 5 2 3 3 3 3-2 2-4 5-13" style="clip-to-self:true;comp-op:src"/>
<path transform="scale(.1)" d="m7151.8 5129.3-3-4-3-5-5-5-6-5-6-4-7-4-7-3-16-4h-9l-8-1-18 2-10 2-10 3-11 5-9 6-11 7-11 9-9 9-10 12-10 13-8 14-8 15-7 16-6 17-8 36-2 20v20l1 20 2 21 4 18 6 18 6 16 8 14 9 13 10 11 11 10 11 8 12 7 12 5 13 4 12 3 13 1h14l14-2 14-3 14-4 14-5 14-6 14-8 13-8 13-9 12-11 11-13 10-13 8-15 7-16 5-18 4-18 3-19 2-19 1-19v-20l-1-19-4-38-4-18-5-16-7-15-8-12-9-9-10-7-11-4-13-2h-12l-12 1-26 8-12 7-13 8-12 10-12 11-22 26-10 14-9 15-8 15-6 15-13 39" style="clip-to-self:true;comp-op:src"/>
<path transform="scale(.1)" d="m931.64 7601.1-1-3-4-1-3 5-2 4-2 5-2 7-4 16-1 9-2 9v10l-1 9-1 10v10l1 10v10l2 18 2 8 4 14 2 6 2 5 4 8 2 3" style="clip-to-self:true;comp-op:src"/>
<path transform="scale(.1)" d="m931.64 7585.5-2-7-2-6-4-8-4-7-6-7-6-5-7-4-16-6-18-2h-9l-18 4-9 4-9 5-8 6-9 9-8 10-8 13-8 14-7 16-5 17-5 18-4 18-2 19v20l1 21 3 21 3 22 6 23 7 21 8 20 9 18 10 16 11 13 12 11 14 9 14 6 14 4 15 1 15-1 15-2 14-5 14-6 14-8 13-10 12-11 11-13 9-15 8-16 7-17 5-19 4-19 2-19 1-21v-20l-2-20-3-21-5-21-5-20-7-20-7-19-9-18-9-16-11-16-11-14-13-11-13-10-14-7-15-4-16-1-16 3-15 5-15 7-13 9-24 22-9 13-8 14-6 13-5 13-2 13 3 32" style="clip-to-self:true;comp-op:src"/>
</g>
<g stroke-width="14.1">
<path transform="scale(.1)" d="m1449.3 7537.3 2-5v-4l1-6v-4l-2-3-4 3-2 2-3 4-3 5-4 6-3 7-4 7-4 8-7 17-4 9-3 9-4 10-4 9-4 10-8 22-5 11-5 12-6 11-5 11-6 10-12 18-10 14-11 11-6 4-5 4-4 2-5 2-3 1h-5l-4-4-1-4v-4-5l2-7 1-7 2-9 4-10 4-11 4-12 4-13 6-13 5-14 5-15 4-14 8-30 3-14 2-13 2-12v-10l-1-9-2-7-2-5-4-4-4-3-5-1h-5l-5 1-15 6-5 4-4 3-4 4-3 4-4 8v5 4l2 5 2 4 3 5 5 4 5 5 7 5 7 4 9 4 10 4 9 5 22 8 11 5 11 6 10 5 10 6 10 7 9 7 16 16 7 9 5 9 5 11 3 10 3 11 1 12 1 10v11 10l-1 9-2 9-2 8-2 7-3 7-4 12-3 5-2 3-2 4-5 2-12-3" stroke="#fff" style="clip-to-self:true;comp-op:src"/>
<path transform="scale(.1)" d="m1819.2 7601.1-2-4-2-3v-6l3-5 3-2 4-3 5-3 7-3 8-3 8-4 9-3 10-4 10-2 11-3 11-2 10-2 11-1h10l8 1 8 2 6 2 4 3 3 4 2 4v5l-1 5-2 5-3 6-11 11-14 10-16 10-9 4-8 4-8 3-7 2-6 3-5 2-5 1-3 2-4 1h6l5-1h6l14-2h9l9-1h18l9 1 8 1 8 2 6 2 6 3 4 3 4 4 2 4 1 5-1 6-2 6-3 6-5 7-6 6-8 7-8 6-9 6-20 10-10 4-11 4-10 3-10 2-27 3h-8l-8-1-6-2-5-1-4-2-3-3v-3-4l1-6 4-7 14-18" stroke="#ff0" style="clip-to-self:true;comp-op:src"/>
<path transform="scale(.1)" d="m1938 7492.1-4-1-7-2-11-3-14-4-14-3-28-4-14-1-14 1-28 4-13 3-26 8-22 12-10 8-10 9-8 10-8 12-7 13-6 15-4 15-3 17-1 17v18l2 18 3 19 10 38 8 19 9 19 10 18 12 16 13 14 15 12 16 10 17 6 18 5 18 2h20l19-1 21-3 42-12 21-9 20-9 19-12 19-13 34-30 16-17 15-18 24-38 9-21 7-21 6-22 3-21 1-22-2-21-3-19-7-19-7-17-10-15-13-13-14-11-16-9-18-6-21-5-21-2-24-1-48 4-24 4-23 6-21 6-20 7-18 8-16 9-14 8-12 9-10 9-9 8-15 20" stroke="#ff0" style="clip-to-self:true;comp-op:src"/>
</g>
<g stroke="#fff" stroke-width="14.1">
<path transform="scale(.1)" d="m2284.8 7627.3 5-1h15 7 8l8-1 10-2 22-4 26-6 30-6 17-4 16-3 16-4 16-3 15-3 14-2 12-2 11-2 10-1 8-1h7 6 4l4 1 2 2-4 4-5 2-17 5" style="clip-to-self:true;comp-op:src"/>
<path transform="scale(.1)" d="m2335 7670.4 5-3 3-1 4-1 5-1 7-2 7-1 9-2 10-3 11-2 11-3 24-6 12-4 13-3 12-3 12-2 11-1 11-2 10-1 18-4 8-2 19-7" style="clip-to-self:true;comp-op:src"/>
<path transform="scale(.1)" d="m2513.9 7515.8-4-5-4-4-5-6-4-5-4-8-2-3 1-3 4-1 3-1h10l6 1 7 1h7l8 2 9 1 9 3 10 2 9 3 10 4 18 8 9 5 16 12 7 6 6 6 5 7 4 7 3 7 2 8 1 8v9l-2 8-3 9-3 10-5 9-14 20-9 11-8 10-20 20-11 9-33 30-12 9-12 10-52 40-13 9-32 17" style="clip-to-self:true;comp-op:src"/>
<path transform="scale(.1)" d="m3032.1 7505.2 1-5v-4-6l-1-5-1-3-2-3-2-2-3-2h-4l-4 1-5 2-6 3-7 4-7 6-7 7-8 9-8 10-9 11-8 14-7 14-7 15-6 16-5 17-4 17-3 16-2 17-1 15v14l1 13 3 11 3 9 4 8 6 6 6 4 7 3 8 1h9l9-2 10-3 11-4 10-5 20-14 10-9 9-9 8-9 7-10 7-9 6-10 5-10 4-9 6-18 4-14v-5-3l-2-3-3 3-3 4-2 5-2 6-2 7-1 7-1 9v8l1 8 2 8 3 8 2 7 4 6 9 9 7 3 6 2 7 1 8-1 9-1 8-2 9-3 9-4 16-10 6-6 7-6 4-6 4-8 4-14 1-8-1-8-1-9-2-8-6-16-8-14-4-5-6-4-6-3-6-1h-7l-8 2-8 4-8 5-7 6-8 7-6 9-6 8-6 10-4 9-2 9-2 10 1 8 2 7 3 7 4 5 6 5 7 4 7 2 8 2h9l11-1 22-6 12-4 12-5 13-5 12-6 24-14 11-7 11-8 10-8 10-7 9-8 21-21 5-6 3-5 2-5 1-3-3-4-6-1-4 1-4 2-5 2-5 3-10 8-3 5-4 4-1 5-2 6v5 6l2 6 1 6 4 6 3 5 5 7 5 6 17 17 5 6 6 6 4 6 4 7 4 12 1 6-1 7-2 7-3 6-5 7-5 6-6 5-6 6-7 4-7 5-8 4-7 3-6 3-7 3-6 2-5 1-6 2h-4-4l-3-2-4-7" style="clip-to-self:true;comp-op:src"/>
<path transform="scale(.1)" d="m3592 7587.6-3-4-2-5v-4l2-5 2-3 11-11 6-4 5-4 21-9 7-2 8-2 7-1 8-1h6 6l5 1 4 3 3 2 2 3v5l-1 6-3 6-5 8-5 9-7 10-8 10-9 11-9 12-27 33-9 10-29 29-5 4-4 4-3 2-3 3 3 1h3 4l5-1 14-4 9-1 9-2 9-3 11-2 9-2 11-2 10-2 10-1 18-2 14-2 6-1 15-4" style="clip-to-self:true;comp-op:src"/>
<path transform="scale(.1)" d="m3794.8 7567.8v-5l2-5 7-7 3-2 5-1 4-2 6-1 7-2 6-1h13l7 1 6 1 5 1 5 3 4 3 2 4 2 5v6l-1 7-2 7-2 8-3 8-4 9-5 8-4 8-5 8-5 7-4 6-5 5-3 4-4 3-2 2-5 2 1-5 2-3 3-4 4-6 5-5 12-14 7-7 70-80 5-8 5-7 4-6 2-5 2-4v-3l-4 1-4 2-4 3-5 4-18 18-6 8-7 7-5 8-5 9-4 8-3 8-2 8-1 8v7l4 14 3 6 10 10 7 5 7 3 8 3 9 2 10 1 8 1 10 1h8 14l18-3" style="clip-to-self:true;comp-op:src"/>
<path transform="scale(.1)" d="m3579.4 7380.2-4-1h-6l-7-1-7 1-8 2-8 4-9 6-10 7-20 20-10 12-10 14-10 13-9 14-9 15-8 16-7 16-6 16-5 17-3 17-2 18-1 18 1 17 2 18 3 17 5 17 14 30 9 13 10 13 12 12 13 10 14 9 15 9 16 7 17 6 18 5 18 3 20 2h19l21-1 55-9" style="clip-to-self:true;comp-op:src"/>
<path transform="scale(.1)" d="m4008.4 7394.1 8-6 6-3 7-2 8-1 9 1 10 1 11 3 10 3 20 10 9 7 9 8 9 9 7 9 7 11 6 12 4 13 3 13 2 14 1 16v16l-2 16-2 17-6 36-4 18-4 17-5 16-6 14-5 14-6 12-5 11-6 9-5 7-5 6-4 4-4 3-3 2h-5l-1-4 2-4 6-16" style="clip-to-self:true;comp-op:src"/>
<path transform="scale(.1)" d="m4319.6 7511.6 2-3 10-5 5-1 21-3h8l8-1h18l18 2 8 1 12 4 5 2 2 3 1 3-4 10" style="clip-to-self:true;comp-op:src"/>
<path transform="scale(.1)" d="m4313 7594.8-4 2-4 1 6 1h3l5-1h5l6-1 8-1 9-1 10-1 11-2 12-1 26-2h12 54" style="clip-to-self:true;comp-op:src"/>
<path transform="scale(.1)" d="m4769.7 7617.6-2-3-3-3-3 2-2 6-1 5v5l-1 7v8l-1 9v10l-1 11v37l1 13v12l1 12v11l1 10 1 9 2 16 2 12 2 10 1 3 1 4 3 3" style="clip-to-self:true;comp-op:src"/>
<path transform="scale(.1)" d="m4942.9 7742.6-5 1-4 1-6 2-5 3-3 3-1 3 4 3 7 1 5 1h24l22-2 13-2 14-1 14-2 30-4 16-1 16-3 15-1 14-1 13-1 11-1h31l4 1h4l-2 3h-4-4l-6-1-8-3" style="clip-to-self:true;comp-op:src"/>
<path transform="scale(.1)" d="m5406.6 7718.1-5 1-4 1h-6l-5 1-4-1h-4l-5-2-2-3 1-6 2-3 3-4 4-5 5-5 6-5 7-6 18-10 10-5 11-5 11-4 11-3 10-3 9-2 8-1 7 1 6 1 4 3 2 3 2 5v7l-1 7-3 9-4 10-12 24-7 12-8 13-27 36-9 10-8 11-8 9-6 8-6 7-6 12-2 3-1 4 3 3 4 1 6-1 7-2 9-2 10-3 12-3 13-5 13-4 14-5 13-5 26-8 12-5 12-4 20-6 9-2 7-2 6-1 4-1 3-1" style="clip-to-self:true;comp-op:src"/>
<path transform="scale(.1)" d="m5827.2 7588v-5l-1-4-4-10-4-4-4-3-4-2-10-2h-5l-5 1-6 2-7 3-14 8-7 6-7 7-6 8-6 9-6 8-8 18-2 9-1 8v8l1 8 2 8 3 7 4 7 12 12 7 6 8 5 9 5 8 4 9 5 9 4 7 4 8 4 6 5 5 4 4 5 2 4 1 5-1 5-2 5-3 5-5 5-6 5-7 4-7 5-8 3-16 8-8 3-8 2-7 2-7 1-6 1h-4-5l-4-1v-6l2-4 3-5 13-15" style="clip-to-self:true;comp-op:src"/>
<path transform="scale(.1)" d="m5887.7 7690.7-1 5-1 4-1 5-1 4-2 11v7 24 5l1 6v6l2 10 2 5 1 4 2 4 1 3 2 3 3 3h4l4-3 2-2 1-5 3-12" style="clip-to-self:true;comp-op:src"/>
<path transform="scale(.1)" d="m5940.8 7644.2 4 1 6 6 2 4 1 3v9" style="clip-to-self:true;comp-op:src"/>
<path transform="scale(.1)" d="m6010.7 7673.3h-4l-2 6-1 4-1 5-1 6v6l-3 24-2 18-1 10v27l1 9 2 7 1 7 1 5 2 5 2 4 2 5h4l3-4 1-3 1-5 2-5 2-6 2-7 1-8 4-18 2-11 3-11 3-10 4-11 4-9 5-9 4-7 5-6 5-5 5-4 4-2 5-1h4l3 1 4 2 3 3 3 4 3 5 2 6 3 7 2 7 2 8 3 24v7l1 8 1 7v7l2 12v5l1 3v4" style="clip-to-self:true;comp-op:src"/>
<path transform="scale(.1)" d="m6111.6 7483.2-3-2-9-9-3-6v-6l1-3 2-3 3-3 4-3 10-6 6-2 7-2 8-2 27-3 8 1 14 4 5 3 4 4 2 6 1 7-1 8-1 9-3 10-4 11-6 11-12 24-14 22-7 10-7 9-5 8-5 7-4 6-4 8 1 5 5 3h5 7 8l9-2 10-1 22-4 10-3 10-2 9-2 8-2 17-5" style="clip-to-self:true;comp-op:src"/>
<path transform="scale(.1)" d="m6347.3 7688.9-3-1-5-4-3-1-3-2-3-3-2-4v-6l1-3 6-6 4-3 5-3 7-3 16-6 18-4h9l9-1 9 1 8 1 7 1 6 3 5 3 5 4 3 4 2 6 1 6-1 7-2 7-3 8-4 9-4 8-6 9-5 8-12 14-5 6-5 5-5 3-3 3-6 2 3-5 3-3 4-6 6-5 6-7 8-7 7-8 16-16 17-16 7-9 8-8 7-8 6-9 6-8 5-6 3-6 3-5 1-4-3 2-4 2-5 4-5 5-6 5-7 6-12 16-5 8-5 9-4 9-4 10-3 10-2 10-1 10v10l1 10 2 10 3 9 5 10 5 8 6 9 8 8 9 7 10 6 11 5 12 3 12 2h13l12-1 33-5" style="clip-to-self:true;comp-op:src"/>
</g>
<g stroke="#00c0ff" stroke-width="14.1">
<path transform="scale(.1)" d="m7080.9 7617-5-4-4-3-3-2-4-2-3-1-8 2-4 3-3 4-4 4-3 5-4 6-3 7-2 6-2 8-2 7-1 8v8l1 7 1 8 4 16 3 6 4 7 4 6 5 5 6 5 12 8 7 4 7 3 14 8 12 8 9 9 4 5 2 4 2 5v5l-2 6-3 6-5 6-6 6-7 5-9 7-10 7-11 6-13 6-12 6-13 5-13 4-24 8-11 2-9 1h-9-8l-6-3-13-10" style="clip-to-self:true;comp-op:src"/>
<path transform="scale(.1)" d="m7001.6 7691.4-3-3-3-6-1-5 3-5 2-3 24-12 9-3 11-3 24-6 26-6 13-2 12-1 13-2 24-2h11 11l9-1h8 7 11" style="clip-to-self:true;comp-op:src"/>
<path transform="scale(.1)" d="m7133 7520.3-2-4-3-4-4-4-5-4-5-3-6-2-7-1-8-1-9 1-9 2-10 3-11 3-12 5-12 6-12 8-13 9-13 11-13 12-13 13-13 15-13 17-13 19-13 20-12 21-11 22-11 23-9 22-8 21-5 20-3 19v18l2 16 5 15 7 15 10 13 11 12 13 12 14 10 14 9 16 8 16 6 16 5 18 3 18 1h18l38-4 21-6 20-6 21-8 23-8 21-11 22-11 21-12 19-13 17-14 15-14 13-15 10-16 7-18 6-19 3-20 2-22v-21l-2-22-3-20-5-20-7-17-9-16-10-14-12-13-15-11-16-9-17-7-19-4-20-2h-21l-21 3-21 4-22 6-42 16-20 10-19 10-17 10-16 11-33 29" style="clip-to-self:true;comp-op:src"/>
</g>
<g stroke="#fff" stroke-width="14.1">
<path transform="scale(.1)" d="m1655.4 6141.4 1-3 2-8 1-5-4 5-1 5-2 5-3 7-3 8-6 18-4 11-3 10-4 11-3 11-3 12-6 22-2 10-4 18-2 7-1 6-1 5-1 3v4l2-4 2-3 2-5 2-6 6-16 4-10 8-24 5-13 4-15 5-15 5-16 5-17 5-18 5-19 4-20 6-19 5-19 5-18 6-16 5-13 5-11 4-8 4-6 3-4 3-2 5 2 2 3 2 6 2 8 2 10 1 13 1 15v76 19 37 17l1 16 1 14 2 14 4 22 2 8 3 8 2 6 3 5 3 3 2 3 4 2 3-2 1-6-1-4-3-13" style="clip-to-self:true;comp-op:src"/>
<path transform="scale(.1)" d="m1622.5 6184.1 3-3 3-2 3-3 4-2 4-3 6-2 5-3 7-3 14-8 8-5 9-4 8-5 19-10 9-4 10-5 10-4 18-10 8-5 8-6 19-17" style="clip-to-self:true;comp-op:src"/>
<path transform="scale(.1)" d="m1820.2 5988.9-1 3-2 5v4l-1 5v38 11 23l-1 13v49l1 12 1 11 1 10 2 9 2 8 3 8 6 12 3 4 4 4 3 2 3 1 9-1" style="clip-to-self:true;comp-op:src"/>
<path transform="scale(.1)" d="m1984.4 6080.6 1-4-2-3-4 1-6 4-8 6-5 3-5 4-11 8-12 10-5 5-5 6-3 5-4 6-1 5-2 5v5 5l2 5 1 4 4 5 3 4 5 4 5 5 5 3 6 5 5 3 12 8 5 3 8 8 3 4 2 4 1 4 1 5-1 5-4 10-8 10-6 5-5 5-6 3-6 4-13 5-5 2-5 1-4 1-4-1-3-2-1-5 2-5 13-17" style="clip-to-self:true;comp-op:src"/>
<path transform="scale(.1)" d="m2095.7 6143.6-1 4-2 5-2 4-1 3-2 5-2 10-2 4-1 5v5 4 5 4 4l4 8 3 3 3 4 4 3 10 4 7 1h7 8l9-1 9-2 18-6 10-3 8-5 9-4 14-10 6-5 4-5 4-6 2-6 1-6v-6l-4-14-4-7-4-8-5-7-6-8-12-14-7-6-7-4-8-3-8-1h-8l-9 2-8 3-9 4-9 6-8 7-7 7-6 7-10 16-2 8-2 7 1 15" style="clip-to-self:true;comp-op:src"/>
<path transform="scale(.1)" d="m2301.2 6053.6 1-4v-7l-1-5-1-3-2 3-1 5-1 4v4l-2 10-1 4v13" style="clip-to-self:true;comp-op:src"/>
<path transform="scale(.1)" d="m2342.6 6247 3-2 6-9 3-4 2-2 3-2 4-3 4-7" style="clip-to-self:true;comp-op:src"/>
<path transform="scale(.1)" d="m2958.4 6066.7-2-6-2-5-3-6-2-6-7-7-8-4h-3l-10 4-5 3-6 5-7 6-8 8-7 10-9 11-8 12-9 13-16 27-7 14-6 13-6 12-4 12-3 11-1 10-1 9v7l1 8 2 5 3 5 4 3 5 2 4 1 6 1h6l8-1 7-2 8-3 8-4 18-10 9-6 8-7 8-6 15-15 6-7 6-8 5-8 4-7 7-14 2-7 2-5 1-5 1-3v-4l-4 3-2 4-1 4-2 5-2 7-1 6-2 7v7 6 7l2 6 2 5 2 4 3 4 4 3 5 3 5 1 6 1h6 6l7-2 8-3 7-3 8-3 7-5 8-5 12-12 6-7 4-6 4-8 2-7 2-8 1-9v-8-9l-1-8-2-8-1-6-3-6-3-5-8-4-5 1-6 1-6 4-7 4-14 14-8 9-14 18-6 10-4 10-4 9-2 8v7l2 6 3 5 5 4 6 2 7 2h7l9-2 23-8" style="clip-to-self:true;comp-op:src"/>
<path transform="scale(.1)" d="m3166.3 6082.7 5-6 4-5 4-6 3-5 2-4v-4l-1-4-4-1-4 2-3 2-2 3-3 3-3 4-2 3-4 10v5l-1 5 1 6v6l2 6 2 5 3 6 3 7 8 12 4 7 5 7 4 6 8 14 3 7 3 6 2 7 2 6v7 6l-2 6-2 5-3 5-3 4-4 4-5 3-5 2-6 1-5 1-6 1-10-2-10-6-5-5-5-6-4-8-11-24" style="clip-to-self:true;comp-op:src"/>
<path transform="scale(.1)" d="m3217.5 5928.5-2-3-3-2-6-6-2-3-1-4-1-3 1-4 2-3 3-3 3-5 6-3 5-5 7-4 8-4 8-3 18-6 10-2 18-2 9 1 8 2 7 2 5 4 5 5 3 5 2 7v7l-2 8-8 18-5 10-12 18-7 8-6 7-5 6-6 6-10 8-13 13 3 3h7 5 6 8l9-2 9-1 11-1 11-2 13-2 12-1 24-4 11-1 10-1 9-1 7-2 21-3" style="clip-to-self:true;comp-op:src"/>
<path transform="scale(.1)" d="m3390.2 6157.5-2-3-3-5-2-5v-7l1-3 2-5 2-4 3-4 3-5 9-9 10-8 5-3 6-3 6-2 5-1 6-1h5l10 2 4 3 3 3 3 4 1 4 1 6v7l-1 7-1 8-3 9-6 16-4 8-3 8-3 7-4 6-3 5-1 3-4 6-1-3 1-3 2-3 2-5 8-12 10-16 6-8 7-9 8-10 7-10 8-10 8-11 16-20 7-8 6-7 9-9 3-1-1 4-2 5-2 6-4 6-8 18-5 10-5 11-6 11-5 11-4 11-5 11-8 22-2 10-1 10v9l1 7 2 7 4 5 5 5 7 3 8 2h9 11l11-2 12-3 14-5 13-6 34-17" style="clip-to-self:true;comp-op:src"/>
<path transform="scale(.1)" d="m3692.5 6133.8 5-1 3-1 4-1 5-1 6-1 16-4 9-1 11-2 10-3 10-2 11-2 20-2 9-1h21l4 1 5 3" style="clip-to-self:true;comp-op:src"/>
<path transform="scale(.1)" d="m3727.2 6188.3-1 3 4 1h8l5-1 6-1 8-1 9-1 9-3 10-1 12-2 12-3 26-4 13-1 26-4 11-2 11-1 21-3" style="clip-to-self:true;comp-op:src"/>
<path transform="scale(.1)" d="m4161.4 5985.1 1 3v7l-1 5v7l-1 9v10l-1 11v12l-2 13-1 13-2 13-3 39-1 11v12 10l2 9 1 8 3 7 3 5 4 4 4 2 4 1 10-3" style="clip-to-self:true;comp-op:src"/>
<path transform="scale(.1)" d="m4275.9 6130.9 3-1h10l5-1h13 8l9-1h10 10 10 12 23l11-1h11 9l16-2 13-2" style="clip-to-self:true;comp-op:src"/>
<path transform="scale(.1)" d="m4340.7 6030.4-2-3 2 4 3 12 2 6 1 7 2 6 2 16 2 8 1 9 2 9 1 10 2 10 2 20 4 21 2 9 4 16 6 17" style="clip-to-self:true;comp-op:src"/>
<path transform="scale(.1)" d="m4647.2 5995.7 1-5v-4l1-4-1-4-2-3h-5l-3 2-4 3-10 10-6 8-7 10-7 12-8 12-12 28-5 14-4 14-2 14-3 14-1 12v12l2 11 2 9 4 8 5 7 6 5 7 4 9 2 9 1h9l20-6 9-4 9-5 8-7 8-6 12-16 5-9 3-9 4-9 4-16v-7l1-6-1-4v-3l-4-3-4 3-3 3-3 5-3 6-2 6-3 7-2 16v7 8l1 8 2 8 2 6 4 7 5 6 5 5 7 4 7 3 18 4h11 10l11-2 10-2 11-3 10-4 9-4 8-6 7-6 6-7 5-8 4-9 1-9 1-11v-10l-1-11-1-12-3-12-4-11-8-20-6-7-6-6-7-4-8-2h-8l-9 1-8 2-8 4-8 5-6 7-6 6-4 8-2 16 2 14 4 6 4 5 5 5 16 8" style="clip-to-self:true;comp-op:src"/>
<path transform="scale(.1)" d="m4915.7 6048.5 2-6 1-4 2-6v-5l-4-8-3-3-3-2-4-1-5-1h-5l-12 4-6 4-7 4-5 6-6 6-4 6-4 7-2 7-2 8v7l1 7 2 8 6 14 15 21 17 19 5 6 5 5 3 6 4 5 2 4 1 4-2 8-2 3-3 4-8 6-10 4-5 1-4 1h-5-4l-4-1-5-1-4-3-3-3-6-10" style="clip-to-self:true;comp-op:src"/>
<path transform="scale(.1)" d="m5020.4 6023.6 2-5 2-2 2-3 3-2 4-3 12-6 7-3 8-2 18-4 9-1 10-1h10l18 2 7 3 6 3 5 5 3 5 2 6v8l-2 9-4 10-5 11-6 11-7 11-16 22-18 20-8 9-7 8-11 11-5 4-7 7h4l3-1 5-2 6-2 7-3 18-4 10-3 33-6 11-1 11-2h11l10-1 9-1h9l8 1h8l12 2 5 1 4 1 3 1 4 1" style="clip-to-self:true;comp-op:src"/>
<path transform="scale(.1)" d="m5249.4 6035.8-1-3-2-4v-4l2-5 2-3 3-3 3-2 4-3 4-2 4-3 5-2 5-1 5-2h5l6-1h4l5 1 4 2 5 5 1 4 1 5-1 6-4 16-3 9-5 10-4 9-11 20-8 16-4 7-3 6-2 5-2 3-2 4 4-1 2-2 5-3 5-5 6-5 7-6 24-24 8-9 9-10 16-20 7-11 14-20 6-10 5-8 3-6 3-5 1-4-2-3-10 6-5 5-6 5-7 7-6 8-7 10-7 9-6 11-10 22-6 20-1 10 1 9 2 8 3 7 5 7 6 5 7 5 8 5 8 3 10 3 18 4 8 1 16-2 7-2 14-6" style="clip-to-self:true;comp-op:src"/>
<path transform="scale(.1)" d="m5029.7 5910.4-4 2-14 14-5 7-6 8-6 10-12 24-12 30-6 16-4 17-5 18-3 17-2 16-1 16v15l2 15 4 13 5 12 7 11 9 11 11 8 13 8 14 6 16 5 18 3 18 2h20l52-4" style="clip-to-self:true;comp-op:src"/>
<path transform="scale(.1)" d="m5389.7 5876.1 4-4 4-3 3-1 10-2 6 1 7 1 7 2 8 2 8 3 9 4 10 4 9 6 10 7 9 8 10 9 8 10 8 12 6 12 5 14 4 15 2 16v17l-2 19-3 19-5 19-6 19-8 18-9 18-10 16-10 15-12 14-10 12-12 10-11 9-12 8-11 6-13 5-31 8" style="clip-to-self:true;comp-op:src"/>
<path transform="scale(.1)" d="m4127.1 6354.8-3-1-3-2-6-3-8-2h12l6-1h7 8l12-1h13l16-2 20-1 23-2 27-3 30-3 35-4 39-3 42-4 46-4 48-3 50-3 52-3 53-3 108-4 53-2 104-4 49-1 49-2 48-3 47-2 45-3 44-3 42-3 40-3 38-3 35-2 33-3 30-3 28-3 23-2 20-3 15-2 11-1 7-2 4-1-3-2" style="clip-to-self:true;comp-op:src"/>
<path transform="scale(.1)" d="m4706.8 6495.9-9-3-3-2-3-3v-5l4-3 6-4 4-2 5-2 7-1 6-2 8-1 9-1 8-1 9-1h9 8 7l7 2 6 1 5 3 4 2 3 3 2 4 1 4-1 4-1 5-6 12-10 12-5 7-7 7-7 6-7 7-8 6-7 7-7 6-7 7-6 7-5 8-6 7-8 16-1 4 1 4 2 3 4 3 5 2 7 2 9 1 11 1h14l15-1 16-1 16-2 19-1 18-3 19-2 36-4 16-3 16-2 13-3 27-5" style="clip-to-self:true;comp-op:src"/>
</g>
<g stroke="#f0f" stroke-width="14.1">
<path transform="scale(.1)" d="m6617.6 6107.7-1-6-2-6-1-8-1-7-1-5v-5l-1-4-1-6 2 12v8 11 12 14 15l-1 16-1 18-1 19-2 19-2 20-1 19-2 20-1 18-2 17-2 16-1 15-2 26v11l-1 9v8 16 4l2-5 1-4v-6-18" style="clip-to-self:true;comp-op:src"/>
<path transform="scale(.1)" d="m6586.6 6142.7 2-12 2-8 3-6 2-7 3-7 5-5 4-6 5-5 6-5 7-5 14-8 14-4 7 1 5 2 6 5 4 6 3 8 2 10v11 12l-2 13-3 12-3 13-4 11-4 12-6 10-5 10-5 9-5 7-5 6-5 5-5 4-4 3-8 4h-5l-2-2 1-6 2-4 3-5 3-6 4-7 4-8 12-23" style="clip-to-self:true;comp-op:src"/>
<path transform="scale(.1)" d="m6728.4 5968.2-1-4-1-6-2-3 3 5v4l1 5 1 7 1 10 1 11v14l1 17v19l-1 20-1 21v21l-2 42v20l-1 18v34l1 15 1 13 2 11 2 9 2 6 3 4 3 3h6l3-2 8-10 3-7 4-8 6-18 3-11 12-48 2-12 3-11 3-9 2-8 3-6 1-4 1-3v4l-1 4-1 5v7l-1 7v7l1 8v8l2 9 2 7 3 8 4 7 3 7 5 5 5 4 6 4 5 3 7 1 6 1 7-1 6-1 6-3 7-3 6-5 5-5 8-12 2-7 1-7v-7l-2-14-3-8-3-7-4-7-5-7-5-5-12-8-7-2-7-1h-7l-8 1-6 2-7 2-5 3-4 4-4 3-2 3-1 4 1 4 1 3 3 3 4 3h5 6l20-3" style="clip-to-self:true;comp-op:src"/>
<path transform="scale(.1)" d="m7001.1 5962.7v-5-4l-2-5-3-4-3-3-4-2-4-1h-3l-5 2-3 4-2 6v5l-1 6v7l1 9v11l1 12 1 13 2 15 1 17 1 18 1 35v18 48l1 14v12l1 12 1 9v8l1 6 1 4v3l-3-7" style="clip-to-self:true;comp-op:src"/>
<path transform="scale(.1)" d="m6927.9 6112.3-1-3 1-5 3-4 5-3 5-2 5-3 6-2 6-3 8-3 9-3 9-4 11-3 10-4 11-2 10-3 10-2 10-1 8-1 8-2h17" style="clip-to-self:true;comp-op:src"/>
<path transform="scale(.1)" d="m7293.5 6101.3v-3-4l-2 8v5l-1 5v7l-1 7v7 27 9l2 18 2 8 1 8 3 7 2 6 3 5 3 4 3 2 3 1h3l9-7" style="clip-to-self:true;comp-op:src"/>
<path transform="scale(.1)" d="m7292.6 5921.4-3-1-4 3-2 3-2 5-3 6-1 7-2 8-2 16v7l1 8 2 7 1 7 6 12 3 5 3 4 4 3 5 1 4 1 10-2 4-3 5-3 8-10 3-5 2-6 1-5v-6l-1-6-4-12-3-6-4-6-3-5-4-5-3-4-4-3-3-3-3-1-5 1-2 4-1 4v3 4l4 11" style="clip-to-self:true;comp-op:src"/>
<path transform="scale(.1)" d="m7426.3 5891.4-1-3-2-4-6 1-4 6-3 5-1 6-2 7-2 8-2 9-1 10-1 11-1 12-1 14-2 32-1 19v19l-1 20v39l1 18v16l1 16 1 13 1 12 2 11v10l1 8 2 6 1 5v3" style="clip-to-self:true;comp-op:src"/>
<path transform="scale(.1)" d="m7367.2 6090.3v-3l-1-3 2-4 3-3 4-2 3-2 5-3 5-4 7-3 6-4 32-16 8-3 8-4 7-3 6-4 16-5" style="clip-to-self:true;comp-op:src"/>
<path transform="scale(.1)" d="m7635.7 5897.7 3-15 1-4 1-5v4l-2 10v8l-1 9-1 10-2 12-2 13-2 14-1 16-3 17-3 18-2 20-3 21-4 42-2 20-3 19-4 42" style="clip-to-self:true;comp-op:src"/>
<path transform="scale(.1)" d="m7644.6 6275.4v-3l-3 2-3 5-1 3-2 3-2 4-2 5-1 5-1 4-1 5-1 10 1 4 2 6 3 2 5 2h3l4-1 3-2 4-3 3-3 3-4 2-4 2-5 1-6 1-5v-5l-1-6-1-7-2-6-2-5-4-5-4-4-5-3-6-2-6-1h-7l-8 1-8 2-8 4-10 4-25 14" style="clip-to-self:true;comp-op:src"/>
</g>
<g stroke="#fff" stroke-width="14.1">
<path transform="scale(.1)" d="m1844.6 8411.5 1-3 1-6 1-4v4l-1 3-1 6-2 6-4 18-2 11-3 11-3 13-2 13-4 14-4 15-4 16-4 18-6 18-5 20-5 19-6 18-5 17-5 15-5 12-3 10-7 14-3 4-3 2h-3l-1-8 1-7 1-9 2-12 3-13 4-15 3-16 5-16 5-17 5-18 6-18 7-18 24-57 8-18 9-18 9-15 8-13 8-11 6-8 5-6 5-4 3-1 5 3 2 3 1 6 1 7 1 8 1 9 1 10 2 22 1 12 2 13 1 13 2 12 1 14 2 12 2 13 4 24 3 23 2 11 2 9 2 8 2 7 2 5 1 4 2 4-4-6" style="clip-to-self:true;comp-op:src"/>
<path transform="scale(.1)" d="m1774.1 8626.5 2-4 1-3 6-12 3-4 4-3 4-4 5-4 6-4 7-5 8-5 18-10 22-11 11-5 13-6 12-6 11-7 27-16" style="clip-to-self:true;comp-op:src"/>
<path transform="scale(.1)" d="m1993.4 8380.3-4-2-5-2-3 1-1 5v8 6l1 7 1 8 1 9 2 22 4 24 8 56 2 15 1 14 4 30 2 14 1 15 2 13 3 11 2 9 2 6 7 9" style="clip-to-self:true;comp-op:src"/>
<path transform="scale(.1)" d="m2107.4 8506.6-1-4-3-3-6 1-3 1-3 2-4 2-9 9-3 4-4 8v4 6l1 5 2 4 2 5 4 5 5 5 5 4 6 4 6 5 21 12 7 3 7 5 14 8 5 6 5 5 6 12 1 7v6l-1 8-2 7-4 8-10 14-7 7-7 6-16 12-7 4-8 4-7 3-6 2-5 1h-4l-2-3 1-4 3-5 5-7 7-7 16-20 10-12 11-14 27-35" style="clip-to-self:true;comp-op:src"/>
<path transform="scale(.1)" d="m2262.3 8530.2 5-1h3l3-1 1 5-2 4-2 5-3 6-3 7-4 6-6 16-3 7-2 8-1 7v8l1 6 2 7 2 6 4 4 5 4 6 3 7 1h9l9-3 10-3 10-5 11-6 11-7 10-8 10-9 10-8 8-9 7-10 5-9 4-8 3-9 2-9v-8l-2-8-3-7-3-6-6-5-6-4-8-4-8-2h-10-10l-10 2-11 3-11 4-11 5-20 12-8 6-6 7-5 7-2 5-1 6 1 5 4 4 14 8" style="clip-to-self:true;comp-op:src"/>
<path transform="scale(.1)" d="m2522.3 8441.5-2-3-4-2h-4l-3 4-2 6-2 10v5 5l3 15 3 12" style="clip-to-self:true;comp-op:src"/>
<path transform="scale(.1)" d="m2509.6 8677.2-2-3-1-4v-4l2-3 3-2 4-2 4-1" style="clip-to-self:true;comp-op:src"/>
<path transform="scale(.1)" d="m3144.3 8543.1 1-3 2-8 3-10 1-6 2-10 1-6 1-5v-5l1-6v-9l-1-5-2-8-2-3-3-4-2-2-8-4h-5-6l-6 1-7 2-8 2-8 4-9 5-10 6-9 7-20 16-9 10-10 10-9 11-8 11-7 11-6 11-4 10-2 10-1 9 2 16 4 8 5 6 5 7 8 6 8 5 18 9 22 6 12 4 11 3 12 3 10 4 11 3 9 4 8 3 6 4 5 4 3 4 2 4v4l-1 4-6 8-5 3-5 4-6 4-14 6-7 2-7 3-7 2-14 3-7 2-7 1h-7l-6 1h-5l-4-1h-3l-3-5 1-4 6-12" style="clip-to-self:true;comp-op:src"/>
<path transform="scale(.1)" d="m3214.2 8583.2-3 5-2 4-1 3-3 15-1 7-2 12-6 48-1 7-1 12v16l1 4 2 6 4-3 3-14" style="clip-to-self:true;comp-op:src"/>
<path transform="scale(.1)" d="m3230.2 8571v-4 3l1 6v3 4l1 4v4 4 5l1 4 1 5v4l3 10" style="clip-to-self:true;comp-op:src"/>
<path transform="scale(.1)" d="m3302.9 8577.7-3 2-2 3-1 4-1 6-2 7-1 7-2 9-1 8-4 18-2 10-6 27-1 9-3 24-1 6v13l3-2 1-3 2-4 3-5 3-6 3-7 3-8 4-8 4-9 4-10 5-10 6-10 5-11 7-12 6-11 14-20 6-8 5-6 5-5 4-3 3-1 4 3 2 3 1 5 1 7v16l-1 9-1 11-2 10-1 11-3 30-1 9v7 8l1 6 2 4 1 4 5 1 3-1 3-4 10-13" style="clip-to-self:true;comp-op:src"/>
<path transform="scale(.1)" d="m3408.5 8403.2-2-2-4-5-2-4-2-3-1-3v-5l3-6 3-3 4-3 5-4 5-3 12-6 7-2 6-1 14-2 14 2 6 2 4 3 4 4 3 5 2 7v7l-1 9-2 9-3 10-4 11-5 11-5 10-7 11-6 10-5 10-6 8-5 8-8 12-3 4-2 3-2 4 2 3 6 1h5l14-2 8-1 9-1 11-3 11-2 10-1 12-2 10-3 10-1 8-2 8-1 7-1h5l9 1" style="clip-to-self:true;comp-op:src"/>
<path transform="scale(.1)" d="m3640.4 8607.7h-4l-6-1-4-2-3-2v-3l2-5 2-3 3-4 7-7 10-8 7-4 7-3 14-4 8-2 7-1h7l7 1 5 1 6 3 4 3 4 5 1 5 2 7v7l-1 7-2 9-2 8-4 9-3 9-4 8-8 14-2 6-3 5-3 4-2 2-2 4 3-5 7-7 4-5 5-6 6-6 6-8 7-8 6-8 7-9 8-9 7-10 8-11 7-12 14-22 6-10 5-9 3-7 3-5 1-4-5 3-4 4-4 6-6 7-5 8-5 9-5 10-6 10-15 33-3 10-4 11-4 20-1 9v8l1 8 2 7 3 7 4 5 6 5 5 4 8 2 8 3h9l10 1 11-1 11-2 20-4 10-4 9-4 18-11" style="clip-to-self:true;comp-op:src"/>
<path transform="scale(.1)" d="m4185.8 8588.7 4 1h6 4 5l6-1h7l8-2 8-1 27-6 9-1 10-3 9-2 9-1 7-1 8-1h6 5l3 1 3 2-7 9" style="clip-to-self:true;comp-op:src"/>
<path transform="scale(.1)" d="m4202.7 8668.1 1 4 4 2 3 1 4 1 5 1h12 6l8-1 18-2 10-2 11-1 12-2 11-1 11-2 11-1 10-1 9-1 14-2 11-2" style="clip-to-self:true;comp-op:src"/>
<path transform="scale(.1)" d="m4781 8435.8-3-4-4-5-3-2-5 2-2 2-5 10-5 15-4 9-3 12-4 12-3 14-4 15-6 32-5 32-2 15-2 30v26l1 11 2 18 1 6 2 5 2 3 5-1" style="clip-to-self:true;comp-op:src"/>
<path transform="scale(.1)" d="m4892.7 8591.2 4 1h4 3 11 7l16-2 10-2 9-2 11-2 11-1 10-2 12-2 10-1 11-1 10-1h9 8l8 1 7 1 5 1 4 1 3 2 3 3-7 3" style="clip-to-self:true;comp-op:src"/>
<path transform="scale(.1)" d="m5352.2 8448.9v-5l-2-8v-4l-1-3-2-3-5 2-2 3-2 4-3 5-3 6-4 7-4 9-4 10-3 11-4 12-4 13-3 14-6 30-4 30-1 14-1 13 1 13v11l2 10 2 8 3 6 4 4 4 3 5 1h5l6-2 7-2 7-4 7-5 7-6 13-13 6-8 5-8 6-8 4-9 4-10 6-18 2-9 1-7 2-7 1-5 1-3-2 3v5l-1 6-2 16v8 8 8l1 8 2 9 6 14 4 7 4 6 6 5 6 3 7 4 16 2h8l9-1 9-2 16-8 8-5 14-12 5-6 4-7 3-8 2-8 1-8-1-9-2-9-2-10-3-9-4-10-4-9-5-9-5-7-5-5-6-4-6-2-7-1-6 1-8 3-7 4-14 12-7 8-5 9-3 8-3 9-1 9 1 8 2 8 3 7 12 10 7 4 8 3 10 2h9 10l11-1 11-3 12-3 30-12" style="clip-to-self:true;comp-op:src"/>
<path transform="scale(.1)" d="m5587.3 8571 3-2 5-4 7-5 9-8 16-16 5-9 6-8 6-14 2-10-1-4-5-3h-4l-5 1-5 2-6 3-6 4-7 5-6 5-6 6-5 6-5 7-4 12-1 7 1 6 2 6 4 7 5 6 6 5 6 6 8 6 7 5 8 6 8 5 8 6 7 6 7 5 10 12 3 6 2 5v6l-1 5-2 5-3 4-5 4-6 4-14 6-8 2-14 2-14-2-6-2-5-2-10-10-8-16" style="clip-to-self:true;comp-op:src"/>
<path transform="scale(.1)" d="m5845.5 8494.9-3-2-7-7-2-5 2-5 2-3 4-3 5-3 6-3 7-4 14-6 16-4 9-1 8-1h8l7 1 8 2 7 2 5 4 5 5 4 7 2 7 1 9-1 10-1 11-8 24-5 13-6 13-7 12-8 12-7 11-8 10-14 16-7 5-6 6-6 3-5 3-4 2-3 2-4 2h5 3l5-1h5l6-1 7-1h7l8-1h7 15 8l7 1h7l12 2 10 2 3 1h5" style="clip-to-self:true;comp-op:src"/>
<path transform="scale(.1)" d="m6049.2 8506.8 1-4 3-9 3-2 3-3 3-2 5-2 4-1 5-1 6-1 5-1h6l5 1 6 1 5 2 5 3 7 7 2 6 1 6 1 7-1 7-1 8-2 9-6 17-3 9-4 8-3 7-4 7-3 5-3 4-3 2-4 3-3-3v-5l1-4 2-4 3-5 2-7 5-6 4-7 5-8 24-32 14-18 7-8 7-9 7-8 6-8 5-7 5-6 3-4 3-3-6 3-4 4-4 5-5 7-6 6-5 8-6 9-5 9-4 10-5 10-8 22-4 20-1 10 2 16 2 6 4 5 5 5 6 3 8 2 7 1h9 10l10-1 9-2 18-6 14-8 8-11" style="clip-to-self:true;comp-op:src"/>
<path transform="scale(.1)" d="m5845.5 8379.6h-5-3-4l-8 2-4 2-10 6-5 4-5 5-5 6-10 14-10 18-4 11-4 12-3 13-2 13-2 15-1 15v16l1 16 2 15 3 15 4 14 5 12 7 12 16 20 20 16 11 8 20 12 10 5 16 6 17 5" style="clip-to-self:true;comp-op:src"/>
<path transform="scale(.1)" d="m6231.3 8336.5 2-8 5-1 10 5 10 6 6 4 12 10 6 7 7 8 7 9 6 10 6 11 5 12 5 13 4 14 3 14 2 15 1 16v16l-1 18-2 17-4 17-3 16-5 16-5 13-6 13-12 20-7 8-8 6-7 6-8 5-8 4-9 3-10 3h-11l-28 1" style="clip-to-self:true;comp-op:src"/>
<path transform="scale(.1)" d="m4668.3 8825.3-3-2-4-3-3-2 4-1h6l4-1h6l8-1 10-1h12l14-1 18-1 19-2 22-1 25-1 26-2 28-2 30-2 32-1 34-2 35-1 38-1 40-1 41-1 43-1h130 44 46 46 47l46-1 93-1h46l46-1h46l92-2 45-1 43-2 43-1 40-2 39-1 37-1h35l34-1h31 54 23l21 1h18l16 1 14 1h11l9 1 7 1 4 1v3l-2 1-12 3h-10l-6-1-14-1" style="clip-to-self:true;comp-op:src"/>
<path transform="scale(.1)" d="m5396.8 9029.3-2-5v-3l1-4 3-3 3-4 12-6 18-8 11-3 12-3 26-6 12-2 13-2 24-2 10 1h10l9 3 8 3 7 3 5 5 4 7 2 7 1 8-1 9-2 10-5 11-5 12-6 13-16 26-9 13-9 12-9 11-16 20-8 9-14 16-5 6-4 6-4 5-2 4-1 3 3 6 3 2 4 2 6 2 7 1 9 1 10 1h11 12 12 14l13-1h14 28 13l12 1h11l9 1 8 1 6 1 9 3" style="clip-to-self:true;comp-op:src"/>
</g>
<g stroke="#f0f" stroke-width="14.1">
<path transform="scale(.1)" d="m7362 8492-1-4v-4l-2-4-1-4-1-3-2-4-3 4v4 5l-1 7v8l-1 9-1 11v13l-1 14-1 16-1 17-1 18-2 17-1 17-2 16-1 15-1 13-2 12-1 10-2 9-1 7-1 6-1 5-2 3-3 4-3 2-4-1-4-4-2-3-2-10-1-7v-7l2-20 1-12 3-14 2-15 3-16 4-19 6-19 5-19 14-40 8-19 9-17 9-16 10-16 9-13 9-11 9-9 8-7 8-5 6-3 6-2h6l4 2 4 4 2 3 4 12v7 7l-1 9-2 8-2 10-3 10-4 10-4 11-5 11-5 10-5 9-6 10-5 8-6 7-5 7-6 5-5 4-10 6-4 2-4 1h-3l-4-1-2-6v-5l2-7 7-20" style="clip-to-self:true;comp-op:src"/>
<path transform="scale(.1)" d="m7563.4 8288.4-4 2-2 3-3 4-2 5-4 6-2 7-4 8-3 9-3 10-3 11-2 11-2 13-2 14-1 14-1 15v15 14 15l1 15 3 28 4 24 3 11 3 9 4 8 4 6 3 5 4 3 4 1 4-1 3-2 8-12" style="clip-to-self:true;comp-op:src"/>
<path transform="scale(.1)" d="m7601.4 8407.9 2 3-1 5-2 6-1 8-2 8-4 20-1 10v10l-1 11v20l1 10 1 8 2 8 3 6 2 5 3 4 3 3 3 1 4 1 4-1 4-2 4-4 5-4 4-6 5-7 4-7 3-8 4-9 3-8 1-9 2-16-1-8v-7l-1-7-2-6-3-5-3-4-2-4-3-3-3-2-4-1h-6l-3 2-4 4-2 3-1 6 2 6 8 6" style="clip-to-self:true;comp-op:src"/>
<path transform="scale(.1)" d="m7811.2 8291.7-3-2-2-2-5-2-4-1h-4l-3 2-4 3-3 3-3 5-4 14-2 8-2 9-1 10-2 22v26l1 15v14l1 16 2 30v16l1 15v14l1 14v12l1 11v10 8l1 6v3" style="clip-to-self:true;comp-op:src"/>
<path transform="scale(.1)" d="m7703.8 8449.7v-7l3-4 6-2 4-1 6-1 7-1 7-2 18-4 11-2 10-2 12-3 11-3 12-3 12-4 33-9" style="clip-to-self:true;comp-op:src"/>
<path transform="scale(.1)" d="m8024.3 8385.5-1 3-1 4v4l-1 5-1 6-2 14-1 8-2 9-5 50-1 11-1 9-1 10v23l1 7 1 4v4" style="clip-to-self:true;comp-op:src"/>
<path transform="scale(.1)" d="m8016.8 8278.6-5 2-2 3-3 3-2 3-3 5-2 5-1 5-2 4v6l-1 4 1 5 1 4 2 4 6 6 5 2 4 2h5 6l5-1 6-2 5-3 5-4 4-4 6-10 2-7v-6-7l-1-7-1-8-3-7-2-7-3-6-4-6-4-5-4-4-10-4h-5-6l-4 3-5 3-3 4-4 5-2 10v5 5l4 12" style="clip-to-self:true;comp-op:src"/>
<path transform="scale(.1)" d="m8151.1 8206.8-4-1-4 3-6 8-2 6-2 7-1 8-1 9-2 9v11l-1 11-1 12-1 13-1 14-1 15v16l-1 17v18 18l-1 19v53l1 17v15l1 15 1 14 1 12 1 11 1 8v4l1 4" style="clip-to-self:true;comp-op:src"/>
<path transform="scale(.1)" d="m8102.7 8445.5 14-14 4-3 10-6 6-4 7-3 7-4 8-4 8-3 24-12 7-4 19-8" style="clip-to-self:true;comp-op:src"/>
<path transform="scale(.1)" d="m8463.2 8165.4 1-3 2-8 1-3v-3 6l-1 6-2 8-2 9-3 11-2 14-3 15-3 17-4 18-8 40-3 20-8 40-2 20-3 21-1 20-1 19v19 36l1 43" style="clip-to-self:true;comp-op:src"/>
<path transform="scale(.1)" d="m8466.5 8631.8-3 2-4 3-2 3-3 3-2 4-3 4-5 10-1 5-2 5-2 6v5l-1 6 1 5 1 6 2 5 2 4 4 4 3 4 4 3 10 4h5l4 1 10-2 4-1 9-9 1-4 1-5v-5l-2-12-2-6-4-7-3-7-12-12-7-5-8-3-9-2-9-1-10 1-10 3-10 4-9 4-18 12-9 7-8 6-14 13" style="clip-to-self:true;comp-op:src"/>
</g>
<g stroke="#fff" stroke-width="14.1">
<path transform="scale(.1)" d="m1141.4 10192 3-7 2-7 9-30 2-9 4-8 2-9 4-16 2-14-1-6-2-6-2-4-3-4-4-3-10-4h-6l-14 4-16 6-8 5-8 7-8 6-15 15-15 24-2 7-2 8v8l1 7 2 8 4 8 5 7 6 8 6 7 6 8 23 23 8 7 14 14 7 6 6 7 6 6 4 6 4 7 2 6 1 6-1 5-1 6-3 6-4 6-5 6-5 5-6 5-7 4-6 4-8 4-7 3-8 2-14 3-12 2h-5l-4-1-4-2 3-6 3-5 5-5 16-17" style="clip-to-self:true;comp-op:src"/>
<path transform="scale(.1)" d="m1260.7 10242-2 4-2 6-2 8-1 5v5l-3 18v6l-1 6v6l1 6v7l2 12 1 5 2 5 1 5 6 12 1 3 3 3h4l2-6 2-13" style="clip-to-self:true;comp-op:src"/>
<path transform="scale(.1)" d="m1267.7 10158-3-3-2 4v6 4 5l1 4 2 11 1 4 2 5 3 13" style="clip-to-self:true;comp-op:src"/>
<path transform="scale(.1)" d="m1332 10253v5 5l-1 7-1 4v5 5 10l-1 4v30l1 5 1-4v-3l2-10 2-12 4-14 2-8 6-16 8-16 8-14 9-9 5-3 4-1h4l4 1 4 2 3 3 3 4 3 5 4 14 2 8 1 9 1 8 1 9v9 9 22l1 5v5l1 5 2 5 1 3 7-8" style="clip-to-self:true;comp-op:src"/>
<path transform="scale(.1)" d="m1707 10262-3-2-5-5-2-3-3-3-2-4-2-6v-4-4l2-8 1-5 5-9 3-4 4-5 4-4 5-4 10-6 6-2 5-2 4-1h5l3 1 4 1 2 2 1 3 1 4v5l-1 6-1 8-3 8-4 9-4 10-4 11-6 11-10 20-6 9-4 9-4 7-5 7-3 7-6 10-1 5-1 4-1 3 1 5 3 4 6 2h5 6 6l8-2 8-1 8-2 18-4 8-2 7-2 7-3 5-1 5-2 4-3 3-2 5-7" style="clip-to-self:true;comp-op:src"/>
<path transform="scale(.1)" d="m1834.7 10202-2-3-4-5-5-5-2-5v-4l2-3 4-3 3-2 8-2h6l5-1 6 1h6l7 2 5 2 6 4 4 3 3 5 3 6 1 7v8 9l-1 9-3 11-3 10-3 11-4 10-8 18-4 7-3 6-3 5-3 4-3 2-3 3-2-3 2-3 2-4 3-5 8-12 6-8 5-8 7-9 6-9 7-10 8-10 7-10 8-11 8-10 8-11 8-10 7-10 6-10 6-8 5-7 3-6 2-3v-4l-4 3-3 3-5 4-6 6-6 7-8 9-7 10-7 11-14 24-5 14-5 13-3 13-3 12-1 12v11l1 10 3 8 3 7 6 6 7 5 8 4 9 3 10 1 11 1h11l11-2 20-4 9-4 7-4 13-10" style="clip-to-self:true;comp-op:src"/>
<path transform="scale(.1)" d="m1713.6 10085-4-10-2-6-2-5-6-8-4-3-4-2-4-1h-9l-5 1-5 2-7 3-6 4-6 5-7 7-8 9-9 11-9 13-9 14-11 16-20 38-10 21-9 22-8 23-6 22-5 22-1 21v20l2 18 5 16 7 14 10 13 11 12 14 10 15 8 17 6 19 5 19 3 20 2 21-1 21-3 23-4 60-15" style="clip-to-self:true;comp-op:src"/>
<path transform="scale(.1)" d="m2030.9 10027-1-4 1-4v-5-4l1-3 3-4 5-1h4l3 1 5 1 5 3 6 3 6 4 7 5 7 7 9 7 9 8 9 9 9 10 10 11 8 12 8 14 7 13 6 15 5 15 4 16 2 17 2 16 1 18-2 34-2 16-2 15-4 13-3 13-5 10-5 9-5 8-11 11-6 5-6 4-5 3-12 4-7 1h-6-8l-15-2" style="clip-to-self:true;comp-op:src"/>
<path transform="scale(.1)" d="m2477.3 10287 3-6 2-3 3-4 8-6 5-2 6-3 7-2 8-3 9-2 9-3 10-4 10-3 10-2 9-3 10-1 9-1 7-1h7l6 1 5 1 4 1 4 3-7 7" style="clip-to-self:true;comp-op:src"/>
<path transform="scale(.1)" d="m2464.1 10331 1 3 5-1 7-1 4-1 6-1 7-2 8-1 8-2 10-2 9-1 11-2 11-1 11-2h11l10-1h9l9-1 8-1 19-2" style="clip-to-self:true;comp-op:src"/>
<path transform="scale(.1)" d="m3009.5 10192 2-7 1-7 2-10 1-9-1-8-2-8-2-7-2-6-3-6-8-10-5-4-5-3-6-3-7-2h-6-7l-7 1-7 2-14 8-7 6-6 6-10 16-5 9-3 9-3 10-2 20 2 22 2 11 3 10 4 10 10 20 6 9 21 24 7 7 24 18 7 6 11 11 4 5 3 5 1 4-1 4-1 3-3 4-4 3-6 3-12 4-7 2-7 1-6 1h-13l-10-2-4-2-6-4-2-3-1-4v-5l1-5 7-16" style="clip-to-self:true;comp-op:src"/>
<path transform="scale(.1)" d="m3079.5 10231 1 6v27 5l1 6v6 6l2 12v7l2 12 1 7 1 6 2 10 2 4 1 4 2 4 2 3" style="clip-to-self:true;comp-op:src"/>
<path transform="scale(.1)" d="m3125.5 10149v-3-4l-1-3 1 4 1 5 1 3v4l1 10v4 6l-1 14" style="clip-to-self:true;comp-op:src"/>
<path transform="scale(.1)" d="m3179.5 10241 3-2 1 3-1 4v6 6l-1 7-2 16-2 9-6 24-1 8-2 8-1 6-1 7-2 10v3l-1 5v-3l1-4 4-10 6-14 5-8 4-9 5-9 6-9 7-10 6-10 7-9 7-8 7-7 7-6 6-4 6-3h5 5l4 3 4 4 3 5 2 8 1 8 1 9 1 10v10l-1 11v10l-1 10v10 8 9l1 8 1 6 2 6 3 4 2 3 3 1 9-2" style="clip-to-self:true;comp-op:src"/>
<path transform="scale(.1)" d="m3483.6 10133 1-4v-3l-4-2-10 5-5 3-5 5-7 6-15 15-7 10-8 11-7 12-7 13-6 15-5 15-5 16-3 16-2 16-1 14v14l2 13 3 12 4 11 5 10 7 9 7 7 9 5 10 5 11 3 10 1h12l12-2 30-8" style="clip-to-self:true;comp-op:src"/>
<path transform="scale(.1)" d="m3551.2 10266-4-3-3-3-2-3 1-4 7-7 4-3 9-5 10-3 6-1h5 6l4 2 5 2 4 3 3 4 2 5 2 7 1 6-1 8-1 9-2 9-3 9-12 27-5 8-4 7-4 6-6 8-4 3v-4l2-3 3-6 4-6 5-7 5-8 7-9 6-9 7-10 8-11 7-11 8-11 7-11 12-20 5-7 3-5 3-4 2-3-1 5-4 10-2 7-2 8-3 8-3 9-3 17-2 9-1 8v8l1 8 2 7 2 6 3 6 4 4 6 4 5 2 7 1 20-2" style="clip-to-self:true;comp-op:src"/>
<path transform="scale(.1)" d="m3754.5 10268 5-1 3 1h22l8-1h8 9l10-1h10l10-1 11-1 10-1h10 8l8-1 7-1 5-1 4-2 5-3" style="clip-to-self:true;comp-op:src"/>
<path transform="scale(.1)" d="m3829.1 10227-2-3-2-5-2-3 2 3 1 7 1 5 2 6v7l1 7v7l1 8v8 8 8l1 8v15 7l2 12 1 5 1 4 2 3 3 2 6-2" style="clip-to-self:true;comp-op:src"/>
<path transform="scale(.1)" d="m3981.6 10247-3-3-2-4-1-5 2-5 4-5 3-2 3-3 8-6 10-5 18-6h7l6-1h6l6 1 4 1 5 3 3 3 2 5 2 7 1 7-2 18-2 11-3 10-3 11-4 11-10 22-6 10-5 9-6 8-5 7-5 6-9 9-4 3-6 4-4 1-1-5 2-4 6-10 4-6 5-7 12-16 7-8 6-9 14-20 6-10 7-11 6-10 5-10 5-9 4-8 5-11 1-3-3 2-1 3-3 5-6 12-4 7-6 16-3 9-3 8-2 9-2 8-1 8v7 8l1 6 2 7 3 6 3 5 4 5 4 4 6 4 6 3 6 2 7 2h8 7l8-1 20-6" style="clip-to-self:true;comp-op:src"/>
<path transform="scale(.1)" d="m4177.8 10177 2-6 5 1 6 2 5 2 4 2 5 3 5 4 6 4 13 13 6 7 5 9 6 10 5 10 8 24 2 12 3 13 1 13v13 13l-2 12-2 11-2 12-4 10-3 9-4 9-5 8-5 7-4 6-5 5-5 4-4 4-5 2-4 2-4 1h-4-4l-3-1-4-1-5-5-4-10" style="clip-to-self:true;comp-op:src"/>
<path transform="scale(.1)" d="m4407.3 10259 5-3 4-2 12-3 6-1 12-1 6-1 7-1h6 5 6l10 2 3 2 3 1 3 3-4 6" style="clip-to-self:true;comp-op:src"/>
<path transform="scale(.1)" d="m4376.8 10331-1 3 6 2h3 5 7l7-1 8-2 9-2 33-6 24-6 13-2 13-3 13-2 12-2 11-2 11-1 8-1 7-2 10-2" style="clip-to-self:true;comp-op:src"/>
<path transform="scale(.1)" d="m4998.3 10234 4-13 9-27 3-10 4-10 3-10 4-10 6-19 3-10 6-27v-8l-2-14-3-6-3-4-4-4-4-3-5-1h-6l-7 1-7 2-9 5-9 6-9 7-10 9-11 10-10 11-10 12-9 14-9 13-8 14-6 14-4 13-3 14-1 13v12l2 11 3 11 5 10 14 16 9 8 9 6 10 6 10 4 11 4 10 4 11 4 10 3 8 3 9 3 7 3 6 3 5 4 3 3 2 3v3l-1 4-2 4-8 8-12 8-7 3-6 4-14 6-6 2-12 2-10 2h-7l-3-2 2-5 2-4 4-4 12-13" style="clip-to-self:true;comp-op:src"/>
<path transform="scale(.1)" d="m5139.6 10245-4 4-6 9-3 5-2 5-1 6-2 5-2 12-1 7v6 5 6l1 6 2 6 1 5 4 10 3 5 3 4 2 3 3 3 3 2" style="clip-to-self:true;comp-op:src"/>
<path transform="scale(.1)" d="m5139.1 10200v-5-3l-1-6 3 1 2 5 2 3 2 4 1 3 2 4 1 4 2 4 3 9" style="clip-to-self:true;comp-op:src"/>
<path transform="scale(.1)" d="m5189.8 10255 2 2 2 4 1 6 1 5v5l1 6v6l1 7 1 6 1 7v6l1 7 4 24 1 4 1 5v3l1 3 1 4-2-3-2-6v-4l-1-5v-6-6-7l2-16 2-8 2-9 4-9 3-9 5-9 10-16 7-8 12-12 7-5 6-4 14-4h6 5l6 2 5 3 4 4 4 5 2 6 3 7 1 8v9 9l-1 9-4 20-2 9-6 18-2 8-3 7-2 7-3 15 4-3" style="clip-to-self:true;comp-op:src"/>
<path transform="scale(.1)" d="m5440 10259-1-4v-6-4l6-12 3-5 9-9 5-4 6-4 12-6 7-2 6-2 7-1h7l5 1 5 2 5 3 3 3 3 5 3 6v7 9 8l-1 9-3 10-3 9-3 10-5 9-4 9-4 8-10 14-5 6-11 11-3 1-4 2-1-4 1-3 2-4 3-5 5-6 10-14 7-8 6-9 8-10 7-10 8-11 14-22 7-10 6-10 6-9 5-8 4-7 3-4 1-4 1-3-3 5-3 4-3 5-4 7-8 18-5 10-5 11-4 10-4 11-3 11-3 10-2 10-1 10v9l2 16 3 7 4 7 5 5 6 4 6 3 8 2 8 1 26-3" style="clip-to-self:true;comp-op:src"/>
<path transform="scale(.1)" d="m5830.9 10173v-4-7l-1-4-2-4-5-1-6 3-8 8-4 5-6 7-5 8-10 22-5 13-4 13-4 14-2 14-2 13-1 13 1 12 2 11 3 10 4 9 5 8 7 7 7 5 8 4 9 3 9 2 9 1 10-1 9-2 10-2 16-6 8-5 12-10 5-6 4-7 3-7 6-16 1-7 1-8 1-7v-16l-1-4-2-2-3 5-2 4-1 5-4 14-1 8-2 18 1 9v8l2 9 2 8 2 7 4 7 4 6 4 5 6 4 5 3 7 3 14 2h7l8-2 7-2 7-3 12-8 5-5 5-6 4-7 3-7 4-16 1-9 1-10v-10l-1-10v-11l-2-11-2-10-2-8-3-7-3-5-4-4-4-1-5-1-5 2-5 3-6 4-5 5-5 7-4 7-6 16-2 8v8 7l1 7 2 6 4 5 3 3 5 4 6 2 5 1 7 1 20-1" style="clip-to-self:true;comp-op:src"/>
<path transform="scale(.1)" d="m6029 10311 6-3 5-3 7-4 6-5 7-6 8-12 4-7 4-6 2-7 4-12 1-5v-5-4-4l-3 2-1 3-1 4v4l1 5v6l3 13 2 6 2 7 4 7 3 6 7 13 4 6 4 7 6 12 2 6 1 5v6l-1 5-2 4-4 5-4 4-12 8-7 2-8 3-7 2-7 1h-7-7-6l-6-1-5-2-4-1-3-3-2-3v-4l4-11" style="clip-to-self:true;comp-op:src"/>
<path transform="scale(.1)" d="m6234.6 10268-1-4-1-6v-3-4l2-3 1-4 3-3 3-4 8-6 4-2 5-2 10-2 5 1 8 4 5 3 3 4 2 4 2 6 1 7v8l-1 8-2 8-2 9-4 9-4 8-4 9-5 8-4 8-4 7-5 6-3 4-4 4-2 3-5 5 1-4 2-4 3-3 4-5 5-6 6-7 23-23 9-10 9-9 9-10 8-10 9-11 7-11 8-10 6-10 6-9 4-8 4-5 2-5 1-3-3 2-7 7-5 6-6 7-7 7-12 18-6 10-6 9-5 9-3 9-4 10-2 8-1 8 1 8 2 7 3 7 5 7 8 5 9 5 11 5 13 3 14 2 15 1h16l40-2" style="clip-to-self:true;comp-op:src"/>
<path transform="scale(.1)" d="m6625.1 10278-6-3-5-3-2-1 3-3h7l5-1 6-1h7 8l18-2h11l11-1h12l11-1h12 23 11l9 1h9 8 13 4l3-1 4-2" style="clip-to-self:true;comp-op:src"/>
<path transform="scale(.1)" d="m6719 10185v-5-8l1 3 1 6v4l1 5v6l1 7v8 9l1 9v10l1 10 1 9 1 10 4 20 3 10 3 8 4 9 3 8 4 6 4 7 11 12" style="clip-to-self:true;comp-op:src"/>
<path transform="scale(.1)" d="m7087.5 10132v-8-5l-1-5-1-4-6-12-2-3-3-4-3-2-3-3-4-2-8-2h-5l-5 1-6 1-5 2-10 8-5 5-3 6-4 5-3 7-2 7-1 7 1 7 1 8 2 8 8 18 6 9 12 20 21 33 13 22 7 11 5 9 5 10 5 9 3 9 3 7 2 7 1 7v5l-1 5-2 4-3 3-3 2-4 3-3 1h-5l-5 1-10-2h-6l-15-6-4-3-5-3-3-3-3-4-5-11" style="clip-to-self:true;comp-op:src"/>
<path transform="scale(.1)" d="m7168.7 10282 2 6 1 5 2 4 1 6 2 5 2 6 1 6 2 6 2 5 4 11 2 5 1 4 2 4 2 8 2 6 1 4-4-1" style="clip-to-self:true;comp-op:src"/>
<path transform="scale(.1)" d="m7193.1 10170 1-2 4 2 4 6 1 4 4 8 1 5 2 5 5 20" style="clip-to-self:true;comp-op:src"/>
<path transform="scale(.1)" d="m7249.4 10214 4 2 2 6 1 5 2 5 5 20 1 7 2 7 2 8 2 9 1 8 2 9 1 8 2 9 1 8 1 7 2 7 2 10v4l1 5-2 3-4-4-3-6-1-4-2-4v-5l-1-6v-6l1-6 1-8 3-7 4-8 5-8 12-18 7-8 8-8 7-6 8-6 7-4 7-3 7-1h5l5 2 5 3 4 4 3 5 4 14 2 9v9 9l-1 10-3 18-1 9-2 8-2 7-3 13" style="clip-to-self:true;comp-op:src"/>
<path transform="scale(.1)" d="m7490.2 10251-1-3-1-4v-4l4-5 2-3 4-4 10-6 7-4 6-2 8-2 7-1 7 1h7l7 3 6 3 6 5 4 6 3 7 2 7v9 8l-2 9-3 10-3 9-4 8-4 9-8 14-4 6-3 5-3 4-5 5 1-4 2-3 6-10 5-6 12-14 7-8 8-9 16-19 8-9 24-33 7-10 6-10 6-8 5-7 3-5 2-3-3 1-3 4-4 5-4 7-5 8-5 9-10 20-8 20-3 10-3 9-1 10v8l2 8 3 7 4 7 6 6 8 6 9 4 10 4 12 3 12 2 13 1h13l13-1 33-5" style="clip-to-self:true;comp-op:src"/>
<path transform="scale(.1)" d="m7915.9 10183-2-2-2-3-4-3-2-3-3-2-4-1h-6l-3 1-3 3-4 3-4 4-4 6-4 7-5 9-4 10-4 11-4 13-2 12-3 12-2 12-1 11v11 11l2 9 3 9 4 7 5 6 6 5 6 4 8 2 9 2 10 1 10-1 11-1 10-2 11-3 20-8 8-5 14-12 10-14 4-8 3-8 2-9 3-7 1-7 1-6v-4l-1-5-5 3-2 4-2 5-3 6-2 7-2 16v8 8l1 8 2 8 6 12 5 5 5 4 7 4 7 2 8 2h8 9l20-4 8-3 9-4 8-5 6-5 6-7 8-14 1-9 1-8 1-10-1-11-1-10-6-22-4-10-5-8-6-7-6-5-7-3-7-1h-8l-8 2-9 3-7 5-7 6-12 16-3 9-2 10-1 9v9l4 16 3 7 5 6 14 13" style="clip-to-self:true;comp-op:src"/>
<path transform="scale(.1)" d="m8185.3 10286 5-7 4-6 5-10 5-11 3-11 4-20v-8l-1-7-2-7-3-4-4-4-4-3-10-2-6 1-6 2-6 4-6 5-5 5-4 8-3 7-2 9v8l1 9 2 9 4 8 5 9 6 8 6 7 8 8 8 7 8 6 9 7 16 12 14 10 5 5 3 4 1 5v4l-1 3-4 4-5 3-6 2-8 2-7 2h-8l-8 1-8-1h-8l-14-4-10-6-3-5-2-13" style="clip-to-self:true;comp-op:src"/>
<path transform="scale(.1)" d="m8362.7 10260-3-4-2-6v-6l1-3 4-5 3-3 6-3 3-1h4 3l4 1 3 2 6 6 2 3 2 10-1 6v6l-1 5-2 7-3 7-9 18-3 5-4 4-2 4-3 3-4 3-4-2v-3l3-7 5-10 4-6 5-6 5-7 6-7 6-8 7-8 8-8 21-24 6-8 6-7 5-8 4-5 6-9 1-4-5 4-4 3-8 10-10 14-5 9-5 8-4 10-4 9-3 9-2 9-1 9-1 8 1 8 2 8 2 7 5 7 6 6 7 6 8 5 18 8 9 2 21 1" style="clip-to-self:true;comp-op:src"/>
<path transform="scale(.1)" d="m4507.3 10898 1-3 3-1h6l5-1 6-1h6l8-2 8-1 8-2 9-1 10-2 10-1 9-1h8l8-1h15l5 1h4l7 4" style="clip-to-self:true;comp-op:src"/>
<path transform="scale(.1)" d="m4510.1 10976 3 2h5 3l10-2 6-1 8-2 9-3 20-6 24-6 13-3 36-9 11-4 29-9" style="clip-to-self:true;comp-op:src"/>
<path transform="scale(.1)" d="m4954.1 10846-3-2-2-3-4-3-6-8-3-3-2-5v-5l4-5 3-2 4-2 5-2 6-1 7-2h8l8-1 18 2 16 4 8 4 6 4 6 5 5 7 4 7 3 8 2 20v10l-6 36-4 13-4 11-5 11-4 11-6 10-6 9-12 14-7 7-6 5-7 5-6 4-6 3-5 3-4 2-2 2-4 2 4 1 6-1 5-1 12-2 8-1 7-1 8-1 9-1 8-1 9-1h8 9 25 8l7 1h7l6 1h11l10-1" style="clip-to-self:true;comp-op:src"/>
<path transform="scale(.1)" d="m5280.4 10872 4-5 4-4 5-6 9-13 5-6 3-7 4-6 3-7 1-6 2-6 1-5-1-5-1-4-2-3-2-2-3-1h-4l-5 1-6 2-5 3-6 3-18 15-5 7-4 7-3 6-3 8-1 7-1 6 1 8 4 14 3 7 5 7 5 6 6 6 7 6 7 5 8 6 14 10 6 6 6 5 5 6 3 6 1 5 1 6-1 6-2 5-3 5-5 6-5 4-7 5-8 4-24 9-9 2-8 1-7 1h-6l-5-1-4-1-4-3 3-6 4-4 6-5 7-6 8-7 9-8 25-21" style="clip-to-self:true;comp-op:src"/>
<path transform="scale(.1)" d="m5373.8 10895 2 2 3 6 1 4v4l1 5 2 6 1 5 1 6 3 12 1 7 2 5 2 6 1 5 2 6 2 5 4 8 8 8 5 3 2-2 1-6" style="clip-to-self:true;comp-op:src"/>
<path transform="scale(.1)" d="m5425.4 10836 3-2h4l3 4 4 5 2 5 2 4 1 3 2 11" style="clip-to-self:true;comp-op:src"/>
<path transform="scale(.1)" d="m5463 10878 1 5 1 4v5l2 12 1 7 3 24v8l2 16v7l1 7v6 10l1 4v5l-2-3 1-8v-5l2-6 2-7 3-8 4-9 4-10 5-11 7-11 6-12 8-11 7-10 8-10 15-15 6-5 6-3 5-2 5-1 4 1 8 4 3 5 4 5 3 6 3 7 4 16 2 9 2 20v21l-1 10v9l-1 8v7 16" style="clip-to-self:true;comp-op:src"/>
<path transform="scale(.1)" d="m5715.9 10881-1-4v-5l2-5 6-6 4-2 4-3 6-2 10-4 6-1h6 6l5 1 5 2 4 2 4 3 3 4 2 5 1 5v7l-1 7-2 7-2 9-4 8-12 27-5 8-4 7-8 12-3 3-2 4-6 4-1-5 1-3 2-4 3-5 3-7 5-7 5-8 12-18 7-9 8-10 8-9 16-20 9-9 14-18 6-7 5-6 3-5 3-4 2-4-5 3-2 3-4 4-3 4-5 6-8 14-8 16-3 9-4 10-4 20v10 10l2 10 3 9 5 8 7 7 8 6 10 6 11 4 12 3 13 2h15 14l15-2 35-7" style="clip-to-self:true;comp-op:src"/>
<path transform="scale(.1)" d="m6195.7 10816-2-8-2-6-1-7-4-12-3-5-2-6-6-8-3-3-4-3-3-1-4-1h-4l-4 2-4 3-4 5-5 6-9 18-8 24-3 13-2 14-2 15-1 14v16 14l2 15 3 14 3 12 5 11 5 9 13 13 8 3 8 2h8 8l16-6 8-5 7-6 7-8 6-8 5-9 4-10 3-11 4-20 1-10v-8-8-7l-1-5-1-4-3-4-3 1-1 3-1 5-1 6-2 16v9l2 20 6 20 4 9 4 8 5 7 6 6 6 5 7 4 8 3 8 1h9l9-1 9-2 9-4 8-4 8-6 6-6 5-7 5-8 2-9 1-9v-9l-1-10-1-9-6-20-3-9-5-9-4-8-5-7-6-5-5-4-6-3-6-1h-5l-6 1-5 3-5 4-3 5-3 6-3 7v7 9l2 8 3 7 3 8 5 7 6 8 6 6 7 5 8 5 9 3 9 2h26" style="clip-to-self:true;comp-op:src"/>
<path transform="scale(.1)" d="m6431.8 10883 8-12 5-8 4-7 2-8 2-7 1-6-2-12-2-5-4-3-3-3-10-4h-5l-12 2-5 3-6 4-5 4-5 6-3 5-2 6-1 6 1 7 2 6 3 7 4 7 12 14 7 7 8 6 8 7 8 6 9 6 8 6 7 6 6 5 5 5 3 5 2 4 1 4-1 3-2 3-5 3-4 2-6 2-14 2-8 1-21-3-7-3-6-4-5-4-13-14" style="clip-to-self:true;comp-op:src"/>
<path transform="scale(.1)" d="m6559.4 10855v-5l1-8 2-4 2-3 3-4 4-3 5-3 10-4 10-2 5 1 4 1 5 2 3 3 3 4 2 5 2 12 1 7-1 8-1 17-2 9-4 16-4 14-2 5-1 5-1 3-2 4v-5l1-4 1-5 2-7 3-8 2-8 4-9 3-9 8-20 3-9 5-10 8-20 5-10 4-9 5-9 3-8 3-6 1-4 1-5-3 3-2 4-3 4-3 6-3 7-3 8-3 9-2 9-2 10-2 11-1 10v11l1 11 2 11 2 10 4 10 4 9 5 8 7 8 7 7 8 6 18 8 10 2 10 1 26-3" style="clip-to-self:true;comp-op:src"/>
</g>
</g>
</g>
</svg>
