<?xml version="1.0" encoding="UTF-8"?>
<svg width="1e3pt" height="900pt" version="1.2" viewBox="0 0 1e3 900" xmlns="http://www.w3.org/2000/svg">
<g id="surface25">
<rect width="1e3" height="900" fill="#2e3436"/>
<g fill="none" stroke="#fff" stroke-linecap="round" stroke-linejoin="round" stroke-miterlimit="10">
<g stroke-width="14.1">
<path transform="scale(.1)" d="m3888.3 346.21-3 2-1 3-2 4-2 6-2 8-3 9-3 10-2 13-3 13-3 16-3 17-4 18-9 60-6 38-2 18-2 17-3 15-2 13-2 12-2 10-1 9-2 6v5l-2 8-4-3v-3l-1-4-1-14" style="clip-to-self:true;comp-op:src"/>
<path transform="scale(.1)" d="m3864.3 402.66 1-6 2-6 2-8 3-8 4-8 5-8 6-8 8-9 8-7 18-14 10-5 10-6 9-4 9-3 8-2 8-1h7l6 1 5 3 4 3 2 6 1 7 1 9-1 11-2 11-3 13-4 13-10 28-12 28-7 13-16 26-18 22-19 19-9 7-18 12-16 8-14 6-10 2h-4-3l1-4 6-4 10-4 6-2 7-1 8-1h8l9 1 18 4 10 3 8 4 9 4 8 5 7 6 7 7 6 7 5 8 8 16 3 7 6 16 4 12 1 5 2 3 1 5" style="clip-to-self:true;comp-op:src"/>
<path transform="scale(.1)" d="m4020.5 601.41v4l4 10 4 4 4 3h6 4l3-2 5-1 10-6 6-4 12-10 10-12 5-7 3-6 3-7 1-6 1-7v-5l-1-5-6-6-4-2h-4-5l-5 2-6 3-6 5-6 6-5 7-6 9-5 9-5 11-4 11-3 11-3 12-2 11-1 12v11 11l2 10 3 10 3 8 6 7 5 5 7 4 8 3h8 9l9-2 10-4 9-5 24-18" style="clip-to-self:true;comp-op:src"/>
<path transform="scale(.1)" d="m4209.2 385.43-4 3-1 3-1 5-4 14-2 10-2 12-3 13-3 17-3 18-3 20-3 22-4 21-3 22-2 21-2 20-2 38 2 32 3 15 3 11 4 10 5 7 5 4 5 3 7 1 7-1 8-2 9-4 9-5 10-6 11-8 11-9 12-9 11-9 20-20 9-10 7-9 7-10 5-9 4-9 3-9 2-7 2-14-1-6-1-5-3-3-2-3-3-3-4-1h-4l-4 1-5 1-5 3-6 4-17 17-6 8-5 8-6 9-4 8-4 9-3 9-3 8-2 8v7 6l1 6 2 5 3 4 4 3 3 2 4 2h5l10-2 12-6 6-4 6-5 5-5 6-4 4-4 5-3 3-3 3-1 5-1 4 2 2 5 1 4 2 3 1 5 2 4 3 4 2 5 3 4 8 6 5 2 5 1h6l7-1 7-2 6-4 8-4 7-5 13-13 6-8 6-9 6-10 5-11 5-12 11-36" style="clip-to-self:true;comp-op:src"/>
<path transform="scale(.1)" d="m4498.6 405.7v-3l1-5 1-7 1-8v-5l-1-3-3-1-4 5-2 6-1 6-2 8v9l-1 11-1 12-1 14v15l-2 34v19 19l-1 18v19 34 16l2 28 1 12 1 11 2 9v8l2 5v5l1 3-4-8" style="clip-to-self:true;comp-op:src"/>
<path transform="scale(.1)" d="m4399.9 589.77 2-3 3-3 4-5 10-8 12-10 8-5 8-6 9-6 10-6 11-6 10-7 11-6 11-7 10-5 10-4 9-3 8-2 7-1h6 5l3 1 7 6" style="clip-to-self:true;comp-op:src"/>
<path transform="scale(.1)" d="m4593.9 546.68v-3 25 7l-1 9-2 20-3 33-1 12v11 21 10l2 14 1 5 2 8 2-5 2-14" style="clip-to-self:true;comp-op:src"/>
<path transform="scale(.1)" d="m4617.3 464.77v-11l1 4v8l-1 3v4l-1 5-2 15" style="clip-to-self:true;comp-op:src"/>
<path transform="scale(.1)" d="m4696.4 568.63-4 3-8 8-3 5-3 6-4 6-6 14-4 8-3 7-2 9-3 7-2 16v7 7l4 10 2 4 4 4 4 2 4 1h4l6-1 5-2 6-2 5-4 6-5 6-4 5-5 4-7 5-6 3-7 2-7 2-8 1-8v-8-9l-1-9-1-8-2-8-2-7-3-7-4-5-3-4-4-2-5-1h-4l-4 2-5 3-3 3-4 5-3 4-2 6v5 5 4l4 11" style="clip-to-self:true;comp-op:src"/>
<path transform="scale(.1)" d="m4805.1 573.83 3-3 2-3v3 3l-1 3-1 5v6l-2 6-2 14-2 9-1 8-2 9-1 9-1 8-1 9-1 7-2 12v5 8l3-3 2-3 3-4 6-12 6-16 4-9 4-10 4-9 6-11 5-11 14-24 8-11 9-12 9-10 9-9 8-7 7-5 7-4 6-1 5 1 3 2 3 5 2 6 2 7v8l1 9v9 9 10l-1 10v9 33 6l1 5 2 4 2 3" style="clip-to-self:true;comp-op:src"/>
<path transform="scale(.1)" d="m5017.8 508.71 9-15 2-4v-3l-4 4-8 16-4 6-11 22-2 7-2 8-2 6v7l-1 7 1 6 4 12 3 7 5 6 5 5 6 5 7 6 21 15 6 6 6 4 4 6 4 4 4 10v5l-4 8-4 4-4 3-14 8-9 4-10 2-11 2-12 1-31-1" style="clip-to-self:true;comp-op:src"/>
<path transform="scale(.1)" d="m5397.7 402.66-1-4v-4-3l-2-4-3 6-1 5-1 8-2 8-3 11-3 13-3 15-4 16-5 19-10 40-5 22-5 21-4 20-4 19-4 18-3 17-2 14-2 13-1 11-1 8v6 4l3-5 1-7 2-8 3-11 2-11 3-13 4-28 3-15 1-17 2-17 2-19 2-20 2-21 2-22 3-22 8-44 4-20 5-20 6-16 5-15 9-18 4-5 3-3h5l3 4 3 6 3 8 2 10 3 12 3 14 2 16 3 17 1 19 3 20 2 21 1 22 4 44 2 20 3 20 2 19 6 32 3 13 3 11 3 9 2 8 3 7 3 5 2 4 3 4" style="clip-to-self:true;comp-op:src"/>
<path transform="scale(.1)" d="m5311.9 590.62v-9l1-3 4-6 3-2 16-8 8-3 9-2 9-3 9-2 10-2 11-3 9-1 10-2 9-2 9-1 8-2 21-5" style="clip-to-self:true;comp-op:src"/>
<path transform="scale(.1)" d="m5513.6 539.34h4l6-1 3 1 4 1 4 2 3 2 5 4 4 5 3 6 4 6 3 8 3 9 2 9 2 11 1 11 1 12 1 11v23l-1 11v9 7 15l-2-6v-6l1-6 1-7 1-9 1-8 1-10 2-10 3-10 3-12 3-11 4-12 6-13 6-12 6-11 6-10 6-9 6-6 6-5 4-4 5-2 9 1" style="clip-to-self:true;comp-op:src"/>
<path transform="scale(.1)" d="m5695.1 574.69-3 2-5 5-2 3-3 5-2 6-4 6-2 6-4 7-6 14-2 7-2 8-2 14 1 7v7l2 6 2 5 3 4 3 3 8 4 10-2 6-2 6-3 12-10 6-6 6-7 5-7 4-9 3-8 3-10 2-9 1-10v-10l-1-10-1-9-2-8-3-8-2-6-5-5-5-4-5-1-6-1-7 2-6 2-7 4-7 6-12 12-5 7-6 14-2 7-1 7v5l6 12" style="clip-to-self:true;comp-op:src"/>
<path transform="scale(.1)" d="m5788 570.39 1-4v-3l-3 5-1 3-2 10-2 12-2 7v7l-1 6v8l1 7v7l2 7 1 6 3 6 2 6 3 4 6 6 4 1h4 4l4-2 3-2 5-4 8-10 5-7 3-6 8-14 4-8 3-8 4-7 3-8 2-6 3-6 2-5 2-4 2-3 2-5 4 2 2 6 2 10 1 6 2 14 1 8 1 7 2 7 2 8 2 7 6 18 2 4 3 4 2 3 3 1 5 1 4-2 3-2 6-12 6-14" style="clip-to-self:true;comp-op:src"/>
<path transform="scale(.1)" d="m5984.9 585.9-3-3-2-4-2 4v8 4 6 6 30 8l1 8v8l1 7 2 12 1 5v4 3l1 3 1-6 1-3v-4l1-6 2-6 1-7 1-8 2-8 4-18 3-9 4-10 3-9 4-10 4-9 5-8 5-7 4-5 5-5 4-2 3-1 4 1 4 2 3 5 2 5 2 7 2 9 2 20v11l1 12 1 11 1 12 2 11 4 20 3 9 3 8 10 13" style="clip-to-self:true;comp-op:src"/>
<path transform="scale(.1)" d="m6208.6 582.46-1-3-1-4-2-5-3-4-2-3-4-1h-3-4l-3 1-4 3-5 3-5 4-6 5-12 12-6 7-5 8-6 9-10 18-3 9-3 8-2 16v8l2 12 3 5 4 5 4 3 5 2h5 6l6-2 7-3 14-10 7-6 7-8 7-9 6-9 6-10 5-11 5-12 4-13 3-14 3-16 2-17 2-18 2-19 2-40v-35l-1-15-1-12-1-9-1-7-2-4-2-3-4-3-3 4-2 4-1 5-2 8-2 9-1 11-2 12v15l-1 16-2 36v19 38l1 18 1 17 4 34 4 16 4 14 3 14 5 13 4 11 5 9 15 15" style="clip-to-self:true;comp-op:src"/>
<path transform="scale(.1)" d="m6575.5 413.87v6l-1 6v7l-2 9-2 22-2 13-2 14-1 16-2 15-1 16-2 16-1 17-2 30 1 14v13l1 11 2 10 2 8 2 6 1 4 4 3 4-3" style="clip-to-self:true;comp-op:src"/>
<path transform="scale(.1)" d="m6644.1 409.57-1 6-1 4v5l-1 6-1 7-1 8-1 9-1 10-1 11-2 12-1 13-2 28-2 16-4 64-1 15v15l-1 15v24l1 11v9l1 7v5l2 8v-6-14" style="clip-to-self:true;comp-op:src"/>
<path transform="scale(.1)" d="m6455.3 400.94-3-3-3-5-1-3 1-3 4-3 6-2 3-2 10-2 7-1 8-2 10-1 11-2 12-2 15-1 16-3 17-2 40-4 21-3 22-2 42-4 21-3 38-4 17-2 15-1 14-1h11 9 8l4 1-4 3-8 3-29 5" style="clip-to-self:true;comp-op:src"/>
</g>
<path d="m373.16 92.477h308.51" stroke-width="1.41" style="clip-to-self:true;comp-op:src"/>
<g stroke-width="14.1">
<path transform="scale(.1)" d="m927.03 1458 1-3v-3-14-4l-1-4-2-3-1-4-4-6-5-4-3-1h-3-4l-4 2-5 3-6 4-6 6-7 8-8 10-8 11-8 12-8 13-8 14-8 13-6 14-6 13-4 13-4 12-4 22-1 10 1 9 1 8 2 8 4 6 3 6 5 4 6 3 6 2 6 1h8 8l8-3 9-2 9-4 8-4 9-5 18-12 7-6 8-7 7-7 5-6 6-6 4-6 3-6 6-10 1-3v-3-3l-4 2-4 6-2 4-2 5-6 18v6l-1 5 2 12 1 4 3 4 3 3 3 2 5 1h4 6 7l8-3 8-2 9-5 10-4 9-5 10-7 9-6 8-6 13-13 5-7 4-7 3-7 3-21-2-14-4-10-3-5-3-3-4-2-5-1h-4l-12 4-6 4-6 5-7 6-6 6-6 7-5 8-4 7-4 8-3 7-2 14 1 5 3 5 3 4 5 3h6 16" style="clip-to-self:true;comp-op:src"/>
<path transform="scale(.1)" d="m1183.8 1483.9-5-1h-6-6l-3 1-4 2-3 1-2 2-6 4-2 3-2 2-1 3-1 4v3l1 8 1 4 3 9 3 4 3 3 3 5 3 4 7 7 9 12 2 4 1 4 2 4 1 4v5l-1 4-2 4-2 5-3 4-4 4-4 5-5 4-12 8-6 3-7 3-6 3-6 1-5 2-5 1-4 1-3 1h-5l-1-4 4-12" style="clip-to-self:true;comp-op:src"/>
<path transform="scale(.1)" d="m1345.7 1442-1-5v-4l-1-6v-6l-2-4-2-8-2-3-2-2-4-3h-4l-3 1-3 2-4 4-4 5-5 7-6 9-6 10-6 13-7 13-7 15-6 15-7 16-6 15-10 32-3 16-3 15-2 16v13l1 13 2 11 3 11 4 8 6 7 6 6 7 5 8 3 9 2 9 1 11-1 11-2 13-2 26-10 13-6 14-8 32-20" style="clip-to-self:true;comp-op:src"/>
<path transform="scale(.1)" d="m1546.4 1435.5 2-4 1-3 1-4 2-4v-4l2-6-3 6-2 5-2 7-3 8-6 20-3 12-3 11-3 13-4 24-1 12-2 22v9l1 9 1 8 2 7 2 6 3 5 3 4 3 3 4 2 3 1h4l4-1 12-12" style="clip-to-self:true;comp-op:src"/>
<path transform="scale(.1)" d="m1605.3 1439v-3l1 3 1 6v3 4 4l1 5-1 5v6 6l-2 14v8l-4 32-1 7-2 16-1 6-1 7v6l-1 6-1 5-2 8-4 1" style="clip-to-self:true;comp-op:src"/>
<path transform="scale(.1)" d="m1494.2 1441.2-2-6-4-16v-4l1-4v-4l2-4 1-4 6-8 4-4 5-4 5-3 7-5 7-4 8-3 10-4 10-3 22-8 24-6 12-2 11-3 12-2 11-1 10-2h9l9-1 8 1h8l6 1 5 2 4 1 3 2 1 4-5 4-9 4" style="clip-to-self:true;comp-op:src"/>
<path transform="scale(.1)" d="m1720.8 1548.5-5-1-5-2h-5-3 3 6 4l14-2 8-1 10-1 11-2 11-1 11-2 12-2 11-2 10-1 10-2 9-1 8-2 8-1 14-2 5-1 8-2h4l-1-4-9-7" style="clip-to-self:true;comp-op:src"/>
<path transform="scale(.1)" d="m1809.9 1459.3v-3l-3 4-2 5-1 3-2 5-2 4-4 12-2 7-3 8-2 7-3 9-2 8-1 9-4 18-1 10v9 9 8l1 8 2 7 2 6 1 6 3 5 2 4 2 3 6 3" style="clip-to-self:true;comp-op:src"/>
<path transform="scale(.1)" d="m1997.6 1490.7-4-1-5-1-6-4v-4l3-4 6-4 5-3 10-4 6-2 7-1 6-1h7 6 7l5 2 6 2 4 2 4 4 3 4 2 5 1 7v7l-1 7-2 9-3 9-4 10-4 9-5 10-5 8-5 9-6 7-5 6-9 9-4 3-6 3-4-2 1-3 2-4 3-5 4-5 10-14 14-16 8-9 36-36 11-9 10-9 10-8 9-8 9-7 7-6 5-4 4-3 3-2v3l-3 3-3 4-4 5-12 14-7 7-7 8-6 9-7 9-5 8-4 9-4 8-2 8-2 7v7l1 6 4 12 4 4 5 4 6 4 7 2 7 1 8 2h8l10-1 9-1 9-3 8-2 20-8" style="clip-to-self:true;comp-op:src"/>
<path transform="scale(.1)" d="m2276.9 1389 2-3 4-4 5-2h4l4 1 10 2 6 3 7 2 6 3 7 4 7 6 6 6 7 8 5 9 6 10 4 11 4 13 2 12 2 14 1 14-1 14-4 30-3 15-4 15-5 13-5 14-5 12-6 11-6 10-5 8-7 7-6 7-7 5-6 4-6 3-5 3-6 2h-5l-5 1-4-1-8-4-2-4v-14" style="clip-to-self:true;comp-op:src"/>
<path transform="scale(.1)" d="m2529.8 1530.9 3-4 3-2 3-1 10-4 7-2 7-1 16-4 9-2 8-1 15-3h7 7 5l5 1 4 1 3 3-5 8" style="clip-to-self:true;comp-op:src"/>
<path transform="scale(.1)" d="m2492.5 1615.8 12-3 6-1 6-2 7-2 16-4 9-3 10-2 10-3 10-2 11-2 12-1 30-3 8-1 18-4" style="clip-to-self:true;comp-op:src"/>
<path transform="scale(.1)" d="m3024.6 1459.3-4-1-5 2-3 1-4 3-8 10-6 7-5 8-12 20-6 12-12 26-5 14-8 28-3 14-2 13-1 12 2 22 3 10 3 8 5 6 5 4 6 3 7 1h8l8-2 18-6 18-10 9-6 9-7 8-8 7-8 7-9 6-8 4-9 5-9 3-8 3-7 2-7 1-7 1-5v-4-4-4l-3 4-1 3v5l-1 5v6l1 7v7l2 8 2 6 4 6 3 7 5 5 6 5 6 4 7 3 16 4h9 10l10-1 11-2 20-6 9-4 8-5 7-5 6-5 5-6 3-6 2-7v-6-7l-2-7-2-8-3-7-4-7-4-6-5-7-12-10-6-4-14-6h-8-7l-8 1-8 3-9 5-7 5-7 7-6 7-5 7-4 8-3 7-2 7v7l2 6 3 5 4 4 4 3 7 3h18" style="clip-to-self:true;comp-op:src"/>
<path transform="scale(.1)" d="m3381.5 1490.3 3-4-1-3-5-2h-3l-4 1-12 6-4 3-4 4-3 4-2 3-3 5-2 10v5 6l2 12 2 6 2 7 1 7 3 6 2 7 3 6 4 12 1 5 2 12-2 10-2 4-2 5-4 4-10 8-6 3-12 4-7 2-6 1h-6l-6 1h-6l-5-1-5-2-4-2-3-3-6-11" style="clip-to-self:true;comp-op:src"/>
<path transform="scale(.1)" d="m3572.1 1463.6 2-5 1-5-4 8-4 12-3 8-2 9-3 10-2 10-3 10-2 11-2 10-4 21-2 10-2 9v8l-1 8v7l1 6 1 5 1 4 2 3 4 4 4-2 5-4 3-4 2-5 6-16" style="clip-to-self:true;comp-op:src"/>
<path transform="scale(.1)" d="m3632.5 1428.2 3 4v3l1 4v8 5 5 6 6l-3 24-6 30-3 11-6 33-4 20-1 9-1 8-1 6-1 5v3h-5" style="clip-to-self:true;comp-op:src"/>
<path transform="scale(.1)" d="m3478.2 1458.8 2-3 5-5 5-4 5-3 6-4 7-4 8-5 8-4 22-10 13-4 13-5 14-5 30-10 15-4 14-3 15-4 14-3 13-2 12-1h11 10l7 1 7 2 4 3 2 3-2 12" style="clip-to-self:true;comp-op:src"/>
<path transform="scale(.1)" d="m3905.5 1465.7-4-2-3-3-4-2-5-1-4-1h-5l-5 1-4 1-5 2-5 3-4 5-5 5-5 6-6 8-4 8-10 18-3 10-3 11-3 10-2 11-2 20 1 9 1 7 3 7 3 5 4 4 5 3 6 2h7l7-1 8-1 18-8 9-5 10-6 10-7 11-8 9-8 8-9 8-10 7-9 6-9 5-9 4-8 4-6 4-10 1-3-2 2-4 8-1 5-2 6-1 8-2 8v8l-1 9 1 8 1 9 4 16 4 6 4 7 5 5 6 4 7 3 6 2 7 1h7l7-1 7-2 6-2 6-3 6-4 4-5 4-6 6-14 2-16v-9l-4-36-4-16-2-6-3-5-2-5-6-4h-4-4l-3 1-3 2-2 3-3 4-1 4-1 5v5 4l1 5 1 4 2 4 3 3 8 5" style="clip-to-self:true;comp-op:src"/>
<path transform="scale(.1)" d="m4202.5 1467.9 5-10 1-3-2-5-5-1h-4l-5 1-5 2-6 3-5 3-7 4-18 15-5 6-4 6-4 5-3 5-2 6v5 5l4 10 8 10 5 5 6 5 5 5 7 5 6 5 15 15 3 5 2 6 2 5-2 10-3 4-3 5-5 5-5 4-7 4-6 3-8 3-7 1-6 2h-7-6l-5-2-4-2-4-3-7-9" style="clip-to-self:true;comp-op:src"/>
<path transform="scale(.1)" d="m4324.7 1542.5-1-4 1-4 1-3 1-4 2-3 11-11 6-4 10-6 6-3 12-4 6-1h5l5 1h4l4 3 3 3 2 3 2 5v6l-1 6-1 7-3 7-3 9-4 8-4 9-8 16-4 7-3 6-2 5-1 3-2 3-1 3 5-3 3-3 4-3 4-5 5-6 6-5 6-7 7-7 13-14 7-7 6-7 7-8 7-7 6-8 6-7 5-8 5-6 4-6 3-4 2-6-4 3-11 11-4 6-5 5-4 7-4 6-6 14-4 14v7 7 6l3 7 3 5 5 6 6 4 8 4 9 4 11 3 26 4 42 3h14 13 12l10-1 9-1 8-1 13-2" style="clip-to-self:true;comp-op:src"/>
<path transform="scale(.1)" d="m4745.2 1567.9 1-3 2-4 4-2 4-1 10-2 7-1 8-2 9-1 10-2 22-4 13-1 12-1 12-2h12l22-1h36 6l6 1h5l4 1h4l-4 1-4-1-9-4" style="clip-to-self:true;comp-op:src"/>
<path transform="scale(.1)" d="m5222.3 1398.9 1-5 2-5 1-6v-7-6l-2-10-1-4-6-9-4-2-3-1-4-1h-6l-5 1-6 2-7 2-7 4-8 5-7 6-9 7-8 7-8 9-7 9-8 10-7 9-5 9-4 10-4 9-2 9v7l1 8 2 7 3 7 4 6 6 6 6 5 16 10 8 4 18 6 10 4 9 3 7 2 7 3 6 4 4 3 2 4 1 4-1 5-2 4-4 5-5 5-8 5-7 5-9 5-10 5-20 8-11 4-10 4-18 4-9 1-7 1-12-2-3-1-2-6 1-4 11-14" style="clip-to-self:true;comp-op:src"/>
<path transform="scale(.1)" d="m5265.9 1486.4-2 4-3 4-5 5-2 3-1 3-8 12-2 4-1 4-1 5-1 4-2 10v5 13 4l1 4 1 3 2 4 4-1 7-10" style="clip-to-self:true;comp-op:src"/>
<path transform="scale(.1)" d="m5286.1 1455.4-4 6-1 3v3" style="clip-to-self:true;comp-op:src"/>
<path transform="scale(.1)" d="m5350.7 1467-2 3-3 5-6 12-3 5-3 7-6 12-3 7-3 8-2 7-3 8-4 16-2 7-1 8v6l-1 6v4 8l2-4 4-6 4-12 3-6 3-8 8-16 10-18 6-10 7-9 8-9 9-9 8-9 9-8 10-7 16-10 7-3 7-2h6l5 1 5 2 4 3 3 5 2 6 2 14-3 27-1 10-2 9-1 10-2 9v9l-1 8v7l1 5 2 8" style="clip-to-self:true;comp-op:src"/>
<path transform="scale(.1)" d="m5596.4 1448.5 2-3 1 3v8l-1 4v5l-1 5v6l-1 6-2 14-4 32v8l-1 8-1 7v15l1 5v5l2 4 3 5h3l4-5 4-11" style="clip-to-self:true;comp-op:src"/>
<path transform="scale(.1)" d="m5626.1 1474.8 3-6 2-5 3-7 3-6 3-4 1-4 3-3 2 4 1 3v8l-2 12-1 7-2 8-1 8-1 9-2 8-1 9-2 8-1 9-2 16v8l-1 6v6l-1 5v3l-1 4-6-7" style="clip-to-self:true;comp-op:src"/>
<path transform="scale(.1)" d="m5508.8 1408.8 3-4 4-4 4-3 4-2 10-4 14-6 8-3 9-3 9-4 22-6 12-3 13-3 12-2 13-2 11-1h11 9 8l7 1 15 3" style="clip-to-self:true;comp-op:src"/>
<path transform="scale(.1)" d="m6020.9 1466.2 2-2 4-5 6-7 7-10 6-10 5-9 4-9 6-18 2-8v-8-7l-2-6-3-6-5-4-6-4-7-2-10-1-10 1-11 2-12 3-13 5-14 6-15 6-15 9-15 8-14 10-13 10-12 10-10 10-8 10-6 10-4 8-1 9 1 8 2 7 4 7 6 6 8 6 8 5 10 5 11 5 12 5 36 12 11 4 9 5 8 4 7 5 4 4 3 6v5l-1 5-3 5-12 8-9 5-9 3-10 4-10 3-11 3-11 2-10 1-18 2h-8l-6-2-5-1-4-2-1-3 1-5 11-13" style="clip-to-self:true;comp-op:src"/>
<path transform="scale(.1)" d="m6123.4 1492-2 3-3 4-3 2-6 6-2 3-3 4-3 3-3 4-2 3-2 5-2 4-2 5-2 4-1 6v5l-1 5v6l2 10 2 8 2 6 3 4 5-2" style="clip-to-self:true;comp-op:src"/>
<path transform="scale(.1)" d="m6160.2 1459.3 3-3 2-4 1 3 1 5v14l-1 3-2 9" style="clip-to-self:true;comp-op:src"/>
<path transform="scale(.1)" d="m6189 1497.2h4l3 4 1 6 1 3v4 4 10 5 13l-1 6v6 35-9-4l1-4 1-5 1-7 1-6 2-6 3-6 3-7 4-7 5-7 6-7 7-7 8-6 8-5 10-4 9-4 8-3 9-1 7-1 6 1 6 2 4 2 4 4 3 4 2 5 2 10-1 6-2 6-2 7-3 7-4 6-4 7-5 6-4 5-3 5-3 4-2 2" style="clip-to-self:true;comp-op:src"/>
<path transform="scale(.1)" d="m6372.5 1496.8-1-3-2-5v-4l4-5 8-6 6-4 6-3 7-2 8-3 9-2 8-2 27-3 9 1 16 2 6 3 5 3 4 3 2 4v6l-1 5-3 6-4 7-6 6-6 7-7 7-14 12-6 5-10 8-4 2-3 2-4 2-1-4 3-5 4-3 6-4 6-5 8-5 9-6 30-18 11-7 20-14 11-8 10-7 10-8 9-7 14-14 6-5 4-4 2-3-3 2-9 9-5 6-5 7-6 8-6 7-5 9-6 7-4 9-6 16-1 7v7l1 7 3 7 4 6 5 7 7 6 8 5 9 4 10 5 11 3 22 4 27 2" style="clip-to-self:true;comp-op:src"/>
<path transform="scale(.1)" d="m2575.3 2080.9 3-2h12 6l7-1h7l8-1h9l18-2h9l8 1h9l14 2 5 1 5 2 3 1" style="clip-to-self:true;comp-op:src"/>
<path transform="scale(.1)" d="m2587.8 2146.1 4 1 4-1h3l8-2 12-4 14-4 8-2 17-3 18-2h9l7 1h8l7 1 16 1" style="clip-to-self:true;comp-op:src"/>
<path transform="scale(.1)" d="m3045.7 2083.1-8-2 5 1h8 5 7 8l8-1h10l9-1 20-2h9 9l7 1 8 2 7 1 6 2 5 1 5 2 3 2 4 2 2 2 3 2" style="clip-to-self:true;comp-op:src"/>
<path transform="scale(.1)" d="m3335.5 2031.4 3-9v-3l-1-3-4-1-5 2-4 3-3 4-5 4-4 6-10 16-5 9-6 10-10 24-4 12-5 13-6 28-2 13-1 12 1 11 1 10 2 8 4 8 10 10 7 2 7 1h7l9-1 9-2 18-8 9-5 8-6 8-7 7-7 7-8 6-9 5-8 4-9 3-9 4-18 1-7 1-6v-5l-1-4-3-4h-3l-3 5-2 4-2 5-2 6-1 7-1 8v8 8l6 21 3 5 4 5 5 4 5 3 6 2 14 2h8l7-1 16-4 8-4 14-8 5-6 5-5 3-7 2-6 1-7-1-8-1-7-3-8-8-16-6-7-5-7-6-6-14-10-7-3-14-2h-7l-8 1-12 6-10 8-4 10v5l1 5 3 5 4 5 6 4 6 3 7 3 9 3 8 1 10 1h11l11-1 12-1 14-2 14-3 15-4 16-4 15-5 30-12 14-6 12-7 12-6 9-7 8-6 7-6 5-5 3-5 1-3v-4l-3-5-3-1-4-1h-5l-10 2-6 3-5 3-6 3-5 3-5 5-4 5-3 4-3 5-2 12 1 6 1 7 2 6 4 6 4 5 4 6 5 5 12 10 5 5 6 4 12 12 3 4 4 6v3l-2 6-3 2-4 2-5 3-6 2-5 2-14 2-6 1-8 1h-13l-6-1-5-1-5-3-6-7" style="clip-to-self:true;comp-op:src"/>
<path transform="scale(.1)" d="m3773.3 2108.1-4-3-3-3-1-3-2-3v-4-3l4-8 3-4 5-5 5-4 6-4 6-3 7-3 14-4 7-1 6-1 7 1 10 4 4 4 3 4 2 5 1 6v7l-1 8-2 8-2 9-4 8-3 9-8 18-4 6-3 7-4 5-3 4-2 3-3 3v-5l1-4 3-5 3-6 10-14 6-9 6-8 7-9 8-9 7-10 8-9 9-10 9-9 8-10 8-9 9-8 24-24 2-3-5 2-5 4-4 5-6 6-5 7-6 7-6 8-5 9-5 10-9 27-1 8v9l4 16 8 14 7 6 8 5 9 4 11 4 12 2 13 2 28 2h13l13-1 12-1 12-2 28-9" style="clip-to-self:true;comp-op:src"/>
<path transform="scale(.1)" d="m829.34 2727.2v-3l-3-2-5 2-2 3-4 4-3 5-4 7-5 8-4 9-5 11-4 11-5 13-4 14-3 15-3 16-2 16-1 15v15l1 14 6 22 4 9 6 7 6 5 7 4 8 2 9 1 9-1 10-2 10-3 10-4 20-10 9-6 9-7 8-7 7-8 6-8 5-9 4-10 3-9 3-10 2-9 1-9 1-7-1-5-1-4-2-3-4-2-3 1-3 3-3 4-4 4-3 7-4 7-6 16-2 8-1 8v8l1 7 2 7 3 5 8 10 12 6 14 2h9l8-1 9-1 20-6 10-5 10-4 10-6 9-6 8-6 6-6 5-7 3-6 2-7-1-8-2-7-3-7-4-7-5-6-5-5-7-5-6-4-6-3-7-1h-6-8l-7 2-7 3-6 4-7 5-6 5-4 6-4 5-3 6-1 5v5l2 4 3 4 4 3 5 2 7 1 8 1 9-1 11-1 12-2 13-4 14-5 16-6 15-6 38-17" style="clip-to-self:true;comp-op:src"/>
<path transform="scale(.1)" d="m1153.6 2795.3 4-3 3-2 4-2 3-4h-6l-4 1-4 2-4 3-5 2-4 4-4 3-7 7-3 4-2 4-1 5v3l1 4 2 4 6 8 4 3 5 3 5 4 12 6 6 4 6 3 12 8 9 9 3 5 2 5 1 5v6l-1 5-3 6-3 5-5 5-12 10-7 5-8 3-7 4-8 2-7 3-14 2-5 1h-5l-3-1-3-2-2-5v-5l7-14" style="clip-to-self:true;comp-op:src"/>
<path transform="scale(.1)" d="m1414.2 2667.7-5-2h-3l-3 1-5 1-4 2-5 3-5 4-5 5-6 7-6 8-6 9-7 11-6 11-7 13-6 12-6 15-10 30-3 17-3 16-2 18-1 17 1 16 1 14 3 12 4 10 5 8 5 6 8 4 8 3 9 1h10l11-2 12-2 12-4 13-5 24-14 27-22" style="clip-to-self:true;comp-op:src"/>
<path transform="scale(.1)" d="m1526.3 2742.3v-3l1-3 2 5v6 10 7l-1 8-1 9-4 20-2 12-1 11-2 12-3 24-1 10v10l-1 9 1 7v5l1 5 4 3 4-2 3-4 6-14" style="clip-to-self:true;comp-op:src"/>
<path transform="scale(.1)" d="m1584.7 2747.9-3 4v3l-1 4v5l-1 5v7 6 33 9 18l1 9v23 4 4" style="clip-to-self:true;comp-op:src"/>
<path transform="scale(.1)" d="m1488.9 2736.6 2-4 3-4 3-2 5-4 5-2 4-3 12-4 7-3 7-2 8-2 19-4 20-4 20-2 11-1h9 25 6l15 3" style="clip-to-self:true;comp-op:src"/>
<path transform="scale(.1)" d="m1726.1 2810.8-1-3 4-2 3-1 4-1 5-1 6-1 7-2 8-1 9-2 10-2 10-1 10-2 30-3 9-1h9 19 4 8" style="clip-to-self:true;comp-op:src"/>
<path transform="scale(.1)" d="m2013 2747.9 1-4 2-3 4-3 5-3 4-1 3-2 4-1h4 5 4 5l8 4 4 3 2 4 2 5 1 6-1 7-2 16-4 18-3 9-3 10-6 16-4 8-2 7-2 5-2 4-1 4-2 3 5-5 2-5 4-5 5-6 4-8 6-7 6-8 14-16 7-9 21-24 7-7 6-7 5-5 5-4 4-6-4 3-4 2-4 3-4 4-6 4-5 5-5 7-10 12-5 7-6 15-2 6-1 7v7l1 7 3 6 4 5 5 5 6 4 8 4 16 4 10 2h8l8-1 19-4" style="clip-to-self:true;comp-op:src"/>
<path transform="scale(.1)" d="m2245.8 2680.6 5-1 6-1h7l9 1 16 4 9 4 9 3 8 5 7 6 6 6 4 8 4 9 2 9 1 11v11l-2 12-6 26-5 15-6 16-7 16-8 16-8 15-9 15-9 12-8 11-8 9-9 7-6 6-7 4-5 3-5 1h-3l-3-2-2-6 3-14" style="clip-to-self:true;comp-op:src"/>
<path transform="scale(.1)" d="m2474.3 2756.9h4 6l10 2h7 7 8 9 9 10l21-1h32 11l9 1 10 1 7 1 7 2 6 2 4 1 3 1 2 4" style="clip-to-self:true;comp-op:src"/>
<path transform="scale(.1)" d="m2547.1 2850h4l4-1 6-2 4-2 10-4 6-2 6-1 7-3 7-1 8-3 8-1 10-2 9-1 19-2 18-2 8-1 6-1 13-1" style="clip-to-self:true;comp-op:src"/>
<path transform="scale(.1)" d="m3008.8 2698.3-1-3v-3l-1-4-1-3-2-5-3-2-5 1-3 2-4 4-6 5-5 7-6 7-7 10-6 11-7 12-6 13-6 14-5 14-5 15-4 15-3 15-2 15-1 13v13l1 11 2 10 2 8 3 6 5 4 4 4 12 2 7-2 8-2 8-5 9-5 9-7 9-8 9-9 8-10 9-10 8-11 7-11 6-10 6-11 5-10 5-8 2-8 3-7 1-5 1-4v-4l-3 1-2 3-3 3-2 5-3 5-3 7-2 7-1 7-1 8v8 7l2 8 1 6 8 10 5 3 6 2 6 1h8l8-1 8-2 27-12 24-18 5-6 6-7 6-14 1-8-2-14-3-8-3-7-4-8-5-7-4-6-5-5-5-4-6-2-6-1-8 1-7 3-7 5-8 6-7 7-14 16-5 9-4 8-2 9-1 7 1 7 2 7 3 5 4 5 5 3 16 3" style="clip-to-self:true;comp-op:src"/>
<path transform="scale(.1)" d="m3290.5 2718.6 1-4 2-6-2-5h-6l-4 1-4 2-6 2-5 3-6 4-5 4-9 9-3 5-4 10v4 5l2 5 2 4 2 5 4 4 4 5 3 5 5 4 16 20 2 5 3 6 2 6 1 5-2 12-2 6-3 6-10 12-5 5-7 5-6 5-7 4-6 3-12 4-5 2h-4-4l-3-3v-6l6-14" style="clip-to-self:true;comp-op:src"/>
<path transform="scale(.1)" d="m3565.9 2711.6-1-5-1-4-3 3-3 15-2 7-1 7-1 8-1 7-2 18-1 8-4 36-1 7v8 25 4h4l2-3 1-3 3-5 7-14" style="clip-to-self:true;comp-op:src"/>
<path transform="scale(.1)" d="m3628.2 2668.6 1 4v4l-1 4v4l-1 6v5 6l-1 6v7 7 6l-1 7v40l1 9v30 6 14 3l-3 1-7-7" style="clip-to-self:true;comp-op:src"/>
<path transform="scale(.1)" d="m3465.8 2687.1v-4l2-6 6-4 10-4 14-6 9-3 10-3 11-3 12-4 12-3 30-8 16-4 17-4 32-8 16-3 15-3 14-2 12-2 11-1h9 6 5l4 1" style="clip-to-self:true;comp-op:src"/>
<path transform="scale(.1)" d="m3928 2715.1 1-6 1-5 2-7 2-12v-5-3l-3-4-5-1-4 1-4 2-4 3-5 4-5 6-6 7-5 8-12 22-5 12-6 13-5 13-8 26-3 12-2 12-2 20 1 8 1 6 1 5 3 4 6 2 5-1 5-2 6-4 14-10 16-14 9-8 24-27 7-10 6-10 7-9 5-10 5-9 4-8 3-7 3-5 2-4 2-3 1 6-1 5v7l-1 7v9l-1 9v9l1 9 2 9 2 8 3 8 8 14 5 5 6 4 7 3 7 1 8 1 8-1 9-2 8-3 8-4 8-5 7-6 6-7 5-7 5-8 4-9 2-9 1-9 1-11-1-10-2-22-2-11-3-10-3-9-4-8-4-5-5-5-5-2h-7l-6 1-6 3-6 5-7 6-5 7-5 8-3 8-2 10-1 9 1 9 2 9 2 7 4 8 6 6 5 6 14 8 8 3 9 1h10l10-1 27-5" style="clip-to-self:true;comp-op:src"/>
<path transform="scale(.1)" d="m4228.4 2691.8 5-7 4-6 6-16v-6-6l-4-8-3-2-4-2-5-1-5 1-6 1-6 2-7 3-6 4-5 4-6 4-4 5-3 5-2 5v6 6l2 5 3 5 4 6 5 6 5 5 14 10 8 5 15 11 8 5 7 5 6 5 5 6 3 5 2 6v5l-1 5-2 5-4 6-6 5-7 5-8 6-8 4-18 8-9 3-9 2-14 2-6-1-10-2-4-3-2-4-1-5 4-14" style="clip-to-self:true;comp-op:src"/>
<path transform="scale(.1)" d="m4416.6 2743.6 1-5 1-3 1-4 3-4 3-3 5-4 4-4 6-3 6-4 6-3 18-6 5-1h5 4l4 3 4 6 1 5v6l-2 8-2 7-2 9-4 8-5 9-4 9-4 8-5 9-8 16-4 6-2 6-3 5-1 3-2 4 5-1 3-2 4-4 5-6 20-20 7-9 7-8 7-9 7-10 8-10 6-10 7-10 6-11 14-28 3-7 2-5v-4l-1-4-4 2-3 3-3 4-4 4-5 6-4 8-4 7-8 18-3 9-6 30v10 10l1 11 2 9 3 10 4 8 12 14 7 5 8 4 9 2 9 1 10 1h9l9-1 9-2 8-3 7-3 7-4 9-9" style="clip-to-self:true;comp-op:src"/>
<path transform="scale(.1)" d="m4886.1 2729.8 13-4 9-2 10-2 11-2 12-2 13-2 28-4 14-1 14-2h14l12-1h12 10 9l14 2 10 2 3 2 3 1 4 1" style="clip-to-self:true;comp-op:src"/>
<path transform="scale(.1)" d="m5024 2602.1-4-6-6-6-2 4v3 3l1 6v6 8 9l1 9v11l1 11v106 12l1 13 1 12v12l1 11 1 10v8l1 7v6 5 4l1 4-1-7" style="clip-to-self:true;comp-op:src"/>
<path transform="scale(.1)" d="m5429.3 2638.4 5-7 4-8 6-10 4-10 5-10 3-9 2-9 2-8 1-8 1-6-1-6-2-5-2-4-3-4-4-1-5-1h-6l-6 2-7 3-16 10-9 7-8 8-9 8-7 8-8 10-6 9-5 9-4 9-3 8-1 9v8l4 16 3 8 5 8 5 7 5 6 36 36 4 6 4 5 3 6 2 6 1 6-1 6-2 5-3 6-4 5-6 6-6 5-7 5-16 8-9 3-8 3-16 4-6 1h-6l-5-1-4-1-2-2-2-4 2-11" style="clip-to-self:true;comp-op:src"/>
<path transform="scale(.1)" d="m5528 2675.9 3-1 6-4 2 3v17l-1 6v7l-2 16v8l-1 8-1 16v7 18 4l1 3 1 4h4l3-6 4-10 3-17" style="clip-to-self:true;comp-op:src"/>
<path transform="scale(.1)" d="m5559.6 2609.1 1 3 2 5 2 4 1 3 5 7" style="clip-to-self:true;comp-op:src"/>
<path transform="scale(.1)" d="m5641 2671.1v4 6 5l-1 5v6 6l-1 6v6l-1 6v6l-2 10v4l-1 3v3 3l-1-4v-13l1-6v-6l2-7 4-16 3-8 8-18 6-9 6-8 6-7 6-6 7-6 6-4 7-3 12-2 5 1 6 2 4 3 4 4 3 5 2 7 3 7 1 8 1 17 1 10v36 7l1 6 2 4 1 3 6 2" style="clip-to-self:true;comp-op:src"/>
<path transform="scale(.1)" d="m5877.1 2579.7 3-2 2 3 1 7 2 10v6l1 8v7l1 8v9 9l1 9v10 10 20l1 10 2 18 1 8 2 7 2 5 3 5 3 3 3 2h4l4-1 3-2 7-9" style="clip-to-self:true;comp-op:src"/>
<path transform="scale(.1)" d="m5973.4 2606.4 2 3 1 6 1 4 4 24 3 21 1 8v8l1 8 2 18 3 24v6l1 5v8l-2 3-10-3" style="clip-to-self:true;comp-op:src"/>
<path transform="scale(.1)" d="m5813.4 2595.7-1-5-1-3v-5l2-4 6-4 8-6 6-3 6-4 7-4 9-4 10-5 11-4 12-4 14-4 15-5 16-4 17-3 18-5 17-4 18-5 17-5 42-9" style="clip-to-self:true;comp-op:src"/>
<path transform="scale(.1)" d="m6321.7 2601.7 1-3 3-7 3-10 5-14 5-15 5-14 4-14 3-14 3-12 2-12v-11-9l-2-9-4-7-4-6-5-5-6-4-16-4-9-1-9 1-10 2-10 4-10 5-20 14-10 9-9 11-8 10-7 12-6 13-4 12-4 13-2 13-1 12v12l1 11 2 11 8 20 5 9 12 16 36 36 10 14 4 7 2 6v7 6l-2 6-3 6-8 10-12 8-6 3-7 3-6 1-7 2h-6-5-5l-4-1-3-2-2-4-1-4 2-14" style="clip-to-self:true;comp-op:src"/>
<path transform="scale(.1)" d="m6363.8 2629.7 2 2 5 10 1 4 4 8 2 5 1 4 3 15v5 6l1 6-1 6v6 6 6 4l-1 4v3l-2 3-6-3" style="clip-to-self:true;comp-op:src"/>
<path transform="scale(.1)" d="m6390.2 2608.2 6 6 4 3 5 5" style="clip-to-self:true;comp-op:src"/>
<path transform="scale(.1)" d="m6451 2627.6 2 2 1 3 1 6v4 4 5l1 5v5l1 5v6l1 6v6l1 6v6 6l1 6v5 4 8l-1-3v-7l2-12 1-7 2-7 3-9 3-8 4-9 5-9 6-9 6-8 6-9 7-7 7-6 7-4 6-4 6-2 6-1 10 2 5 3 8 8 4 5 3 6 3 7 4 14v8 8 8l-1 8-6 24-1 6-2 6-2 4-3 5" style="clip-to-self:true;comp-op:src"/>
<path transform="scale(.1)" d="m6655.1 2597-3-1v-4l4-4 3-2 4-3 10-6 6-3 7-3 14-4 14-2h6l5 1 6 2 4 3 3 4 2 5 1 6-1 8-1 7-3 9-4 10-5 9-5 11-6 10-6 11-7 10-5 9-5 8-4 7-3 5-2 5-2 4 4-1 4-3 4-4 7-6 14-14 9-8 8-9 27-27 8-10 8-11 8-10 8-11 7-11 7-9 5-9 7-14 1-4-1-4-5 2-4 3-10 10-5 7-6 7-12 18-9 20-5 11-3 9-4 20-2 18 1 8 2 8 6 14 6 5 5 5 7 3 7 2 8 1 7-1 20-4" style="clip-to-self:true;comp-op:src"/>
<path transform="scale(.1)" d="m2668.8 3368.7-10 1h-3l6-1h3l12-2h7l8-1 9-1 10-2h10l10-2 11-1 10-1 9-1h9l8-1h8l10 2 3 1-5 7" style="clip-to-self:true;comp-op:src"/>
<path transform="scale(.1)" d="m2679.8 3427.7-3 2-4 4-2 4v3l3 3 3 1h4l4 1 6-1h6l16-4 9-2 20-4 11-3 11-2 10-2 9-2 8-3 8-2 17-5" style="clip-to-self:true;comp-op:src"/>
<path transform="scale(.1)" d="m3035.2 3375.1-7 2-8 2-8 1-6 1h-3 3 4l5-1 6-1h7l9-2 9-1 20-2 11-2 12-1 11-2 12-1 11-1 10-2 20-2h8 8 7l10 2 9 3" style="clip-to-self:true;comp-op:src"/>
<path transform="scale(.1)" d="m3302.5 3291.9 3-4 2-4 3-5 2-5 1-4v-3l1-4-3-2-8 6-4 6-5 6-5 8-6 8-6 10-12 22-6 12-4 12-4 11-2 12-2 11v11l1 10 1 9 3 8 4 6 5 5 5 4 6 2h7l7-1 8-1 8-3 9-4 8-5 9-5 9-6 18-14 8-8 7-8 7-7 6-8 6-7 4-6 4-5 2-4 2-3v-3l-4 4-2 3-3 5-6 12-2 7-3 7-1 8v8 7l2 14 3 6 4 4 4 5 5 3 12 4h7l14-2 14-6 7-4 6-4 6-5 10-12 3-6 3-7 2-7 1-7-1-8-1-7-3-7-3-8-3-7-5-6-5-5-6-5-6-3-5-3h-7-6l-7 2-7 3-6 4-7 5-5 6-5 8-4 7-3 9v9 8l3 9 4 8 5 7 6 6 7 5 8 4 21 2" style="clip-to-self:true;comp-op:src"/>
<path transform="scale(.1)" d="m3639.7 3299.3 1-5v-5-5l-1-5-6-4h-4l-5 1-4 1-10 6-4 4-4 5-3 5-2 5-2 6v6 6l2 7 2 6 3 7 4 6 4 7 6 6 5 6 6 6 5 7 6 7 5 7 5 6 4 8 3 7 2 7 1 7 1 6-1 6-4 10-4 5-5 3-4 4-6 2-5 2-5 1h-5-5l-8-4-7-7-2-6-1-6 2-19" style="clip-to-self:true;comp-op:src"/>
<path transform="scale(.1)" d="m3803 3351.8-3-1-4-3-3-4v-5l2-6 2-4 11-11 5-4 6-4 18-9 7-2 6-1h6 5l5 2 4 2 6 8 1 6v6 7l-2 7-2 8-2 7-3 9-3 7-3 8-3 7-3 6-3 4-2 5-2 4 1-6 3-4 8-12 5-7 12-16 7-8 7-9 6-9 8-9 6-10 14-20 5-10 6-9 4-9 4-6 2-6 2-3-5 3-3 4-5 6-5 7-5 9-6 9-5 11-4 10-5 12-2 11-3 12-2 22 1 11 2 11 8 20 7 8 7 7 8 6 9 5 9 3 10 3 9 1 10-1 9-2 10-3 22-10" style="clip-to-self:true;comp-op:src"/>
<path transform="scale(.1)" d="m1100.4 4113.3 2-7 1-4 1-6v-4l-2-10-2-4-1-4-6-8-4-3-4-2-5-2-6-1h-7l-8 1-8 2-9 2-10 5-10 4-10 6-11 8-10 8-10 9-9 10-10 11-9 10-8 12-12 22-5 11-2 11-1 9 1 10 2 8 5 7 6 7 8 6 10 5 11 5 12 4 13 4 15 3 14 2 15 3 15 2 13 2 14 1 12 2 10 3 10 2 7 4 6 4 5 4 3 5 1 5-1 6-2 6-8 12-12 12-8 6-8 5-8 4-18 8-18 5-8 1-8 2-7 1h-6-5-4l-4-1-3-4v-4l2-4 9-16" style="clip-to-self:true;comp-op:src"/>
<path transform="scale(.1)" d="m1201.5 4180.1-3 4-5 4-2 2-1 4-2 4-2 10-1 6v6 6 7l1 7v7l2 8 1 8 1 9 2 8 1 9 2 8 4 18 1 7 1 8 2 7 1 6 1 4v3" style="clip-to-self:true;comp-op:src"/>
<path transform="scale(.1)" d="m1217.3 4169.3 2-3 1 3 1 4v3 8" style="clip-to-self:true;comp-op:src"/>
<path transform="scale(.1)" d="m1288.2 4208.6v3l-1 6-1 4-1 5-1 6v6 29 5l1 5v3l1 4 2 5 3 2 2-4 3-5 2-8 2-6 2-5 2-7 6-14 4-9 4-8 6-9 5-8 12-16 6-6 6-5 6-4 4-2 5-2h4l3 1 6 6 2 5 1 5 2 7 1 8v8l1 9-1 9v10l-1 10-1 20v19l1 9 1 7 4 12 2 3 4 3 9-5" style="clip-to-self:true;comp-op:src"/>
<path transform="scale(.1)" d="m1644.6 4051.6-2-5-4-4-3-1-5 1-8 6-5 4-10 12-6 9-6 10-6 11-7 12-6 13-6 14-5 14-6 16-4 16-5 16-3 16-2 16-1 16v15l2 14 3 13 4 11 6 10 7 9 8 8 9 6 10 4 10 3 11 1 12 1 11-2 12-2 12-3 11-4 11-5 28-16" style="clip-to-self:true;comp-op:src"/>
<path transform="scale(.1)" d="m1814.6 4091.3-2 4-1 3-2 8-2 4-1 5v6l-1 6-1 7v8l-2 18v9 49 9l1 7 1 8 1 6 1 5 2 4 2 3 4 2 4-2 4-7" style="clip-to-self:true;comp-op:src"/>
<path transform="scale(.1)" d="m1865.9 4101.6 3-5 2-4v5l-2 8-1 6-4 14-1 8-4 18-2 20-1 11-1 10-1 21v19 9l1 8v7l2 10 1 3 1-4" style="clip-to-self:true;comp-op:src"/>
<path transform="scale(.1)" d="m1707.3 4132.3h-3l-1-3 4-4 5-2 5-3 14-7 9-4 11-5 12-5 26-10 15-5 14-6 15-5 14-5 15-6 14-4 13-4 13-3 11-2 10-1 9-1h7l5 1 4 1 4 5" style="clip-to-self:true;comp-op:src"/>
<path transform="scale(.1)" d="m1994.8 4233.6-2-3 2-3 6-2 5-1 5-2 14-4 8-3 20-4 11-3 12-2 39-6 12-2h12l20-2 7-1 6-1 5-1 4-1 3-2" style="clip-to-self:true;comp-op:src"/>
<path transform="scale(.1)" d="m2104 4136.1-2-3-3-3 3 5 1 3 2 10 2 12v8 24 8 18 8l1 9 1 8 2 14 1 6 3 4 9 8" style="clip-to-self:true;comp-op:src"/>
<path transform="scale(.1)" d="m2261.1 4171.9-1-4v-4l1-5 3-4 2-3 4-3 4-2 5-3 18-6 6-1h6 6 6l10 4 3 3 4 8 1 6v7l-1 7-2 8-6 18-4 10-4 9-8 16-4 7-3 6-3 5-3 4-2 4 2-3 8-8 4-5 6-6 7-8 6-7 8-8 35-45 12-18 5-9 5-7 3-6 3-5 2-3-5 3-3 4-4 4-4 6-5 7-5 8-10 18-3 9-4 9-2 10-2 9v9l4 16 3 7 4 7 6 5 5 4 8 2 19 1" style="clip-to-self:true;comp-op:src"/>
<path transform="scale(.1)" d="m2449.8 4037.9 6-4h4 5l5 1 21 6 16 8 14 10 6 7 6 8 5 9 4 9 4 10 3 11 1 12v13 13l-2 14-3 15-4 14-5 15-6 15-5 13-6 13-5 12-12 20-4 8-5 7-4 6-4 5-6 6-3 1-5-2-2-2-2-9" style="clip-to-self:true;comp-op:src"/>
<path transform="scale(.1)" d="m2786.6 4115.9 3-1 4-1 5-1h5l7-1h7l8-1 19-2 11-1h11 21 10l8 1h8l8 1 5 2h4l2 3" style="clip-to-self:true;comp-op:src"/>
<path transform="scale(.1)" d="m2786.1 4183.1 1 4 4 3 4 1 5 1h6 16l10-1h11l22-2 24-2 13-2 12-1 22-2 10-1 9-1 7-2 7-1 11-5" style="clip-to-self:true;comp-op:src"/>
<path transform="scale(.1)" d="m3272.3 4098.2 4-1 3-1 7-7 2-3 6-8 3-6 3-5 2-7 6-14 3-13v-7-6-6l-4-10-2-4-3-3-4-2-4-1-5 1-6 1-6 4-7 4-7 6-7 7-9 8-24 30-7 10-11 22-4 11-2 10-1 10 1 9 2 9 3 8 5 8 6 7 7 6 8 6 9 6 9 5 10 5 20 8 18 8 7 3 7 5 10 8 3 5 1 4v5l-2 6-3 6-10 14-7 6-7 7-7 5-8 5-8 4-8 3-7 3-14 4-6 1-5 1h-5l-3-1-3-3 2-6 4-5 5-6 6-7 18-20" style="clip-to-self:true;comp-op:src"/>
<path transform="scale(.1)" d="m3434.7 4136.6-2 5-2 3-2 4-1 4-1 5-1 4-2 6-1 6-1 5-2 12v5l-1 7v6l2 12v7l1 5 2 6 2 10 2 8 1 3 1 4" style="clip-to-self:true;comp-op:src"/>
<path transform="scale(.1)" d="m3437.5 4133.1 2 4 3 3 2 3" style="clip-to-self:true;comp-op:src"/>
<path transform="scale(.1)" d="m3515.6 4145.2 2 4 1 4v3l1 4v4l1 4v5 5 5 6 6l-1 5v6l-1 6v5l-1 4v4l-1 3-1 4-1-4 1-3 4-8 6-10 4-6 5-6 6-7 5-7 7-7 7-6 7-7 16-12 7-4 7-5 12-4h4l4 1 3 1 2 3 1 4 1 5v6l-1 6-2 8-1 8-2 9-3 8-2 9-4 16v7 7 4l2 4 4 3 9-3" style="clip-to-self:true;comp-op:src"/>
<path transform="scale(.1)" d="m3801.1 4057.7 1 3 1 4v4 5l1 7v7 49 10 21 10l1 9 1 7 2 7 2 5 2 6 2 3 1 3 5 1 4-5 5-14" style="clip-to-self:true;comp-op:src"/>
<path transform="scale(.1)" d="m3875.9 4055.5 1 4v10 4l1 6v5l1 5 2 12 1 7v7l1 8 1 9v45l-1 9v9l-1 7v6 4 3" style="clip-to-self:true;comp-op:src"/>
<path transform="scale(.1)" d="m3714.9 4060.7v-3l2-5 9-6 10-4 14-6 9-3 10-4 11-4 24-8 14-5 15-4 14-4 15-4 14-3 14-2 13-1 11-1h10l8 1 15 6" style="clip-to-self:true;comp-op:src"/>
<path transform="scale(.1)" d="m4172.8 4066.7-4-4-3-1-4-1h-4l-4 1-5 1-5 3-6 4-5 4-6 6-6 7-7 7-6 8-5 8-6 10-5 9-8 20-3 10-2 9-1 9v8 8l2 6 3 6 4 5 5 3 5 2 7 1h7l7-1 8-1 9-2 9-3 18-8 9-5 10-4 8-5 8-6 7-5 12-12 8-10 4-8h-3l-5 5-2 3-3 5-4 10-2 7v7 7l1 6 1 7 3 6 3 5 10 8 6 3 7 3 9 2 9 1h9l10-1 10-2 11-2 10-2 10-3 8-4 8-5 7-4 6-5 4-6 3-6 2-7 1-6v-7l-2-6-2-7-2-6-4-6-10-8-7-3-7-1h-8-9l-8 1-9 2-8 3-7 4-12 8-3 4-1 5-1 4 2 4 3 5 4 3 5 3 6 2 7 2h8 9l24-1" style="clip-to-self:true;comp-op:src"/>
<path transform="scale(.1)" d="m4461.2 4108.6 4-4 1-3h-4l-3 1-3 2-8 6-4 4-3 4-3 5-3 6-2 5-1 6-1 5v6l1 7 1 6 2 6 3 7 4 12 3 6 2 7 2 6 1 6v6 7l-2 5-3 5-3 4-5 4-6 4-6 3-6 2-7 2-12 2-15-3-4-3-3-3-5-10" style="clip-to-self:true;comp-op:src"/>
<path transform="scale(.1)" d="m4553.6 4140.9 1-4 2-6 2-3 3-3 8-4 5-3 4-1 6-2h6l6-1 6 1h7l12 4 5 3 5 4 3 4 3 5 1 6 1 7v7l-2 7-2 8-3 8-4 7-3 8-5 8-5 7-4 6-5 5-4 5-4 3-3 2-4 2-4 1-1-4 2-3 2-4 4-5 6-6 5-7 8-7 8-9 8-8 20-18 10-10 11-10 32-32 9-11 7-9 7-8 4-7 3-6 2-3-3-1-4 1-3 3-6 4-5 5-7 6-6 7-7 7-12 16-5 8-5 9-3 8-4 18v9l1 8 6 14 12 12 16 8 10 2 10 3 22 2h11l10-1 11-1 9-2 20-6" style="clip-to-self:true;comp-op:src"/>
<path transform="scale(.1)" d="m4949.8 4131h-4l5 2h4 5l6 1h16l10-1 11-1h12l26-2 13-2 13-1 14-2 12-2 24-2h11l9-1h8l6 1h6l7 1-7-1" style="clip-to-self:true;comp-op:src"/>
<path transform="scale(.1)" d="m5089.2 4009.8-1-5-2-5-1 4v3l1 5v6 15l1 10v33 13l1 12v11l1 12 2 22 2 10 2 9 6 18 3 7 4 6 4 4 3 4 4 2 9 1" style="clip-to-self:true;comp-op:src"/>
<path transform="scale(.1)" d="m5411.6 3978.4-6-9-4-2-3-1-5-1-4 1-5 3-6 4-6 5-7 8-6 8-6 10-6 11-5 12-4 12-3 12-2 11-1 12v12l4 22 3 10 4 10 4 8 6 8 6 6 8 6 7 4 8 3 9 3 9 1h8 9l8-2 9-2 8-3 7-4 8-4 12-12 4-6 5-7 2-7 3-8 4-12 1-5v-4l-1-4-3 2-3 3-1 4-3 6-3 7-2 7-2 8-1 9v16l1 9 2 7 3 7 8 12 12 8 8 3 8 1 9 1 10-1 9-2 10-2 10-4 10-5 8-5 8-7 7-8 6-8 6-9 4-10 3-10 2-10 1-11v-11l-1-10-2-10-6-16-4-6-5-4-5-3-6-2h-7l-7 2-8 3-8 4-7 6-8 7-6 6-6 8-3 8-3 7-1 8 1 7 2 7 3 6 4 6 4 4 5 2 17 4" style="clip-to-self:true;comp-op:src"/>
<path transform="scale(.1)" d="m5711.9 4067.1-1-3-3-5-3-2h-4-4l-5 2-4 1-4 3-6 6-3 4v4 4 5l5 10 8 10 6 6 20 24 5 7 4 6 3 6 2 6v7 5l-2 6-3 6-5 5-6 5-7 4-8 5-9 4-8 3-9 2-8 2-7 1h-6l-6-1-3-1-3-2-1-3v-3l2-5 3-5 25-25" style="clip-to-self:true;comp-op:src"/>
<path transform="scale(.1)" d="m5879.5 4052.9-2 3v15 7 14l-1 7v17l1 8v9l1 8 2 8 1 7 4 12 3 5 4 6 5 2 5-3 2-10" style="clip-to-self:true;comp-op:src"/>
<path transform="scale(.1)" d="m5943.2 4018.9 1-3 2-5 3 4v35 8 7l2 16 1 7 2 8 1 7 4 14 1 6 2 5 1 4 2 3" style="clip-to-self:true;comp-op:src"/>
<path transform="scale(.1)" d="m5812 3981.4 1-3 1-4 6-15 4-4 4-5 5-4 6-6 8-5 9-5 9-6 22-10 13-5 14-3 13-4 28-6 13-3 12-3 28-9" style="clip-to-self:true;comp-op:src"/>
<path transform="scale(.1)" d="m6190.9 4048.2-1-5v-6l2-16 4-18 4-9 3-10 4-10 5-11 5-12 5-11 10-26 3-13 4-13 2-13 2-12 1-12-2-20-3-7-4-7-4-4-6-3-7-2h-7l-9 2-8 3-9 5-8 6-9 8-7 8-6 9-5 11-4 11-2 11-1 11v12l2 12 4 11 4 12 10 22 6 11 21 33 7 10 6 10 7 10 4 10 5 10 3 9 1 9v9l-1 9-2 8-3 8-10 14-6 7-14 10-14 6-7 1-6 1-6-1h-5l-4-2-4-6-1-4 1-6 8-16" style="clip-to-self:true;comp-op:src"/>
<path transform="scale(.1)" d="m6312.6 4035.3-1 4-1 5-3 12-1 5v4 5l-1 5v40l1 6 1 5v5l1 5 2 8" style="clip-to-self:true;comp-op:src"/>
<path transform="scale(.1)" d="m6338.9 4001.2-3 2-2 6v3l1 7 3 7" style="clip-to-self:true;comp-op:src"/>
<path transform="scale(.1)" d="m6398.8 4046.9-3 2-2 5-1 3-2 4v4l-2 10v6 25 6l1 6v6 6l2 8v3l1 4 3-3v-4l2-4 1-6 2-6 3-6 3-7 4-8 5-8 5-9 7-10 8-9 8-10 19-19 10-8 9-8 9-6 8-5 8-3 12-2 4 2 4 3 4 4 1 5 2 6v7 8l-1 8-2 9-1 9-3 9-3 8-3 9-2 8-1 9-1 7-1 5 1 5 1 3 6 3" style="clip-to-self:true;comp-op:src"/>
<path transform="scale(.1)" d="m6647.9 4049.9-3-2-4-2v-4l3-4 7-7 5-3 6-4 7-4 8-4 9-3 8-3 9-1 9-2h7 7l7 2 5 2 4 4 2 4 2 5-1 7-1 6-2 7-4 8-3 8-5 8-5 9-5 7-5 8-8 12-3 5-2 3-3 5 3-2 2-3 10-10 5-6 6-7 8-7 7-8 24-27 8-10 9-10 8-11 16-20 6-9 5-9 5-10v-3l-3-2-2 1-5 2-5 3-17 17-6 8-4 8-4 9-3 10-1 9v10l1 9 3 9 4 9 6 8 8 9 9 7 11 8 26 12 12 6 13 4 12 3 12 2 28 2" style="clip-to-self:true;comp-op:src"/>
<path transform="scale(.1)" d="m2792.3 4712.1-3 2 4 2 4 1h4l5 1h6l8-1h9l9-1h10l22-1h11 21l11 1h9l7 2 7 1 6 2 4 2 3 2 2 3-4 7" style="clip-to-self:true;comp-op:src"/>
<path transform="scale(.1)" d="m2819.1 4787.5-5 2-3 2-1 4 4 1 3 2h5l5 1h8l9-1 11-1 12-1 12-2 14-1 15-2 16-2 15-2 17-1 32-4 15-2 35-6" style="clip-to-self:true;comp-op:src"/>
<path transform="scale(.1)" d="m3299.6 4754.3h-4l3 1h19 8l9-1 10-1 11-1 12-2 13-1 25-4 13-1 24-4 11-1 10-1 9-1h8 15l3 1-5 3-3 1-5 1-4 2-6 2-4 1-10 2-9-3" style="clip-to-self:true;comp-op:src"/>
<path transform="scale(.1)" d="m3766.1 4612.1 2-3 2-2 9-12 2-4 9-15 2-4 1-5 2-4 1-4v-8l-1-3-3-5-5-3-4-1h-9l-5 1-7 1-7 3-8 3-14 6-8 5-14 10-6 6-5 6-8 12-2 14 1 7 3 7 4 7 5 7 7 7 8 7 9 8 9 7 11 8 10 8 11 8 10 8 10 9 11 9 9 8 9 9 9 8 7 9 10 16 4 8 2 8 1 8-2 16-3 7-5 6-4 6-7 6-6 5-8 5-7 4-24 9-8 2-7 1-8 1-6 1h-9l-4-1-3-3 3-7 3-5 5-7 18-21" style="clip-to-self:true;comp-op:src"/>
<path transform="scale(.1)" d="m3932.4 4690.1-2 3-1 5v3 10 6 6 7l3 21 1 8 2 7 1 7 2 8 1 7 2 7v7l2 6 1 6 2 10 1 3 1 4" style="clip-to-self:true;comp-op:src"/>
<path transform="scale(.1)" d="m3958.7 4651.8h4l2 4 3 5 5 6" style="clip-to-self:true;comp-op:src"/>
<path transform="scale(.1)" d="m4017.6 4714.3 2 5 1 4v5l1 5v5 6l1 6v21l-1 7v7l-1 7v7l-1 7-1 6v5l-1 4v4l-1 4 2-4 1-4 1-5 3-5 2-6 4-7 3-7 4-9 5-9 12-20 14-23 8-11 8-9 7-9 8-7 6-6 5-4 4-2 4-1 5 4v5l1 6v7l-1 10-1 9-2 11-1 11-6 33-2 10-1 10-1 9v8l1 7 1 6 1 3 3 3h8" style="clip-to-self:true;comp-op:src"/>
<path transform="scale(.1)" d="m4229.8 4700.9-3-3 2-4 2-2 4-3 3-3 5-4 6-4 6-3 7-4 8-4 7-3 7-2 8-2 7-1h6 5l5 2 3 3 3 4 2 5v5 7l-1 8-2 8-2 9-9 27-6 16-3 7-3 5-2 5-1 4-2 6h4l3-2 5-2 5-4 6-4 6-5 8-6 30-30 7-9 8-9 8-10 7-10 8-10 12-18 5-8 5-6 5-10v-3l-3 1-2 3-4 3-8 10-4 6-5 7-4 8-4 7-3 8-2 8-2 16v8l1 7 2 7 3 7 4 6 5 6 7 5 7 4 8 4 10 3 10 2 11 2 11 1h11 10l10-1 10-2 22-6" style="clip-to-self:true;comp-op:src"/>
<path transform="scale(.1)" d="m1109.1 5401.9v-10l-1-6-1-4-2-5-3-3-6-4h-5-4-6l-5 1-6 2-6 3-7 3-6 4-7 5-12 12-4 6-5 8-3 7-2 8-1 8v8l4 16 4 7 5 7 6 7 7 6 9 6 8 6 27 15 8 5 9 5 7 5 8 5 7 4 6 4 5 5 5 4 3 5 2 4 1 5v5l-1 5-2 4-3 5-8 8-12 6-6 2-7 3-14 4-8 1-7 2h-7l-7 1-6 1h-5l-8-2-2-3v-4l2-4 4-5 4-6 14-17" style="clip-to-self:true;comp-op:src"/>
<path transform="scale(.1)" d="m1206.8 5486.8h3l2 6v4 4l1 4v5 5 6l1 5v6l1 7 1 6v6l1 6v6l1 6 3 15 2 6 2 3 1-6" style="clip-to-self:true;comp-op:src"/>
<path transform="scale(.1)" d="m1229.3 5421.3 1 5v3l1 5v6l1 5 4 12 1 5 2 4 3 4 2 3 6 5" style="clip-to-self:true;comp-op:src"/>
<path transform="scale(.1)" d="m1292.5 5466.5v5 7 5 5l-1 6v7 7l-1 7v7l-1 7v7l-1 6-1 7v6l-1 6-1 5v4l-1 3-1 5-3-1v-5-4l1-5 1-6 2-6 2-7 3-7 3-9 4-8 4-9 5-9 5-10 6-9 6-10 6-8 7-8 6-6 6-4 5-3 5-2h5l4 1 4 3 3 4 3 5 4 14 1 9 1 8v10 9l1 10v9 9l2 16 4 14 2 6 6 8 3 2 9-1" style="clip-to-self:true;comp-op:src"/>
<path transform="scale(.1)" d="m1619.7 5367 1-3 2-4 2 4 1 3 1 5 1 6 1 7 2 16 1 10 1 9 1 10 2 10 4 30 2 10 3 27 2 7 1 6 1 5 2 4 1 4 4 3h4l2-6 1-4 2-15" style="clip-to-self:true;comp-op:src"/>
<path transform="scale(.1)" d="m1691.1 5350.6 4-1 3 2 2 3 4 8 2 12 2 7 1 7 2 9 1 8 2 8 2 18 1 10 1 8 2 18v8l2 16 3 18v4l2 3-6-8" style="clip-to-self:true;comp-op:src"/>
<path transform="scale(.1)" d="m1557 5382.9-1-4v-5l3-4 3-3 3-2 4-3 5-2 5-4 7-3 16-8 10-3 11-4 11-5 12-4 13-3 12-3 14-4 39-6 12-1h12 10 9l9 1 18 3" style="clip-to-self:true;comp-op:src"/>
<path transform="scale(.1)" d="m1829.5 5476.4-4-2-3-1-4-3-2-3 3-4 3-2 8-6 6-3 7-4 8-3 9-4 9-5 10-3 10-4 11-3 9-2 10-1 8-2 8-1 7-1 16-2" style="clip-to-self:true;comp-op:src"/>
<path transform="scale(.1)" d="m2014.9 5416.1-1-4v-3l-1-5 1-5 1-4 1-3 3-3 4-3 4-4 5-4 6-3 14-6 7-2 8-3h8l8-1h8l7 1 6 3 5 3 4 4 2 5 2 6v7 8l-4 18-6 18-8 18-5 8-5 7-4 6-8 10-4 3-6 6 2-5 2-3 24-24 9-8 10-9 9-10 11-10 10-11 10-10 10-11 18-22 8-10 7-10 6-8 4-7 4-5 2-4 1-4-4 1-3 2-4 4-6 4-5 6-7 6-6 8-7 8-5 9-6 10-5 10-4 10-6 22-1 10v11l4 18 4 8 6 7 6 6 7 6 9 3 9 4 18 4 10 1h9 7 7l6-2 12-7" style="clip-to-self:true;comp-op:src"/>
<path transform="scale(.1)" d="m1594.8 5236.8-5-1h-5l-7-1-8 1-8 2-9 3-9 5-10 6-9 7-9 9-8 10-8 12-6 13-6 14-6 15-6 17-5 19-8 42-3 22-2 22-1 22 1 22 1 20 4 20 5 19 7 17 9 17 11 16 13 16 14 13 17 13 18 10 20 7 21 4 22 3 22-1 61-6" style="clip-to-self:true;comp-op:src"/>
<path transform="scale(.1)" d="m2354.5 5245.8h7 6l9 2 8 1 7 4 8 4 8 6 7 6 8 7 7 8 6 9 5 10 4 11 3 12 1 13v15l-1 16-3 17-4 18-10 38-14 36-8 17-9 16-10 14-10 13-10 12-11 10-11 8-11 7-10 7-10 5-10 4-8 3-8 1-7 1-7-1-5-1-4-3-3-12" style="clip-to-self:true;comp-op:src"/>
<path transform="scale(.1)" d="m2865.6 5342 4-1 20-4 6-1 14-2 16-2 9-2 18-2 10-1 9-1h9 8 9l14 2 6 1 5 2 4 1-2 7" style="clip-to-self:true;comp-op:src"/>
<path transform="scale(.1)" d="m2894.3 5410.9-2 3-1 4 2 3 3 2 8 2h6 7l8-1 9-1 11-1 24-4 28-4 30-4 15-1 14-1 13-1h12l10-1 18-3" style="clip-to-self:true;comp-op:src"/>
<path transform="scale(.1)" d="m3486.9 5255.7v-5l1-6 1-7v-13l-2-12-2-6-1-4-6-8-3-3-4-2-5-2-5-1h-7-7l-8 2-10 2-11 5-12 5-12 7-13 8-28 20-26 24-11 13-11 12-10 13-8 13-6 12-4 12-3 11v10l2 10 3 9 6 9 7 8 10 7 10 6 12 6 12 5 12 4 14 5 12 4 13 4 11 5 10 5 9 6 7 7 5 7 4 8 1 8-1 9-2 9-4 9-5 9-7 8-8 9-8 7-8 6-10 6-18 10-8 3-9 3-8 1-6 2h-6-4l-5-1 1-4 2-4 4-5 5-7 18-18" style="clip-to-self:true;comp-op:src"/>
<path transform="scale(.1)" d="m3503.2 5420-3 3v12l1 5v50 7l1 6v6l1 5v6l1 4v3l1 4-2-4" style="clip-to-self:true;comp-op:src"/>
<path transform="scale(.1)" d="m3518.5 5395 2-2 4 5 2 6 1 4 1 5 2 8 1 5 2 6 4 6" style="clip-to-self:true;comp-op:src"/>
<path transform="scale(.1)" d="m3593.2 5413.9v3l-2 8-1 5-1 7-1 6-1 7-2 7-1 7-1 6-2 6-1 7-2 12-2 10v4 7l4-8 1-4 3-4 2-5 3-6 4-7 4-6 4-8 6-7 5-9 12-16 7-8 6-7 6-6 6-4 5-3 4-3 5-1h3l3 1 3 3 2 3 2 5 1 6 1 7v7 9l-3 27-1 10v9l-1 8 1 8 1 7 2 6 1 5 3 3 3 2 7-1 12-10" style="clip-to-self:true;comp-op:src"/>
<path transform="scale(.1)" d="m3839.9 5359.6 3 2 1 4v3l1 3v4l1 4v9 6 6 7l-1 8v7 9l-1 8v30l1 6v5l2 5 1 3 2 4 3 1 3-5 3-10" style="clip-to-self:true;comp-op:src"/>
<path transform="scale(.1)" d="m3892.1 5369.5 4-4 4-2 3 1 3 5 2 8 2 12v15l-1 9-1 8v9l-1 9-1 10-5 45-1 8v8l-1 7v6 5 3l-1 3-4-5" style="clip-to-self:true;comp-op:src"/>
<path transform="scale(.1)" d="m3737.4 5358.3 2-6 2-4 6-8 4-4 12-8 8-4 9-4 10-4 12-5 12-4 13-5 14-4 15-5 32-8 51-9 16-2 15-1 14-1h12l10 1 8 1 7 2 7 9" style="clip-to-self:true;comp-op:src"/>
<path transform="scale(.1)" d="m4229.3 5369.1 2-14v-8-8l-1-6-4-8-2-2-3-1h-6l-4 1-5 2-4 3-5 4-10 12-5 7-4 9-5 9-3 10-3 12-3 11-2 12-2 13-1 13-1 12v12 10l2 18 3 6 2 6 4 4 4 3 5 1h4l6-1 12-6 6-4 12-10 10-13 5-7 5-8 3-8 4-8 2-8 2-7 2-6 2-8v-3l-1 5-1 3-1 6v6l-1 7v8 8l1 9 4 16 3 8 4 7 5 7 6 6 6 5 8 4 8 3 10 2h9 10l10-2 18-6 10-5 8-5 15-15 6-9 5-9 4-10 4-12 2-11 1-12v-11l-1-11-2-10-3-9-3-8-5-7-6-5-6-4-7-3h-7-8l-7 2-8 3-7 5-7 6-7 7-5 8-4 9-3 9-2 10v9l1 10 2 8 3 8 4 8 6 6 6 4 7 3 8 2h8l9-2 23-8" style="clip-to-self:true;comp-op:src"/>
<path transform="scale(.1)" d="m4480.8 5390.7 4-5 3-4 3-6 2-5 1-4v-3l-3-3h-5-4l-4 1-3 2-4 2-3 2-4 6-1 3v4l1 4 4 8 5 5 5 4 6 5 14 10 8 5 7 5 8 5 7 5 6 5 10 10 3 5 2 5 1 6-1 5-3 5-4 5-6 6-7 5-7 4-10 5-9 4-9 3-10 3-8 2-9 1-7 1-7-1-6-1-5-2-4-4-2-13" style="clip-to-self:true;comp-op:src"/>
<path transform="scale(.1)" d="m4635.1 5393.7 2-5 2-3 2-4 3-4 2-4 3-4 8-6 5-2 5-1 4-2 5-1h5l10 2 4 2 4 3 4 4 2 4 2 6 2 14-1 8-2 18-2 10-3 10-3 9-4 10-3 8-4 8-4 7-3 6-6 8-6 4-4-2v-5l1-4 2-6 3-6 3-7 9-18 5-9 18-33 6-12 14-24 7-13 15-25 6-12 7-11 5-10 5-7 3-7 2-3-3 7-4 6-4 8-4 9-5 9-10 22-5 12-4 12-5 12-6 26-4 24v12 11l2 10 6 18 5 8 6 7 7 5 7 4 8 3 9 2 9 1h9l8-1 19-4" style="clip-to-self:true;comp-op:src"/>
<path transform="scale(.1)" d="m4990 5446.7-6-2 3-2 4-1 5-1 6-1 8-2 9-2 10-3 11-2 12-2 12-3 13-1 13-2 25-3h12l12-1h21 10 8l8-1h20" style="clip-to-self:true;comp-op:src"/>
<path transform="scale(.1)" d="m5397.7 5283.3 2-3 2-2 2-3 2-5-3 3-2 3-2 5-4 6-4 7-4 8-5 9-5 11-5 12-4 13-5 14-4 15-3 15-6 32-1 16v15 13l1 12 3 11 3 8 4 6 6 5 6 2 7 1h6l7-2 8-2 7-4 8-4 7-5 14-12 6-7 6-8 6-9 5-9 5-10 5-9 3-10 3-9 3-8 2-6 1-5 1-3v-3l-2 5-1 4-2 6-2 7-1 8-2 9-1 9v10 9 9l2 9 2 7 7 14 5 5 6 5 6 4 7 2 9 1h8l9-1 9-2 8-3 9-4 14-10 5-6 5-7 2-7 3-9 1-9v-9l-1-11-2-9-2-11-3-10-5-10-5-9-6-8-6-6-8-6-7-4-8-2-8-1-8 1-7 2-7 4-11 11-6 16-2 9-1 10 2 18 6 18 5 6 6 7 5 4 7 4 8 2 9 2h9l9-1 11-2 10-3 11-4 11-5 10-5 20-12 10-7 9-7 16-14 12-14 5-7 4-5 3-5 1-5 1-3-2-4h-5l-3 1-4 2-3 2-4 3-2 4-2 3-2 10 1 5 2 5 6 12 5 6 13 13 7 6 8 7 8 6 7 7 14 12 5 6 4 6 3 6 2 5v5l-2 5-9 9-8 3-8 4-8 3-20 4-18 2h-9l-8-1-7-2-6-3-10-11" style="clip-to-self:true;comp-op:src"/>
<path transform="scale(.1)" d="m5861.8 5384.2 3-1 4 3v6 9 6l-1 6-2 7-4 16-1 9-2 8-1 8-2 9-1 7-1 8-1 7v6l1 5v5l2 3 5 2h4l4-2 4-3 4-5 11-16" style="clip-to-self:true;comp-op:src"/>
<path transform="scale(.1)" d="m5915.5 5358.8-2-4-3 3v3l-1 3-1 5-1 4v6l-1 6v6 29 9l1 8v8l1 8v8l1 8v7l1 7v6 6 8l-1 3-3-2-3-8" style="clip-to-self:true;comp-op:src"/>
<path transform="scale(.1)" d="m5771.8 5351.9-2-8 1-3 1-4 10-10 6-3 14-8 8-5 9-4 9-5 10-4 10-5 11-4 24-6 36-6 11-2 12-2 28-6" style="clip-to-self:true;comp-op:src"/>
<path transform="scale(.1)" d="m6211 5436.4 14-10 10-8 9-7 16-16 8-9 7-8 10-18 5-10 2-9 3-11 2-20-1-9-2-10-3-8-4-7-6-7-7-5-8-3-9-2h-11-11l-11 2-11 3-11 4-10 5-9 6-9 8-7 8-6 9-5 9-4 10-2 9-1 10 1 10 2 10 4 10 5 10 6 9 7 9 17 17 10 9 18 16 16 14 7 7 10 12 3 6 2 6 1 5-2 5-3 4-4 5-5 4-14 6-8 3-8 1-8 2-7 1h-7l-12-2-4-1-4-2-3-2-2-3v-4l2-5 10-17" style="clip-to-self:true;comp-op:src"/>
<path transform="scale(.1)" d="m6345.6 5407.5 3 3 2 6 2 3 1 4 2 5 3 15v4l1 6v4 6 5 10 4 5 4l-1 3-1 5v-5" style="clip-to-self:true;comp-op:src"/>
<path transform="scale(.1)" d="m6380.1 5375.2 2-4 1-4 4 2 3 5 4 16v4l1 4 1 5 4 12" style="clip-to-self:true;comp-op:src"/>
<path transform="scale(.1)" d="m6456.3 5397.1 2 3v3 4 5l-1 5v7 6 7l-1 7v6 7l-1 7v26l1 6v5l1 4v3l1 4 3-2 1-3 1-4 2-4 4-12 3-7 4-16 4-9 6-20 10-20 4-9 5-8 5-7 5-6 5-4 4-2 5-2h5l8 2 4 3 3 4 3 5 4 12 2 8 1 7v8l-2 16-2 9-1 7-2 8-2 7-4 12-1 5v4 3l3 2 12-7" style="clip-to-self:true;comp-op:src"/>
<path transform="scale(.1)" d="m6690 5407.5-1-4v-6-5l3-5 6-6 4-3 5-4 5-3 6-3 6-4 7-2 7-3 7-2 8-1h7l8-1 7 1 6 1 6 2 6 3 4 3 4 4 3 5 1 5v7l-1 7-3 8-4 9-5 10-5 9-12 18-10 16-5 5-3 5-3 3-3 4 1-3 4-6 8-10 6-5 12-14 7-7 7-8 16-16 15-17 7-8 8-9 7-8 6-9 6-8 5-8 4-6 3-4v-3l-3-3-6 4-4 3-5 4-4 5-10 10-10 14-4 7-4 8-3 8-2 8-2 9v9l1 9 6 18 10 16 6 7 7 6 8 6 9 5 18 8 18 6 8 2 6 3 6 1 7 1" style="clip-to-self:true;comp-op:src"/>
<path transform="scale(.1)" d="m2898.2 5989.1v-4l1-5 3-3 3-2 10-4 7-2 7-3 8-3 9-4 10-3 9-2 9-3 9-2 9-1 8-1 7-1 8 1h6l5 2 5 1 8 2 3 2" style="clip-to-self:true;comp-op:src"/>
<path transform="scale(.1)" d="m2928.8 6024 3-2 5-2h3l4-1h5l6-1h6l14-2 16-4 8-1 8-2 9-1 16-2 8 1 15 1h7l5 1 16 2" style="clip-to-self:true;comp-op:src"/>
<path transform="scale(.1)" d="m3587 5934.7 5-6 4-6 5-8 5-7 3-7 4-7 4-14 1-6v-6-7l-4-12-6-12-12-8-8-2-8-1h-10l-12 1-12 3-24 10-13 6-12 7-13 8-12 9-11 10-11 9-11 10-8 9-7 10-6 9-3 9-2 9-1 9 1 9 3 9 3 8 5 8 5 7 7 6 8 6 7 4 9 3 7 4 14 4 6 2 5 2 4 2 2 2 2 6-1 3-7 7-6 5-7 4-7 5-8 5-9 5-8 4-9 5-9 3-7 3-14 4-4 1h-4l-4-3v-3l8-11" style="clip-to-self:true;comp-op:src"/>
<path transform="scale(.1)" d="m3623.4 5953.3h4v4 3l-2 8-1 5v4l-2 4-1 5v3l-3 12-1 3v4 7 3l1 3 1 4 2 3v-6" style="clip-to-self:true;comp-op:src"/>
<path transform="scale(.1)" d="m3678.5 5907.6v-3l1-3-2 3-1 6-1 3v5l-1 5v5 10 6l1 6v5 5l1 4 1 9" style="clip-to-self:true;comp-op:src"/>
<path transform="scale(.1)" d="m3711.5 5921.4 2-3 4 3 1 3v4l1 5v4 5 13 6 7l-1 7v7l-1 8v7l-1 7v7 25l1-4 1-3 1-5 2-5 2-6 2-7 3-7 8-18 10-18 6-10 6-9 7-10 7-8 15-15 6-5 7-4 7-3 6-2 6-1h5l10 4 3 4 4 5 2 5 4 14v8 8 9l-3 27v8l-1 8 1 7v6l2 5 2 2 12 3" style="clip-to-self:true;comp-op:src"/>
<path transform="scale(.1)" d="m4077.5 5951.5h-4l-8-2-5-1-4-1-3-2-5-4-1-3 2-5 3-3 3-4 5-3 5-4 14-6 8-3 9-3 9-2 8-1h9 9l8 1 14 4 5 3 8 10 2 5v7 8l-2 8-8 18-5 9-6 9-5 9-7 8-6 8-6 6-4 5-5 4-4 3-3 1-4-1-1-3 1-3 3-5 4-5 4-7 7-7 7-8 8-9 18-18 27-28 10-10 8-10 9-10 7-10 8-9 10-14 3-4 1-3-6 2-5 3-5 5-7 5-6 7-15 15-7 8-18 30-3 10-3 11-2 11v10l2 11 3 10 5 10 7 10 8 9 10 8 12 7 13 5 15 3 16 2 17 1 17-1 18-2 41-8" style="clip-to-self:true;comp-op:src"/>
<path transform="scale(.1)" d="m2926 7027.3-1-5v-5l-2-3-3 3v5l-1 6-1 7-1 10-2 12-1 13-2 15-2 16-1 16-2 16-2 17-1 17-2 32v16 95 3l1 4 1-3v-12" style="clip-to-self:true;comp-op:src"/>
<path transform="scale(.1)" d="m2899.6 7098.8-4-6-3-4-2-4-1-4-2-10v-5l2-6 1-6 4-7 5-8 6-7 7-7 8-7 9-7 9-5 10-5 10-3 11-4 11-1h10l10 1 8 2 8 4 7 6 5 7 5 9 3 12 1 12v14l-2 15-3 14-4 15-5 13-13 26-8 11-9 11-8 9-9 9-9 8-9 7-10 7-8 5-9 5-8 5-8 3-7 3-6 2-5 2-4 1-5-1 4-4 4-2 5-2 6-3 7-3 8-2 8-3 9-2 8-2h9 9l7 2 8 2 7 3 6 4 7 5 5 6 6 6 4 7 5 7 4 7 3 8 4 14 3 6 2 6 2 5 1 4 4 6 6-3" style="clip-to-self:true;comp-op:src"/>
<path transform="scale(.1)" d="m3114.2 7234.2v11l2 10 4 4 5 3 8 2 5-1 6-1 7-2 14-6 18-8 8-5 16-12 7-6 6-6 5-6 4-7 3-6 1-6-2-10-6-6-5-2-6-1-7 1-7 2-8 2-8 4-8 5-8 7-7 7-7 8-6 9-6 10-4 10-4 9-3 10-1 9-1 8 1 8 1 7 3 7 4 6 5 5 6 5 7 3 8 2 9 2 10 1 22-2 11-2 12-3 20-8 23-14" style="clip-to-self:true;comp-op:src"/>
<path transform="scale(.1)" d="m3356.1 7010.9-2-4-3-3-3 2v3l-1 4v5l-1 7-1 8-1 10-1 11-1 13-4 28-1 16-2 15-2 17-3 33v16 16 15l2 15 4 26 4 11 4 9 4 8 6 5 5 4 6 2h7l7-1 8-2 8-4 9-5 24-18" style="clip-to-self:true;comp-op:src"/>
<path transform="scale(.1)" d="m3525.2 7143.2 2-4 1-3v-4l-3-3-3 1-4 2-5 3-5 4-6 6-7 6-7 8-8 9-24 30-7 11-8 11-6 12-6 10-4 11-3 10-3 8-1 8v7 6l2 5 2 4 4 2 3 1h5l5-1 6-2 6-3 7-4 14-10 7-7 7-6 14-14 6-8 6-6 5-6 8-8 3-2 4-2 3 2 2 6 1 4v5l1 5 2 6v5l2 6 3 6 6 10 5 5 12 6 7 1 8 1h8l9-1 18-4 9-4 8-5 9-6 8-6 8-7 14-16 7-10 10-20 8-24 2-14 3-13 1-15 3-48v-17-17-54-8-8 11l-1 8v23 15l-2 32v17l-2 18-3 51v16l-1 15v28l1 13v11l1 9 1 8 1 7 1 5 1 3 1 4 1-4v-4l-1-6-2-17" style="clip-to-self:true;comp-op:src"/>
<path transform="scale(.1)" d="m3647.3 7159.2v-3l4-2 5-3 3-1 3-2 10-6 12-6 7-3 9-4 9-3 10-4 22-8 12-4 12-3 12-2 12-1 10-1h9l8 1 7 2 5 2 8 6 4 10" style="clip-to-self:true;comp-op:src"/>
<path transform="scale(.1)" d="m3835.1 7161.3 3-3 2-5 2-4 1-3 2 4v4l-1 4-1 5-2 7-2 9-2 8-2 9-3 9-4 20-2 19-1 8v22l1 5v5l1 3 2 4 5-1 2-2 2-4 4-10 7-18" style="clip-to-self:true;comp-op:src"/>
<path transform="scale(.1)" d="m3879.2 7055.3-1-5v-3l-1-3v-3l-1-4-2 3v3l-1 4v4 11 5 6l2 13" style="clip-to-self:true;comp-op:src"/>
<path transform="scale(.1)" d="m3974.5 7132-4 2-3 1-3 2-4 2-5 3-4 5-6 5-5 6-6 7-18 24-10 18-4 9-3 9-2 9-1 8v9l2 7 2 6 3 6 4 5 5 3 6 2 7 1h8l8-1 10-2 9-2 8-4 9-5 8-4 7-6 6-7 5-7 5-8 3-9 3-8 2-9 2-8v-8-7l-2-7-2-5-6-8-4-3-5-1h-5-6l-6 1-6 3-10 6-7 7-2 4v5 4l1 3 2 3 3 3 6 3" style="clip-to-self:true;comp-op:src"/>
<path transform="scale(.1)" d="m4052.1 7157.9 3-3 3-2 1 5v4 4l-1 6-2 14-2 16v8l-1 9v9l-1 9v30l1 5 1 4v4l2 4h4l3-5 3-3 3-5 3-7 4-7 5-8 5-9 6-10 7-10 6-12 7-11 8-12 16-22 9-12 8-9 8-8 8-7 6-4 5-2h4l4 1 2 3 2 5v6 17 10l-1 11-2 11-2 24v12 11 11l2 10 6 16 5 5 5 4 6 3h7l9-1 9-3 26-12" style="clip-to-self:true;comp-op:src"/>
<path transform="scale(.1)" d="m4389.3 7141.5 3-6 3-5 3-6v-5-4l-1-3-5-2h-4l-4 2-5 2-6 4-7 4-6 5-7 6-13 13-10 14-4 7-3 7-2 6-1 7v6l2 5 2 6 3 4 4 5 6 4 14 8 9 3 9 4 10 3 9 4 9 3 8 3 8 4 7 3 4 3 7 7v3l-1 4-2 3-4 2-5 3-6 2-8 3-8 1-9 2-10 1h-10-11l-12-1-11-2-28-4" style="clip-to-self:true;comp-op:src"/>
<path transform="scale(.1)" d="m4763.4 7057.9-1 3-2 3-2 5-2 6-3 7-2 10-4 12-3 12-6 26-4 15-3 13-6 28-6 26-2 12-1 12-2 18v7 5 4l1 4 2 3 3-3 1-3 2-4 2-5 2-6 2-8 4-18 3-10 2-11 1-12 3-13 2-14 3-15 2-16 3-16 3-18 4-19 3-18 5-19 5-17 4-15 5-13 4-11 5-7 4-4 3-2h4l4 3 3 6 4 7 3 11 4 13 3 15 2 16 3 19 2 18 1 18 1 19 3 54 1 16 1 17 1 15 2 15 1 13 2 11 2 9 2 8 2 7 2 5 2 3 3 2 2-3v-4l-2-13" style="clip-to-self:true;comp-op:src"/>
<path transform="scale(.1)" d="m4731.4 7195-3-1-3-2-2-3 2-3 7-7 10-6 6-3 7-4 9-5 10-4 10-5 11-4 12-6 24-10 12-6 29-10" style="clip-to-self:true;comp-op:src"/>
<path transform="scale(.1)" d="m4922 7128.1v3l3 4 8 8 2 4 7 7 3 5 8 12 9 24 2 9 2 10 2 20v9l-1 9-2 8-2 7-2 6-3 5-2 4-4 4-4 2-3 2-4 1h-4l-3-1-4-2-3-2-2-4-1-5-1-6v-7l2-7 2-9 4-9 4-11 5-11 6-11 7-12 8-13 18-26 11-13 10-12 10-10 9-10 9-7 18-11" style="clip-to-self:true;comp-op:src"/>
<path transform="scale(.1)" d="m5103.1 7134.6-2 4-5 4-14 14-5 6-6 5-5 7-6 7-5 6-5 8-5 7-4 7-4 8-4 14-2 8v7 6l2 6 3 5 3 4 4 3 5 3 6 2h6 7l7-1 14-4 14-7 5-4 6-6 8-12 3-7 2-9 2-8v-9-9l-1-9-2-9-2-8-7-14-5-6-5-4-5-2-6-2-6-1-6 1-5 1-5 2-4 3-3 3-2 4-1 4v4l2 8 5 10" style="clip-to-self:true;comp-op:src"/>
<path transform="scale(.1)" d="m5177.3 7181.2-2 5-1 3-1 4v5l-2 6-2 12-1 7v7 7l1 8 1 6 2 7 2 6 4 6 4 5 8 8 5 3 5 2 5 1h5 6l5-1 10-6 5-4 5-5 4-5 5-6 4-7 4-8 5-8 3-10 4-9 9-27 2-7 2-6 2-4 1-3 2-3 2 4 1 3 2 8 1 6v6l1 6 1 7v6l1 7 3 18 1 5 2 4 1 4 4 4 3 2 4-2 5-5 6-8 4-6 3-6 5-7 5-6 5-8 6-8 14-16 8-8 16-14 8-6 7-4 6-3 5-2 5-1 4 1 3 1 3 3 2 4 1 5 1 6v7l-1 8v8l-1 8-2 18v9 8l2 14 1 5 6 9" style="clip-to-self:true;comp-op:src"/>
<path transform="scale(.1)" d="m5578.7 7157.5 2-3 1-3 2-4v-3l-3-3-6 1-3 2-4 2-5 3-5 4-12 10-13 13-6 7-12 16-10 16-4 9-4 8-4 16-1 7v7l1 6 2 5 6 8 4 2 5 2h6l12-2 7-3 7-4 14-10 7-6 6-8 7-7 6-9 6-10 5-9 5-12 4-11 4-13 6-28 3-15 2-17 1-18 1-19 1-20v-20-58-17l-1-14-1-11v-10l-1-7-1-5-1-3-1 3-1 4-1 7-1 8-2 11-2 14-3 15-3 18-3 20-3 21-4 22-6 44-2 21-2 20-1 20v37l1 17 2 16 2 14 4 13 3 12 4 10 4 9 5 7 4 5 15 5" style="clip-to-self:true;comp-op:src"/>
<path transform="scale(.1)" d="m5908.3 7144.1h-3l-3-1-4-1-3-1-3-2v-3l5-3 8-4 6-2 6-1 14-3h8 17l7 1 8 2 5 3 6 3 6 10 1 6v8l-2 7-2 9-4 8-10 18-6 9-7 9-8 8-18 16-8 7-9 6-9 5-8 5-7 4-7 3-5 3-4 2-3 1 3 3h10 7l9-1 20-2h12l12-2 13-1 13-2 12-2 13-2 24-4 10-2 10-3 9-3 7-3 16-9" style="clip-to-self:true;comp-op:src"/>
<path transform="scale(.1)" d="m6093.7 7118.2-2-4-3-1-2 5-1 3v3l-1 5v5l-1 5-2 7-1 7-1 8-2 9-1 10-2 10-1 10v10l-1 11-1 10v10l1 9v9l2 14 1 5 2 4 2 3 6 2 6-2 3-3 9-12" style="clip-to-self:true;comp-op:src"/>
<path transform="scale(.1)" d="m6159.8 7080.7v-3l-2-2-3 4-2 4-1 5-4 12-2 7-2 8-1 7-2 9-2 8-2 18-1 10v9 20l1 20 1 10 2 18 1 8 1 7 1 6 1 5 4 8-3-8" style="clip-to-self:true;comp-op:src"/>
<path transform="scale(.1)" d="m6007 7066.5-1-3v-3l-1-4v-4-4l1-3 4-5 3-2 4-3 4-2 6-2 5-2 7-1 8-2 9-1 10-2 11-1 13-1 14-1 30-2 32-2h14 13 12l11 1 10 2 8 1 8 2 10 4 4 2 3 3-3 5" style="clip-to-self:true;comp-op:src"/>
</g>
<path d="m290.15 744.29h340.32" stroke-width="1.41" style="clip-to-self:true;comp-op:src"/>
<g stroke-width="14.1">
<path transform="scale(.1)" d="m3751.8 7941.2v-6l-1-6-2-8-2-7-4-6-5-5-6-4-6-2-7-2-7-1h-17l-9 1-10 2-11 2-10 3-11 3-11 4-11 5-11 6-20 14-9 8-8 7-7 9-5 9-5 8-2 8-1 9 1 8 3 9 10 16 8 8 7 9 9 7 9 8 10 7 10 8 10 6 10 7 9 7 9 6 8 6 6 6 5 6 5 5 2 6 1 6v5l-3 7-3 6-5 6-6 7-7 6-8 7-9 6-9 5-10 5-9 5-10 4-11 3-10 3-10 2-11 2-9 1h-9-7-7l-4-1-3-2-1-6 2-4 4-5 7-7 8-7 25-21" style="clip-to-self:true;comp-op:src"/>
<path transform="scale(.1)" d="m3754.2 8050.3-1 4-1 3-1 4-2 3-4 10-3 6-2 6-2 7-2 12-1 7v6 13 7l2 14 1 6 1 7 4 12 2 5 2 4 1 4 2 3 2-8" style="clip-to-self:true;comp-op:src"/>
<path transform="scale(.1)" d="m3747 8046 2 3 1 5 1 4 1 3 1 4 2 4 2 3 3 7" style="clip-to-self:true;comp-op:src"/>
<path transform="scale(.1)" d="m3821.2 8060.6 2 4 1 4v39 7l1 8v8l1 7v8l3 21 3 15v3l2 5 2-6 2-10 1-6 1-7 3-9 3-8 3-9 4-9 10-18 7-8 5-7 7-7 5-4 6-4 4-2 5-1 8 2 4 3 3 4 6 18 2 8 1 8 2 7 2 8 4 17 2 7 2 8 3 6 2 6 3 5 3 4 6 4h4l4-1 3-2 5-4 4-5 5-6 5-7 4-7 5-9 4-8 4-9 5-9 4-8 4-9 8-14 4-5 4-4 2-3 3-2 5 1 3 4 2 10 1 7 1 8v10 9 10l1 11 1 10 1 11 2 11 2 10 3 9 4 8 4 7 4 5 6 3 5 2 6-1 6-2 6-5 17-18" style="clip-to-self:true;comp-op:src"/>
<path transform="scale(.1)" d="m4152.2 8083.9-2 4-2 5-1 4-2 10v6 12 6l1 7v6l2 14 2 7 2 6 4 13 2 6 2 5 2 4 3 4 2 2h4l2-2 5-10" style="clip-to-self:true;comp-op:src"/>
<path transform="scale(.1)" d="m4190.1 8043.4v-3l-2 3 2 6 2 3 1 3 6 9 7 6" style="clip-to-self:true;comp-op:src"/>
<path transform="scale(.1)" d="m4309.3 7969.2 3-9v-3 7l1 6-1 6v15 9l-1 10v11 12l-1 13v28l1 14v14l4 30 3 14 4 14 5 13 5 11 6 11 6 7 7 6 8 4 7 1 8-1 8-3 8-4 8-5 8-6 8-8 14-18 6-10 11-22 4-12 3-12 2-12 2-11v-10-9l-1-7-1-6-3-4-4-2-5-2-5 1-6 2-6 4-7 5-7 6-7 7-6 9-6 8-5 9-4 10-3 9-2 10-2 9v10 9l2 16 2 7 3 6 3 5 4 3 10 4 12-2 14-6 6-4 7-5 7-6 7-5 6-6 6-5 9-9 4-3 3-3 4-2 2 3 1 5v4 4l1 5v5l1 6 4 10 3 5 3 4 4 2 5 1 13-3" style="clip-to-self:true;comp-op:src"/>
<path transform="scale(.1)" d="m4548.9 8079.6-2-3 4-1 6 2 3 2 5 1 10 5 5 4 6 3 18 15 6 7 5 7 5 8 4 8 3 8 2 9 2 16-1 7-1 6-2 6-2 4-3 3-3 2-8 2-8-2-4-3-3-3-4-5-2-5-1-6-1-7 1-8 1-7 3-9 4-9 5-9 6-10 8-10 9-10 10-11 11-10 12-11 13-10 12-10 13-8 12-8 12-6 11-6 21-10" style="clip-to-self:true;comp-op:src"/>
<path transform="scale(.1)" d="m5089.2 7883.9-3-4-4-1-1 3-2 8v6l-1 7v9 9l-2 24-1 13-2 13-2 30-1 16v16l-1 17 1 17 2 32 3 15 6 26 4 12 4 10 4 9 4 7 4 5 3 3 7 3" style="clip-to-self:true;comp-op:src"/>
<path transform="scale(.1)" d="m4926.8 8117.1-4-4-1-3v-3l1-3 4-4 4-3 7-4 8-3 10-5 11-5 12-6 26-10 14-5 15-5 14-5 16-5 30-8 15-3 14-3 13-1 12-1h11l8 2 7 2 6 2 3 4 2 5v6l-1 7-2 8-3 10-5 10-4 12-6 11-10 24-8 24-3 11-2 10-2 9v8l1 7 1 6 6 8 4 1 5 1h6l7-2 7-4 8-5 7-6 8-7 7-8 7-9 6-10 10-22 4-12 4-11 3-12 4-24v-10-10l-2-7-2-6-4-5-5-3-12-4-8 1-16 4-9 4-9 5-8 5-7 5-7 6-6 6-10 15" style="clip-to-self:true;comp-op:src"/>
<path transform="scale(.1)" d="m5552.4 8011.9 2-4-1 3-1 4-2 5-1 7-2 7-3 9-3 10-6 22-3 12-2 13-3 13v13l-1 13 2 26 3 13 4 11 5 10 6 10 7 7 8 6 9 4 10 2 10 1 11-1 11-2 11-4 11-5 10-7 10-8 9-9 8-11 7-12 6-12 4-14 3-14 2-14 1-14v-16l-2-14-3-14-3-12-6-12-6-10-8-10-9-7-10-5-10-4-10-2-11-1-11 2-11 3-10 5-11 6-18 14-7 8-13 23" style="clip-to-self:true;comp-op:src"/>
</g>
</g>
</g>
</svg>
